<svg version="1.1" baseProfile="full" xmlns="http://www.w3.org/2000/svg" width="691.9666666666667" height="80">
	<g>
		<line x1="10" y1="40.0" x2="681.9666666666667" y2="40.0" style="stroke:rgb(70,70,70); stroke-width:3 "/>
		<g>
			<title> (ctg52_35)</title>
			<polygon class=" (ctg52_35)" points="66,25 61,25 61,10 31,40 61,70 61,55 66,55" fill="rgb(255,255,255)" fill-opacity="1.0" stroke="rgb(0,0,0)" stroke-width="2"  />
		</g>
		<g>
			<title> (ctg52_36)</title>
			<polygon class=" (ctg52_36)" points="67,40 73,10 73,70" fill="rgb(255,255,255)" fill-opacity="1.0" stroke="rgb(0,0,0)" stroke-width="2"  />
		</g>
		<g>
			<title> (ctg52_37)</title>
			<polygon class=" (ctg52_37)" points="75,25 87,25 87,10 117,40 87,70 87,55 75,55" fill="rgb(255,255,255)" fill-opacity="1.0" stroke="rgb(0,0,0)" stroke-width="2"  />
			<g>
				<title>Glycos_transf_1 (PF00534)
"Glycosyl transferases group 1"</title>
				<polygon class="PF00534" points="95,28 101,28 113,40 101,52 95,52" stroke-linejoin="round" width="19" height="24" fill="rgb(228,92,150)" stroke="rgb(182,73,119)" stroke-width="1" opacity="0.75" />
			</g>
		</g>
		<g>
			<title> (ctg52_38)</title>
			<polygon class=" (ctg52_38)" points="118,10 144,40 118,70" fill="rgb(255,255,255)" fill-opacity="1.0" stroke="rgb(0,0,0)" stroke-width="2"  />
			<g>
				<title>MOSC_N (PF03476)
"MOSC N-terminal beta barrel domain"</title>
				<rect class="PF03476" x="118" y="28" stroke-linejoin="round" width="11" height="24" fill="rgb(209,103,209)" stroke="rgb(167,82,167)" stroke-width="1" opacity="0.75" />
			</g>
			<g>
				<title>MOSC (PF03473)
"MOSC domain"</title>
				<polygon class="PF03473" points="131,30 140,40 131,50" stroke-linejoin="round" width="12" height="24" fill="rgb(96,194,162)" stroke="rgb(76,155,129)" stroke-width="1" opacity="0.75" />
			</g>
		</g>
		<g>
			<title> (ctg52_39)</title>
			<polygon class=" (ctg52_39)" points="149,25 154,25 154,10 184,40 154,70 154,55 149,55" fill="rgb(255,255,255)" fill-opacity="1.0" stroke="rgb(0,0,0)" stroke-width="2"  />
			<g>
				<title>FeS_assembly_P (PF01883)
"Iron-sulfur cluster assembly protein"</title>
				<rect class="PF01883" x="149" y="28" stroke-linejoin="round" width="7" height="24" fill="rgb(171,209,57)" stroke="rgb(136,167,45)" stroke-width="1" opacity="0.75" />
			</g>
			<g>
				<title>ParA (PF10609)
"NUBPL iron-transfer P-loop NTPase"</title>
				<polygon class="PF10609" points="158,28 168,28 180,40 168,52 158,52" stroke-linejoin="round" width="24" height="24" fill="rgb(107,194,90)" stroke="rgb(85,155,72)" stroke-width="1" opacity="0.75" />
			</g>
		</g>
		<g>
			<title> (ctg52_40)</title>
			<polygon class=" (ctg52_40)" points="195,25 204,25 204,10 234,40 204,70 204,55 195,55" fill="rgb(255,255,255)" fill-opacity="1.0" stroke="rgb(0,0,0)" stroke-width="2"  />
			<g>
				<title>FTSW_RODA_SPOVE (PF01098)
"Cell cycle protein"</title>
				<polygon class="PF01098" points="211,28 218,28 230,40 218,52 211,52" stroke-linejoin="round" width="22" height="24" fill="rgb(57,114,205)" stroke="rgb(45,91,164)" stroke-width="1" opacity="0.75" />
			</g>
		</g>
		<g>
			<title> (ctg52_41)</title>
			<polygon class=" (ctg52_41)" points="267,25 269,25 269,10 299,40 269,70 269,55 267,55" fill="rgb(255,255,255)" fill-opacity="1.0" stroke="rgb(0,0,0)" stroke-width="2"  />
		</g>
		<g>
			<title> (ctg52_42)</title>
			<polygon class=" (ctg52_42)" points="302,25 304,25 304,10 334,40 304,70 304,55 302,55" fill="rgb(255,255,255)" fill-opacity="1.0" stroke="rgb(0,0,0)" stroke-width="2"  />
		</g>
		<g>
			<title> (ctg52_43)</title>
			<polygon class=" (ctg52_43)" points="343,10 348,40 343,70" fill="rgb(255,255,255)" fill-opacity="1.0" stroke="rgb(0,0,0)" stroke-width="2"  />
			<g>
				<title>Inhibitor_I10 (PF12559)
"Serine endopeptidase inhibitors"</title>
				<polygon class="PF12559" points="343,28 345,40 343,52" stroke-linejoin="round" width="5" height="24" fill="rgb(179,147,51)" stroke="rgb(143,117,40)" stroke-width="1" opacity="0.75" />
			</g>
		</g>
		<g>
			<title> (ctg52_44)</title>
			<polygon class=" (ctg52_44)" points="354,40 371,10 371,70" fill="rgb(255,255,255)" fill-opacity="1.0" stroke="rgb(0,0,0)" stroke-width="2"  />
		</g>
		<g>
			<title> (ctg52_45)</title>
			<polygon class=" (ctg52_45)" points="376,40 394,10 394,70" fill="rgb(255,255,255)" fill-opacity="1.0" stroke="rgb(0,0,0)" stroke-width="2"  />
			<g>
				<title>Acetyltransf_3 (PF13302)
"Acetyltransferase (GNAT) domain"</title>
				<polygon class="PF13302" points="380,40 387,28 392,28 392,52 387,52" stroke-linejoin="round" width="14" height="24" fill="rgb(105,146,215)" stroke="rgb(84,116,172)" stroke-width="1" opacity="0.75" />
			</g>
		</g>
		<g>
			<title> (ctg52_46)</title>
			<polygon class=" (ctg52_46)" points="470,25 432,25 432,10 402,40 432,70 432,55 470,55" fill="rgb(255,255,255)" fill-opacity="1.0" stroke="rgb(0,0,0)" stroke-width="2"  />
			<g>
				<title>ABC_tran (PF00005)
"ABC transporter"</title>
				<polygon class="PF00005" points="417,29 418,28 430,28 430,52 418,52 417,51" stroke-linejoin="round" width="13" height="24" fill="rgb(129,201,63)" stroke="rgb(103,160,50)" stroke-width="1" opacity="0.75" />
			</g>
			<g>
				<title>ABC_membrane_2 (PF06472)
"ABC transporter transmembrane region 2"</title>
				<rect class="PF06472" x="439" y="28" stroke-linejoin="round" width="25" height="24" fill="rgb(120,179,45)" stroke="rgb(96,143,36)" stroke-width="1" opacity="0.75" />
			</g>
		</g>
		<g>
			<title> (ctg52_47)</title>
			<polygon class=" (ctg52_47)" points="478,40 486,10 486,70" fill="rgb(255,255,255)" fill-opacity="1.0" stroke="rgb(0,0,0)" stroke-width="2"  />
		</g>
		<g>
			<title> (ctg52_48)</title>
			<polygon class=" (ctg52_48)" points="521,25 520,25 520,10 490,40 520,70 520,55 521,55" fill="rgb(255,255,255)" fill-opacity="1.0" stroke="rgb(0,0,0)" stroke-width="2"  />
			<g>
				<title>NAD_binding_8 (PF13450)
"NAD(P)-binding Rossmann-like domain"</title>
				<rect class="PF13450" x="513" y="28" stroke-linejoin="round" width="6" height="24" fill="rgb(91,180,227)" stroke="rgb(72,144,181)" stroke-width="1" opacity="0.75" />
			</g>
		</g>
		<g>
			<title> (ctg52_49)</title>
			<polygon class=" (ctg52_49)" points="525,10 552,40 525,70" fill="rgb(255,255,255)" fill-opacity="1.0" stroke="rgb(0,0,0)" stroke-width="2"  />
		</g>
		<g>
			<title> (ctg52_50)</title>
			<polygon class=" (ctg52_50)" points="552,25 564,25 564,10 594,40 564,70 564,55 552,55" fill="rgb(255,255,255)" fill-opacity="1.0" stroke="rgb(0,0,0)" stroke-width="2"  />
			<g>
				<title>Wzy_C (PF04932)
"O-Antigen ligase"</title>
				<polygon class="PF04932" points="567,28 578,28 586,36 586,44 578,52 567,52" stroke-linejoin="round" width="19" height="24" fill="rgb(106,219,107)" stroke="rgb(84,175,85)" stroke-width="1" opacity="0.75" />
			</g>
		</g>
		<g>
			<title> (ctg52_51)</title>
			<polygon class=" (ctg52_51)" points="603,10 606,40 603,70" fill="rgb(255,255,255)" fill-opacity="1.0" stroke="rgb(0,0,0)" stroke-width="2"  />
		</g>
		<g>
			<title> (ctg52_52)</title>
			<polygon class=" (ctg52_52)" points="615,40 644,10 644,70" fill="rgb(255,255,255)" fill-opacity="1.0" stroke="rgb(0,0,0)" stroke-width="2"  />
			<g>
				<title>Mem_trans (PF03547)
"Membrane transport protein"</title>
				<polygon class="PF03547" points="619,40 629,30 629,50" stroke-linejoin="round" width="14" height="24" fill="rgb(178,51,81)" stroke="rgb(142,40,64)" stroke-width="1" opacity="0.75" />
			</g>
		</g>
		<g>
			<title> (ctg52_53)</title>
			<polygon class=" (ctg52_53)" points="646,40 665,10 665,70" fill="rgb(255,255,255)" fill-opacity="1.0" stroke="rgb(0,0,0)" stroke-width="2"  />
			<g>
				<title>Uma2 (PF05685)
"Putative restriction endonuclease"</title>
				<polygon class="PF05685" points="650,40 658,28 663,28 663,52 658,52" stroke-linejoin="round" width="16" height="24" fill="rgb(123,107,219)" stroke="rgb(98,85,175)" stroke-width="1" opacity="0.75" />
			</g>
		</g>
		<g>
			<title> (ctg52_54)</title>
			<polygon class=" (ctg52_54)" points="666,40 671,10 671,70" fill="rgb(255,255,255)" fill-opacity="1.0" stroke="rgb(0,0,0)" stroke-width="2"  />
		</g>
		<g>
			<title> (ctg52_55)</title>
			<polygon class=" (ctg52_55)" points="671,40 679,10 679,70" fill="rgb(255,255,255)" fill-opacity="1.0" stroke="rgb(0,0,0)" stroke-width="2"  />
		</g>
	</g>
</svg>
