<svg version="1.1" baseProfile="full" xmlns="http://www.w3.org/2000/svg" width="646.5666666666667" height="80">
	<g>
		<line x1="10" y1="40.0" x2="636.5666666666667" y2="40.0" style="stroke:rgb(70,70,70); stroke-width:3 "/>
		<g>
			<title> (ctg10_12)</title>
			<polygon class=" (ctg10_12)" points="39,40 48,10 48,70" fill="rgb(255,255,255)" fill-opacity="1.0" stroke="rgb(0,0,0)" stroke-width="2"  />
		</g>
		<g>
			<title> (ctg10_13)</title>
			<polygon class=" (ctg10_13)" points="57,40 61,10 61,70" fill="rgb(255,255,255)" fill-opacity="1.0" stroke="rgb(0,0,0)" stroke-width="2"  />
		</g>
		<g>
			<title> (ctg10_14)</title>
			<polygon class=" (ctg10_14)" points="62,10 66,40 62,70" fill="rgb(255,255,255)" fill-opacity="1.0" stroke="rgb(0,0,0)" stroke-width="2"  />
		</g>
		<g>
			<title> (ctg10_15)</title>
			<polygon class=" (ctg10_15)" points="65,10 75,40 65,70" fill="rgb(255,255,255)" fill-opacity="1.0" stroke="rgb(0,0,0)" stroke-width="2"  />
			<g>
				<title>FGE-sulfatase (PF03781)
"Sulfatase-modifying factor enzyme 1"</title>
				<polygon class="PF03781" points="65,28 67,28 72,40 67,52 65,52" stroke-linejoin="round" width="10" height="24" fill="rgb(206,81,170)" stroke="rgb(164,64,136)" stroke-width="1" opacity="0.75" />
			</g>
		</g>
		<g>
			<title> (ctg10_16)</title>
			<polygon class=" (ctg10_16)" points="78,25 90,25 90,10 120,40 90,70 90,55 78,55" fill="rgb(255,255,255)" fill-opacity="1.0" stroke="rgb(0,0,0)" stroke-width="2"  />
			<g>
				<title>Glycos_transf_2 (PF00535)
"Glycosyl transferase family 2"</title>
				<rect class="PF00535" x="82" y="28" stroke-linejoin="round" width="16" height="24" fill="rgb(224,122,96)" stroke="rgb(179,97,76)" stroke-width="1" opacity="0.75" />
			</g>
			<g>
				<title>GtrA (PF04138)
"GtrA-like protein"</title>
				<polygon class="PF04138" points="107,32 115,40 107,48" stroke-linejoin="round" width="12" height="24" fill="rgb(72,221,86)" stroke="rgb(57,176,68)" stroke-width="1" opacity="0.75" />
			</g>
		</g>
		<g>
			<title> (ctg10_17)</title>
			<polygon class=" (ctg10_17)" points="123,10 137,40 123,70" fill="rgb(255,255,255)" fill-opacity="1.0" stroke="rgb(0,0,0)" stroke-width="2"  />
			<g>
				<title>Prok-JAB (PF14464)
"Prokaryotic homologs of the JAB domain"</title>
				<polygon class="PF14464" points="123,28 127,28 133,40 127,52 123,52" stroke-linejoin="round" width="12" height="24" fill="rgb(187,62,157)" stroke="rgb(149,49,125)" stroke-width="1" opacity="0.75" />
			</g>
		</g>
		<g>
			<title> (ctg10_18)</title>
			<polygon class=" (ctg10_18)" points="136,40 154,10 154,70" fill="rgb(255,255,255)" fill-opacity="1.0" stroke="rgb(0,0,0)" stroke-width="2"  />
			<g>
				<title>DUF4334 (PF14232)
"Domain of unknown function (DUF4334)"</title>
				<polygon class="PF14232" points="140,40 141,38 141,42" stroke-linejoin="round" width="5" height="24" fill="rgb(214,119,60)" stroke="rgb(171,95,47)" stroke-width="1" opacity="0.75" />
			</g>
			<g>
				<title>GXWXG (PF14231)
"GXWXG protein"</title>
				<polygon class="PF14231" points="146,30 148,28 151,28 151,52 148,52 146,50" stroke-linejoin="round" width="5" height="24" fill="rgb(47,179,160)" stroke="rgb(37,143,127)" stroke-width="1" opacity="0.75" />
			</g>
		</g>
		<g>
			<title> (ctg10_19)</title>
			<polygon class=" (ctg10_19)" points="162,25 175,25 175,10 205,40 175,70 175,55 162,55" fill="rgb(255,255,255)" fill-opacity="1.0" stroke="rgb(0,0,0)" stroke-width="2"  />
			<g>
				<title>Aminotran_5 (PF00266)
"Aminotransferase class-V"</title>
				<polygon class="PF00266" points="166,28 188,28 200,40 188,52 166,52" stroke-linejoin="round" width="36" height="24" fill="rgb(214,54,122)" stroke="rgb(171,43,97)" stroke-width="1" opacity="0.75" />
			</g>
		</g>
		<g>
			<title> (ctg10_20)</title>
			<polygon class=" (ctg10_20)" points="256,25 237,25 237,10 207,40 237,70 237,55 256,55" fill="rgb(255,255,255)" fill-opacity="1.0" stroke="rgb(0,0,0)" stroke-width="2"  />
			<g>
				<title>Proton_antipo_M (PF00361)
"Proton-conducting membrane transporter"</title>
				<polygon class="PF00361" points="214,37 223,28 243,28 243,52 223,52 214,43" stroke-linejoin="round" width="29" height="24" fill="rgb(54,193,132)" stroke="rgb(43,154,105)" stroke-width="1" opacity="0.75" />
			</g>
		</g>
		<g>
			<title> (ctg10_21)</title>
			<polygon class=" (ctg10_21)" points="260,40 263,10 263,70" fill="rgb(255,255,255)" fill-opacity="1.0" stroke="rgb(0,0,0)" stroke-width="2"  />
		</g>
		<g>
			<title> (ctg10_22)</title>
			<polygon class=" (ctg10_22)" points="285,40 290,10 290,70" fill="rgb(255,255,255)" fill-opacity="1.0" stroke="rgb(0,0,0)" stroke-width="2"  />
		</g>
		<g>
			<title> (ctg10_23)</title>
			<polygon class=" (ctg10_23)" points="291,25 297,25 297,10 327,40 297,70 297,55 291,55" fill="rgb(255,255,255)" fill-opacity="1.0" stroke="rgb(0,0,0)" stroke-width="2"  />
			<g>
				<title>Radical_SAM (PF04055)
"Radical SAM superfamily"</title>
				<rect class="PF04055" x="292" y="28" stroke-linejoin="round" width="14" height="24" fill="rgb(149,56,222)" stroke="rgb(119,44,177)" stroke-width="1" opacity="0.75" />
			</g>
		</g>
		<g>
			<title> (ctg10_24)</title>
			<polygon class=" (ctg10_24)" points="331,10 336,40 331,70" fill="rgb(255,255,255)" fill-opacity="1.0" stroke="rgb(0,0,0)" stroke-width="2"  />
		</g>
		<g>
			<title> (ctg10_25)</title>
			<polygon class=" (ctg10_25)" points="343,25 382,25 382,10 412,40 382,70 382,55 343,55" fill="rgb(255,255,255)" fill-opacity="1.0" stroke="rgb(0,0,0)" stroke-width="2"  />
			<g>
				<title>SQHop_cyclase_C (PF13243)
"Squalene-hopene cyclase C-terminal domain"</title>
				<polygon class="PF13243" points="382,28 396,28 408,40 408,40 396,52 382,52" stroke-linejoin="round" width="26" height="24" fill="rgb(191,58,201)" stroke="rgb(152,46,160)" stroke-width="1" opacity="0.75" />
			</g>
		</g>
		<g>
			<title> (ctg10_26)</title>
			<polygon class=" (ctg10_26)" points="413,25 423,25 423,10 453,40 423,70 423,55 413,55" fill="rgb(255,255,255)" fill-opacity="1.0" stroke="rgb(0,0,0)" stroke-width="2"  />
		</g>
		<g>
			<title> (ctg10_27)</title>
			<polygon class=" (ctg10_27)" points="453,25 463,25 463,10 493,40 463,70 463,55 453,55" fill="rgb(255,255,255)" fill-opacity="1.0" stroke="rgb(0,0,0)" stroke-width="2"  />
			<g>
				<title>MacB_PCD (PF12704)
"MacB-like periplasmic core domain"</title>
				<rect class="PF12704" x="455" y="28" stroke-linejoin="round" width="22" height="24" fill="rgb(79,76,190)" stroke="rgb(63,60,152)" stroke-width="1" opacity="0.75" />
			</g>
			<g>
				<title>FtsX (PF02687)
"FtsX-like permease family"</title>
				<polygon class="PF02687" points="483,34 489,40 483,46" stroke-linejoin="round" width="8" height="24" fill="rgb(126,55,214)" stroke="rgb(100,44,171)" stroke-width="1" opacity="0.75" />
			</g>
		</g>
		<g>
			<title> (ctg10_28)</title>
			<polygon class=" (ctg10_28)" points="494,25 511,25 511,10 541,40 511,70 511,55 494,55" fill="rgb(255,255,255)" fill-opacity="1.0" stroke="rgb(0,0,0)" stroke-width="2"  />
			<g>
				<title>Biotin_lipoyl_2 (PF13533)
"Biotin-lipoyl like"</title>
				<rect class="PF13533" x="501" y="28" stroke-linejoin="round" width="4" height="24" fill="rgb(229,122,112)" stroke="rgb(183,97,89)" stroke-width="1" opacity="0.75" />
			</g>
			<g>
				<title>HlyD_3 (PF13437)
"HlyD family secretion protein"</title>
				<polygon class="PF13437" points="522,28 525,28 533,36 533,44 525,52 522,52" stroke-linejoin="round" width="11" height="24" fill="rgb(82,200,102)" stroke="rgb(65,160,81)" stroke-width="1" opacity="0.75" />
			</g>
		</g>
		<g>
			<title> (ctg10_29)</title>
			<polygon class=" (ctg10_29)" points="587,25 572,25 572,10 542,40 572,70 572,55 587,55" fill="rgb(255,255,255)" fill-opacity="1.0" stroke="rgb(0,0,0)" stroke-width="2"  />
			<g>
				<title>AMP-binding_C (PF13193)
"AMP-binding enzyme C-terminal domain"</title>
				<polygon class="PF13193" points="546,40 551,35 551,45" stroke-linejoin="round" width="7" height="24" fill="rgb(182,50,118)" stroke="rgb(145,39,94)" stroke-width="1" opacity="0.75" />
			</g>
			<g>
				<title>AMP-binding (PF00501)
"AMP-binding enzyme"</title>
				<polygon class="PF00501" points="552,34 558,28 576,28 576,52 558,52 552,46" stroke-linejoin="round" width="24" height="24" fill="rgb(60,217,223)" stroke="rgb(48,173,178)" stroke-width="1" opacity="0.75" />
			</g>
		</g>
		<g>
			<title> (ctg10_30)</title>
			<polygon class=" (ctg10_30)" points="618,25 616,25 616,10 586,40 616,70 616,55 618,55" fill="rgb(255,255,255)" fill-opacity="1.0" stroke="rgb(0,0,0)" stroke-width="2"  />
			<g>
				<title>MR_MLE_C (PF13378)
"Enolase C-terminal domain-like"</title>
				<polygon class="PF13378" points="590,40 602,28 605,28 605,52 602,52" stroke-linejoin="round" width="18" height="24" fill="rgb(191,184,94)" stroke="rgb(152,147,75)" stroke-width="1" opacity="0.75" />
			</g>
		</g>
		<g>
			<title> (ctg10_31)</title>
			<polygon class=" (ctg10_31)" points="625,10 636,40 625,70" fill="rgb(255,255,255)" fill-opacity="1.0" stroke="rgb(0,0,0)" stroke-width="2"  />
			<g>
				<title>DDE_Tnp_1_3 (PF13612)
"Transposase DDE domain"</title>
				<polygon class="PF13612" points="627,28 628,28 632,40 628,52 627,52" stroke-linejoin="round" width="8" height="24" fill="rgb(205,75,164)" stroke="rgb(164,60,131)" stroke-width="1" opacity="0.75" />
			</g>
		</g>
	</g>
</svg>
