<svg version="1.1" baseProfile="full" xmlns="http://www.w3.org/2000/svg" width="690.9" height="80">
	<g>
		<line x1="10" y1="40.0" x2="680.9" y2="40.0" style="stroke:rgb(70,70,70); stroke-width:3 "/>
		<g>
			<title> (ctg31_7)</title>
			<polygon class=" (ctg31_7)" points="23,25 43,25 43,10 73,40 43,70 43,55 23,55" fill="rgb(255,255,255)" fill-opacity="1.0" stroke="rgb(0,0,0)" stroke-width="2"  />
			<g>
				<title>PseudoU_synth_2 (PF00849)
"RNA pseudouridylate synthase"</title>
				<polygon class="PF00849" points="53,28 56,28 67,39 67,41 56,52 53,52" stroke-linejoin="round" width="14" height="24" fill="rgb(226,76,228)" stroke="rgb(180,60,182)" stroke-width="1" opacity="0.75" />
			</g>
		</g>
		<g>
			<title> (ctg31_8)</title>
			<polygon class=" (ctg31_8)" points="81,40 95,10 95,70" fill="rgb(255,255,255)" fill-opacity="1.0" stroke="rgb(0,0,0)" stroke-width="2"  />
			<g>
				<title>DUF29 (PF01724)
"Domain of unknown function DUF29"</title>
				<polygon class="PF01724" points="84,40 90,28 94,28 94,52 90,52" stroke-linejoin="round" width="13" height="24" fill="rgb(104,61,184)" stroke="rgb(83,48,147)" stroke-width="1" opacity="0.75" />
			</g>
		</g>
		<g>
			<title> (ctg31_9)</title>
			<polygon class=" (ctg31_9)" points="106,25 144,25 144,10 174,40 144,70 144,55 106,55" fill="rgb(255,255,255)" fill-opacity="1.0" stroke="rgb(0,0,0)" stroke-width="2"  />
			<g>
				<title>Pentapeptide (PF00805)
"Pentapeptide repeats (8 copies)"</title>
				<rect class="PF00805" x="107" y="28" stroke-linejoin="round" width="4" height="24" fill="rgb(186,52,164)" stroke="rgb(148,41,131)" stroke-width="1" opacity="0.75" />
			</g>
			<g>
				<title>Pentapeptide (PF00805)
"Pentapeptide repeats (8 copies)"</title>
				<rect class="PF00805" x="131" y="28" stroke-linejoin="round" width="3" height="24" fill="rgb(186,52,164)" stroke="rgb(148,41,131)" stroke-width="1" opacity="0.75" />
			</g>
			<g>
				<title>Pentapeptide (PF00805)
"Pentapeptide repeats (8 copies)"</title>
				<rect class="PF00805" x="138" y="28" stroke-linejoin="round" width="3" height="24" fill="rgb(186,52,164)" stroke="rgb(148,41,131)" stroke-width="1" opacity="0.75" />
			</g>
		</g>
		<g>
			<title> (ctg31_10)</title>
			<polygon class=" (ctg31_10)" points="174,40 178,10 178,70" fill="rgb(255,255,255)" fill-opacity="1.0" stroke="rgb(0,0,0)" stroke-width="2"  />
		</g>
		<g>
			<title> (ctg31_11)</title>
			<polygon class=" (ctg31_11)" points="179,40 207,10 207,70" fill="rgb(255,255,255)" fill-opacity="1.0" stroke="rgb(0,0,0)" stroke-width="2"  />
			<g>
				<title>Transglut_core (PF01841)
"Transglutaminase-like superfamily"</title>
				<polygon class="PF01841" points="184,39 194,29 194,51 184,41" stroke-linejoin="round" width="10" height="24" fill="rgb(208,223,79)" stroke="rgb(166,178,63)" stroke-width="1" opacity="0.75" />
			</g>
			<g>
				<title>Bact_transglu_N (PF08379)
"Bacterial transglutaminase-like N-terminal region"</title>
				<rect class="PF08379" x="199" y="28" stroke-linejoin="round" width="7" height="24" fill="rgb(224,108,64)" stroke="rgb(179,86,51)" stroke-width="1" opacity="0.75" />
			</g>
		</g>
		<g>
			<title> (ctg31_12)</title>
			<polygon class=" (ctg31_12)" points="241,25 238,25 238,10 208,40 238,70 238,55 241,55" fill="rgb(255,255,255)" fill-opacity="1.0" stroke="rgb(0,0,0)" stroke-width="2"  />
			<g>
				<title>Alpha-E (PF04168)
"A predicted alpha-helical domain with a conserved ER motif."</title>
				<polygon class="PF04168" points="212,40 224,28 240,28 240,52 224,52" stroke-linejoin="round" width="30" height="24" fill="rgb(190,83,80)" stroke="rgb(152,66,64)" stroke-width="1" opacity="0.75" />
			</g>
		</g>
		<g>
			<title> (ctg31_13)</title>
			<polygon class=" (ctg31_13)" points="291,25 274,25 274,10 244,40 274,70 274,55 291,55" fill="rgb(255,255,255)" fill-opacity="1.0" stroke="rgb(0,0,0)" stroke-width="2"  />
			<g>
				<title>CP_ATPgrasp_2 (PF14403)
"Circularly permuted ATP-grasp type 2"</title>
				<polygon class="PF14403" points="248,40 260,28 283,28 283,52 260,52" stroke-linejoin="round" width="37" height="24" fill="rgb(80,222,92)" stroke="rgb(64,177,73)" stroke-width="1" opacity="0.75" />
			</g>
		</g>
		<g>
			<title> (ctg31_14)</title>
			<polygon class=" (ctg31_14)" points="308,10 322,40 308,70" fill="rgb(255,255,255)" fill-opacity="1.0" stroke="rgb(0,0,0)" stroke-width="2"  />
			<g>
				<title>Cytochrome_B (PF00033)
"Cytochrome b/b6/petB"</title>
				<polygon class="PF00033" points="308,28 313,28 319,40 313,52 308,52" stroke-linejoin="round" width="13" height="24" fill="rgb(209,58,124)" stroke="rgb(167,46,99)" stroke-width="1" opacity="0.75" />
			</g>
		</g>
		<g>
			<title> (ctg31_15)</title>
			<polygon class=" (ctg31_15)" points="330,10 340,40 330,70" fill="rgb(255,255,255)" fill-opacity="1.0" stroke="rgb(0,0,0)" stroke-width="2"  />
			<g>
				<title>Cytochrom_B_C (PF00032)
"Cytochrome b(C-terminal)/b6/petD"</title>
				<polygon class="PF00032" points="330,28 332,28 336,40 332,52 330,52" stroke-linejoin="round" width="9" height="24" fill="rgb(183,105,214)" stroke="rgb(146,84,171)" stroke-width="1" opacity="0.75" />
			</g>
		</g>
		<g>
			<title> (ctg31_16)</title>
			<polygon class=" (ctg31_16)" points="343,40 370,10 370,70" fill="rgb(255,255,255)" fill-opacity="1.0" stroke="rgb(0,0,0)" stroke-width="2"  />
			<g>
				<title>SQS_PSY (PF00494)
"Squalene/phytoene synthase"</title>
				<polygon class="PF00494" points="348,39 358,28 368,28 368,52 358,52 348,41" stroke-linejoin="round" width="20" height="24" fill="rgb(178,91,49)" stroke="rgb(142,72,39)" stroke-width="1" opacity="0.75" />
			</g>
		</g>
		<g>
			<title> (ctg31_17)</title>
			<polygon class=" (ctg31_17)" points="379,40 386,10 386,70" fill="rgb(255,255,255)" fill-opacity="1.0" stroke="rgb(0,0,0)" stroke-width="2"  />
		</g>
		<g>
			<title> (ctg31_18)</title>
			<polygon class=" (ctg31_18)" points="403,40 407,10 407,70" fill="rgb(255,255,255)" fill-opacity="1.0" stroke="rgb(0,0,0)" stroke-width="2"  />
		</g>
		<g>
			<title> (ctg31_19)</title>
			<polygon class=" (ctg31_19)" points="460,25 436,25 436,10 406,40 436,70 436,55 460,55" fill="rgb(255,255,255)" fill-opacity="1.0" stroke="rgb(0,0,0)" stroke-width="2"  />
		</g>
		<g>
			<title> (ctg31_20)</title>
			<polygon class=" (ctg31_20)" points="499,10 511,40 499,70" fill="rgb(255,255,255)" fill-opacity="1.0" stroke="rgb(0,0,0)" stroke-width="2"  />
			<g>
				<title>Response_reg (PF00072)
"Response regulator receiver domain"</title>
				<polygon class="PF00072" points="499,28 502,28 507,40 502,52 499,52" stroke-linejoin="round" width="11" height="24" fill="rgb(100,107,203)" stroke="rgb(80,85,162)" stroke-width="1" opacity="0.75" />
			</g>
		</g>
		<g>
			<title> (ctg31_21)</title>
			<polygon class=" (ctg31_21)" points="515,10 532,40 515,70" fill="rgb(255,255,255)" fill-opacity="1.0" stroke="rgb(0,0,0)" stroke-width="2"  />
			<g>
				<title>CheW (PF01584)
"CheW-like domain"</title>
				<polygon class="PF01584" points="517,28 522,28 529,40 522,52 517,52" stroke-linejoin="round" width="14" height="24" fill="rgb(141,221,87)" stroke="rgb(112,176,69)" stroke-width="1" opacity="0.75" />
			</g>
		</g>
		<g>
			<title> (ctg31_22)</title>
			<polygon class=" (ctg31_22)" points="536,25 594,25 594,10 624,40 594,70 594,55 536,55" fill="rgb(255,255,255)" fill-opacity="1.0" stroke="rgb(0,0,0)" stroke-width="2"  />
			<g>
				<title>HAMP (PF00672)
"HAMP domain"</title>
				<rect class="PF00672" x="584" y="28" stroke-linejoin="round" width="5" height="24" fill="rgb(124,89,195)" stroke="rgb(99,71,156)" stroke-width="1" opacity="0.75" />
			</g>
			<g>
				<title>MCPsignal (PF00015)
"Methyl-accepting chemotaxis protein (MCP) signalling domain"</title>
				<polygon class="PF00015" points="602,28 608,28 620,40 620,40 608,52 602,52" stroke-linejoin="round" width="18" height="24" fill="rgb(104,174,223)" stroke="rgb(83,139,178)" stroke-width="1" opacity="0.75" />
			</g>
		</g>
		<g>
			<title> (ctg31_23)</title>
			<polygon class=" (ctg31_23)" points="625,25 637,25 637,10 667,40 637,70 637,55 625,55" fill="rgb(255,255,255)" fill-opacity="1.0" stroke="rgb(0,0,0)" stroke-width="2"  />
			<g>
				<title>Glycos_transf_2 (PF00535)
"Glycosyl transferase family 2"</title>
				<rect class="PF00535" x="627" y="28" stroke-linejoin="round" width="15" height="24" fill="rgb(224,122,96)" stroke="rgb(179,97,76)" stroke-width="1" opacity="0.75" />
			</g>
			<g>
				<title>TPR_11 (PF13414)
"TPR repeat"</title>
				<polygon class="PF13414" points="659,36 662,39 662,41 659,44" stroke-linejoin="round" width="3" height="24" fill="rgb(55,76,182)" stroke="rgb(44,60,145)" stroke-width="1" opacity="0.75" />
			</g>
		</g>
		<g>
			<title> (ctg31_24)</title>
			<polygon class=" (ctg31_24)" points="667,10 671,40 667,70" fill="rgb(255,255,255)" fill-opacity="1.0" stroke="rgb(0,0,0)" stroke-width="2"  />
		</g>
		<g>
			<title> (ctg31_25)</title>
			<polygon class=" (ctg31_25)" points="676,40 680,10 680,70" fill="rgb(255,255,255)" fill-opacity="1.0" stroke="rgb(0,0,0)" stroke-width="2"  />
		</g>
	</g>
</svg>
