<svg version="1.1" baseProfile="full" xmlns="http://www.w3.org/2000/svg" width="1397.9333333333334" height="80">
	<g>
		<line x1="10" y1="40.0" x2="1387.9333333333334" y2="40.0" style="stroke:rgb(70,70,70); stroke-width:3 "/>
		<g>
			<title> (ctg43_1)</title>
			<polygon class=" (ctg43_1)" points="47,25 40,25 40,10 10,40 40,70 40,55 47,55" fill="rgb(255,255,255)" fill-opacity="1.0" stroke="rgb(0,0,0)" stroke-width="2"  />
			<g>
				<title>HemolysinCabind (PF00353)
"RTX calcium-binding nonapeptide repeat (4 copies)"</title>
				<polygon class="PF00353" points="14,40 13,41 13,39" stroke-linejoin="round" width="3" height="24" fill="rgb(73,143,181)" stroke="rgb(58,114,144)" stroke-width="1" opacity="0.75" />
			</g>
			<g>
				<title>HemolysinCabind (PF00353)
"RTX calcium-binding nonapeptide repeat (4 copies)"</title>
				<polygon class="PF00353" points="14,40 16,38 16,42" stroke-linejoin="round" width="3" height="24" fill="rgb(73,143,181)" stroke="rgb(58,114,144)" stroke-width="1" opacity="0.75" />
			</g>
			<g>
				<title>HemolysinCabind (PF00353)
"RTX calcium-binding nonapeptide repeat (4 copies)"</title>
				<polygon class="PF00353" points="24,30 26,28 27,28 27,52 26,52 24,50" stroke-linejoin="round" width="3" height="24" fill="rgb(73,143,181)" stroke="rgb(58,114,144)" stroke-width="1" opacity="0.75" />
			</g>
		</g>
		<g>
			<title> (ctg43_2)</title>
			<polygon class=" (ctg43_2)" points="122,25 106,25 106,10 76,40 106,70 106,55 122,55" fill="rgb(255,255,255)" fill-opacity="1.0" stroke="rgb(0,0,0)" stroke-width="2"  />
			<g>
				<title>MFS_3 (PF05977)
"Transmembrane secretion effector"</title>
				<polygon class="PF05977" points="80,40 92,28 106,28 106,52 92,52" stroke-linejoin="round" width="30" height="24" fill="rgb(80,62,217)" stroke="rgb(64,49,173)" stroke-width="1" opacity="0.75" />
			</g>
		</g>
		<g>
			<title> (ctg43_3)</title>
			<polygon class=" (ctg43_3)" points="126,40 152,10 152,70" fill="rgb(255,255,255)" fill-opacity="1.0" stroke="rgb(0,0,0)" stroke-width="2"  />
			<g>
				<title>RecO_C (PF02565)
"Recombination protein O C terminal"</title>
				<polygon class="PF02565" points="130,40 140,28 143,28 143,52 140,52" stroke-linejoin="round" width="16" height="24" fill="rgb(108,200,225)" stroke="rgb(86,160,180)" stroke-width="1" opacity="0.75" />
			</g>
			<g>
				<title>RecO_N (PF11967)
"Recombination protein O N terminal"</title>
				<rect class="PF11967" x="144" y="28" stroke-linejoin="round" width="7" height="24" fill="rgb(188,95,193)" stroke="rgb(150,76,154)" stroke-width="1" opacity="0.75" />
			</g>
		</g>
		<g>
			<title> (ctg43_4)</title>
			<polygon class=" (ctg43_4)" points="160,10 187,40 160,70" fill="rgb(255,255,255)" fill-opacity="1.0" stroke="rgb(0,0,0)" stroke-width="2"  />
			<g>
				<title>UPF0176_N (PF17773)
"UPF0176 acylphosphatase like domain"</title>
				<rect class="PF17773" x="160" y="28" stroke-linejoin="round" width="9" height="24" fill="rgb(73,125,224)" stroke="rgb(58,99,179)" stroke-width="1" opacity="0.75" />
			</g>
			<g>
				<title>Rhodanese (PF00581)
"Rhodanese-like domain"</title>
				<polygon class="PF00581" points="171,28 171,28 180,37 180,43 171,52 171,52" stroke-linejoin="round" width="9" height="24" fill="rgb(145,191,76)" stroke="rgb(116,152,60)" stroke-width="1" opacity="0.75" />
			</g>
		</g>
		<g>
			<title> (ctg43_5)</title>
			<polygon class=" (ctg43_5)" points="240,25 219,25 219,10 189,40 219,70 219,55 240,55" fill="rgb(255,255,255)" fill-opacity="1.0" stroke="rgb(0,0,0)" stroke-width="2"  />
			<g>
				<title>RDD (PF06271)
"RDD family"</title>
				<polygon class="PF06271" points="193,40 205,28 206,28 206,52 205,52" stroke-linejoin="round" width="17" height="24" fill="rgb(75,173,207)" stroke="rgb(60,138,165)" stroke-width="1" opacity="0.75" />
			</g>
			<g>
				<title>Pkinase (PF00069)
"Protein kinase domain"</title>
				<rect class="PF00069" x="211" y="28" stroke-linejoin="round" width="24" height="24" fill="rgb(104,187,65)" stroke="rgb(83,149,51)" stroke-width="1" opacity="0.75" />
			</g>
		</g>
		<g>
			<title> (ctg43_6)</title>
			<polygon class=" (ctg43_6)" points="242,40 256,10 256,70" fill="rgb(255,255,255)" fill-opacity="1.0" stroke="rgb(0,0,0)" stroke-width="2"  />
		</g>
		<g>
			<title> (ctg43_7)</title>
			<polygon class=" (ctg43_7)" points="258,40 275,10 275,70" fill="rgb(255,255,255)" fill-opacity="1.0" stroke="rgb(0,0,0)" stroke-width="2"  />
		</g>
		<g>
			<title> (ctg43_8)</title>
			<polygon class=" (ctg43_8)" points="287,10 304,40 287,70" fill="rgb(255,255,255)" fill-opacity="1.0" stroke="rgb(0,0,0)" stroke-width="2"  />
		</g>
		<g>
			<title> (ctg43_9)</title>
			<polygon class=" (ctg43_9)" points="309,40 335,10 335,70" fill="rgb(255,255,255)" fill-opacity="1.0" stroke="rgb(0,0,0)" stroke-width="2"  />
			<g>
				<title>Pentapeptide (PF00805)
"Pentapeptide repeats (8 copies)"</title>
				<polygon class="PF00805" points="313,40 314,39 314,41" stroke-linejoin="round" width="3" height="24" fill="rgb(186,52,164)" stroke="rgb(148,41,131)" stroke-width="1" opacity="0.75" />
			</g>
			<g>
				<title>Pentapeptide (PF00805)
"Pentapeptide repeats (8 copies)"</title>
				<polygon class="PF00805" points="315,38 318,34 318,46 315,42" stroke-linejoin="round" width="3" height="24" fill="rgb(186,52,164)" stroke="rgb(148,41,131)" stroke-width="1" opacity="0.75" />
			</g>
			<g>
				<title>Pentapeptide (PF00805)
"Pentapeptide repeats (8 copies)"</title>
				<polygon class="PF00805" points="323,28 323,28 326,28 326,52 323,52 323,52" stroke-linejoin="round" width="3" height="24" fill="rgb(186,52,164)" stroke="rgb(148,41,131)" stroke-width="1" opacity="0.75" />
			</g>
		</g>
		<g>
			<title> (ctg43_10)</title>
			<polygon class=" (ctg43_10)" points="453,25 383,25 383,10 353,40 383,70 383,55 453,55" fill="rgb(255,255,255)" fill-opacity="1.0" stroke="rgb(0,0,0)" stroke-width="2"  />
			<g>
				<title>ACR_tran (PF00873)
"AcrB/AcrD/AcrF family"</title>
				<polygon class="PF00873" points="357,40 369,28 452,28 452,52 369,52" stroke-linejoin="round" width="98" height="24" fill="rgb(63,191,60)" stroke="rgb(50,152,48)" stroke-width="1" opacity="0.75" />
			</g>
		</g>
		<g>
			<title> (ctg43_11)</title>
			<polygon class=" (ctg43_11)" points="503,25 488,25 488,10 458,40 488,70 488,55 503,55" fill="rgb(255,255,255)" fill-opacity="1.0" stroke="rgb(0,0,0)" stroke-width="2"  />
			<g>
				<title>HlyD_3 (PF13437)
"HlyD family secretion protein"</title>
				<polygon class="PF13437" points="466,36 474,28 476,28 476,52 474,52 466,44" stroke-linejoin="round" width="10" height="24" fill="rgb(82,200,102)" stroke="rgb(65,160,81)" stroke-width="1" opacity="0.75" />
			</g>
		</g>
		<g>
			<title> (ctg43_12)</title>
			<polygon class=" (ctg43_12)" points="548,25 535,25 535,10 505,40 535,70 535,55 548,55" fill="rgb(255,255,255)" fill-opacity="1.0" stroke="rgb(0,0,0)" stroke-width="2"  />
			<g>
				<title>MFS_2 (PF13347)
"MFS/sugar transport protein"</title>
				<polygon class="PF13347" points="509,40 521,28 545,28 545,52 521,52" stroke-linejoin="round" width="40" height="24" fill="rgb(68,198,83)" stroke="rgb(54,158,66)" stroke-width="1" opacity="0.75" />
			</g>
		</g>
		<g>
			<title> (ctg43_13)</title>
			<polygon class=" (ctg43_13)" points="604,25 580,25 580,10 550,40 580,70 580,55 604,55" fill="rgb(255,255,255)" fill-opacity="1.0" stroke="rgb(0,0,0)" stroke-width="2"  />
			<g>
				<title>FAD_binding_4 (PF01565)
"FAD binding domain"</title>
				<rect class="PF01565" x="585" y="28" stroke-linejoin="round" width="14" height="24" fill="rgb(226,88,136)" stroke="rgb(180,70,108)" stroke-width="1" opacity="0.75" />
			</g>
		</g>
		<g>
			<title> (ctg43_14)</title>
			<polygon class=" (ctg43_14)" points="607,40 627,10 627,70" fill="rgb(255,255,255)" fill-opacity="1.0" stroke="rgb(0,0,0)" stroke-width="2"  />
			<g>
				<title>ICMT (PF04140)
"Isoprenylcysteine carboxyl methyltransferase (ICMT) family"</title>
				<polygon class="PF04140" points="611,40 619,28 619,28 619,52 619,52" stroke-linejoin="round" width="9" height="24" fill="rgb(100,223,104)" stroke="rgb(80,178,83)" stroke-width="1" opacity="0.75" />
			</g>
		</g>
		<g>
			<title> (ctg43_15)</title>
			<polygon class=" (ctg43_15)" points="667,25 658,25 658,10 628,40 658,70 658,55 667,55" fill="rgb(255,255,255)" fill-opacity="1.0" stroke="rgb(0,0,0)" stroke-width="2"  />
			<g>
				<title>Chal_sti_synt_C (PF02797)
"Chalcone and stilbene synthases, C-terminal domain"</title>
				<polygon class="PF02797" points="632,40 642,30 642,50" stroke-linejoin="round" width="14" height="24" fill="rgb(139,212,63)" stroke="rgb(111,169,50)" stroke-width="1" opacity="0.75" />
			</g>
			<g>
				<title>FAE1_CUT1_RppA (PF08392)
"FAE1/Type III polyketide synthase-like protein"</title>
				<rect class="PF08392" x="647" y="28" stroke-linejoin="round" width="11" height="24" fill="rgb(70,220,135)" stroke="rgb(56,176,108)" stroke-width="1" opacity="0.75" />
			</g>
		</g>
		<g>
			<title> (ctg43_16)</title>
			<polygon class=" (ctg43_16)" points="712,25 698,25 698,10 668,40 698,70 698,55 712,55" fill="rgb(255,255,255)" fill-opacity="1.0" stroke="rgb(0,0,0)" stroke-width="2"  />
			<g>
				<title>FMO-like (PF00743)
"Flavin-binding monooxygenase-like"</title>
				<polygon class="PF00743" points="672,40 684,28 711,28 711,52 684,52" stroke-linejoin="round" width="43" height="24" fill="rgb(203,74,151)" stroke="rgb(162,59,120)" stroke-width="1" opacity="0.75" />
			</g>
		</g>
		<g>
			<title> (ctg43_17)</title>
			<polygon class=" (ctg43_17)" points="845,25 743,25 743,10 713,40 743,70 743,55 845,55" fill="rgb(255,255,255)" fill-opacity="1.0" stroke="rgb(0,0,0)" stroke-width="2"  />
			<g>
				<title>Thioesterase (PF00975)
"Thioesterase domain"</title>
				<polygon class="PF00975" points="717,40 729,28 736,28 736,52 729,52" stroke-linejoin="round" width="22" height="24" fill="rgb(207,80,138)" stroke="rgb(165,63,110)" stroke-width="1" opacity="0.75" />
			</g>
			<g>
				<title>PP-binding (PF00550)
"Phosphopantetheine attachment site"</title>
				<rect class="PF00550" x="742" y="28" stroke-linejoin="round" width="6" height="24" fill="rgb(103,191,88)" stroke="rgb(82,152,70)" stroke-width="1" opacity="0.75" />
			</g>
			<g>
				<title>Acyl_transf_1 (PF00698)
"Acyl transferase domain"</title>
				<rect class="PF00698" x="757" y="28" stroke-linejoin="round" width="31" height="24" fill="rgb(59,176,209)" stroke="rgb(47,140,167)" stroke-width="1" opacity="0.75" />
			</g>
			<g>
				<title>KAsynt_C_assoc (PF16197)
"Ketoacyl-synthetase C-terminal extension"</title>
				<rect class="PF16197" x="792" y="28" stroke-linejoin="round" width="11" height="24" fill="rgb(240,150,172)" stroke="rgb(192,120,137)" stroke-width="1" opacity="0.75" />
			</g>
			<g>
				<title>Ketoacyl-synt_C (PF02801)
"Beta-ketoacyl synthase, C-terminal domain"</title>
				<rect class="PF02801" x="804" y="28" stroke-linejoin="round" width="11" height="24" fill="rgb(215,78,102)" stroke="rgb(172,62,81)" stroke-width="1" opacity="0.75" />
			</g>
			<g>
				<title>ketoacyl-synt (PF00109)
"Beta-ketoacyl synthase, N-terminal domain"</title>
				<rect class="PF00109" x="816" y="28" stroke-linejoin="round" width="25" height="24" fill="rgb(112,116,228)" stroke="rgb(89,92,182)" stroke-width="1" opacity="0.75" />
			</g>
		</g>
		<g>
			<title> (ctg43_18)</title>
			<polygon class=" (ctg43_18)" points="1028,25 877,25 877,10 847,40 877,70 877,55 1028,55" fill="rgb(255,255,255)" fill-opacity="1.0" stroke="rgb(0,0,0)" stroke-width="2"  />
			<g>
				<title>PP-binding (PF00550)
"Phosphopantetheine attachment site"</title>
				<polygon class="PF00550" points="852,39 858,33 858,47 852,41" stroke-linejoin="round" width="6" height="24" fill="rgb(103,191,88)" stroke="rgb(82,152,70)" stroke-width="1" opacity="0.75" />
			</g>
			<g>
				<title>KR (PF08659)
"KR domain"</title>
				<rect class="PF08659" x="868" y="28" stroke-linejoin="round" width="17" height="24" fill="rgb(66,209,188)" stroke="rgb(52,167,150)" stroke-width="1" opacity="0.75" />
			</g>
			<g>
				<title>PS-DH (PF14765)
"Polyketide synthase dehydratase"</title>
				<rect class="PF14765" x="909" y="28" stroke-linejoin="round" width="27" height="24" fill="rgb(173,56,182)" stroke="rgb(138,44,145)" stroke-width="1" opacity="0.75" />
			</g>
			<g>
				<title>Acyl_transf_1 (PF00698)
"Acyl transferase domain"</title>
				<rect class="PF00698" x="941" y="28" stroke-linejoin="round" width="31" height="24" fill="rgb(59,176,209)" stroke="rgb(47,140,167)" stroke-width="1" opacity="0.75" />
			</g>
			<g>
				<title>KAsynt_C_assoc (PF16197)
"Ketoacyl-synthetase C-terminal extension"</title>
				<rect class="PF16197" x="976" y="28" stroke-linejoin="round" width="11" height="24" fill="rgb(240,150,172)" stroke="rgb(192,120,137)" stroke-width="1" opacity="0.75" />
			</g>
			<g>
				<title>Ketoacyl-synt_C (PF02801)
"Beta-ketoacyl synthase, C-terminal domain"</title>
				<rect class="PF02801" x="988" y="28" stroke-linejoin="round" width="11" height="24" fill="rgb(215,78,102)" stroke="rgb(172,62,81)" stroke-width="1" opacity="0.75" />
			</g>
			<g>
				<title>ketoacyl-synt (PF00109)
"Beta-ketoacyl synthase, N-terminal domain"</title>
				<rect class="PF00109" x="1001" y="28" stroke-linejoin="round" width="25" height="24" fill="rgb(112,116,228)" stroke="rgb(89,92,182)" stroke-width="1" opacity="0.75" />
			</g>
		</g>
		<g>
			<title> (ctg43_19)</title>
			<polygon class=" (ctg43_19)" points="1161,25 1065,25 1065,10 1035,40 1065,70 1065,55 1161,55" fill="rgb(255,255,255)" fill-opacity="1.0" stroke="rgb(0,0,0)" stroke-width="2"  />
			<g>
				<title>PP-binding (PF00550)
"Phosphopantetheine attachment site"</title>
				<polygon class="PF00550" points="1039,40 1045,34 1045,46 1039,40" stroke-linejoin="round" width="6" height="24" fill="rgb(103,191,88)" stroke="rgb(82,152,70)" stroke-width="1" opacity="0.75" />
			</g>
			<g>
				<title>Acyl-CoA_dh_1 (PF00441)
"Acyl-CoA dehydrogenase, C-terminal domain"</title>
				<rect class="PF00441" x="1064" y="28" stroke-linejoin="round" width="15" height="24" fill="rgb(85,191,117)" stroke="rgb(68,152,93)" stroke-width="1" opacity="0.75" />
			</g>
			<g>
				<title>Acyl-CoA_dh_M (PF02770)
"Acyl-CoA dehydrogenase, middle domain"</title>
				<rect class="PF02770" x="1080" y="28" stroke-linejoin="round" width="9" height="24" fill="rgb(225,186,97)" stroke="rgb(180,148,77)" stroke-width="1" opacity="0.75" />
			</g>
			<g>
				<title>Acyl-CoA_dh_N (PF02771)
"Acyl-CoA dehydrogenase, N-terminal domain"</title>
				<rect class="PF02771" x="1091" y="28" stroke-linejoin="round" width="11" height="24" fill="rgb(105,135,218)" stroke="rgb(84,108,174)" stroke-width="1" opacity="0.75" />
			</g>
			<g>
				<title>AMP-binding (PF00501)
"AMP-binding enzyme"</title>
				<rect class="PF00501" x="1115" y="28" stroke-linejoin="round" width="44" height="24" fill="rgb(60,217,223)" stroke="rgb(48,173,178)" stroke-width="1" opacity="0.75" />
			</g>
		</g>
		<g>
			<title> (ctg43_20)</title>
			<polygon class=" (ctg43_20)" points="1164,40 1186,10 1186,70" fill="rgb(255,255,255)" fill-opacity="1.0" stroke="rgb(0,0,0)" stroke-width="2"  />
			<g>
				<title>Nitroreductase (PF00881)
"Nitroreductase family"</title>
				<polygon class="PF00881" points="1168,40 1177,28 1184,28 1184,52 1177,52" stroke-linejoin="round" width="17" height="24" fill="rgb(79,118,187)" stroke="rgb(63,94,149)" stroke-width="1" opacity="0.75" />
			</g>
		</g>
		<g>
			<title> (ctg43_21)</title>
			<polygon class=" (ctg43_21)" points="1219,25 1218,25 1218,10 1188,40 1218,70 1218,55 1219,55" fill="rgb(255,255,255)" fill-opacity="1.0" stroke="rgb(0,0,0)" stroke-width="2"  />
			<g>
				<title>Glyoxalase (PF00903)
"Glyoxalase/Bleomycin resistance protein/Dioxygenase superfamily"</title>
				<polygon class="PF00903" points="1192,40 1203,29 1203,51" stroke-linejoin="round" width="12" height="24" fill="rgb(50,162,189)" stroke="rgb(40,129,151)" stroke-width="1" opacity="0.75" />
			</g>
		</g>
		<g>
			<title> (ctg43_22)</title>
			<polygon class=" (ctg43_22)" points="1243,25 1261,25 1261,10 1291,40 1261,70 1261,55 1243,55" fill="rgb(255,255,255)" fill-opacity="1.0" stroke="rgb(0,0,0)" stroke-width="2"  />
			<g>
				<title>EAD4 (PF19959)
"Effector-associated domain 4"</title>
				<rect class="PF19959" x="1243" y="28" stroke-linejoin="round" width="11" height="24" fill="rgb(103,71,187)" stroke="rgb(82,56,149)" stroke-width="1" opacity="0.75" />
			</g>
			<g>
				<title>AAA_35 (PF14516)
"AAA-like domain"</title>
				<polygon class="PF14516" points="1257,28 1274,28 1286,40 1274,52 1257,52" stroke-linejoin="round" width="33" height="24" fill="rgb(134,192,86)" stroke="rgb(107,153,68)" stroke-width="1" opacity="0.75" />
			</g>
		</g>
		<g>
			<title> (ctg43_23)</title>
			<polygon class=" (ctg43_23)" points="1376,25 1321,25 1321,10 1291,40 1321,70 1321,55 1376,55" fill="rgb(255,255,255)" fill-opacity="1.0" stroke="rgb(0,0,0)" stroke-width="2"  />
			<g>
				<title>Peripla_BP_6 (PF13458)
"Periplasmic binding protein"</title>
				<polygon class="PF13458" points="1295,40 1307,28 1327,28 1327,52 1307,52" stroke-linejoin="round" width="33" height="24" fill="rgb(94,183,81)" stroke="rgb(75,146,64)" stroke-width="1" opacity="0.75" />
			</g>
			<g>
				<title>AAA_35 (PF14516)
"AAA-like domain"</title>
				<rect class="PF14516" x="1349" y="28" stroke-linejoin="round" width="27" height="24" fill="rgb(134,192,86)" stroke="rgb(107,153,68)" stroke-width="1" opacity="0.75" />
			</g>
		</g>
	</g>
</svg>
