<svg version="1.1" baseProfile="full" xmlns="http://www.w3.org/2000/svg" width="649.4666666666667" height="80">
	<g>
		<line x1="10" y1="40.0" x2="639.4666666666667" y2="40.0" style="stroke:rgb(70,70,70); stroke-width:3 "/>
		<g>
			<title> (ctg175_1)</title>
			<polygon class=" (ctg175_1)" points="10,10 15,40 10,70" fill="rgb(255,255,255)" fill-opacity="1.0" stroke="rgb(0,0,0)" stroke-width="2"  />
		</g>
		<g>
			<title> (ctg175_2)</title>
			<polygon class=" (ctg175_2)" points="19,25 103,25 103,10 133,40 103,70 103,55 19,55" fill="rgb(255,255,255)" fill-opacity="1.0" stroke="rgb(0,0,0)" stroke-width="2"  />
			<g>
				<title>Calx-beta (PF03160)
"Calx-beta domain"</title>
				<rect class="PF03160" x="63" y="28" stroke-linejoin="round" width="9" height="24" fill="rgb(179,76,146)" stroke="rgb(143,60,116)" stroke-width="1" opacity="0.75" />
			</g>
			<g>
				<title>Calx-beta (PF03160)
"Calx-beta domain"</title>
				<rect class="PF03160" x="74" y="28" stroke-linejoin="round" width="10" height="24" fill="rgb(179,76,146)" stroke="rgb(143,60,116)" stroke-width="1" opacity="0.75" />
			</g>
			<g>
				<title>Calx-beta (PF03160)
"Calx-beta domain"</title>
				<rect class="PF03160" x="85" y="28" stroke-linejoin="round" width="9" height="24" fill="rgb(179,76,146)" stroke="rgb(143,60,116)" stroke-width="1" opacity="0.75" />
			</g>
			<g>
				<title>Calx-beta (PF03160)
"Calx-beta domain"</title>
				<rect class="PF03160" x="96" y="28" stroke-linejoin="round" width="9" height="24" fill="rgb(179,76,146)" stroke="rgb(143,60,116)" stroke-width="1" opacity="0.75" />
			</g>
			<g>
				<title>HemolysinCabind (PF00353)
"RTX calcium-binding nonapeptide repeat (4 copies)"</title>
				<rect class="PF00353" x="111" y="28" stroke-linejoin="round" width="3" height="24" fill="rgb(73,143,181)" stroke="rgb(58,114,144)" stroke-width="1" opacity="0.75" />
			</g>
			<g>
				<title>HemolysinCabind (PF00353)
"RTX calcium-binding nonapeptide repeat (4 copies)"</title>
				<polygon class="PF00353" points="120,31 123,34 123,46 120,49" stroke-linejoin="round" width="3" height="24" fill="rgb(73,143,181)" stroke="rgb(58,114,144)" stroke-width="1" opacity="0.75" />
			</g>
		</g>
		<g>
			<title> (ctg175_3)</title>
			<polygon class=" (ctg175_3)" points="140,40 152,10 152,70" fill="rgb(255,255,255)" fill-opacity="1.0" stroke="rgb(0,0,0)" stroke-width="2"  />
		</g>
		<g>
			<title> (ctg175_4)</title>
			<polygon class=" (ctg175_4)" points="160,40 180,10 180,70" fill="rgb(255,255,255)" fill-opacity="1.0" stroke="rgb(0,0,0)" stroke-width="2"  />
			<g>
				<title>Aldolase_II (PF00596)
"Class II Aldolase and Adducin N-terminal domain"</title>
				<polygon class="PF00596" points="164,40 172,28 179,28 179,52 172,52" stroke-linejoin="round" width="19" height="24" fill="rgb(208,130,90)" stroke="rgb(166,104,72)" stroke-width="1" opacity="0.75" />
			</g>
		</g>
		<g>
			<title> (ctg175_5)</title>
			<polygon class=" (ctg175_5)" points="188,10 200,40 188,70" fill="rgb(255,255,255)" fill-opacity="1.0" stroke="rgb(0,0,0)" stroke-width="2"  />
		</g>
		<g>
			<title> (ctg175_6)</title>
			<polygon class=" (ctg175_6)" points="260,25 243,25 243,10 213,40 243,70 243,55 260,55" fill="rgb(255,255,255)" fill-opacity="1.0" stroke="rgb(0,0,0)" stroke-width="2"  />
			<g>
				<title>RNase_H_2 (PF13482)
"RNase_H superfamily"</title>
				<polygon class="PF13482" points="217,40 229,28 230,28 230,52 229,52" stroke-linejoin="round" width="17" height="24" fill="rgb(188,69,64)" stroke="rgb(150,55,51)" stroke-width="1" opacity="0.75" />
			</g>
		</g>
		<g>
			<title> (ctg175_7)</title>
			<polygon class=" (ctg175_7)" points="270,25 280,25 280,10 310,40 280,70 280,55 270,55" fill="rgb(255,255,255)" fill-opacity="1.0" stroke="rgb(0,0,0)" stroke-width="2"  />
			<g>
				<title>Aminotran_5 (PF00266)
"Aminotransferase class-V"</title>
				<polygon class="PF00266" points="273,28 294,28 306,40 294,52 273,52" stroke-linejoin="round" width="36" height="24" fill="rgb(214,54,122)" stroke="rgb(171,43,97)" stroke-width="1" opacity="0.75" />
			</g>
		</g>
		<g>
			<title> (ctg175_8)</title>
			<polygon class=" (ctg175_8)" points="450,25 341,25 341,10 311,40 341,70 341,55 450,55" fill="rgb(255,255,255)" fill-opacity="1.0" stroke="rgb(0,0,0)" stroke-width="2"  />
			<g>
				<title>Helicase_C (PF00271)
"Helicase conserved C-terminal domain"</title>
				<polygon class="PF00271" points="316,39 327,28 327,28 327,52 327,52 316,41" stroke-linejoin="round" width="11" height="24" fill="rgb(104,224,158)" stroke="rgb(83,179,126)" stroke-width="1" opacity="0.75" />
			</g>
			<g>
				<title>SNF2-rel_dom (PF00176)
"SNF2-related domain"</title>
				<rect class="PF00176" x="328" y="28" stroke-linejoin="round" width="27" height="24" fill="rgb(180,113,64)" stroke="rgb(144,90,51)" stroke-width="1" opacity="0.75" />
			</g>
		</g>
		<g>
			<title> (ctg175_9)</title>
			<polygon class=" (ctg175_9)" points="452,40 467,10 467,70" fill="rgb(255,255,255)" fill-opacity="1.0" stroke="rgb(0,0,0)" stroke-width="2"  />
			<g>
				<title>DUF29 (PF01724)
"Domain of unknown function DUF29"</title>
				<polygon class="PF01724" points="455,40 461,28 466,28 466,52 461,52" stroke-linejoin="round" width="13" height="24" fill="rgb(104,61,184)" stroke="rgb(83,48,147)" stroke-width="1" opacity="0.75" />
			</g>
		</g>
		<g>
			<title> (ctg175_10)</title>
			<polygon class=" (ctg175_10)" points="629,25 516,25 516,10 486,40 516,70 516,55 629,55" fill="rgb(255,255,255)" fill-opacity="1.0" stroke="rgb(0,0,0)" stroke-width="2"  />
			<g>
				<title>Thioesterase (PF00975)
"Thioesterase domain"</title>
				<polygon class="PF00975" points="490,40 502,28 512,28 512,52 502,52" stroke-linejoin="round" width="25" height="24" fill="rgb(207,80,138)" stroke="rgb(165,63,110)" stroke-width="1" opacity="0.75" />
			</g>
			<g>
				<title>PP-binding (PF00550)
"Phosphopantetheine attachment site"</title>
				<rect class="PF00550" x="514" y="28" stroke-linejoin="round" width="6" height="24" fill="rgb(103,191,88)" stroke="rgb(82,152,70)" stroke-width="1" opacity="0.75" />
			</g>
			<g>
				<title>AMP-binding (PF00501)
"AMP-binding enzyme"</title>
				<rect class="PF00501" x="534" y="28" stroke-linejoin="round" width="41" height="24" fill="rgb(60,217,223)" stroke="rgb(48,173,178)" stroke-width="1" opacity="0.75" />
			</g>
		</g>
		<g>
			<title> (ctg175_11)</title>
			<polygon class=" (ctg175_11)" points="634,40 638,10 638,70" fill="rgb(255,255,255)" fill-opacity="1.0" stroke="rgb(0,0,0)" stroke-width="2"  />
		</g>
	</g>
</svg>
