<svg version="1.1" baseProfile="full" xmlns="http://www.w3.org/2000/svg" width="506.7" height="80">
	<g>
		<line x1="10" y1="40.0" x2="496.7" y2="40.0" style="stroke:rgb(70,70,70); stroke-width:3 "/>
		<g>
			<title> (ctg80_1)</title>
			<polygon class=" (ctg80_1)" points="10,40 15,10 15,70" fill="rgb(255,255,255)" fill-opacity="1.0" stroke="rgb(0,0,0)" stroke-width="2"  />
		</g>
		<g>
			<title> (ctg80_2)</title>
			<polygon class=" (ctg80_2)" points="34,25 50,25 50,10 80,40 50,70 50,55 34,55" fill="rgb(255,255,255)" fill-opacity="1.0" stroke="rgb(0,0,0)" stroke-width="2"  />
			<g>
				<title>DUF2252 (PF10009)
"Uncharacterized protein conserved in bacteria (DUF2252)"</title>
				<polygon class="PF10009" points="40,28 64,28 76,40 64,52 40,52" stroke-linejoin="round" width="38" height="24" fill="rgb(161,58,189)" stroke="rgb(128,46,151)" stroke-width="1" opacity="0.75" />
			</g>
		</g>
		<g>
			<title> (ctg80_3)</title>
			<polygon class=" (ctg80_3)" points="162,25 123,25 123,10 93,40 123,70 123,55 162,55" fill="rgb(255,255,255)" fill-opacity="1.0" stroke="rgb(0,0,0)" stroke-width="2"  />
			<g>
				<title>PatG_C (PF18065)
"PatG C-terminal"</title>
				<polygon class="PF18065" points="97,40 104,33 104,47" stroke-linejoin="round" width="11" height="24" fill="rgb(93,82,184)" stroke="rgb(74,65,147)" stroke-width="1" opacity="0.75" />
			</g>
			<g>
				<title>PatG_D (PF18047)
"PatG Domain"</title>
				<polygon class="PF18047" points="109,28 109,28 120,28 120,52 109,52 109,52" stroke-linejoin="round" width="11" height="24" fill="rgb(91,195,69)" stroke="rgb(72,156,55)" stroke-width="1" opacity="0.75" />
			</g>
			<g>
				<title>Peptidase_S8 (PF00082)
"Subtilase family"</title>
				<rect class="PF00082" x="128" y="28" stroke-linejoin="round" width="32" height="24" fill="rgb(193,159,94)" stroke="rgb(154,127,75)" stroke-width="1" opacity="0.75" />
			</g>
		</g>
		<g>
			<title> (ctg80_4)</title>
			<polygon class=" (ctg80_4)" points="165,10 191,40 165,70" fill="rgb(255,255,255)" fill-opacity="1.0" stroke="rgb(0,0,0)" stroke-width="2"  />
			<g>
				<title>Uma2 (PF05685)
"Putative restriction endonuclease"</title>
				<polygon class="PF05685" points="168,28 177,28 185,38 185,42 177,52 168,52" stroke-linejoin="round" width="17" height="24" fill="rgb(123,107,219)" stroke="rgb(98,85,175)" stroke-width="1" opacity="0.75" />
			</g>
		</g>
		<g>
			<title> (ctg80_5)</title>
			<polygon class=" (ctg80_5)" points="188,40 199,10 199,70" fill="rgb(255,255,255)" fill-opacity="1.0" stroke="rgb(0,0,0)" stroke-width="2"  />
		</g>
		<g>
			<title> (ctg80_6)</title>
			<polygon class=" (ctg80_6)" points="202,40 223,10 223,70" fill="rgb(255,255,255)" fill-opacity="1.0" stroke="rgb(0,0,0)" stroke-width="2"  />
			<g>
				<title>Uma2 (PF05685)
"Putative restriction endonuclease"</title>
				<polygon class="PF05685" points="206,40 215,28 221,28 221,52 215,52" stroke-linejoin="round" width="17" height="24" fill="rgb(123,107,219)" stroke="rgb(98,85,175)" stroke-width="1" opacity="0.75" />
			</g>
		</g>
		<g>
			<title> (ctg80_7)</title>
			<polygon class=" (ctg80_7)" points="225,40 244,10 244,70" fill="rgb(255,255,255)" fill-opacity="1.0" stroke="rgb(0,0,0)" stroke-width="2"  />
			<g>
				<title>Uma2 (PF05685)
"Putative restriction endonuclease"</title>
				<polygon class="PF05685" points="229,40 237,28 242,28 242,52 237,52" stroke-linejoin="round" width="17" height="24" fill="rgb(123,107,219)" stroke="rgb(98,85,175)" stroke-width="1" opacity="0.75" />
			</g>
		</g>
		<g>
			<title> (ctg80_8)</title>
			<polygon class=" (ctg80_8)" points="244,40 262,10 262,70" fill="rgb(255,255,255)" fill-opacity="1.0" stroke="rgb(0,0,0)" stroke-width="2"  />
			<g>
				<title>Uma2 (PF05685)
"Putative restriction endonuclease"</title>
				<polygon class="PF05685" points="248,40 256,28 261,28 261,52 256,52" stroke-linejoin="round" width="17" height="24" fill="rgb(123,107,219)" stroke="rgb(98,85,175)" stroke-width="1" opacity="0.75" />
			</g>
		</g>
		<g>
			<title> (ctg80_9)</title>
			<polygon class=" (ctg80_9)" points="264,10 272,40 264,70" fill="rgb(255,255,255)" fill-opacity="1.0" stroke="rgb(0,0,0)" stroke-width="2"  />
			<g>
				<title>Y1_Tnp (PF01797)
"Transposase IS200 like"</title>
				<polygon class="PF01797" points="264,28 265,28 269,40 265,52 264,52" stroke-linejoin="round" width="7" height="24" fill="rgb(198,164,60)" stroke="rgb(158,131,47)" stroke-width="1" opacity="0.75" />
			</g>
		</g>
		<g>
			<title> (ctg80_10)</title>
			<polygon class=" (ctg80_10)" points="291,40 295,10 295,70" fill="rgb(255,255,255)" fill-opacity="1.0" stroke="rgb(0,0,0)" stroke-width="2"  />
			<g>
				<title>DUF5840 (PF19158)
"Family of unknown function (DUF5840)"</title>
				<polygon class="PF19158" points="294,40 295,34 295,46" stroke-linejoin="round" width="4" height="24" fill="rgb(187,88,114)" stroke="rgb(149,70,91)" stroke-width="1" opacity="0.75" />
			</g>
		</g>
		<g>
			<title> (ctg80_11)</title>
			<polygon class=" (ctg80_11)" points="303,40 312,10 312,70" fill="rgb(255,255,255)" fill-opacity="1.0" stroke="rgb(0,0,0)" stroke-width="2"  />
			<g>
				<title>YafQ_toxin (PF15738)
"Bacterial toxin of type II toxin-antitoxin system, YafQ"</title>
				<polygon class="PF15738" points="306,40 310,28 312,28 312,52 310,52" stroke-linejoin="round" width="9" height="24" fill="rgb(58,224,128)" stroke="rgb(46,179,102)" stroke-width="1" opacity="0.75" />
			</g>
		</g>
		<g>
			<title> (ctg80_12)</title>
			<polygon class=" (ctg80_12)" points="313,40 320,10 320,70" fill="rgb(255,255,255)" fill-opacity="1.0" stroke="rgb(0,0,0)" stroke-width="2"  />
		</g>
		<g>
			<title> (ctg80_13)</title>
			<polygon class=" (ctg80_13)" points="319,40 324,10 324,70" fill="rgb(255,255,255)" fill-opacity="1.0" stroke="rgb(0,0,0)" stroke-width="2"  />
		</g>
		<g>
			<title> (ctg80_14)</title>
			<polygon class=" (ctg80_14)" points="325,40 333,10 333,70" fill="rgb(255,255,255)" fill-opacity="1.0" stroke="rgb(0,0,0)" stroke-width="2"  />
		</g>
		<g>
			<title> (ctg80_15)</title>
			<polygon class=" (ctg80_15)" points="343,40 352,10 352,70" fill="rgb(255,255,255)" fill-opacity="1.0" stroke="rgb(0,0,0)" stroke-width="2"  />
		</g>
		<g>
			<title> (ctg80_16)</title>
			<polygon class=" (ctg80_16)" points="352,40 361,10 361,70" fill="rgb(255,255,255)" fill-opacity="1.0" stroke="rgb(0,0,0)" stroke-width="2"  />
			<g>
				<title>BrnT_toxin (PF04365)
"Ribonuclease toxin, BrnT, of type II toxin-antitoxin system"</title>
				<polygon class="PF04365" points="355,40 359,28 360,28 360,52 359,52" stroke-linejoin="round" width="7" height="24" fill="rgb(81,152,189)" stroke="rgb(64,121,151)" stroke-width="1" opacity="0.75" />
			</g>
		</g>
		<g>
			<title> (ctg80_17)</title>
			<polygon class=" (ctg80_17)" points="369,40 378,10 378,70" fill="rgb(255,255,255)" fill-opacity="1.0" stroke="rgb(0,0,0)" stroke-width="2"  />
			<g>
				<title>ParE_toxin (PF05016)
"ParE toxin of type II toxin-antitoxin system, parDE"</title>
				<polygon class="PF05016" points="372,40 376,28 377,28 377,52 376,52" stroke-linejoin="round" width="8" height="24" fill="rgb(110,226,73)" stroke="rgb(88,180,58)" stroke-width="1" opacity="0.75" />
			</g>
		</g>
		<g>
			<title> (ctg80_18)</title>
			<polygon class=" (ctg80_18)" points="379,40 388,10 388,70" fill="rgb(255,255,255)" fill-opacity="1.0" stroke="rgb(0,0,0)" stroke-width="2"  />
		</g>
		<g>
			<title> (ctg80_19)</title>
			<polygon class=" (ctg80_19)" points="400,10 409,40 400,70" fill="rgb(255,255,255)" fill-opacity="1.0" stroke="rgb(0,0,0)" stroke-width="2"  />
			<g>
				<title>HicB_lk_antitox (PF15919)
"HicB_like antitoxin of bacterial toxin-antitoxin system"</title>
				<polygon class="PF15919" points="400,28 402,28 406,40 402,52 400,52" stroke-linejoin="round" width="7" height="24" fill="rgb(104,205,86)" stroke="rgb(83,164,68)" stroke-width="1" opacity="0.75" />
			</g>
		</g>
		<g>
			<title> (ctg80_20)</title>
			<polygon class=" (ctg80_20)" points="422,25 425,25 425,10 455,40 425,70 425,55 422,55" fill="rgb(255,255,255)" fill-opacity="1.0" stroke="rgb(0,0,0)" stroke-width="2"  />
			<g>
				<title>HTH_18 (PF12833)
"Helix-turn-helix domain"</title>
				<polygon class="PF12833" points="447,36 451,40 447,44" stroke-linejoin="round" width="7" height="24" fill="rgb(216,58,224)" stroke="rgb(172,46,179)" stroke-width="1" opacity="0.75" />
			</g>
		</g>
		<g>
			<title> (ctg80_21)</title>
			<polygon class=" (ctg80_21)" points="453,40 461,10 461,70" fill="rgb(255,255,255)" fill-opacity="1.0" stroke="rgb(0,0,0)" stroke-width="2"  />
		</g>
		<g>
			<title> (ctg80_22)</title>
			<polygon class=" (ctg80_22)" points="469,40 490,10 490,70" fill="rgb(255,255,255)" fill-opacity="1.0" stroke="rgb(0,0,0)" stroke-width="2"  />
			<g>
				<title>HupE_UreJ (PF04955)
"HupE / UreJ protein"</title>
				<polygon class="PF04955" points="473,40 482,28 488,28 488,52 482,52" stroke-linejoin="round" width="19" height="24" fill="rgb(190,188,89)" stroke="rgb(152,150,71)" stroke-width="1" opacity="0.75" />
			</g>
		</g>
	</g>
</svg>
