<svg version="1.1" baseProfile="full" xmlns="http://www.w3.org/2000/svg" width="1000.9333333333333" height="80">
	<g>
		<line x1="10" y1="40.0" x2="990.9333333333333" y2="40.0" style="stroke:rgb(70,70,70); stroke-width:3 "/>
		<g>
			<title> (ctg217_1)</title>
			<polygon class=" (ctg217_1)" points="10,40 15,10 15,70" fill="rgb(255,255,255)" fill-opacity="1.0" stroke="rgb(0,0,0)" stroke-width="2"  />
		</g>
		<g>
			<title> (ctg217_2)</title>
			<polygon class=" (ctg217_2)" points="18,40 47,10 47,70" fill="rgb(255,255,255)" fill-opacity="1.0" stroke="rgb(0,0,0)" stroke-width="2"  />
			<g>
				<title>DUF4915 (PF16261)
"Domain of unknown function (DUF4915)"</title>
				<polygon class="PF16261" points="22,40 34,28 47,28 47,52 34,52" stroke-linejoin="round" width="27" height="24" fill="rgb(150,82,179)" stroke="rgb(120,65,143)" stroke-width="1" opacity="0.75" />
			</g>
		</g>
		<g>
			<title> (ctg217_3)</title>
			<polygon class=" (ctg217_3)" points="68,25 76,25 76,10 106,40 76,70 76,55 68,55" fill="rgb(255,255,255)" fill-opacity="1.0" stroke="rgb(0,0,0)" stroke-width="2"  />
			<g>
				<title>Chromate_transp (PF02417)
"Chromate transporter"</title>
				<rect class="PF02417" x="69" y="28" stroke-linejoin="round" width="16" height="24" fill="rgb(216,70,196)" stroke="rgb(172,56,156)" stroke-width="1" opacity="0.75" />
			</g>
			<g>
				<title>Chromate_transp (PF02417)
"Chromate transporter"</title>
				<polygon class="PF02417" points="88,28 90,28 102,40 90,52 88,52" stroke-linejoin="round" width="17" height="24" fill="rgb(216,70,196)" stroke="rgb(172,56,156)" stroke-width="1" opacity="0.75" />
			</g>
		</g>
		<g>
			<title> (ctg217_4)</title>
			<polygon class=" (ctg217_4)" points="116,40 137,10 137,70" fill="rgb(255,255,255)" fill-opacity="1.0" stroke="rgb(0,0,0)" stroke-width="2"  />
			<g>
				<title>HisG (PF01634)
"ATP phosphoribosyltransferase"</title>
				<polygon class="PF01634" points="120,40 129,28 131,28 131,52 129,52" stroke-linejoin="round" width="15" height="24" fill="rgb(212,55,174)" stroke="rgb(169,44,139)" stroke-width="1" opacity="0.75" />
			</g>
		</g>
		<g>
			<title> (ctg217_5)</title>
			<polygon class=" (ctg217_5)" points="144,40 170,10 170,70" fill="rgb(255,255,255)" fill-opacity="1.0" stroke="rgb(0,0,0)" stroke-width="2"  />
			<g>
				<title>HAD_2 (PF13419)
"Haloacid dehalogenase-like hydrolase"</title>
				<polygon class="PF13419" points="148,40 158,28 166,28 166,52 158,52" stroke-linejoin="round" width="19" height="24" fill="rgb(60,223,188)" stroke="rgb(48,178,150)" stroke-width="1" opacity="0.75" />
			</g>
		</g>
		<g>
			<title> (ctg217_6)</title>
			<polygon class=" (ctg217_6)" points="177,40 199,10 199,70" fill="rgb(255,255,255)" fill-opacity="1.0" stroke="rgb(0,0,0)" stroke-width="2"  />
			<g>
				<title>DeoC (PF01791)
"DeoC/LacD family aldolase"</title>
				<polygon class="PF01791" points="181,40 190,28 197,28 197,52 190,52" stroke-linejoin="round" width="20" height="24" fill="rgb(151,59,198)" stroke="rgb(120,47,158)" stroke-width="1" opacity="0.75" />
			</g>
		</g>
		<g>
			<title> (ctg217_7)</title>
			<polygon class=" (ctg217_7)" points="205,25 262,25 262,10 292,40 262,70 262,55 205,55" fill="rgb(255,255,255)" fill-opacity="1.0" stroke="rgb(0,0,0)" stroke-width="2"  />
			<g>
				<title>Aconitase_B_N (PF11791)
"Aconitate B N-terminal domain"</title>
				<rect class="PF11791" x="205" y="28" stroke-linejoin="round" width="15" height="24" fill="rgb(92,160,188)" stroke="rgb(73,128,150)" stroke-width="1" opacity="0.75" />
			</g>
			<g>
				<title>Aconitase_2_N (PF06434)
"Aconitate hydratase 2 N-terminus"</title>
				<rect class="PF06434" x="221" y="28" stroke-linejoin="round" width="20" height="24" fill="rgb(99,199,218)" stroke="rgb(79,159,174)" stroke-width="1" opacity="0.75" />
			</g>
			<g>
				<title>Aconitase (PF00330)
"Aconitase family (aconitate hydratase)"</title>
				<polygon class="PF00330" points="244,28 275,28 285,38 285,42 275,52 244,52" stroke-linejoin="round" width="41" height="24" fill="rgb(180,189,85)" stroke="rgb(144,151,68)" stroke-width="1" opacity="0.75" />
			</g>
		</g>
		<g>
			<title> (ctg217_8)</title>
			<polygon class=" (ctg217_8)" points="297,10 306,40 297,70" fill="rgb(255,255,255)" fill-opacity="1.0" stroke="rgb(0,0,0)" stroke-width="2"  />
			<g>
				<title>BrnT_toxin (PF04365)
"Ribonuclease toxin, BrnT, of type II toxin-antitoxin system"</title>
				<polygon class="PF04365" points="297,28 299,28 303,40 299,52 297,52" stroke-linejoin="round" width="7" height="24" fill="rgb(81,152,189)" stroke="rgb(64,121,151)" stroke-width="1" opacity="0.75" />
			</g>
		</g>
		<g>
			<title> (ctg217_9)</title>
			<polygon class=" (ctg217_9)" points="305,10 313,40 305,70" fill="rgb(255,255,255)" fill-opacity="1.0" stroke="rgb(0,0,0)" stroke-width="2"  />
		</g>
		<g>
			<title> (ctg217_10)</title>
			<polygon class=" (ctg217_10)" points="318,25 320,25 320,10 350,40 320,70 320,55 318,55" fill="rgb(255,255,255)" fill-opacity="1.0" stroke="rgb(0,0,0)" stroke-width="2"  />
		</g>
		<g>
			<title> (ctg217_11)</title>
			<polygon class=" (ctg217_11)" points="355,10 366,40 355,70" fill="rgb(255,255,255)" fill-opacity="1.0" stroke="rgb(0,0,0)" stroke-width="2"  />
			<g>
				<title>XisI (PF08869)
"XisI protein"</title>
				<polygon class="PF08869" points="355,28 358,28 363,40 358,52 355,52" stroke-linejoin="round" width="11" height="24" fill="rgb(139,215,88)" stroke="rgb(111,172,70)" stroke-width="1" opacity="0.75" />
			</g>
		</g>
		<g>
			<title> (ctg217_12)</title>
			<polygon class=" (ctg217_12)" points="373,10 402,40 373,70" fill="rgb(255,255,255)" fill-opacity="1.0" stroke="rgb(0,0,0)" stroke-width="2"  />
			<g>
				<title>PPK2 (PF03976)
"Polyphosphate kinase 2 (PPK2)"</title>
				<polygon class="PF03976" points="376,28 386,28 398,40 386,52 376,52" stroke-linejoin="round" width="24" height="24" fill="rgb(57,123,215)" stroke="rgb(45,98,172)" stroke-width="1" opacity="0.75" />
			</g>
		</g>
		<g>
			<title> (ctg217_13)</title>
			<polygon class=" (ctg217_13)" points="405,25 432,25 432,10 462,40 432,70 432,55 405,55" fill="rgb(255,255,255)" fill-opacity="1.0" stroke="rgb(0,0,0)" stroke-width="2"  />
			<g>
				<title>Urease_alpha (PF00449)
"Urease alpha-subunit, N-terminal domain"</title>
				<rect class="PF00449" x="405" y="28" stroke-linejoin="round" width="11" height="24" fill="rgb(76,190,108)" stroke="rgb(60,152,86)" stroke-width="1" opacity="0.75" />
			</g>
			<g>
				<title>Amidohydro_1 (PF01979)
"Amidohydrolase family"</title>
				<polygon class="PF01979" points="417,28 445,28 450,33 450,47 445,52 417,52" stroke-linejoin="round" width="33" height="24" fill="rgb(210,93,184)" stroke="rgb(168,74,147)" stroke-width="1" opacity="0.75" />
			</g>
		</g>
		<g>
			<title> (ctg217_14)</title>
			<polygon class=" (ctg217_14)" points="506,25 500,25 500,10 470,40 500,70 500,55 506,55" fill="rgb(255,255,255)" fill-opacity="1.0" stroke="rgb(0,0,0)" stroke-width="2"  />
			<g>
				<title>Ring_hydroxyl_A (PF00848)
"Ring hydroxylating alpha subunit (catalytic domain)"</title>
				<polygon class="PF00848" points="474,40 486,28 491,28 491,52 486,52" stroke-linejoin="round" width="21" height="24" fill="rgb(76,134,184)" stroke="rgb(60,107,147)" stroke-width="1" opacity="0.75" />
			</g>
			<g>
				<title>Rieske (PF00355)
"Rieske [2Fe-2S] domain"</title>
				<rect class="PF00355" x="494" y="28" stroke-linejoin="round" width="9" height="24" fill="rgb(186,77,145)" stroke="rgb(148,61,115)" stroke-width="1" opacity="0.75" />
			</g>
		</g>
		<g>
			<title> (ctg217_15)</title>
			<polygon class=" (ctg217_15)" points="510,40 537,10 537,70" fill="rgb(255,255,255)" fill-opacity="1.0" stroke="rgb(0,0,0)" stroke-width="2"  />
		</g>
		<g>
			<title> (ctg217_16)</title>
			<polygon class=" (ctg217_16)" points="572,25 571,25 571,10 541,40 571,70 571,55 572,55" fill="rgb(255,255,255)" fill-opacity="1.0" stroke="rgb(0,0,0)" stroke-width="2"  />
			<g>
				<title>TPR_19 (PF14559)
"Tetratricopeptide repeat"</title>
				<polygon class="PF14559" points="545,40 551,34 551,46 545,40" stroke-linejoin="round" width="6" height="24" fill="rgb(182,60,145)" stroke="rgb(145,48,115)" stroke-width="1" opacity="0.75" />
			</g>
			<g>
				<title>TPR_11 (PF13414)
"TPR repeat"</title>
				<rect class="PF13414" x="558" y="28" stroke-linejoin="round" width="4" height="24" fill="rgb(55,76,182)" stroke="rgb(44,60,145)" stroke-width="1" opacity="0.75" />
			</g>
			<g>
				<title>TPR_16 (PF13432)
"Tetratricopeptide repeat"</title>
				<rect class="PF13432" x="564" y="28" stroke-linejoin="round" width="6" height="24" fill="rgb(154,205,86)" stroke="rgb(123,164,68)" stroke-width="1" opacity="0.75" />
			</g>
		</g>
		<g>
			<title> (ctg217_17)</title>
			<polygon class=" (ctg217_17)" points="587,10 610,40 587,70" fill="rgb(255,255,255)" fill-opacity="1.0" stroke="rgb(0,0,0)" stroke-width="2"  />
			<g>
				<title>Sulfatase (PF00884)
"Sulfatase"</title>
				<polygon class="PF00884" points="590,28 597,28 606,40 597,52 590,52" stroke-linejoin="round" width="18" height="24" fill="rgb(61,103,198)" stroke="rgb(48,82,158)" stroke-width="1" opacity="0.75" />
			</g>
		</g>
		<g>
			<title> (ctg217_18)</title>
			<polygon class=" (ctg217_18)" points="611,10 640,40 611,70" fill="rgb(255,255,255)" fill-opacity="1.0" stroke="rgb(0,0,0)" stroke-width="2"  />
			<g>
				<title>Methyltransf_31 (PF13847)
"Methyltransferase domain"</title>
				<polygon class="PF13847" points="613,28 624,28 630,34 630,46 624,52 613,52" stroke-linejoin="round" width="17" height="24" fill="rgb(214,74,181)" stroke="rgb(171,59,144)" stroke-width="1" opacity="0.75" />
			</g>
		</g>
		<g>
			<title> (ctg217_19)</title>
			<polygon class=" (ctg217_19)" points="643,25 644,25 644,10 674,40 644,70 644,55 643,55" fill="rgb(255,255,255)" fill-opacity="1.0" stroke="rgb(0,0,0)" stroke-width="2"  />
			<g>
				<title>cobW (PF02492)
"CobW/HypB/UreG, nucleotide-binding domain"</title>
				<polygon class="PF02492" points="643,28 658,28 660,30 660,50 658,52 643,52" stroke-linejoin="round" width="17" height="24" fill="rgb(79,112,178)" stroke="rgb(63,89,142)" stroke-width="1" opacity="0.75" />
			</g>
			<g>
				<title>CobW_C (PF07683)
"Cobalamin synthesis protein cobW C-terminal domain"</title>
				<polygon class="PF07683" points="665,35 670,40 665,45" stroke-linejoin="round" width="9" height="24" fill="rgb(172,98,218)" stroke="rgb(137,78,174)" stroke-width="1" opacity="0.75" />
			</g>
		</g>
		<g>
			<title> (ctg217_20)</title>
			<polygon class=" (ctg217_20)" points="675,25 842,25 842,10 872,40 842,70 842,55 675,55" fill="rgb(255,255,255)" fill-opacity="1.0" stroke="rgb(0,0,0)" stroke-width="2"  />
			<g>
				<title>NMO (PF03060)
"Nitronate monooxygenase"</title>
				<rect class="PF03060" x="708" y="28" stroke-linejoin="round" width="34" height="24" fill="rgb(100,193,226)" stroke="rgb(80,154,180)" stroke-width="1" opacity="0.75" />
			</g>
			<g>
				<title>ketoacyl-synt (PF00109)
"Beta-ketoacyl synthase, N-terminal domain"</title>
				<rect class="PF00109" x="744" y="28" stroke-linejoin="round" width="26" height="24" fill="rgb(112,116,228)" stroke="rgb(89,92,182)" stroke-width="1" opacity="0.75" />
			</g>
			<g>
				<title>Ketoacyl-synt_C (PF02801)
"Beta-ketoacyl synthase, C-terminal domain"</title>
				<rect class="PF02801" x="772" y="28" stroke-linejoin="round" width="11" height="24" fill="rgb(215,78,102)" stroke="rgb(172,62,81)" stroke-width="1" opacity="0.75" />
			</g>
			<g>
				<title>Acyl_transf_1 (PF00698)
"Acyl transferase domain"</title>
				<rect class="PF00698" x="800" y="28" stroke-linejoin="round" width="30" height="24" fill="rgb(59,176,209)" stroke="rgb(47,140,167)" stroke-width="1" opacity="0.75" />
			</g>
			<g>
				<title>PP-binding (PF00550)
"Phosphopantetheine attachment site"</title>
				<polygon class="PF00550" points="862,35 867,40 862,45" stroke-linejoin="round" width="7" height="24" fill="rgb(103,191,88)" stroke="rgb(82,152,70)" stroke-width="1" opacity="0.75" />
			</g>
		</g>
		<g>
			<title> (ctg217_21)</title>
			<polygon class=" (ctg217_21)" points="873,25 925,25 925,10 955,40 925,70 925,55 873,55" fill="rgb(255,255,255)" fill-opacity="1.0" stroke="rgb(0,0,0)" stroke-width="2"  />
			<g>
				<title>KR (PF08659)
"KR domain"</title>
				<rect class="PF08659" x="896" y="28" stroke-linejoin="round" width="22" height="24" fill="rgb(66,209,188)" stroke="rgb(52,167,150)" stroke-width="1" opacity="0.75" />
			</g>
			<g>
				<title>PS-DH (PF14765)
"Polyketide synthase dehydratase"</title>
				<polygon class="PF14765" points="925,28 938,28 950,40 938,52 925,52" stroke-linejoin="round" width="28" height="24" fill="rgb(173,56,182)" stroke="rgb(138,44,145)" stroke-width="1" opacity="0.75" />
			</g>
		</g>
		<g>
			<title> (ctg217_22)</title>
			<polygon class=" (ctg217_22)" points="979,40 990,10 990,70" fill="rgb(255,255,255)" fill-opacity="1.0" stroke="rgb(0,0,0)" stroke-width="2"  />
			<g>
				<title>OrfB_Zn_ribbon (PF07282)
"Putative transposase DNA-binding domain"</title>
				<polygon class="PF07282" points="982,40 987,28 987,28 987,52 987,52" stroke-linejoin="round" width="7" height="24" fill="rgb(188,84,136)" stroke="rgb(150,67,108)" stroke-width="1" opacity="0.75" />
			</g>
		</g>
	</g>
</svg>
