<svg version="1.1" baseProfile="full" xmlns="http://www.w3.org/2000/svg" width="577.6" height="80">
	<g>
		<line x1="10" y1="40.0" x2="567.6" y2="40.0" style="stroke:rgb(70,70,70); stroke-width:3 "/>
		<g>
			<title> (ctg68_1)</title>
			<polygon class=" (ctg68_1)" points="10,40 14,10 14,70" fill="rgb(255,255,255)" fill-opacity="1.0" stroke="rgb(0,0,0)" stroke-width="2"  />
		</g>
		<g>
			<title> (ctg68_2)</title>
			<polygon class=" (ctg68_2)" points="23,25 120,25 120,10 150,40 120,70 120,55 23,55" fill="rgb(255,255,255)" fill-opacity="1.0" stroke="rgb(0,0,0)" stroke-width="2"  />
			<g>
				<title>ketoacyl-synt (PF00109)
"Beta-ketoacyl synthase, N-terminal domain"</title>
				<rect class="PF00109" x="24" y="28" stroke-linejoin="round" width="28" height="24" fill="rgb(112,116,228)" stroke="rgb(89,92,182)" stroke-width="1" opacity="0.75" />
			</g>
			<g>
				<title>Ketoacyl-synt_C (PF02801)
"Beta-ketoacyl synthase, C-terminal domain"</title>
				<rect class="PF02801" x="53" y="28" stroke-linejoin="round" width="11" height="24" fill="rgb(215,78,102)" stroke="rgb(172,62,81)" stroke-width="1" opacity="0.75" />
			</g>
			<g>
				<title>KAsynt_C_assoc (PF16197)
"Ketoacyl-synthetase C-terminal extension"</title>
				<rect class="PF16197" x="65" y="28" stroke-linejoin="round" width="11" height="24" fill="rgb(240,150,172)" stroke="rgb(192,120,137)" stroke-width="1" opacity="0.75" />
			</g>
			<g>
				<title>Acyl_transf_1 (PF00698)
"Acyl transferase domain"</title>
				<rect class="PF00698" x="81" y="28" stroke-linejoin="round" width="32" height="24" fill="rgb(59,176,209)" stroke="rgb(47,140,167)" stroke-width="1" opacity="0.75" />
			</g>
			<g>
				<title>PP-binding (PF00550)
"Phosphopantetheine attachment site"</title>
				<polygon class="PF00550" points="142,36 146,40 142,44" stroke-linejoin="round" width="6" height="24" fill="rgb(103,191,88)" stroke="rgb(82,152,70)" stroke-width="1" opacity="0.75" />
			</g>
		</g>
		<g>
			<title> (ctg68_3)</title>
			<polygon class=" (ctg68_3)" points="152,10 176,40 152,70" fill="rgb(255,255,255)" fill-opacity="1.0" stroke="rgb(0,0,0)" stroke-width="2"  />
		</g>
		<g>
			<title> (ctg68_4)</title>
			<polygon class=" (ctg68_4)" points="182,25 210,25 210,10 240,40 210,70 210,55 182,55" fill="rgb(255,255,255)" fill-opacity="1.0" stroke="rgb(0,0,0)" stroke-width="2"  />
			<g>
				<title>KR (PF08659)
"KR domain"</title>
				<rect class="PF08659" x="183" y="28" stroke-linejoin="round" width="22" height="24" fill="rgb(66,209,188)" stroke="rgb(52,167,150)" stroke-width="1" opacity="0.75" />
			</g>
			<g>
				<title>PS-DH (PF14765)
"Polyketide synthase dehydratase"</title>
				<polygon class="PF14765" points="211,28 224,28 236,40 224,52 211,52" stroke-linejoin="round" width="27" height="24" fill="rgb(173,56,182)" stroke="rgb(138,44,145)" stroke-width="1" opacity="0.75" />
			</g>
		</g>
		<g>
			<title> (ctg68_5)</title>
			<polygon class=" (ctg68_5)" points="242,25 378,25 378,10 408,40 378,70 378,55 242,55" fill="rgb(255,255,255)" fill-opacity="1.0" stroke="rgb(0,0,0)" stroke-width="2"  />
			<g>
				<title>FabA (PF07977)
"FabA-like domain"</title>
				<rect class="PF07977" x="353" y="28" stroke-linejoin="round" width="13" height="24" fill="rgb(66,205,188)" stroke="rgb(52,164,150)" stroke-width="1" opacity="0.75" />
			</g>
			<g>
				<title>FabA (PF07977)
"FabA-like domain"</title>
				<polygon class="PF07977" points="393,29 404,40 393,51" stroke-linejoin="round" width="13" height="24" fill="rgb(66,205,188)" stroke="rgb(52,164,150)" stroke-width="1" opacity="0.75" />
			</g>
		</g>
		<g>
			<title> (ctg68_6)</title>
			<polygon class=" (ctg68_6)" points="413,25 435,25 435,10 465,40 435,70 435,55 413,55" fill="rgb(255,255,255)" fill-opacity="1.0" stroke="rgb(0,0,0)" stroke-width="2"  />
			<g>
				<title>PfaD_N (PF18328)
"Fatty acid synthase subunit PfaD N-terminal domain"</title>
				<rect class="PF18328" x="414" y="28" stroke-linejoin="round" width="4" height="24" fill="rgb(143,220,82)" stroke="rgb(114,176,65)" stroke-width="1" opacity="0.75" />
			</g>
			<g>
				<title>NMO (PF03060)
"Nitronate monooxygenase"</title>
				<polygon class="PF03060" points="420,28 449,28 450,29 450,51 449,52 420,52" stroke-linejoin="round" width="30" height="24" fill="rgb(100,193,226)" stroke="rgb(80,154,180)" stroke-width="1" opacity="0.75" />
			</g>
		</g>
		<g>
			<title> (ctg68_7)</title>
			<polygon class=" (ctg68_7)" points="467,25 476,25 476,10 506,40 476,70 476,55 467,55" fill="rgb(255,255,255)" fill-opacity="1.0" stroke="rgb(0,0,0)" stroke-width="2"  />
			<g>
				<title>MFS_1 (PF07690)
"Major Facilitator Superfamily"</title>
				<rect class="PF07690" x="468" y="28" stroke-linejoin="round" width="19" height="24" fill="rgb(193,224,74)" stroke="rgb(154,179,59)" stroke-width="1" opacity="0.75" />
			</g>
			<g>
				<title>MFS_1 (PF07690)
"Major Facilitator Superfamily"</title>
				<polygon class="PF07690" points="487,28 489,28 501,40 489,52 487,52" stroke-linejoin="round" width="18" height="24" fill="rgb(193,224,74)" stroke="rgb(154,179,59)" stroke-width="1" opacity="0.75" />
			</g>
		</g>
		<g>
			<title> (ctg68_8)</title>
			<polygon class=" (ctg68_8)" points="508,25 520,25 520,10 550,40 520,70 520,55 508,55" fill="rgb(255,255,255)" fill-opacity="1.0" stroke="rgb(0,0,0)" stroke-width="2"  />
			<g>
				<title>Amino_oxidase (PF01593)
"Flavin containing amine oxidoreductase"</title>
				<polygon class="PF01593" points="509,28 534,28 538,32 538,48 534,52 509,52" stroke-linejoin="round" width="29" height="24" fill="rgb(184,74,52)" stroke="rgb(147,59,41)" stroke-width="1" opacity="0.75" />
			</g>
		</g>
		<g>
			<title> (ctg68_9)</title>
			<polygon class=" (ctg68_9)" points="564,10 567,40 564,70" fill="rgb(255,255,255)" fill-opacity="1.0" stroke="rgb(0,0,0)" stroke-width="2"  />
		</g>
	</g>
</svg>
