<svg version="1.1" baseProfile="full" xmlns="http://www.w3.org/2000/svg" width="763.2666666666667" height="80">
	<g>
		<line x1="10" y1="40.0" x2="753.2666666666667" y2="40.0" style="stroke:rgb(70,70,70); stroke-width:3 "/>
		<g>
			<title> (ctg83_8)</title>
			<polygon class=" (ctg83_8)" points="57,25 51,25 51,10 21,40 51,70 51,55 57,55" fill="rgb(255,255,255)" fill-opacity="1.0" stroke="rgb(0,0,0)" stroke-width="2"  />
			<g>
				<title>Amidohydro_2 (PF04909)
"Amidohydrolase"</title>
				<polygon class="PF04909" points="25,40 37,28 56,28 56,52 37,52" stroke-linejoin="round" width="35" height="24" fill="rgb(95,225,123)" stroke="rgb(76,180,98)" stroke-width="1" opacity="0.75" />
			</g>
		</g>
		<g>
			<title> (ctg83_9)</title>
			<polygon class=" (ctg83_9)" points="56,40 59,10 59,70" fill="rgb(255,255,255)" fill-opacity="1.0" stroke="rgb(0,0,0)" stroke-width="2"  />
		</g>
		<g>
			<title> (ctg83_10)</title>
			<polygon class=" (ctg83_10)" points="69,10 75,40 69,70" fill="rgb(255,255,255)" fill-opacity="1.0" stroke="rgb(0,0,0)" stroke-width="2"  />
			<g>
				<title>BrnT_toxin (PF04365)
"Ribonuclease toxin, BrnT, of type II toxin-antitoxin system"</title>
				<polygon class="PF04365" points="69,28 69,28 72,40 69,52 69,52" stroke-linejoin="round" width="5" height="24" fill="rgb(81,152,189)" stroke="rgb(64,121,151)" stroke-width="1" opacity="0.75" />
			</g>
		</g>
		<g>
			<title> (ctg83_11)</title>
			<polygon class=" (ctg83_11)" points="75,10 83,40 75,70" fill="rgb(255,255,255)" fill-opacity="1.0" stroke="rgb(0,0,0)" stroke-width="2"  />
			<g>
				<title>BrnA_antitoxin (PF14384)
"BrnA antitoxin of type II toxin-antitoxin system"</title>
				<polygon class="PF14384" points="75,28 76,28 80,39 80,41 76,52 75,52" stroke-linejoin="round" width="5" height="24" fill="rgb(80,199,169)" stroke="rgb(64,159,135)" stroke-width="1" opacity="0.75" />
			</g>
		</g>
		<g>
			<title> (ctg83_12)</title>
			<polygon class=" (ctg83_12)" points="87,40 92,10 92,70" fill="rgb(255,255,255)" fill-opacity="1.0" stroke="rgb(0,0,0)" stroke-width="2"  />
		</g>
		<g>
			<title> (ctg83_13)</title>
			<polygon class=" (ctg83_13)" points="112,10 125,40 112,70" fill="rgb(255,255,255)" fill-opacity="1.0" stroke="rgb(0,0,0)" stroke-width="2"  />
		</g>
		<g>
			<title> (ctg83_14)</title>
			<polygon class=" (ctg83_14)" points="130,10 143,40 130,70" fill="rgb(255,255,255)" fill-opacity="1.0" stroke="rgb(0,0,0)" stroke-width="2"  />
		</g>
		<g>
			<title> (ctg83_15)</title>
			<polygon class=" (ctg83_15)" points="146,10 162,40 146,70" fill="rgb(255,255,255)" fill-opacity="1.0" stroke="rgb(0,0,0)" stroke-width="2"  />
			<g>
				<title>PixA (PF12306)
"Inclusion body protein"</title>
				<polygon class="PF12306" points="148,28 152,28 159,40 152,52 148,52" stroke-linejoin="round" width="14" height="24" fill="rgb(60,198,89)" stroke="rgb(47,158,71)" stroke-width="1" opacity="0.75" />
			</g>
		</g>
		<g>
			<title> (ctg83_16)</title>
			<polygon class=" (ctg83_16)" points="165,40 177,10 177,70" fill="rgb(255,255,255)" fill-opacity="1.0" stroke="rgb(0,0,0)" stroke-width="2"  />
		</g>
		<g>
			<title> (ctg83_17)</title>
			<polygon class=" (ctg83_17)" points="177,40 187,10 187,70" fill="rgb(255,255,255)" fill-opacity="1.0" stroke="rgb(0,0,0)" stroke-width="2"  />
		</g>
		<g>
			<title> (ctg83_18)</title>
			<polygon class=" (ctg83_18)" points="201,10 210,40 201,70" fill="rgb(255,255,255)" fill-opacity="1.0" stroke="rgb(0,0,0)" stroke-width="2"  />
			<g>
				<title>BrnT_toxin (PF04365)
"Ribonuclease toxin, BrnT, of type II toxin-antitoxin system"</title>
				<polygon class="PF04365" points="201,28 203,28 207,40 203,52 201,52" stroke-linejoin="round" width="7" height="24" fill="rgb(81,152,189)" stroke="rgb(64,121,151)" stroke-width="1" opacity="0.75" />
			</g>
		</g>
		<g>
			<title> (ctg83_19)</title>
			<polygon class=" (ctg83_19)" points="210,10 219,40 210,70" fill="rgb(255,255,255)" fill-opacity="1.0" stroke="rgb(0,0,0)" stroke-width="2"  />
		</g>
		<g>
			<title> (ctg83_20)</title>
			<polygon class=" (ctg83_20)" points="228,10 237,40 228,70" fill="rgb(255,255,255)" fill-opacity="1.0" stroke="rgb(0,0,0)" stroke-width="2"  />
			<g>
				<title>DUF1778 (PF08681)
"Protein of unknown function (DUF1778)"</title>
				<polygon class="PF08681" points="229,28 230,28 234,40 230,52 229,52" stroke-linejoin="round" width="7" height="24" fill="rgb(115,223,63)" stroke="rgb(92,178,50)" stroke-width="1" opacity="0.75" />
			</g>
		</g>
		<g>
			<title> (ctg83_21)</title>
			<polygon class=" (ctg83_21)" points="237,10 253,40 237,70" fill="rgb(255,255,255)" fill-opacity="1.0" stroke="rgb(0,0,0)" stroke-width="2"  />
			<g>
				<title>Acetyltransf_7 (PF13508)
"Acetyltransferase (GNAT) domain"</title>
				<polygon class="PF13508" points="241,28 243,28 250,40 243,52 241,52" stroke-linejoin="round" width="10" height="24" fill="rgb(183,210,60)" stroke="rgb(146,168,48)" stroke-width="1" opacity="0.75" />
			</g>
		</g>
		<g>
			<title> (ctg83_22)</title>
			<polygon class=" (ctg83_22)" points="261,10 269,40 261,70" fill="rgb(255,255,255)" fill-opacity="1.0" stroke="rgb(0,0,0)" stroke-width="2"  />
			<g>
				<title>Gp49 (PF05973)
"Phage derived protein Gp49-like (DUF891)"</title>
				<polygon class="PF05973" points="262,28 262,28 266,40 262,52 262,52" stroke-linejoin="round" width="6" height="24" fill="rgb(81,198,58)" stroke="rgb(64,158,46)" stroke-width="1" opacity="0.75" />
			</g>
		</g>
		<g>
			<title> (ctg83_23)</title>
			<polygon class=" (ctg83_23)" points="273,10 283,40 273,70" fill="rgb(255,255,255)" fill-opacity="1.0" stroke="rgb(0,0,0)" stroke-width="2"  />
			<g>
				<title>HTH_37 (PF13744)
"Helix-turn-helix domain"</title>
				<polygon class="PF13744" points="274,28 275,28 279,40 275,52 274,52" stroke-linejoin="round" width="8" height="24" fill="rgb(113,218,98)" stroke="rgb(90,174,78)" stroke-width="1" opacity="0.75" />
			</g>
		</g>
		<g>
			<title> (ctg83_24)</title>
			<polygon class=" (ctg83_24)" points="284,40 290,10 290,70" fill="rgb(255,255,255)" fill-opacity="1.0" stroke="rgb(0,0,0)" stroke-width="2"  />
			<g>
				<title>YcaO (PF02624)
"YcaO cyclodehydratase, ATP-ad Mg2+-binding"</title>
				<polygon class="PF02624" points="287,40 289,31 289,49 287,40" stroke-linejoin="round" width="2" height="24" fill="rgb(76,84,185)" stroke="rgb(60,67,148)" stroke-width="1" opacity="0.75" />
			</g>
		</g>
		<g>
			<title> (ctg83_25)</title>
			<polygon class=" (ctg83_25)" points="318,10 322,40 318,70" fill="rgb(255,255,255)" fill-opacity="1.0" stroke="rgb(0,0,0)" stroke-width="2"  />
		</g>
		<g>
			<title> (ctg83_26)</title>
			<polygon class=" (ctg83_26)" points="326,10 333,40 326,70" fill="rgb(255,255,255)" fill-opacity="1.0" stroke="rgb(0,0,0)" stroke-width="2"  />
		</g>
		<g>
			<title> (ctg83_27)</title>
			<polygon class=" (ctg83_27)" points="334,10 341,40 334,70" fill="rgb(255,255,255)" fill-opacity="1.0" stroke="rgb(0,0,0)" stroke-width="2"  />
			<g>
				<title>HicA_toxin (PF07927)
"HicA toxin of bacterial toxin-antitoxin,"</title>
				<polygon class="PF07927" points="334,28 335,28 338,40 335,52 334,52" stroke-linejoin="round" width="5" height="24" fill="rgb(182,96,204)" stroke="rgb(145,76,163)" stroke-width="1" opacity="0.75" />
			</g>
		</g>
		<g>
			<title> (ctg83_28)</title>
			<polygon class=" (ctg83_28)" points="419,25 373,25 373,10 343,40 373,70 373,55 419,55" fill="rgb(255,255,255)" fill-opacity="1.0" stroke="rgb(0,0,0)" stroke-width="2"  />
			<g>
				<title>YcaO (PF02624)
"YcaO cyclodehydratase, ATP-ad Mg2+-binding"</title>
				<polygon class="PF02624" points="347,40 359,28 379,28 379,52 359,52" stroke-linejoin="round" width="33" height="24" fill="rgb(76,84,185)" stroke="rgb(60,67,148)" stroke-width="1" opacity="0.75" />
			</g>
		</g>
		<g>
			<title> (ctg83_29)</title>
			<polygon class=" (ctg83_29)" points="426,10 433,40 426,70" fill="rgb(255,255,255)" fill-opacity="1.0" stroke="rgb(0,0,0)" stroke-width="2"  />
		</g>
		<g>
			<title> (ctg83_30)</title>
			<polygon class=" (ctg83_30)" points="434,10 441,40 434,70" fill="rgb(255,255,255)" fill-opacity="1.0" stroke="rgb(0,0,0)" stroke-width="2"  />
			<g>
				<title>DUF2281 (PF10047)
"Protein of unknown function (DUF2281)"</title>
				<polygon class="PF10047" points="436,31 438,40 436,49" stroke-linejoin="round" width="4" height="24" fill="rgb(200,158,54)" stroke="rgb(160,126,43)" stroke-width="1" opacity="0.75" />
			</g>
		</g>
		<g>
			<title> (ctg83_31)</title>
			<polygon class=" (ctg83_31)" points="441,10 445,40 441,70" fill="rgb(255,255,255)" fill-opacity="1.0" stroke="rgb(0,0,0)" stroke-width="2"  />
		</g>
		<g>
			<title> (ctg83_32)</title>
			<polygon class=" (ctg83_32)" points="475,40 479,10 479,70" fill="rgb(255,255,255)" fill-opacity="1.0" stroke="rgb(0,0,0)" stroke-width="2"  />
		</g>
		<g>
			<title> (ctg83_33)</title>
			<polygon class=" (ctg83_33)" points="479,10 489,40 479,70" fill="rgb(255,255,255)" fill-opacity="1.0" stroke="rgb(0,0,0)" stroke-width="2"  />
			<g>
				<title>Fer2 (PF00111)
"2Fe-2S iron-sulfur cluster binding domain"</title>
				<polygon class="PF00111" points="479,28 481,28 486,39 486,41 481,52 479,52" stroke-linejoin="round" width="7" height="24" fill="rgb(60,59,191)" stroke="rgb(48,47,152)" stroke-width="1" opacity="0.75" />
			</g>
		</g>
		<g>
			<title> (ctg83_34)</title>
			<polygon class=" (ctg83_34)" points="551,25 523,25 523,10 493,40 523,70 523,55 551,55" fill="rgb(255,255,255)" fill-opacity="1.0" stroke="rgb(0,0,0)" stroke-width="2"  />
			<g>
				<title>GATase (PF00117)
"Glutamine amidotransferase class-I"</title>
				<polygon class="PF00117" points="497,40 509,28 517,28 517,52 509,52" stroke-linejoin="round" width="22" height="24" fill="rgb(159,201,96)" stroke="rgb(127,160,76)" stroke-width="1" opacity="0.75" />
			</g>
			<g>
				<title>CTP_synth_N (PF06418)
"CTP synthase N-terminus"</title>
				<rect class="PF06418" x="521" y="28" stroke-linejoin="round" width="26" height="24" fill="rgb(90,189,145)" stroke="rgb(72,151,116)" stroke-width="1" opacity="0.75" />
			</g>
		</g>
		<g>
			<title> (ctg83_35)</title>
			<polygon class=" (ctg83_35)" points="556,10 567,40 556,70" fill="rgb(255,255,255)" fill-opacity="1.0" stroke="rgb(0,0,0)" stroke-width="2"  />
		</g>
		<g>
			<title> (ctg83_36)</title>
			<polygon class=" (ctg83_36)" points="570,40 595,10 595,70" fill="rgb(255,255,255)" fill-opacity="1.0" stroke="rgb(0,0,0)" stroke-width="2"  />
			<g>
				<title>BPD_transp_1 (PF00528)
"Binding-protein-dependent transport system inner membrane component"</title>
				<polygon class="PF00528" points="574,40 584,28 586,28 586,52 584,52" stroke-linejoin="round" width="16" height="24" fill="rgb(77,208,225)" stroke="rgb(61,166,180)" stroke-width="1" opacity="0.75" />
			</g>
		</g>
		<g>
			<title> (ctg83_37)</title>
			<polygon class=" (ctg83_37)" points="636,25 626,25 626,10 596,40 626,70 626,55 636,55" fill="rgb(255,255,255)" fill-opacity="1.0" stroke="rgb(0,0,0)" stroke-width="2"  />
			<g>
				<title>NMT1_2 (PF13379)
"NMT1-like family"</title>
				<polygon class="PF13379" points="607,33 612,28 631,28 631,52 612,52 607,47" stroke-linejoin="round" width="24" height="24" fill="rgb(139,182,81)" stroke="rgb(111,145,64)" stroke-width="1" opacity="0.75" />
			</g>
		</g>
		<g>
			<title> (ctg83_38)</title>
			<polygon class=" (ctg83_38)" points="636,40 662,10 662,70" fill="rgb(255,255,255)" fill-opacity="1.0" stroke="rgb(0,0,0)" stroke-width="2"  />
			<g>
				<title>ABC_tran (PF00005)
"ABC transporter"</title>
				<polygon class="PF00005" points="644,35 650,28 658,28 658,52 650,52 644,45" stroke-linejoin="round" width="14" height="24" fill="rgb(129,201,63)" stroke="rgb(103,160,50)" stroke-width="1" opacity="0.75" />
			</g>
		</g>
		<g>
			<title> (ctg83_39)</title>
			<polygon class=" (ctg83_39)" points="699,25 692,25 692,10 662,40 692,70 692,55 699,55" fill="rgb(255,255,255)" fill-opacity="1.0" stroke="rgb(0,0,0)" stroke-width="2"  />
			<g>
				<title>Acyl-CoA_dh_N (PF02771)
"Acyl-CoA dehydrogenase, N-terminal domain"</title>
				<rect class="PF02771" x="688" y="28" stroke-linejoin="round" width="9" height="24" fill="rgb(105,135,218)" stroke="rgb(84,108,174)" stroke-width="1" opacity="0.75" />
			</g>
		</g>
		<g>
			<title> (ctg83_40)</title>
			<polygon class=" (ctg83_40)" points="700,40 717,10 717,70" fill="rgb(255,255,255)" fill-opacity="1.0" stroke="rgb(0,0,0)" stroke-width="2"  />
			<g>
				<title>DUF4242 (PF14026)
"Protein of unknown function (DUF4242)"</title>
				<polygon class="PF14026" points="703,40 707,33 707,47" stroke-linejoin="round" width="7" height="24" fill="rgb(115,66,182)" stroke="rgb(92,52,145)" stroke-width="1" opacity="0.75" />
			</g>
		</g>
	</g>
</svg>
