<svg version="1.1" baseProfile="full" xmlns="http://www.w3.org/2000/svg" width="438.96666666666664" height="80">
	<g>
		<line x1="10" y1="40.0" x2="428.96666666666664" y2="40.0" style="stroke:rgb(70,70,70); stroke-width:3 "/>
		<g>
			<title> (ctg161_31)</title>
			<polygon class=" (ctg161_31)" points="24,10 31,40 24,70" fill="rgb(255,255,255)" fill-opacity="1.0" stroke="rgb(0,0,0)" stroke-width="2"  />
		</g>
		<g>
			<title> (ctg161_32)</title>
			<polygon class=" (ctg161_32)" points="32,25 66,25 66,10 96,40 66,70 66,55 32,55" fill="rgb(255,255,255)" fill-opacity="1.0" stroke="rgb(0,0,0)" stroke-width="2"  />
			<g>
				<title>zf-CHC2 (PF01807)
"CHC2 zinc finger"</title>
				<rect class="PF01807" x="32" y="28" stroke-linejoin="round" width="9" height="24" fill="rgb(76,201,77)" stroke="rgb(60,160,61)" stroke-width="1" opacity="0.75" />
			</g>
			<g>
				<title>Toprim_N (PF08275)
"DNA primase catalytic core, N-terminal domain"</title>
				<rect class="PF08275" x="44" y="28" stroke-linejoin="round" width="12" height="24" fill="rgb(118,218,88)" stroke="rgb(94,174,70)" stroke-width="1" opacity="0.75" />
			</g>
			<g>
				<title>Toprim_2 (PF13155)
"Toprim-like"</title>
				<rect class="PF13155" x="58" y="28" stroke-linejoin="round" width="9" height="24" fill="rgb(98,107,198)" stroke="rgb(78,85,158)" stroke-width="1" opacity="0.75" />
			</g>
		</g>
		<g>
			<title> (ctg161_33)</title>
			<polygon class=" (ctg161_33)" points="141,25 127,25 127,10 97,40 127,70 127,55 141,55" fill="rgb(255,255,255)" fill-opacity="1.0" stroke="rgb(0,0,0)" stroke-width="2"  />
		</g>
		<g>
			<title> (ctg161_34)</title>
			<polygon class=" (ctg161_34)" points="182,25 174,25 174,10 144,40 174,70 174,55 182,55" fill="rgb(255,255,255)" fill-opacity="1.0" stroke="rgb(0,0,0)" stroke-width="2"  />
			<g>
				<title>NTP_transferase (PF00483)
"Nucleotidyl transferase"</title>
				<polygon class="PF00483" points="157,31 160,28 181,28 181,52 160,52 157,49" stroke-linejoin="round" width="24" height="24" fill="rgb(198,101,87)" stroke="rgb(158,80,69)" stroke-width="1" opacity="0.75" />
			</g>
		</g>
		<g>
			<title> (ctg161_35)</title>
			<polygon class=" (ctg161_35)" points="193,10 199,40 193,70" fill="rgb(255,255,255)" fill-opacity="1.0" stroke="rgb(0,0,0)" stroke-width="2"  />
		</g>
		<g>
			<title> (ctg161_36)</title>
			<polygon class=" (ctg161_36)" points="198,10 204,40 198,70" fill="rgb(255,255,255)" fill-opacity="1.0" stroke="rgb(0,0,0)" stroke-width="2"  />
		</g>
		<g>
			<title> (ctg161_37)</title>
			<polygon class=" (ctg161_37)" points="211,40 221,10 221,70" fill="rgb(255,255,255)" fill-opacity="1.0" stroke="rgb(0,0,0)" stroke-width="2"  />
			<g>
				<title>DUF4090 (PF13319)
"Protein of unknown function (DUF4090)"</title>
				<polygon class="PF13319" points="214,40 218,28 219,28 219,52 218,52" stroke-linejoin="round" width="8" height="24" fill="rgb(89,117,182)" stroke="rgb(71,93,145)" stroke-width="1" opacity="0.75" />
			</g>
		</g>
		<g>
			<title> (ctg161_38)</title>
			<polygon class=" (ctg161_38)" points="222,10 238,40 222,70" fill="rgb(255,255,255)" fill-opacity="1.0" stroke="rgb(0,0,0)" stroke-width="2"  />
			<g>
				<title>Penicillinase_R (PF03965)
"Penicillinase repressor"</title>
				<polygon class="PF03965" points="225,28 228,28 234,40 228,52 225,52" stroke-linejoin="round" width="11" height="24" fill="rgb(208,59,133)" stroke="rgb(166,47,106)" stroke-width="1" opacity="0.75" />
			</g>
		</g>
		<g>
			<title> (ctg161_39)</title>
			<polygon class=" (ctg161_39)" points="243,10 265,40 243,70" fill="rgb(255,255,255)" fill-opacity="1.0" stroke="rgb(0,0,0)" stroke-width="2"  />
			<g>
				<title>Peptidase_M48 (PF01435)
"Peptidase family M48"</title>
				<polygon class="PF01435" points="246,28 253,28 255,31 255,49 253,52 246,52" stroke-linejoin="round" width="9" height="24" fill="rgb(70,152,228)" stroke="rgb(56,121,182)" stroke-width="1" opacity="0.75" />
			</g>
		</g>
		<g>
			<title> (ctg161_40)</title>
			<polygon class=" (ctg161_40)" points="266,10 281,40 266,70" fill="rgb(255,255,255)" fill-opacity="1.0" stroke="rgb(0,0,0)" stroke-width="2"  />
			<g>
				<title>AhpC-TSA (PF00578)
"AhpC/TSA family"</title>
				<polygon class="PF00578" points="266,28 271,28 278,40 278,40 271,52 266,52" stroke-linejoin="round" width="12" height="24" fill="rgb(166,71,190)" stroke="rgb(132,56,152)" stroke-width="1" opacity="0.75" />
			</g>
		</g>
		<g>
			<title> (ctg161_41)</title>
			<polygon class=" (ctg161_41)" points="286,10 313,40 286,70" fill="rgb(255,255,255)" fill-opacity="1.0" stroke="rgb(0,0,0)" stroke-width="2"  />
			<g>
				<title>Ribosomal_S2 (PF00318)
"Ribosomal protein S2"</title>
				<polygon class="PF00318" points="287,28 298,28 308,39 308,41 298,52 287,52" stroke-linejoin="round" width="21" height="24" fill="rgb(60,213,66)" stroke="rgb(48,170,52)" stroke-width="1" opacity="0.75" />
			</g>
		</g>
		<g>
			<title> (ctg161_42)</title>
			<polygon class=" (ctg161_42)" points="319,10 342,40 319,70" fill="rgb(255,255,255)" fill-opacity="1.0" stroke="rgb(0,0,0)" stroke-width="2"  />
			<g>
				<title>EF_TS (PF00889)
"Elongation factor TS"</title>
				<polygon class="PF00889" points="319,28 329,28 336,37 336,43 329,52 319,52" stroke-linejoin="round" width="17" height="24" fill="rgb(69,212,85)" stroke="rgb(55,169,67)" stroke-width="1" opacity="0.75" />
			</g>
		</g>
		<g>
			<title> (ctg161_43)</title>
			<polygon class=" (ctg161_43)" points="343,25 384,25 384,10 414,40 384,70 384,55 343,55" fill="rgb(255,255,255)" fill-opacity="1.0" stroke="rgb(0,0,0)" stroke-width="2"  />
			<g>
				<title>SQHop_cyclase_N (PF13249)
"Squalene-hopene cyclase N-terminal domain"</title>
				<rect class="PF13249" x="352" y="28" stroke-linejoin="round" width="28" height="24" fill="rgb(88,190,89)" stroke="rgb(70,152,71)" stroke-width="1" opacity="0.75" />
			</g>
			<g>
				<title>SQHop_cyclase_C (PF13243)
"Squalene-hopene cyclase C-terminal domain"</title>
				<polygon class="PF13243" points="382,28 398,28 410,40 398,52 382,52" stroke-linejoin="round" width="32" height="24" fill="rgb(191,58,201)" stroke="rgb(152,46,160)" stroke-width="1" opacity="0.75" />
			</g>
		</g>
	</g>
</svg>
