<svg version="1.1" baseProfile="full" xmlns="http://www.w3.org/2000/svg" width="621.5" height="80">
	<g>
		<line x1="10" y1="40.0" x2="611.5" y2="40.0" style="stroke:rgb(70,70,70); stroke-width:3 "/>
		<g>
			<title> (ctg196_1)</title>
			<polygon class=" (ctg196_1)" points="58,25 54,25 54,10 24,40 54,70 54,55 58,55" fill="rgb(255,255,255)" fill-opacity="1.0" stroke="rgb(0,0,0)" stroke-width="2"  />
			<g>
				<title>Esterase_PHB (PF10503)
"Esterase PHB depolymerase"</title>
				<polygon class="PF10503" points="36,32 40,28 52,28 52,52 40,52 36,48" stroke-linejoin="round" width="16" height="24" fill="rgb(189,202,77)" stroke="rgb(151,161,61)" stroke-width="1" opacity="0.75" />
			</g>
		</g>
		<g>
			<title> (ctg196_2)</title>
			<polygon class=" (ctg196_2)" points="147,25 91,25 91,10 61,40 91,70 91,55 147,55" fill="rgb(255,255,255)" fill-opacity="1.0" stroke="rgb(0,0,0)" stroke-width="2"  />
			<g>
				<title>HlyD_D23 (PF16576)
"Barrel-sandwich domain of CusB or HlyD membrane-fusion"</title>
				<polygon class="PF16576" points="66,39 77,28 89,28 89,52 77,52 66,41" stroke-linejoin="round" width="23" height="24" fill="rgb(70,190,92)" stroke="rgb(56,152,73)" stroke-width="1" opacity="0.75" />
			</g>
		</g>
		<g>
			<title> (ctg196_3)</title>
			<polygon class=" (ctg196_3)" points="166,25 288,25 288,10 318,40 288,70 288,55 166,55" fill="rgb(255,255,255)" fill-opacity="1.0" stroke="rgb(0,0,0)" stroke-width="2"  />
			<g>
				<title>ketoacyl-synt (PF00109)
"Beta-ketoacyl synthase, N-terminal domain"</title>
				<rect class="PF00109" x="166" y="28" stroke-linejoin="round" width="27" height="24" fill="rgb(112,116,228)" stroke="rgb(89,92,182)" stroke-width="1" opacity="0.75" />
			</g>
			<g>
				<title>Ketoacyl-synt_C (PF02801)
"Beta-ketoacyl synthase, C-terminal domain"</title>
				<rect class="PF02801" x="195" y="28" stroke-linejoin="round" width="11" height="24" fill="rgb(215,78,102)" stroke="rgb(172,62,81)" stroke-width="1" opacity="0.75" />
			</g>
			<g>
				<title>KAsynt_C_assoc (PF16197)
"Ketoacyl-synthetase C-terminal extension"</title>
				<rect class="PF16197" x="207" y="28" stroke-linejoin="round" width="11" height="24" fill="rgb(240,150,172)" stroke="rgb(192,120,137)" stroke-width="1" opacity="0.75" />
			</g>
			<g>
				<title>Acyl_transf_1 (PF00698)
"Acyl transferase domain"</title>
				<rect class="PF00698" x="223" y="28" stroke-linejoin="round" width="33" height="24" fill="rgb(59,176,209)" stroke="rgb(47,140,167)" stroke-width="1" opacity="0.75" />
			</g>
			<g>
				<title>PS-DH (PF14765)
"Polyketide synthase dehydratase"</title>
				<rect class="PF14765" x="273" y="28" stroke-linejoin="round" width="29" height="24" fill="rgb(173,56,182)" stroke="rgb(138,44,145)" stroke-width="1" opacity="0.75" />
			</g>
		</g>
		<g>
			<title> (ctg196_4)</title>
			<polygon class=" (ctg196_4)" points="322,10 332,40 322,70" fill="rgb(255,255,255)" fill-opacity="1.0" stroke="rgb(0,0,0)" stroke-width="2"  />
		</g>
		<g>
			<title> (ctg196_5)</title>
			<polygon class=" (ctg196_5)" points="335,25 358,25 358,10 388,40 358,70 358,55 335,55" fill="rgb(255,255,255)" fill-opacity="1.0" stroke="rgb(0,0,0)" stroke-width="2"  />
			<g>
				<title>Phosphodiest (PF01663)
"Type I phosphodiesterase / nucleotide pyrophosphatase"</title>
				<polygon class="PF01663" points="335,28 372,28 378,34 378,46 372,52 335,52" stroke-linejoin="round" width="43" height="24" fill="rgb(178,65,158)" stroke="rgb(142,52,126)" stroke-width="1" opacity="0.75" />
			</g>
		</g>
		<g>
			<title> (ctg196_6)</title>
			<polygon class=" (ctg196_6)" points="388,10 392,40 388,70" fill="rgb(255,255,255)" fill-opacity="1.0" stroke="rgb(0,0,0)" stroke-width="2"  />
		</g>
		<g>
			<title> (ctg196_7)</title>
			<polygon class=" (ctg196_7)" points="392,10 421,40 392,70" fill="rgb(255,255,255)" fill-opacity="1.0" stroke="rgb(0,0,0)" stroke-width="2"  />
			<g>
				<title>Abhydrolase_1 (PF00561)
"alpha/beta hydrolase fold"</title>
				<polygon class="PF00561" points="394,28 405,28 417,40 405,52 394,52" stroke-linejoin="round" width="24" height="24" fill="rgb(86,180,151)" stroke="rgb(68,144,120)" stroke-width="1" opacity="0.75" />
			</g>
		</g>
		<g>
			<title> (ctg196_8)</title>
			<polygon class=" (ctg196_8)" points="423,10 448,40 423,70" fill="rgb(255,255,255)" fill-opacity="1.0" stroke="rgb(0,0,0)" stroke-width="2"  />
			<g>
				<title>adh_short (PF00106)
"short chain dehydrogenase"</title>
				<polygon class="PF00106" points="423,28 434,28 443,39 443,41 434,52 423,52" stroke-linejoin="round" width="20" height="24" fill="rgb(182,219,73)" stroke="rgb(145,175,58)" stroke-width="1" opacity="0.75" />
			</g>
		</g>
		<g>
			<title> (ctg196_9)</title>
			<polygon class=" (ctg196_9)" points="450,10 475,40 450,70" fill="rgb(255,255,255)" fill-opacity="1.0" stroke="rgb(0,0,0)" stroke-width="2"  />
			<g>
				<title>adh_short (PF00106)
"short chain dehydrogenase"</title>
				<polygon class="PF00106" points="451,28 461,28 470,38 470,42 461,52 451,52" stroke-linejoin="round" width="19" height="24" fill="rgb(182,219,73)" stroke="rgb(145,175,58)" stroke-width="1" opacity="0.75" />
			</g>
		</g>
		<g>
			<title> (ctg196_10)</title>
			<polygon class=" (ctg196_10)" points="527,25 508,25 508,10 478,40 508,70 508,55 527,55" fill="rgb(255,255,255)" fill-opacity="1.0" stroke="rgb(0,0,0)" stroke-width="2"  />
		</g>
		<g>
			<title> (ctg196_11)</title>
			<polygon class=" (ctg196_11)" points="530,25 532,25 532,10 562,40 532,70 532,55 530,55" fill="rgb(255,255,255)" fill-opacity="1.0" stroke="rgb(0,0,0)" stroke-width="2"  />
			<g>
				<title>Sulfotransfer_3 (PF13469)
"Sulfotransferase family"</title>
				<polygon class="PF13469" points="530,28 545,28 554,37 554,43 545,52 530,52" stroke-linejoin="round" width="24" height="24" fill="rgb(59,182,84)" stroke="rgb(47,145,67)" stroke-width="1" opacity="0.75" />
			</g>
		</g>
		<g>
			<title> (ctg196_12)</title>
			<polygon class=" (ctg196_12)" points="597,25 592,25 592,10 562,40 592,70 592,55 597,55" fill="rgb(255,255,255)" fill-opacity="1.0" stroke="rgb(0,0,0)" stroke-width="2"  />
			<g>
				<title>DUF4915 (PF16261)
"Domain of unknown function (DUF4915)"</title>
				<polygon class="PF16261" points="566,40 578,28 594,28 594,52 578,52" stroke-linejoin="round" width="31" height="24" fill="rgb(150,82,179)" stroke="rgb(120,65,143)" stroke-width="1" opacity="0.75" />
			</g>
		</g>
		<g>
			<title> (ctg196_13)</title>
			<polygon class=" (ctg196_13)" points="601,40 610,10 610,70" fill="rgb(255,255,255)" fill-opacity="1.0" stroke="rgb(0,0,0)" stroke-width="2"  />
		</g>
	</g>
</svg>
