<svg version="1.1" baseProfile="full" xmlns="http://www.w3.org/2000/svg" width="672.0" height="80">
	<g>
		<line x1="10" y1="40.0" x2="662.0" y2="40.0" style="stroke:rgb(70,70,70); stroke-width:3 "/>
		<g>
			<title> (ctg158_50)</title>
			<polygon class=" (ctg158_50)" points="72,10 98,40 72,70" fill="rgb(255,255,255)" fill-opacity="1.0" stroke="rgb(0,0,0)" stroke-width="2"  />
			<g>
				<title>SBP_bac_3 (PF00497)
"Bacterial extracellular solute-binding proteins, family 3"</title>
				<polygon class="PF00497" points="75,28 84,28 94,40 84,52 75,52" stroke-linejoin="round" width="22" height="24" fill="rgb(186,76,141)" stroke="rgb(148,60,112)" stroke-width="1" opacity="0.75" />
			</g>
		</g>
		<g>
			<title> (ctg158_51)</title>
			<polygon class=" (ctg158_51)" points="104,10 121,40 104,70" fill="rgb(255,255,255)" fill-opacity="1.0" stroke="rgb(0,0,0)" stroke-width="2"  />
			<g>
				<title>TPR_12 (PF13424)
"Tetratricopeptide repeat"</title>
				<polygon class="PF13424" points="109,28 111,28 116,36 116,44 111,52 109,52" stroke-linejoin="round" width="7" height="24" fill="rgb(147,215,101)" stroke="rgb(117,172,80)" stroke-width="1" opacity="0.75" />
			</g>
		</g>
		<g>
			<title> (ctg158_52)</title>
			<polygon class=" (ctg158_52)" points="184,25 154,25 154,10 124,40 154,70 154,55 184,55" fill="rgb(255,255,255)" fill-opacity="1.0" stroke="rgb(0,0,0)" stroke-width="2"  />
			<g>
				<title>CitMHS (PF03600)
"Citrate transporter"</title>
				<polygon class="PF03600" points="129,39 140,28 181,28 181,52 140,52 129,41" stroke-linejoin="round" width="52" height="24" fill="rgb(75,203,220)" stroke="rgb(60,162,176)" stroke-width="1" opacity="0.75" />
			</g>
		</g>
		<g>
			<title> (ctg158_53)</title>
			<polygon class=" (ctg158_53)" points="276,25 214,25 214,10 184,40 214,70 214,55 276,55" fill="rgb(255,255,255)" fill-opacity="1.0" stroke="rgb(0,0,0)" stroke-width="2"  />
			<g>
				<title>Cation_ATPase_C (PF00689)
"Cation transporting ATPase, C-terminus"</title>
				<polygon class="PF00689" points="188,40 200,28 201,28 201,52 200,52" stroke-linejoin="round" width="17" height="24" fill="rgb(76,203,161)" stroke="rgb(60,162,128)" stroke-width="1" opacity="0.75" />
			</g>
			<g>
				<title>Cation_ATPase (PF13246)
"Cation transport ATPase (P-type)"</title>
				<rect class="PF13246" x="227" y="28" stroke-linejoin="round" width="9" height="24" fill="rgb(200,58,79)" stroke="rgb(160,46,63)" stroke-width="1" opacity="0.75" />
			</g>
			<g>
				<title>E1-E2_ATPase (PF00122)
"E1-E2 ATPase"</title>
				<rect class="PF00122" x="244" y="28" stroke-linejoin="round" width="19" height="24" fill="rgb(149,204,70)" stroke="rgb(119,163,56)" stroke-width="1" opacity="0.75" />
			</g>
			<g>
				<title>Cation_ATPase_N (PF00690)
"Cation transporter/ATPase, N-terminus"</title>
				<rect class="PF00690" x="268" y="28" stroke-linejoin="round" width="6" height="24" fill="rgb(174,102,225)" stroke="rgb(139,81,180)" stroke-width="1" opacity="0.75" />
			</g>
		</g>
		<g>
			<title> (ctg158_54)</title>
			<polygon class=" (ctg158_54)" points="292,25 309,25 309,10 339,40 309,70 309,55 292,55" fill="rgb(255,255,255)" fill-opacity="1.0" stroke="rgb(0,0,0)" stroke-width="2"  />
			<g>
				<title>Amino_oxidase (PF01593)
"Flavin containing amine oxidoreductase"</title>
				<polygon class="PF01593" points="293,28 323,28 335,40 323,52 293,52" stroke-linejoin="round" width="44" height="24" fill="rgb(184,74,52)" stroke="rgb(147,59,41)" stroke-width="1" opacity="0.75" />
			</g>
		</g>
		<g>
			<title> (ctg158_55)</title>
			<polygon class=" (ctg158_55)" points="343,25 344,25 344,10 374,40 344,70 344,55 343,55" fill="rgb(255,255,255)" fill-opacity="1.0" stroke="rgb(0,0,0)" stroke-width="2"  />
			<g>
				<title>SQS_PSY (PF00494)
"Squalene/phytoene synthase"</title>
				<polygon class="PF00494" points="345,28 357,28 369,40 357,52 345,52" stroke-linejoin="round" width="26" height="24" fill="rgb(178,91,49)" stroke="rgb(142,72,39)" stroke-width="1" opacity="0.75" />
			</g>
		</g>
		<g>
			<title> (ctg158_56)</title>
			<polygon class=" (ctg158_56)" points="384,40 398,10 398,70" fill="rgb(255,255,255)" fill-opacity="1.0" stroke="rgb(0,0,0)" stroke-width="2"  />
		</g>
		<g>
			<title> (ctg158_57)</title>
			<polygon class=" (ctg158_57)" points="409,10 417,40 409,70" fill="rgb(255,255,255)" fill-opacity="1.0" stroke="rgb(0,0,0)" stroke-width="2"  />
		</g>
		<g>
			<title> (ctg158_58)</title>
			<polygon class=" (ctg158_58)" points="424,40 447,10 447,70" fill="rgb(255,255,255)" fill-opacity="1.0" stroke="rgb(0,0,0)" stroke-width="2"  />
			<g>
				<title>Pirin_C_2 (PF17954)
"Quercetinase C-terminal cupin domain"</title>
				<polygon class="PF17954" points="428,40 432,35 432,45" stroke-linejoin="round" width="8" height="24" fill="rgb(224,140,102)" stroke="rgb(179,112,81)" stroke-width="1" opacity="0.75" />
			</g>
			<g>
				<title>Pirin (PF02678)
"Pirin"</title>
				<polygon class="PF02678" points="435,31 437,28 446,28 446,52 437,52 435,49" stroke-linejoin="round" width="11" height="24" fill="rgb(139,213,61)" stroke="rgb(111,170,48)" stroke-width="1" opacity="0.75" />
			</g>
		</g>
		<g>
			<title> (ctg158_59)</title>
			<polygon class=" (ctg158_59)" points="537,25 486,25 486,10 456,40 486,70 486,55 537,55" fill="rgb(255,255,255)" fill-opacity="1.0" stroke="rgb(0,0,0)" stroke-width="2"  />
			<g>
				<title>FDX-ACB (PF03147)
"Ferredoxin-fold anticodon binding domain"</title>
				<polygon class="PF03147" points="460,40 465,35 465,45" stroke-linejoin="round" width="9" height="24" fill="rgb(152,84,215)" stroke="rgb(121,67,172)" stroke-width="1" opacity="0.75" />
			</g>
			<g>
				<title>tRNA_synthFbeta (PF17759)
"Phenylalanyl tRNA synthetase beta chain CLM domain"</title>
				<polygon class="PF17759" points="467,33 472,28 487,28 487,52 472,52 467,47" stroke-linejoin="round" width="20" height="24" fill="rgb(209,87,97)" stroke="rgb(167,69,77)" stroke-width="1" opacity="0.75" />
			</g>
			<g>
				<title>B5 (PF03484)
"tRNA synthetase B5 domain"</title>
				<rect class="PF03484" x="488" y="28" stroke-linejoin="round" width="7" height="24" fill="rgb(94,91,186)" stroke="rgb(75,72,148)" stroke-width="1" opacity="0.75" />
			</g>
			<g>
				<title>B3_4 (PF03483)
"B3/4 domain"</title>
				<rect class="PF03483" x="497" y="28" stroke-linejoin="round" width="17" height="24" fill="rgb(97,63,226)" stroke="rgb(77,50,180)" stroke-width="1" opacity="0.75" />
			</g>
			<g>
				<title>tRNA_bind (PF01588)
"Putative tRNA binding domain"</title>
				<rect class="PF01588" x="522" y="28" stroke-linejoin="round" width="10" height="24" fill="rgb(192,51,118)" stroke="rgb(153,40,94)" stroke-width="1" opacity="0.75" />
			</g>
		</g>
		<g>
			<title> (ctg158_60)</title>
			<polygon class=" (ctg158_60)" points="544,25 551,25 551,10 581,40 551,70 551,55 544,55" fill="rgb(255,255,255)" fill-opacity="1.0" stroke="rgb(0,0,0)" stroke-width="2"  />
			<g>
				<title>AAA_21 (PF13304)
"AAA domain, putative AbiEii toxin, Type IV TA system"</title>
				<polygon class="PF13304" points="546,28 565,28 576,39 576,41 565,52 546,52" stroke-linejoin="round" width="30" height="24" fill="rgb(215,121,101)" stroke="rgb(172,96,80)" stroke-width="1" opacity="0.75" />
			</g>
		</g>
		<g>
			<title> (ctg158_61)</title>
			<polygon class=" (ctg158_61)" points="581,10 606,40 581,70" fill="rgb(255,255,255)" fill-opacity="1.0" stroke="rgb(0,0,0)" stroke-width="2"  />
		</g>
		<g>
			<title> (ctg158_62)</title>
			<polygon class=" (ctg158_62)" points="610,10 631,40 610,70" fill="rgb(255,255,255)" fill-opacity="1.0" stroke="rgb(0,0,0)" stroke-width="2"  />
			<g>
				<title>2OG-FeII_Oxy_3 (PF13640)
"2OG-Fe(II) oxygenase superfamily"</title>
				<polygon class="PF13640" points="618,28 619,28 627,40 627,40 619,52 618,52" stroke-linejoin="round" width="9" height="24" fill="rgb(163,67,223)" stroke="rgb(130,53,178)" stroke-width="1" opacity="0.75" />
			</g>
		</g>
		<g>
			<title> (ctg158_63)</title>
			<polygon class=" (ctg158_63)" points="632,10 658,40 632,70" fill="rgb(255,255,255)" fill-opacity="1.0" stroke="rgb(0,0,0)" stroke-width="2"  />
			<g>
				<title>ABC_tran (PF00005)
"ABC transporter"</title>
				<polygon class="PF00005" points="634,28 644,28 649,35 649,45 644,52 634,52" stroke-linejoin="round" width="15" height="24" fill="rgb(129,201,63)" stroke="rgb(103,160,50)" stroke-width="1" opacity="0.75" />
			</g>
		</g>
	</g>
</svg>
