<svg version="1.1" baseProfile="full" xmlns="http://www.w3.org/2000/svg" width="942.3" height="80">
	<g>
		<line x1="10" y1="40.0" x2="932.3" y2="40.0" style="stroke:rgb(70,70,70); stroke-width:3 "/>
		<g>
			<title> (ctg476_1)</title>
			<polygon class=" (ctg476_1)" points="10,10 13,40 10,70" fill="rgb(255,255,255)" fill-opacity="1.0" stroke="rgb(0,0,0)" stroke-width="2"  />
		</g>
		<g>
			<title> (ctg476_2)</title>
			<polygon class=" (ctg476_2)" points="15,40 24,10 24,70" fill="rgb(255,255,255)" fill-opacity="1.0" stroke="rgb(0,0,0)" stroke-width="2"  />
			<g>
				<title>DUF2288 (PF10052)
"Protein of unknown function (DUF2288)"</title>
				<polygon class="PF10052" points="18,40 22,28 24,28 24,52 22,52" stroke-linejoin="round" width="9" height="24" fill="rgb(185,193,80)" stroke="rgb(147,154,64)" stroke-width="1" opacity="0.75" />
			</g>
		</g>
		<g>
			<title> (ctg476_3)</title>
			<polygon class=" (ctg476_3)" points="54,25 234,25 234,10 264,40 234,70 234,55 54,55" fill="rgb(255,255,255)" fill-opacity="1.0" stroke="rgb(0,0,0)" stroke-width="2"  />
			<g>
				<title>AMP-binding (PF00501)
"AMP-binding enzyme"</title>
				<rect class="PF00501" x="57" y="28" stroke-linejoin="round" width="44" height="24" fill="rgb(60,217,223)" stroke="rgb(48,173,178)" stroke-width="1" opacity="0.75" />
			</g>
			<g>
				<title>PP-binding (PF00550)
"Phosphopantetheine attachment site"</title>
				<rect class="PF00550" x="118" y="28" stroke-linejoin="round" width="6" height="24" fill="rgb(103,191,88)" stroke="rgb(82,152,70)" stroke-width="1" opacity="0.75" />
			</g>
			<g>
				<title>ketoacyl-synt (PF00109)
"Beta-ketoacyl synthase, N-terminal domain"</title>
				<rect class="PF00109" x="128" y="28" stroke-linejoin="round" width="24" height="24" fill="rgb(112,116,228)" stroke="rgb(89,92,182)" stroke-width="1" opacity="0.75" />
			</g>
			<g>
				<title>Ketoacyl-synt_C (PF02801)
"Beta-ketoacyl synthase, C-terminal domain"</title>
				<rect class="PF02801" x="153" y="28" stroke-linejoin="round" width="11" height="24" fill="rgb(215,78,102)" stroke="rgb(172,62,81)" stroke-width="1" opacity="0.75" />
			</g>
			<g>
				<title>KAsynt_C_assoc (PF16197)
"Ketoacyl-synthetase C-terminal extension"</title>
				<rect class="PF16197" x="165" y="28" stroke-linejoin="round" width="11" height="24" fill="rgb(240,150,172)" stroke="rgb(192,120,137)" stroke-width="1" opacity="0.75" />
			</g>
			<g>
				<title>Acyl_transf_1 (PF00698)
"Acyl transferase domain"</title>
				<rect class="PF00698" x="180" y="28" stroke-linejoin="round" width="30" height="24" fill="rgb(59,176,209)" stroke="rgb(47,140,167)" stroke-width="1" opacity="0.75" />
			</g>
			<g>
				<title>PS-DH (PF14765)
"Polyketide synthase dehydratase"</title>
				<rect class="PF14765" x="219" y="28" stroke-linejoin="round" width="28" height="24" fill="rgb(173,56,182)" stroke="rgb(138,44,145)" stroke-width="1" opacity="0.75" />
			</g>
			<g>
				<title>PP-binding (PF00550)
"Phosphopantetheine attachment site"</title>
				<polygon class="PF00550" points="253,33 259,39 259,41 253,47" stroke-linejoin="round" width="6" height="24" fill="rgb(103,191,88)" stroke="rgb(82,152,70)" stroke-width="1" opacity="0.75" />
			</g>
		</g>
		<g>
			<title> (ctg476_4)</title>
			<polygon class=" (ctg476_4)" points="266,25 280,25 280,10 310,40 280,70 280,55 266,55" fill="rgb(255,255,255)" fill-opacity="1.0" stroke="rgb(0,0,0)" stroke-width="2"  />
			<g>
				<title>Aminotran_1_2 (PF00155)
"Aminotransferase class I and II"</title>
				<polygon class="PF00155" points="274,28 293,28 305,40 293,52 274,52" stroke-linejoin="round" width="34" height="24" fill="rgb(89,113,198)" stroke="rgb(71,90,158)" stroke-width="1" opacity="0.75" />
			</g>
		</g>
		<g>
			<title> (ctg476_5)</title>
			<polygon class=" (ctg476_5)" points="321,25 334,25 334,10 364,40 334,70 334,55 321,55" fill="rgb(255,255,255)" fill-opacity="1.0" stroke="rgb(0,0,0)" stroke-width="2"  />
			<g>
				<title>Biotin_lipoyl_2 (PF13533)
"Biotin-lipoyl like"</title>
				<rect class="PF13533" x="327" y="28" stroke-linejoin="round" width="6" height="24" fill="rgb(229,122,112)" stroke="rgb(183,97,89)" stroke-width="1" opacity="0.75" />
			</g>
			<g>
				<title>HlyD_D23 (PF16576)
"Barrel-sandwich domain of CusB or HlyD membrane-fusion"</title>
				<polygon class="PF16576" points="342,28 348,28 359,39 359,41 348,52 342,52" stroke-linejoin="round" width="17" height="24" fill="rgb(70,190,92)" stroke="rgb(56,152,73)" stroke-width="1" opacity="0.75" />
			</g>
		</g>
		<g>
			<title> (ctg476_6)</title>
			<polygon class=" (ctg476_6)" points="364,25 374,25 374,10 404,40 374,70 374,55 364,55" fill="rgb(255,255,255)" fill-opacity="1.0" stroke="rgb(0,0,0)" stroke-width="2"  />
			<g>
				<title>FtsX (PF02687)
"FtsX-like permease family"</title>
				<polygon class="PF02687" points="394,35 399,40 394,45" stroke-linejoin="round" width="8" height="24" fill="rgb(126,55,214)" stroke="rgb(100,44,171)" stroke-width="1" opacity="0.75" />
			</g>
		</g>
		<g>
			<title> (ctg476_7)</title>
			<polygon class=" (ctg476_7)" points="405,10 428,40 405,70" fill="rgb(255,255,255)" fill-opacity="1.0" stroke="rgb(0,0,0)" stroke-width="2"  />
			<g>
				<title>ABC_tran (PF00005)
"ABC transporter"</title>
				<polygon class="PF00005" points="408,28 415,28 422,37 422,43 415,52 408,52" stroke-linejoin="round" width="14" height="24" fill="rgb(129,201,63)" stroke="rgb(103,160,50)" stroke-width="1" opacity="0.75" />
			</g>
		</g>
		<g>
			<title> (ctg476_8)</title>
			<polygon class=" (ctg476_8)" points="434,10 460,40 434,70" fill="rgb(255,255,255)" fill-opacity="1.0" stroke="rgb(0,0,0)" stroke-width="2"  />
			<g>
				<title>Radical_SAM (PF04055)
"Radical SAM superfamily"</title>
				<polygon class="PF04055" points="437,28 445,28 454,37 454,43 445,52 437,52" stroke-linejoin="round" width="17" height="24" fill="rgb(149,56,222)" stroke="rgb(119,44,177)" stroke-width="1" opacity="0.75" />
			</g>
		</g>
		<g>
			<title> (ctg476_9)</title>
			<polygon class=" (ctg476_9)" points="523,25 491,25 491,10 461,40 491,70 491,55 523,55" fill="rgb(255,255,255)" fill-opacity="1.0" stroke="rgb(0,0,0)" stroke-width="2"  />
			<g>
				<title>Transpeptidase (PF00905)
"Penicillin binding protein transpeptidase domain"</title>
				<polygon class="PF00905" points="465,40 477,28 493,28 493,52 477,52" stroke-linejoin="round" width="31" height="24" fill="rgb(161,226,87)" stroke="rgb(128,180,69)" stroke-width="1" opacity="0.75" />
			</g>
			<g>
				<title>PBP_dimer (PF03717)
"Penicillin-binding Protein dimerisation domain"</title>
				<rect class="PF03717" x="497" y="28" stroke-linejoin="round" width="17" height="24" fill="rgb(90,211,197)" stroke="rgb(72,168,157)" stroke-width="1" opacity="0.75" />
			</g>
		</g>
		<g>
			<title> (ctg476_10)</title>
			<polygon class=" (ctg476_10)" points="609,25 579,25 579,10 549,40 579,70 579,55 609,55" fill="rgb(255,255,255)" fill-opacity="1.0" stroke="rgb(0,0,0)" stroke-width="2"  />
			<g>
				<title>RicinB_lectin_2 (PF14200)
"Ricin-type beta-trefoil lectin domain-like"</title>
				<polygon class="PF14200" points="553,40 555,38 555,42" stroke-linejoin="round" width="5" height="24" fill="rgb(112,220,73)" stroke="rgb(89,176,58)" stroke-width="1" opacity="0.75" />
			</g>
			<g>
				<title>Dyp_perox (PF04261)
"Dyp-type peroxidase family"</title>
				<polygon class="PF04261" points="564,29 565,28 580,28 580,52 565,52 564,51" stroke-linejoin="round" width="16" height="24" fill="rgb(189,65,79)" stroke="rgb(151,51,63)" stroke-width="1" opacity="0.75" />
			</g>
		</g>
		<g>
			<title> (ctg476_11)</title>
			<polygon class=" (ctg476_11)" points="610,40 614,10 614,70" fill="rgb(255,255,255)" fill-opacity="1.0" stroke="rgb(0,0,0)" stroke-width="2"  />
		</g>
		<g>
			<title> (ctg476_12)</title>
			<polygon class=" (ctg476_12)" points="680,25 645,25 645,10 615,40 645,70 645,55 680,55" fill="rgb(255,255,255)" fill-opacity="1.0" stroke="rgb(0,0,0)" stroke-width="2"  />
			<g>
				<title>DUF1929 (PF09118)
"Domain of unknown function (DUF1929)"</title>
				<polygon class="PF09118" points="619,40 624,35 624,45" stroke-linejoin="round" width="9" height="24" fill="rgb(225,74,149)" stroke="rgb(180,59,119)" stroke-width="1" opacity="0.75" />
			</g>
		</g>
		<g>
			<title> (ctg476_13)</title>
			<polygon class=" (ctg476_13)" points="708,10 712,40 708,70" fill="rgb(255,255,255)" fill-opacity="1.0" stroke="rgb(0,0,0)" stroke-width="2"  />
		</g>
		<g>
			<title> (ctg476_14)</title>
			<polygon class=" (ctg476_14)" points="713,10 716,40 713,70" fill="rgb(255,255,255)" fill-opacity="1.0" stroke="rgb(0,0,0)" stroke-width="2"  />
		</g>
		<g>
			<title> (ctg476_15)</title>
			<polygon class=" (ctg476_15)" points="718,10 726,40 718,70" fill="rgb(255,255,255)" fill-opacity="1.0" stroke="rgb(0,0,0)" stroke-width="2"  />
		</g>
		<g>
			<title> (ctg476_16)</title>
			<polygon class=" (ctg476_16)" points="725,10 731,40 725,70" fill="rgb(255,255,255)" fill-opacity="1.0" stroke="rgb(0,0,0)" stroke-width="2"  />
		</g>
		<g>
			<title> (ctg476_17)</title>
			<polygon class=" (ctg476_17)" points="742,10 749,40 742,70" fill="rgb(255,255,255)" fill-opacity="1.0" stroke="rgb(0,0,0)" stroke-width="2"  />
		</g>
		<g>
			<title> (ctg476_18)</title>
			<polygon class=" (ctg476_18)" points="791,25 784,25 784,10 754,40 784,70 784,55 791,55" fill="rgb(255,255,255)" fill-opacity="1.0" stroke="rgb(0,0,0)" stroke-width="2"  />
			<g>
				<title>ADH_zinc_N (PF00107)
"Zinc-binding dehydrogenase"</title>
				<polygon class="PF00107" points="758,40 770,28 770,28 770,52 770,52" stroke-linejoin="round" width="13" height="24" fill="rgb(81,108,215)" stroke="rgb(64,86,172)" stroke-width="1" opacity="0.75" />
			</g>
			<g>
				<title>ADH_N (PF08240)
"Alcohol dehydrogenase GroES-like domain"</title>
				<rect class="PF08240" x="775" y="28" stroke-linejoin="round" width="12" height="24" fill="rgb(211,65,138)" stroke="rgb(168,51,110)" stroke-width="1" opacity="0.75" />
			</g>
		</g>
		<g>
			<title> (ctg476_19)</title>
			<polygon class=" (ctg476_19)" points="794,25 885,25 885,10 915,40 885,70 885,55 794,55" fill="rgb(255,255,255)" fill-opacity="1.0" stroke="rgb(0,0,0)" stroke-width="2"  />
			<g>
				<title>CHAT (PF12770)
"CHAT domain"</title>
				<rect class="PF12770" x="801" y="28" stroke-linejoin="round" width="35" height="24" fill="rgb(222,88,225)" stroke="rgb(177,70,180)" stroke-width="1" opacity="0.75" />
			</g>
			<g>
				<title>NB-ARC (PF00931)
"NB-ARC domain"</title>
				<rect class="PF00931" x="837" y="28" stroke-linejoin="round" width="25" height="24" fill="rgb(165,94,211)" stroke="rgb(132,75,168)" stroke-width="1" opacity="0.75" />
			</g>
			<g>
				<title>TPR_12 (PF13424)
"Tetratricopeptide repeat"</title>
				<rect class="PF13424" x="887" y="28" stroke-linejoin="round" width="7" height="24" fill="rgb(147,215,101)" stroke="rgb(117,172,80)" stroke-width="1" opacity="0.75" />
			</g>
			<g>
				<title>TPR_12 (PF13424)
"Tetratricopeptide repeat"</title>
				<polygon class="PF13424" points="895,28 899,28 902,31 902,49 899,52 895,52" stroke-linejoin="round" width="7" height="24" fill="rgb(147,215,101)" stroke="rgb(117,172,80)" stroke-width="1" opacity="0.75" />
			</g>
			<g>
				<title>TPR_12 (PF13424)
"Tetratricopeptide repeat"</title>
				<polygon class="PF13424" points="903,32 910,39 910,41 903,48" stroke-linejoin="round" width="7" height="24" fill="rgb(147,215,101)" stroke="rgb(117,172,80)" stroke-width="1" opacity="0.75" />
			</g>
		</g>
	</g>
</svg>
