<svg version="1.1" baseProfile="full" xmlns="http://www.w3.org/2000/svg" width="1025.7" height="80">
	<g>
		<line x1="10" y1="40.0" x2="1015.7" y2="40.0" style="stroke:rgb(70,70,70); stroke-width:3 "/>
		<g>
			<title> (ctg541_1)</title>
			<polygon class=" (ctg541_1)" points="18,25 23,25 23,10 53,40 23,70 23,55 18,55" fill="rgb(255,255,255)" fill-opacity="1.0" stroke="rgb(0,0,0)" stroke-width="2"  />
			<g>
				<title>Lysine_decarbox (PF03641)
"Possible lysine decarboxylase"</title>
				<polygon class="PF03641" points="29,28 36,28 42,34 42,46 36,52 29,52" stroke-linejoin="round" width="13" height="24" fill="rgb(87,108,220)" stroke="rgb(69,86,176)" stroke-width="1" opacity="0.75" />
			</g>
		</g>
		<g>
			<title> (ctg541_2)</title>
			<polygon class=" (ctg541_2)" points="53,40 61,10 61,70" fill="rgb(255,255,255)" fill-opacity="1.0" stroke="rgb(0,0,0)" stroke-width="2"  />
		</g>
		<g>
			<title> (ctg541_3)</title>
			<polygon class=" (ctg541_3)" points="75,25 78,25 78,10 108,40 78,70 78,55 75,55" fill="rgb(255,255,255)" fill-opacity="1.0" stroke="rgb(0,0,0)" stroke-width="2"  />
			<g>
				<title>Queuosine_synth (PF02547)
"Queuosine biosynthesis protein"</title>
				<polygon class="PF02547" points="75,28 92,28 104,40 92,52 75,52" stroke-linejoin="round" width="32" height="24" fill="rgb(54,211,197)" stroke="rgb(43,168,157)" stroke-width="1" opacity="0.75" />
			</g>
		</g>
		<g>
			<title> (ctg541_4)</title>
			<polygon class=" (ctg541_4)" points="114,25 140,25 140,10 170,40 140,70 140,55 114,55" fill="rgb(255,255,255)" fill-opacity="1.0" stroke="rgb(0,0,0)" stroke-width="2"  />
			<g>
				<title>TPR_16 (PF13432)
"Tetratricopeptide repeat"</title>
				<rect class="PF13432" x="128" y="28" stroke-linejoin="round" width="6" height="24" fill="rgb(154,205,86)" stroke="rgb(123,164,68)" stroke-width="1" opacity="0.75" />
			</g>
			<g>
				<title>TPR_16 (PF13432)
"Tetratricopeptide repeat"</title>
				<rect class="PF13432" x="135" y="28" stroke-linejoin="round" width="6" height="24" fill="rgb(154,205,86)" stroke="rgb(123,164,68)" stroke-width="1" opacity="0.75" />
			</g>
			<g>
				<title>Trypsin_2 (PF13365)
"Trypsin-like peptidase domain"</title>
				<polygon class="PF13365" points="151,28 154,28 165,39 165,41 154,52 151,52" stroke-linejoin="round" width="14" height="24" fill="rgb(126,86,188)" stroke="rgb(100,68,150)" stroke-width="1" opacity="0.75" />
			</g>
		</g>
		<g>
			<title> (ctg541_5)</title>
			<polygon class=" (ctg541_5)" points="173,10 178,40 173,70" fill="rgb(255,255,255)" fill-opacity="1.0" stroke="rgb(0,0,0)" stroke-width="2"  />
		</g>
		<g>
			<title> (ctg541_6)</title>
			<polygon class=" (ctg541_6)" points="181,25 187,25 187,10 217,40 187,70 187,55 181,55" fill="rgb(255,255,255)" fill-opacity="1.0" stroke="rgb(0,0,0)" stroke-width="2"  />
			<g>
				<title>GCV_T (PF01571)
"Aminomethyltransferase folate-binding domain"</title>
				<polygon class="PF01571" points="182,28 201,28 206,33 206,47 201,52 182,52" stroke-linejoin="round" width="24" height="24" fill="rgb(112,228,161)" stroke="rgb(89,182,128)" stroke-width="1" opacity="0.75" />
			</g>
			<g>
				<title>GCV_T_C (PF08669)
"Glycine cleavage T-protein C-terminal barrel domain"</title>
				<polygon class="PF08669" points="209,36 213,40 209,44" stroke-linejoin="round" width="7" height="24" fill="rgb(184,178,54)" stroke="rgb(147,142,43)" stroke-width="1" opacity="0.75" />
			</g>
		</g>
		<g>
			<title> (ctg541_7)</title>
			<polygon class=" (ctg541_7)" points="263,25 336,25 336,10 366,40 336,70 336,55 263,55" fill="rgb(255,255,255)" fill-opacity="1.0" stroke="rgb(0,0,0)" stroke-width="2"  />
			<g>
				<title>ketoacyl-synt (PF00109)
"Beta-ketoacyl synthase, N-terminal domain"</title>
				<rect class="PF00109" x="264" y="28" stroke-linejoin="round" width="28" height="24" fill="rgb(112,116,228)" stroke="rgb(89,92,182)" stroke-width="1" opacity="0.75" />
			</g>
			<g>
				<title>Ketoacyl-synt_C (PF02801)
"Beta-ketoacyl synthase, C-terminal domain"</title>
				<rect class="PF02801" x="293" y="28" stroke-linejoin="round" width="11" height="24" fill="rgb(215,78,102)" stroke="rgb(172,62,81)" stroke-width="1" opacity="0.75" />
			</g>
			<g>
				<title>Acyl_transf_1 (PF00698)
"Acyl transferase domain"</title>
				<polygon class="PF00698" points="322,28 349,28 350,29 350,51 349,52 322,52" stroke-linejoin="round" width="28" height="24" fill="rgb(59,176,209)" stroke="rgb(47,140,167)" stroke-width="1" opacity="0.75" />
			</g>
		</g>
		<g>
			<title> (ctg541_8)</title>
			<polygon class=" (ctg541_8)" points="366,25 503,25 503,10 533,40 503,70 503,55 366,55" fill="rgb(255,255,255)" fill-opacity="1.0" stroke="rgb(0,0,0)" stroke-width="2"  />
			<g>
				<title>PP-binding (PF00550)
"Phosphopantetheine attachment site"</title>
				<rect class="PF00550" x="376" y="28" stroke-linejoin="round" width="6" height="24" fill="rgb(103,191,88)" stroke="rgb(82,152,70)" stroke-width="1" opacity="0.75" />
			</g>
			<g>
				<title>PP-binding (PF00550)
"Phosphopantetheine attachment site"</title>
				<rect class="PF00550" x="386" y="28" stroke-linejoin="round" width="6" height="24" fill="rgb(103,191,88)" stroke="rgb(82,152,70)" stroke-width="1" opacity="0.75" />
			</g>
			<g>
				<title>KR (PF08659)
"KR domain"</title>
				<rect class="PF08659" x="418" y="28" stroke-linejoin="round" width="18" height="24" fill="rgb(66,209,188)" stroke="rgb(52,167,150)" stroke-width="1" opacity="0.75" />
			</g>
			<g>
				<title>PS-DH (PF14765)
"Polyketide synthase dehydratase"</title>
				<rect class="PF14765" x="444" y="28" stroke-linejoin="round" width="29" height="24" fill="rgb(173,56,182)" stroke="rgb(138,44,145)" stroke-width="1" opacity="0.75" />
			</g>
		</g>
		<g>
			<title> (ctg541_9)</title>
			<polygon class=" (ctg541_9)" points="537,10 545,40 537,70" fill="rgb(255,255,255)" fill-opacity="1.0" stroke="rgb(0,0,0)" stroke-width="2"  />
		</g>
		<g>
			<title> (ctg541_10)</title>
			<polygon class=" (ctg541_10)" points="553,25 581,25 581,10 611,40 581,70 581,55 553,55" fill="rgb(255,255,255)" fill-opacity="1.0" stroke="rgb(0,0,0)" stroke-width="2"  />
			<g>
				<title>Trp_halogenase (PF04820)
"Tryptophan halogenase"</title>
				<rect class="PF04820" x="564" y="28" stroke-linejoin="round" width="28" height="24" fill="rgb(179,74,194)" stroke="rgb(143,59,155)" stroke-width="1" opacity="0.75" />
			</g>
		</g>
		<g>
			<title> (ctg541_11)</title>
			<polygon class=" (ctg541_11)" points="615,25 644,25 644,10 674,40 644,70 644,55 615,55" fill="rgb(255,255,255)" fill-opacity="1.0" stroke="rgb(0,0,0)" stroke-width="2"  />
			<g>
				<title>Trp_halogenase (PF04820)
"Tryptophan halogenase"</title>
				<rect class="PF04820" x="625" y="28" stroke-linejoin="round" width="27" height="24" fill="rgb(179,74,194)" stroke="rgb(143,59,155)" stroke-width="1" opacity="0.75" />
			</g>
		</g>
		<g>
			<title> (ctg541_12)</title>
			<polygon class=" (ctg541_12)" points="677,25 707,25 707,10 737,40 707,70 707,55 677,55" fill="rgb(255,255,255)" fill-opacity="1.0" stroke="rgb(0,0,0)" stroke-width="2"  />
			<g>
				<title>FAD_binding_3 (PF01494)
"FAD binding domain"</title>
				<rect class="PF01494" x="678" y="28" stroke-linejoin="round" width="35" height="24" fill="rgb(182,175,59)" stroke="rgb(145,140,47)" stroke-width="1" opacity="0.75" />
			</g>
		</g>
		<g>
			<title> (ctg541_13)</title>
			<polygon class=" (ctg541_13)" points="743,10 755,40 743,70" fill="rgb(255,255,255)" fill-opacity="1.0" stroke="rgb(0,0,0)" stroke-width="2"  />
		</g>
		<g>
			<title> (ctg541_14)</title>
			<polygon class=" (ctg541_14)" points="758,25 761,25 761,10 791,40 761,70 761,55 758,55" fill="rgb(255,255,255)" fill-opacity="1.0" stroke="rgb(0,0,0)" stroke-width="2"  />
			<g>
				<title>Abhydrolase_6 (PF12697)
"Alpha/beta hydrolase family"</title>
				<polygon class="PF12697" points="763,28 775,28 787,40 775,52 763,52" stroke-linejoin="round" width="26" height="24" fill="rgb(113,71,219)" stroke="rgb(90,56,175)" stroke-width="1" opacity="0.75" />
			</g>
		</g>
		<g>
			<title> (ctg541_15)</title>
			<polygon class=" (ctg541_15)" points="791,10 820,40 791,70" fill="rgb(255,255,255)" fill-opacity="1.0" stroke="rgb(0,0,0)" stroke-width="2"  />
		</g>
		<g>
			<title> (ctg541_16)</title>
			<polygon class=" (ctg541_16)" points="822,10 848,40 822,70" fill="rgb(255,255,255)" fill-opacity="1.0" stroke="rgb(0,0,0)" stroke-width="2"  />
			<g>
				<title>adh_short (PF00106)
"short chain dehydrogenase"</title>
				<polygon class="PF00106" points="822,28 833,28 841,36 841,44 833,52 822,52" stroke-linejoin="round" width="19" height="24" fill="rgb(182,219,73)" stroke="rgb(145,175,58)" stroke-width="1" opacity="0.75" />
			</g>
		</g>
		<g>
			<title> (ctg541_17)</title>
			<polygon class=" (ctg541_17)" points="850,25 857,25 857,10 887,40 857,70 857,55 850,55" fill="rgb(255,255,255)" fill-opacity="1.0" stroke="rgb(0,0,0)" stroke-width="2"  />
			<g>
				<title>DUF5602 (PF18197)
"Domain of unknown function (DUF5602)"</title>
				<rect class="PF18197" x="858" y="28" stroke-linejoin="round" width="5" height="24" fill="rgb(189,186,61)" stroke="rgb(151,148,48)" stroke-width="1" opacity="0.75" />
			</g>
		</g>
		<g>
			<title> (ctg541_18)</title>
			<polygon class=" (ctg541_18)" points="888,25 892,25 892,10 922,40 892,70 892,55 888,55" fill="rgb(255,255,255)" fill-opacity="1.0" stroke="rgb(0,0,0)" stroke-width="2"  />
		</g>
		<g>
			<title> (ctg541_19)</title>
			<polygon class=" (ctg541_19)" points="925,10 951,40 925,70" fill="rgb(255,255,255)" fill-opacity="1.0" stroke="rgb(0,0,0)" stroke-width="2"  />
			<g>
				<title>adh_short_C2 (PF13561)
"Enoyl-(Acyl carrier protein) reductase"</title>
				<polygon class="PF13561" points="926,28 937,28 947,40 937,52 926,52" stroke-linejoin="round" width="23" height="24" fill="rgb(73,205,127)" stroke="rgb(58,164,101)" stroke-width="1" opacity="0.75" />
			</g>
		</g>
		<g>
			<title> (ctg541_20)</title>
			<polygon class=" (ctg541_20)" points="953,10 982,40 953,70" fill="rgb(255,255,255)" fill-opacity="1.0" stroke="rgb(0,0,0)" stroke-width="2"  />
			<g>
				<title>Abhydrolase_1 (PF00561)
"alpha/beta hydrolase fold"</title>
				<polygon class="PF00561" points="956,28 966,28 978,40 966,52 956,52" stroke-linejoin="round" width="24" height="24" fill="rgb(86,180,151)" stroke="rgb(68,144,120)" stroke-width="1" opacity="0.75" />
			</g>
		</g>
		<g>
			<title> (ctg541_21)</title>
			<polygon class=" (ctg541_21)" points="983,10 1012,40 983,70" fill="rgb(255,255,255)" fill-opacity="1.0" stroke="rgb(0,0,0)" stroke-width="2"  />
		</g>
	</g>
</svg>
