<svg version="1.1" baseProfile="full" xmlns="http://www.w3.org/2000/svg" width="137.93333333333334" height="80">
	<g>
		<line x1="10" y1="40.0" x2="127.93333333333334" y2="40.0" style="stroke:rgb(70,70,70); stroke-width:3 "/>
		<g>
			<title> (ctg591_1)</title>
			<polygon class=" (ctg591_1)" points="40,25 40,25 40,10 10,40 40,70 40,55 40,55" fill="rgb(255,255,255)" fill-opacity="1.0" stroke="rgb(0,0,0)" stroke-width="2"  />
			<g>
				<title>RRXRR (PF14239)
"RRXRR protein"</title>
				<polygon class="PF14239" points="21,33 26,28 39,28 39,52 26,52 21,47" stroke-linejoin="round" width="18" height="24" fill="rgb(89,228,62)" stroke="rgb(71,182,49)" stroke-width="1" opacity="0.75" />
			</g>
		</g>
		<g>
			<title> (ctg591_2)</title>
			<polygon class=" (ctg591_2)" points="88,25 77,25 77,10 47,40 77,70 77,55 88,55" fill="rgb(255,255,255)" fill-opacity="1.0" stroke="rgb(0,0,0)" stroke-width="2"  />
			<g>
				<title>Radical_SAM (PF04055)
"Radical SAM superfamily"</title>
				<rect class="PF04055" x="73" y="28" stroke-linejoin="round" width="14" height="24" fill="rgb(149,56,222)" stroke="rgb(119,44,177)" stroke-width="1" opacity="0.75" />
			</g>
		</g>
		<g>
			<title> (ctg591_3)</title>
			<polygon class=" (ctg591_3)" points="88,40 95,10 95,70" fill="rgb(255,255,255)" fill-opacity="1.0" stroke="rgb(0,0,0)" stroke-width="2"  />
		</g>
		<g>
			<title> (ctg591_4)</title>
			<polygon class=" (ctg591_4)" points="98,40 110,10 110,70" fill="rgb(255,255,255)" fill-opacity="1.0" stroke="rgb(0,0,0)" stroke-width="2"  />
			<g>
				<title>Nif11 (PF07862)
"Nif11 domain"</title>
				<polygon class="PF07862" points="105,30 106,28 109,28 109,52 106,52 105,50" stroke-linejoin="round" width="4" height="24" fill="rgb(82,202,204)" stroke="rgb(65,161,163)" stroke-width="1" opacity="0.75" />
			</g>
		</g>
		<g>
			<title> (ctg591_5)</title>
			<polygon class=" (ctg591_5)" points="118,40 125,10 125,70" fill="rgb(255,255,255)" fill-opacity="1.0" stroke="rgb(0,0,0)" stroke-width="2"  />
		</g>
	</g>
</svg>
