<svg version="1.1" baseProfile="full" xmlns="http://www.w3.org/2000/svg" width="671.2333333333333" height="80">
	<g>
		<line x1="10" y1="40.0" x2="661.2333333333333" y2="40.0" style="stroke:rgb(70,70,70); stroke-width:3 "/>
		<g>
			<title> (ctg214_18)</title>
			<polygon class=" (ctg214_18)" points="22,10 30,40 22,70" fill="rgb(255,255,255)" fill-opacity="1.0" stroke="rgb(0,0,0)" stroke-width="2"  />
			<g>
				<title>DUF4089 (PF13318)
"Protein of unknown function (DUF4089)"</title>
				<polygon class="PF13318" points="25,33 27,40 25,47" stroke-linejoin="round" width="4" height="24" fill="rgb(94,206,139)" stroke="rgb(75,164,111)" stroke-width="1" opacity="0.75" />
			</g>
		</g>
		<g>
			<title> (ctg214_19)</title>
			<polygon class=" (ctg214_19)" points="30,25 43,25 43,10 73,40 43,70 43,55 30,55" fill="rgb(255,255,255)" fill-opacity="1.0" stroke="rgb(0,0,0)" stroke-width="2"  />
			<g>
				<title>Amidase (PF01425)
"Amidase"</title>
				<polygon class="PF01425" points="32,28 57,28 69,40 57,52 32,52" stroke-linejoin="round" width="40" height="24" fill="rgb(195,142,64)" stroke="rgb(156,113,51)" stroke-width="1" opacity="0.75" />
			</g>
		</g>
		<g>
			<title> (ctg214_20)</title>
			<polygon class=" (ctg214_20)" points="76,25 84,25 84,10 114,40 84,70 84,55 76,55" fill="rgb(255,255,255)" fill-opacity="1.0" stroke="rgb(0,0,0)" stroke-width="2"  />
			<g>
				<title>Glycos_transf_1 (PF00534)
"Glycosyl transferases group 1"</title>
				<polygon class="PF00534" points="94,28 97,28 109,40 97,52 94,52" stroke-linejoin="round" width="16" height="24" fill="rgb(228,92,150)" stroke="rgb(182,73,119)" stroke-width="1" opacity="0.75" />
			</g>
		</g>
		<g>
			<title> (ctg214_21)</title>
			<polygon class=" (ctg214_21)" points="114,25 126,25 126,10 156,40 126,70 126,55 114,55" fill="rgb(255,255,255)" fill-opacity="1.0" stroke="rgb(0,0,0)" stroke-width="2"  />
			<g>
				<title>Glycos_transf_1 (PF00534)
"Glycosyl transferases group 1"</title>
				<polygon class="PF00534" points="134,28 140,28 152,40 140,52 134,52" stroke-linejoin="round" width="19" height="24" fill="rgb(228,92,150)" stroke="rgb(182,73,119)" stroke-width="1" opacity="0.75" />
			</g>
		</g>
		<g>
			<title> (ctg214_22)</title>
			<polygon class=" (ctg214_22)" points="156,10 182,40 156,70" fill="rgb(255,255,255)" fill-opacity="1.0" stroke="rgb(0,0,0)" stroke-width="2"  />
			<g>
				<title>MOSC_N (PF03476)
"MOSC N-terminal beta barrel domain"</title>
				<rect class="PF03476" x="156" y="28" stroke-linejoin="round" width="11" height="24" fill="rgb(209,103,209)" stroke="rgb(167,82,167)" stroke-width="1" opacity="0.75" />
			</g>
			<g>
				<title>MOSC (PF03473)
"MOSC domain"</title>
				<polygon class="PF03473" points="169,30 178,40 169,50" stroke-linejoin="round" width="12" height="24" fill="rgb(96,194,162)" stroke="rgb(76,155,129)" stroke-width="1" opacity="0.75" />
			</g>
		</g>
		<g>
			<title> (ctg214_23)</title>
			<polygon class=" (ctg214_23)" points="185,40 200,10 200,70" fill="rgb(255,255,255)" fill-opacity="1.0" stroke="rgb(0,0,0)" stroke-width="2"  />
		</g>
		<g>
			<title> (ctg214_24)</title>
			<polygon class=" (ctg214_24)" points="233,25 231,25 231,10 201,40 231,70 231,55 233,55" fill="rgb(255,255,255)" fill-opacity="1.0" stroke="rgb(0,0,0)" stroke-width="2"  />
		</g>
		<g>
			<title> (ctg214_25)</title>
			<polygon class=" (ctg214_25)" points="240,25 245,25 245,10 275,40 245,70 245,55 240,55" fill="rgb(255,255,255)" fill-opacity="1.0" stroke="rgb(0,0,0)" stroke-width="2"  />
			<g>
				<title>FeS_assembly_P (PF01883)
"Iron-sulfur cluster assembly protein"</title>
				<rect class="PF01883" x="240" y="28" stroke-linejoin="round" width="7" height="24" fill="rgb(171,209,57)" stroke="rgb(136,167,45)" stroke-width="1" opacity="0.75" />
			</g>
			<g>
				<title>ParA (PF10609)
"NUBPL iron-transfer P-loop NTPase"</title>
				<polygon class="PF10609" points="249,28 259,28 271,40 259,52 249,52" stroke-linejoin="round" width="24" height="24" fill="rgb(107,194,90)" stroke="rgb(85,155,72)" stroke-width="1" opacity="0.75" />
			</g>
		</g>
		<g>
			<title> (ctg214_26)</title>
			<polygon class=" (ctg214_26)" points="289,25 294,25 294,10 324,40 294,70 294,55 289,55" fill="rgb(255,255,255)" fill-opacity="1.0" stroke="rgb(0,0,0)" stroke-width="2"  />
			<g>
				<title>FTSW_RODA_SPOVE (PF01098)
"Cell cycle protein"</title>
				<polygon class="PF01098" points="301,28 308,28 320,40 308,52 301,52" stroke-linejoin="round" width="22" height="24" fill="rgb(57,114,205)" stroke="rgb(45,91,164)" stroke-width="1" opacity="0.75" />
			</g>
		</g>
		<g>
			<title> (ctg214_27)</title>
			<polygon class=" (ctg214_27)" points="336,10 341,40 336,70" fill="rgb(255,255,255)" fill-opacity="1.0" stroke="rgb(0,0,0)" stroke-width="2"  />
		</g>
		<g>
			<title> (ctg214_28)</title>
			<polygon class=" (ctg214_28)" points="343,10 348,40 343,70" fill="rgb(255,255,255)" fill-opacity="1.0" stroke="rgb(0,0,0)" stroke-width="2"  />
			<g>
				<title>Inhibitor_I10 (PF12559)
"Serine endopeptidase inhibitors"</title>
				<polygon class="PF12559" points="343,28 345,40 343,52" stroke-linejoin="round" width="4" height="24" fill="rgb(179,147,51)" stroke="rgb(143,117,40)" stroke-width="1" opacity="0.75" />
			</g>
		</g>
		<g>
			<title> (ctg214_29)</title>
			<polygon class=" (ctg214_29)" points="357,25 359,25 359,10 389,40 359,70 359,55 357,55" fill="rgb(255,255,255)" fill-opacity="1.0" stroke="rgb(0,0,0)" stroke-width="2"  />
		</g>
		<g>
			<title> (ctg214_30)</title>
			<polygon class=" (ctg214_30)" points="392,25 394,25 394,10 424,40 394,70 394,55 392,55" fill="rgb(255,255,255)" fill-opacity="1.0" stroke="rgb(0,0,0)" stroke-width="2"  />
		</g>
		<g>
			<title> (ctg214_31)</title>
			<polygon class=" (ctg214_31)" points="433,40 450,10 450,70" fill="rgb(255,255,255)" fill-opacity="1.0" stroke="rgb(0,0,0)" stroke-width="2"  />
			<g>
				<title>Acetyltransf_3 (PF13302)
"Acetyltransferase (GNAT) domain"</title>
				<polygon class="PF13302" points="436,40 443,28 448,28 448,52 443,52" stroke-linejoin="round" width="14" height="24" fill="rgb(105,146,215)" stroke="rgb(84,116,172)" stroke-width="1" opacity="0.75" />
			</g>
		</g>
		<g>
			<title> (ctg214_32)</title>
			<polygon class=" (ctg214_32)" points="526,25 488,25 488,10 458,40 488,70 488,55 526,55" fill="rgb(255,255,255)" fill-opacity="1.0" stroke="rgb(0,0,0)" stroke-width="2"  />
			<g>
				<title>ABC_tran (PF00005)
"ABC transporter"</title>
				<polygon class="PF00005" points="473,29 474,28 486,28 486,52 474,52 473,51" stroke-linejoin="round" width="13" height="24" fill="rgb(129,201,63)" stroke="rgb(103,160,50)" stroke-width="1" opacity="0.75" />
			</g>
			<g>
				<title>ABC_membrane_2 (PF06472)
"ABC transporter transmembrane region 2"</title>
				<rect class="PF06472" x="495" y="28" stroke-linejoin="round" width="25" height="24" fill="rgb(120,179,45)" stroke="rgb(96,143,36)" stroke-width="1" opacity="0.75" />
			</g>
		</g>
		<g>
			<title> (ctg214_33)</title>
			<polygon class=" (ctg214_33)" points="534,40 542,10 542,70" fill="rgb(255,255,255)" fill-opacity="1.0" stroke="rgb(0,0,0)" stroke-width="2"  />
		</g>
		<g>
			<title> (ctg214_34)</title>
			<polygon class=" (ctg214_34)" points="577,25 576,25 576,10 546,40 576,70 576,55 577,55" fill="rgb(255,255,255)" fill-opacity="1.0" stroke="rgb(0,0,0)" stroke-width="2"  />
			<g>
				<title>NAD_binding_8 (PF13450)
"NAD(P)-binding Rossmann-like domain"</title>
				<rect class="PF13450" x="569" y="28" stroke-linejoin="round" width="6" height="24" fill="rgb(91,180,227)" stroke="rgb(72,144,181)" stroke-width="1" opacity="0.75" />
			</g>
		</g>
		<g>
			<title> (ctg214_35)</title>
			<polygon class=" (ctg214_35)" points="581,10 608,40 581,70" fill="rgb(255,255,255)" fill-opacity="1.0" stroke="rgb(0,0,0)" stroke-width="2"  />
		</g>
		<g>
			<title> (ctg214_36)</title>
			<polygon class=" (ctg214_36)" points="611,25 621,25 621,10 651,40 621,70 621,55 611,55" fill="rgb(255,255,255)" fill-opacity="1.0" stroke="rgb(0,0,0)" stroke-width="2"  />
			<g>
				<title>Wzy_C (PF04932)
"O-Antigen ligase"</title>
				<polygon class="PF04932" points="629,28 635,28 643,36 643,44 635,52 629,52" stroke-linejoin="round" width="14" height="24" fill="rgb(106,219,107)" stroke="rgb(84,175,85)" stroke-width="1" opacity="0.75" />
			</g>
		</g>
		<g>
			<title> (ctg214_37)</title>
			<polygon class=" (ctg214_37)" points="657,40 660,10 660,70" fill="rgb(255,255,255)" fill-opacity="1.0" stroke="rgb(0,0,0)" stroke-width="2"  />
		</g>
	</g>
</svg>
