<svg version="1.1" baseProfile="full" xmlns="http://www.w3.org/2000/svg" width="1435.6" height="80">
	<g>
		<line x1="10" y1="40.0" x2="1425.6" y2="40.0" style="stroke:rgb(70,70,70); stroke-width:3 "/>
		<g>
			<title> (ctg49_1)</title>
			<polygon class=" (ctg49_1)" points="46,25 43,25 43,10 13,40 43,70 43,55 46,55" fill="rgb(255,255,255)" fill-opacity="1.0" stroke="rgb(0,0,0)" stroke-width="2"  />
			<g>
				<title>TPR_11 (PF13414)
"TPR repeat"</title>
				<polygon class="PF13414" points="23,34 26,31 26,49 23,46" stroke-linejoin="round" width="3" height="24" fill="rgb(55,76,182)" stroke="rgb(44,60,145)" stroke-width="1" opacity="0.75" />
			</g>
			<g>
				<title>TPR_8 (PF13181)
"Tetratricopeptide repeat"</title>
				<polygon class="PF13181" points="27,30 29,28 30,28 30,52 29,52 27,50" stroke-linejoin="round" width="3" height="24" fill="rgb(182,172,47)" stroke="rgb(145,137,37)" stroke-width="1" opacity="0.75" />
			</g>
		</g>
		<g>
			<title> (ctg49_2)</title>
			<polygon class=" (ctg49_2)" points="48,40 51,10 51,70" fill="rgb(255,255,255)" fill-opacity="1.0" stroke="rgb(0,0,0)" stroke-width="2"  />
		</g>
		<g>
			<title> (ctg49_3)</title>
			<polygon class=" (ctg49_3)" points="55,25 60,25 60,10 90,40 60,70 60,55 55,55" fill="rgb(255,255,255)" fill-opacity="1.0" stroke="rgb(0,0,0)" stroke-width="2"  />
			<g>
				<title>SBP_bac_6 (PF13343)
"Bacterial extracellular solute-binding protein"</title>
				<polygon class="PF13343" points="63,28 73,28 85,40 73,52 63,52" stroke-linejoin="round" width="24" height="24" fill="rgb(176,192,49)" stroke="rgb(140,153,39)" stroke-width="1" opacity="0.75" />
			</g>
		</g>
		<g>
			<title> (ctg49_4)</title>
			<polygon class=" (ctg49_4)" points="91,40 111,10 111,70" fill="rgb(255,255,255)" fill-opacity="1.0" stroke="rgb(0,0,0)" stroke-width="2"  />
			<g>
				<title>DUF938 (PF06080)
"Protein of unknown function (DUF938)"</title>
				<polygon class="PF06080" points="95,40 103,28 110,28 110,52 103,52" stroke-linejoin="round" width="19" height="24" fill="rgb(90,218,195)" stroke="rgb(72,174,156)" stroke-width="1" opacity="0.75" />
			</g>
		</g>
		<g>
			<title> (ctg49_5)</title>
			<polygon class=" (ctg49_5)" points="199,25 205,25 205,10 235,40 205,70 205,55 199,55" fill="rgb(255,255,255)" fill-opacity="1.0" stroke="rgb(0,0,0)" stroke-width="2"  />
			<g>
				<title>Topoisom_bac (PF01131)
"DNA topoisomerase"</title>
				<rect class="PF01131" x="199" y="28" stroke-linejoin="round" width="5" height="24" fill="rgb(136,196,98)" stroke="rgb(108,156,78)" stroke-width="1" opacity="0.75" />
			</g>
			<g>
				<title>Toprim_C_rpt (PF13368)
"Topoisomerase C-terminal repeat"</title>
				<rect class="PF13368" x="207" y="28" stroke-linejoin="round" width="5" height="24" fill="rgb(146,209,96)" stroke="rgb(116,167,76)" stroke-width="1" opacity="0.75" />
			</g>
			<g>
				<title>Toprim_C_rpt (PF13368)
"Topoisomerase C-terminal repeat"</title>
				<polygon class="PF13368" points="213,28 218,28 219,29 219,51 218,52 213,52" stroke-linejoin="round" width="6" height="24" fill="rgb(146,209,96)" stroke="rgb(116,167,76)" stroke-width="1" opacity="0.75" />
			</g>
			<g>
				<title>Toprim_C_rpt (PF13368)
"Topoisomerase C-terminal repeat"</title>
				<polygon class="PF13368" points="219,29 224,34 224,46 219,51" stroke-linejoin="round" width="5" height="24" fill="rgb(146,209,96)" stroke="rgb(116,167,76)" stroke-width="1" opacity="0.75" />
			</g>
			<g>
				<title>Toprim_C_rpt (PF13368)
"Topoisomerase C-terminal repeat"</title>
				<polygon class="PF13368" points="226,36 230,40 226,44" stroke-linejoin="round" width="5" height="24" fill="rgb(146,209,96)" stroke="rgb(116,167,76)" stroke-width="1" opacity="0.75" />
			</g>
		</g>
		<g>
			<title> (ctg49_6)</title>
			<polygon class=" (ctg49_6)" points="239,40 265,10 265,70" fill="rgb(255,255,255)" fill-opacity="1.0" stroke="rgb(0,0,0)" stroke-width="2"  />
			<g>
				<title>SWIM (PF04434)
"SWIM zinc finger"</title>
				<polygon class="PF04434" points="251,31 253,28 255,28 255,52 253,52 251,49" stroke-linejoin="round" width="4" height="24" fill="rgb(76,197,68)" stroke="rgb(60,157,54)" stroke-width="1" opacity="0.75" />
			</g>
		</g>
		<g>
			<title> (ctg49_7)</title>
			<polygon class=" (ctg49_7)" points="288,25 400,25 400,10 430,40 400,70 400,55 288,55" fill="rgb(255,255,255)" fill-opacity="1.0" stroke="rgb(0,0,0)" stroke-width="2"  />
			<g>
				<title>AMP-binding (PF00501)
"AMP-binding enzyme"</title>
				<rect class="PF00501" x="306" y="28" stroke-linejoin="round" width="44" height="24" fill="rgb(60,217,223)" stroke="rgb(48,173,178)" stroke-width="1" opacity="0.75" />
			</g>
			<g>
				<title>KR (PF08659)
"KR domain"</title>
				<rect class="PF08659" x="387" y="28" stroke-linejoin="round" width="19" height="24" fill="rgb(66,209,188)" stroke="rgb(52,167,150)" stroke-width="1" opacity="0.75" />
			</g>
			<g>
				<title>PP-binding (PF00550)
"Phosphopantetheine attachment site"</title>
				<polygon class="PF00550" points="420,35 425,40 420,45" stroke-linejoin="round" width="6" height="24" fill="rgb(103,191,88)" stroke="rgb(82,152,70)" stroke-width="1" opacity="0.75" />
			</g>
		</g>
		<g>
			<title> (ctg49_8)</title>
			<polygon class=" (ctg49_8)" points="438,25 470,25 470,10 500,40 470,70 470,55 438,55" fill="rgb(255,255,255)" fill-opacity="1.0" stroke="rgb(0,0,0)" stroke-width="2"  />
			<g>
				<title>TubC_N (PF18563)
"TubC N-terminal docking domain"</title>
				<rect class="PF18563" x="438" y="28" stroke-linejoin="round" width="5" height="24" fill="rgb(95,217,77)" stroke="rgb(75,173,61)" stroke-width="1" opacity="0.75" />
			</g>
			<g>
				<title>FAD_binding_3 (PF01494)
"FAD binding domain"</title>
				<rect class="PF01494" x="444" y="28" stroke-linejoin="round" width="24" height="24" fill="rgb(182,175,59)" stroke="rgb(145,140,47)" stroke-width="1" opacity="0.75" />
			</g>
		</g>
		<g>
			<title> (ctg49_9)</title>
			<polygon class=" (ctg49_9)" points="505,25 634,25 634,10 664,40 634,70 634,55 505,55" fill="rgb(255,255,255)" fill-opacity="1.0" stroke="rgb(0,0,0)" stroke-width="2"  />
			<g>
				<title>TubC_N (PF18563)
"TubC N-terminal docking domain"</title>
				<rect class="PF18563" x="505" y="28" stroke-linejoin="round" width="5" height="24" fill="rgb(95,217,77)" stroke="rgb(75,173,61)" stroke-width="1" opacity="0.75" />
			</g>
			<g>
				<title>Condensation (PF00668)
"Condensation domain"</title>
				<rect class="PF00668" x="512" y="28" stroke-linejoin="round" width="44" height="24" fill="rgb(224,184,98)" stroke="rgb(179,147,78)" stroke-width="1" opacity="0.75" />
			</g>
			<g>
				<title>AMP-binding (PF00501)
"AMP-binding enzyme"</title>
				<rect class="PF00501" x="558" y="28" stroke-linejoin="round" width="39" height="24" fill="rgb(60,217,223)" stroke="rgb(48,173,178)" stroke-width="1" opacity="0.75" />
			</g>
			<g>
				<title>AMP-binding_C (PF13193)
"AMP-binding enzyme C-terminal domain"</title>
				<rect class="PF13193" x="599" y="28" stroke-linejoin="round" width="7" height="24" fill="rgb(182,50,118)" stroke="rgb(145,39,94)" stroke-width="1" opacity="0.75" />
			</g>
			<g>
				<title>PP-binding (PF00550)
"Phosphopantetheine attachment site"</title>
				<rect class="PF00550" x="609" y="28" stroke-linejoin="round" width="6" height="24" fill="rgb(103,191,88)" stroke="rgb(82,152,70)" stroke-width="1" opacity="0.75" />
			</g>
			<g>
				<title>Condensation (PF00668)
"Condensation domain"</title>
				<polygon class="PF00668" points="617,28 647,28 659,40 647,52 617,52" stroke-linejoin="round" width="45" height="24" fill="rgb(224,184,98)" stroke="rgb(179,147,78)" stroke-width="1" opacity="0.75" />
			</g>
		</g>
		<g>
			<title> (ctg49_10)</title>
			<polygon class=" (ctg49_10)" points="665,25 669,25 669,10 699,40 669,70 669,55 665,55" fill="rgb(255,255,255)" fill-opacity="1.0" stroke="rgb(0,0,0)" stroke-width="2"  />
			<g>
				<title>FMN_dh (PF01070)
"FMN-dependent dehydrogenase"</title>
				<rect class="PF01070" x="665" y="28" stroke-linejoin="round" width="10" height="24" fill="rgb(59,82,204)" stroke="rgb(47,65,163)" stroke-width="1" opacity="0.75" />
			</g>
			<g>
				<title>FMN_dh (PF01070)
"FMN-dependent dehydrogenase"</title>
				<polygon class="PF01070" points="680,28 683,28 695,40 683,52 680,52" stroke-linejoin="round" width="19" height="24" fill="rgb(59,82,204)" stroke="rgb(47,65,163)" stroke-width="1" opacity="0.75" />
			</g>
		</g>
		<g>
			<title> (ctg49_11)</title>
			<polygon class=" (ctg49_11)" points="700,10 721,40 700,70" fill="rgb(255,255,255)" fill-opacity="1.0" stroke="rgb(0,0,0)" stroke-width="2"  />
		</g>
		<g>
			<title> (ctg49_12)</title>
			<polygon class=" (ctg49_12)" points="727,10 747,40 727,70" fill="rgb(255,255,255)" fill-opacity="1.0" stroke="rgb(0,0,0)" stroke-width="2"  />
			<g>
				<title>Cupin_2 (PF07883)
"Cupin domain"</title>
				<rect class="PF07883" x="730" y="28" stroke-linejoin="round" width="6" height="24" fill="rgb(211,192,74)" stroke="rgb(168,153,59)" stroke-width="1" opacity="0.75" />
			</g>
			<g>
				<title>Cupin_2 (PF07883)
"Cupin domain"</title>
				<polygon class="PF07883" points="740,34 744,40 740,46" stroke-linejoin="round" width="6" height="24" fill="rgb(211,192,74)" stroke="rgb(168,153,59)" stroke-width="1" opacity="0.75" />
			</g>
		</g>
		<g>
			<title> (ctg49_13)</title>
			<polygon class=" (ctg49_13)" points="750,10 776,40 750,70" fill="rgb(255,255,255)" fill-opacity="1.0" stroke="rgb(0,0,0)" stroke-width="2"  />
			<g>
				<title>adh_short_C2 (PF13561)
"Enoyl-(Acyl carrier protein) reductase"</title>
				<polygon class="PF13561" points="751,28 761,28 772,40 761,52 751,52" stroke-linejoin="round" width="24" height="24" fill="rgb(73,205,127)" stroke="rgb(58,164,101)" stroke-width="1" opacity="0.75" />
			</g>
		</g>
		<g>
			<title> (ctg49_14)</title>
			<polygon class=" (ctg49_14)" points="778,25 779,25 779,10 809,40 779,70 779,55 778,55" fill="rgb(255,255,255)" fill-opacity="1.0" stroke="rgb(0,0,0)" stroke-width="2"  />
			<g>
				<title>NKWYS (PF10364)
"Putative capsular polysaccharide synthesis protein"</title>
				<polygon class="PF10364" points="794,29 805,40 794,51" stroke-linejoin="round" width="13" height="24" fill="rgb(162,59,200)" stroke="rgb(129,47,160)" stroke-width="1" opacity="0.75" />
			</g>
		</g>
		<g>
			<title> (ctg49_15)</title>
			<polygon class=" (ctg49_15)" points="812,25 891,25 891,10 921,40 891,70 891,55 812,55" fill="rgb(255,255,255)" fill-opacity="1.0" stroke="rgb(0,0,0)" stroke-width="2"  />
			<g>
				<title>Condensation (PF00668)
"Condensation domain"</title>
				<rect class="PF00668" x="813" y="28" stroke-linejoin="round" width="44" height="24" fill="rgb(224,184,98)" stroke="rgb(179,147,78)" stroke-width="1" opacity="0.75" />
			</g>
			<g>
				<title>AMP-binding (PF00501)
"AMP-binding enzyme"</title>
				<rect class="PF00501" x="860" y="28" stroke-linejoin="round" width="40" height="24" fill="rgb(60,217,223)" stroke="rgb(48,173,178)" stroke-width="1" opacity="0.75" />
			</g>
			<g>
				<title>AMP-binding_C (PF13193)
"AMP-binding enzyme C-terminal domain"</title>
				<polygon class="PF13193" points="900,28 905,28 907,30 907,50 905,52 900,52" stroke-linejoin="round" width="7" height="24" fill="rgb(182,50,118)" stroke="rgb(145,39,94)" stroke-width="1" opacity="0.75" />
			</g>
			<g>
				<title>PP-binding (PF00550)
"Phosphopantetheine attachment site"</title>
				<polygon class="PF00550" points="911,34 917,40 917,40 911,46" stroke-linejoin="round" width="6" height="24" fill="rgb(103,191,88)" stroke="rgb(82,152,70)" stroke-width="1" opacity="0.75" />
			</g>
		</g>
		<g>
			<title> (ctg49_16)</title>
			<polygon class=" (ctg49_16)" points="923,10 948,40 923,70" fill="rgb(255,255,255)" fill-opacity="1.0" stroke="rgb(0,0,0)" stroke-width="2"  />
			<g>
				<title>adh_short_C2 (PF13561)
"Enoyl-(Acyl carrier protein) reductase"</title>
				<polygon class="PF13561" points="924,28 935,28 944,40 935,52 924,52" stroke-linejoin="round" width="23" height="24" fill="rgb(73,205,127)" stroke="rgb(58,164,101)" stroke-width="1" opacity="0.75" />
			</g>
		</g>
		<g>
			<title> (ctg49_17)</title>
			<polygon class=" (ctg49_17)" points="952,25 1070,25 1070,10 1100,40 1070,70 1070,55 952,55" fill="rgb(255,255,255)" fill-opacity="1.0" stroke="rgb(0,0,0)" stroke-width="2"  />
			<g>
				<title>Condensation (PF00668)
"Condensation domain"</title>
				<rect class="PF00668" x="955" y="28" stroke-linejoin="round" width="44" height="24" fill="rgb(224,184,98)" stroke="rgb(179,147,78)" stroke-width="1" opacity="0.75" />
			</g>
			<g>
				<title>AMP-binding (PF00501)
"AMP-binding enzyme"</title>
				<rect class="PF00501" x="1002" y="28" stroke-linejoin="round" width="41" height="24" fill="rgb(60,217,223)" stroke="rgb(48,173,178)" stroke-width="1" opacity="0.75" />
			</g>
			<g>
				<title>AMP-binding_C (PF13193)
"AMP-binding enzyme C-terminal domain"</title>
				<rect class="PF13193" x="1044" y="28" stroke-linejoin="round" width="7" height="24" fill="rgb(182,50,118)" stroke="rgb(145,39,94)" stroke-width="1" opacity="0.75" />
			</g>
			<g>
				<title>PP-binding (PF00550)
"Phosphopantetheine attachment site"</title>
				<rect class="PF00550" x="1054" y="28" stroke-linejoin="round" width="6" height="24" fill="rgb(103,191,88)" stroke="rgb(82,152,70)" stroke-width="1" opacity="0.75" />
			</g>
			<g>
				<title>NAD_binding_4 (PF07993)
"Male sterility protein"</title>
				<polygon class="PF07993" points="1064,28 1084,28 1087,31 1087,49 1084,52 1064,52" stroke-linejoin="round" width="23" height="24" fill="rgb(100,212,204)" stroke="rgb(80,169,163)" stroke-width="1" opacity="0.75" />
			</g>
		</g>
		<g>
			<title> (ctg49_18)</title>
			<polygon class=" (ctg49_18)" points="1104,10 1124,40 1104,70" fill="rgb(255,255,255)" fill-opacity="1.0" stroke="rgb(0,0,0)" stroke-width="2"  />
			<g>
				<title>Hexapep_2 (PF14602)
"Hexapeptide repeat of succinyl-transferase"</title>
				<polygon class="PF14602" points="1118,37 1120,40 1118,43" stroke-linejoin="round" width="3" height="24" fill="rgb(79,205,115)" stroke="rgb(63,164,92)" stroke-width="1" opacity="0.75" />
			</g>
		</g>
		<g>
			<title> (ctg49_19)</title>
			<polygon class=" (ctg49_19)" points="1131,25 1167,25 1167,10 1197,40 1167,70 1167,55 1131,55" fill="rgb(255,255,255)" fill-opacity="1.0" stroke="rgb(0,0,0)" stroke-width="2"  />
			<g>
				<title>ABC_membrane_2 (PF06472)
"ABC transporter transmembrane region 2"</title>
				<rect class="PF06472" x="1135" y="28" stroke-linejoin="round" width="25" height="24" fill="rgb(120,179,45)" stroke="rgb(96,143,36)" stroke-width="1" opacity="0.75" />
			</g>
			<g>
				<title>ABC_tran (PF00005)
"ABC transporter"</title>
				<polygon class="PF00005" points="1170,28 1181,28 1183,30 1183,50 1181,52 1170,52" stroke-linejoin="round" width="13" height="24" fill="rgb(129,201,63)" stroke="rgb(103,160,50)" stroke-width="1" opacity="0.75" />
			</g>
		</g>
		<g>
			<title> (ctg49_20)</title>
			<polygon class=" (ctg49_20)" points="1201,40 1216,10 1216,70" fill="rgb(255,255,255)" fill-opacity="1.0" stroke="rgb(0,0,0)" stroke-width="2"  />
		</g>
		<g>
			<title> (ctg49_21)</title>
			<polygon class=" (ctg49_21)" points="1218,10 1241,40 1218,70" fill="rgb(255,255,255)" fill-opacity="1.0" stroke="rgb(0,0,0)" stroke-width="2"  />
		</g>
		<g>
			<title> (ctg49_22)</title>
			<polygon class=" (ctg49_22)" points="1261,25 1268,25 1268,10 1298,40 1268,70 1268,55 1261,55" fill="rgb(255,255,255)" fill-opacity="1.0" stroke="rgb(0,0,0)" stroke-width="2"  />
			<g>
				<title>NADHdh (PF00146)
"NADH dehydrogenase"</title>
				<polygon class="PF00146" points="1264,28 1282,28 1294,40 1282,52 1264,52" stroke-linejoin="round" width="32" height="24" fill="rgb(184,56,88)" stroke="rgb(147,44,70)" stroke-width="1" opacity="0.75" />
			</g>
		</g>
		<g>
			<title> (ctg49_23)</title>
			<polygon class=" (ctg49_23)" points="1300,10 1319,40 1300,70" fill="rgb(255,255,255)" fill-opacity="1.0" stroke="rgb(0,0,0)" stroke-width="2"  />
			<g>
				<title>Fer4_7 (PF12838)
"4Fe-4S dicluster domain"</title>
				<polygon class="PF12838" points="1306,28 1307,28 1311,33 1311,47 1307,52 1306,52" stroke-linejoin="round" width="5" height="24" fill="rgb(138,229,96)" stroke="rgb(110,183,76)" stroke-width="1" opacity="0.75" />
			</g>
		</g>
		<g>
			<title> (ctg49_24)</title>
			<polygon class=" (ctg49_24)" points="1322,10 1341,40 1322,70" fill="rgb(255,255,255)" fill-opacity="1.0" stroke="rgb(0,0,0)" stroke-width="2"  />
			<g>
				<title>Oxidored_q3 (PF00499)
"NADH-ubiquinone/plastoquinone oxidoreductase chain 6"</title>
				<polygon class="PF00499" points="1324,28 1330,28 1338,40 1338,40 1330,52 1324,52" stroke-linejoin="round" width="14" height="24" fill="rgb(189,145,91)" stroke="rgb(151,116,72)" stroke-width="1" opacity="0.75" />
			</g>
		</g>
		<g>
			<title> (ctg49_25)</title>
			<polygon class=" (ctg49_25)" points="1342,10 1352,40 1342,70" fill="rgb(255,255,255)" fill-opacity="1.0" stroke="rgb(0,0,0)" stroke-width="2"  />
			<g>
				<title>Oxidored_q2 (PF00420)
"NADH-ubiquinone/plastoquinone oxidoreductase chain 4L"</title>
				<polygon class="PF00420" points="1342,28 1344,28 1349,40 1344,52 1342,52" stroke-linejoin="round" width="9" height="24" fill="rgb(73,55,194)" stroke="rgb(58,44,155)" stroke-width="1" opacity="0.75" />
			</g>
		</g>
		<g>
			<title> (ctg49_26)</title>
			<polygon class=" (ctg49_26)" points="1400,25 1390,25 1390,10 1360,40 1390,70 1390,55 1400,55" fill="rgb(255,255,255)" fill-opacity="1.0" stroke="rgb(0,0,0)" stroke-width="2"  />
			<g>
				<title>LptC (PF06835)
"Lipopolysaccharide-assembly, LptC-related"</title>
				<rect class="PF06835" x="1382" y="28" stroke-linejoin="round" width="13" height="24" fill="rgb(193,93,52)" stroke="rgb(154,74,41)" stroke-width="1" opacity="0.75" />
			</g>
		</g>
		<g>
			<title> (ctg49_27)</title>
			<polygon class=" (ctg49_27)" points="1408,40 1417,10 1417,70" fill="rgb(255,255,255)" fill-opacity="1.0" stroke="rgb(0,0,0)" stroke-width="2"  />
			<g>
				<title>DUF1524 (PF07510)
"Protein of unknown function (DUF1524)"</title>
				<polygon class="PF07510" points="1411,40 1415,28 1416,28 1416,52 1415,52" stroke-linejoin="round" width="8" height="24" fill="rgb(220,94,137)" stroke="rgb(176,75,109)" stroke-width="1" opacity="0.75" />
			</g>
		</g>
	</g>
</svg>
