<svg version="1.1" baseProfile="full" xmlns="http://www.w3.org/2000/svg" width="270.0333333333333" height="80">
	<g>
		<line x1="10" y1="40.0" x2="260.0333333333333" y2="40.0" style="stroke:rgb(70,70,70); stroke-width:3 "/>
		<g>
			<title> (ctg355_1)</title>
			<polygon class=" (ctg355_1)" points="33,10 40,40 33,70" fill="rgb(255,255,255)" fill-opacity="1.0" stroke="rgb(0,0,0)" stroke-width="2"  />
		</g>
		<g>
			<title> (ctg355_2)</title>
			<polygon class=" (ctg355_2)" points="50,10 77,40 50,70" fill="rgb(255,255,255)" fill-opacity="1.0" stroke="rgb(0,0,0)" stroke-width="2"  />
			<g>
				<title>SQS_PSY (PF00494)
"Squalene/phytoene synthase"</title>
				<polygon class="PF00494" points="51,28 61,28 70,37 70,43 61,52 51,52" stroke-linejoin="round" width="19" height="24" fill="rgb(178,91,49)" stroke="rgb(142,72,39)" stroke-width="1" opacity="0.75" />
			</g>
		</g>
		<g>
			<title> (ctg355_3)</title>
			<polygon class=" (ctg355_3)" points="87,40 103,10 103,70" fill="rgb(255,255,255)" fill-opacity="1.0" stroke="rgb(0,0,0)" stroke-width="2"  />
			<g>
				<title>Cytochrom_B_C (PF00032)
"Cytochrome b(C-terminal)/b6/petD"</title>
				<polygon class="PF00032" points="90,40 96,28 96,28 96,52 96,52" stroke-linejoin="round" width="9" height="24" fill="rgb(183,105,214)" stroke="rgb(146,84,171)" stroke-width="1" opacity="0.75" />
			</g>
		</g>
		<g>
			<title> (ctg355_4)</title>
			<polygon class=" (ctg355_4)" points="105,40 127,10 127,70" fill="rgb(255,255,255)" fill-opacity="1.0" stroke="rgb(0,0,0)" stroke-width="2"  />
			<g>
				<title>Cytochrome_B (PF00033)
"Cytochrome b/b6/petB"</title>
				<polygon class="PF00033" points="109,40 118,28 123,28 123,52 118,52" stroke-linejoin="round" width="18" height="24" fill="rgb(209,58,124)" stroke="rgb(167,46,99)" stroke-width="1" opacity="0.75" />
			</g>
		</g>
		<g>
			<title> (ctg355_5)</title>
			<polygon class=" (ctg355_5)" points="135,25 152,25 152,10 182,40 152,70 152,55 135,55" fill="rgb(255,255,255)" fill-opacity="1.0" stroke="rgb(0,0,0)" stroke-width="2"  />
			<g>
				<title>CP_ATPgrasp_2 (PF14403)
"Circularly permuted ATP-grasp type 2"</title>
				<polygon class="PF14403" points="142,28 166,28 178,40 166,52 142,52" stroke-linejoin="round" width="37" height="24" fill="rgb(80,222,92)" stroke="rgb(64,177,73)" stroke-width="1" opacity="0.75" />
			</g>
		</g>
		<g>
			<title> (ctg355_6)</title>
			<polygon class=" (ctg355_6)" points="187,25 190,25 190,10 220,40 190,70 190,55 187,55" fill="rgb(255,255,255)" fill-opacity="1.0" stroke="rgb(0,0,0)" stroke-width="2"  />
			<g>
				<title>Alpha-E (PF04168)
"A predicted alpha-helical domain with a conserved ER motif."</title>
				<polygon class="PF04168" points="187,28 204,28 216,40 204,52 187,52" stroke-linejoin="round" width="30" height="24" fill="rgb(190,83,80)" stroke="rgb(152,66,64)" stroke-width="1" opacity="0.75" />
			</g>
		</g>
		<g>
			<title> (ctg355_7)</title>
			<polygon class=" (ctg355_7)" points="220,10 248,40 220,70" fill="rgb(255,255,255)" fill-opacity="1.0" stroke="rgb(0,0,0)" stroke-width="2"  />
			<g>
				<title>Bact_transglu_N (PF08379)
"Bacterial transglutaminase-like N-terminal region"</title>
				<rect class="PF08379" x="220" y="28" stroke-linejoin="round" width="7" height="24" fill="rgb(224,108,64)" stroke="rgb(179,86,51)" stroke-width="1" opacity="0.75" />
			</g>
			<g>
				<title>Transglut_core (PF01841)
"Transglutaminase-like superfamily"</title>
				<polygon class="PF01841" points="232,28 232,28 242,38 242,42 232,52 232,52" stroke-linejoin="round" width="10" height="24" fill="rgb(208,223,79)" stroke="rgb(166,178,63)" stroke-width="1" opacity="0.75" />
			</g>
		</g>
		<g>
			<title> (ctg355_8)</title>
			<polygon class=" (ctg355_8)" points="257,10 259,40 257,70" fill="rgb(255,255,255)" fill-opacity="1.0" stroke="rgb(0,0,0)" stroke-width="2"  />
		</g>
	</g>
</svg>
