<svg version="1.1" baseProfile="full" xmlns="http://www.w3.org/2000/svg" width="214.13333333333333" height="80">
	<g>
		<line x1="10" y1="40.0" x2="204.13333333333333" y2="40.0" style="stroke:rgb(70,70,70); stroke-width:3 "/>
		<g>
			<title> (ctg454_1)</title>
			<polygon class=" (ctg454_1)" points="10,10 15,40 10,70" fill="rgb(255,255,255)" fill-opacity="1.0" stroke="rgb(0,0,0)" stroke-width="2"  />
		</g>
		<g>
			<title> (ctg454_2)</title>
			<polygon class=" (ctg454_2)" points="21,10 31,40 21,70" fill="rgb(255,255,255)" fill-opacity="1.0" stroke="rgb(0,0,0)" stroke-width="2"  />
			<g>
				<title>Nif11 (PF07862)
"Nif11 domain"</title>
				<polygon class="PF07862" points="21,28 23,28 26,35 26,45 23,52 21,52" stroke-linejoin="round" width="5" height="24" fill="rgb(82,202,204)" stroke="rgb(65,161,163)" stroke-width="1" opacity="0.75" />
			</g>
		</g>
		<g>
			<title> (ctg454_3)</title>
			<polygon class=" (ctg454_3)" points="37,10 66,40 37,70" fill="rgb(255,255,255)" fill-opacity="1.0" stroke="rgb(0,0,0)" stroke-width="2"  />
			<g>
				<title>Acetyltransf_1 (PF00583)
"Acetyltransferase (GNAT) family"</title>
				<rect class="PF00583" x="37" y="28" stroke-linejoin="round" width="11" height="24" fill="rgb(121,183,50)" stroke="rgb(96,146,39)" stroke-width="1" opacity="0.75" />
			</g>
		</g>
		<g>
			<title> (ctg454_4)</title>
			<polygon class=" (ctg454_4)" points="68,25 149,25 149,10 179,40 149,70 149,55 68,55" fill="rgb(255,255,255)" fill-opacity="1.0" stroke="rgb(0,0,0)" stroke-width="2"  />
			<g>
				<title>DUF4135 (PF13575)
"Domain of unknown function (DUF4135)"</title>
				<rect class="PF13575" x="91" y="28" stroke-linejoin="round" width="39" height="24" fill="rgb(228,84,217)" stroke="rgb(182,67,173)" stroke-width="1" opacity="0.75" />
			</g>
			<g>
				<title>LANC_like (PF05147)
"Lanthionine synthetase C-like protein"</title>
				<polygon class="PF05147" points="143,28 163,28 175,40 163,52 143,52" stroke-linejoin="round" width="35" height="24" fill="rgb(129,182,79)" stroke="rgb(103,145,63)" stroke-width="1" opacity="0.75" />
			</g>
		</g>
	</g>
</svg>
