<svg version="1.1" baseProfile="full" xmlns="http://www.w3.org/2000/svg" width="382.1" height="80">
	<g>
		<line x1="10" y1="40.0" x2="372.1" y2="40.0" style="stroke:rgb(70,70,70); stroke-width:3 "/>
		<g>
			<title> (ctg301_1)</title>
			<polygon class=" (ctg301_1)" points="10,10 16,40 10,70" fill="rgb(255,255,255)" fill-opacity="1.0" stroke="rgb(0,0,0)" stroke-width="2"  />
		</g>
		<g>
			<title> (ctg301_2)</title>
			<polygon class=" (ctg301_2)" points="16,10 23,40 16,70" fill="rgb(255,255,255)" fill-opacity="1.0" stroke="rgb(0,0,0)" stroke-width="2"  />
		</g>
		<g>
			<title> (ctg301_3)</title>
			<polygon class=" (ctg301_3)" points="24,40 50,10 50,70" fill="rgb(255,255,255)" fill-opacity="1.0" stroke="rgb(0,0,0)" stroke-width="2"  />
			<g>
				<title>Uma2 (PF05685)
"Putative restriction endonuclease"</title>
				<polygon class="PF05685" points="29,39 39,28 46,28 46,52 39,52 29,41" stroke-linejoin="round" width="17" height="24" fill="rgb(123,107,219)" stroke="rgb(98,85,175)" stroke-width="1" opacity="0.75" />
			</g>
		</g>
		<g>
			<title> (ctg301_4)</title>
			<polygon class=" (ctg301_4)" points="53,25 85,25 85,10 115,40 85,70 85,55 53,55" fill="rgb(255,255,255)" fill-opacity="1.0" stroke="rgb(0,0,0)" stroke-width="2"  />
			<g>
				<title>Peptidase_S8 (PF00082)
"Subtilase family"</title>
				<rect class="PF00082" x="55" y="28" stroke-linejoin="round" width="32" height="24" fill="rgb(193,159,94)" stroke="rgb(154,127,75)" stroke-width="1" opacity="0.75" />
			</g>
			<g>
				<title>PatG_D (PF18047)
"PatG Domain"</title>
				<polygon class="PF18047" points="95,28 99,28 106,35 106,45 99,52 95,52" stroke-linejoin="round" width="11" height="24" fill="rgb(91,195,69)" stroke="rgb(72,156,55)" stroke-width="1" opacity="0.75" />
			</g>
		</g>
		<g>
			<title> (ctg301_5)</title>
			<polygon class=" (ctg301_5)" points="116,10 122,40 116,70" fill="rgb(255,255,255)" fill-opacity="1.0" stroke="rgb(0,0,0)" stroke-width="2"  />
			<g>
				<title>PatG_C (PF18065)
"PatG C-terminal"</title>
				<polygon class="PF18065" points="116,28 116,28 119,40 116,52 116,52" stroke-linejoin="round" width="6" height="24" fill="rgb(93,82,184)" stroke="rgb(74,65,147)" stroke-width="1" opacity="0.75" />
			</g>
		</g>
		<g>
			<title> (ctg301_6)</title>
			<polygon class=" (ctg301_6)" points="128,25 132,25 132,10 162,40 132,70 132,55 128,55" fill="rgb(255,255,255)" fill-opacity="1.0" stroke="rgb(0,0,0)" stroke-width="2"  />
			<g>
				<title>Aldo_ket_red (PF00248)
"Aldo/keto reductase family"</title>
				<polygon class="PF00248" points="129,28 145,28 157,40 145,52 129,52" stroke-linejoin="round" width="29" height="24" fill="rgb(225,205,58)" stroke="rgb(180,164,46)" stroke-width="1" opacity="0.75" />
			</g>
		</g>
		<g>
			<title> (ctg301_7)</title>
			<polygon class=" (ctg301_7)" points="162,10 175,40 162,70" fill="rgb(255,255,255)" fill-opacity="1.0" stroke="rgb(0,0,0)" stroke-width="2"  />
			<g>
				<title>GGACT (PF06094)
"Gamma-glutamyl cyclotransferase, AIG2-like"</title>
				<polygon class="PF06094" points="162,28 166,28 172,40 166,52 162,52" stroke-linejoin="round" width="12" height="24" fill="rgb(227,229,113)" stroke="rgb(181,183,90)" stroke-width="1" opacity="0.75" />
			</g>
		</g>
		<g>
			<title> (ctg301_8)</title>
			<polygon class=" (ctg301_8)" points="177,10 183,40 177,70" fill="rgb(255,255,255)" fill-opacity="1.0" stroke="rgb(0,0,0)" stroke-width="2"  />
		</g>
		<g>
			<title> (ctg301_9)</title>
			<polygon class=" (ctg301_9)" points="188,40 196,10 196,70" fill="rgb(255,255,255)" fill-opacity="1.0" stroke="rgb(0,0,0)" stroke-width="2"  />
			<g>
				<title>HTH_3 (PF01381)
"Helix-turn-helix"</title>
				<polygon class="PF01381" points="191,40 194,28 194,28 194,52 194,52" stroke-linejoin="round" width="5" height="24" fill="rgb(105,79,202)" stroke="rgb(83,63,161)" stroke-width="1" opacity="0.75" />
			</g>
		</g>
		<g>
			<title> (ctg301_10)</title>
			<polygon class=" (ctg301_10)" points="202,25 217,25 217,10 247,40 217,70 217,55 202,55" fill="rgb(255,255,255)" fill-opacity="1.0" stroke="rgb(0,0,0)" stroke-width="2"  />
			<g>
				<title>MMR_HSR1 (PF01926)
"50S ribosome-binding GTPase"</title>
				<rect class="PF01926" x="202" y="28" stroke-linejoin="round" width="11" height="24" fill="rgb(105,180,226)" stroke="rgb(83,143,180)" stroke-width="1" opacity="0.75" />
			</g>
			<g>
				<title>MMR_HSR1 (PF01926)
"50S ribosome-binding GTPase"</title>
				<rect class="PF01926" x="219" y="28" stroke-linejoin="round" width="11" height="24" fill="rgb(105,180,226)" stroke="rgb(83,143,180)" stroke-width="1" opacity="0.75" />
			</g>
			<g>
				<title>KH_dom-like (PF14714)
"KH-domain-like of EngA bacterial GTPase enzymes, C-terminal"</title>
				<polygon class="PF14714" points="237,34 243,40 237,46" stroke-linejoin="round" width="8" height="24" fill="rgb(178,119,50)" stroke="rgb(142,95,40)" stroke-width="1" opacity="0.75" />
			</g>
		</g>
		<g>
			<title> (ctg301_11)</title>
			<polygon class=" (ctg301_11)" points="247,10 276,40 247,70" fill="rgb(255,255,255)" fill-opacity="1.0" stroke="rgb(0,0,0)" stroke-width="2"  />
			<g>
				<title>CbiQ (PF02361)
"Cobalt transport protein"</title>
				<polygon class="PF02361" points="248,28 260,28 272,40 272,40 260,52 248,52" stroke-linejoin="round" width="24" height="24" fill="rgb(217,92,216)" stroke="rgb(173,73,172)" stroke-width="1" opacity="0.75" />
			</g>
		</g>
		<g>
			<title> (ctg301_12)</title>
			<polygon class=" (ctg301_12)" points="296,25 332,25 332,10 362,40 332,70 332,55 296,55" fill="rgb(255,255,255)" fill-opacity="1.0" stroke="rgb(0,0,0)" stroke-width="2"  />
			<g>
				<title>Big_12 (PF19078)
"Bacterial Ig-like domain"</title>
				<rect class="PF19078" x="311" y="28" stroke-linejoin="round" width="10" height="24" fill="rgb(81,214,205)" stroke="rgb(64,171,164)" stroke-width="1" opacity="0.75" />
			</g>
			<g>
				<title>Big_12 (PF19078)
"Bacterial Ig-like domain"</title>
				<rect class="PF19078" x="321" y="28" stroke-linejoin="round" width="10" height="24" fill="rgb(81,214,205)" stroke="rgb(64,171,164)" stroke-width="1" opacity="0.75" />
			</g>
			<g>
				<title>Big_12 (PF19078)
"Bacterial Ig-like domain"</title>
				<rect class="PF19078" x="331" y="28" stroke-linejoin="round" width="9" height="24" fill="rgb(81,214,205)" stroke="rgb(64,171,164)" stroke-width="1" opacity="0.75" />
			</g>
			<g>
				<title>HemolysinCabind (PF00353)
"RTX calcium-binding nonapeptide repeat (4 copies)"</title>
				<rect class="PF00353" x="342" y="28" stroke-linejoin="round" width="3" height="24" fill="rgb(73,143,181)" stroke="rgb(58,114,144)" stroke-width="1" opacity="0.75" />
			</g>
			<g>
				<title>HemolysinCabind (PF00353)
"RTX calcium-binding nonapeptide repeat (4 copies)"</title>
				<polygon class="PF00353" points="346,28 346,28 349,31 349,49 346,52 346,52" stroke-linejoin="round" width="3" height="24" fill="rgb(73,143,181)" stroke="rgb(58,114,144)" stroke-width="1" opacity="0.75" />
			</g>
			<g>
				<title>HemolysinCabind (PF00353)
"RTX calcium-binding nonapeptide repeat (4 copies)"</title>
				<polygon class="PF00353" points="350,32 352,34 352,46 350,48" stroke-linejoin="round" width="2" height="24" fill="rgb(73,143,181)" stroke="rgb(58,114,144)" stroke-width="1" opacity="0.75" />
			</g>
		</g>
	</g>
</svg>
