<svg version="1.1" baseProfile="full" xmlns="http://www.w3.org/2000/svg" width="955.9" height="80">
	<g>
		<line x1="10" y1="40.0" x2="945.9" y2="40.0" style="stroke:rgb(70,70,70); stroke-width:3 "/>
		<g>
			<title> (ctg130_31)</title>
			<polygon class=" (ctg130_31)" points="44,10 59,40 44,70" fill="rgb(255,255,255)" fill-opacity="1.0" stroke="rgb(0,0,0)" stroke-width="2"  />
		</g>
		<g>
			<title> (ctg130_32)</title>
			<polygon class=" (ctg130_32)" points="113,25 99,25 99,10 69,40 99,70 99,55 113,55" fill="rgb(255,255,255)" fill-opacity="1.0" stroke="rgb(0,0,0)" stroke-width="2"  />
			<g>
				<title>PaO (PF08417)
"Pheophorbide a oxygenase"</title>
				<polygon class="PF08417" points="82,31 85,28 90,28 90,52 85,52 82,49" stroke-linejoin="round" width="8" height="24" fill="rgb(133,209,104)" stroke="rgb(106,167,83)" stroke-width="1" opacity="0.75" />
			</g>
			<g>
				<title>Rieske (PF00355)
"Rieske [2Fe-2S] domain"</title>
				<rect class="PF00355" x="102" y="28" stroke-linejoin="round" width="9" height="24" fill="rgb(186,77,145)" stroke="rgb(148,61,115)" stroke-width="1" opacity="0.75" />
			</g>
		</g>
		<g>
			<title> (ctg130_33)</title>
			<polygon class=" (ctg130_33)" points="118,40 139,10 139,70" fill="rgb(255,255,255)" fill-opacity="1.0" stroke="rgb(0,0,0)" stroke-width="2"  />
			<g>
				<title>DUF1361 (PF07099)
"Protein of unknown function (DUF1361)"</title>
				<polygon class="PF07099" points="122,40 130,28 135,28 135,52 130,52" stroke-linejoin="round" width="16" height="24" fill="rgb(152,71,204)" stroke="rgb(121,56,163)" stroke-width="1" opacity="0.75" />
			</g>
		</g>
		<g>
			<title> (ctg130_34)</title>
			<polygon class=" (ctg130_34)" points="139,40 152,10 152,70" fill="rgb(255,255,255)" fill-opacity="1.0" stroke="rgb(0,0,0)" stroke-width="2"  />
			<g>
				<title>4HBT_2 (PF13279)
"Thioesterase-like superfamily"</title>
				<polygon class="PF13279" points="142,40 148,28 151,28 151,52 148,52" stroke-linejoin="round" width="11" height="24" fill="rgb(213,114,82)" stroke="rgb(170,91,65)" stroke-width="1" opacity="0.75" />
			</g>
		</g>
		<g>
			<title> (ctg130_35)</title>
			<polygon class=" (ctg130_35)" points="153,40 170,10 170,70" fill="rgb(255,255,255)" fill-opacity="1.0" stroke="rgb(0,0,0)" stroke-width="2"  />
			<g>
				<title>CCB1 (PF12046)
"Cofactor assembly of complex C subunit B"</title>
				<polygon class="PF12046" points="156,40 163,28 169,28 169,52 163,52" stroke-linejoin="round" width="16" height="24" fill="rgb(223,110,198)" stroke="rgb(178,88,158)" stroke-width="1" opacity="0.75" />
			</g>
		</g>
		<g>
			<title> (ctg130_36)</title>
			<polygon class=" (ctg130_36)" points="175,25 175,25 175,10 205,40 175,70 175,55 175,55" fill="rgb(255,255,255)" fill-opacity="1.0" stroke="rgb(0,0,0)" stroke-width="2"  />
			<g>
				<title>ABC-3 (PF00950)
"ABC 3 transport family"</title>
				<polygon class="PF00950" points="176,28 188,28 200,40 188,52 176,52" stroke-linejoin="round" width="25" height="24" fill="rgb(190,102,215)" stroke="rgb(152,81,172)" stroke-width="1" opacity="0.75" />
			</g>
		</g>
		<g>
			<title> (ctg130_37)</title>
			<polygon class=" (ctg130_37)" points="214,40 228,10 228,70" fill="rgb(255,255,255)" fill-opacity="1.0" stroke="rgb(0,0,0)" stroke-width="2"  />
			<g>
				<title>PIN_3 (PF13470)
"PIN domain"</title>
				<polygon class="PF13470" points="217,40 223,28 227,28 227,52 223,52 217,40" stroke-linejoin="round" width="10" height="24" fill="rgb(89,183,186)" stroke="rgb(71,146,148)" stroke-width="1" opacity="0.75" />
			</g>
		</g>
		<g>
			<title> (ctg130_38)</title>
			<polygon class=" (ctg130_38)" points="228,40 235,10 235,70" fill="rgb(255,255,255)" fill-opacity="1.0" stroke="rgb(0,0,0)" stroke-width="2"  />
		</g>
		<g>
			<title> (ctg130_39)</title>
			<polygon class=" (ctg130_39)" points="240,10 247,40 240,70" fill="rgb(255,255,255)" fill-opacity="1.0" stroke="rgb(0,0,0)" stroke-width="2"  />
		</g>
		<g>
			<title> (ctg130_40)</title>
			<polygon class=" (ctg130_40)" points="247,10 250,40 247,70" fill="rgb(255,255,255)" fill-opacity="1.0" stroke="rgb(0,0,0)" stroke-width="2"  />
		</g>
		<g>
			<title> (ctg130_41)</title>
			<polygon class=" (ctg130_41)" points="269,40 289,10 289,70" fill="rgb(255,255,255)" fill-opacity="1.0" stroke="rgb(0,0,0)" stroke-width="2"  />
			<g>
				<title>SNARE_assoc (PF09335)
"SNARE associated Golgi protein"</title>
				<polygon class="PF09335" points="273,40 281,28 286,28 286,52 281,52 273,40" stroke-linejoin="round" width="13" height="24" fill="rgb(145,188,82)" stroke="rgb(116,150,65)" stroke-width="1" opacity="0.75" />
			</g>
		</g>
		<g>
			<title> (ctg130_42)</title>
			<polygon class=" (ctg130_42)" points="336,25 324,25 324,10 294,40 324,70 324,55 336,55" fill="rgb(255,255,255)" fill-opacity="1.0" stroke="rgb(0,0,0)" stroke-width="2"  />
			<g>
				<title>AdoHcyase_NAD (PF00670)
"S-adenosyl-L-homocysteine hydrolase, NAD binding domain"</title>
				<polygon class="PF00670" points="301,37 310,28 317,28 317,52 310,52 301,43" stroke-linejoin="round" width="16" height="24" fill="rgb(104,215,163)" stroke="rgb(83,172,130)" stroke-width="1" opacity="0.75" />
			</g>
			<g>
				<title>AdoHcyase (PF05221)
"S-adenosyl-L-homocysteine hydrolase"</title>
				<rect class="PF05221" x="321" y="28" stroke-linejoin="round" width="13" height="24" fill="rgb(55,203,152)" stroke="rgb(44,162,121)" stroke-width="1" opacity="0.75" />
			</g>
		</g>
		<g>
			<title> (ctg130_43)</title>
			<polygon class=" (ctg130_43)" points="341,40 363,10 363,70" fill="rgb(255,255,255)" fill-opacity="1.0" stroke="rgb(0,0,0)" stroke-width="2"  />
			<g>
				<title>Lum_binding (PF00677)
"Lumazine binding domain"</title>
				<polygon class="PF00677" points="345,40 353,29 353,51" stroke-linejoin="round" width="9" height="24" fill="rgb(107,211,72)" stroke="rgb(85,168,57)" stroke-width="1" opacity="0.75" />
			</g>
			<g>
				<title>Lum_binding (PF00677)
"Lumazine binding domain"</title>
				<polygon class="PF00677" points="354,28 354,28 362,28 362,52 354,52 354,52" stroke-linejoin="round" width="8" height="24" fill="rgb(107,211,72)" stroke="rgb(85,168,57)" stroke-width="1" opacity="0.75" />
			</g>
		</g>
		<g>
			<title> (ctg130_44)</title>
			<polygon class=" (ctg130_44)" points="407,25 394,25 394,10 364,40 394,70 394,55 407,55" fill="rgb(255,255,255)" fill-opacity="1.0" stroke="rgb(0,0,0)" stroke-width="2"  />
			<g>
				<title>Aldedh (PF00171)
"Aldehyde dehydrogenase family"</title>
				<polygon class="PF00171" points="376,32 380,28 406,28 406,52 380,52 376,48" stroke-linejoin="round" width="30" height="24" fill="rgb(105,213,139)" stroke="rgb(84,170,111)" stroke-width="1" opacity="0.75" />
			</g>
		</g>
		<g>
			<title> (ctg130_45)</title>
			<polygon class=" (ctg130_45)" points="460,25 451,25 451,10 421,40 451,70 451,55 460,55" fill="rgb(255,255,255)" fill-opacity="1.0" stroke="rgb(0,0,0)" stroke-width="2"  />
			<g>
				<title>DXPR_C (PF13288)
"DXP reductoisomerase C-terminal domain"</title>
				<polygon class="PF13288" points="425,40 433,32 433,48" stroke-linejoin="round" width="11" height="24" fill="rgb(184,95,48)" stroke="rgb(147,76,38)" stroke-width="1" opacity="0.75" />
			</g>
			<g>
				<title>DXP_redisom_C (PF08436)
"1-deoxy-D-xylulose 5-phosphate reductoisomerase C-terminal domain"</title>
				<polygon class="PF08436" points="437,28 437,28 445,28 445,52 437,52 437,52" stroke-linejoin="round" width="8" height="24" fill="rgb(160,186,55)" stroke="rgb(127,148,44)" stroke-width="1" opacity="0.75" />
			</g>
			<g>
				<title>DXP_reductoisom (PF02670)
"1-deoxy-D-xylulose 5-phosphate reductoisomerase"</title>
				<rect class="PF02670" x="446" y="28" stroke-linejoin="round" width="12" height="24" fill="rgb(106,225,169)" stroke="rgb(84,180,135)" stroke-width="1" opacity="0.75" />
			</g>
		</g>
		<g>
			<title> (ctg130_46)</title>
			<polygon class=" (ctg130_46)" points="465,10 474,40 465,70" fill="rgb(255,255,255)" fill-opacity="1.0" stroke="rgb(0,0,0)" stroke-width="2"  />
		</g>
		<g>
			<title> (ctg130_47)</title>
			<polygon class=" (ctg130_47)" points="477,40 504,10 504,70" fill="rgb(255,255,255)" fill-opacity="1.0" stroke="rgb(0,0,0)" stroke-width="2"  />
			<g>
				<title>FA_desaturase (PF00487)
"Fatty acid desaturase"</title>
				<polygon class="PF00487" points="481,40 492,28 501,28 501,52 492,52" stroke-linejoin="round" width="22" height="24" fill="rgb(104,51,205)" stroke="rgb(83,40,164)" stroke-width="1" opacity="0.75" />
			</g>
		</g>
		<g>
			<title> (ctg130_48)</title>
			<polygon class=" (ctg130_48)" points="508,10 512,40 508,70" fill="rgb(255,255,255)" fill-opacity="1.0" stroke="rgb(0,0,0)" stroke-width="2"  />
		</g>
		<g>
			<title> (ctg130_49)</title>
			<polygon class=" (ctg130_49)" points="519,25 531,25 531,10 561,40 531,70 531,55 519,55" fill="rgb(255,255,255)" fill-opacity="1.0" stroke="rgb(0,0,0)" stroke-width="2"  />
			<g>
				<title>MacB_PCD (PF12704)
"MacB-like periplasmic core domain"</title>
				<rect class="PF12704" x="522" y="28" stroke-linejoin="round" width="23" height="24" fill="rgb(79,76,190)" stroke="rgb(63,60,152)" stroke-width="1" opacity="0.75" />
			</g>
			<g>
				<title>FtsX (PF02687)
"FtsX-like permease family"</title>
				<polygon class="PF02687" points="552,35 557,40 552,45" stroke-linejoin="round" width="8" height="24" fill="rgb(126,55,214)" stroke="rgb(100,44,171)" stroke-width="1" opacity="0.75" />
			</g>
		</g>
		<g>
			<title> (ctg130_50)</title>
			<polygon class=" (ctg130_50)" points="562,40 584,10 584,70" fill="rgb(255,255,255)" fill-opacity="1.0" stroke="rgb(0,0,0)" stroke-width="2"  />
			<g>
				<title>ABC_tran (PF00005)
"ABC transporter"</title>
				<polygon class="PF00005" points="567,39 575,28 581,28 581,52 575,52 567,41" stroke-linejoin="round" width="14" height="24" fill="rgb(129,201,63)" stroke="rgb(103,160,50)" stroke-width="1" opacity="0.75" />
			</g>
		</g>
		<g>
			<title> (ctg130_51)</title>
			<polygon class=" (ctg130_51)" points="595,10 606,40 595,70" fill="rgb(255,255,255)" fill-opacity="1.0" stroke="rgb(0,0,0)" stroke-width="2"  />
		</g>
		<g>
			<title> (ctg130_52)</title>
			<polygon class=" (ctg130_52)" points="617,25 640,25 640,10 670,40 640,70 640,55 617,55" fill="rgb(255,255,255)" fill-opacity="1.0" stroke="rgb(0,0,0)" stroke-width="2"  />
			<g>
				<title>Cyt-b5 (PF00173)
"Cytochrome b5-like Heme/Steroid binding domain"</title>
				<rect class="PF00173" x="623" y="28" stroke-linejoin="round" width="6" height="24" fill="rgb(149,209,92)" stroke="rgb(119,167,73)" stroke-width="1" opacity="0.75" />
			</g>
		</g>
		<g>
			<title> (ctg130_53)</title>
			<polygon class=" (ctg130_53)" points="676,25 685,25 685,10 715,40 685,70 685,55 676,55" fill="rgb(255,255,255)" fill-opacity="1.0" stroke="rgb(0,0,0)" stroke-width="2"  />
			<g>
				<title>Chal_sti_synt_N (PF00195)
"Chalcone and stilbene synthases, N-terminal domain"</title>
				<rect class="PF00195" x="676" y="28" stroke-linejoin="round" width="22" height="24" fill="rgb(60,181,161)" stroke="rgb(47,144,128)" stroke-width="1" opacity="0.75" />
			</g>
			<g>
				<title>Chal_sti_synt_C (PF02797)
"Chalcone and stilbene synthases, C-terminal domain"</title>
				<polygon class="PF02797" points="699,28 699,28 711,40 699,52 699,52" stroke-linejoin="round" width="15" height="24" fill="rgb(139,212,63)" stroke="rgb(111,169,50)" stroke-width="1" opacity="0.75" />
			</g>
		</g>
		<g>
			<title> (ctg130_54)</title>
			<polygon class=" (ctg130_54)" points="717,25 747,25 747,10 777,40 747,70 747,55 717,55" fill="rgb(255,255,255)" fill-opacity="1.0" stroke="rgb(0,0,0)" stroke-width="2"  />
			<g>
				<title>ABC_membrane (PF00664)
"ABC transporter transmembrane region"</title>
				<rect class="PF00664" x="718" y="28" stroke-linejoin="round" width="26" height="24" fill="rgb(149,226,73)" stroke="rgb(119,180,58)" stroke-width="1" opacity="0.75" />
			</g>
			<g>
				<title>ABC_tran (PF00005)
"ABC transporter"</title>
				<polygon class="PF00005" points="757,28 761,28 770,37 770,43 761,52 757,52" stroke-linejoin="round" width="13" height="24" fill="rgb(129,201,63)" stroke="rgb(103,160,50)" stroke-width="1" opacity="0.75" />
			</g>
		</g>
		<g>
			<title> (ctg130_55)</title>
			<polygon class=" (ctg130_55)" points="779,25 801,25 801,10 831,40 801,70 801,55 779,55" fill="rgb(255,255,255)" fill-opacity="1.0" stroke="rgb(0,0,0)" stroke-width="2"  />
			<g>
				<title>Biotin_lipoyl_2 (PF13533)
"Biotin-lipoyl like"</title>
				<rect class="PF13533" x="786" y="28" stroke-linejoin="round" width="5" height="24" fill="rgb(229,122,112)" stroke="rgb(183,97,89)" stroke-width="1" opacity="0.75" />
			</g>
			<g>
				<title>HlyD_3 (PF13437)
"HlyD family secretion protein"</title>
				<polygon class="PF13437" points="807,28 814,28 818,32 818,48 814,52 807,52" stroke-linejoin="round" width="11" height="24" fill="rgb(82,200,102)" stroke="rgb(65,160,81)" stroke-width="1" opacity="0.75" />
			</g>
		</g>
		<g>
			<title> (ctg130_56)</title>
			<polygon class=" (ctg130_56)" points="836,10 845,40 836,70" fill="rgb(255,255,255)" fill-opacity="1.0" stroke="rgb(0,0,0)" stroke-width="2"  />
		</g>
		<g>
			<title> (ctg130_57)</title>
			<polygon class=" (ctg130_57)" points="853,25 864,25 864,10 894,40 864,70 864,55 853,55" fill="rgb(255,255,255)" fill-opacity="1.0" stroke="rgb(0,0,0)" stroke-width="2"  />
			<g>
				<title>Met_gamma_lyase (PF06838)
"Methionine gamma-lyase"</title>
				<polygon class="PF06838" points="853,28 878,28 890,40 878,52 853,52" stroke-linejoin="round" width="40" height="24" fill="rgb(96,226,191)" stroke="rgb(76,180,152)" stroke-width="1" opacity="0.75" />
			</g>
		</g>
		<g>
			<title> (ctg130_58)</title>
			<polygon class=" (ctg130_58)" points="945,25 936,25 936,10 906,40 936,70 936,55 945,55" fill="rgb(255,255,255)" fill-opacity="1.0" stroke="rgb(0,0,0)" stroke-width="2"  />
			<g>
				<title>DDE_Tnp_1 (PF01609)
"Transposase DDE domain"</title>
				<polygon class="PF01609" points="916,34 922,28 940,28 940,52 922,52 916,46" stroke-linejoin="round" width="24" height="24" fill="rgb(229,102,99)" stroke="rgb(183,81,79)" stroke-width="1" opacity="0.75" />
			</g>
		</g>
	</g>
</svg>
