<svg version="1.1" baseProfile="full" xmlns="http://www.w3.org/2000/svg" width="756.3666666666667" height="80">
	<g>
		<line x1="10" y1="40.0" x2="746.3666666666667" y2="40.0" style="stroke:rgb(70,70,70); stroke-width:3 "/>
		<g>
			<title> (ctg93_11)</title>
			<polygon class=" (ctg93_11)" points="20,10 49,40 20,70" fill="rgb(255,255,255)" fill-opacity="1.0" stroke="rgb(0,0,0)" stroke-width="2"  />
			<g>
				<title>LysM (PF01476)
"LysM domain"</title>
				<rect class="PF01476" x="25" y="28" stroke-linejoin="round" width="4" height="24" fill="rgb(200,86,203)" stroke="rgb(160,68,162)" stroke-width="1" opacity="0.75" />
			</g>
			<g>
				<title>Peptidase_M23 (PF01551)
"Peptidase family M23"</title>
				<polygon class="PF01551" points="38,33 45,40 38,47" stroke-linejoin="round" width="10" height="24" fill="rgb(65,169,193)" stroke="rgb(51,135,154)" stroke-width="1" opacity="0.75" />
			</g>
		</g>
		<g>
			<title> (ctg93_12)</title>
			<polygon class=" (ctg93_12)" points="59,10 83,40 59,70" fill="rgb(255,255,255)" fill-opacity="1.0" stroke="rgb(0,0,0)" stroke-width="2"  />
		</g>
		<g>
			<title> (ctg93_13)</title>
			<polygon class=" (ctg93_13)" points="83,25 84,25 84,10 114,40 84,70 84,55 83,55" fill="rgb(255,255,255)" fill-opacity="1.0" stroke="rgb(0,0,0)" stroke-width="2"  />
			<g>
				<title>DUF2887 (PF11103)
"Protein of unknown function (DUF2887)"</title>
				<polygon class="PF11103" points="86,28 97,28 106,37 106,43 97,52 86,52" stroke-linejoin="round" width="20" height="24" fill="rgb(121,77,180)" stroke="rgb(96,61,144)" stroke-width="1" opacity="0.75" />
			</g>
			<g>
				<title>DUF4351 (PF14261)
"Domain of unknown function (DUF4351)"</title>
				<polygon class="PF14261" points="107,38 109,40 107,42" stroke-linejoin="round" width="5" height="24" fill="rgb(66,53,182)" stroke="rgb(52,42,145)" stroke-width="1" opacity="0.75" />
			</g>
		</g>
		<g>
			<title> (ctg93_14)</title>
			<polygon class=" (ctg93_14)" points="159,25 151,25 151,10 121,40 151,70 151,55 159,55" fill="rgb(255,255,255)" fill-opacity="1.0" stroke="rgb(0,0,0)" stroke-width="2"  />
			<g>
				<title>Aminotran_5 (PF00266)
"Aminotransferase class-V"</title>
				<polygon class="PF00266" points="125,40 137,28 158,28 158,52 137,52 125,40" stroke-linejoin="round" width="33" height="24" fill="rgb(214,54,122)" stroke="rgb(171,43,97)" stroke-width="1" opacity="0.75" />
			</g>
		</g>
		<g>
			<title> (ctg93_15)</title>
			<polygon class=" (ctg93_15)" points="169,40 198,10 198,70" fill="rgb(255,255,255)" fill-opacity="1.0" stroke="rgb(0,0,0)" stroke-width="2"  />
			<g>
				<title>IGPS (PF00218)
"Indole-3-glycerol phosphate synthase"</title>
				<polygon class="PF00218" points="173,40 185,28 194,28 194,52 185,52" stroke-linejoin="round" width="25" height="24" fill="rgb(183,89,153)" stroke="rgb(146,71,122)" stroke-width="1" opacity="0.75" />
			</g>
		</g>
		<g>
			<title> (ctg93_16)</title>
			<polygon class=" (ctg93_16)" points="203,40 210,10 210,70" fill="rgb(255,255,255)" fill-opacity="1.0" stroke="rgb(0,0,0)" stroke-width="2"  />
		</g>
		<g>
			<title> (ctg93_17)</title>
			<polygon class=" (ctg93_17)" points="220,10 242,40 220,70" fill="rgb(255,255,255)" fill-opacity="1.0" stroke="rgb(0,0,0)" stroke-width="2"  />
		</g>
		<g>
			<title> (ctg93_18)</title>
			<polygon class=" (ctg93_18)" points="243,10 252,40 243,70" fill="rgb(255,255,255)" fill-opacity="1.0" stroke="rgb(0,0,0)" stroke-width="2"  />
			<g>
				<title>DUF3288 (PF11691)
"Protein of unknown function (DUF3288)"</title>
				<polygon class="PF11691" points="243,28 245,28 249,40 245,52 243,52" stroke-linejoin="round" width="8" height="24" fill="rgb(101,212,216)" stroke="rgb(80,169,172)" stroke-width="1" opacity="0.75" />
			</g>
		</g>
		<g>
			<title> (ctg93_19)</title>
			<polygon class=" (ctg93_19)" points="284,25 284,25 284,10 254,40 284,70 284,55 284,55" fill="rgb(255,255,255)" fill-opacity="1.0" stroke="rgb(0,0,0)" stroke-width="2"  />
		</g>
		<g>
			<title> (ctg93_20)</title>
			<polygon class=" (ctg93_20)" points="323,25 320,25 320,10 290,40 320,70 320,55 323,55" fill="rgb(255,255,255)" fill-opacity="1.0" stroke="rgb(0,0,0)" stroke-width="2"  />
			<g>
				<title>Glycos_transf_1 (PF00534)
"Glycosyl transferases group 1"</title>
				<polygon class="PF00534" points="297,37 306,28 309,28 309,52 306,52 297,43" stroke-linejoin="round" width="12" height="24" fill="rgb(228,92,150)" stroke="rgb(182,73,119)" stroke-width="1" opacity="0.75" />
			</g>
		</g>
		<g>
			<title> (ctg93_21)</title>
			<polygon class=" (ctg93_21)" points="328,10 341,40 328,70" fill="rgb(255,255,255)" fill-opacity="1.0" stroke="rgb(0,0,0)" stroke-width="2"  />
		</g>
		<g>
			<title> (ctg93_22)</title>
			<polygon class=" (ctg93_22)" points="412,25 373,25 373,10 343,40 373,70 373,55 412,55" fill="rgb(255,255,255)" fill-opacity="1.0" stroke="rgb(0,0,0)" stroke-width="2"  />
			<g>
				<title>SQHop_cyclase_C (PF13243)
"Squalene-hopene cyclase C-terminal domain"</title>
				<polygon class="PF13243" points="347,40 359,28 375,28 375,52 359,52" stroke-linejoin="round" width="32" height="24" fill="rgb(191,58,201)" stroke="rgb(152,46,160)" stroke-width="1" opacity="0.75" />
			</g>
			<g>
				<title>SQHop_cyclase_N (PF13249)
"Squalene-hopene cyclase N-terminal domain"</title>
				<rect class="PF13249" x="376" y="28" stroke-linejoin="round" width="28" height="24" fill="rgb(88,190,89)" stroke="rgb(70,152,71)" stroke-width="1" opacity="0.75" />
			</g>
		</g>
		<g>
			<title> (ctg93_23)</title>
			<polygon class=" (ctg93_23)" points="415,40 440,10 440,70" fill="rgb(255,255,255)" fill-opacity="1.0" stroke="rgb(0,0,0)" stroke-width="2"  />
			<g>
				<title>EF_TS (PF00889)
"Elongation factor TS"</title>
				<polygon class="PF00889" points="420,39 429,28 439,28 439,52 429,52 420,41" stroke-linejoin="round" width="19" height="24" fill="rgb(69,212,85)" stroke="rgb(55,169,67)" stroke-width="1" opacity="0.75" />
			</g>
		</g>
		<g>
			<title> (ctg93_24)</title>
			<polygon class=" (ctg93_24)" points="444,40 470,10 470,70" fill="rgb(255,255,255)" fill-opacity="1.0" stroke="rgb(0,0,0)" stroke-width="2"  />
			<g>
				<title>Ribosomal_S2 (PF00318)
"Ribosomal protein S2"</title>
				<polygon class="PF00318" points="448,40 459,28 469,28 469,52 459,52 448,40" stroke-linejoin="round" width="21" height="24" fill="rgb(60,213,66)" stroke="rgb(48,170,52)" stroke-width="1" opacity="0.75" />
			</g>
		</g>
		<g>
			<title> (ctg93_25)</title>
			<polygon class=" (ctg93_25)" points="475,40 490,10 490,70" fill="rgb(255,255,255)" fill-opacity="1.0" stroke="rgb(0,0,0)" stroke-width="2"  />
			<g>
				<title>AhpC-TSA (PF00578)
"AhpC/TSA family"</title>
				<polygon class="PF00578" points="478,40 484,28 489,28 489,52 484,52" stroke-linejoin="round" width="12" height="24" fill="rgb(166,71,190)" stroke="rgb(132,56,152)" stroke-width="1" opacity="0.75" />
			</g>
		</g>
		<g>
			<title> (ctg93_26)</title>
			<polygon class=" (ctg93_26)" points="491,40 519,10 519,70" fill="rgb(255,255,255)" fill-opacity="1.0" stroke="rgb(0,0,0)" stroke-width="2"  />
			<g>
				<title>Peptidase_M48 (PF01435)
"Peptidase family M48"</title>
				<polygon class="PF01435" points="501,34 506,28 509,28 509,52 506,52 501,46" stroke-linejoin="round" width="8" height="24" fill="rgb(70,152,228)" stroke="rgb(56,121,182)" stroke-width="1" opacity="0.75" />
			</g>
		</g>
		<g>
			<title> (ctg93_27)</title>
			<polygon class=" (ctg93_27)" points="519,40 535,10 535,70" fill="rgb(255,255,255)" fill-opacity="1.0" stroke="rgb(0,0,0)" stroke-width="2"  />
			<g>
				<title>Penicillinase_R (PF03965)
"Penicillinase repressor"</title>
				<polygon class="PF03965" points="522,40 529,28 530,28 530,52 529,52" stroke-linejoin="round" width="11" height="24" fill="rgb(208,59,133)" stroke="rgb(166,47,106)" stroke-width="1" opacity="0.75" />
			</g>
		</g>
		<g>
			<title> (ctg93_28)</title>
			<polygon class=" (ctg93_28)" points="536,10 546,40 536,70" fill="rgb(255,255,255)" fill-opacity="1.0" stroke="rgb(0,0,0)" stroke-width="2"  />
			<g>
				<title>DUF4090 (PF13319)
"Protein of unknown function (DUF4090)"</title>
				<polygon class="PF13319" points="537,28 538,28 542,40 538,52 537,52" stroke-linejoin="round" width="8" height="24" fill="rgb(89,117,182)" stroke="rgb(71,93,145)" stroke-width="1" opacity="0.75" />
			</g>
		</g>
		<g>
			<title> (ctg93_29)</title>
			<polygon class=" (ctg93_29)" points="556,25 564,25 564,10 594,40 564,70 564,55 556,55" fill="rgb(255,255,255)" fill-opacity="1.0" stroke="rgb(0,0,0)" stroke-width="2"  />
			<g>
				<title>NTP_transferase (PF00483)
"Nucleotidyl transferase"</title>
				<polygon class="PF00483" points="556,28 578,28 580,30 580,50 578,52 556,52" stroke-linejoin="round" width="24" height="24" fill="rgb(198,101,87)" stroke="rgb(158,80,69)" stroke-width="1" opacity="0.75" />
			</g>
		</g>
		<g>
			<title> (ctg93_30)</title>
			<polygon class=" (ctg93_30)" points="601,25 612,25 612,10 642,40 612,70 612,55 601,55" fill="rgb(255,255,255)" fill-opacity="1.0" stroke="rgb(0,0,0)" stroke-width="2"  />
		</g>
		<g>
			<title> (ctg93_31)</title>
			<polygon class=" (ctg93_31)" points="704,25 672,25 672,10 642,40 672,70 672,55 704,55" fill="rgb(255,255,255)" fill-opacity="1.0" stroke="rgb(0,0,0)" stroke-width="2"  />
			<g>
				<title>Toprim_2 (PF13155)
"Toprim-like"</title>
				<rect class="PF13155" x="668" y="28" stroke-linejoin="round" width="9" height="24" fill="rgb(98,107,198)" stroke="rgb(78,85,158)" stroke-width="1" opacity="0.75" />
			</g>
			<g>
				<title>Toprim_N (PF08275)
"DNA primase catalytic core, N-terminal domain"</title>
				<rect class="PF08275" x="678" y="28" stroke-linejoin="round" width="12" height="24" fill="rgb(118,218,88)" stroke="rgb(94,174,70)" stroke-width="1" opacity="0.75" />
			</g>
			<g>
				<title>zf-CHC2 (PF01807)
"CHC2 zinc finger"</title>
				<rect class="PF01807" x="694" y="28" stroke-linejoin="round" width="9" height="24" fill="rgb(76,201,77)" stroke="rgb(60,160,61)" stroke-width="1" opacity="0.75" />
			</g>
		</g>
	</g>
</svg>
