<svg version="1.1" baseProfile="full" xmlns="http://www.w3.org/2000/svg" width="153.26666666666668" height="80">
	<g>
		<line x1="10" y1="40.0" x2="143.26666666666668" y2="40.0" style="stroke:rgb(70,70,70); stroke-width:3 "/>
		<g>
			<title> (ctg295_1)</title>
			<polygon class=" (ctg295_1)" points="10,25 54,25 54,10 84,40 54,70 54,55 10,55" fill="rgb(255,255,255)" fill-opacity="1.0" stroke="rgb(0,0,0)" stroke-width="2"  />
			<g>
				<title>AMP-binding (PF00501)
"AMP-binding enzyme"</title>
				<rect class="PF00501" x="10" y="28" stroke-linejoin="round" width="11" height="24" fill="rgb(60,217,223)" stroke="rgb(48,173,178)" stroke-width="1" opacity="0.75" />
			</g>
			<g>
				<title>Methyltransf_12 (PF08242)
"Methyltransferase domain"</title>
				<rect class="PF08242" x="33" y="28" stroke-linejoin="round" width="9" height="24" fill="rgb(187,59,115)" stroke="rgb(149,47,92)" stroke-width="1" opacity="0.75" />
			</g>
			<g>
				<title>PP-binding (PF00550)
"Phosphopantetheine attachment site"</title>
				<polygon class="PF00550" points="75,36 79,40 75,44" stroke-linejoin="round" width="6" height="24" fill="rgb(103,191,88)" stroke="rgb(82,152,70)" stroke-width="1" opacity="0.75" />
			</g>
		</g>
		<g>
			<title> (ctg295_2)</title>
			<polygon class=" (ctg295_2)" points="84,25 112,25 112,10 142,40 112,70 112,55 84,55" fill="rgb(255,255,255)" fill-opacity="1.0" stroke="rgb(0,0,0)" stroke-width="2"  />
			<g>
				<title>TubC_N (PF18563)
"TubC N-terminal docking domain"</title>
				<rect class="PF18563" x="84" y="28" stroke-linejoin="round" width="5" height="24" fill="rgb(95,217,77)" stroke="rgb(75,173,61)" stroke-width="1" opacity="0.75" />
			</g>
			<g>
				<title>Condensation (PF00668)
"Condensation domain"</title>
				<polygon class="PF00668" points="91,28 126,28 135,37 135,43 126,52 91,52" stroke-linejoin="round" width="44" height="24" fill="rgb(224,184,98)" stroke="rgb(179,147,78)" stroke-width="1" opacity="0.75" />
			</g>
			<g>
				<title>AMP-binding (PF00501)
"AMP-binding enzyme"</title>
				<polygon class="PF00501" points="138,40 138,40 138,40" stroke-linejoin="round" width="4" height="24" fill="rgb(60,217,223)" stroke="rgb(48,173,178)" stroke-width="1" opacity="0.75" />
			</g>
		</g>
	</g>
</svg>
