<svg version="1.1" baseProfile="full" xmlns="http://www.w3.org/2000/svg" width="380.06666666666666" height="80">
	<g>
		<line x1="10" y1="40.0" x2="370.06666666666666" y2="40.0" style="stroke:rgb(70,70,70); stroke-width:3 "/>
		<g>
			<title> (ctg288_1)</title>
			<polygon class=" (ctg288_1)" points="10,40 13,10 13,70" fill="rgb(255,255,255)" fill-opacity="1.0" stroke="rgb(0,0,0)" stroke-width="2"  />
		</g>
		<g>
			<title> (ctg288_2)</title>
			<polygon class=" (ctg288_2)" points="18,40 27,10 27,70" fill="rgb(255,255,255)" fill-opacity="1.0" stroke="rgb(0,0,0)" stroke-width="2"  />
			<g>
				<title>DUF4090 (PF13319)
"Protein of unknown function (DUF4090)"</title>
				<polygon class="PF13319" points="21,40 25,28 26,28 26,52 25,52" stroke-linejoin="round" width="8" height="24" fill="rgb(89,117,182)" stroke="rgb(71,93,145)" stroke-width="1" opacity="0.75" />
			</g>
		</g>
		<g>
			<title> (ctg288_3)</title>
			<polygon class=" (ctg288_3)" points="30,10 44,40 30,70" fill="rgb(255,255,255)" fill-opacity="1.0" stroke="rgb(0,0,0)" stroke-width="2"  />
			<g>
				<title>Penicillinase_R (PF03965)
"Penicillinase repressor"</title>
				<polygon class="PF03965" points="31,28 34,28 40,40 34,52 31,52" stroke-linejoin="round" width="11" height="24" fill="rgb(208,59,133)" stroke="rgb(166,47,106)" stroke-width="1" opacity="0.75" />
			</g>
		</g>
		<g>
			<title> (ctg288_4)</title>
			<polygon class=" (ctg288_4)" points="44,10 72,40 44,70" fill="rgb(255,255,255)" fill-opacity="1.0" stroke="rgb(0,0,0)" stroke-width="2"  />
			<g>
				<title>Peptidase_M48 (PF01435)
"Peptidase family M48"</title>
				<polygon class="PF01435" points="53,28 56,28 62,34 62,46 56,52 53,52" stroke-linejoin="round" width="9" height="24" fill="rgb(70,152,228)" stroke="rgb(56,121,182)" stroke-width="1" opacity="0.75" />
			</g>
		</g>
		<g>
			<title> (ctg288_5)</title>
			<polygon class=" (ctg288_5)" points="73,10 88,40 73,70" fill="rgb(255,255,255)" fill-opacity="1.0" stroke="rgb(0,0,0)" stroke-width="2"  />
			<g>
				<title>AhpC-TSA (PF00578)
"AhpC/TSA family"</title>
				<polygon class="PF00578" points="73,28 78,28 85,40 85,40 78,52 73,52" stroke-linejoin="round" width="12" height="24" fill="rgb(166,71,190)" stroke="rgb(132,56,152)" stroke-width="1" opacity="0.75" />
			</g>
		</g>
		<g>
			<title> (ctg288_6)</title>
			<polygon class=" (ctg288_6)" points="103,10 129,40 103,70" fill="rgb(255,255,255)" fill-opacity="1.0" stroke="rgb(0,0,0)" stroke-width="2"  />
			<g>
				<title>Ribosomal_S2 (PF00318)
"Ribosomal protein S2"</title>
				<polygon class="PF00318" points="103,28 114,28 124,39 124,41 114,52 103,52" stroke-linejoin="round" width="21" height="24" fill="rgb(60,213,66)" stroke="rgb(48,170,52)" stroke-width="1" opacity="0.75" />
			</g>
		</g>
		<g>
			<title> (ctg288_7)</title>
			<polygon class=" (ctg288_7)" points="134,10 159,40 134,70" fill="rgb(255,255,255)" fill-opacity="1.0" stroke="rgb(0,0,0)" stroke-width="2"  />
			<g>
				<title>EF_TS (PF00889)
"Elongation factor TS"</title>
				<polygon class="PF00889" points="134,28 145,28 153,38 153,42 145,52 134,52" stroke-linejoin="round" width="19" height="24" fill="rgb(69,212,85)" stroke="rgb(55,169,67)" stroke-width="1" opacity="0.75" />
			</g>
		</g>
		<g>
			<title> (ctg288_8)</title>
			<polygon class=" (ctg288_8)" points="161,25 196,25 196,10 226,40 196,70 196,55 161,55" fill="rgb(255,255,255)" fill-opacity="1.0" stroke="rgb(0,0,0)" stroke-width="2"  />
			<g>
				<title>SQHop_cyclase_N (PF13249)
"Squalene-hopene cyclase N-terminal domain"</title>
				<rect class="PF13249" x="164" y="28" stroke-linejoin="round" width="28" height="24" fill="rgb(88,190,89)" stroke="rgb(70,152,71)" stroke-width="1" opacity="0.75" />
			</g>
			<g>
				<title>SQHop_cyclase_C (PF13243)
"Squalene-hopene cyclase C-terminal domain"</title>
				<polygon class="PF13243" points="193,28 209,28 221,40 209,52 193,52" stroke-linejoin="round" width="32" height="24" fill="rgb(191,58,201)" stroke="rgb(152,46,160)" stroke-width="1" opacity="0.75" />
			</g>
		</g>
		<g>
			<title> (ctg288_9)</title>
			<polygon class=" (ctg288_9)" points="228,40 241,10 241,70" fill="rgb(255,255,255)" fill-opacity="1.0" stroke="rgb(0,0,0)" stroke-width="2"  />
		</g>
		<g>
			<title> (ctg288_10)</title>
			<polygon class=" (ctg288_10)" points="245,25 248,25 248,10 278,40 248,70 248,55 245,55" fill="rgb(255,255,255)" fill-opacity="1.0" stroke="rgb(0,0,0)" stroke-width="2"  />
			<g>
				<title>Glycos_transf_1 (PF00534)
"Glycosyl transferases group 1"</title>
				<polygon class="PF00534" points="258,28 261,28 271,38 271,42 261,52 258,52" stroke-linejoin="round" width="13" height="24" fill="rgb(228,92,150)" stroke="rgb(182,73,119)" stroke-width="1" opacity="0.75" />
			</g>
		</g>
		<g>
			<title> (ctg288_11)</title>
			<polygon class=" (ctg288_11)" points="286,25 286,25 286,10 316,40 286,70 286,55 286,55" fill="rgb(255,255,255)" fill-opacity="1.0" stroke="rgb(0,0,0)" stroke-width="2"  />
		</g>
		<g>
			<title> (ctg288_12)</title>
			<polygon class=" (ctg288_12)" points="318,40 327,10 327,70" fill="rgb(255,255,255)" fill-opacity="1.0" stroke="rgb(0,0,0)" stroke-width="2"  />
			<g>
				<title>DUF3288 (PF11691)
"Protein of unknown function (DUF3288)"</title>
				<polygon class="PF11691" points="321,40 325,28 326,28 326,52 325,52" stroke-linejoin="round" width="8" height="24" fill="rgb(101,212,216)" stroke="rgb(80,169,172)" stroke-width="1" opacity="0.75" />
			</g>
		</g>
		<g>
			<title> (ctg288_13)</title>
			<polygon class=" (ctg288_13)" points="328,40 346,10 346,70" fill="rgb(255,255,255)" fill-opacity="1.0" stroke="rgb(0,0,0)" stroke-width="2"  />
		</g>
		<g>
			<title> (ctg288_14)</title>
			<polygon class=" (ctg288_14)" points="356,10 363,40 356,70" fill="rgb(255,255,255)" fill-opacity="1.0" stroke="rgb(0,0,0)" stroke-width="2"  />
		</g>
	</g>
</svg>
