<svg version="1.1" baseProfile="full" xmlns="http://www.w3.org/2000/svg" width="702.8" height="80">
	<g>
		<line x1="10" y1="40.0" x2="692.8" y2="40.0" style="stroke:rgb(70,70,70); stroke-width:3 "/>
		<g>
			<title> (ctg161_1)</title>
			<polygon class=" (ctg161_1)" points="19,10 31,40 19,70" fill="rgb(255,255,255)" fill-opacity="1.0" stroke="rgb(0,0,0)" stroke-width="2"  />
			<g>
				<title>OrfB_Zn_ribbon (PF07282)
"Putative transposase DNA-binding domain"</title>
				<polygon class="PF07282" points="21,28 23,28 27,37 27,43 23,52 21,52" stroke-linejoin="round" width="6" height="24" fill="rgb(188,84,136)" stroke="rgb(150,67,108)" stroke-width="1" opacity="0.75" />
			</g>
		</g>
		<g>
			<title> (ctg161_2)</title>
			<polygon class=" (ctg161_2)" points="41,40 60,10 60,70" fill="rgb(255,255,255)" fill-opacity="1.0" stroke="rgb(0,0,0)" stroke-width="2"  />
			<g>
				<title>DUF3727 (PF12527)
"Protein of unknown function (DUF3727)"</title>
				<polygon class="PF12527" points="45,40 50,32 50,48" stroke-linejoin="round" width="9" height="24" fill="rgb(91,150,227)" stroke="rgb(72,119,181)" stroke-width="1" opacity="0.75" />
			</g>
			<g>
				<title>DUF1292 (PF06949)
"Protein of unknown function (DUF1292)"</title>
				<polygon class="PF06949" points="51,31 53,28 57,28 57,52 53,52 51,49" stroke-linejoin="round" width="6" height="24" fill="rgb(53,189,82)" stroke="rgb(42,151,65)" stroke-width="1" opacity="0.75" />
			</g>
		</g>
		<g>
			<title> (ctg161_3)</title>
			<polygon class=" (ctg161_3)" points="62,40 89,10 89,70" fill="rgb(255,255,255)" fill-opacity="1.0" stroke="rgb(0,0,0)" stroke-width="2"  />
			<g>
				<title>SurE (PF01975)
"Survival protein SurE"</title>
				<polygon class="PF01975" points="69,37 77,28 87,28 87,52 77,52 69,43" stroke-linejoin="round" width="18" height="24" fill="rgb(55,201,204)" stroke="rgb(44,160,163)" stroke-width="1" opacity="0.75" />
			</g>
		</g>
		<g>
			<title> (ctg161_4)</title>
			<polygon class=" (ctg161_4)" points="101,40 130,10 130,70" fill="rgb(255,255,255)" fill-opacity="1.0" stroke="rgb(0,0,0)" stroke-width="2"  />
			<g>
				<title>PrmA (PF06325)
"Ribosomal protein L11 methyltransferase (PrmA)"</title>
				<polygon class="PF06325" points="105,40 117,28 130,28 130,52 117,52" stroke-linejoin="round" width="29" height="24" fill="rgb(165,213,101)" stroke="rgb(132,170,80)" stroke-width="1" opacity="0.75" />
			</g>
		</g>
		<g>
			<title> (ctg161_5)</title>
			<polygon class=" (ctg161_5)" points="187,25 165,25 165,10 135,40 165,70 165,55 187,55" fill="rgb(255,255,255)" fill-opacity="1.0" stroke="rgb(0,0,0)" stroke-width="2"  />
			<g>
				<title>ACT (PF01842)
"ACT domain"</title>
				<polygon class="PF01842" points="139,40 142,37 142,43" stroke-linejoin="round" width="6" height="24" fill="rgb(67,209,69)" stroke="rgb(53,167,55)" stroke-width="1" opacity="0.75" />
			</g>
			<g>
				<title>PGDH_inter (PF19304)
"D-3-phosphoglycerate dehydrogenase intervening domain"</title>
				<polygon class="PF19304" points="143,36 151,28 154,28 154,52 151,52 143,44" stroke-linejoin="round" width="11" height="24" fill="rgb(51,204,180)" stroke="rgb(40,163,144)" stroke-width="1" opacity="0.75" />
			</g>
			<g>
				<title>2-Hacid_dh_C (PF02826)
"D-isomer specific 2-hydroxyacid dehydrogenase, NAD binding domain"</title>
				<rect class="PF02826" x="159" y="28" stroke-linejoin="round" width="17" height="24" fill="rgb(192,197,93)" stroke="rgb(153,157,74)" stroke-width="1" opacity="0.75" />
			</g>
		</g>
		<g>
			<title> (ctg161_6)</title>
			<polygon class=" (ctg161_6)" points="203,25 217,25 217,10 247,40 217,70 217,55 203,55" fill="rgb(255,255,255)" fill-opacity="1.0" stroke="rgb(0,0,0)" stroke-width="2"  />
			<g>
				<title>Tnp_DNA_bind (PF14706)
"Transposase DNA-binding"</title>
				<rect class="PF14706" x="204" y="28" stroke-linejoin="round" width="5" height="24" fill="rgb(89,212,164)" stroke="rgb(71,169,131)" stroke-width="1" opacity="0.75" />
			</g>
		</g>
		<g>
			<title> (ctg161_7)</title>
			<polygon class=" (ctg161_7)" points="246,10 251,40 246,70" fill="rgb(255,255,255)" fill-opacity="1.0" stroke="rgb(0,0,0)" stroke-width="2"  />
		</g>
		<g>
			<title> (ctg161_8)</title>
			<polygon class=" (ctg161_8)" points="259,10 282,40 259,70" fill="rgb(255,255,255)" fill-opacity="1.0" stroke="rgb(0,0,0)" stroke-width="2"  />
			<g>
				<title>Pirin (PF02678)
"Pirin"</title>
				<polygon class="PF02678" points="259,28 269,28 270,30 270,50 269,52 259,52" stroke-linejoin="round" width="11" height="24" fill="rgb(139,213,61)" stroke="rgb(111,170,48)" stroke-width="1" opacity="0.75" />
			</g>
			<g>
				<title>Pirin_C_2 (PF17954)
"Quercetinase C-terminal cupin domain"</title>
				<polygon class="PF17954" points="273,34 278,40 273,46" stroke-linejoin="round" width="8" height="24" fill="rgb(224,140,102)" stroke="rgb(179,112,81)" stroke-width="1" opacity="0.75" />
			</g>
		</g>
		<g>
			<title> (ctg161_9)</title>
			<polygon class=" (ctg161_9)" points="296,40 303,10 303,70" fill="rgb(255,255,255)" fill-opacity="1.0" stroke="rgb(0,0,0)" stroke-width="2"  />
		</g>
		<g>
			<title> (ctg161_10)</title>
			<polygon class=" (ctg161_10)" points="305,10 317,40 305,70" fill="rgb(255,255,255)" fill-opacity="1.0" stroke="rgb(0,0,0)" stroke-width="2"  />
		</g>
		<g>
			<title> (ctg161_11)</title>
			<polygon class=" (ctg161_11)" points="359,25 358,25 358,10 328,40 358,70 358,55 359,55" fill="rgb(255,255,255)" fill-opacity="1.0" stroke="rgb(0,0,0)" stroke-width="2"  />
			<g>
				<title>SQS_PSY (PF00494)
"Squalene/phytoene synthase"</title>
				<polygon class="PF00494" points="332,40 344,28 355,28 355,52 344,52" stroke-linejoin="round" width="26" height="24" fill="rgb(178,91,49)" stroke="rgb(142,72,39)" stroke-width="1" opacity="0.75" />
			</g>
		</g>
		<g>
			<title> (ctg161_12)</title>
			<polygon class=" (ctg161_12)" points="409,25 392,25 392,10 362,40 392,70 392,55 409,55" fill="rgb(255,255,255)" fill-opacity="1.0" stroke="rgb(0,0,0)" stroke-width="2"  />
			<g>
				<title>Amino_oxidase (PF01593)
"Flavin containing amine oxidoreductase"</title>
				<polygon class="PF01593" points="366,40 378,28 408,28 408,52 378,52" stroke-linejoin="round" width="44" height="24" fill="rgb(184,74,52)" stroke="rgb(147,59,41)" stroke-width="1" opacity="0.75" />
			</g>
		</g>
		<g>
			<title> (ctg161_13)</title>
			<polygon class=" (ctg161_13)" points="423,25 485,25 485,10 515,40 485,70 485,55 423,55" fill="rgb(255,255,255)" fill-opacity="1.0" stroke="rgb(0,0,0)" stroke-width="2"  />
			<g>
				<title>Cation_ATPase_N (PF00690)
"Cation transporter/ATPase, N-terminus"</title>
				<rect class="PF00690" x="424" y="28" stroke-linejoin="round" width="6" height="24" fill="rgb(174,102,225)" stroke="rgb(139,81,180)" stroke-width="1" opacity="0.75" />
			</g>
			<g>
				<title>E1-E2_ATPase (PF00122)
"E1-E2 ATPase"</title>
				<rect class="PF00122" x="436" y="28" stroke-linejoin="round" width="19" height="24" fill="rgb(149,204,70)" stroke="rgb(119,163,56)" stroke-width="1" opacity="0.75" />
			</g>
			<g>
				<title>Hydrolase (PF00702)
"haloacid dehalogenase-like hydrolase"</title>
				<rect class="PF00702" x="457" y="28" stroke-linejoin="round" width="32" height="24" fill="rgb(68,220,102)" stroke="rgb(54,176,81)" stroke-width="1" opacity="0.75" />
			</g>
			<g>
				<title>Cation_ATPase_C (PF00689)
"Cation transporting ATPase, C-terminus"</title>
				<polygon class="PF00689" points="497,28 499,28 511,40 499,52 497,52" stroke-linejoin="round" width="17" height="24" fill="rgb(76,203,161)" stroke="rgb(60,162,128)" stroke-width="1" opacity="0.75" />
			</g>
		</g>
		<g>
			<title> (ctg161_14)</title>
			<polygon class=" (ctg161_14)" points="515,25 545,25 545,10 575,40 545,70 545,55 515,55" fill="rgb(255,255,255)" fill-opacity="1.0" stroke="rgb(0,0,0)" stroke-width="2"  />
			<g>
				<title>CitMHS (PF03600)
"Citrate transporter"</title>
				<polygon class="PF03600" points="516,28 558,28 568,38 568,42 558,52 516,52" stroke-linejoin="round" width="52" height="24" fill="rgb(75,203,220)" stroke="rgb(60,162,176)" stroke-width="1" opacity="0.75" />
			</g>
		</g>
		<g>
			<title> (ctg161_15)</title>
			<polygon class=" (ctg161_15)" points="577,40 594,10 594,70" fill="rgb(255,255,255)" fill-opacity="1.0" stroke="rgb(0,0,0)" stroke-width="2"  />
			<g>
				<title>TPR_12 (PF13424)
"Tetratricopeptide repeat"</title>
				<polygon class="PF13424" points="582,37 587,28 589,28 589,52 587,52 582,43" stroke-linejoin="round" width="7" height="24" fill="rgb(147,215,101)" stroke="rgb(117,172,80)" stroke-width="1" opacity="0.75" />
			</g>
		</g>
		<g>
			<title> (ctg161_16)</title>
			<polygon class=" (ctg161_16)" points="600,40 605,10 605,70" fill="rgb(255,255,255)" fill-opacity="1.0" stroke="rgb(0,0,0)" stroke-width="2"  />
		</g>
		<g>
			<title> (ctg161_17)</title>
			<polygon class=" (ctg161_17)" points="605,40 631,10 631,70" fill="rgb(255,255,255)" fill-opacity="1.0" stroke="rgb(0,0,0)" stroke-width="2"  />
			<g>
				<title>SBP_bac_3 (PF00497)
"Bacterial extracellular solute-binding proteins, family 3"</title>
				<polygon class="PF00497" points="609,40 619,28 627,28 627,52 619,52" stroke-linejoin="round" width="22" height="24" fill="rgb(186,76,141)" stroke="rgb(148,60,112)" stroke-width="1" opacity="0.75" />
			</g>
		</g>
		<g>
			<title> (ctg161_18)</title>
			<polygon class=" (ctg161_18)" points="662,25 661,25 661,10 631,40 661,70 661,55 662,55" fill="rgb(255,255,255)" fill-opacity="1.0" stroke="rgb(0,0,0)" stroke-width="2"  />
			<g>
				<title>GGDEF (PF00990)
"Diguanylate cyclase, GGDEF domain"</title>
				<polygon class="PF00990" points="635,40 646,29 646,51" stroke-linejoin="round" width="15" height="24" fill="rgb(62,170,199)" stroke="rgb(49,135,159)" stroke-width="1" opacity="0.75" />
			</g>
			<g>
				<title>Response_reg (PF00072)
"Response regulator receiver domain"</title>
				<rect class="PF00072" x="649" y="28" stroke-linejoin="round" width="11" height="24" fill="rgb(100,107,203)" stroke="rgb(80,85,162)" stroke-width="1" opacity="0.75" />
			</g>
		</g>
	</g>
</svg>
