<svg version="1.1" baseProfile="full" xmlns="http://www.w3.org/2000/svg" width="208.46666666666667" height="80">
	<g>
		<line x1="10" y1="40.0" x2="198.46666666666667" y2="40.0" style="stroke:rgb(70,70,70); stroke-width:3 "/>
		<g>
			<title> (ctg114_1)</title>
			<polygon class=" (ctg114_1)" points="48,25 40,25 40,10 10,40 40,70 40,55 48,55" fill="rgb(255,255,255)" fill-opacity="1.0" stroke="rgb(0,0,0)" stroke-width="2"  />
			<g>
				<title>OrfB_Zn_ribbon (PF07282)
"Putative transposase DNA-binding domain"</title>
				<polygon class="PF07282" points="14,40 17,37 17,43" stroke-linejoin="round" width="7" height="24" fill="rgb(188,84,136)" stroke="rgb(150,67,108)" stroke-width="1" opacity="0.75" />
			</g>
			<g>
				<title>OrfB_IS605 (PF01385)
"Probable transposase"</title>
				<polygon class="PF01385" points="19,35 26,28 30,28 30,52 26,52 19,45" stroke-linejoin="round" width="11" height="24" fill="rgb(95,115,208)" stroke="rgb(76,92,166)" stroke-width="1" opacity="0.75" />
			</g>
		</g>
		<g>
			<title> (ctg114_2)</title>
			<polygon class=" (ctg114_2)" points="47,40 59,10 59,70" fill="rgb(255,255,255)" fill-opacity="1.0" stroke="rgb(0,0,0)" stroke-width="2"  />
			<g>
				<title>Resolvase (PF00239)
"Resolvase, N terminal domain"</title>
				<polygon class="PF00239" points="50,40 55,28 59,28 59,52 55,52" stroke-linejoin="round" width="11" height="24" fill="rgb(99,177,201)" stroke="rgb(79,141,160)" stroke-width="1" opacity="0.75" />
			</g>
		</g>
		<g>
			<title> (ctg114_3)</title>
			<polygon class=" (ctg114_3)" points="147,25 111,25 111,10 81,40 111,70 111,55 147,55" fill="rgb(255,255,255)" fill-opacity="1.0" stroke="rgb(0,0,0)" stroke-width="2"  />
			<g>
				<title>ABC_tran (PF00005)
"ABC transporter"</title>
				<polygon class="PF00005" points="95,30 97,28 108,28 108,52 97,52 95,50" stroke-linejoin="round" width="13" height="24" fill="rgb(129,201,63)" stroke="rgb(103,160,50)" stroke-width="1" opacity="0.75" />
			</g>
			<g>
				<title>ABC_membrane_2 (PF06472)
"ABC transporter transmembrane region 2"</title>
				<rect class="PF06472" x="118" y="28" stroke-linejoin="round" width="25" height="24" fill="rgb(120,179,45)" stroke="rgb(96,143,36)" stroke-width="1" opacity="0.75" />
			</g>
		</g>
		<g>
			<title> (ctg114_4)</title>
			<polygon class=" (ctg114_4)" points="197,25 180,25 180,10 150,40 180,70 180,55 197,55" fill="rgb(255,255,255)" fill-opacity="1.0" stroke="rgb(0,0,0)" stroke-width="2"  />
			<g>
				<title>Thioesterase (PF00975)
"Thioesterase domain"</title>
				<polygon class="PF00975" points="154,40 166,28 175,28 175,52 166,52" stroke-linejoin="round" width="25" height="24" fill="rgb(207,80,138)" stroke="rgb(165,63,110)" stroke-width="1" opacity="0.75" />
			</g>
			<g>
				<title>PP-binding (PF00550)
"Phosphopantetheine attachment site"</title>
				<rect class="PF00550" x="178" y="28" stroke-linejoin="round" width="6" height="24" fill="rgb(103,191,88)" stroke="rgb(82,152,70)" stroke-width="1" opacity="0.75" />
			</g>
			<g>
				<title>AMP-binding_C (PF13193)
"AMP-binding enzyme C-terminal domain"</title>
				<rect class="PF13193" x="187" y="28" stroke-linejoin="round" width="7" height="24" fill="rgb(182,50,118)" stroke="rgb(145,39,94)" stroke-width="1" opacity="0.75" />
			</g>
		</g>
	</g>
</svg>
