<svg version="1.1" baseProfile="full" xmlns="http://www.w3.org/2000/svg" width="137.53333333333333" height="80">
	<g>
		<line x1="10" y1="40.0" x2="127.53333333333333" y2="40.0" style="stroke:rgb(70,70,70); stroke-width:3 "/>
		<g>
			<title> (ctg499_1)</title>
			<polygon class=" (ctg499_1)" points="51,25 40,25 40,10 10,40 40,70 40,55 51,55" fill="rgb(255,255,255)" fill-opacity="1.0" stroke="rgb(0,0,0)" stroke-width="2"  />
			<g>
				<title>Condensation (PF00668)
"Condensation domain"</title>
				<polygon class="PF00668" points="14,40 26,28 43,28 43,52 26,52" stroke-linejoin="round" width="33" height="24" fill="rgb(224,184,98)" stroke="rgb(179,147,78)" stroke-width="1" opacity="0.75" />
			</g>
			<g>
				<title>TubC_N (PF18563)
"TubC N-terminal docking domain"</title>
				<rect class="PF18563" x="45" y="28" stroke-linejoin="round" width="5" height="24" fill="rgb(95,217,77)" stroke="rgb(75,173,61)" stroke-width="1" opacity="0.75" />
			</g>
		</g>
		<g>
			<title> (ctg499_2)</title>
			<polygon class=" (ctg499_2)" points="127,25 81,25 81,10 51,40 81,70 81,55 127,55" fill="rgb(255,255,255)" fill-opacity="1.0" stroke="rgb(0,0,0)" stroke-width="2"  />
			<g>
				<title>PP-binding (PF00550)
"Phosphopantetheine attachment site"</title>
				<polygon class="PF00550" points="55,40 59,36 59,44" stroke-linejoin="round" width="6" height="24" fill="rgb(103,191,88)" stroke="rgb(82,152,70)" stroke-width="1" opacity="0.75" />
			</g>
			<g>
				<title>Methyltransf_31 (PF13847)
"Methyltransferase domain"</title>
				<rect class="PF13847" x="85" y="28" stroke-linejoin="round" width="15" height="24" fill="rgb(214,74,181)" stroke="rgb(171,59,144)" stroke-width="1" opacity="0.75" />
			</g>
			<g>
				<title>AMP-binding (PF00501)
"AMP-binding enzyme"</title>
				<rect class="PF00501" x="111" y="28" stroke-linejoin="round" width="14" height="24" fill="rgb(60,217,223)" stroke="rgb(48,173,178)" stroke-width="1" opacity="0.75" />
			</g>
		</g>
	</g>
</svg>
