<svg version="1.1" baseProfile="full" xmlns="http://www.w3.org/2000/svg" width="620.5" height="80">
	<g>
		<line x1="10" y1="40.0" x2="610.5" y2="40.0" style="stroke:rgb(70,70,70); stroke-width:3 "/>
		<g>
			<title> (ctg152_1)</title>
			<polygon class=" (ctg152_1)" points="14,40 41,10 41,70" fill="rgb(255,255,255)" fill-opacity="1.0" stroke="rgb(0,0,0)" stroke-width="2"  />
		</g>
		<g>
			<title> (ctg152_2)</title>
			<polygon class=" (ctg152_2)" points="45,25 46,25 46,10 76,40 46,70 46,55 45,55" fill="rgb(255,255,255)" fill-opacity="1.0" stroke="rgb(0,0,0)" stroke-width="2"  />
			<g>
				<title>NAD_binding_8 (PF13450)
"NAD(P)-binding Rossmann-like domain"</title>
				<rect class="PF13450" x="46" y="28" stroke-linejoin="round" width="6" height="24" fill="rgb(91,180,227)" stroke="rgb(72,144,181)" stroke-width="1" opacity="0.75" />
			</g>
		</g>
		<g>
			<title> (ctg152_3)</title>
			<polygon class=" (ctg152_3)" points="80,10 88,40 80,70" fill="rgb(255,255,255)" fill-opacity="1.0" stroke="rgb(0,0,0)" stroke-width="2"  />
		</g>
		<g>
			<title> (ctg152_4)</title>
			<polygon class=" (ctg152_4)" points="96,25 134,25 134,10 164,40 134,70 134,55 96,55" fill="rgb(255,255,255)" fill-opacity="1.0" stroke="rgb(0,0,0)" stroke-width="2"  />
			<g>
				<title>ABC_membrane_2 (PF06472)
"ABC transporter transmembrane region 2"</title>
				<rect class="PF06472" x="101" y="28" stroke-linejoin="round" width="25" height="24" fill="rgb(120,179,45)" stroke="rgb(96,143,36)" stroke-width="1" opacity="0.75" />
			</g>
			<g>
				<title>ABC_tran (PF00005)
"ABC transporter"</title>
				<polygon class="PF00005" points="136,28 148,28 149,29 149,51 148,52 136,52" stroke-linejoin="round" width="13" height="24" fill="rgb(129,201,63)" stroke="rgb(103,160,50)" stroke-width="1" opacity="0.75" />
			</g>
		</g>
		<g>
			<title> (ctg152_5)</title>
			<polygon class=" (ctg152_5)" points="171,10 188,40 171,70" fill="rgb(255,255,255)" fill-opacity="1.0" stroke="rgb(0,0,0)" stroke-width="2"  />
			<g>
				<title>Acetyltransf_3 (PF13302)
"Acetyltransferase (GNAT) domain"</title>
				<polygon class="PF13302" points="172,28 178,28 185,40 178,52 172,52" stroke-linejoin="round" width="14" height="24" fill="rgb(105,146,215)" stroke="rgb(84,116,172)" stroke-width="1" opacity="0.75" />
			</g>
		</g>
		<g>
			<title> (ctg152_6)</title>
			<polygon class=" (ctg152_6)" points="189,10 196,40 189,70" fill="rgb(255,255,255)" fill-opacity="1.0" stroke="rgb(0,0,0)" stroke-width="2"  />
		</g>
		<g>
			<title> (ctg152_7)</title>
			<polygon class=" (ctg152_7)" points="229,25 225,25 225,10 195,40 225,70 225,55 229,55" fill="rgb(255,255,255)" fill-opacity="1.0" stroke="rgb(0,0,0)" stroke-width="2"  />
		</g>
		<g>
			<title> (ctg152_8)</title>
			<polygon class=" (ctg152_8)" points="262,25 260,25 260,10 230,40 260,70 260,55 262,55" fill="rgb(255,255,255)" fill-opacity="1.0" stroke="rgb(0,0,0)" stroke-width="2"  />
		</g>
		<g>
			<title> (ctg152_9)</title>
			<polygon class=" (ctg152_9)" points="272,40 277,10 277,70" fill="rgb(255,255,255)" fill-opacity="1.0" stroke="rgb(0,0,0)" stroke-width="2"  />
			<g>
				<title>Inhibitor_I10 (PF12559)
"Serine endopeptidase inhibitors"</title>
				<polygon class="PF12559" points="275,40 276,34 276,46" stroke-linejoin="round" width="4" height="24" fill="rgb(179,147,51)" stroke="rgb(143,117,40)" stroke-width="1" opacity="0.75" />
			</g>
		</g>
		<g>
			<title> (ctg152_10)</title>
			<polygon class=" (ctg152_10)" points="278,40 282,10 282,70" fill="rgb(255,255,255)" fill-opacity="1.0" stroke="rgb(0,0,0)" stroke-width="2"  />
		</g>
		<g>
			<title> (ctg152_11)</title>
			<polygon class=" (ctg152_11)" points="341,25 332,25 332,10 302,40 332,70 332,55 341,55" fill="rgb(255,255,255)" fill-opacity="1.0" stroke="rgb(0,0,0)" stroke-width="2"  />
			<g>
				<title>FTSW_RODA_SPOVE (PF01098)
"Cell cycle protein"</title>
				<polygon class="PF01098" points="306,40 318,28 324,28 324,52 318,52" stroke-linejoin="round" width="22" height="24" fill="rgb(57,114,205)" stroke="rgb(45,91,164)" stroke-width="1" opacity="0.75" />
			</g>
		</g>
		<g>
			<title> (ctg152_12)</title>
			<polygon class=" (ctg152_12)" points="389,25 383,25 383,10 353,40 383,70 383,55 389,55" fill="rgb(255,255,255)" fill-opacity="1.0" stroke="rgb(0,0,0)" stroke-width="2"  />
			<g>
				<title>ParA (PF10609)
"NUBPL iron-transfer P-loop NTPase"</title>
				<polygon class="PF10609" points="357,40 369,28 378,28 378,52 369,52" stroke-linejoin="round" width="24" height="24" fill="rgb(107,194,90)" stroke="rgb(85,155,72)" stroke-width="1" opacity="0.75" />
			</g>
			<g>
				<title>FeS_assembly_P (PF01883)
"Iron-sulfur cluster assembly protein"</title>
				<rect class="PF01883" x="380" y="28" stroke-linejoin="round" width="7" height="24" fill="rgb(171,209,57)" stroke="rgb(136,167,45)" stroke-width="1" opacity="0.75" />
			</g>
		</g>
		<g>
			<title> (ctg152_13)</title>
			<polygon class=" (ctg152_13)" points="393,25 396,25 396,10 426,40 396,70 396,55 393,55" fill="rgb(255,255,255)" fill-opacity="1.0" stroke="rgb(0,0,0)" stroke-width="2"  />
		</g>
		<g>
			<title> (ctg152_14)</title>
			<polygon class=" (ctg152_14)" points="428,10 442,40 428,70" fill="rgb(255,255,255)" fill-opacity="1.0" stroke="rgb(0,0,0)" stroke-width="2"  />
		</g>
		<g>
			<title> (ctg152_15)</title>
			<polygon class=" (ctg152_15)" points="445,40 471,10 471,70" fill="rgb(255,255,255)" fill-opacity="1.0" stroke="rgb(0,0,0)" stroke-width="2"  />
			<g>
				<title>MOSC (PF03473)
"MOSC domain"</title>
				<polygon class="PF03473" points="449,40 457,31 457,49" stroke-linejoin="round" width="12" height="24" fill="rgb(96,194,162)" stroke="rgb(76,155,129)" stroke-width="1" opacity="0.75" />
			</g>
			<g>
				<title>MOSC_N (PF03476)
"MOSC N-terminal beta barrel domain"</title>
				<polygon class="PF03476" points="460,28 460,28 471,28 471,52 460,52 460,52" stroke-linejoin="round" width="11" height="24" fill="rgb(209,103,209)" stroke="rgb(167,82,167)" stroke-width="1" opacity="0.75" />
			</g>
		</g>
		<g>
			<title> (ctg152_16)</title>
			<polygon class=" (ctg152_16)" points="513,25 501,25 501,10 471,40 501,70 501,55 513,55" fill="rgb(255,255,255)" fill-opacity="1.0" stroke="rgb(0,0,0)" stroke-width="2"  />
			<g>
				<title>Glycos_transf_1 (PF00534)
"Glycosyl transferases group 1"</title>
				<polygon class="PF00534" points="475,40 487,28 492,28 492,52 487,52" stroke-linejoin="round" width="19" height="24" fill="rgb(228,92,150)" stroke="rgb(182,73,119)" stroke-width="1" opacity="0.75" />
			</g>
		</g>
		<g>
			<title> (ctg152_17)</title>
			<polygon class=" (ctg152_17)" points="516,10 522,40 516,70" fill="rgb(255,255,255)" fill-opacity="1.0" stroke="rgb(0,0,0)" stroke-width="2"  />
		</g>
		<g>
			<title> (ctg152_18)</title>
			<polygon class=" (ctg152_18)" points="522,25 528,25 528,10 558,40 528,70 528,55 522,55" fill="rgb(255,255,255)" fill-opacity="1.0" stroke="rgb(0,0,0)" stroke-width="2"  />
		</g>
	</g>
</svg>
