<svg version="1.1" baseProfile="full" xmlns="http://www.w3.org/2000/svg" width="570.5" height="80">
	<g>
		<line x1="10" y1="40.0" x2="560.5" y2="40.0" style="stroke:rgb(70,70,70); stroke-width:3 "/>
		<g>
			<title> (ctg725_1)</title>
			<polygon class=" (ctg725_1)" points="10,10 14,40 10,70" fill="rgb(255,255,255)" fill-opacity="1.0" stroke="rgb(0,0,0)" stroke-width="2"  />
		</g>
		<g>
			<title> (ctg725_2)</title>
			<polygon class=" (ctg725_2)" points="24,10 35,40 24,70" fill="rgb(255,255,255)" fill-opacity="1.0" stroke="rgb(0,0,0)" stroke-width="2"  />
		</g>
		<g>
			<title> (ctg725_3)</title>
			<polygon class=" (ctg725_3)" points="45,40 74,10 74,70" fill="rgb(255,255,255)" fill-opacity="1.0" stroke="rgb(0,0,0)" stroke-width="2"  />
			<g>
				<title>DDE_Tnp_4 (PF13359)
"DDE superfamily endonuclease"</title>
				<polygon class="PF13359" points="49,40 61,28 61,28 61,52 61,52" stroke-linejoin="round" width="15" height="24" fill="rgb(89,93,205)" stroke="rgb(71,74,164)" stroke-width="1" opacity="0.75" />
			</g>
			<g>
				<title>HTH_Tnp_4 (PF13613)
"Helix-turn-helix of DDE superfamily endonuclease"</title>
				<rect class="PF13613" x="63" y="28" stroke-linejoin="round" width="5" height="24" fill="rgb(71,220,91)" stroke="rgb(56,176,72)" stroke-width="1" opacity="0.75" />
			</g>
		</g>
		<g>
			<title> (ctg725_4)</title>
			<polygon class=" (ctg725_4)" points="79,40 96,10 96,70" fill="rgb(255,255,255)" fill-opacity="1.0" stroke="rgb(0,0,0)" stroke-width="2"  />
			<g>
				<title>CheW (PF01584)
"CheW-like domain"</title>
				<polygon class="PF01584" points="82,40 89,28 93,28 93,52 89,52" stroke-linejoin="round" width="14" height="24" fill="rgb(141,221,87)" stroke="rgb(112,176,69)" stroke-width="1" opacity="0.75" />
			</g>
		</g>
		<g>
			<title> (ctg725_5)</title>
			<polygon class=" (ctg725_5)" points="100,40 112,10 112,70" fill="rgb(255,255,255)" fill-opacity="1.0" stroke="rgb(0,0,0)" stroke-width="2"  />
			<g>
				<title>Response_reg (PF00072)
"Response regulator receiver domain"</title>
				<polygon class="PF00072" points="103,40 108,28 111,28 111,52 108,52" stroke-linejoin="round" width="11" height="24" fill="rgb(100,107,203)" stroke="rgb(80,85,162)" stroke-width="1" opacity="0.75" />
			</g>
		</g>
		<g>
			<title> (ctg725_6)</title>
			<polygon class=" (ctg725_6)" points="122,40 143,10 143,70" fill="rgb(255,255,255)" fill-opacity="1.0" stroke="rgb(0,0,0)" stroke-width="2"  />
			<g>
				<title>OrfB_Zn_ribbon (PF07282)
"Putative transposase DNA-binding domain"</title>
				<polygon class="PF07282" points="126,40 130,34 130,46" stroke-linejoin="round" width="7" height="24" fill="rgb(188,84,136)" stroke="rgb(150,67,108)" stroke-width="1" opacity="0.75" />
			</g>
			<g>
				<title>OrfB_IS605 (PF01385)
"Probable transposase"</title>
				<polygon class="PF01385" points="131,33 135,28 141,28 141,52 135,52 131,47" stroke-linejoin="round" width="10" height="24" fill="rgb(95,115,208)" stroke="rgb(76,92,166)" stroke-width="1" opacity="0.75" />
			</g>
		</g>
		<g>
			<title> (ctg725_7)</title>
			<polygon class=" (ctg725_7)" points="142,40 158,10 158,70" fill="rgb(255,255,255)" fill-opacity="1.0" stroke="rgb(0,0,0)" stroke-width="2"  />
		</g>
		<g>
			<title> (ctg725_8)</title>
			<polygon class=" (ctg725_8)" points="180,40 187,10 187,70" fill="rgb(255,255,255)" fill-opacity="1.0" stroke="rgb(0,0,0)" stroke-width="2"  />
		</g>
		<g>
			<title> (ctg725_9)</title>
			<polygon class=" (ctg725_9)" points="190,25 214,25 214,10 244,40 214,70 214,55 190,55" fill="rgb(255,255,255)" fill-opacity="1.0" stroke="rgb(0,0,0)" stroke-width="2"  />
		</g>
		<g>
			<title> (ctg725_10)</title>
			<polygon class=" (ctg725_10)" points="259,10 263,40 259,70" fill="rgb(255,255,255)" fill-opacity="1.0" stroke="rgb(0,0,0)" stroke-width="2"  />
		</g>
		<g>
			<title> (ctg725_11)</title>
			<polygon class=" (ctg725_11)" points="268,10 275,40 268,70" fill="rgb(255,255,255)" fill-opacity="1.0" stroke="rgb(0,0,0)" stroke-width="2"  />
		</g>
		<g>
			<title> (ctg725_12)</title>
			<polygon class=" (ctg725_12)" points="284,10 311,40 284,70" fill="rgb(255,255,255)" fill-opacity="1.0" stroke="rgb(0,0,0)" stroke-width="2"  />
			<g>
				<title>SQS_PSY (PF00494)
"Squalene/phytoene synthase"</title>
				<polygon class="PF00494" points="285,28 295,28 304,37 304,43 295,52 285,52" stroke-linejoin="round" width="19" height="24" fill="rgb(178,91,49)" stroke="rgb(142,72,39)" stroke-width="1" opacity="0.75" />
			</g>
		</g>
		<g>
			<title> (ctg725_13)</title>
			<polygon class=" (ctg725_13)" points="314,40 330,10 330,70" fill="rgb(255,255,255)" fill-opacity="1.0" stroke="rgb(0,0,0)" stroke-width="2"  />
			<g>
				<title>Cytochrom_B_C (PF00032)
"Cytochrome b(C-terminal)/b6/petD"</title>
				<polygon class="PF00032" points="317,40 323,28 323,28 323,52 323,52" stroke-linejoin="round" width="9" height="24" fill="rgb(183,105,214)" stroke="rgb(146,84,171)" stroke-width="1" opacity="0.75" />
			</g>
		</g>
		<g>
			<title> (ctg725_14)</title>
			<polygon class=" (ctg725_14)" points="332,40 354,10 354,70" fill="rgb(255,255,255)" fill-opacity="1.0" stroke="rgb(0,0,0)" stroke-width="2"  />
			<g>
				<title>Cytochrome_B (PF00033)
"Cytochrome b/b6/petB"</title>
				<polygon class="PF00033" points="336,40 345,28 350,28 350,52 345,52" stroke-linejoin="round" width="18" height="24" fill="rgb(209,58,124)" stroke="rgb(167,46,99)" stroke-width="1" opacity="0.75" />
			</g>
		</g>
		<g>
			<title> (ctg725_15)</title>
			<polygon class=" (ctg725_15)" points="363,10 373,40 363,70" fill="rgb(255,255,255)" fill-opacity="1.0" stroke="rgb(0,0,0)" stroke-width="2"  />
		</g>
		<g>
			<title> (ctg725_16)</title>
			<polygon class=" (ctg725_16)" points="372,25 388,25 388,10 418,40 388,70 388,55 372,55" fill="rgb(255,255,255)" fill-opacity="1.0" stroke="rgb(0,0,0)" stroke-width="2"  />
			<g>
				<title>HTH_OrfB_IS605 (PF12323)
"Helix-turn-helix domain"</title>
				<rect class="PF12323" x="380" y="28" stroke-linejoin="round" width="4" height="24" fill="rgb(102,226,140)" stroke="rgb(81,180,112)" stroke-width="1" opacity="0.75" />
			</g>
			<g>
				<title>OrfB_Zn_ribbon (PF07282)
"Putative transposase DNA-binding domain"</title>
				<polygon class="PF07282" points="409,36 413,40 409,44" stroke-linejoin="round" width="6" height="24" fill="rgb(188,84,136)" stroke="rgb(150,67,108)" stroke-width="1" opacity="0.75" />
			</g>
		</g>
		<g>
			<title> (ctg725_17)</title>
			<polygon class=" (ctg725_17)" points="420,25 437,25 437,10 467,40 437,70 437,55 420,55" fill="rgb(255,255,255)" fill-opacity="1.0" stroke="rgb(0,0,0)" stroke-width="2"  />
			<g>
				<title>CP_ATPgrasp_2 (PF14403)
"Circularly permuted ATP-grasp type 2"</title>
				<polygon class="PF14403" points="427,28 451,28 463,40 451,52 427,52" stroke-linejoin="round" width="37" height="24" fill="rgb(80,222,92)" stroke="rgb(64,177,73)" stroke-width="1" opacity="0.75" />
			</g>
		</g>
		<g>
			<title> (ctg725_18)</title>
			<polygon class=" (ctg725_18)" points="471,25 474,25 474,10 504,40 474,70 474,55 471,55" fill="rgb(255,255,255)" fill-opacity="1.0" stroke="rgb(0,0,0)" stroke-width="2"  />
			<g>
				<title>Alpha-E (PF04168)
"A predicted alpha-helical domain with a conserved ER motif."</title>
				<polygon class="PF04168" points="471,28 488,28 500,40 488,52 471,52" stroke-linejoin="round" width="30" height="24" fill="rgb(190,83,80)" stroke="rgb(152,66,64)" stroke-width="1" opacity="0.75" />
			</g>
		</g>
		<g>
			<title> (ctg725_19)</title>
			<polygon class=" (ctg725_19)" points="505,10 533,40 505,70" fill="rgb(255,255,255)" fill-opacity="1.0" stroke="rgb(0,0,0)" stroke-width="2"  />
			<g>
				<title>Bact_transglu_N (PF08379)
"Bacterial transglutaminase-like N-terminal region"</title>
				<rect class="PF08379" x="505" y="28" stroke-linejoin="round" width="7" height="24" fill="rgb(224,108,64)" stroke="rgb(179,86,51)" stroke-width="1" opacity="0.75" />
			</g>
			<g>
				<title>Transglut_core (PF01841)
"Transglutaminase-like superfamily"</title>
				<polygon class="PF01841" points="517,28 517,28 527,38 527,42 517,52 517,52" stroke-linejoin="round" width="10" height="24" fill="rgb(208,223,79)" stroke="rgb(166,178,63)" stroke-width="1" opacity="0.75" />
			</g>
		</g>
		<g>
			<title> (ctg725_20)</title>
			<polygon class=" (ctg725_20)" points="534,10 545,40 534,70" fill="rgb(255,255,255)" fill-opacity="1.0" stroke="rgb(0,0,0)" stroke-width="2"  />
		</g>
		<g>
			<title> (ctg725_21)</title>
			<polygon class=" (ctg725_21)" points="552,40 559,10 559,70" fill="rgb(255,255,255)" fill-opacity="1.0" stroke="rgb(0,0,0)" stroke-width="2"  />
		</g>
	</g>
</svg>
