<svg version="1.1" baseProfile="full" xmlns="http://www.w3.org/2000/svg" width="429.93333333333334" height="80">
	<g>
		<line x1="10" y1="40.0" x2="419.93333333333334" y2="40.0" style="stroke:rgb(70,70,70); stroke-width:3 "/>
		<g>
			<title> (ctg216_1)</title>
			<polygon class=" (ctg216_1)" points="137,25 43,25 43,10 13,40 43,70 43,55 137,55" fill="rgb(255,255,255)" fill-opacity="1.0" stroke="rgb(0,0,0)" stroke-width="2"  />
			<g>
				<title>AMP-binding (PF00501)
"AMP-binding enzyme"</title>
				<polygon class="PF00501" points="17,40 27,30 27,50" stroke-linejoin="round" width="13" height="24" fill="rgb(60,217,223)" stroke="rgb(48,173,178)" stroke-width="1" opacity="0.75" />
			</g>
			<g>
				<title>Condensation (PF00668)
"Condensation domain"</title>
				<polygon class="PF00668" points="29,28 29,28 75,28 75,52 29,52 29,52" stroke-linejoin="round" width="46" height="24" fill="rgb(224,184,98)" stroke="rgb(179,147,78)" stroke-width="1" opacity="0.75" />
			</g>
			<g>
				<title>PP-binding (PF00550)
"Phosphopantetheine attachment site"</title>
				<rect class="PF00550" x="78" y="28" stroke-linejoin="round" width="6" height="24" fill="rgb(103,191,88)" stroke="rgb(82,152,70)" stroke-width="1" opacity="0.75" />
			</g>
			<g>
				<title>AMP-binding_C (PF13193)
"AMP-binding enzyme C-terminal domain"</title>
				<rect class="PF13193" x="87" y="28" stroke-linejoin="round" width="7" height="24" fill="rgb(182,50,118)" stroke="rgb(145,39,94)" stroke-width="1" opacity="0.75" />
			</g>
			<g>
				<title>AMP-binding (PF00501)
"AMP-binding enzyme"</title>
				<rect class="PF00501" x="95" y="28" stroke-linejoin="round" width="40" height="24" fill="rgb(60,217,223)" stroke="rgb(48,173,178)" stroke-width="1" opacity="0.75" />
			</g>
		</g>
		<g>
			<title> (ctg216_2)</title>
			<polygon class=" (ctg216_2)" points="154,25 163,25 163,10 193,40 163,70 163,55 154,55" fill="rgb(255,255,255)" fill-opacity="1.0" stroke="rgb(0,0,0)" stroke-width="2"  />
			<g>
				<title>HMGL-like (PF00682)
"HMGL-like"</title>
				<rect class="PF00682" x="154" y="28" stroke-linejoin="round" width="11" height="24" fill="rgb(84,228,141)" stroke="rgb(67,182,112)" stroke-width="1" opacity="0.75" />
			</g>
			<g>
				<title>HMGL-like (PF00682)
"HMGL-like"</title>
				<polygon class="PF00682" points="166,28 177,28 182,33 182,47 177,52 166,52" stroke-linejoin="round" width="16" height="24" fill="rgb(84,228,141)" stroke="rgb(67,182,112)" stroke-width="1" opacity="0.75" />
			</g>
		</g>
		<g>
			<title> (ctg216_3)</title>
			<polygon class=" (ctg216_3)" points="192,25 197,25 197,10 227,40 197,70 197,55 192,55" fill="rgb(255,255,255)" fill-opacity="1.0" stroke="rgb(0,0,0)" stroke-width="2"  />
			<g>
				<title>Iso_dh (PF00180)
"Isocitrate/isopropylmalate dehydrogenase"</title>
				<polygon class="PF00180" points="193,28 211,28 223,40 211,52 193,52" stroke-linejoin="round" width="33" height="24" fill="rgb(109,54,206)" stroke="rgb(87,43,164)" stroke-width="1" opacity="0.75" />
			</g>
		</g>
		<g>
			<title> (ctg216_4)</title>
			<polygon class=" (ctg216_4)" points="228,25 255,25 255,10 285,40 255,70 255,55 228,55" fill="rgb(255,255,255)" fill-opacity="1.0" stroke="rgb(0,0,0)" stroke-width="2"  />
			<g>
				<title>Aconitase_C (PF00694)
"Aconitase C-terminal domain"</title>
				<rect class="PF00694" x="233" y="28" stroke-linejoin="round" width="5" height="24" fill="rgb(63,185,92)" stroke="rgb(50,148,73)" stroke-width="1" opacity="0.75" />
			</g>
			<g>
				<title>Aconitase (PF00330)
"Aconitase family (aconitate hydratase)"</title>
				<polygon class="PF00330" points="242,28 269,28 281,40 269,52 242,52" stroke-linejoin="round" width="42" height="24" fill="rgb(180,189,85)" stroke="rgb(144,151,68)" stroke-width="1" opacity="0.75" />
			</g>
		</g>
		<g>
			<title> (ctg216_5)</title>
			<polygon class=" (ctg216_5)" points="369,25 333,25 333,10 303,40 333,70 333,55 369,55" fill="rgb(255,255,255)" fill-opacity="1.0" stroke="rgb(0,0,0)" stroke-width="2"  />
			<g>
				<title>ABC_tran (PF00005)
"ABC transporter"</title>
				<polygon class="PF00005" points="317,30 319,28 330,28 330,52 319,52 317,50" stroke-linejoin="round" width="13" height="24" fill="rgb(129,201,63)" stroke="rgb(103,160,50)" stroke-width="1" opacity="0.75" />
			</g>
			<g>
				<title>ABC_membrane_2 (PF06472)
"ABC transporter transmembrane region 2"</title>
				<rect class="PF06472" x="340" y="28" stroke-linejoin="round" width="25" height="24" fill="rgb(120,179,45)" stroke="rgb(96,143,36)" stroke-width="1" opacity="0.75" />
			</g>
		</g>
		<g>
			<title> (ctg216_6)</title>
			<polygon class=" (ctg216_6)" points="419,25 401,25 401,10 371,40 401,70 401,55 419,55" fill="rgb(255,255,255)" fill-opacity="1.0" stroke="rgb(0,0,0)" stroke-width="2"  />
			<g>
				<title>Thioesterase (PF00975)
"Thioesterase domain"</title>
				<polygon class="PF00975" points="375,40 387,28 396,28 396,52 387,52" stroke-linejoin="round" width="25" height="24" fill="rgb(207,80,138)" stroke="rgb(165,63,110)" stroke-width="1" opacity="0.75" />
			</g>
			<g>
				<title>PP-binding (PF00550)
"Phosphopantetheine attachment site"</title>
				<rect class="PF00550" x="399" y="28" stroke-linejoin="round" width="6" height="24" fill="rgb(103,191,88)" stroke="rgb(82,152,70)" stroke-width="1" opacity="0.75" />
			</g>
			<g>
				<title>AMP-binding_C (PF13193)
"AMP-binding enzyme C-terminal domain"</title>
				<rect class="PF13193" x="408" y="28" stroke-linejoin="round" width="7" height="24" fill="rgb(182,50,118)" stroke="rgb(145,39,94)" stroke-width="1" opacity="0.75" />
			</g>
		</g>
	</g>
</svg>
