<svg version="1.1" baseProfile="full" xmlns="http://www.w3.org/2000/svg" width="1407.3333333333333" height="80">
	<g>
		<line x1="10" y1="40.0" x2="1397.3333333333333" y2="40.0" style="stroke:rgb(70,70,70); stroke-width:3 "/>
		<g>
			<title> (ctg46_1)</title>
			<polygon class=" (ctg46_1)" points="23,40 49,10 49,70" fill="rgb(255,255,255)" fill-opacity="1.0" stroke="rgb(0,0,0)" stroke-width="2"  />
			<g>
				<title>SWIM (PF04434)
"SWIM zinc finger"</title>
				<polygon class="PF04434" points="35,31 37,28 39,28 39,52 37,52 35,49" stroke-linejoin="round" width="4" height="24" fill="rgb(76,197,68)" stroke="rgb(60,157,54)" stroke-width="1" opacity="0.75" />
			</g>
		</g>
		<g>
			<title> (ctg46_2)</title>
			<polygon class=" (ctg46_2)" points="67,25 179,25 179,10 209,40 179,70 179,55 67,55" fill="rgb(255,255,255)" fill-opacity="1.0" stroke="rgb(0,0,0)" stroke-width="2"  />
			<g>
				<title>AMP-binding (PF00501)
"AMP-binding enzyme"</title>
				<rect class="PF00501" x="85" y="28" stroke-linejoin="round" width="44" height="24" fill="rgb(60,217,223)" stroke="rgb(48,173,178)" stroke-width="1" opacity="0.75" />
			</g>
			<g>
				<title>KR (PF08659)
"KR domain"</title>
				<rect class="PF08659" x="166" y="28" stroke-linejoin="round" width="19" height="24" fill="rgb(66,209,188)" stroke="rgb(52,167,150)" stroke-width="1" opacity="0.75" />
			</g>
			<g>
				<title>PP-binding (PF00550)
"Phosphopantetheine attachment site"</title>
				<polygon class="PF00550" points="199,35 204,40 199,45" stroke-linejoin="round" width="6" height="24" fill="rgb(103,191,88)" stroke="rgb(82,152,70)" stroke-width="1" opacity="0.75" />
			</g>
		</g>
		<g>
			<title> (ctg46_3)</title>
			<polygon class=" (ctg46_3)" points="212,40 220,10 220,70" fill="rgb(255,255,255)" fill-opacity="1.0" stroke="rgb(0,0,0)" stroke-width="2"  />
		</g>
		<g>
			<title> (ctg46_4)</title>
			<polygon class=" (ctg46_4)" points="221,25 350,25 350,10 380,40 350,70 350,55 221,55" fill="rgb(255,255,255)" fill-opacity="1.0" stroke="rgb(0,0,0)" stroke-width="2"  />
			<g>
				<title>TubC_N (PF18563)
"TubC N-terminal docking domain"</title>
				<rect class="PF18563" x="221" y="28" stroke-linejoin="round" width="5" height="24" fill="rgb(95,217,77)" stroke="rgb(75,173,61)" stroke-width="1" opacity="0.75" />
			</g>
			<g>
				<title>Condensation (PF00668)
"Condensation domain"</title>
				<rect class="PF00668" x="228" y="28" stroke-linejoin="round" width="44" height="24" fill="rgb(224,184,98)" stroke="rgb(179,147,78)" stroke-width="1" opacity="0.75" />
			</g>
			<g>
				<title>AMP-binding (PF00501)
"AMP-binding enzyme"</title>
				<rect class="PF00501" x="274" y="28" stroke-linejoin="round" width="39" height="24" fill="rgb(60,217,223)" stroke="rgb(48,173,178)" stroke-width="1" opacity="0.75" />
			</g>
			<g>
				<title>AMP-binding_C (PF13193)
"AMP-binding enzyme C-terminal domain"</title>
				<rect class="PF13193" x="315" y="28" stroke-linejoin="round" width="7" height="24" fill="rgb(182,50,118)" stroke="rgb(145,39,94)" stroke-width="1" opacity="0.75" />
			</g>
			<g>
				<title>PP-binding (PF00550)
"Phosphopantetheine attachment site"</title>
				<rect class="PF00550" x="325" y="28" stroke-linejoin="round" width="6" height="24" fill="rgb(103,191,88)" stroke="rgb(82,152,70)" stroke-width="1" opacity="0.75" />
			</g>
			<g>
				<title>Condensation (PF00668)
"Condensation domain"</title>
				<polygon class="PF00668" points="333,28 363,28 375,40 363,52 333,52" stroke-linejoin="round" width="45" height="24" fill="rgb(224,184,98)" stroke="rgb(179,147,78)" stroke-width="1" opacity="0.75" />
			</g>
		</g>
		<g>
			<title> (ctg46_5)</title>
			<polygon class=" (ctg46_5)" points="382,25 386,25 386,10 416,40 386,70 386,55 382,55" fill="rgb(255,255,255)" fill-opacity="1.0" stroke="rgb(0,0,0)" stroke-width="2"  />
			<g>
				<title>FMN_dh (PF01070)
"FMN-dependent dehydrogenase"</title>
				<rect class="PF01070" x="382" y="28" stroke-linejoin="round" width="10" height="24" fill="rgb(59,82,204)" stroke="rgb(47,65,163)" stroke-width="1" opacity="0.75" />
			</g>
			<g>
				<title>FMN_dh (PF01070)
"FMN-dependent dehydrogenase"</title>
				<polygon class="PF01070" points="396,28 400,28 412,40 400,52 396,52" stroke-linejoin="round" width="19" height="24" fill="rgb(59,82,204)" stroke="rgb(47,65,163)" stroke-width="1" opacity="0.75" />
			</g>
		</g>
		<g>
			<title> (ctg46_6)</title>
			<polygon class=" (ctg46_6)" points="416,10 437,40 416,70" fill="rgb(255,255,255)" fill-opacity="1.0" stroke="rgb(0,0,0)" stroke-width="2"  />
		</g>
		<g>
			<title> (ctg46_7)</title>
			<polygon class=" (ctg46_7)" points="441,10 461,40 441,70" fill="rgb(255,255,255)" fill-opacity="1.0" stroke="rgb(0,0,0)" stroke-width="2"  />
			<g>
				<title>Cupin_2 (PF07883)
"Cupin domain"</title>
				<rect class="PF07883" x="444" y="28" stroke-linejoin="round" width="6" height="24" fill="rgb(211,192,74)" stroke="rgb(168,153,59)" stroke-width="1" opacity="0.75" />
			</g>
		</g>
		<g>
			<title> (ctg46_8)</title>
			<polygon class=" (ctg46_8)" points="463,10 489,40 463,70" fill="rgb(255,255,255)" fill-opacity="1.0" stroke="rgb(0,0,0)" stroke-width="2"  />
			<g>
				<title>adh_short_C2 (PF13561)
"Enoyl-(Acyl carrier protein) reductase"</title>
				<polygon class="PF13561" points="464,28 474,28 485,40 474,52 464,52" stroke-linejoin="round" width="24" height="24" fill="rgb(73,205,127)" stroke="rgb(58,164,101)" stroke-width="1" opacity="0.75" />
			</g>
		</g>
		<g>
			<title> (ctg46_9)</title>
			<polygon class=" (ctg46_9)" points="491,10 503,40 491,70" fill="rgb(255,255,255)" fill-opacity="1.0" stroke="rgb(0,0,0)" stroke-width="2"  />
		</g>
		<g>
			<title> (ctg46_10)</title>
			<polygon class=" (ctg46_10)" points="507,25 586,25 586,10 616,40 586,70 586,55 507,55" fill="rgb(255,255,255)" fill-opacity="1.0" stroke="rgb(0,0,0)" stroke-width="2"  />
			<g>
				<title>Condensation (PF00668)
"Condensation domain"</title>
				<rect class="PF00668" x="508" y="28" stroke-linejoin="round" width="44" height="24" fill="rgb(224,184,98)" stroke="rgb(179,147,78)" stroke-width="1" opacity="0.75" />
			</g>
			<g>
				<title>AMP-binding (PF00501)
"AMP-binding enzyme"</title>
				<rect class="PF00501" x="555" y="28" stroke-linejoin="round" width="40" height="24" fill="rgb(60,217,223)" stroke="rgb(48,173,178)" stroke-width="1" opacity="0.75" />
			</g>
			<g>
				<title>AMP-binding_C (PF13193)
"AMP-binding enzyme C-terminal domain"</title>
				<polygon class="PF13193" points="595,28 600,28 602,30 602,50 600,52 595,52" stroke-linejoin="round" width="7" height="24" fill="rgb(182,50,118)" stroke="rgb(145,39,94)" stroke-width="1" opacity="0.75" />
			</g>
			<g>
				<title>PP-binding (PF00550)
"Phosphopantetheine attachment site"</title>
				<polygon class="PF00550" points="606,34 612,40 612,40 606,46" stroke-linejoin="round" width="6" height="24" fill="rgb(103,191,88)" stroke="rgb(82,152,70)" stroke-width="1" opacity="0.75" />
			</g>
		</g>
		<g>
			<title> (ctg46_11)</title>
			<polygon class=" (ctg46_11)" points="617,25 644,25 644,10 674,40 644,70 644,55 617,55" fill="rgb(255,255,255)" fill-opacity="1.0" stroke="rgb(0,0,0)" stroke-width="2"  />
			<g>
				<title>Condensation (PF00668)
"Condensation domain"</title>
				<polygon class="PF00668" points="620,28 658,28 664,34 664,46 658,52 620,52" stroke-linejoin="round" width="44" height="24" fill="rgb(224,184,98)" stroke="rgb(179,147,78)" stroke-width="1" opacity="0.75" />
			</g>
			<g>
				<title>PP-binding (PF00550)
"Phosphopantetheine attachment site"</title>
				<polygon class="PF00550" points="668,38 670,40 668,42" stroke-linejoin="round" width="6" height="24" fill="rgb(103,191,88)" stroke="rgb(82,152,70)" stroke-width="1" opacity="0.75" />
			</g>
		</g>
		<g>
			<title> (ctg46_12)</title>
			<polygon class=" (ctg46_12)" points="677,10 702,40 677,70" fill="rgb(255,255,255)" fill-opacity="1.0" stroke="rgb(0,0,0)" stroke-width="2"  />
			<g>
				<title>adh_short_C2 (PF13561)
"Enoyl-(Acyl carrier protein) reductase"</title>
				<polygon class="PF13561" points="678,28 689,28 698,40 689,52 678,52" stroke-linejoin="round" width="23" height="24" fill="rgb(73,205,127)" stroke="rgb(58,164,101)" stroke-width="1" opacity="0.75" />
			</g>
		</g>
		<g>
			<title> (ctg46_13)</title>
			<polygon class=" (ctg46_13)" points="706,25 824,25 824,10 854,40 824,70 824,55 706,55" fill="rgb(255,255,255)" fill-opacity="1.0" stroke="rgb(0,0,0)" stroke-width="2"  />
			<g>
				<title>Condensation (PF00668)
"Condensation domain"</title>
				<rect class="PF00668" x="709" y="28" stroke-linejoin="round" width="44" height="24" fill="rgb(224,184,98)" stroke="rgb(179,147,78)" stroke-width="1" opacity="0.75" />
			</g>
			<g>
				<title>AMP-binding (PF00501)
"AMP-binding enzyme"</title>
				<rect class="PF00501" x="756" y="28" stroke-linejoin="round" width="41" height="24" fill="rgb(60,217,223)" stroke="rgb(48,173,178)" stroke-width="1" opacity="0.75" />
			</g>
			<g>
				<title>AMP-binding_C (PF13193)
"AMP-binding enzyme C-terminal domain"</title>
				<rect class="PF13193" x="798" y="28" stroke-linejoin="round" width="7" height="24" fill="rgb(182,50,118)" stroke="rgb(145,39,94)" stroke-width="1" opacity="0.75" />
			</g>
			<g>
				<title>PP-binding (PF00550)
"Phosphopantetheine attachment site"</title>
				<rect class="PF00550" x="808" y="28" stroke-linejoin="round" width="6" height="24" fill="rgb(103,191,88)" stroke="rgb(82,152,70)" stroke-width="1" opacity="0.75" />
			</g>
			<g>
				<title>NAD_binding_4 (PF07993)
"Male sterility protein"</title>
				<polygon class="PF07993" points="818,28 838,28 841,31 841,49 838,52 818,52" stroke-linejoin="round" width="23" height="24" fill="rgb(100,212,204)" stroke="rgb(80,169,163)" stroke-width="1" opacity="0.75" />
			</g>
		</g>
		<g>
			<title> (ctg46_14)</title>
			<polygon class=" (ctg46_14)" points="858,10 870,40 858,70" fill="rgb(255,255,255)" fill-opacity="1.0" stroke="rgb(0,0,0)" stroke-width="2"  />
		</g>
		<g>
			<title> (ctg46_15)</title>
			<polygon class=" (ctg46_15)" points="871,10 878,40 871,70" fill="rgb(255,255,255)" fill-opacity="1.0" stroke="rgb(0,0,0)" stroke-width="2"  />
			<g>
				<title>Hexapep_2 (PF14602)
"Hexapeptide repeat of succinyl-transferase"</title>
				<polygon class="PF14602" points="873,30 875,40 873,50" stroke-linejoin="round" width="3" height="24" fill="rgb(79,205,115)" stroke="rgb(63,164,92)" stroke-width="1" opacity="0.75" />
			</g>
		</g>
		<g>
			<title> (ctg46_16)</title>
			<polygon class=" (ctg46_16)" points="885,25 921,25 921,10 951,40 921,70 921,55 885,55" fill="rgb(255,255,255)" fill-opacity="1.0" stroke="rgb(0,0,0)" stroke-width="2"  />
			<g>
				<title>ABC_membrane_2 (PF06472)
"ABC transporter transmembrane region 2"</title>
				<rect class="PF06472" x="889" y="28" stroke-linejoin="round" width="25" height="24" fill="rgb(120,179,45)" stroke="rgb(96,143,36)" stroke-width="1" opacity="0.75" />
			</g>
			<g>
				<title>ABC_tran (PF00005)
"ABC transporter"</title>
				<polygon class="PF00005" points="924,28 935,28 937,30 937,50 935,52 924,52" stroke-linejoin="round" width="13" height="24" fill="rgb(129,201,63)" stroke="rgb(103,160,50)" stroke-width="1" opacity="0.75" />
			</g>
		</g>
		<g>
			<title> (ctg46_17)</title>
			<polygon class=" (ctg46_17)" points="955,40 970,10 970,70" fill="rgb(255,255,255)" fill-opacity="1.0" stroke="rgb(0,0,0)" stroke-width="2"  />
		</g>
		<g>
			<title> (ctg46_18)</title>
			<polygon class=" (ctg46_18)" points="972,10 995,40 972,70" fill="rgb(255,255,255)" fill-opacity="1.0" stroke="rgb(0,0,0)" stroke-width="2"  />
		</g>
		<g>
			<title> (ctg46_19)</title>
			<polygon class=" (ctg46_19)" points="1014,25 1021,25 1021,10 1051,40 1021,70 1021,55 1014,55" fill="rgb(255,255,255)" fill-opacity="1.0" stroke="rgb(0,0,0)" stroke-width="2"  />
			<g>
				<title>NADHdh (PF00146)
"NADH dehydrogenase"</title>
				<polygon class="PF00146" points="1017,28 1035,28 1047,40 1035,52 1017,52" stroke-linejoin="round" width="32" height="24" fill="rgb(184,56,88)" stroke="rgb(147,44,70)" stroke-width="1" opacity="0.75" />
			</g>
		</g>
		<g>
			<title> (ctg46_20)</title>
			<polygon class=" (ctg46_20)" points="1056,10 1071,40 1056,70" fill="rgb(255,255,255)" fill-opacity="1.0" stroke="rgb(0,0,0)" stroke-width="2"  />
			<g>
				<title>Fer4_7 (PF12838)
"4Fe-4S dicluster domain"</title>
				<polygon class="PF12838" points="1059,28 1062,28 1064,32 1064,48 1062,52 1059,52" stroke-linejoin="round" width="5" height="24" fill="rgb(138,229,96)" stroke="rgb(110,183,76)" stroke-width="1" opacity="0.75" />
			</g>
		</g>
		<g>
			<title> (ctg46_21)</title>
			<polygon class=" (ctg46_21)" points="1077,10 1096,40 1077,70" fill="rgb(255,255,255)" fill-opacity="1.0" stroke="rgb(0,0,0)" stroke-width="2"  />
			<g>
				<title>Oxidored_q3 (PF00499)
"NADH-ubiquinone/plastoquinone oxidoreductase chain 6"</title>
				<polygon class="PF00499" points="1079,28 1085,28 1093,40 1093,40 1085,52 1079,52" stroke-linejoin="round" width="14" height="24" fill="rgb(189,145,91)" stroke="rgb(151,116,72)" stroke-width="1" opacity="0.75" />
			</g>
		</g>
		<g>
			<title> (ctg46_22)</title>
			<polygon class=" (ctg46_22)" points="1097,10 1107,40 1097,70" fill="rgb(255,255,255)" fill-opacity="1.0" stroke="rgb(0,0,0)" stroke-width="2"  />
			<g>
				<title>Oxidored_q2 (PF00420)
"NADH-ubiquinone/plastoquinone oxidoreductase chain 4L"</title>
				<polygon class="PF00420" points="1097,28 1099,28 1104,40 1099,52 1097,52" stroke-linejoin="round" width="9" height="24" fill="rgb(73,55,194)" stroke="rgb(58,44,155)" stroke-width="1" opacity="0.75" />
			</g>
		</g>
		<g>
			<title> (ctg46_23)</title>
			<polygon class=" (ctg46_23)" points="1153,25 1145,25 1145,10 1115,40 1145,70 1145,55 1153,55" fill="rgb(255,255,255)" fill-opacity="1.0" stroke="rgb(0,0,0)" stroke-width="2"  />
			<g>
				<title>LptC (PF06835)
"Lipopolysaccharide-assembly, LptC-related"</title>
				<rect class="PF06835" x="1136" y="28" stroke-linejoin="round" width="14" height="24" fill="rgb(193,93,52)" stroke="rgb(154,74,41)" stroke-width="1" opacity="0.75" />
			</g>
		</g>
		<g>
			<title> (ctg46_24)</title>
			<polygon class=" (ctg46_24)" points="1195,25 1186,25 1186,10 1156,40 1186,70 1186,55 1195,55" fill="rgb(255,255,255)" fill-opacity="1.0" stroke="rgb(0,0,0)" stroke-width="2"  />
			<g>
				<title>PDZ_2 (PF13180)
"PDZ domain"</title>
				<polygon class="PF13180" points="1160,40 1166,34 1166,46" stroke-linejoin="round" width="9" height="24" fill="rgb(128,192,48)" stroke="rgb(102,153,38)" stroke-width="1" opacity="0.75" />
			</g>
			<g>
				<title>Trypsin_2 (PF13365)
"Trypsin-like peptidase domain"</title>
				<polygon class="PF13365" points="1170,30 1172,28 1183,28 1183,52 1172,52 1170,50" stroke-linejoin="round" width="13" height="24" fill="rgb(126,86,188)" stroke="rgb(100,68,150)" stroke-width="1" opacity="0.75" />
			</g>
		</g>
		<g>
			<title> (ctg46_25)</title>
			<polygon class=" (ctg46_25)" points="1201,25 1215,25 1215,10 1245,40 1215,70 1215,55 1201,55" fill="rgb(255,255,255)" fill-opacity="1.0" stroke="rgb(0,0,0)" stroke-width="2"  />
			<g>
				<title>Mur_ligase_M (PF08245)
"Mur ligase middle domain"</title>
				<rect class="PF08245" x="1207" y="28" stroke-linejoin="round" width="21" height="24" fill="rgb(57,133,195)" stroke="rgb(45,106,156)" stroke-width="1" opacity="0.75" />
			</g>
			<g>
				<title>MurT_C (PF08353)
"MurT ligase C-terminal"</title>
				<polygon class="PF08353" points="1232,31 1241,40 1232,49" stroke-linejoin="round" width="11" height="24" fill="rgb(104,202,99)" stroke="rgb(83,161,79)" stroke-width="1" opacity="0.75" />
			</g>
		</g>
		<g>
			<title> (ctg46_26)</title>
			<polygon class=" (ctg46_26)" points="1253,10 1279,40 1253,70" fill="rgb(255,255,255)" fill-opacity="1.0" stroke="rgb(0,0,0)" stroke-width="2"  />
			<g>
				<title>GATase_3 (PF07685)
"CobB/CobQ-like glutamine amidotransferase domain"</title>
				<polygon class="PF07685" points="1253,28 1264,28 1274,39 1274,41 1264,52 1253,52" stroke-linejoin="round" width="21" height="24" fill="rgb(206,104,226)" stroke="rgb(164,83,180)" stroke-width="1" opacity="0.75" />
			</g>
		</g>
		<g>
			<title> (ctg46_27)</title>
			<polygon class=" (ctg46_27)" points="1282,25 1283,25 1283,10 1313,40 1283,70 1283,55 1282,55" fill="rgb(255,255,255)" fill-opacity="1.0" stroke="rgb(0,0,0)" stroke-width="2"  />
		</g>
		<g>
			<title> (ctg46_28)</title>
			<polygon class=" (ctg46_28)" points="1316,40 1340,10 1340,70" fill="rgb(255,255,255)" fill-opacity="1.0" stroke="rgb(0,0,0)" stroke-width="2"  />
			<g>
				<title>Cupin_7 (PF12973)
"ChrR Cupin-like domain"</title>
				<polygon class="PF12973" points="1320,40 1326,33 1326,47" stroke-linejoin="round" width="8" height="24" fill="rgb(121,57,179)" stroke="rgb(96,45,143)" stroke-width="1" opacity="0.75" />
			</g>
			<g>
				<title>Cupin_7 (PF12973)
"ChrR Cupin-like domain"</title>
				<polygon class="PF12973" points="1328,30 1330,28 1337,28 1337,52 1330,52 1328,50" stroke-linejoin="round" width="9" height="24" fill="rgb(121,57,179)" stroke="rgb(96,45,143)" stroke-width="1" opacity="0.75" />
			</g>
		</g>
		<g>
			<title> (ctg46_29)</title>
			<polygon class=" (ctg46_29)" points="1358,10 1370,40 1358,70" fill="rgb(255,255,255)" fill-opacity="1.0" stroke="rgb(0,0,0)" stroke-width="2"  />
		</g>
		<g>
			<title> (ctg46_30)</title>
			<polygon class=" (ctg46_30)" points="1385,10 1393,40 1385,70" fill="rgb(255,255,255)" fill-opacity="1.0" stroke="rgb(0,0,0)" stroke-width="2"  />
		</g>
	</g>
</svg>
