<svg version="1.1" baseProfile="full" xmlns="http://www.w3.org/2000/svg" width="733.7666666666667" height="80">
	<g>
		<line x1="10" y1="40.0" x2="723.7666666666667" y2="40.0" style="stroke:rgb(70,70,70); stroke-width:3 "/>
		<g>
			<title> (ctg161_1)</title>
			<polygon class=" (ctg161_1)" points="17,25 26,25 26,10 56,40 26,70 26,55 17,55" fill="rgb(255,255,255)" fill-opacity="1.0" stroke="rgb(0,0,0)" stroke-width="2"  />
			<g>
				<title>Chal_sti_synt_N (PF00195)
"Chalcone and stilbene synthases, N-terminal domain"</title>
				<rect class="PF00195" x="17" y="28" stroke-linejoin="round" width="22" height="24" fill="rgb(60,181,161)" stroke="rgb(47,144,128)" stroke-width="1" opacity="0.75" />
			</g>
			<g>
				<title>Chal_sti_synt_C (PF02797)
"Chalcone and stilbene synthases, C-terminal domain"</title>
				<polygon class="PF02797" points="40,28 40,28 52,40 40,52 40,52" stroke-linejoin="round" width="15" height="24" fill="rgb(139,212,63)" stroke="rgb(111,169,50)" stroke-width="1" opacity="0.75" />
			</g>
		</g>
		<g>
			<title> (ctg161_2)</title>
			<polygon class=" (ctg161_2)" points="58,25 89,25 89,10 119,40 89,70 89,55 58,55" fill="rgb(255,255,255)" fill-opacity="1.0" stroke="rgb(0,0,0)" stroke-width="2"  />
			<g>
				<title>ABC_membrane (PF00664)
"ABC transporter transmembrane region"</title>
				<rect class="PF00664" x="59" y="28" stroke-linejoin="round" width="26" height="24" fill="rgb(149,226,73)" stroke="rgb(119,180,58)" stroke-width="1" opacity="0.75" />
			</g>
			<g>
				<title>ABC_tran (PF00005)
"ABC transporter"</title>
				<polygon class="PF00005" points="99,28 103,28 112,37 112,43 103,52 99,52" stroke-linejoin="round" width="13" height="24" fill="rgb(129,201,63)" stroke="rgb(103,160,50)" stroke-width="1" opacity="0.75" />
			</g>
		</g>
		<g>
			<title> (ctg161_3)</title>
			<polygon class=" (ctg161_3)" points="120,25 142,25 142,10 172,40 142,70 142,55 120,55" fill="rgb(255,255,255)" fill-opacity="1.0" stroke="rgb(0,0,0)" stroke-width="2"  />
			<g>
				<title>Biotin_lipoyl_2 (PF13533)
"Biotin-lipoyl like"</title>
				<rect class="PF13533" x="127" y="28" stroke-linejoin="round" width="5" height="24" fill="rgb(229,122,112)" stroke="rgb(183,97,89)" stroke-width="1" opacity="0.75" />
			</g>
			<g>
				<title>HlyD_3 (PF13437)
"HlyD family secretion protein"</title>
				<polygon class="PF13437" points="148,28 155,28 159,32 159,48 155,52 148,52" stroke-linejoin="round" width="11" height="24" fill="rgb(82,200,102)" stroke="rgb(65,160,81)" stroke-width="1" opacity="0.75" />
			</g>
		</g>
		<g>
			<title> (ctg161_4)</title>
			<polygon class=" (ctg161_4)" points="177,10 186,40 177,70" fill="rgb(255,255,255)" fill-opacity="1.0" stroke="rgb(0,0,0)" stroke-width="2"  />
		</g>
		<g>
			<title> (ctg161_5)</title>
			<polygon class=" (ctg161_5)" points="194,25 205,25 205,10 235,40 205,70 205,55 194,55" fill="rgb(255,255,255)" fill-opacity="1.0" stroke="rgb(0,0,0)" stroke-width="2"  />
			<g>
				<title>Met_gamma_lyase (PF06838)
"Methionine gamma-lyase"</title>
				<polygon class="PF06838" points="194,28 219,28 231,40 219,52 194,52" stroke-linejoin="round" width="40" height="24" fill="rgb(96,226,191)" stroke="rgb(76,180,152)" stroke-width="1" opacity="0.75" />
			</g>
		</g>
		<g>
			<title> (ctg161_6)</title>
			<polygon class=" (ctg161_6)" points="251,25 262,25 262,10 292,40 262,70 262,55 251,55" fill="rgb(255,255,255)" fill-opacity="1.0" stroke="rgb(0,0,0)" stroke-width="2"  />
			<g>
				<title>VWA (PF00092)
"von Willebrand factor type A domain"</title>
				<rect class="PF00092" x="255" y="28" stroke-linejoin="round" width="16" height="24" fill="rgb(199,215,59)" stroke="rgb(159,172,47)" stroke-width="1" opacity="0.75" />
			</g>
		</g>
		<g>
			<title> (ctg161_7)</title>
			<polygon class=" (ctg161_7)" points="323,25 323,25 323,10 293,40 323,70 323,55 323,55" fill="rgb(255,255,255)" fill-opacity="1.0" stroke="rgb(0,0,0)" stroke-width="2"  />
			<g>
				<title>EamA (PF00892)
"EamA-like transporter family"</title>
				<polygon class="PF00892" points="297,40 307,30 307,50" stroke-linejoin="round" width="14" height="24" fill="rgb(105,217,77)" stroke="rgb(84,173,61)" stroke-width="1" opacity="0.75" />
			</g>
			<g>
				<title>EamA (PF00892)
"EamA-like transporter family"</title>
				<polygon class="PF00892" points="308,29 309,28 321,28 321,52 309,52 308,51" stroke-linejoin="round" width="13" height="24" fill="rgb(105,217,77)" stroke="rgb(84,173,61)" stroke-width="1" opacity="0.75" />
			</g>
		</g>
		<g>
			<title> (ctg161_8)</title>
			<polygon class=" (ctg161_8)" points="327,10 340,40 327,70" fill="rgb(255,255,255)" fill-opacity="1.0" stroke="rgb(0,0,0)" stroke-width="2"  />
			<g>
				<title>RuvX (PF03652)
"Holliday junction resolvase"</title>
				<polygon class="PF03652" points="327,28 331,28 336,40 331,52 327,52" stroke-linejoin="round" width="12" height="24" fill="rgb(212,72,143)" stroke="rgb(169,57,114)" stroke-width="1" opacity="0.75" />
			</g>
		</g>
		<g>
			<title> (ctg161_9)</title>
			<polygon class=" (ctg161_9)" points="341,25 349,25 349,10 379,40 349,70 349,55 341,55" fill="rgb(255,255,255)" fill-opacity="1.0" stroke="rgb(0,0,0)" stroke-width="2"  />
			<g>
				<title>GCS2 (PF04107)
"Glutamate-cysteine ligase family 2(GCS2)"</title>
				<polygon class="PF04107" points="341,28 363,28 369,34 369,46 363,52 341,52" stroke-linejoin="round" width="28" height="24" fill="rgb(67,145,225)" stroke="rgb(53,116,180)" stroke-width="1" opacity="0.75" />
			</g>
		</g>
		<g>
			<title> (ctg161_10)</title>
			<polygon class=" (ctg161_10)" points="383,10 392,40 383,70" fill="rgb(255,255,255)" fill-opacity="1.0" stroke="rgb(0,0,0)" stroke-width="2"  />
		</g>
		<g>
			<title> (ctg161_11)</title>
			<polygon class=" (ctg161_11)" points="396,25 401,25 401,10 431,40 401,70 401,55 396,55" fill="rgb(255,255,255)" fill-opacity="1.0" stroke="rgb(0,0,0)" stroke-width="2"  />
			<g>
				<title>WD40 (PF00400)
"WD domain, G-beta repeat"</title>
				<rect class="PF00400" x="402" y="28" stroke-linejoin="round" width="3" height="24" fill="rgb(190,108,62)" stroke="rgb(152,86,49)" stroke-width="1" opacity="0.75" />
			</g>
			<g>
				<title>WD40 (PF00400)
"WD domain, G-beta repeat"</title>
				<rect class="PF00400" x="406" y="28" stroke-linejoin="round" width="3" height="24" fill="rgb(190,108,62)" stroke="rgb(152,86,49)" stroke-width="1" opacity="0.75" />
			</g>
			<g>
				<title>WD40 (PF00400)
"WD domain, G-beta repeat"</title>
				<polygon class="PF00400" points="419,32 422,35 422,45 419,48" stroke-linejoin="round" width="3" height="24" fill="rgb(190,108,62)" stroke="rgb(152,86,49)" stroke-width="1" opacity="0.75" />
			</g>
			<g>
				<title>WD40 (PF00400)
"WD domain, G-beta repeat"</title>
				<polygon class="PF00400" points="423,36 426,39 426,41 423,44" stroke-linejoin="round" width="3" height="24" fill="rgb(190,108,62)" stroke="rgb(152,86,49)" stroke-width="1" opacity="0.75" />
			</g>
			<g>
				<title>WD40 (PF00400)
"WD domain, G-beta repeat"</title>
				<polygon class="PF00400" points="427,40 427,40 427,40" stroke-linejoin="round" width="3" height="24" fill="rgb(190,108,62)" stroke="rgb(152,86,49)" stroke-width="1" opacity="0.75" />
			</g>
		</g>
		<g>
			<title> (ctg161_12)</title>
			<polygon class=" (ctg161_12)" points="432,40 455,10 455,70" fill="rgb(255,255,255)" fill-opacity="1.0" stroke="rgb(0,0,0)" stroke-width="2"  />
			<g>
				<title>dsrm (PF00035)
"Double-stranded RNA binding motif"</title>
				<polygon class="PF00035" points="436,40 438,37 438,43" stroke-linejoin="round" width="6" height="24" fill="rgb(223,106,84)" stroke="rgb(178,84,67)" stroke-width="1" opacity="0.75" />
			</g>
			<g>
				<title>Ribonucleas_3_3 (PF14622)
"Ribonuclease-III-like"</title>
				<polygon class="PF14622" points="441,34 445,28 452,28 452,52 445,52 441,46" stroke-linejoin="round" width="11" height="24" fill="rgb(134,211,63)" stroke="rgb(107,168,50)" stroke-width="1" opacity="0.75" />
			</g>
		</g>
		<g>
			<title> (ctg161_13)</title>
			<polygon class=" (ctg161_13)" points="485,10 512,40 485,70" fill="rgb(255,255,255)" fill-opacity="1.0" stroke="rgb(0,0,0)" stroke-width="2"  />
			<g>
				<title>Hydrolase_4 (PF12146)
"Serine aminopeptidase, S33"</title>
				<polygon class="PF12146" points="486,28 497,28 508,40 497,52 486,52" stroke-linejoin="round" width="23" height="24" fill="rgb(140,98,205)" stroke="rgb(112,78,164)" stroke-width="1" opacity="0.75" />
			</g>
		</g>
		<g>
			<title> (ctg161_14)</title>
			<polygon class=" (ctg161_14)" points="550,25 542,25 542,10 512,40 542,70 542,55 550,55" fill="rgb(255,255,255)" fill-opacity="1.0" stroke="rgb(0,0,0)" stroke-width="2"  />
			<g>
				<title>HATPase_c (PF02518)
"Histidine kinase-, DNA gyrase B-, and HSP90-like ATPase"</title>
				<polygon class="PF02518" points="516,40 523,33 523,47" stroke-linejoin="round" width="11" height="24" fill="rgb(80,94,225)" stroke="rgb(64,75,180)" stroke-width="1" opacity="0.75" />
			</g>
			<g>
				<title>HisKA (PF00512)
"His Kinase A (phospho-acceptor) domain"</title>
				<polygon class="PF00512" points="527,29 528,28 534,28 534,52 528,52 527,51" stroke-linejoin="round" width="7" height="24" fill="rgb(193,125,62)" stroke="rgb(154,100,49)" stroke-width="1" opacity="0.75" />
			</g>
			<g>
				<title>KaiB (PF07689)
"KaiB domain"</title>
				<rect class="PF07689" x="540" y="28" stroke-linejoin="round" width="8" height="24" fill="rgb(65,131,198)" stroke="rgb(52,104,158)" stroke-width="1" opacity="0.75" />
			</g>
		</g>
		<g>
			<title> (ctg161_15)</title>
			<polygon class=" (ctg161_15)" points="555,25 578,25 578,10 608,40 578,70 578,55 555,55" fill="rgb(255,255,255)" fill-opacity="1.0" stroke="rgb(0,0,0)" stroke-width="2"  />
			<g>
				<title>Glyco_hydro_57 (PF03065)
"Glycosyl hydrolase family 57"</title>
				<polygon class="PF03065" points="555,28 591,28 594,31 594,49 591,52 555,52" stroke-linejoin="round" width="39" height="24" fill="rgb(83,132,214)" stroke="rgb(66,105,171)" stroke-width="1" opacity="0.75" />
			</g>
			<g>
				<title>DUF1957 (PF09210)
"Domain of unknown function (DUF1957)"</title>
				<polygon class="PF09210" points="597,34 603,40 597,46" stroke-linejoin="round" width="9" height="24" fill="rgb(202,89,81)" stroke="rgb(161,71,64)" stroke-width="1" opacity="0.75" />
			</g>
		</g>
		<g>
			<title> (ctg161_16)</title>
			<polygon class=" (ctg161_16)" points="662,25 641,25 641,10 611,40 641,70 641,55 662,55" fill="rgb(255,255,255)" fill-opacity="1.0" stroke="rgb(0,0,0)" stroke-width="2"  />
			<g>
				<title>Pkinase (PF00069)
"Protein kinase domain"</title>
				<rect class="PF00069" x="633" y="28" stroke-linejoin="round" width="27" height="24" fill="rgb(104,187,65)" stroke="rgb(83,149,51)" stroke-width="1" opacity="0.75" />
			</g>
		</g>
		<g>
			<title> (ctg161_17)</title>
			<polygon class=" (ctg161_17)" points="676,25 676,25 676,10 706,40 676,70 676,55 676,55" fill="rgb(255,255,255)" fill-opacity="1.0" stroke="rgb(0,0,0)" stroke-width="2"  />
			<g>
				<title>Caroten_synth (PF04240)
"Carotenoid biosynthesis protein"</title>
				<polygon class="PF04240" points="681,28 690,28 702,40 702,40 690,52 681,52" stroke-linejoin="round" width="21" height="24" fill="rgb(65,214,190)" stroke="rgb(52,171,152)" stroke-width="1" opacity="0.75" />
			</g>
		</g>
	</g>
</svg>
