<svg version="1.1" baseProfile="full" xmlns="http://www.w3.org/2000/svg" width="1599.1333333333334" height="80">
	<g>
		<line x1="10" y1="40.0" x2="1589.1333333333334" y2="40.0" style="stroke:rgb(70,70,70); stroke-width:3 "/>
		<g>
			<title> (ctg135_1)</title>
			<polygon class=" (ctg135_1)" points="10,40 20,10 20,70" fill="rgb(255,255,255)" fill-opacity="1.0" stroke="rgb(0,0,0)" stroke-width="2"  />
		</g>
		<g>
			<title> (ctg135_2)</title>
			<polygon class=" (ctg135_2)" points="21,40 38,10 38,70" fill="rgb(255,255,255)" fill-opacity="1.0" stroke="rgb(0,0,0)" stroke-width="2"  />
		</g>
		<g>
			<title> (ctg135_3)</title>
			<polygon class=" (ctg135_3)" points="51,10 68,40 51,70" fill="rgb(255,255,255)" fill-opacity="1.0" stroke="rgb(0,0,0)" stroke-width="2"  />
		</g>
		<g>
			<title> (ctg135_4)</title>
			<polygon class=" (ctg135_4)" points="70,40 96,10 96,70" fill="rgb(255,255,255)" fill-opacity="1.0" stroke="rgb(0,0,0)" stroke-width="2"  />
			<g>
				<title>Pentapeptide (PF00805)
"Pentapeptide repeats (8 copies)"</title>
				<polygon class="PF00805" points="74,40 75,39 75,41" stroke-linejoin="round" width="3" height="24" fill="rgb(186,52,164)" stroke="rgb(148,41,131)" stroke-width="1" opacity="0.75" />
			</g>
			<g>
				<title>Pentapeptide (PF00805)
"Pentapeptide repeats (8 copies)"</title>
				<polygon class="PF00805" points="76,38 79,34 79,46 76,42" stroke-linejoin="round" width="3" height="24" fill="rgb(186,52,164)" stroke="rgb(148,41,131)" stroke-width="1" opacity="0.75" />
			</g>
			<g>
				<title>Pentapeptide (PF00805)
"Pentapeptide repeats (8 copies)"</title>
				<polygon class="PF00805" points="84,28 84,28 87,28 87,52 84,52 84,52" stroke-linejoin="round" width="3" height="24" fill="rgb(186,52,164)" stroke="rgb(148,41,131)" stroke-width="1" opacity="0.75" />
			</g>
		</g>
		<g>
			<title> (ctg135_5)</title>
			<polygon class=" (ctg135_5)" points="210,25 140,25 140,10 110,40 140,70 140,55 210,55" fill="rgb(255,255,255)" fill-opacity="1.0" stroke="rgb(0,0,0)" stroke-width="2"  />
			<g>
				<title>ACR_tran (PF00873)
"AcrB/AcrD/AcrF family"</title>
				<polygon class="PF00873" points="114,40 126,28 209,28 209,52 126,52" stroke-linejoin="round" width="98" height="24" fill="rgb(63,191,60)" stroke="rgb(50,152,48)" stroke-width="1" opacity="0.75" />
			</g>
		</g>
		<g>
			<title> (ctg135_6)</title>
			<polygon class=" (ctg135_6)" points="260,25 245,25 245,10 215,40 245,70 245,55 260,55" fill="rgb(255,255,255)" fill-opacity="1.0" stroke="rgb(0,0,0)" stroke-width="2"  />
			<g>
				<title>HlyD_3 (PF13437)
"HlyD family secretion protein"</title>
				<polygon class="PF13437" points="223,36 231,28 233,28 233,52 231,52 223,44" stroke-linejoin="round" width="10" height="24" fill="rgb(82,200,102)" stroke="rgb(65,160,81)" stroke-width="1" opacity="0.75" />
			</g>
		</g>
		<g>
			<title> (ctg135_7)</title>
			<polygon class=" (ctg135_7)" points="305,25 292,25 292,10 262,40 292,70 292,55 305,55" fill="rgb(255,255,255)" fill-opacity="1.0" stroke="rgb(0,0,0)" stroke-width="2"  />
			<g>
				<title>MFS_2 (PF13347)
"MFS/sugar transport protein"</title>
				<polygon class="PF13347" points="266,40 278,28 302,28 302,52 278,52" stroke-linejoin="round" width="40" height="24" fill="rgb(68,198,83)" stroke="rgb(54,158,66)" stroke-width="1" opacity="0.75" />
			</g>
		</g>
		<g>
			<title> (ctg135_8)</title>
			<polygon class=" (ctg135_8)" points="361,25 337,25 337,10 307,40 337,70 337,55 361,55" fill="rgb(255,255,255)" fill-opacity="1.0" stroke="rgb(0,0,0)" stroke-width="2"  />
			<g>
				<title>FAD_binding_4 (PF01565)
"FAD binding domain"</title>
				<rect class="PF01565" x="342" y="28" stroke-linejoin="round" width="14" height="24" fill="rgb(226,88,136)" stroke="rgb(180,70,108)" stroke-width="1" opacity="0.75" />
			</g>
		</g>
		<g>
			<title> (ctg135_9)</title>
			<polygon class=" (ctg135_9)" points="364,40 384,10 384,70" fill="rgb(255,255,255)" fill-opacity="1.0" stroke="rgb(0,0,0)" stroke-width="2"  />
			<g>
				<title>ICMT (PF04140)
"Isoprenylcysteine carboxyl methyltransferase (ICMT) family"</title>
				<polygon class="PF04140" points="368,40 376,28 376,28 376,52 376,52" stroke-linejoin="round" width="9" height="24" fill="rgb(100,223,104)" stroke="rgb(80,178,83)" stroke-width="1" opacity="0.75" />
			</g>
		</g>
		<g>
			<title> (ctg135_10)</title>
			<polygon class=" (ctg135_10)" points="424,25 415,25 415,10 385,40 415,70 415,55 424,55" fill="rgb(255,255,255)" fill-opacity="1.0" stroke="rgb(0,0,0)" stroke-width="2"  />
			<g>
				<title>Chal_sti_synt_C (PF02797)
"Chalcone and stilbene synthases, C-terminal domain"</title>
				<polygon class="PF02797" points="389,40 399,30 399,50" stroke-linejoin="round" width="14" height="24" fill="rgb(139,212,63)" stroke="rgb(111,169,50)" stroke-width="1" opacity="0.75" />
			</g>
			<g>
				<title>FAE1_CUT1_RppA (PF08392)
"FAE1/Type III polyketide synthase-like protein"</title>
				<rect class="PF08392" x="404" y="28" stroke-linejoin="round" width="11" height="24" fill="rgb(70,220,135)" stroke="rgb(56,176,108)" stroke-width="1" opacity="0.75" />
			</g>
		</g>
		<g>
			<title> (ctg135_11)</title>
			<polygon class=" (ctg135_11)" points="470,25 456,25 456,10 426,40 456,70 456,55 470,55" fill="rgb(255,255,255)" fill-opacity="1.0" stroke="rgb(0,0,0)" stroke-width="2"  />
			<g>
				<title>FMO-like (PF00743)
"Flavin-binding monooxygenase-like"</title>
				<polygon class="PF00743" points="430,40 442,28 469,28 469,52 442,52" stroke-linejoin="round" width="43" height="24" fill="rgb(203,74,151)" stroke="rgb(162,59,120)" stroke-width="1" opacity="0.75" />
			</g>
		</g>
		<g>
			<title> (ctg135_12)</title>
			<polygon class=" (ctg135_12)" points="603,25 501,25 501,10 471,40 501,70 501,55 603,55" fill="rgb(255,255,255)" fill-opacity="1.0" stroke="rgb(0,0,0)" stroke-width="2"  />
			<g>
				<title>Thioesterase (PF00975)
"Thioesterase domain"</title>
				<polygon class="PF00975" points="475,40 487,28 494,28 494,52 487,52" stroke-linejoin="round" width="22" height="24" fill="rgb(207,80,138)" stroke="rgb(165,63,110)" stroke-width="1" opacity="0.75" />
			</g>
			<g>
				<title>PP-binding (PF00550)
"Phosphopantetheine attachment site"</title>
				<rect class="PF00550" x="500" y="28" stroke-linejoin="round" width="6" height="24" fill="rgb(103,191,88)" stroke="rgb(82,152,70)" stroke-width="1" opacity="0.75" />
			</g>
			<g>
				<title>Acyl_transf_1 (PF00698)
"Acyl transferase domain"</title>
				<rect class="PF00698" x="515" y="28" stroke-linejoin="round" width="31" height="24" fill="rgb(59,176,209)" stroke="rgb(47,140,167)" stroke-width="1" opacity="0.75" />
			</g>
			<g>
				<title>KAsynt_C_assoc (PF16197)
"Ketoacyl-synthetase C-terminal extension"</title>
				<rect class="PF16197" x="550" y="28" stroke-linejoin="round" width="11" height="24" fill="rgb(240,150,172)" stroke="rgb(192,120,137)" stroke-width="1" opacity="0.75" />
			</g>
			<g>
				<title>Ketoacyl-synt_C (PF02801)
"Beta-ketoacyl synthase, C-terminal domain"</title>
				<rect class="PF02801" x="562" y="28" stroke-linejoin="round" width="11" height="24" fill="rgb(215,78,102)" stroke="rgb(172,62,81)" stroke-width="1" opacity="0.75" />
			</g>
			<g>
				<title>ketoacyl-synt (PF00109)
"Beta-ketoacyl synthase, N-terminal domain"</title>
				<rect class="PF00109" x="574" y="28" stroke-linejoin="round" width="25" height="24" fill="rgb(112,116,228)" stroke="rgb(89,92,182)" stroke-width="1" opacity="0.75" />
			</g>
		</g>
		<g>
			<title> (ctg135_13)</title>
			<polygon class=" (ctg135_13)" points="785,25 634,25 634,10 604,40 634,70 634,55 785,55" fill="rgb(255,255,255)" fill-opacity="1.0" stroke="rgb(0,0,0)" stroke-width="2"  />
			<g>
				<title>PP-binding (PF00550)
"Phosphopantetheine attachment site"</title>
				<polygon class="PF00550" points="609,39 615,33 615,47 609,41" stroke-linejoin="round" width="6" height="24" fill="rgb(103,191,88)" stroke="rgb(82,152,70)" stroke-width="1" opacity="0.75" />
			</g>
			<g>
				<title>KR (PF08659)
"KR domain"</title>
				<rect class="PF08659" x="625" y="28" stroke-linejoin="round" width="17" height="24" fill="rgb(66,209,188)" stroke="rgb(52,167,150)" stroke-width="1" opacity="0.75" />
			</g>
			<g>
				<title>PS-DH (PF14765)
"Polyketide synthase dehydratase"</title>
				<rect class="PF14765" x="666" y="28" stroke-linejoin="round" width="27" height="24" fill="rgb(173,56,182)" stroke="rgb(138,44,145)" stroke-width="1" opacity="0.75" />
			</g>
			<g>
				<title>Acyl_transf_1 (PF00698)
"Acyl transferase domain"</title>
				<rect class="PF00698" x="698" y="28" stroke-linejoin="round" width="31" height="24" fill="rgb(59,176,209)" stroke="rgb(47,140,167)" stroke-width="1" opacity="0.75" />
			</g>
			<g>
				<title>KAsynt_C_assoc (PF16197)
"Ketoacyl-synthetase C-terminal extension"</title>
				<rect class="PF16197" x="733" y="28" stroke-linejoin="round" width="11" height="24" fill="rgb(240,150,172)" stroke="rgb(192,120,137)" stroke-width="1" opacity="0.75" />
			</g>
			<g>
				<title>Ketoacyl-synt_C (PF02801)
"Beta-ketoacyl synthase, C-terminal domain"</title>
				<rect class="PF02801" x="745" y="28" stroke-linejoin="round" width="11" height="24" fill="rgb(215,78,102)" stroke="rgb(172,62,81)" stroke-width="1" opacity="0.75" />
			</g>
			<g>
				<title>ketoacyl-synt (PF00109)
"Beta-ketoacyl synthase, N-terminal domain"</title>
				<rect class="PF00109" x="758" y="28" stroke-linejoin="round" width="25" height="24" fill="rgb(112,116,228)" stroke="rgb(89,92,182)" stroke-width="1" opacity="0.75" />
			</g>
		</g>
		<g>
			<title> (ctg135_14)</title>
			<polygon class=" (ctg135_14)" points="921,25 825,25 825,10 795,40 825,70 825,55 921,55" fill="rgb(255,255,255)" fill-opacity="1.0" stroke="rgb(0,0,0)" stroke-width="2"  />
			<g>
				<title>PP-binding (PF00550)
"Phosphopantetheine attachment site"</title>
				<polygon class="PF00550" points="799,40 805,34 805,46 799,40" stroke-linejoin="round" width="6" height="24" fill="rgb(103,191,88)" stroke="rgb(82,152,70)" stroke-width="1" opacity="0.75" />
			</g>
			<g>
				<title>Acyl-CoA_dh_1 (PF00441)
"Acyl-CoA dehydrogenase, C-terminal domain"</title>
				<rect class="PF00441" x="824" y="28" stroke-linejoin="round" width="15" height="24" fill="rgb(85,191,117)" stroke="rgb(68,152,93)" stroke-width="1" opacity="0.75" />
			</g>
			<g>
				<title>Acyl-CoA_dh_M (PF02770)
"Acyl-CoA dehydrogenase, middle domain"</title>
				<rect class="PF02770" x="840" y="28" stroke-linejoin="round" width="9" height="24" fill="rgb(225,186,97)" stroke="rgb(180,148,77)" stroke-width="1" opacity="0.75" />
			</g>
			<g>
				<title>Acyl-CoA_dh_N (PF02771)
"Acyl-CoA dehydrogenase, N-terminal domain"</title>
				<rect class="PF02771" x="851" y="28" stroke-linejoin="round" width="11" height="24" fill="rgb(105,135,218)" stroke="rgb(84,108,174)" stroke-width="1" opacity="0.75" />
			</g>
			<g>
				<title>AMP-binding (PF00501)
"AMP-binding enzyme"</title>
				<rect class="PF00501" x="875" y="28" stroke-linejoin="round" width="44" height="24" fill="rgb(60,217,223)" stroke="rgb(48,173,178)" stroke-width="1" opacity="0.75" />
			</g>
		</g>
		<g>
			<title> (ctg135_15)</title>
			<polygon class=" (ctg135_15)" points="925,40 947,10 947,70" fill="rgb(255,255,255)" fill-opacity="1.0" stroke="rgb(0,0,0)" stroke-width="2"  />
			<g>
				<title>Nitroreductase (PF00881)
"Nitroreductase family"</title>
				<polygon class="PF00881" points="929,40 938,28 945,28 945,52 938,52" stroke-linejoin="round" width="17" height="24" fill="rgb(79,118,187)" stroke="rgb(63,94,149)" stroke-width="1" opacity="0.75" />
			</g>
		</g>
		<g>
			<title> (ctg135_16)</title>
			<polygon class=" (ctg135_16)" points="979,25 978,25 978,10 948,40 978,70 978,55 979,55" fill="rgb(255,255,255)" fill-opacity="1.0" stroke="rgb(0,0,0)" stroke-width="2"  />
			<g>
				<title>Glyoxalase (PF00903)
"Glyoxalase/Bleomycin resistance protein/Dioxygenase superfamily"</title>
				<polygon class="PF00903" points="952,40 963,29 963,51" stroke-linejoin="round" width="12" height="24" fill="rgb(50,162,189)" stroke="rgb(40,129,151)" stroke-width="1" opacity="0.75" />
			</g>
		</g>
		<g>
			<title> (ctg135_17)</title>
			<polygon class=" (ctg135_17)" points="1003,25 1021,25 1021,10 1051,40 1021,70 1021,55 1003,55" fill="rgb(255,255,255)" fill-opacity="1.0" stroke="rgb(0,0,0)" stroke-width="2"  />
			<g>
				<title>EAD4 (PF19959)
"Effector-associated domain 4"</title>
				<rect class="PF19959" x="1003" y="28" stroke-linejoin="round" width="11" height="24" fill="rgb(103,71,187)" stroke="rgb(82,56,149)" stroke-width="1" opacity="0.75" />
			</g>
			<g>
				<title>AAA_35 (PF14516)
"AAA-like domain"</title>
				<polygon class="PF14516" points="1017,28 1034,28 1046,40 1034,52 1017,52" stroke-linejoin="round" width="33" height="24" fill="rgb(134,192,86)" stroke="rgb(107,153,68)" stroke-width="1" opacity="0.75" />
			</g>
		</g>
		<g>
			<title> (ctg135_18)</title>
			<polygon class=" (ctg135_18)" points="1141,25 1081,25 1081,10 1051,40 1081,70 1081,55 1141,55" fill="rgb(255,255,255)" fill-opacity="1.0" stroke="rgb(0,0,0)" stroke-width="2"  />
			<g>
				<title>Peripla_BP_6 (PF13458)
"Periplasmic binding protein"</title>
				<polygon class="PF13458" points="1055,40 1067,28 1084,28 1084,52 1067,52" stroke-linejoin="round" width="30" height="24" fill="rgb(94,183,81)" stroke="rgb(75,146,64)" stroke-width="1" opacity="0.75" />
			</g>
			<g>
				<title>AAA_35 (PF14516)
"AAA-like domain"</title>
				<rect class="PF14516" x="1109" y="28" stroke-linejoin="round" width="30" height="24" fill="rgb(134,192,86)" stroke="rgb(107,153,68)" stroke-width="1" opacity="0.75" />
			</g>
		</g>
		<g>
			<title> (ctg135_19)</title>
			<polygon class=" (ctg135_19)" points="1151,40 1180,10 1180,70" fill="rgb(255,255,255)" fill-opacity="1.0" stroke="rgb(0,0,0)" stroke-width="2"  />
		</g>
		<g>
			<title> (ctg135_20)</title>
			<polygon class=" (ctg135_20)" points="1187,25 1195,25 1195,10 1225,40 1195,70 1195,55 1187,55" fill="rgb(255,255,255)" fill-opacity="1.0" stroke="rgb(0,0,0)" stroke-width="2"  />
			<g>
				<title>CPSase_sm_chain (PF00988)
"Carbamoyl-phosphate synthase small chain, CPSase domain"</title>
				<rect class="PF00988" x="1188" y="28" stroke-linejoin="round" width="12" height="24" fill="rgb(183,185,63)" stroke="rgb(146,148,50)" stroke-width="1" opacity="0.75" />
			</g>
			<g>
				<title>GATase (PF00117)
"Glutamine amidotransferase class-I"</title>
				<polygon class="PF00117" points="1206,28 1209,28 1221,40 1209,52 1206,52" stroke-linejoin="round" width="17" height="24" fill="rgb(159,201,96)" stroke="rgb(127,160,76)" stroke-width="1" opacity="0.75" />
			</g>
		</g>
		<g>
			<title> (ctg135_21)</title>
			<polygon class=" (ctg135_21)" points="1227,10 1238,40 1227,70" fill="rgb(255,255,255)" fill-opacity="1.0" stroke="rgb(0,0,0)" stroke-width="2"  />
			<g>
				<title>STAS (PF01740)
"STAS domain"</title>
				<polygon class="PF01740" points="1227,28 1230,28 1235,40 1230,52 1227,52" stroke-linejoin="round" width="10" height="24" fill="rgb(219,58,116)" stroke="rgb(175,46,92)" stroke-width="1" opacity="0.75" />
			</g>
		</g>
		<g>
			<title> (ctg135_22)</title>
			<polygon class=" (ctg135_22)" points="1239,10 1252,40 1239,70" fill="rgb(255,255,255)" fill-opacity="1.0" stroke="rgb(0,0,0)" stroke-width="2"  />
			<g>
				<title>Ribonuclease_3 (PF00636)
"Ribonuclease III domain"</title>
				<polygon class="PF00636" points="1241,28 1243,28 1249,40 1243,52 1241,52" stroke-linejoin="round" width="9" height="24" fill="rgb(129,202,92)" stroke="rgb(103,161,73)" stroke-width="1" opacity="0.75" />
			</g>
		</g>
		<g>
			<title> (ctg135_23)</title>
			<polygon class=" (ctg135_23)" points="1260,10 1288,40 1260,70" fill="rgb(255,255,255)" fill-opacity="1.0" stroke="rgb(0,0,0)" stroke-width="2"  />
			<g>
				<title>SpoU_sub_bind (PF08032)
"RNA 2'-O ribose methyltransferase substrate binding"</title>
				<rect class="PF08032" x="1264" y="28" stroke-linejoin="round" width="7" height="24" fill="rgb(99,204,143)" stroke="rgb(79,163,114)" stroke-width="1" opacity="0.75" />
			</g>
			<g>
				<title>SpoU_methylase (PF00588)
"SpoU rRNA Methylase family"</title>
				<polygon class="PF00588" points="1273,28 1284,40 1273,52" stroke-linejoin="round" width="14" height="24" fill="rgb(84,205,178)" stroke="rgb(67,164,142)" stroke-width="1" opacity="0.75" />
			</g>
		</g>
		<g>
			<title> (ctg135_24)</title>
			<polygon class=" (ctg135_24)" points="1292,10 1301,40 1292,70" fill="rgb(255,255,255)" fill-opacity="1.0" stroke="rgb(0,0,0)" stroke-width="2"  />
			<g>
				<title>DUF1816 (PF08846)
"Domain of unknown function (DUF1816)"</title>
				<polygon class="PF08846" points="1293,28 1294,28 1298,40 1294,52 1293,52" stroke-linejoin="round" width="6" height="24" fill="rgb(196,184,64)" stroke="rgb(156,147,51)" stroke-width="1" opacity="0.75" />
			</g>
		</g>
		<g>
			<title> (ctg135_25)</title>
			<polygon class=" (ctg135_25)" points="1361,25 1344,25 1344,10 1314,40 1344,70 1344,55 1361,55" fill="rgb(255,255,255)" fill-opacity="1.0" stroke="rgb(0,0,0)" stroke-width="2"  />
			<g>
				<title>Pribosyltran (PF00156)
"Phosphoribosyl transferase domain"</title>
				<polygon class="PF00156" points="1318,40 1329,29 1329,51" stroke-linejoin="round" width="12" height="24" fill="rgb(210,210,74)" stroke="rgb(168,168,59)" stroke-width="1" opacity="0.75" />
			</g>
			<g>
				<title>OMPdecase (PF00215)
"Orotidine 5'-phosphate decarboxylase / HUMPS family"</title>
				<rect class="PF00215" x="1344" y="28" stroke-linejoin="round" width="16" height="24" fill="rgb(127,77,227)" stroke="rgb(101,61,181)" stroke-width="1" opacity="0.75" />
			</g>
		</g>
		<g>
			<title> (ctg135_26)</title>
			<polygon class=" (ctg135_26)" points="1395,25 1392,25 1392,10 1362,40 1392,70 1392,55 1395,55" fill="rgb(255,255,255)" fill-opacity="1.0" stroke="rgb(0,0,0)" stroke-width="2"  />
			<g>
				<title>CHAD (PF05235)
"CHAD domain"</title>
				<polygon class="PF05235" points="1368,38 1378,28 1392,28 1392,52 1378,52 1368,42" stroke-linejoin="round" width="24" height="24" fill="rgb(93,208,142)" stroke="rgb(74,166,113)" stroke-width="1" opacity="0.75" />
			</g>
		</g>
		<g>
			<title> (ctg135_27)</title>
			<polygon class=" (ctg135_27)" points="1399,25 1420,25 1420,10 1450,40 1420,70 1420,55 1399,55" fill="rgb(255,255,255)" fill-opacity="1.0" stroke="rgb(0,0,0)" stroke-width="2"  />
			<g>
				<title>BPD_transp_1 (PF00528)
"Binding-protein-dependent transport system inner membrane component"</title>
				<rect class="PF00528" x="1402" y="28" stroke-linejoin="round" width="17" height="24" fill="rgb(77,208,225)" stroke="rgb(61,166,180)" stroke-width="1" opacity="0.75" />
			</g>
			<g>
				<title>OpuAC (PF04069)
"Substrate binding domain of ABC-type glycine betaine transport system"</title>
				<polygon class="PF04069" points="1423,28 1433,28 1445,40 1433,52 1423,52" stroke-linejoin="round" width="26" height="24" fill="rgb(81,218,80)" stroke="rgb(64,174,64)" stroke-width="1" opacity="0.75" />
			</g>
		</g>
		<g>
			<title> (ctg135_28)</title>
			<polygon class=" (ctg135_28)" points="1498,25 1480,25 1480,10 1450,40 1480,70 1480,55 1498,55" fill="rgb(255,255,255)" fill-opacity="1.0" stroke="rgb(0,0,0)" stroke-width="2"  />
			<g>
				<title>DALR_2 (PF09190)
"DALR domain"</title>
				<polygon class="PF09190" points="1455,39 1462,32 1462,48 1455,41" stroke-linejoin="round" width="7" height="24" fill="rgb(70,57,193)" stroke="rgb(56,45,154)" stroke-width="1" opacity="0.75" />
			</g>
			<g>
				<title>tRNA-synt_1e (PF01406)
"tRNA synthetases class I (C) catalytic domain"</title>
				<polygon class="PF01406" points="1466,28 1466,28 1496,28 1496,52 1466,52 1466,52" stroke-linejoin="round" width="30" height="24" fill="rgb(131,218,83)" stroke="rgb(104,174,66)" stroke-width="1" opacity="0.75" />
			</g>
		</g>
		<g>
			<title> (ctg135_29)</title>
			<polygon class=" (ctg135_29)" points="1508,10 1517,40 1508,70" fill="rgb(255,255,255)" fill-opacity="1.0" stroke="rgb(0,0,0)" stroke-width="2"  />
		</g>
		<g>
			<title> (ctg135_30)</title>
			<polygon class=" (ctg135_30)" points="1557,25 1548,25 1548,10 1518,40 1548,70 1548,55 1557,55" fill="rgb(255,255,255)" fill-opacity="1.0" stroke="rgb(0,0,0)" stroke-width="2"  />
			<g>
				<title>DAO (PF01266)
"FAD dependent oxidoreductase"</title>
				<polygon class="PF01266" points="1522,40 1534,28 1555,28 1555,52 1534,52" stroke-linejoin="round" width="36" height="24" fill="rgb(123,179,59)" stroke="rgb(98,143,47)" stroke-width="1" opacity="0.75" />
			</g>
		</g>
		<g>
			<title> (ctg135_31)</title>
			<polygon class=" (ctg135_31)" points="1561,10 1582,40 1561,70" fill="rgb(255,255,255)" fill-opacity="1.0" stroke="rgb(0,0,0)" stroke-width="2"  />
			<g>
				<title>Uma2 (PF05685)
"Putative restriction endonuclease"</title>
				<polygon class="PF05685" points="1562,28 1570,28 1578,40 1570,52 1562,52" stroke-linejoin="round" width="18" height="24" fill="rgb(123,107,219)" stroke="rgb(98,85,175)" stroke-width="1" opacity="0.75" />
			</g>
		</g>
	</g>
</svg>
