<svg version="1.1" baseProfile="full" xmlns="http://www.w3.org/2000/svg" width="330.03333333333336" height="80">
	<g>
		<line x1="10" y1="40.0" x2="320.03333333333336" y2="40.0" style="stroke:rgb(70,70,70); stroke-width:3 "/>
		<g>
			<title> (ctg763_1)</title>
			<polygon class=" (ctg763_1)" points="18,10 35,40 18,70" fill="rgb(255,255,255)" fill-opacity="1.0" stroke="rgb(0,0,0)" stroke-width="2"  />
			<g>
				<title>TPR_12 (PF13424)
"Tetratricopeptide repeat"</title>
				<polygon class="PF13424" points="23,28 25,28 30,36 30,44 25,52 23,52" stroke-linejoin="round" width="7" height="24" fill="rgb(147,215,101)" stroke="rgb(117,172,80)" stroke-width="1" opacity="0.75" />
			</g>
		</g>
		<g>
			<title> (ctg763_2)</title>
			<polygon class=" (ctg763_2)" points="98,25 68,25 68,10 38,40 68,70 68,55 98,55" fill="rgb(255,255,255)" fill-opacity="1.0" stroke="rgb(0,0,0)" stroke-width="2"  />
			<g>
				<title>CitMHS (PF03600)
"Citrate transporter"</title>
				<polygon class="PF03600" points="43,39 54,28 95,28 95,52 54,52 43,41" stroke-linejoin="round" width="52" height="24" fill="rgb(75,203,220)" stroke="rgb(60,162,176)" stroke-width="1" opacity="0.75" />
			</g>
		</g>
		<g>
			<title> (ctg763_3)</title>
			<polygon class=" (ctg763_3)" points="190,25 128,25 128,10 98,40 128,70 128,55 190,55" fill="rgb(255,255,255)" fill-opacity="1.0" stroke="rgb(0,0,0)" stroke-width="2"  />
			<g>
				<title>Cation_ATPase_C (PF00689)
"Cation transporting ATPase, C-terminus"</title>
				<polygon class="PF00689" points="102,40 114,28 115,28 115,52 114,52" stroke-linejoin="round" width="17" height="24" fill="rgb(76,203,161)" stroke="rgb(60,162,128)" stroke-width="1" opacity="0.75" />
			</g>
			<g>
				<title>Hydrolase (PF00702)
"haloacid dehalogenase-like hydrolase"</title>
				<rect class="PF00702" x="123" y="28" stroke-linejoin="round" width="32" height="24" fill="rgb(68,220,102)" stroke="rgb(54,176,81)" stroke-width="1" opacity="0.75" />
			</g>
			<g>
				<title>E1-E2_ATPase (PF00122)
"E1-E2 ATPase"</title>
				<rect class="PF00122" x="158" y="28" stroke-linejoin="round" width="19" height="24" fill="rgb(149,204,70)" stroke="rgb(119,163,56)" stroke-width="1" opacity="0.75" />
			</g>
			<g>
				<title>Cation_ATPase_N (PF00690)
"Cation transporter/ATPase, N-terminus"</title>
				<rect class="PF00690" x="182" y="28" stroke-linejoin="round" width="6" height="24" fill="rgb(174,102,225)" stroke="rgb(139,81,180)" stroke-width="1" opacity="0.75" />
			</g>
		</g>
		<g>
			<title> (ctg763_4)</title>
			<polygon class=" (ctg763_4)" points="201,25 218,25 218,10 248,40 218,70 218,55 201,55" fill="rgb(255,255,255)" fill-opacity="1.0" stroke="rgb(0,0,0)" stroke-width="2"  />
			<g>
				<title>Amino_oxidase (PF01593)
"Flavin containing amine oxidoreductase"</title>
				<polygon class="PF01593" points="202,28 232,28 244,40 232,52 202,52" stroke-linejoin="round" width="44" height="24" fill="rgb(184,74,52)" stroke="rgb(147,59,41)" stroke-width="1" opacity="0.75" />
			</g>
		</g>
		<g>
			<title> (ctg763_5)</title>
			<polygon class=" (ctg763_5)" points="252,25 253,25 253,10 283,40 253,70 253,55 252,55" fill="rgb(255,255,255)" fill-opacity="1.0" stroke="rgb(0,0,0)" stroke-width="2"  />
			<g>
				<title>SQS_PSY (PF00494)
"Squalene/phytoene synthase"</title>
				<polygon class="PF00494" points="254,28 266,28 278,40 266,52 254,52" stroke-linejoin="round" width="26" height="24" fill="rgb(178,91,49)" stroke="rgb(142,72,39)" stroke-width="1" opacity="0.75" />
			</g>
		</g>
		<g>
			<title> (ctg763_6)</title>
			<polygon class=" (ctg763_6)" points="293,40 308,10 308,70" fill="rgb(255,255,255)" fill-opacity="1.0" stroke="rgb(0,0,0)" stroke-width="2"  />
		</g>
	</g>
</svg>
