<svg version="1.1" baseProfile="full" xmlns="http://www.w3.org/2000/svg" width="611.7666666666667" height="80">
	<g>
		<line x1="10" y1="40.0" x2="601.7666666666667" y2="40.0" style="stroke:rgb(70,70,70); stroke-width:3 "/>
		<g>
			<title> (ctg119_24)</title>
			<polygon class=" (ctg119_24)" points="102,25 94,25 94,10 64,40 94,70 94,55 102,55" fill="rgb(255,255,255)" fill-opacity="1.0" stroke="rgb(0,0,0)" stroke-width="2"  />
			<g>
				<title>Aminotran_5 (PF00266)
"Aminotransferase class-V"</title>
				<polygon class="PF00266" points="68,40 80,28 101,28 101,52 80,52 68,40" stroke-linejoin="round" width="33" height="24" fill="rgb(214,54,122)" stroke="rgb(171,43,97)" stroke-width="1" opacity="0.75" />
			</g>
		</g>
		<g>
			<title> (ctg119_25)</title>
			<polygon class=" (ctg119_25)" points="111,40 140,10 140,70" fill="rgb(255,255,255)" fill-opacity="1.0" stroke="rgb(0,0,0)" stroke-width="2"  />
			<g>
				<title>IGPS (PF00218)
"Indole-3-glycerol phosphate synthase"</title>
				<polygon class="PF00218" points="115,40 127,28 136,28 136,52 127,52" stroke-linejoin="round" width="25" height="24" fill="rgb(183,89,153)" stroke="rgb(146,71,122)" stroke-width="1" opacity="0.75" />
			</g>
		</g>
		<g>
			<title> (ctg119_26)</title>
			<polygon class=" (ctg119_26)" points="146,40 153,10 153,70" fill="rgb(255,255,255)" fill-opacity="1.0" stroke="rgb(0,0,0)" stroke-width="2"  />
		</g>
		<g>
			<title> (ctg119_27)</title>
			<polygon class=" (ctg119_27)" points="163,10 183,40 163,70" fill="rgb(255,255,255)" fill-opacity="1.0" stroke="rgb(0,0,0)" stroke-width="2"  />
		</g>
		<g>
			<title> (ctg119_28)</title>
			<polygon class=" (ctg119_28)" points="183,10 192,40 183,70" fill="rgb(255,255,255)" fill-opacity="1.0" stroke="rgb(0,0,0)" stroke-width="2"  />
			<g>
				<title>DUF3288 (PF11691)
"Protein of unknown function (DUF3288)"</title>
				<polygon class="PF11691" points="183,28 185,28 189,40 185,52 183,52" stroke-linejoin="round" width="8" height="24" fill="rgb(101,212,216)" stroke="rgb(80,169,172)" stroke-width="1" opacity="0.75" />
			</g>
		</g>
		<g>
			<title> (ctg119_29)</title>
			<polygon class=" (ctg119_29)" points="191,10 197,40 191,70" fill="rgb(255,255,255)" fill-opacity="1.0" stroke="rgb(0,0,0)" stroke-width="2"  />
		</g>
		<g>
			<title> (ctg119_30)</title>
			<polygon class=" (ctg119_30)" points="231,25 228,25 228,10 198,40 228,70 228,55 231,55" fill="rgb(255,255,255)" fill-opacity="1.0" stroke="rgb(0,0,0)" stroke-width="2"  />
			<g>
				<title>Glycos_transf_1 (PF00534)
"Glycosyl transferases group 1"</title>
				<polygon class="PF00534" points="203,39 214,28 216,28 216,52 214,52 203,41" stroke-linejoin="round" width="13" height="24" fill="rgb(228,92,150)" stroke="rgb(182,73,119)" stroke-width="1" opacity="0.75" />
			</g>
		</g>
		<g>
			<title> (ctg119_31)</title>
			<polygon class=" (ctg119_31)" points="235,10 238,40 235,70" fill="rgb(255,255,255)" fill-opacity="1.0" stroke="rgb(0,0,0)" stroke-width="2"  />
		</g>
		<g>
			<title> (ctg119_32)</title>
			<polygon class=" (ctg119_32)" points="240,10 247,40 240,70" fill="rgb(255,255,255)" fill-opacity="1.0" stroke="rgb(0,0,0)" stroke-width="2"  />
			<g>
				<title>zf-ISL3 (PF14690)
"zinc-finger of transposase IS204/IS1001/IS1096/IS1165"</title>
				<polygon class="PF14690" points="243,35 244,40 243,45" stroke-linejoin="round" width="3" height="24" fill="rgb(94,212,144)" stroke="rgb(75,169,115)" stroke-width="1" opacity="0.75" />
			</g>
		</g>
		<g>
			<title> (ctg119_33)</title>
			<polygon class=" (ctg119_33)" points="266,40 272,10 272,70" fill="rgb(255,255,255)" fill-opacity="1.0" stroke="rgb(0,0,0)" stroke-width="2"  />
		</g>
		<g>
			<title> (ctg119_34)</title>
			<polygon class=" (ctg119_34)" points="286,10 294,40 286,70" fill="rgb(255,255,255)" fill-opacity="1.0" stroke="rgb(0,0,0)" stroke-width="2"  />
		</g>
		<g>
			<title> (ctg119_35)</title>
			<polygon class=" (ctg119_35)" points="296,10 302,40 296,70" fill="rgb(255,255,255)" fill-opacity="1.0" stroke="rgb(0,0,0)" stroke-width="2"  />
		</g>
		<g>
			<title> (ctg119_36)</title>
			<polygon class=" (ctg119_36)" points="302,40 312,10 312,70" fill="rgb(255,255,255)" fill-opacity="1.0" stroke="rgb(0,0,0)" stroke-width="2"  />
		</g>
		<g>
			<title> (ctg119_37)</title>
			<polygon class=" (ctg119_37)" points="316,10 344,40 316,70" fill="rgb(255,255,255)" fill-opacity="1.0" stroke="rgb(0,0,0)" stroke-width="2"  />
		</g>
		<g>
			<title> (ctg119_38)</title>
			<polygon class=" (ctg119_38)" points="343,10 349,40 343,70" fill="rgb(255,255,255)" fill-opacity="1.0" stroke="rgb(0,0,0)" stroke-width="2"  />
		</g>
		<g>
			<title> (ctg119_39)</title>
			<polygon class=" (ctg119_39)" points="351,40 377,10 377,70" fill="rgb(255,255,255)" fill-opacity="1.0" stroke="rgb(0,0,0)" stroke-width="2"  />
			<g>
				<title>Trp_syntA (PF00290)
"Tryptophan synthase alpha chain"</title>
				<polygon class="PF00290" points="355,40 366,28 376,28 376,52 366,52" stroke-linejoin="round" width="25" height="24" fill="rgb(101,209,118)" stroke="rgb(80,167,94)" stroke-width="1" opacity="0.75" />
			</g>
		</g>
		<g>
			<title> (ctg119_40)</title>
			<polygon class=" (ctg119_40)" points="386,25 386,25 386,10 416,40 386,70 386,55 386,55" fill="rgb(255,255,255)" fill-opacity="1.0" stroke="rgb(0,0,0)" stroke-width="2"  />
			<g>
				<title>Glycos_transf_2 (PF00535)
"Glycosyl transferase family 2"</title>
				<polygon class="PF00535" points="386,28 400,28 401,29 401,51 400,52 386,52" stroke-linejoin="round" width="15" height="24" fill="rgb(224,122,96)" stroke="rgb(179,97,76)" stroke-width="1" opacity="0.75" />
			</g>
		</g>
		<g>
			<title> (ctg119_41)</title>
			<polygon class=" (ctg119_41)" points="420,40 431,10 431,70" fill="rgb(255,255,255)" fill-opacity="1.0" stroke="rgb(0,0,0)" stroke-width="2"  />
			<g>
				<title>BON (PF04972)
"BON domain"</title>
				<polygon class="PF04972" points="423,40 426,32 426,48" stroke-linejoin="round" width="6" height="24" fill="rgb(62,222,71)" stroke="rgb(49,177,56)" stroke-width="1" opacity="0.75" />
			</g>
		</g>
		<g>
			<title> (ctg119_42)</title>
			<polygon class=" (ctg119_42)" points="462,25 462,25 462,10 432,40 462,70 462,55 462,55" fill="rgb(255,255,255)" fill-opacity="1.0" stroke="rgb(0,0,0)" stroke-width="2"  />
			<g>
				<title>CCG (PF02754)
"Cysteine-rich domain"</title>
				<polygon class="PF02754" points="437,39 446,30 446,50 437,41" stroke-linejoin="round" width="9" height="24" fill="rgb(80,212,217)" stroke="rgb(64,169,173)" stroke-width="1" opacity="0.75" />
			</g>
			<g>
				<title>CCG (PF02754)
"Cysteine-rich domain"</title>
				<rect class="PF02754" x="453" y="28" stroke-linejoin="round" width="8" height="24" fill="rgb(80,212,217)" stroke="rgb(64,169,173)" stroke-width="1" opacity="0.75" />
			</g>
		</g>
		<g>
			<title> (ctg119_43)</title>
			<polygon class=" (ctg119_43)" points="473,40 484,10 484,70" fill="rgb(255,255,255)" fill-opacity="1.0" stroke="rgb(0,0,0)" stroke-width="2"  />
			<g>
				<title>STAS (PF01740)
"STAS domain"</title>
				<polygon class="PF01740" points="476,40 481,28 484,28 484,52 481,52" stroke-linejoin="round" width="10" height="24" fill="rgb(219,58,116)" stroke="rgb(175,46,92)" stroke-width="1" opacity="0.75" />
			</g>
		</g>
		<g>
			<title> (ctg119_44)</title>
			<polygon class=" (ctg119_44)" points="496,10 502,40 496,70" fill="rgb(255,255,255)" fill-opacity="1.0" stroke="rgb(0,0,0)" stroke-width="2"  />
		</g>
		<g>
			<title> (ctg119_45)</title>
			<polygon class=" (ctg119_45)" points="512,10 523,40 512,70" fill="rgb(255,255,255)" fill-opacity="1.0" stroke="rgb(0,0,0)" stroke-width="2"  />
		</g>
		<g>
			<title> (ctg119_46)</title>
			<polygon class=" (ctg119_46)" points="526,25 536,25 536,10 566,40 536,70 536,55 526,55" fill="rgb(255,255,255)" fill-opacity="1.0" stroke="rgb(0,0,0)" stroke-width="2"  />
			<g>
				<title>DUF790 (PF05626)
"Protein of unknown function (DUF790)"</title>
				<polygon class="PF05626" points="526,28 550,28 562,40 550,52 526,52" stroke-linejoin="round" width="40" height="24" fill="rgb(184,158,91)" stroke="rgb(147,126,72)" stroke-width="1" opacity="0.75" />
			</g>
		</g>
		<g>
			<title> (ctg119_47)</title>
			<polygon class=" (ctg119_47)" points="570,40 585,10 585,70" fill="rgb(255,255,255)" fill-opacity="1.0" stroke="rgb(0,0,0)" stroke-width="2"  />
			<g>
				<title>HSP20 (PF00011)
"Hsp20/alpha crystallin family"</title>
				<polygon class="PF00011" points="573,40 579,28 580,28 580,52 579,52" stroke-linejoin="round" width="10" height="24" fill="rgb(148,223,75)" stroke="rgb(118,178,60)" stroke-width="1" opacity="0.75" />
			</g>
		</g>
		<g>
			<title> (ctg119_48)</title>
			<polygon class=" (ctg119_48)" points="586,10 592,40 586,70" fill="rgb(255,255,255)" fill-opacity="1.0" stroke="rgb(0,0,0)" stroke-width="2"  />
		</g>
	</g>
</svg>
