<svg version="1.1" baseProfile="full" xmlns="http://www.w3.org/2000/svg" width="87.33333333333333" height="80">
	<g>
		<line x1="10" y1="40.0" x2="77.33333333333333" y2="40.0" style="stroke:rgb(70,70,70); stroke-width:3 "/>
		<g>
			<title> (ctg4_1)</title>
			<polygon class=" (ctg4_1)" points="43,25 41,25 41,10 11,40 41,70 41,55 43,55" fill="rgb(255,255,255)" fill-opacity="1.0" stroke="rgb(0,0,0)" stroke-width="2"  />
			<g>
				<title>Peptidase_S8 (PF00082)
"Subtilase family"</title>
				<polygon class="PF00082" points="15,40 27,28 41,28 41,52 27,52 15,40" stroke-linejoin="round" width="26" height="24" fill="rgb(193,159,94)" stroke="rgb(154,127,75)" stroke-width="1" opacity="0.75" />
			</g>
		</g>
		<g>
			<title> (ctg4_2)</title>
			<polygon class=" (ctg4_2)" points="44,40 63,10 63,70" fill="rgb(255,255,255)" fill-opacity="1.0" stroke="rgb(0,0,0)" stroke-width="2"  />
			<g>
				<title>Uma2 (PF05685)
"Putative restriction endonuclease"</title>
				<polygon class="PF05685" points="48,40 56,28 61,28 61,52 56,52" stroke-linejoin="round" width="17" height="24" fill="rgb(123,107,219)" stroke="rgb(98,85,175)" stroke-width="1" opacity="0.75" />
			</g>
		</g>
		<g>
			<title> (ctg4_3)</title>
			<polygon class=" (ctg4_3)" points="64,40 76,10 76,70" fill="rgb(255,255,255)" fill-opacity="1.0" stroke="rgb(0,0,0)" stroke-width="2"  />
			<g>
				<title>DUF29 (PF01724)
"Domain of unknown function DUF29"</title>
				<polygon class="PF01724" points="67,40 72,28 76,28 76,52 72,52" stroke-linejoin="round" width="12" height="24" fill="rgb(104,61,184)" stroke="rgb(83,48,147)" stroke-width="1" opacity="0.75" />
			</g>
		</g>
	</g>
</svg>
