<svg version="1.1" baseProfile="full" xmlns="http://www.w3.org/2000/svg" width="276.96666666666664" height="80">
	<g>
		<line x1="10" y1="40.0" x2="266.96666666666664" y2="40.0" style="stroke:rgb(70,70,70); stroke-width:3 "/>
		<g>
			<title> (ctg209_1)</title>
			<polygon class=" (ctg209_1)" points="10,40 23,10 23,70" fill="rgb(255,255,255)" fill-opacity="1.0" stroke="rgb(0,0,0)" stroke-width="2"  />
			<g>
				<title>FAD_binding_4 (PF01565)
"FAD binding domain"</title>
				<polygon class="PF01565" points="13,40 18,28 18,28 18,52 18,52" stroke-linejoin="round" width="8" height="24" fill="rgb(226,88,136)" stroke="rgb(180,70,108)" stroke-width="1" opacity="0.75" />
			</g>
		</g>
		<g>
			<title> (ctg209_2)</title>
			<polygon class=" (ctg209_2)" points="26,40 46,10 46,70" fill="rgb(255,255,255)" fill-opacity="1.0" stroke="rgb(0,0,0)" stroke-width="2"  />
			<g>
				<title>ICMT (PF04140)
"Isoprenylcysteine carboxyl methyltransferase (ICMT) family"</title>
				<polygon class="PF04140" points="30,40 38,28 38,28 38,52 38,52" stroke-linejoin="round" width="9" height="24" fill="rgb(100,223,104)" stroke="rgb(80,178,83)" stroke-width="1" opacity="0.75" />
			</g>
		</g>
		<g>
			<title> (ctg209_3)</title>
			<polygon class=" (ctg209_3)" points="85,25 76,25 76,10 46,40 76,70 76,55 85,55" fill="rgb(255,255,255)" fill-opacity="1.0" stroke="rgb(0,0,0)" stroke-width="2"  />
			<g>
				<title>Chal_sti_synt_C (PF02797)
"Chalcone and stilbene synthases, C-terminal domain"</title>
				<polygon class="PF02797" points="50,40 60,30 60,50" stroke-linejoin="round" width="14" height="24" fill="rgb(139,212,63)" stroke="rgb(111,169,50)" stroke-width="1" opacity="0.75" />
			</g>
			<g>
				<title>FAE1_CUT1_RppA (PF08392)
"FAE1/Type III polyketide synthase-like protein"</title>
				<rect class="PF08392" x="65" y="28" stroke-linejoin="round" width="11" height="24" fill="rgb(70,220,135)" stroke="rgb(56,176,108)" stroke-width="1" opacity="0.75" />
			</g>
		</g>
		<g>
			<title> (ctg209_4)</title>
			<polygon class=" (ctg209_4)" points="131,25 117,25 117,10 87,40 117,70 117,55 131,55" fill="rgb(255,255,255)" fill-opacity="1.0" stroke="rgb(0,0,0)" stroke-width="2"  />
			<g>
				<title>FMO-like (PF00743)
"Flavin-binding monooxygenase-like"</title>
				<polygon class="PF00743" points="91,40 103,28 130,28 130,52 103,52" stroke-linejoin="round" width="43" height="24" fill="rgb(203,74,151)" stroke="rgb(162,59,120)" stroke-width="1" opacity="0.75" />
			</g>
		</g>
		<g>
			<title> (ctg209_5)</title>
			<polygon class=" (ctg209_5)" points="264,25 162,25 162,10 132,40 162,70 162,55 264,55" fill="rgb(255,255,255)" fill-opacity="1.0" stroke="rgb(0,0,0)" stroke-width="2"  />
			<g>
				<title>Thioesterase (PF00975)
"Thioesterase domain"</title>
				<polygon class="PF00975" points="136,40 148,28 155,28 155,52 148,52" stroke-linejoin="round" width="22" height="24" fill="rgb(207,80,138)" stroke="rgb(165,63,110)" stroke-width="1" opacity="0.75" />
			</g>
			<g>
				<title>PP-binding (PF00550)
"Phosphopantetheine attachment site"</title>
				<rect class="PF00550" x="161" y="28" stroke-linejoin="round" width="6" height="24" fill="rgb(103,191,88)" stroke="rgb(82,152,70)" stroke-width="1" opacity="0.75" />
			</g>
			<g>
				<title>Acyl_transf_1 (PF00698)
"Acyl transferase domain"</title>
				<rect class="PF00698" x="176" y="28" stroke-linejoin="round" width="31" height="24" fill="rgb(59,176,209)" stroke="rgb(47,140,167)" stroke-width="1" opacity="0.75" />
			</g>
			<g>
				<title>KAsynt_C_assoc (PF16197)
"Ketoacyl-synthetase C-terminal extension"</title>
				<rect class="PF16197" x="211" y="28" stroke-linejoin="round" width="11" height="24" fill="rgb(240,150,172)" stroke="rgb(192,120,137)" stroke-width="1" opacity="0.75" />
			</g>
			<g>
				<title>Ketoacyl-synt_C (PF02801)
"Beta-ketoacyl synthase, C-terminal domain"</title>
				<rect class="PF02801" x="223" y="28" stroke-linejoin="round" width="11" height="24" fill="rgb(215,78,102)" stroke="rgb(172,62,81)" stroke-width="1" opacity="0.75" />
			</g>
			<g>
				<title>ketoacyl-synt (PF00109)
"Beta-ketoacyl synthase, N-terminal domain"</title>
				<rect class="PF00109" x="235" y="28" stroke-linejoin="round" width="25" height="24" fill="rgb(112,116,228)" stroke="rgb(89,92,182)" stroke-width="1" opacity="0.75" />
			</g>
		</g>
	</g>
</svg>
