<svg version="1.1" baseProfile="full" xmlns="http://www.w3.org/2000/svg" width="108.56666666666666" height="80">
	<g>
		<line x1="10" y1="40.0" x2="98.56666666666666" y2="40.0" style="stroke:rgb(70,70,70); stroke-width:3 "/>
		<g>
			<title> (ctg156_1)</title>
			<polygon class=" (ctg156_1)" points="22,10 26,40 22,70" fill="rgb(255,255,255)" fill-opacity="1.0" stroke="rgb(0,0,0)" stroke-width="2"  />
		</g>
		<g>
			<title> (ctg156_2)</title>
			<polygon class=" (ctg156_2)" points="39,10 46,40 39,70" fill="rgb(255,255,255)" fill-opacity="1.0" stroke="rgb(0,0,0)" stroke-width="2"  />
		</g>
		<g>
			<title> (ctg156_3)</title>
			<polygon class=" (ctg156_3)" points="46,10 55,40 46,70" fill="rgb(255,255,255)" fill-opacity="1.0" stroke="rgb(0,0,0)" stroke-width="2"  />
			<g>
				<title>YafQ_toxin (PF15738)
"Bacterial toxin of type II toxin-antitoxin system, YafQ"</title>
				<polygon class="PF15738" points="46,28 48,28 52,40 48,52 46,52" stroke-linejoin="round" width="9" height="24" fill="rgb(58,224,128)" stroke="rgb(46,179,102)" stroke-width="1" opacity="0.75" />
			</g>
		</g>
		<g>
			<title> (ctg156_4)</title>
			<polygon class=" (ctg156_4)" points="58,25 64,25 64,10 94,40 64,70 64,55 58,55" fill="rgb(255,255,255)" fill-opacity="1.0" stroke="rgb(0,0,0)" stroke-width="2"  />
			<g>
				<title>Peptidase_S8 (PF00082)
"Subtilase family"</title>
				<polygon class="PF00082" points="60,28 77,28 88,39 88,41 77,52 60,52" stroke-linejoin="round" width="28" height="24" fill="rgb(193,159,94)" stroke="rgb(154,127,75)" stroke-width="1" opacity="0.75" />
			</g>
		</g>
		<g>
			<title> (ctg156_5)</title>
			<polygon class=" (ctg156_5)" points="95,10 97,40 95,70" fill="rgb(255,255,255)" fill-opacity="1.0" stroke="rgb(0,0,0)" stroke-width="2"  />
		</g>
	</g>
</svg>
