<svg version="1.1" baseProfile="full" xmlns="http://www.w3.org/2000/svg" width="380.8666666666667" height="80">
	<g>
		<line x1="10" y1="40.0" x2="370.8666666666667" y2="40.0" style="stroke:rgb(70,70,70); stroke-width:3 "/>
		<g>
			<title> (ctg779_1)</title>
			<polygon class=" (ctg779_1)" points="48,25 40,25 40,10 10,40 40,70 40,55 48,55" fill="rgb(255,255,255)" fill-opacity="1.0" stroke="rgb(0,0,0)" stroke-width="2"  />
			<g>
				<title>CP_ATPgrasp_2 (PF14403)
"Circularly permuted ATP-grasp type 2"</title>
				<polygon class="PF14403" points="14,40 26,28 38,28 38,52 26,52" stroke-linejoin="round" width="28" height="24" fill="rgb(80,222,92)" stroke="rgb(64,177,73)" stroke-width="1" opacity="0.75" />
			</g>
		</g>
		<g>
			<title> (ctg779_2)</title>
			<polygon class=" (ctg779_2)" points="83,25 78,25 78,10 48,40 78,70 78,55 83,55" fill="rgb(255,255,255)" fill-opacity="1.0" stroke="rgb(0,0,0)" stroke-width="2"  />
			<g>
				<title>OrfB_Zn_ribbon (PF07282)
"Putative transposase DNA-binding domain"</title>
				<polygon class="PF07282" points="52,40 55,37 55,43" stroke-linejoin="round" width="6" height="24" fill="rgb(188,84,136)" stroke="rgb(150,67,108)" stroke-width="1" opacity="0.75" />
			</g>
		</g>
		<g>
			<title> (ctg779_3)</title>
			<polygon class=" (ctg779_3)" points="86,40 102,10 102,70" fill="rgb(255,255,255)" fill-opacity="1.0" stroke="rgb(0,0,0)" stroke-width="2"  />
			<g>
				<title>Resolvase (PF00239)
"Resolvase, N terminal domain"</title>
				<polygon class="PF00239" points="89,40 95,28 96,28 96,52 95,52" stroke-linejoin="round" width="10" height="24" fill="rgb(99,177,201)" stroke="rgb(79,141,160)" stroke-width="1" opacity="0.75" />
			</g>
			<g>
				<title>MerR_1 (PF13411)
"MerR HTH family regulatory protein"</title>
				<rect class="PF13411" x="97" y="28" stroke-linejoin="round" width="4" height="24" fill="rgb(100,202,107)" stroke="rgb(80,161,85)" stroke-width="1" opacity="0.75" />
			</g>
		</g>
		<g>
			<title> (ctg779_4)</title>
			<polygon class=" (ctg779_4)" points="112,10 134,40 112,70" fill="rgb(255,255,255)" fill-opacity="1.0" stroke="rgb(0,0,0)" stroke-width="2"  />
			<g>
				<title>Cytochrome_B (PF00033)
"Cytochrome b/b6/petB"</title>
				<polygon class="PF00033" points="114,28 121,28 130,40 121,52 114,52" stroke-linejoin="round" width="18" height="24" fill="rgb(209,58,124)" stroke="rgb(167,46,99)" stroke-width="1" opacity="0.75" />
			</g>
		</g>
		<g>
			<title> (ctg779_5)</title>
			<polygon class=" (ctg779_5)" points="136,10 152,40 136,70" fill="rgb(255,255,255)" fill-opacity="1.0" stroke="rgb(0,0,0)" stroke-width="2"  />
			<g>
				<title>Cytochrom_B_C (PF00032)
"Cytochrome b(C-terminal)/b6/petD"</title>
				<polygon class="PF00032" points="142,28 142,28 148,40 142,52 142,52" stroke-linejoin="round" width="9" height="24" fill="rgb(183,105,214)" stroke="rgb(146,84,171)" stroke-width="1" opacity="0.75" />
			</g>
		</g>
		<g>
			<title> (ctg779_6)</title>
			<polygon class=" (ctg779_6)" points="162,40 189,10 189,70" fill="rgb(255,255,255)" fill-opacity="1.0" stroke="rgb(0,0,0)" stroke-width="2"  />
			<g>
				<title>SQS_PSY (PF00494)
"Squalene/phytoene synthase"</title>
				<polygon class="PF00494" points="168,38 177,28 187,28 187,52 177,52 168,42" stroke-linejoin="round" width="19" height="24" fill="rgb(178,91,49)" stroke="rgb(142,72,39)" stroke-width="1" opacity="0.75" />
			</g>
		</g>
		<g>
			<title> (ctg779_7)</title>
			<polygon class=" (ctg779_7)" points="198,40 205,10 205,70" fill="rgb(255,255,255)" fill-opacity="1.0" stroke="rgb(0,0,0)" stroke-width="2"  />
		</g>
		<g>
			<title> (ctg779_8)</title>
			<polygon class=" (ctg779_8)" points="286,25 262,25 262,10 232,40 262,70 262,55 286,55" fill="rgb(255,255,255)" fill-opacity="1.0" stroke="rgb(0,0,0)" stroke-width="2"  />
		</g>
		<g>
			<title> (ctg779_9)</title>
			<polygon class=" (ctg779_9)" points="308,10 312,40 308,70" fill="rgb(255,255,255)" fill-opacity="1.0" stroke="rgb(0,0,0)" stroke-width="2"  />
			<g>
				<title>DUF4388 (PF14332)
"Domain of unknown function (DUF4388)"</title>
				<polygon class="PF14332" points="308,33 309,40 308,47" stroke-linejoin="round" width="3" height="24" fill="rgb(60,145,197)" stroke="rgb(47,116,157)" stroke-width="1" opacity="0.75" />
			</g>
		</g>
		<g>
			<title> (ctg779_10)</title>
			<polygon class=" (ctg779_10)" points="314,10 322,40 314,70" fill="rgb(255,255,255)" fill-opacity="1.0" stroke="rgb(0,0,0)" stroke-width="2"  />
		</g>
		<g>
			<title> (ctg779_11)</title>
			<polygon class=" (ctg779_11)" points="348,10 360,40 348,70" fill="rgb(255,255,255)" fill-opacity="1.0" stroke="rgb(0,0,0)" stroke-width="2"  />
			<g>
				<title>Response_reg (PF00072)
"Response regulator receiver domain"</title>
				<polygon class="PF00072" points="348,28 351,28 356,40 351,52 348,52" stroke-linejoin="round" width="11" height="24" fill="rgb(100,107,203)" stroke="rgb(80,85,162)" stroke-width="1" opacity="0.75" />
			</g>
		</g>
		<g>
			<title> (ctg779_12)</title>
			<polygon class=" (ctg779_12)" points="366,10 370,40 366,70" fill="rgb(255,255,255)" fill-opacity="1.0" stroke="rgb(0,0,0)" stroke-width="2"  />
		</g>
	</g>
</svg>
