<svg version="1.1" baseProfile="full" xmlns="http://www.w3.org/2000/svg" width="395.6" height="80">
	<g>
		<line x1="10" y1="40.0" x2="385.6" y2="40.0" style="stroke:rgb(70,70,70); stroke-width:3 "/>
		<g>
			<title> (ctg24_1)</title>
			<polygon class=" (ctg24_1)" points="81,25 55,25 55,10 25,40 55,70 55,55 81,55" fill="rgb(255,255,255)" fill-opacity="1.0" stroke="rgb(0,0,0)" stroke-width="2"  />
			<g>
				<title>HemolysinCabind (PF00353)
"RTX calcium-binding nonapeptide repeat (4 copies)"</title>
				<polygon class="PF00353" points="35,34 38,31 38,49 35,46" stroke-linejoin="round" width="3" height="24" fill="rgb(73,143,181)" stroke="rgb(58,114,144)" stroke-width="1" opacity="0.75" />
			</g>
			<g>
				<title>HemolysinCabind (PF00353)
"RTX calcium-binding nonapeptide repeat (4 copies)"</title>
				<polygon class="PF00353" points="41,28 41,28 44,28 44,52 41,52 41,52" stroke-linejoin="round" width="3" height="24" fill="rgb(73,143,181)" stroke="rgb(58,114,144)" stroke-width="1" opacity="0.75" />
			</g>
			<g>
				<title>Big_12 (PF19078)
"Bacterial Ig-like domain"</title>
				<rect class="PF19078" x="46" y="28" stroke-linejoin="round" width="9" height="24" fill="rgb(81,214,205)" stroke="rgb(64,171,164)" stroke-width="1" opacity="0.75" />
			</g>
			<g>
				<title>Big_12 (PF19078)
"Bacterial Ig-like domain"</title>
				<rect class="PF19078" x="56" y="28" stroke-linejoin="round" width="9" height="24" fill="rgb(81,214,205)" stroke="rgb(64,171,164)" stroke-width="1" opacity="0.75" />
			</g>
		</g>
		<g>
			<title> (ctg24_2)</title>
			<polygon class=" (ctg24_2)" points="102,40 131,10 131,70" fill="rgb(255,255,255)" fill-opacity="1.0" stroke="rgb(0,0,0)" stroke-width="2"  />
			<g>
				<title>CbiQ (PF02361)
"Cobalt transport protein"</title>
				<polygon class="PF02361" points="106,40 118,28 129,28 129,52 118,52" stroke-linejoin="round" width="24" height="24" fill="rgb(217,92,216)" stroke="rgb(173,73,172)" stroke-width="1" opacity="0.75" />
			</g>
		</g>
		<g>
			<title> (ctg24_3)</title>
			<polygon class=" (ctg24_3)" points="176,25 161,25 161,10 131,40 161,70 161,55 176,55" fill="rgb(255,255,255)" fill-opacity="1.0" stroke="rgb(0,0,0)" stroke-width="2"  />
			<g>
				<title>KH_dom-like (PF14714)
"KH-domain-like of EngA bacterial GTPase enzymes, C-terminal"</title>
				<polygon class="PF14714" points="135,40 140,35 140,45" stroke-linejoin="round" width="8" height="24" fill="rgb(178,119,50)" stroke="rgb(142,95,40)" stroke-width="1" opacity="0.75" />
			</g>
			<g>
				<title>MMR_HSR1 (PF01926)
"50S ribosome-binding GTPase"</title>
				<polygon class="PF01926" points="146,29 147,28 157,28 157,52 147,52 146,51" stroke-linejoin="round" width="11" height="24" fill="rgb(105,180,226)" stroke="rgb(83,143,180)" stroke-width="1" opacity="0.75" />
			</g>
			<g>
				<title>MMR_HSR1 (PF01926)
"50S ribosome-binding GTPase"</title>
				<rect class="PF01926" x="164" y="28" stroke-linejoin="round" width="11" height="24" fill="rgb(105,180,226)" stroke="rgb(83,143,180)" stroke-width="1" opacity="0.75" />
			</g>
		</g>
		<g>
			<title> (ctg24_4)</title>
			<polygon class=" (ctg24_4)" points="181,10 189,40 181,70" fill="rgb(255,255,255)" fill-opacity="1.0" stroke="rgb(0,0,0)" stroke-width="2"  />
			<g>
				<title>HTH_3 (PF01381)
"Helix-turn-helix"</title>
				<polygon class="PF01381" points="182,28 182,28 186,40 182,52 182,52" stroke-linejoin="round" width="5" height="24" fill="rgb(105,79,202)" stroke="rgb(83,63,161)" stroke-width="1" opacity="0.75" />
			</g>
		</g>
		<g>
			<title> (ctg24_5)</title>
			<polygon class=" (ctg24_5)" points="194,40 200,10 200,70" fill="rgb(255,255,255)" fill-opacity="1.0" stroke="rgb(0,0,0)" stroke-width="2"  />
		</g>
		<g>
			<title> (ctg24_6)</title>
			<polygon class=" (ctg24_6)" points="202,40 215,10 215,70" fill="rgb(255,255,255)" fill-opacity="1.0" stroke="rgb(0,0,0)" stroke-width="2"  />
			<g>
				<title>GGACT (PF06094)
"Gamma-glutamyl cyclotransferase, AIG2-like"</title>
				<polygon class="PF06094" points="205,40 210,28 214,28 214,52 210,52" stroke-linejoin="round" width="12" height="24" fill="rgb(227,229,113)" stroke="rgb(181,183,90)" stroke-width="1" opacity="0.75" />
			</g>
		</g>
		<g>
			<title> (ctg24_7)</title>
			<polygon class=" (ctg24_7)" points="250,25 246,25 246,10 216,40 246,70 246,55 250,55" fill="rgb(255,255,255)" fill-opacity="1.0" stroke="rgb(0,0,0)" stroke-width="2"  />
			<g>
				<title>Aldo_ket_red (PF00248)
"Aldo/keto reductase family"</title>
				<polygon class="PF00248" points="220,40 232,28 248,28 248,52 232,52" stroke-linejoin="round" width="29" height="24" fill="rgb(225,205,58)" stroke="rgb(180,164,46)" stroke-width="1" opacity="0.75" />
			</g>
		</g>
		<g>
			<title> (ctg24_8)</title>
			<polygon class=" (ctg24_8)" points="324,25 285,25 285,10 255,40 285,70 285,55 324,55" fill="rgb(255,255,255)" fill-opacity="1.0" stroke="rgb(0,0,0)" stroke-width="2"  />
			<g>
				<title>PatG_C (PF18065)
"PatG C-terminal"</title>
				<polygon class="PF18065" points="259,40 266,33 266,47" stroke-linejoin="round" width="11" height="24" fill="rgb(93,82,184)" stroke="rgb(74,65,147)" stroke-width="1" opacity="0.75" />
			</g>
			<g>
				<title>PatG_D (PF18047)
"PatG Domain"</title>
				<polygon class="PF18047" points="271,28 271,28 282,28 282,52 271,52 271,52" stroke-linejoin="round" width="11" height="24" fill="rgb(91,195,69)" stroke="rgb(72,156,55)" stroke-width="1" opacity="0.75" />
			</g>
			<g>
				<title>Peptidase_S8 (PF00082)
"Subtilase family"</title>
				<rect class="PF00082" x="290" y="28" stroke-linejoin="round" width="32" height="24" fill="rgb(193,159,94)" stroke="rgb(154,127,75)" stroke-width="1" opacity="0.75" />
			</g>
		</g>
		<g>
			<title> (ctg24_9)</title>
			<polygon class=" (ctg24_9)" points="327,10 353,40 327,70" fill="rgb(255,255,255)" fill-opacity="1.0" stroke="rgb(0,0,0)" stroke-width="2"  />
			<g>
				<title>Uma2 (PF05685)
"Putative restriction endonuclease"</title>
				<polygon class="PF05685" points="331,28 339,28 348,39 348,41 339,52 331,52" stroke-linejoin="round" width="17" height="24" fill="rgb(123,107,219)" stroke="rgb(98,85,175)" stroke-width="1" opacity="0.75" />
			</g>
		</g>
		<g>
			<title> (ctg24_10)</title>
			<polygon class=" (ctg24_10)" points="354,40 361,10 361,70" fill="rgb(255,255,255)" fill-opacity="1.0" stroke="rgb(0,0,0)" stroke-width="2"  />
		</g>
		<g>
			<title> (ctg24_11)</title>
			<polygon class=" (ctg24_11)" points="363,40 371,10 371,70" fill="rgb(255,255,255)" fill-opacity="1.0" stroke="rgb(0,0,0)" stroke-width="2"  />
		</g>
	</g>
</svg>
