<svg version="1.1" baseProfile="full" xmlns="http://www.w3.org/2000/svg" width="670.8" height="80">
	<g>
		<line x1="10" y1="40.0" x2="660.8" y2="40.0" style="stroke:rgb(70,70,70); stroke-width:3 "/>
		<g>
			<title> (ctg107_1)</title>
			<polygon class=" (ctg107_1)" points="12,25 14,25 14,10 44,40 14,70 14,55 12,55" fill="rgb(255,255,255)" fill-opacity="1.0" stroke="rgb(0,0,0)" stroke-width="2"  />
			<g>
				<title>DDE_Tnp_1_assoc (PF13808)
"DDE_Tnp_1-associated"</title>
				<rect class="PF13808" x="12" y="28" stroke-linejoin="round" width="5" height="24" fill="rgb(95,129,194)" stroke="rgb(76,103,155)" stroke-width="1" opacity="0.75" />
			</g>
			<g>
				<title>DDE_Tnp_1 (PF01609)
"Transposase DDE domain"</title>
				<polygon class="PF01609" points="18,28 28,28 40,40 28,52 18,52" stroke-linejoin="round" width="23" height="24" fill="rgb(229,102,99)" stroke="rgb(183,81,79)" stroke-width="1" opacity="0.75" />
			</g>
		</g>
		<g>
			<title> (ctg107_2)</title>
			<polygon class=" (ctg107_2)" points="58,10 75,40 58,70" fill="rgb(255,255,255)" fill-opacity="1.0" stroke="rgb(0,0,0)" stroke-width="2"  />
			<g>
				<title>TPR_12 (PF13424)
"Tetratricopeptide repeat"</title>
				<polygon class="PF13424" points="63,28 65,28 70,36 70,44 65,52 63,52" stroke-linejoin="round" width="7" height="24" fill="rgb(147,215,101)" stroke="rgb(117,172,80)" stroke-width="1" opacity="0.75" />
			</g>
		</g>
		<g>
			<title> (ctg107_3)</title>
			<polygon class=" (ctg107_3)" points="137,25 107,25 107,10 77,40 107,70 107,55 137,55" fill="rgb(255,255,255)" fill-opacity="1.0" stroke="rgb(0,0,0)" stroke-width="2"  />
			<g>
				<title>CitMHS (PF03600)
"Citrate transporter"</title>
				<polygon class="PF03600" points="82,39 93,28 134,28 134,52 93,52 82,41" stroke-linejoin="round" width="52" height="24" fill="rgb(75,203,220)" stroke="rgb(60,162,176)" stroke-width="1" opacity="0.75" />
			</g>
		</g>
		<g>
			<title> (ctg107_4)</title>
			<polygon class=" (ctg107_4)" points="229,25 167,25 167,10 137,40 167,70 167,55 229,55" fill="rgb(255,255,255)" fill-opacity="1.0" stroke="rgb(0,0,0)" stroke-width="2"  />
			<g>
				<title>Cation_ATPase_C (PF00689)
"Cation transporting ATPase, C-terminus"</title>
				<polygon class="PF00689" points="141,40 153,28 154,28 154,52 153,52" stroke-linejoin="round" width="17" height="24" fill="rgb(76,203,161)" stroke="rgb(60,162,128)" stroke-width="1" opacity="0.75" />
			</g>
			<g>
				<title>Hydrolase (PF00702)
"haloacid dehalogenase-like hydrolase"</title>
				<rect class="PF00702" x="162" y="28" stroke-linejoin="round" width="32" height="24" fill="rgb(68,220,102)" stroke="rgb(54,176,81)" stroke-width="1" opacity="0.75" />
			</g>
			<g>
				<title>E1-E2_ATPase (PF00122)
"E1-E2 ATPase"</title>
				<rect class="PF00122" x="197" y="28" stroke-linejoin="round" width="19" height="24" fill="rgb(149,204,70)" stroke="rgb(119,163,56)" stroke-width="1" opacity="0.75" />
			</g>
			<g>
				<title>Cation_ATPase_N (PF00690)
"Cation transporter/ATPase, N-terminus"</title>
				<rect class="PF00690" x="221" y="28" stroke-linejoin="round" width="6" height="24" fill="rgb(174,102,225)" stroke="rgb(139,81,180)" stroke-width="1" opacity="0.75" />
			</g>
		</g>
		<g>
			<title> (ctg107_5)</title>
			<polygon class=" (ctg107_5)" points="245,25 262,25 262,10 292,40 262,70 262,55 245,55" fill="rgb(255,255,255)" fill-opacity="1.0" stroke="rgb(0,0,0)" stroke-width="2"  />
			<g>
				<title>Amino_oxidase (PF01593)
"Flavin containing amine oxidoreductase"</title>
				<polygon class="PF01593" points="246,28 276,28 288,40 276,52 246,52" stroke-linejoin="round" width="44" height="24" fill="rgb(184,74,52)" stroke="rgb(147,59,41)" stroke-width="1" opacity="0.75" />
			</g>
		</g>
		<g>
			<title> (ctg107_6)</title>
			<polygon class=" (ctg107_6)" points="296,25 297,25 297,10 327,40 297,70 297,55 296,55" fill="rgb(255,255,255)" fill-opacity="1.0" stroke="rgb(0,0,0)" stroke-width="2"  />
			<g>
				<title>SQS_PSY (PF00494)
"Squalene/phytoene synthase"</title>
				<polygon class="PF00494" points="298,28 310,28 322,40 310,52 298,52" stroke-linejoin="round" width="26" height="24" fill="rgb(178,91,49)" stroke="rgb(142,72,39)" stroke-width="1" opacity="0.75" />
			</g>
		</g>
		<g>
			<title> (ctg107_7)</title>
			<polygon class=" (ctg107_7)" points="337,40 350,10 350,70" fill="rgb(255,255,255)" fill-opacity="1.0" stroke="rgb(0,0,0)" stroke-width="2"  />
		</g>
		<g>
			<title> (ctg107_8)</title>
			<polygon class=" (ctg107_8)" points="362,10 370,40 362,70" fill="rgb(255,255,255)" fill-opacity="1.0" stroke="rgb(0,0,0)" stroke-width="2"  />
		</g>
		<g>
			<title> (ctg107_9)</title>
			<polygon class=" (ctg107_9)" points="376,10 385,40 376,70" fill="rgb(255,255,255)" fill-opacity="1.0" stroke="rgb(0,0,0)" stroke-width="2"  />
		</g>
		<g>
			<title> (ctg107_10)</title>
			<polygon class=" (ctg107_10)" points="389,25 394,25 394,10 424,40 394,70 394,55 389,55" fill="rgb(255,255,255)" fill-opacity="1.0" stroke="rgb(0,0,0)" stroke-width="2"  />
			<g>
				<title>WD40 (PF00400)
"WD domain, G-beta repeat"</title>
				<rect class="PF00400" x="395" y="28" stroke-linejoin="round" width="3" height="24" fill="rgb(190,108,62)" stroke="rgb(152,86,49)" stroke-width="1" opacity="0.75" />
			</g>
			<g>
				<title>WD40 (PF00400)
"WD domain, G-beta repeat"</title>
				<rect class="PF00400" x="399" y="28" stroke-linejoin="round" width="3" height="24" fill="rgb(190,108,62)" stroke="rgb(152,86,49)" stroke-width="1" opacity="0.75" />
			</g>
			<g>
				<title>WD40 (PF00400)
"WD domain, G-beta repeat"</title>
				<polygon class="PF00400" points="412,32 415,35 415,45 412,48" stroke-linejoin="round" width="3" height="24" fill="rgb(190,108,62)" stroke="rgb(152,86,49)" stroke-width="1" opacity="0.75" />
			</g>
			<g>
				<title>WD40 (PF00400)
"WD domain, G-beta repeat"</title>
				<polygon class="PF00400" points="416,36 419,39 419,41 416,44" stroke-linejoin="round" width="3" height="24" fill="rgb(190,108,62)" stroke="rgb(152,86,49)" stroke-width="1" opacity="0.75" />
			</g>
			<g>
				<title>WD40 (PF00400)
"WD domain, G-beta repeat"</title>
				<polygon class="PF00400" points="420,40 420,40 420,40" stroke-linejoin="round" width="3" height="24" fill="rgb(190,108,62)" stroke="rgb(152,86,49)" stroke-width="1" opacity="0.75" />
			</g>
		</g>
		<g>
			<title> (ctg107_11)</title>
			<polygon class=" (ctg107_11)" points="425,40 448,10 448,70" fill="rgb(255,255,255)" fill-opacity="1.0" stroke="rgb(0,0,0)" stroke-width="2"  />
			<g>
				<title>dsrm (PF00035)
"Double-stranded RNA binding motif"</title>
				<polygon class="PF00035" points="429,40 431,37 431,43" stroke-linejoin="round" width="6" height="24" fill="rgb(223,106,84)" stroke="rgb(178,84,67)" stroke-width="1" opacity="0.75" />
			</g>
			<g>
				<title>Ribonucleas_3_3 (PF14622)
"Ribonuclease-III-like"</title>
				<polygon class="PF14622" points="434,34 438,28 445,28 445,52 438,52 434,46" stroke-linejoin="round" width="11" height="24" fill="rgb(134,211,63)" stroke="rgb(107,168,50)" stroke-width="1" opacity="0.75" />
			</g>
		</g>
		<g>
			<title> (ctg107_12)</title>
			<polygon class=" (ctg107_12)" points="479,10 506,40 479,70" fill="rgb(255,255,255)" fill-opacity="1.0" stroke="rgb(0,0,0)" stroke-width="2"  />
			<g>
				<title>Hydrolase_4 (PF12146)
"Serine aminopeptidase, S33"</title>
				<polygon class="PF12146" points="480,28 491,28 502,40 491,52 480,52" stroke-linejoin="round" width="23" height="24" fill="rgb(140,98,205)" stroke="rgb(112,78,164)" stroke-width="1" opacity="0.75" />
			</g>
		</g>
		<g>
			<title> (ctg107_13)</title>
			<polygon class=" (ctg107_13)" points="544,25 536,25 536,10 506,40 536,70 536,55 544,55" fill="rgb(255,255,255)" fill-opacity="1.0" stroke="rgb(0,0,0)" stroke-width="2"  />
			<g>
				<title>HATPase_c (PF02518)
"Histidine kinase-, DNA gyrase B-, and HSP90-like ATPase"</title>
				<polygon class="PF02518" points="510,40 517,33 517,47" stroke-linejoin="round" width="11" height="24" fill="rgb(80,94,225)" stroke="rgb(64,75,180)" stroke-width="1" opacity="0.75" />
			</g>
			<g>
				<title>HisKA (PF00512)
"His Kinase A (phospho-acceptor) domain"</title>
				<polygon class="PF00512" points="521,29 522,28 528,28 528,52 522,52 521,51" stroke-linejoin="round" width="7" height="24" fill="rgb(193,125,62)" stroke="rgb(154,100,49)" stroke-width="1" opacity="0.75" />
			</g>
			<g>
				<title>KaiB (PF07689)
"KaiB domain"</title>
				<rect class="PF07689" x="534" y="28" stroke-linejoin="round" width="8" height="24" fill="rgb(65,131,198)" stroke="rgb(52,104,158)" stroke-width="1" opacity="0.75" />
			</g>
		</g>
		<g>
			<title> (ctg107_14)</title>
			<polygon class=" (ctg107_14)" points="549,25 572,25 572,10 602,40 572,70 572,55 549,55" fill="rgb(255,255,255)" fill-opacity="1.0" stroke="rgb(0,0,0)" stroke-width="2"  />
			<g>
				<title>Glyco_hydro_57 (PF03065)
"Glycosyl hydrolase family 57"</title>
				<polygon class="PF03065" points="549,28 585,28 588,31 588,49 585,52 549,52" stroke-linejoin="round" width="39" height="24" fill="rgb(83,132,214)" stroke="rgb(66,105,171)" stroke-width="1" opacity="0.75" />
			</g>
			<g>
				<title>DUF1957 (PF09210)
"Domain of unknown function (DUF1957)"</title>
				<polygon class="PF09210" points="591,34 597,40 591,46" stroke-linejoin="round" width="9" height="24" fill="rgb(202,89,81)" stroke="rgb(161,71,64)" stroke-width="1" opacity="0.75" />
			</g>
		</g>
	</g>
</svg>
