<svg version="1.1" baseProfile="full" xmlns="http://www.w3.org/2000/svg" width="730.1333333333333" height="80">
	<g>
		<line x1="10" y1="40.0" x2="720.1333333333333" y2="40.0" style="stroke:rgb(70,70,70); stroke-width:3 "/>
		<g>
			<title> (ctg22_1)</title>
			<polygon class=" (ctg22_1)" points="10,40 13,10 13,70" fill="rgb(255,255,255)" fill-opacity="1.0" stroke="rgb(0,0,0)" stroke-width="2"  />
		</g>
		<g>
			<title> (ctg22_2)</title>
			<polygon class=" (ctg22_2)" points="80,25 67,25 67,10 37,40 67,70 67,55 80,55" fill="rgb(255,255,255)" fill-opacity="1.0" stroke="rgb(0,0,0)" stroke-width="2"  />
			<g>
				<title>DUF4143 (PF13635)
"Domain of unknown function (DUF4143)"</title>
				<polygon class="PF13635" points="45,36 53,28 60,28 60,52 53,52 45,44" stroke-linejoin="round" width="15" height="24" fill="rgb(119,89,210)" stroke="rgb(95,71,168)" stroke-width="1" opacity="0.75" />
			</g>
			<g>
				<title>AAA_14 (PF13173)
"AAA domain"</title>
				<rect class="PF13173" x="67" y="28" stroke-linejoin="round" width="12" height="24" fill="rgb(77,222,177)" stroke="rgb(61,177,141)" stroke-width="1" opacity="0.75" />
			</g>
		</g>
		<g>
			<title> (ctg22_3)</title>
			<polygon class=" (ctg22_3)" points="98,10 123,40 98,70" fill="rgb(255,255,255)" fill-opacity="1.0" stroke="rgb(0,0,0)" stroke-width="2"  />
			<g>
				<title>TatC (PF00902)
"Sec-independent protein translocase protein (TatC)"</title>
				<polygon class="PF00902" points="101,28 109,28 119,40 109,52 101,52" stroke-linejoin="round" width="20" height="24" fill="rgb(84,193,209)" stroke="rgb(67,154,167)" stroke-width="1" opacity="0.75" />
			</g>
		</g>
		<g>
			<title> (ctg22_4)</title>
			<polygon class=" (ctg22_4)" points="131,10 141,40 131,70" fill="rgb(255,255,255)" fill-opacity="1.0" stroke="rgb(0,0,0)" stroke-width="2"  />
		</g>
		<g>
			<title> (ctg22_5)</title>
			<polygon class=" (ctg22_5)" points="155,25 175,25 175,10 205,40 175,70 175,55 155,55" fill="rgb(255,255,255)" fill-opacity="1.0" stroke="rgb(0,0,0)" stroke-width="2"  />
			<g>
				<title>PSII (PF00421)
"Photosystem II protein"</title>
				<polygon class="PF00421" points="155,28 189,28 201,40 189,52 155,52" stroke-linejoin="round" width="49" height="24" fill="rgb(183,68,103)" stroke="rgb(146,54,82)" stroke-width="1" opacity="0.75" />
			</g>
		</g>
		<g>
			<title> (ctg22_6)</title>
			<polygon class=" (ctg22_6)" points="216,40 220,10 220,70" fill="rgb(255,255,255)" fill-opacity="1.0" stroke="rgb(0,0,0)" stroke-width="2"  />
			<g>
				<title>PsbJ (PF01788)
"PsbJ"</title>
				<polygon class="PF01788" points="219,40 219,40 219,40" stroke-linejoin="round" width="3" height="24" fill="rgb(56,185,118)" stroke="rgb(44,148,94)" stroke-width="1" opacity="0.75" />
			</g>
		</g>
		<g>
			<title> (ctg22_7)</title>
			<polygon class=" (ctg22_7)" points="222,40 226,10 226,70" fill="rgb(255,255,255)" fill-opacity="1.0" stroke="rgb(0,0,0)" stroke-width="2"  />
			<g>
				<title>PsbL (PF02419)
"PsbL protein"</title>
				<polygon class="PF02419" points="225,40 225,40 225,40" stroke-linejoin="round" width="3" height="24" fill="rgb(200,88,151)" stroke="rgb(160,70,120)" stroke-width="1" opacity="0.75" />
			</g>
		</g>
		<g>
			<title> (ctg22_8)</title>
			<polygon class=" (ctg22_8)" points="226,40 230,10 230,70" fill="rgb(255,255,255)" fill-opacity="1.0" stroke="rgb(0,0,0)" stroke-width="2"  />
			<g>
				<title>Cytochrom_B559 (PF00283)
"Cytochrome b559, alpha (gene psbE) and beta (gene psbF)subunits"</title>
				<polygon class="PF00283" points="229,40 229,40 229,40" stroke-linejoin="round" width="2" height="24" fill="rgb(69,149,197)" stroke="rgb(55,119,157)" stroke-width="1" opacity="0.75" />
			</g>
		</g>
		<g>
			<title> (ctg22_9)</title>
			<polygon class=" (ctg22_9)" points="231,40 239,10 239,70" fill="rgb(255,255,255)" fill-opacity="1.0" stroke="rgb(0,0,0)" stroke-width="2"  />
			<g>
				<title>Cytochrom_B559a (PF00284)
"Lumenal portion of Cytochrome b559, alpha (gene psbE) subunit"</title>
				<polygon class="PF00284" points="234,40 234,40 234,40" stroke-linejoin="round" width="3" height="24" fill="rgb(87,188,64)" stroke="rgb(69,150,51)" stroke-width="1" opacity="0.75" />
			</g>
			<g>
				<title>Cytochrom_B559 (PF00283)
"Cytochrome b559, alpha (gene psbE) and beta (gene psbF)subunits"</title>
				<polygon class="PF00283" points="235,36 237,28 237,28 237,52 237,52 235,44" stroke-linejoin="round" width="2" height="24" fill="rgb(69,149,197)" stroke="rgb(55,119,157)" stroke-width="1" opacity="0.75" />
			</g>
		</g>
		<g>
			<title> (ctg22_10)</title>
			<polygon class=" (ctg22_10)" points="275,25 272,25 272,10 242,40 272,70 272,55 275,55" fill="rgb(255,255,255)" fill-opacity="1.0" stroke="rgb(0,0,0)" stroke-width="2"  />
			<g>
				<title>PSII_BNR (PF14870)
"Photosynthesis system II assembly factor YCF48"</title>
				<polygon class="PF14870" points="246,40 258,28 272,28 272,52 258,52" stroke-linejoin="round" width="30" height="24" fill="rgb(188,81,115)" stroke="rgb(150,64,92)" stroke-width="1" opacity="0.75" />
			</g>
		</g>
		<g>
			<title> (ctg22_11)</title>
			<polygon class=" (ctg22_11)" points="279,40 291,10 291,70" fill="rgb(255,255,255)" fill-opacity="1.0" stroke="rgb(0,0,0)" stroke-width="2"  />
			<g>
				<title>Rubredoxin (PF00301)
"Rubredoxin"</title>
				<polygon class="PF00301" points="284,35 287,28 288,28 288,52 287,52 284,45" stroke-linejoin="round" width="4" height="24" fill="rgb(130,88,185)" stroke="rgb(104,70,148)" stroke-width="1" opacity="0.75" />
			</g>
		</g>
		<g>
			<title> (ctg22_12)</title>
			<polygon class=" (ctg22_12)" points="310,25 356,25 356,10 386,40 356,70 356,55 310,55" fill="rgb(255,255,255)" fill-opacity="1.0" stroke="rgb(0,0,0)" stroke-width="2"  />
			<g>
				<title>YcaO (PF02624)
"YcaO cyclodehydratase, ATP-ad Mg2+-binding"</title>
				<polygon class="PF02624" points="349,28 370,28 382,40 382,40 370,52 349,52" stroke-linejoin="round" width="33" height="24" fill="rgb(76,84,185)" stroke="rgb(60,67,148)" stroke-width="1" opacity="0.75" />
			</g>
		</g>
		<g>
			<title> (ctg22_13)</title>
			<polygon class=" (ctg22_13)" points="390,40 401,10 401,70" fill="rgb(255,255,255)" fill-opacity="1.0" stroke="rgb(0,0,0)" stroke-width="2"  />
			<g>
				<title>MVL (PF12151)
"Mannan-binding protein"</title>
				<polygon class="PF12151" points="393,40 393,40 393,40" stroke-linejoin="round" width="3" height="24" fill="rgb(172,219,73)" stroke="rgb(137,175,58)" stroke-width="1" opacity="0.75" />
			</g>
			<g>
				<title>MVL (PF12151)
"Mannan-binding protein"</title>
				<polygon class="PF12151" points="396,32 398,28 399,28 399,52 398,52 396,48" stroke-linejoin="round" width="3" height="24" fill="rgb(172,219,73)" stroke="rgb(137,175,58)" stroke-width="1" opacity="0.75" />
			</g>
		</g>
		<g>
			<title> (ctg22_14)</title>
			<polygon class=" (ctg22_14)" points="414,10 420,40 414,70" fill="rgb(255,255,255)" fill-opacity="1.0" stroke="rgb(0,0,0)" stroke-width="2"  />
			<g>
				<title>YcaO (PF02624)
"YcaO cyclodehydratase, ATP-ad Mg2+-binding"</title>
				<polygon class="PF02624" points="414,28 414,28 416,34 416,46 414,52 414,52" stroke-linejoin="round" width="2" height="24" fill="rgb(76,84,185)" stroke="rgb(60,67,148)" stroke-width="1" opacity="0.75" />
			</g>
		</g>
		<g>
			<title> (ctg22_15)</title>
			<polygon class=" (ctg22_15)" points="426,40 451,10 451,70" fill="rgb(255,255,255)" fill-opacity="1.0" stroke="rgb(0,0,0)" stroke-width="2"  />
			<g>
				<title>Transposase_20 (PF02371)
"Transposase IS116/IS110/IS902 family"</title>
				<polygon class="PF02371" points="430,40 438,31 438,49 430,40" stroke-linejoin="round" width="8" height="24" fill="rgb(104,204,65)" stroke="rgb(83,163,52)" stroke-width="1" opacity="0.75" />
			</g>
			<g>
				<title>DEDD_Tnp_IS110 (PF01548)
"Transposase"</title>
				<rect class="PF01548" x="442" y="28" stroke-linejoin="round" width="8" height="24" fill="rgb(59,200,207)" stroke="rgb(47,160,165)" stroke-width="1" opacity="0.75" />
			</g>
		</g>
		<g>
			<title> (ctg22_16)</title>
			<polygon class=" (ctg22_16)" points="452,40 458,10 458,70" fill="rgb(255,255,255)" fill-opacity="1.0" stroke="rgb(0,0,0)" stroke-width="2"  />
		</g>
		<g>
			<title> (ctg22_17)</title>
			<polygon class=" (ctg22_17)" points="494,10 522,40 494,70" fill="rgb(255,255,255)" fill-opacity="1.0" stroke="rgb(0,0,0)" stroke-width="2"  />
			<g>
				<title>DUF455 (PF04305)
"Protein of unknown function (DUF455)"</title>
				<polygon class="PF04305" points="496,28 506,28 514,36 514,44 506,52 496,52" stroke-linejoin="round" width="18" height="24" fill="rgb(49,129,189)" stroke="rgb(39,103,151)" stroke-width="1" opacity="0.75" />
			</g>
		</g>
		<g>
			<title> (ctg22_18)</title>
			<polygon class=" (ctg22_18)" points="528,25 533,25 533,10 563,40 533,70 533,55 528,55" fill="rgb(255,255,255)" fill-opacity="1.0" stroke="rgb(0,0,0)" stroke-width="2"  />
			<g>
				<title>Pentapeptide (PF00805)
"Pentapeptide repeats (8 copies)"</title>
				<polygon class="PF00805" points="552,33 555,36 555,44 552,47" stroke-linejoin="round" width="3" height="24" fill="rgb(186,52,164)" stroke="rgb(148,41,131)" stroke-width="1" opacity="0.75" />
			</g>
			<g>
				<title>Pentapeptide (PF00805)
"Pentapeptide repeats (8 copies)"</title>
				<polygon class="PF00805" points="557,38 559,40 557,42" stroke-linejoin="round" width="3" height="24" fill="rgb(186,52,164)" stroke="rgb(148,41,131)" stroke-width="1" opacity="0.75" />
			</g>
		</g>
		<g>
			<title> (ctg22_19)</title>
			<polygon class=" (ctg22_19)" points="566,40 591,10 591,70" fill="rgb(255,255,255)" fill-opacity="1.0" stroke="rgb(0,0,0)" stroke-width="2"  />
			<g>
				<title>Uma2 (PF05685)
"Putative restriction endonuclease"</title>
				<polygon class="PF05685" points="570,40 580,28 589,28 589,52 580,52" stroke-linejoin="round" width="20" height="24" fill="rgb(123,107,219)" stroke="rgb(98,85,175)" stroke-width="1" opacity="0.75" />
			</g>
		</g>
		<g>
			<title> (ctg22_20)</title>
			<polygon class=" (ctg22_20)" points="595,40 616,10 616,70" fill="rgb(255,255,255)" fill-opacity="1.0" stroke="rgb(0,0,0)" stroke-width="2"  />
			<g>
				<title>GerE (PF00196)
"Bacterial regulatory proteins, luxR family"</title>
				<polygon class="PF00196" points="599,40 600,39 600,41" stroke-linejoin="round" width="5" height="24" fill="rgb(219,94,82)" stroke="rgb(175,75,65)" stroke-width="1" opacity="0.75" />
			</g>
			<g>
				<title>Response_reg (PF00072)
"Response regulator receiver domain"</title>
				<polygon class="PF00072" points="604,33 607,28 615,28 615,52 607,52 604,47" stroke-linejoin="round" width="11" height="24" fill="rgb(100,107,203)" stroke="rgb(80,85,162)" stroke-width="1" opacity="0.75" />
			</g>
		</g>
		<g>
			<title> (ctg22_21)</title>
			<polygon class=" (ctg22_21)" points="625,25 669,25 669,10 699,40 669,70 669,55 625,55" fill="rgb(255,255,255)" fill-opacity="1.0" stroke="rgb(0,0,0)" stroke-width="2"  />
			<g>
				<title>MASE1 (PF05231)
"MASE1"</title>
				<rect class="PF05231" x="626" y="28" stroke-linejoin="round" width="28" height="24" fill="rgb(210,153,97)" stroke="rgb(168,122,77)" stroke-width="1" opacity="0.75" />
			</g>
			<g>
				<title>GAF (PF01590)
"GAF domain"</title>
				<rect class="PF01590" x="657" y="28" stroke-linejoin="round" width="14" height="24" fill="rgb(86,203,59)" stroke="rgb(68,162,47)" stroke-width="1" opacity="0.75" />
			</g>
			<g>
				<title>HATPase_c (PF02518)
"Histidine kinase-, DNA gyrase B-, and HSP90-like ATPase"</title>
				<polygon class="PF02518" points="687,32 695,40 687,48" stroke-linejoin="round" width="11" height="24" fill="rgb(80,94,225)" stroke="rgb(64,75,180)" stroke-width="1" opacity="0.75" />
			</g>
		</g>
	</g>
</svg>
