<svg version="1.1" baseProfile="full" xmlns="http://www.w3.org/2000/svg" width="1886.8666666666666" height="80">
	<g>
		<line x1="10" y1="40.0" x2="1876.8666666666666" y2="40.0" style="stroke:rgb(70,70,70); stroke-width:3 "/>
		<g>
			<title> (ctg66_5)</title>
			<polygon class=" (ctg66_5)" points="92,25 45,25 45,10 15,40 45,70 45,55 92,55" fill="rgb(255,255,255)" fill-opacity="1.0" stroke="rgb(0,0,0)" stroke-width="2"  />
			<g>
				<title>DUF4129 (PF13559)
"Domain of unknown function (DUF4129)"</title>
				<polygon class="PF13559" points="19,40 21,38 21,42" stroke-linejoin="round" width="6" height="24" fill="rgb(81,185,63)" stroke="rgb(64,148,50)" stroke-width="1" opacity="0.75" />
			</g>
			<g>
				<title>Transglut_core (PF01841)
"Transglutaminase-like superfamily"</title>
				<rect class="PF01841" x="33" y="28" stroke-linejoin="round" width="11" height="24" fill="rgb(208,223,79)" stroke="rgb(166,178,63)" stroke-width="1" opacity="0.75" />
			</g>
			<g>
				<title>TgpA_N (PF11992)
"TgpA N-terminal domain"</title>
				<rect class="PF11992" x="48" y="28" stroke-linejoin="round" width="39" height="24" fill="rgb(71,204,114)" stroke="rgb(56,163,91)" stroke-width="1" opacity="0.75" />
			</g>
		</g>
		<g>
			<title> (ctg66_6)</title>
			<polygon class=" (ctg66_6)" points="101,25 119,25 119,10 149,40 119,70 119,55 101,55" fill="rgb(255,255,255)" fill-opacity="1.0" stroke="rgb(0,0,0)" stroke-width="2"  />
			<g>
				<title>tRNA-synt_1e (PF01406)
"tRNA synthetases class I (C) catalytic domain"</title>
				<rect class="PF01406" x="102" y="28" stroke-linejoin="round" width="30" height="24" fill="rgb(131,218,83)" stroke="rgb(104,174,66)" stroke-width="1" opacity="0.75" />
			</g>
			<g>
				<title>DALR_2 (PF09190)
"DALR domain"</title>
				<polygon class="PF09190" points="136,32 143,39 143,41 136,48" stroke-linejoin="round" width="7" height="24" fill="rgb(70,57,193)" stroke="rgb(56,45,154)" stroke-width="1" opacity="0.75" />
			</g>
		</g>
		<g>
			<title> (ctg66_7)</title>
			<polygon class=" (ctg66_7)" points="199,25 178,25 178,10 148,40 178,70 178,55 199,55" fill="rgb(255,255,255)" fill-opacity="1.0" stroke="rgb(0,0,0)" stroke-width="2"  />
			<g>
				<title>OpuAC (PF04069)
"Substrate binding domain of ABC-type glycine betaine transport system"</title>
				<polygon class="PF04069" points="152,40 164,28 174,28 174,52 164,52" stroke-linejoin="round" width="26" height="24" fill="rgb(81,218,80)" stroke="rgb(64,174,64)" stroke-width="1" opacity="0.75" />
			</g>
			<g>
				<title>BPD_transp_1 (PF00528)
"Binding-protein-dependent transport system inner membrane component"</title>
				<rect class="PF00528" x="178" y="28" stroke-linejoin="round" width="18" height="24" fill="rgb(77,208,225)" stroke="rgb(61,166,180)" stroke-width="1" opacity="0.75" />
			</g>
		</g>
		<g>
			<title> (ctg66_8)</title>
			<polygon class=" (ctg66_8)" points="203,25 206,25 206,10 236,40 206,70 206,55 203,55" fill="rgb(255,255,255)" fill-opacity="1.0" stroke="rgb(0,0,0)" stroke-width="2"  />
			<g>
				<title>CHAD (PF05235)
"CHAD domain"</title>
				<polygon class="PF05235" points="204,28 220,28 228,36 228,44 220,52 204,52" stroke-linejoin="round" width="24" height="24" fill="rgb(93,208,142)" stroke="rgb(74,166,113)" stroke-width="1" opacity="0.75" />
			</g>
		</g>
		<g>
			<title> (ctg66_9)</title>
			<polygon class=" (ctg66_9)" points="237,25 254,25 254,10 284,40 254,70 254,55 237,55" fill="rgb(255,255,255)" fill-opacity="1.0" stroke="rgb(0,0,0)" stroke-width="2"  />
			<g>
				<title>OMPdecase (PF00215)
"Orotidine 5'-phosphate decarboxylase / HUMPS family"</title>
				<rect class="PF00215" x="238" y="28" stroke-linejoin="round" width="16" height="24" fill="rgb(127,77,227)" stroke="rgb(101,61,181)" stroke-width="1" opacity="0.75" />
			</g>
			<g>
				<title>Pribosyltran (PF00156)
"Phosphoribosyl transferase domain"</title>
				<polygon class="PF00156" points="268,28 268,28 280,40 268,52 268,52" stroke-linejoin="round" width="13" height="24" fill="rgb(210,210,74)" stroke="rgb(168,168,59)" stroke-width="1" opacity="0.75" />
			</g>
		</g>
		<g>
			<title> (ctg66_10)</title>
			<polygon class=" (ctg66_10)" points="297,40 306,10 306,70" fill="rgb(255,255,255)" fill-opacity="1.0" stroke="rgb(0,0,0)" stroke-width="2"  />
			<g>
				<title>DUF1816 (PF08846)
"Domain of unknown function (DUF1816)"</title>
				<polygon class="PF08846" points="300,40 304,28 305,28 305,52 304,52" stroke-linejoin="round" width="6" height="24" fill="rgb(196,184,64)" stroke="rgb(156,147,51)" stroke-width="1" opacity="0.75" />
			</g>
		</g>
		<g>
			<title> (ctg66_11)</title>
			<polygon class=" (ctg66_11)" points="310,40 338,10 338,70" fill="rgb(255,255,255)" fill-opacity="1.0" stroke="rgb(0,0,0)" stroke-width="2"  />
			<g>
				<title>SpoU_methylase (PF00588)
"SpoU rRNA Methylase family"</title>
				<polygon class="PF00588" points="314,40 325,29 325,51" stroke-linejoin="round" width="14" height="24" fill="rgb(84,205,178)" stroke="rgb(67,164,142)" stroke-width="1" opacity="0.75" />
			</g>
			<g>
				<title>SpoU_sub_bind (PF08032)
"RNA 2'-O ribose methyltransferase substrate binding"</title>
				<rect class="PF08032" x="327" y="28" stroke-linejoin="round" width="7" height="24" fill="rgb(99,204,143)" stroke="rgb(79,163,114)" stroke-width="1" opacity="0.75" />
			</g>
		</g>
		<g>
			<title> (ctg66_12)</title>
			<polygon class=" (ctg66_12)" points="341,40 354,10 354,70" fill="rgb(255,255,255)" fill-opacity="1.0" stroke="rgb(0,0,0)" stroke-width="2"  />
			<g>
				<title>Ribonuclease_3 (PF00636)
"Ribonuclease III domain"</title>
				<polygon class="PF00636" points="344,40 350,28 351,28 351,52 350,52" stroke-linejoin="round" width="9" height="24" fill="rgb(129,202,92)" stroke="rgb(103,161,73)" stroke-width="1" opacity="0.75" />
			</g>
		</g>
		<g>
			<title> (ctg66_13)</title>
			<polygon class=" (ctg66_13)" points="355,40 366,10 366,70" fill="rgb(255,255,255)" fill-opacity="1.0" stroke="rgb(0,0,0)" stroke-width="2"  />
			<g>
				<title>STAS (PF01740)
"STAS domain"</title>
				<polygon class="PF01740" points="358,40 363,28 365,28 365,52 363,52" stroke-linejoin="round" width="10" height="24" fill="rgb(219,58,116)" stroke="rgb(175,46,92)" stroke-width="1" opacity="0.75" />
			</g>
		</g>
		<g>
			<title> (ctg66_14)</title>
			<polygon class=" (ctg66_14)" points="407,25 399,25 399,10 369,40 399,70 399,55 407,55" fill="rgb(255,255,255)" fill-opacity="1.0" stroke="rgb(0,0,0)" stroke-width="2"  />
			<g>
				<title>GATase (PF00117)
"Glutamine amidotransferase class-I"</title>
				<polygon class="PF00117" points="373,40 385,28 387,28 387,52 385,52" stroke-linejoin="round" width="17" height="24" fill="rgb(159,201,96)" stroke="rgb(127,160,76)" stroke-width="1" opacity="0.75" />
			</g>
			<g>
				<title>CPSase_sm_chain (PF00988)
"Carbamoyl-phosphate synthase small chain, CPSase domain"</title>
				<rect class="PF00988" x="393" y="28" stroke-linejoin="round" width="12" height="24" fill="rgb(183,185,63)" stroke="rgb(146,148,50)" stroke-width="1" opacity="0.75" />
			</g>
		</g>
		<g>
			<title> (ctg66_15)</title>
			<polygon class=" (ctg66_15)" points="414,10 443,40 414,70" fill="rgb(255,255,255)" fill-opacity="1.0" stroke="rgb(0,0,0)" stroke-width="2"  />
		</g>
		<g>
			<title> (ctg66_16)</title>
			<polygon class=" (ctg66_16)" points="456,25 516,25 516,10 546,40 516,70 516,55 456,55" fill="rgb(255,255,255)" fill-opacity="1.0" stroke="rgb(0,0,0)" stroke-width="2"  />
			<g>
				<title>AAA_35 (PF14516)
"AAA-like domain"</title>
				<rect class="PF14516" x="457" y="28" stroke-linejoin="round" width="34" height="24" fill="rgb(134,192,86)" stroke="rgb(107,153,68)" stroke-width="1" opacity="0.75" />
			</g>
			<g>
				<title>Peripla_BP_6 (PF13458)
"Periplasmic binding protein"</title>
				<polygon class="PF13458" points="510,28 530,28 542,40 530,52 510,52" stroke-linejoin="round" width="33" height="24" fill="rgb(94,183,81)" stroke="rgb(75,146,64)" stroke-width="1" opacity="0.75" />
			</g>
		</g>
		<g>
			<title> (ctg66_17)</title>
			<polygon class=" (ctg66_17)" points="595,25 577,25 577,10 547,40 577,70 577,55 595,55" fill="rgb(255,255,255)" fill-opacity="1.0" stroke="rgb(0,0,0)" stroke-width="2"  />
			<g>
				<title>AAA_35 (PF14516)
"AAA-like domain"</title>
				<polygon class="PF14516" points="551,40 563,28 580,28 580,52 563,52" stroke-linejoin="round" width="33" height="24" fill="rgb(134,192,86)" stroke="rgb(107,153,68)" stroke-width="1" opacity="0.75" />
			</g>
			<g>
				<title>EAD4 (PF19959)
"Effector-associated domain 4"</title>
				<rect class="PF19959" x="582" y="28" stroke-linejoin="round" width="11" height="24" fill="rgb(103,71,187)" stroke="rgb(82,56,149)" stroke-width="1" opacity="0.75" />
			</g>
		</g>
		<g>
			<title> (ctg66_18)</title>
			<polygon class=" (ctg66_18)" points="608,40 615,10 615,70" fill="rgb(255,255,255)" fill-opacity="1.0" stroke="rgb(0,0,0)" stroke-width="2"  />
		</g>
		<g>
			<title> (ctg66_19)</title>
			<polygon class=" (ctg66_19)" points="619,25 620,25 620,10 650,40 620,70 620,55 619,55" fill="rgb(255,255,255)" fill-opacity="1.0" stroke="rgb(0,0,0)" stroke-width="2"  />
			<g>
				<title>Glyoxalase (PF00903)
"Glyoxalase/Bleomycin resistance protein/Dioxygenase superfamily"</title>
				<polygon class="PF00903" points="634,29 645,40 634,51" stroke-linejoin="round" width="12" height="24" fill="rgb(50,162,189)" stroke="rgb(40,129,151)" stroke-width="1" opacity="0.75" />
			</g>
		</g>
		<g>
			<title> (ctg66_20)</title>
			<polygon class=" (ctg66_20)" points="651,10 673,40 651,70" fill="rgb(255,255,255)" fill-opacity="1.0" stroke="rgb(0,0,0)" stroke-width="2"  />
			<g>
				<title>Nitroreductase (PF00881)
"Nitroreductase family"</title>
				<polygon class="PF00881" points="651,28 660,28 668,39 668,41 660,52 651,52" stroke-linejoin="round" width="17" height="24" fill="rgb(79,118,187)" stroke="rgb(63,94,149)" stroke-width="1" opacity="0.75" />
			</g>
		</g>
		<g>
			<title> (ctg66_21)</title>
			<polygon class=" (ctg66_21)" points="676,25 772,25 772,10 802,40 772,70 772,55 676,55" fill="rgb(255,255,255)" fill-opacity="1.0" stroke="rgb(0,0,0)" stroke-width="2"  />
			<g>
				<title>AMP-binding (PF00501)
"AMP-binding enzyme"</title>
				<rect class="PF00501" x="678" y="28" stroke-linejoin="round" width="44" height="24" fill="rgb(60,217,223)" stroke="rgb(48,173,178)" stroke-width="1" opacity="0.75" />
			</g>
			<g>
				<title>Acyl-CoA_dh_N (PF02771)
"Acyl-CoA dehydrogenase, N-terminal domain"</title>
				<rect class="PF02771" x="735" y="28" stroke-linejoin="round" width="11" height="24" fill="rgb(105,135,218)" stroke="rgb(84,108,174)" stroke-width="1" opacity="0.75" />
			</g>
			<g>
				<title>Acyl-CoA_dh_M (PF02770)
"Acyl-CoA dehydrogenase, middle domain"</title>
				<rect class="PF02770" x="746" y="28" stroke-linejoin="round" width="9" height="24" fill="rgb(225,186,97)" stroke="rgb(180,148,77)" stroke-width="1" opacity="0.75" />
			</g>
			<g>
				<title>Acyl-CoA_dh_1 (PF00441)
"Acyl-CoA dehydrogenase, C-terminal domain"</title>
				<rect class="PF00441" x="757" y="28" stroke-linejoin="round" width="15" height="24" fill="rgb(85,191,117)" stroke="rgb(68,152,93)" stroke-width="1" opacity="0.75" />
			</g>
			<g>
				<title>PP-binding (PF00550)
"Phosphopantetheine attachment site"</title>
				<polygon class="PF00550" points="792,34 798,40 798,40 792,46" stroke-linejoin="round" width="6" height="24" fill="rgb(103,191,88)" stroke="rgb(82,152,70)" stroke-width="1" opacity="0.75" />
			</g>
		</g>
		<g>
			<title> (ctg66_22)</title>
			<polygon class=" (ctg66_22)" points="809,25 960,25 960,10 990,40 960,70 960,55 809,55" fill="rgb(255,255,255)" fill-opacity="1.0" stroke="rgb(0,0,0)" stroke-width="2"  />
			<g>
				<title>ketoacyl-synt (PF00109)
"Beta-ketoacyl synthase, N-terminal domain"</title>
				<rect class="PF00109" x="811" y="28" stroke-linejoin="round" width="25" height="24" fill="rgb(112,116,228)" stroke="rgb(89,92,182)" stroke-width="1" opacity="0.75" />
			</g>
			<g>
				<title>Ketoacyl-synt_C (PF02801)
"Beta-ketoacyl synthase, C-terminal domain"</title>
				<rect class="PF02801" x="837" y="28" stroke-linejoin="round" width="11" height="24" fill="rgb(215,78,102)" stroke="rgb(172,62,81)" stroke-width="1" opacity="0.75" />
			</g>
			<g>
				<title>KAsynt_C_assoc (PF16197)
"Ketoacyl-synthetase C-terminal extension"</title>
				<rect class="PF16197" x="849" y="28" stroke-linejoin="round" width="11" height="24" fill="rgb(240,150,172)" stroke="rgb(192,120,137)" stroke-width="1" opacity="0.75" />
			</g>
			<g>
				<title>Acyl_transf_1 (PF00698)
"Acyl transferase domain"</title>
				<rect class="PF00698" x="864" y="28" stroke-linejoin="round" width="31" height="24" fill="rgb(59,176,209)" stroke="rgb(47,140,167)" stroke-width="1" opacity="0.75" />
			</g>
			<g>
				<title>PS-DH (PF14765)
"Polyketide synthase dehydratase"</title>
				<rect class="PF14765" x="900" y="28" stroke-linejoin="round" width="27" height="24" fill="rgb(173,56,182)" stroke="rgb(138,44,145)" stroke-width="1" opacity="0.75" />
			</g>
			<g>
				<title>KR (PF08659)
"KR domain"</title>
				<rect class="PF08659" x="950" y="28" stroke-linejoin="round" width="17" height="24" fill="rgb(66,209,188)" stroke="rgb(52,167,150)" stroke-width="1" opacity="0.75" />
			</g>
			<g>
				<title>PP-binding (PF00550)
"Phosphopantetheine attachment site"</title>
				<polygon class="PF00550" points="978,32 984,38 984,42 978,48" stroke-linejoin="round" width="6" height="24" fill="rgb(103,191,88)" stroke="rgb(82,152,70)" stroke-width="1" opacity="0.75" />
			</g>
		</g>
		<g>
			<title> (ctg66_23)</title>
			<polygon class=" (ctg66_23)" points="992,25 1094,25 1094,10 1124,40 1094,70 1094,55 992,55" fill="rgb(255,255,255)" fill-opacity="1.0" stroke="rgb(0,0,0)" stroke-width="2"  />
			<g>
				<title>ketoacyl-synt (PF00109)
"Beta-ketoacyl synthase, N-terminal domain"</title>
				<rect class="PF00109" x="995" y="28" stroke-linejoin="round" width="25" height="24" fill="rgb(112,116,228)" stroke="rgb(89,92,182)" stroke-width="1" opacity="0.75" />
			</g>
			<g>
				<title>Ketoacyl-synt_C (PF02801)
"Beta-ketoacyl synthase, C-terminal domain"</title>
				<rect class="PF02801" x="1021" y="28" stroke-linejoin="round" width="11" height="24" fill="rgb(215,78,102)" stroke="rgb(172,62,81)" stroke-width="1" opacity="0.75" />
			</g>
			<g>
				<title>KAsynt_C_assoc (PF16197)
"Ketoacyl-synthetase C-terminal extension"</title>
				<rect class="PF16197" x="1033" y="28" stroke-linejoin="round" width="11" height="24" fill="rgb(240,150,172)" stroke="rgb(192,120,137)" stroke-width="1" opacity="0.75" />
			</g>
			<g>
				<title>Acyl_transf_1 (PF00698)
"Acyl transferase domain"</title>
				<rect class="PF00698" x="1048" y="28" stroke-linejoin="round" width="31" height="24" fill="rgb(59,176,209)" stroke="rgb(47,140,167)" stroke-width="1" opacity="0.75" />
			</g>
			<g>
				<title>PP-binding (PF00550)
"Phosphopantetheine attachment site"</title>
				<rect class="PF00550" x="1088" y="28" stroke-linejoin="round" width="6" height="24" fill="rgb(103,191,88)" stroke="rgb(82,152,70)" stroke-width="1" opacity="0.75" />
			</g>
			<g>
				<title>Thioesterase (PF00975)
"Thioesterase domain"</title>
				<polygon class="PF00975" points="1100,28 1107,28 1119,40 1107,52 1100,52" stroke-linejoin="round" width="22" height="24" fill="rgb(207,80,138)" stroke="rgb(165,63,110)" stroke-width="1" opacity="0.75" />
			</g>
		</g>
		<g>
			<title> (ctg66_24)</title>
			<polygon class=" (ctg66_24)" points="1125,25 1139,25 1139,10 1169,40 1139,70 1139,55 1125,55" fill="rgb(255,255,255)" fill-opacity="1.0" stroke="rgb(0,0,0)" stroke-width="2"  />
			<g>
				<title>FMO-like (PF00743)
"Flavin-binding monooxygenase-like"</title>
				<polygon class="PF00743" points="1125,28 1152,28 1164,40 1152,52 1125,52" stroke-linejoin="round" width="42" height="24" fill="rgb(203,74,151)" stroke="rgb(162,59,120)" stroke-width="1" opacity="0.75" />
			</g>
		</g>
		<g>
			<title> (ctg66_25)</title>
			<polygon class=" (ctg66_25)" points="1171,25 1180,25 1180,10 1210,40 1180,70 1180,55 1171,55" fill="rgb(255,255,255)" fill-opacity="1.0" stroke="rgb(0,0,0)" stroke-width="2"  />
			<g>
				<title>FAE1_CUT1_RppA (PF08392)
"FAE1/Type III polyketide synthase-like protein"</title>
				<rect class="PF08392" x="1179" y="28" stroke-linejoin="round" width="11" height="24" fill="rgb(70,220,135)" stroke="rgb(56,176,108)" stroke-width="1" opacity="0.75" />
			</g>
			<g>
				<title>Chal_sti_synt_C (PF02797)
"Chalcone and stilbene synthases, C-terminal domain"</title>
				<polygon class="PF02797" points="1196,31 1205,40 1196,49" stroke-linejoin="round" width="14" height="24" fill="rgb(139,212,63)" stroke="rgb(111,169,50)" stroke-width="1" opacity="0.75" />
			</g>
		</g>
		<g>
			<title> (ctg66_26)</title>
			<polygon class=" (ctg66_26)" points="1210,10 1230,40 1210,70" fill="rgb(255,255,255)" fill-opacity="1.0" stroke="rgb(0,0,0)" stroke-width="2"  />
			<g>
				<title>ICMT (PF04140)
"Isoprenylcysteine carboxyl methyltransferase (ICMT) family"</title>
				<polygon class="PF04140" points="1217,28 1218,28 1226,40 1226,40 1218,52 1217,52" stroke-linejoin="round" width="9" height="24" fill="rgb(100,223,104)" stroke="rgb(80,178,83)" stroke-width="1" opacity="0.75" />
			</g>
		</g>
		<g>
			<title> (ctg66_27)</title>
			<polygon class=" (ctg66_27)" points="1233,25 1257,25 1257,10 1287,40 1257,70 1257,55 1233,55" fill="rgb(255,255,255)" fill-opacity="1.0" stroke="rgb(0,0,0)" stroke-width="2"  />
			<g>
				<title>FAD_binding_4 (PF01565)
"FAD binding domain"</title>
				<rect class="PF01565" x="1238" y="28" stroke-linejoin="round" width="14" height="24" fill="rgb(226,88,136)" stroke="rgb(180,70,108)" stroke-width="1" opacity="0.75" />
			</g>
		</g>
		<g>
			<title> (ctg66_28)</title>
			<polygon class=" (ctg66_28)" points="1289,25 1302,25 1302,10 1332,40 1302,70 1302,55 1289,55" fill="rgb(255,255,255)" fill-opacity="1.0" stroke="rgb(0,0,0)" stroke-width="2"  />
			<g>
				<title>MFS_2 (PF13347)
"MFS/sugar transport protein"</title>
				<polygon class="PF13347" points="1290,28 1316,28 1328,40 1316,52 1290,52" stroke-linejoin="round" width="40" height="24" fill="rgb(68,198,83)" stroke="rgb(54,158,66)" stroke-width="1" opacity="0.75" />
			</g>
		</g>
		<g>
			<title> (ctg66_29)</title>
			<polygon class=" (ctg66_29)" points="1334,25 1349,25 1349,10 1379,40 1349,70 1349,55 1334,55" fill="rgb(255,255,255)" fill-opacity="1.0" stroke="rgb(0,0,0)" stroke-width="2"  />
			<g>
				<title>HlyD_3 (PF13437)
"HlyD family secretion protein"</title>
				<polygon class="PF13437" points="1360,28 1362,28 1370,36 1370,44 1362,52 1360,52" stroke-linejoin="round" width="10" height="24" fill="rgb(82,200,102)" stroke="rgb(65,160,81)" stroke-width="1" opacity="0.75" />
			</g>
		</g>
		<g>
			<title> (ctg66_30)</title>
			<polygon class=" (ctg66_30)" points="1381,25 1454,25 1454,10 1484,40 1454,70 1454,55 1381,55" fill="rgb(255,255,255)" fill-opacity="1.0" stroke="rgb(0,0,0)" stroke-width="2"  />
			<g>
				<title>ACR_tran (PF00873)
"AcrB/AcrD/AcrF family"</title>
				<polygon class="PF00873" points="1381,28 1468,28 1480,40 1468,52 1381,52" stroke-linejoin="round" width="101" height="24" fill="rgb(63,191,60)" stroke="rgb(50,152,48)" stroke-width="1" opacity="0.75" />
			</g>
		</g>
		<g>
			<title> (ctg66_31)</title>
			<polygon class=" (ctg66_31)" points="1507,10 1532,40 1507,70" fill="rgb(255,255,255)" fill-opacity="1.0" stroke="rgb(0,0,0)" stroke-width="2"  />
			<g>
				<title>Pentapeptide (PF00805)
"Pentapeptide repeats (8 copies)"</title>
				<rect class="PF00805" x="1514" y="28" stroke-linejoin="round" width="3" height="24" fill="rgb(186,52,164)" stroke="rgb(148,41,131)" stroke-width="1" opacity="0.75" />
			</g>
			<g>
				<title>Pentapeptide (PF00805)
"Pentapeptide repeats (8 copies)"</title>
				<polygon class="PF00805" points="1522,33 1525,36 1525,44 1522,47" stroke-linejoin="round" width="3" height="24" fill="rgb(186,52,164)" stroke="rgb(148,41,131)" stroke-width="1" opacity="0.75" />
			</g>
			<g>
				<title>Pentapeptide (PF00805)
"Pentapeptide repeats (8 copies)"</title>
				<polygon class="PF00805" points="1526,37 1528,40 1526,43" stroke-linejoin="round" width="3" height="24" fill="rgb(186,52,164)" stroke="rgb(148,41,131)" stroke-width="1" opacity="0.75" />
			</g>
		</g>
		<g>
			<title> (ctg66_32)</title>
			<polygon class=" (ctg66_32)" points="1534,40 1551,10 1551,70" fill="rgb(255,255,255)" fill-opacity="1.0" stroke="rgb(0,0,0)" stroke-width="2"  />
		</g>
		<g>
			<title> (ctg66_33)</title>
			<polygon class=" (ctg66_33)" points="1559,10 1579,40 1559,70" fill="rgb(255,255,255)" fill-opacity="1.0" stroke="rgb(0,0,0)" stroke-width="2"  />
		</g>
		<g>
			<title> (ctg66_34)</title>
			<polygon class=" (ctg66_34)" points="1581,25 1603,25 1603,10 1633,40 1603,70 1603,55 1581,55" fill="rgb(255,255,255)" fill-opacity="1.0" stroke="rgb(0,0,0)" stroke-width="2"  />
			<g>
				<title>Pkinase (PF00069)
"Protein kinase domain"</title>
				<rect class="PF00069" x="1585" y="28" stroke-linejoin="round" width="24" height="24" fill="rgb(104,187,65)" stroke="rgb(83,149,51)" stroke-width="1" opacity="0.75" />
			</g>
			<g>
				<title>RDD (PF06271)
"RDD family"</title>
				<polygon class="PF06271" points="1614,28 1616,28 1628,40 1616,52 1614,52" stroke-linejoin="round" width="17" height="24" fill="rgb(75,173,207)" stroke="rgb(60,138,165)" stroke-width="1" opacity="0.75" />
			</g>
		</g>
		<g>
			<title> (ctg66_35)</title>
			<polygon class=" (ctg66_35)" points="1635,40 1662,10 1662,70" fill="rgb(255,255,255)" fill-opacity="1.0" stroke="rgb(0,0,0)" stroke-width="2"  />
			<g>
				<title>Rhodanese (PF00581)
"Rhodanese-like domain"</title>
				<polygon class="PF00581" points="1641,38 1650,28 1650,28 1650,52 1650,52 1641,42" stroke-linejoin="round" width="9" height="24" fill="rgb(145,191,76)" stroke="rgb(116,152,60)" stroke-width="1" opacity="0.75" />
			</g>
			<g>
				<title>UPF0176_N (PF17773)
"UPF0176 acylphosphatase like domain"</title>
				<rect class="PF17773" x="1652" y="28" stroke-linejoin="round" width="9" height="24" fill="rgb(73,125,224)" stroke="rgb(58,99,179)" stroke-width="1" opacity="0.75" />
			</g>
		</g>
		<g>
			<title> (ctg66_36)</title>
			<polygon class=" (ctg66_36)" points="1677,10 1703,40 1677,70" fill="rgb(255,255,255)" fill-opacity="1.0" stroke="rgb(0,0,0)" stroke-width="2"  />
			<g>
				<title>RecO_N (PF11967)
"Recombination protein O N terminal"</title>
				<rect class="PF11967" x="1677" y="28" stroke-linejoin="round" width="7" height="24" fill="rgb(188,95,193)" stroke="rgb(150,76,154)" stroke-width="1" opacity="0.75" />
			</g>
			<g>
				<title>RecO_C (PF02565)
"Recombination protein O C terminal"</title>
				<polygon class="PF02565" points="1685,28 1689,28 1699,40 1689,52 1685,52" stroke-linejoin="round" width="16" height="24" fill="rgb(108,200,225)" stroke="rgb(86,160,180)" stroke-width="1" opacity="0.75" />
			</g>
		</g>
		<g>
			<title> (ctg66_37)</title>
			<polygon class=" (ctg66_37)" points="1704,25 1723,25 1723,10 1753,40 1723,70 1723,55 1704,55" fill="rgb(255,255,255)" fill-opacity="1.0" stroke="rgb(0,0,0)" stroke-width="2"  />
			<g>
				<title>MFS_3 (PF05977)
"Transmembrane secretion effector"</title>
				<polygon class="PF05977" points="1722,28 1737,28 1749,40 1737,52 1722,52" stroke-linejoin="round" width="30" height="24" fill="rgb(80,62,217)" stroke="rgb(64,49,173)" stroke-width="1" opacity="0.75" />
			</g>
		</g>
		<g>
			<title> (ctg66_38)</title>
			<polygon class=" (ctg66_38)" points="1772,25 1773,25 1773,10 1803,40 1773,70 1773,55 1772,55" fill="rgb(255,255,255)" fill-opacity="1.0" stroke="rgb(0,0,0)" stroke-width="2"  />
			<g>
				<title>DUF4351 (PF14261)
"Domain of unknown function (DUF4351)"</title>
				<polygon class="PF14261" points="1796,38 1798,40 1796,42" stroke-linejoin="round" width="6" height="24" fill="rgb(66,53,182)" stroke="rgb(52,42,145)" stroke-width="1" opacity="0.75" />
			</g>
		</g>
		<g>
			<title> (ctg66_39)</title>
			<polygon class=" (ctg66_39)" points="1808,10 1816,40 1808,70" fill="rgb(255,255,255)" fill-opacity="1.0" stroke="rgb(0,0,0)" stroke-width="2"  />
			<g>
				<title>UPF0175 (PF03683)
"Uncharacterised protein family (UPF0175)"</title>
				<polygon class="PF03683" points="1808,28 1809,28 1813,40 1809,52 1808,52" stroke-linejoin="round" width="6" height="24" fill="rgb(92,108,185)" stroke="rgb(73,86,148)" stroke-width="1" opacity="0.75" />
			</g>
		</g>
		<g>
			<title> (ctg66_40)</title>
			<polygon class=" (ctg66_40)" points="1816,10 1832,40 1816,70" fill="rgb(255,255,255)" fill-opacity="1.0" stroke="rgb(0,0,0)" stroke-width="2"  />
			<g>
				<title>DUF3368 (PF11848)
"Domain of unknown function (DUF3368)"</title>
				<polygon class="PF11848" points="1827,37 1829,40 1827,43" stroke-linejoin="round" width="4" height="24" fill="rgb(71,126,228)" stroke="rgb(56,100,182)" stroke-width="1" opacity="0.75" />
			</g>
		</g>
		<g>
			<title> (ctg66_41)</title>
			<polygon class=" (ctg66_41)" points="1838,10 1847,40 1838,70" fill="rgb(255,255,255)" fill-opacity="1.0" stroke="rgb(0,0,0)" stroke-width="2"  />
		</g>
	</g>
</svg>
