<svg version="1.1" baseProfile="full" xmlns="http://www.w3.org/2000/svg" width="695.6" height="80">
	<g>
		<line x1="10" y1="40.0" x2="685.6" y2="40.0" style="stroke:rgb(70,70,70); stroke-width:3 "/>
		<g>
			<title> (ctg151_5)</title>
			<polygon class=" (ctg151_5)" points="27,10 31,40 27,70" fill="rgb(255,255,255)" fill-opacity="1.0" stroke="rgb(0,0,0)" stroke-width="2"  />
		</g>
		<g>
			<title> (ctg151_6)</title>
			<polygon class=" (ctg151_6)" points="42,40 51,10 51,70" fill="rgb(255,255,255)" fill-opacity="1.0" stroke="rgb(0,0,0)" stroke-width="2"  />
			<g>
				<title>DUF29 (PF01724)
"Domain of unknown function DUF29"</title>
				<polygon class="PF01724" points="45,40 49,28 51,28 51,52 49,52" stroke-linejoin="round" width="9" height="24" fill="rgb(104,61,184)" stroke="rgb(83,48,147)" stroke-width="1" opacity="0.75" />
			</g>
		</g>
		<g>
			<title> (ctg151_7)</title>
			<polygon class=" (ctg151_7)" points="71,25 100,25 100,10 130,40 100,70 100,55 71,55" fill="rgb(255,255,255)" fill-opacity="1.0" stroke="rgb(0,0,0)" stroke-width="2"  />
			<g>
				<title>Pentapeptide (PF00805)
"Pentapeptide repeats (8 copies)"</title>
				<rect class="PF00805" x="87" y="28" stroke-linejoin="round" width="3" height="24" fill="rgb(186,52,164)" stroke="rgb(148,41,131)" stroke-width="1" opacity="0.75" />
			</g>
			<g>
				<title>Pentapeptide (PF00805)
"Pentapeptide repeats (8 copies)"</title>
				<rect class="PF00805" x="94" y="28" stroke-linejoin="round" width="3" height="24" fill="rgb(186,52,164)" stroke="rgb(148,41,131)" stroke-width="1" opacity="0.75" />
			</g>
		</g>
		<g>
			<title> (ctg151_8)</title>
			<polygon class=" (ctg151_8)" points="160,40 171,10 171,70" fill="rgb(255,255,255)" fill-opacity="1.0" stroke="rgb(0,0,0)" stroke-width="2"  />
		</g>
		<g>
			<title> (ctg151_9)</title>
			<polygon class=" (ctg151_9)" points="172,40 200,10 200,70" fill="rgb(255,255,255)" fill-opacity="1.0" stroke="rgb(0,0,0)" stroke-width="2"  />
			<g>
				<title>Transglut_core (PF01841)
"Transglutaminase-like superfamily"</title>
				<polygon class="PF01841" points="177,39 187,29 187,51 177,41" stroke-linejoin="round" width="10" height="24" fill="rgb(208,223,79)" stroke="rgb(166,178,63)" stroke-width="1" opacity="0.75" />
			</g>
			<g>
				<title>Bact_transglu_N (PF08379)
"Bacterial transglutaminase-like N-terminal region"</title>
				<rect class="PF08379" x="192" y="28" stroke-linejoin="round" width="7" height="24" fill="rgb(224,108,64)" stroke="rgb(179,86,51)" stroke-width="1" opacity="0.75" />
			</g>
		</g>
		<g>
			<title> (ctg151_10)</title>
			<polygon class=" (ctg151_10)" points="234,25 231,25 231,10 201,40 231,70 231,55 234,55" fill="rgb(255,255,255)" fill-opacity="1.0" stroke="rgb(0,0,0)" stroke-width="2"  />
			<g>
				<title>Alpha-E (PF04168)
"A predicted alpha-helical domain with a conserved ER motif."</title>
				<polygon class="PF04168" points="205,40 217,28 233,28 233,52 217,52" stroke-linejoin="round" width="30" height="24" fill="rgb(190,83,80)" stroke="rgb(152,66,64)" stroke-width="1" opacity="0.75" />
			</g>
		</g>
		<g>
			<title> (ctg151_11)</title>
			<polygon class=" (ctg151_11)" points="284,25 267,25 267,10 237,40 267,70 267,55 284,55" fill="rgb(255,255,255)" fill-opacity="1.0" stroke="rgb(0,0,0)" stroke-width="2"  />
			<g>
				<title>CP_ATPgrasp_2 (PF14403)
"Circularly permuted ATP-grasp type 2"</title>
				<polygon class="PF14403" points="241,40 253,28 276,28 276,52 253,52" stroke-linejoin="round" width="37" height="24" fill="rgb(80,222,92)" stroke="rgb(64,177,73)" stroke-width="1" opacity="0.75" />
			</g>
		</g>
		<g>
			<title> (ctg151_12)</title>
			<polygon class=" (ctg151_12)" points="307,10 314,40 307,70" fill="rgb(255,255,255)" fill-opacity="1.0" stroke="rgb(0,0,0)" stroke-width="2"  />
			<g>
				<title>Cytochrome_B (PF00033)
"Cytochrome b/b6/petB"</title>
				<polygon class="PF00033" points="307,28 307,28 311,40 307,52 307,52" stroke-linejoin="round" width="6" height="24" fill="rgb(209,58,124)" stroke="rgb(167,46,99)" stroke-width="1" opacity="0.75" />
			</g>
		</g>
		<g>
			<title> (ctg151_13)</title>
			<polygon class=" (ctg151_13)" points="317,10 333,40 317,70" fill="rgb(255,255,255)" fill-opacity="1.0" stroke="rgb(0,0,0)" stroke-width="2"  />
			<g>
				<title>Cytochrom_B_C (PF00032)
"Cytochrome b(C-terminal)/b6/petD"</title>
				<polygon class="PF00032" points="323,28 323,28 329,40 323,52 323,52" stroke-linejoin="round" width="9" height="24" fill="rgb(183,105,214)" stroke="rgb(146,84,171)" stroke-width="1" opacity="0.75" />
			</g>
		</g>
		<g>
			<title> (ctg151_14)</title>
			<polygon class=" (ctg151_14)" points="343,40 370,10 370,70" fill="rgb(255,255,255)" fill-opacity="1.0" stroke="rgb(0,0,0)" stroke-width="2"  />
			<g>
				<title>SQS_PSY (PF00494)
"Squalene/phytoene synthase"</title>
				<polygon class="PF00494" points="348,39 358,28 368,28 368,52 358,52 348,41" stroke-linejoin="round" width="20" height="24" fill="rgb(178,91,49)" stroke="rgb(142,72,39)" stroke-width="1" opacity="0.75" />
			</g>
		</g>
		<g>
			<title> (ctg151_15)</title>
			<polygon class=" (ctg151_15)" points="403,40 407,10 407,70" fill="rgb(255,255,255)" fill-opacity="1.0" stroke="rgb(0,0,0)" stroke-width="2"  />
		</g>
		<g>
			<title> (ctg151_16)</title>
			<polygon class=" (ctg151_16)" points="460,25 436,25 436,10 406,40 436,70 436,55 460,55" fill="rgb(255,255,255)" fill-opacity="1.0" stroke="rgb(0,0,0)" stroke-width="2"  />
		</g>
		<g>
			<title> (ctg151_17)</title>
			<polygon class=" (ctg151_17)" points="499,10 511,40 499,70" fill="rgb(255,255,255)" fill-opacity="1.0" stroke="rgb(0,0,0)" stroke-width="2"  />
			<g>
				<title>Response_reg (PF00072)
"Response regulator receiver domain"</title>
				<polygon class="PF00072" points="499,28 502,28 507,40 502,52 499,52" stroke-linejoin="round" width="11" height="24" fill="rgb(100,107,203)" stroke="rgb(80,85,162)" stroke-width="1" opacity="0.75" />
			</g>
		</g>
		<g>
			<title> (ctg151_18)</title>
			<polygon class=" (ctg151_18)" points="515,10 532,40 515,70" fill="rgb(255,255,255)" fill-opacity="1.0" stroke="rgb(0,0,0)" stroke-width="2"  />
			<g>
				<title>CheW (PF01584)
"CheW-like domain"</title>
				<polygon class="PF01584" points="517,28 522,28 529,40 522,52 517,52" stroke-linejoin="round" width="14" height="24" fill="rgb(141,221,87)" stroke="rgb(112,176,69)" stroke-width="1" opacity="0.75" />
			</g>
		</g>
		<g>
			<title> (ctg151_19)</title>
			<polygon class=" (ctg151_19)" points="535,25 593,25 593,10 623,40 593,70 593,55 535,55" fill="rgb(255,255,255)" fill-opacity="1.0" stroke="rgb(0,0,0)" stroke-width="2"  />
			<g>
				<title>HAMP (PF00672)
"HAMP domain"</title>
				<rect class="PF00672" x="583" y="28" stroke-linejoin="round" width="4" height="24" fill="rgb(124,89,195)" stroke="rgb(99,71,156)" stroke-width="1" opacity="0.75" />
			</g>
			<g>
				<title>MCPsignal (PF00015)
"Methyl-accepting chemotaxis protein (MCP) signalling domain"</title>
				<polygon class="PF00015" points="601,28 607,28 619,40 619,40 607,52 601,52" stroke-linejoin="round" width="18" height="24" fill="rgb(104,174,223)" stroke="rgb(83,139,178)" stroke-width="1" opacity="0.75" />
			</g>
		</g>
		<g>
			<title> (ctg151_20)</title>
			<polygon class=" (ctg151_20)" points="624,25 636,25 636,10 666,40 636,70 636,55 624,55" fill="rgb(255,255,255)" fill-opacity="1.0" stroke="rgb(0,0,0)" stroke-width="2"  />
			<g>
				<title>Glycos_transf_2 (PF00535)
"Glycosyl transferase family 2"</title>
				<rect class="PF00535" x="626" y="28" stroke-linejoin="round" width="15" height="24" fill="rgb(224,122,96)" stroke="rgb(179,97,76)" stroke-width="1" opacity="0.75" />
			</g>
			<g>
				<title>TPR_11 (PF13414)
"TPR repeat"</title>
				<polygon class="PF13414" points="658,36 661,39 661,41 658,44" stroke-linejoin="round" width="3" height="24" fill="rgb(55,76,182)" stroke="rgb(44,60,145)" stroke-width="1" opacity="0.75" />
			</g>
		</g>
		<g>
			<title> (ctg151_21)</title>
			<polygon class=" (ctg151_21)" points="671,10 682,40 671,70" fill="rgb(255,255,255)" fill-opacity="1.0" stroke="rgb(0,0,0)" stroke-width="2"  />
			<g>
				<title>AAA_35 (PF14516)
"AAA-like domain"</title>
				<polygon class="PF14516" points="675,30 678,40 675,50" stroke-linejoin="round" width="6" height="24" fill="rgb(134,192,86)" stroke="rgb(107,153,68)" stroke-width="1" opacity="0.75" />
			</g>
		</g>
		<g>
			<title> (ctg151_22)</title>
			<polygon class=" (ctg151_22)" points="681,40 685,10 685,70" fill="rgb(255,255,255)" fill-opacity="1.0" stroke="rgb(0,0,0)" stroke-width="2"  />
		</g>
	</g>
</svg>
