<svg version="1.1" baseProfile="full" xmlns="http://www.w3.org/2000/svg" width="943.1" height="80">
	<g>
		<line x1="10" y1="40.0" x2="933.1" y2="40.0" style="stroke:rgb(70,70,70); stroke-width:3 "/>
		<g>
			<title> (ctg838_7)</title>
			<polygon class=" (ctg838_7)" points="125,25 98,25 98,10 68,40 98,70 98,55 125,55" fill="rgb(255,255,255)" fill-opacity="1.0" stroke="rgb(0,0,0)" stroke-width="2"  />
			<g>
				<title>NFACT-R_1 (PF05670)
"NFACT protein RNA binding domain"</title>
				<polygon class="PF05670" points="72,40 79,33 79,47" stroke-linejoin="round" width="10" height="24" fill="rgb(54,206,61)" stroke="rgb(43,164,48)" stroke-width="1" opacity="0.75" />
			</g>
			<g>
				<title>NFACT_N (PF05833)
"NFACT N-terminal and middle domains"</title>
				<polygon class="PF05833" points="80,32 84,28 124,28 124,52 84,52 80,48" stroke-linejoin="round" width="44" height="24" fill="rgb(205,121,64)" stroke="rgb(164,96,51)" stroke-width="1" opacity="0.75" />
			</g>
		</g>
		<g>
			<title> (ctg838_8)</title>
			<polygon class=" (ctg838_8)" points="139,40 161,10 161,70" fill="rgb(255,255,255)" fill-opacity="1.0" stroke="rgb(0,0,0)" stroke-width="2"  />
			<g>
				<title>ABC_tran (PF00005)
"ABC transporter"</title>
				<polygon class="PF00005" points="144,39 152,28 158,28 158,52 152,52 144,41" stroke-linejoin="round" width="14" height="24" fill="rgb(129,201,63)" stroke="rgb(103,160,50)" stroke-width="1" opacity="0.75" />
			</g>
		</g>
		<g>
			<title> (ctg838_9)</title>
			<polygon class=" (ctg838_9)" points="202,25 193,25 193,10 163,40 193,70 193,55 202,55" fill="rgb(255,255,255)" fill-opacity="1.0" stroke="rgb(0,0,0)" stroke-width="2"  />
			<g>
				<title>FtsX (PF02687)
"FtsX-like permease family"</title>
				<polygon class="PF02687" points="167,40 171,36 171,44" stroke-linejoin="round" width="8" height="24" fill="rgb(126,55,214)" stroke="rgb(100,44,171)" stroke-width="1" opacity="0.75" />
			</g>
		</g>
		<g>
			<title> (ctg838_10)</title>
			<polygon class=" (ctg838_10)" points="240,25 233,25 233,10 203,40 233,70 233,55 240,55" fill="rgb(255,255,255)" fill-opacity="1.0" stroke="rgb(0,0,0)" stroke-width="2"  />
			<g>
				<title>HlyD_3 (PF13437)
"HlyD family secretion protein"</title>
				<polygon class="PF13437" points="207,40 216,31 216,49" stroke-linejoin="round" width="11" height="24" fill="rgb(82,200,102)" stroke="rgb(65,160,81)" stroke-width="1" opacity="0.75" />
			</g>
			<g>
				<title>Biotin_lipoyl_2 (PF13533)
"Biotin-lipoyl like"</title>
				<rect class="PF13533" x="233" y="28" stroke-linejoin="round" width="6" height="24" fill="rgb(229,122,112)" stroke="rgb(183,97,89)" stroke-width="1" opacity="0.75" />
			</g>
		</g>
		<g>
			<title> (ctg838_11)</title>
			<polygon class=" (ctg838_11)" points="284,25 280,25 280,10 250,40 280,70 280,55 284,55" fill="rgb(255,255,255)" fill-opacity="1.0" stroke="rgb(0,0,0)" stroke-width="2"  />
			<g>
				<title>Lipase_GDSL (PF00657)
"GDSL-like Lipase/Acylhydrolase"</title>
				<polygon class="PF00657" points="254,40 266,28 278,28 278,52 266,52" stroke-linejoin="round" width="25" height="24" fill="rgb(151,210,92)" stroke="rgb(120,168,73)" stroke-width="1" opacity="0.75" />
			</g>
		</g>
		<g>
			<title> (ctg838_12)</title>
			<polygon class=" (ctg838_12)" points="286,40 298,10 298,70" fill="rgb(255,255,255)" fill-opacity="1.0" stroke="rgb(0,0,0)" stroke-width="2"  />
		</g>
		<g>
			<title> (ctg838_13)</title>
			<polygon class=" (ctg838_13)" points="361,25 333,25 333,10 303,40 333,70 333,55 361,55" fill="rgb(255,255,255)" fill-opacity="1.0" stroke="rgb(0,0,0)" stroke-width="2"  />
			<g>
				<title>Trp_halogenase (PF04820)
"Tryptophan halogenase"</title>
				<rect class="PF04820" x="322" y="28" stroke-linejoin="round" width="27" height="24" fill="rgb(179,74,194)" stroke="rgb(143,59,155)" stroke-width="1" opacity="0.75" />
			</g>
		</g>
		<g>
			<title> (ctg838_14)</title>
			<polygon class=" (ctg838_14)" points="408,25 393,25 393,10 363,40 393,70 393,55 408,55" fill="rgb(255,255,255)" fill-opacity="1.0" stroke="rgb(0,0,0)" stroke-width="2"  />
			<g>
				<title>FMO-like (PF00743)
"Flavin-binding monooxygenase-like"</title>
				<polygon class="PF00743" points="367,40 379,28 407,28 407,52 379,52" stroke-linejoin="round" width="43" height="24" fill="rgb(203,74,151)" stroke="rgb(162,59,120)" stroke-width="1" opacity="0.75" />
			</g>
		</g>
		<g>
			<title> (ctg838_15)</title>
			<polygon class=" (ctg838_15)" points="412,40 437,10 437,70" fill="rgb(255,255,255)" fill-opacity="1.0" stroke="rgb(0,0,0)" stroke-width="2"  />
			<g>
				<title>adh_short (PF00106)
"short chain dehydrogenase"</title>
				<polygon class="PF00106" points="418,38 426,28 436,28 436,52 426,52 418,42" stroke-linejoin="round" width="18" height="24" fill="rgb(182,219,73)" stroke="rgb(145,175,58)" stroke-width="1" opacity="0.75" />
			</g>
		</g>
		<g>
			<title> (ctg838_16)</title>
			<polygon class=" (ctg838_16)" points="501,25 471,25 471,10 441,40 471,70 471,55 501,55" fill="rgb(255,255,255)" fill-opacity="1.0" stroke="rgb(0,0,0)" stroke-width="2"  />
			<g>
				<title>Trp_halogenase (PF04820)
"Tryptophan halogenase"</title>
				<rect class="PF04820" x="462" y="28" stroke-linejoin="round" width="28" height="24" fill="rgb(179,74,194)" stroke="rgb(143,59,155)" stroke-width="1" opacity="0.75" />
			</g>
		</g>
		<g>
			<title> (ctg838_17)</title>
			<polygon class=" (ctg838_17)" points="551,25 536,25 536,10 506,40 536,70 536,55 551,55" fill="rgb(255,255,255)" fill-opacity="1.0" stroke="rgb(0,0,0)" stroke-width="2"  />
		</g>
		<g>
			<title> (ctg838_18)</title>
			<polygon class=" (ctg838_18)" points="666,25 590,25 590,10 560,40 590,70 590,55 666,55" fill="rgb(255,255,255)" fill-opacity="1.0" stroke="rgb(0,0,0)" stroke-width="2"  />
			<g>
				<title>PS-DH (PF14765)
"Polyketide synthase dehydratase"</title>
				<polygon class="PF14765" points="567,37 576,28 595,28 595,52 576,52 567,43" stroke-linejoin="round" width="28" height="24" fill="rgb(173,56,182)" stroke="rgb(138,44,145)" stroke-width="1" opacity="0.75" />
			</g>
			<g>
				<title>KR (PF08659)
"KR domain"</title>
				<rect class="PF08659" x="603" y="28" stroke-linejoin="round" width="18" height="24" fill="rgb(66,209,188)" stroke="rgb(52,167,150)" stroke-width="1" opacity="0.75" />
			</g>
			<g>
				<title>PP-binding (PF00550)
"Phosphopantetheine attachment site"</title>
				<rect class="PF00550" x="648" y="28" stroke-linejoin="round" width="6" height="24" fill="rgb(103,191,88)" stroke="rgb(82,152,70)" stroke-width="1" opacity="0.75" />
			</g>
		</g>
		<g>
			<title> (ctg838_19)</title>
			<polygon class=" (ctg838_19)" points="777,25 706,25 706,10 676,40 706,70 706,55 777,55" fill="rgb(255,255,255)" fill-opacity="1.0" stroke="rgb(0,0,0)" stroke-width="2"  />
			<g>
				<title>Acyl_transf_1 (PF00698)
"Acyl transferase domain"</title>
				<polygon class="PF00698" points="689,31 692,28 717,28 717,52 692,52 689,49" stroke-linejoin="round" width="28" height="24" fill="rgb(59,176,209)" stroke="rgb(47,140,167)" stroke-width="1" opacity="0.75" />
			</g>
			<g>
				<title>Ketoacyl-synt_C (PF02801)
"Beta-ketoacyl synthase, C-terminal domain"</title>
				<rect class="PF02801" x="735" y="28" stroke-linejoin="round" width="11" height="24" fill="rgb(215,78,102)" stroke="rgb(172,62,81)" stroke-width="1" opacity="0.75" />
			</g>
			<g>
				<title>ketoacyl-synt (PF00109)
"Beta-ketoacyl synthase, N-terminal domain"</title>
				<rect class="PF00109" x="747" y="28" stroke-linejoin="round" width="28" height="24" fill="rgb(112,116,228)" stroke="rgb(89,92,182)" stroke-width="1" opacity="0.75" />
			</g>
		</g>
		<g>
			<title> (ctg838_20)</title>
			<polygon class=" (ctg838_20)" points="782,40 788,10 788,70" fill="rgb(255,255,255)" fill-opacity="1.0" stroke="rgb(0,0,0)" stroke-width="2"  />
		</g>
		<g>
			<title> (ctg838_21)</title>
			<polygon class=" (ctg838_21)" points="789,40 797,10 797,70" fill="rgb(255,255,255)" fill-opacity="1.0" stroke="rgb(0,0,0)" stroke-width="2"  />
			<g>
				<title>ketoacyl-synt (PF00109)
"Beta-ketoacyl synthase, N-terminal domain"</title>
				<polygon class="PF00109" points="792,40 795,28 796,28 796,52 795,52" stroke-linejoin="round" width="7" height="24" fill="rgb(112,116,228)" stroke="rgb(89,92,182)" stroke-width="1" opacity="0.75" />
			</g>
		</g>
		<g>
			<title> (ctg838_22)</title>
			<polygon class=" (ctg838_22)" points="798,10 805,40 798,70" fill="rgb(255,255,255)" fill-opacity="1.0" stroke="rgb(0,0,0)" stroke-width="2"  />
		</g>
		<g>
			<title> (ctg838_23)</title>
			<polygon class=" (ctg838_23)" points="832,10 841,40 832,70" fill="rgb(255,255,255)" fill-opacity="1.0" stroke="rgb(0,0,0)" stroke-width="2"  />
		</g>
		<g>
			<title> (ctg838_24)</title>
			<polygon class=" (ctg838_24)" points="876,25 870,25 870,10 840,40 870,70 870,55 876,55" fill="rgb(255,255,255)" fill-opacity="1.0" stroke="rgb(0,0,0)" stroke-width="2"  />
			<g>
				<title>GCV_T_C (PF08669)
"Glycine cleavage T-protein C-terminal barrel domain"</title>
				<polygon class="PF08669" points="844,40 847,37 847,43" stroke-linejoin="round" width="7" height="24" fill="rgb(184,178,54)" stroke="rgb(147,142,43)" stroke-width="1" opacity="0.75" />
			</g>
			<g>
				<title>GCV_T (PF01571)
"Aminomethyltransferase folate-binding domain"</title>
				<polygon class="PF01571" points="850,34 856,28 874,28 874,52 856,52 850,46" stroke-linejoin="round" width="24" height="24" fill="rgb(112,228,161)" stroke="rgb(89,182,128)" stroke-width="1" opacity="0.75" />
			</g>
		</g>
		<g>
			<title> (ctg838_25)</title>
			<polygon class=" (ctg838_25)" points="932,25 927,25 927,10 897,40 927,70 927,55 932,55" fill="rgb(255,255,255)" fill-opacity="1.0" stroke="rgb(0,0,0)" stroke-width="2"  />
			<g>
				<title>Trypsin_2 (PF13365)
"Trypsin-like peptidase domain"</title>
				<polygon class="PF13365" points="901,40 913,28 915,28 915,52 913,52 901,40" stroke-linejoin="round" width="14" height="24" fill="rgb(126,86,188)" stroke="rgb(100,68,150)" stroke-width="1" opacity="0.75" />
			</g>
			<g>
				<title>TPR_16 (PF13432)
"Tetratricopeptide repeat"</title>
				<rect class="PF13432" x="925" y="28" stroke-linejoin="round" width="6" height="24" fill="rgb(154,205,86)" stroke="rgb(123,164,68)" stroke-width="1" opacity="0.75" />
			</g>
		</g>
	</g>
</svg>
