<svg version="1.1" baseProfile="full" xmlns="http://www.w3.org/2000/svg" width="619.1666666666666" height="80">
	<g>
		<line x1="10" y1="40.0" x2="609.1666666666666" y2="40.0" style="stroke:rgb(70,70,70); stroke-width:3 "/>
		<g>
			<title> (ctg21_21)</title>
			<polygon class=" (ctg21_21)" points="12,10 23,40 12,70" fill="rgb(255,255,255)" fill-opacity="1.0" stroke="rgb(0,0,0)" stroke-width="2"  />
			<g>
				<title>DUF4089 (PF13318)
"Protein of unknown function (DUF4089)"</title>
				<polygon class="PF13318" points="18,35 19,40 18,45" stroke-linejoin="round" width="4" height="24" fill="rgb(94,206,139)" stroke="rgb(75,164,111)" stroke-width="1" opacity="0.75" />
			</g>
		</g>
		<g>
			<title> (ctg21_22)</title>
			<polygon class=" (ctg21_22)" points="23,25 37,25 37,10 67,40 37,70 37,55 23,55" fill="rgb(255,255,255)" fill-opacity="1.0" stroke="rgb(0,0,0)" stroke-width="2"  />
			<g>
				<title>Amidase (PF01425)
"Amidase"</title>
				<polygon class="PF01425" points="25,28 51,28 63,40 51,52 25,52" stroke-linejoin="round" width="40" height="24" fill="rgb(195,142,64)" stroke="rgb(156,113,51)" stroke-width="1" opacity="0.75" />
			</g>
		</g>
		<g>
			<title> (ctg21_23)</title>
			<polygon class=" (ctg21_23)" points="109,25 100,25 100,10 70,40 100,70 100,55 109,55" fill="rgb(255,255,255)" fill-opacity="1.0" stroke="rgb(0,0,0)" stroke-width="2"  />
		</g>
		<g>
			<title> (ctg21_24)</title>
			<polygon class=" (ctg21_24)" points="107,40 112,10 112,70" fill="rgb(255,255,255)" fill-opacity="1.0" stroke="rgb(0,0,0)" stroke-width="2"  />
		</g>
		<g>
			<title> (ctg21_25)</title>
			<polygon class=" (ctg21_25)" points="114,25 126,25 126,10 156,40 126,70 126,55 114,55" fill="rgb(255,255,255)" fill-opacity="1.0" stroke="rgb(0,0,0)" stroke-width="2"  />
			<g>
				<title>Glycos_transf_1 (PF00534)
"Glycosyl transferases group 1"</title>
				<polygon class="PF00534" points="134,28 140,28 152,40 140,52 134,52" stroke-linejoin="round" width="19" height="24" fill="rgb(228,92,150)" stroke="rgb(182,73,119)" stroke-width="1" opacity="0.75" />
			</g>
		</g>
		<g>
			<title> (ctg21_26)</title>
			<polygon class=" (ctg21_26)" points="157,10 183,40 157,70" fill="rgb(255,255,255)" fill-opacity="1.0" stroke="rgb(0,0,0)" stroke-width="2"  />
			<g>
				<title>MOSC_N (PF03476)
"MOSC N-terminal beta barrel domain"</title>
				<rect class="PF03476" x="157" y="28" stroke-linejoin="round" width="11" height="24" fill="rgb(209,103,209)" stroke="rgb(167,82,167)" stroke-width="1" opacity="0.75" />
			</g>
			<g>
				<title>MOSC (PF03473)
"MOSC domain"</title>
				<polygon class="PF03473" points="170,30 179,40 170,50" stroke-linejoin="round" width="12" height="24" fill="rgb(96,194,162)" stroke="rgb(76,155,129)" stroke-width="1" opacity="0.75" />
			</g>
		</g>
		<g>
			<title> (ctg21_27)</title>
			<polygon class=" (ctg21_27)" points="186,40 201,10 201,70" fill="rgb(255,255,255)" fill-opacity="1.0" stroke="rgb(0,0,0)" stroke-width="2"  />
		</g>
		<g>
			<title> (ctg21_28)</title>
			<polygon class=" (ctg21_28)" points="232,25 232,25 232,10 202,40 232,70 232,55 232,55" fill="rgb(255,255,255)" fill-opacity="1.0" stroke="rgb(0,0,0)" stroke-width="2"  />
		</g>
		<g>
			<title> (ctg21_29)</title>
			<polygon class=" (ctg21_29)" points="240,25 246,25 246,10 276,40 246,70 246,55 240,55" fill="rgb(255,255,255)" fill-opacity="1.0" stroke="rgb(0,0,0)" stroke-width="2"  />
			<g>
				<title>FeS_assembly_P (PF01883)
"Iron-sulfur cluster assembly protein"</title>
				<rect class="PF01883" x="241" y="28" stroke-linejoin="round" width="7" height="24" fill="rgb(171,209,57)" stroke="rgb(136,167,45)" stroke-width="1" opacity="0.75" />
			</g>
			<g>
				<title>ParA (PF10609)
"NUBPL iron-transfer P-loop NTPase"</title>
				<polygon class="PF10609" points="250,28 259,28 271,40 259,52 250,52" stroke-linejoin="round" width="24" height="24" fill="rgb(107,194,90)" stroke="rgb(85,155,72)" stroke-width="1" opacity="0.75" />
			</g>
		</g>
		<g>
			<title> (ctg21_30)</title>
			<polygon class=" (ctg21_30)" points="286,25 295,25 295,10 325,40 295,70 295,55 286,55" fill="rgb(255,255,255)" fill-opacity="1.0" stroke="rgb(0,0,0)" stroke-width="2"  />
			<g>
				<title>FTSW_RODA_SPOVE (PF01098)
"Cell cycle protein"</title>
				<polygon class="PF01098" points="286,28 309,28 321,40 309,52 286,52" stroke-linejoin="round" width="39" height="24" fill="rgb(57,114,205)" stroke="rgb(45,91,164)" stroke-width="1" opacity="0.75" />
			</g>
		</g>
		<g>
			<title> (ctg21_31)</title>
			<polygon class=" (ctg21_31)" points="343,10 348,40 343,70" fill="rgb(255,255,255)" fill-opacity="1.0" stroke="rgb(0,0,0)" stroke-width="2"  />
			<g>
				<title>Inhibitor_I10 (PF12559)
"Serine endopeptidase inhibitors"</title>
				<polygon class="PF12559" points="343,28 345,40 343,52" stroke-linejoin="round" width="4" height="24" fill="rgb(179,147,51)" stroke="rgb(143,117,40)" stroke-width="1" opacity="0.75" />
			</g>
		</g>
		<g>
			<title> (ctg21_32)</title>
			<polygon class=" (ctg21_32)" points="357,25 359,25 359,10 389,40 359,70 359,55 357,55" fill="rgb(255,255,255)" fill-opacity="1.0" stroke="rgb(0,0,0)" stroke-width="2"  />
		</g>
		<g>
			<title> (ctg21_33)</title>
			<polygon class=" (ctg21_33)" points="392,25 394,25 394,10 424,40 394,70 394,55 392,55" fill="rgb(255,255,255)" fill-opacity="1.0" stroke="rgb(0,0,0)" stroke-width="2"  />
		</g>
		<g>
			<title> (ctg21_34)</title>
			<polygon class=" (ctg21_34)" points="431,40 448,10 448,70" fill="rgb(255,255,255)" fill-opacity="1.0" stroke="rgb(0,0,0)" stroke-width="2"  />
			<g>
				<title>Acetyltransf_3 (PF13302)
"Acetyltransferase (GNAT) domain"</title>
				<polygon class="PF13302" points="434,40 441,28 446,28 446,52 441,52" stroke-linejoin="round" width="14" height="24" fill="rgb(105,146,215)" stroke="rgb(84,116,172)" stroke-width="1" opacity="0.75" />
			</g>
		</g>
		<g>
			<title> (ctg21_35)</title>
			<polygon class=" (ctg21_35)" points="449,10 455,40 449,70" fill="rgb(255,255,255)" fill-opacity="1.0" stroke="rgb(0,0,0)" stroke-width="2"  />
		</g>
		<g>
			<title> (ctg21_36)</title>
			<polygon class=" (ctg21_36)" points="522,25 484,25 484,10 454,40 484,70 484,55 522,55" fill="rgb(255,255,255)" fill-opacity="1.0" stroke="rgb(0,0,0)" stroke-width="2"  />
			<g>
				<title>ABC_tran (PF00005)
"ABC transporter"</title>
				<polygon class="PF00005" points="469,29 470,28 482,28 482,52 470,52 469,51" stroke-linejoin="round" width="13" height="24" fill="rgb(129,201,63)" stroke="rgb(103,160,50)" stroke-width="1" opacity="0.75" />
			</g>
			<g>
				<title>ABC_membrane_2 (PF06472)
"ABC transporter transmembrane region 2"</title>
				<rect class="PF06472" x="491" y="28" stroke-linejoin="round" width="25" height="24" fill="rgb(120,179,45)" stroke="rgb(96,143,36)" stroke-width="1" opacity="0.75" />
			</g>
		</g>
		<g>
			<title> (ctg21_37)</title>
			<polygon class=" (ctg21_37)" points="530,40 538,10 538,70" fill="rgb(255,255,255)" fill-opacity="1.0" stroke="rgb(0,0,0)" stroke-width="2"  />
		</g>
		<g>
			<title> (ctg21_38)</title>
			<polygon class=" (ctg21_38)" points="573,25 572,25 572,10 542,40 572,70 572,55 573,55" fill="rgb(255,255,255)" fill-opacity="1.0" stroke="rgb(0,0,0)" stroke-width="2"  />
			<g>
				<title>NAD_binding_8 (PF13450)
"NAD(P)-binding Rossmann-like domain"</title>
				<rect class="PF13450" x="565" y="28" stroke-linejoin="round" width="6" height="24" fill="rgb(91,180,227)" stroke="rgb(72,144,181)" stroke-width="1" opacity="0.75" />
			</g>
		</g>
		<g>
			<title> (ctg21_39)</title>
			<polygon class=" (ctg21_39)" points="576,10 603,40 576,70" fill="rgb(255,255,255)" fill-opacity="1.0" stroke="rgb(0,0,0)" stroke-width="2"  />
		</g>
		<g>
			<title> (ctg21_40)</title>
			<polygon class=" (ctg21_40)" points="602,40 608,10 608,70" fill="rgb(255,255,255)" fill-opacity="1.0" stroke="rgb(0,0,0)" stroke-width="2"  />
		</g>
	</g>
</svg>
