<svg version="1.1" baseProfile="full" xmlns="http://www.w3.org/2000/svg" width="688.9" height="80">
	<g>
		<line x1="10" y1="40.0" x2="678.9" y2="40.0" style="stroke:rgb(70,70,70); stroke-width:3 "/>
		<g>
			<title> (ctg133_1)</title>
			<polygon class=" (ctg133_1)" points="10,25 28,25 28,10 58,40 28,70 28,55 10,55" fill="rgb(255,255,255)" fill-opacity="1.0" stroke="rgb(0,0,0)" stroke-width="2"  />
			<g>
				<title>AMP-binding_C (PF13193)
"AMP-binding enzyme C-terminal domain"</title>
				<rect class="PF13193" x="12" y="28" stroke-linejoin="round" width="7" height="24" fill="rgb(182,50,118)" stroke="rgb(145,39,94)" stroke-width="1" opacity="0.75" />
			</g>
			<g>
				<title>PP-binding (PF00550)
"Phosphopantetheine attachment site"</title>
				<rect class="PF00550" x="22" y="28" stroke-linejoin="round" width="6" height="24" fill="rgb(103,191,88)" stroke="rgb(82,152,70)" stroke-width="1" opacity="0.75" />
			</g>
			<g>
				<title>Thioesterase (PF00975)
"Thioesterase domain"</title>
				<polygon class="PF00975" points="31,28 41,28 53,40 41,52 31,52" stroke-linejoin="round" width="26" height="24" fill="rgb(207,80,138)" stroke="rgb(165,63,110)" stroke-width="1" opacity="0.75" />
			</g>
		</g>
		<g>
			<title> (ctg133_2)</title>
			<polygon class=" (ctg133_2)" points="67,10 83,40 67,70" fill="rgb(255,255,255)" fill-opacity="1.0" stroke="rgb(0,0,0)" stroke-width="2"  />
		</g>
		<g>
			<title> (ctg133_3)</title>
			<polygon class=" (ctg133_3)" points="99,40 105,10 105,70" fill="rgb(255,255,255)" fill-opacity="1.0" stroke="rgb(0,0,0)" stroke-width="2"  />
			<g>
				<title>CVNH (PF08881)
"CVNH domain"</title>
				<polygon class="PF08881" points="102,40 104,28 104,28 104,52 104,52" stroke-linejoin="round" width="5" height="24" fill="rgb(103,204,95)" stroke="rgb(82,163,76)" stroke-width="1" opacity="0.75" />
			</g>
		</g>
		<g>
			<title> (ctg133_4)</title>
			<polygon class=" (ctg133_4)" points="126,10 152,40 126,70" fill="rgb(255,255,255)" fill-opacity="1.0" stroke="rgb(0,0,0)" stroke-width="2"  />
			<g>
				<title>Methyltransf_11 (PF08241)
"Methyltransferase domain"</title>
				<polygon class="PF08241" points="132,28 138,28 141,32 141,48 138,52 132,52" stroke-linejoin="round" width="9" height="24" fill="rgb(106,219,159)" stroke="rgb(84,175,127)" stroke-width="1" opacity="0.75" />
			</g>
		</g>
		<g>
			<title> (ctg133_5)</title>
			<polygon class=" (ctg133_5)" points="153,10 177,40 153,70" fill="rgb(255,255,255)" fill-opacity="1.0" stroke="rgb(0,0,0)" stroke-width="2"  />
			<g>
				<title>adh_short_C2 (PF13561)
"Enoyl-(Acyl carrier protein) reductase"</title>
				<polygon class="PF13561" points="154,28 164,28 173,40 164,52 154,52" stroke-linejoin="round" width="22" height="24" fill="rgb(73,205,127)" stroke="rgb(58,164,101)" stroke-width="1" opacity="0.75" />
			</g>
		</g>
		<g>
			<title> (ctg133_6)</title>
			<polygon class=" (ctg133_6)" points="202,40 206,10 206,70" fill="rgb(255,255,255)" fill-opacity="1.0" stroke="rgb(0,0,0)" stroke-width="2"  />
		</g>
		<g>
			<title> (ctg133_7)</title>
			<polygon class=" (ctg133_7)" points="210,40 236,10 236,70" fill="rgb(255,255,255)" fill-opacity="1.0" stroke="rgb(0,0,0)" stroke-width="2"  />
			<g>
				<title>HpcH_HpaI (PF03328)
"HpcH/HpaI aldolase/citrate lyase family"</title>
				<polygon class="PF03328" points="217,37 224,28 229,28 229,52 224,52 217,43" stroke-linejoin="round" width="12" height="24" fill="rgb(81,183,94)" stroke="rgb(64,146,75)" stroke-width="1" opacity="0.75" />
			</g>
		</g>
		<g>
			<title> (ctg133_8)</title>
			<polygon class=" (ctg133_8)" points="244,25 273,25 273,10 303,40 273,70 273,55 244,55" fill="rgb(255,255,255)" fill-opacity="1.0" stroke="rgb(0,0,0)" stroke-width="2"  />
			<g>
				<title>tRNA_anti-codon (PF01336)
"OB-fold nucleic acid binding domain"</title>
				<rect class="PF01336" x="245" y="28" stroke-linejoin="round" width="8" height="24" fill="rgb(215,103,173)" stroke="rgb(172,82,138)" stroke-width="1" opacity="0.75" />
			</g>
			<g>
				<title>tRNA-synt_2 (PF00152)
"tRNA synthetases class II (D, K and N)"</title>
				<polygon class="PF00152" points="256,28 287,28 299,40 287,52 256,52" stroke-linejoin="round" width="44" height="24" fill="rgb(90,71,190)" stroke="rgb(72,56,152)" stroke-width="1" opacity="0.75" />
			</g>
		</g>
		<g>
			<title> (ctg133_9)</title>
			<polygon class=" (ctg133_9)" points="358,25 343,25 343,10 313,40 343,70 343,55 358,55" fill="rgb(255,255,255)" fill-opacity="1.0" stroke="rgb(0,0,0)" stroke-width="2"  />
			<g>
				<title>FGE-sulfatase (PF03781)
"Sulfatase-modifying factor enzyme 1"</title>
				<polygon class="PF03781" points="317,40 329,28 338,28 338,52 329,52" stroke-linejoin="round" width="25" height="24" fill="rgb(206,81,170)" stroke="rgb(164,64,136)" stroke-width="1" opacity="0.75" />
			</g>
			<g>
				<title>TIR_2 (PF13676)
"TIR domain"</title>
				<rect class="PF13676" x="344" y="28" stroke-linejoin="round" width="12" height="24" fill="rgb(87,220,58)" stroke="rgb(69,176,46)" stroke-width="1" opacity="0.75" />
			</g>
		</g>
		<g>
			<title> (ctg133_10)</title>
			<polygon class=" (ctg133_10)" points="371,40 392,10 392,70" fill="rgb(255,255,255)" fill-opacity="1.0" stroke="rgb(0,0,0)" stroke-width="2"  />
			<g>
				<title>Uma2 (PF05685)
"Putative restriction endonuclease"</title>
				<polygon class="PF05685" points="375,40 384,28 389,28 389,52 384,52" stroke-linejoin="round" width="16" height="24" fill="rgb(123,107,219)" stroke="rgb(98,85,175)" stroke-width="1" opacity="0.75" />
			</g>
		</g>
		<g>
			<title> (ctg133_11)</title>
			<polygon class=" (ctg133_11)" points="393,40 414,10 414,70" fill="rgb(255,255,255)" fill-opacity="1.0" stroke="rgb(0,0,0)" stroke-width="2"  />
			<g>
				<title>Uma2 (PF05685)
"Putative restriction endonuclease"</title>
				<polygon class="PF05685" points="397,40 406,28 412,28 412,52 406,52" stroke-linejoin="round" width="17" height="24" fill="rgb(123,107,219)" stroke="rgb(98,85,175)" stroke-width="1" opacity="0.75" />
			</g>
		</g>
		<g>
			<title> (ctg133_12)</title>
			<polygon class=" (ctg133_12)" points="452,25 447,25 447,10 417,40 447,70 447,55 452,55" fill="rgb(255,255,255)" fill-opacity="1.0" stroke="rgb(0,0,0)" stroke-width="2"  />
			<g>
				<title>DAHP_synth_1 (PF00793)
"DAHP synthetase I family"</title>
				<polygon class="PF00793" points="421,40 433,28 443,28 443,52 433,52" stroke-linejoin="round" width="25" height="24" fill="rgb(223,103,208)" stroke="rgb(178,82,166)" stroke-width="1" opacity="0.75" />
			</g>
			<g>
				<title>DAHP_snth_FXD (PF18152)
"DAHP synthase ferredoxin-like domain"</title>
				<rect class="PF18152" x="445" y="28" stroke-linejoin="round" width="6" height="24" fill="rgb(80,206,228)" stroke="rgb(64,164,182)" stroke-width="1" opacity="0.75" />
			</g>
		</g>
		<g>
			<title> (ctg133_13)</title>
			<polygon class=" (ctg133_13)" points="455,40 461,10 461,70" fill="rgb(255,255,255)" fill-opacity="1.0" stroke="rgb(0,0,0)" stroke-width="2"  />
			<g>
				<title>DUF3464 (PF11947)
"Photosynthesis affected mutant 68"</title>
				<polygon class="PF11947" points="458,40 460,28 460,28 460,52 460,52" stroke-linejoin="round" width="5" height="24" fill="rgb(199,90,182)" stroke="rgb(159,72,145)" stroke-width="1" opacity="0.75" />
			</g>
		</g>
		<g>
			<title> (ctg133_14)</title>
			<polygon class=" (ctg133_14)" points="471,40 480,10 480,70" fill="rgb(255,255,255)" fill-opacity="1.0" stroke="rgb(0,0,0)" stroke-width="2"  />
			<g>
				<title>Ribosomal_S15 (PF00312)
"Ribosomal protein S15"</title>
				<polygon class="PF00312" points="474,40 478,28 479,28 479,52 478,52" stroke-linejoin="round" width="8" height="24" fill="rgb(176,72,186)" stroke="rgb(140,57,148)" stroke-width="1" opacity="0.75" />
			</g>
		</g>
		<g>
			<title> (ctg133_15)</title>
			<polygon class=" (ctg133_15)" points="480,40 488,10 488,70" fill="rgb(255,255,255)" fill-opacity="1.0" stroke="rgb(0,0,0)" stroke-width="2"  />
		</g>
		<g>
			<title> (ctg133_16)</title>
			<polygon class=" (ctg133_16)" points="490,10 501,40 490,70" fill="rgb(255,255,255)" fill-opacity="1.0" stroke="rgb(0,0,0)" stroke-width="2"  />
			<g>
				<title>NdhM (PF10664)
"Cyanobacterial and plastid NDH-1 subunit M"</title>
				<polygon class="PF10664" points="490,28 493,28 497,40 493,52 490,52" stroke-linejoin="round" width="10" height="24" fill="rgb(57,176,203)" stroke="rgb(45,140,162)" stroke-width="1" opacity="0.75" />
			</g>
		</g>
		<g>
			<title> (ctg133_17)</title>
			<polygon class=" (ctg133_17)" points="557,25 544,25 544,10 514,40 544,70 544,55 557,55" fill="rgb(255,255,255)" fill-opacity="1.0" stroke="rgb(0,0,0)" stroke-width="2"  />
			<g>
				<title>ArsA_HSP20 (PF17886)
"HSP20-like domain found in ArsA"</title>
				<polygon class="PF17886" points="518,40 520,38 520,42" stroke-linejoin="round" width="6" height="24" fill="rgb(215,176,93)" stroke="rgb(172,140,74)" stroke-width="1" opacity="0.75" />
			</g>
			<g>
				<title>ArsA_ATPase (PF02374)
"Anion-transporting ATPase"</title>
				<polygon class="PF02374" points="522,36 530,28 552,28 552,52 530,52 522,44" stroke-linejoin="round" width="30" height="24" fill="rgb(210,53,214)" stroke="rgb(167,42,171)" stroke-width="1" opacity="0.75" />
			</g>
		</g>
		<g>
			<title> (ctg133_18)</title>
			<polygon class=" (ctg133_18)" points="556,40 569,10 569,70" fill="rgb(255,255,255)" fill-opacity="1.0" stroke="rgb(0,0,0)" stroke-width="2"  />
			<g>
				<title>Asp_decarbox (PF02261)
"Aspartate decarboxylase"</title>
				<polygon class="PF02261" points="559,40 564,28 568,28 568,52 564,52" stroke-linejoin="round" width="10" height="24" fill="rgb(223,94,196)" stroke="rgb(178,75,156)" stroke-width="1" opacity="0.75" />
			</g>
		</g>
		<g>
			<title> (ctg133_19)</title>
			<polygon class=" (ctg133_19)" points="570,10 598,40 570,70" fill="rgb(255,255,255)" fill-opacity="1.0" stroke="rgb(0,0,0)" stroke-width="2"  />
			<g>
				<title>DUF3598 (PF12204)
"Domain of unknown function (DUF3598)"</title>
				<polygon class="PF12204" points="571,28 582,28 594,40 582,52 571,52" stroke-linejoin="round" width="26" height="24" fill="rgb(225,89,209)" stroke="rgb(180,71,167)" stroke-width="1" opacity="0.75" />
			</g>
		</g>
		<g>
			<title> (ctg133_20)</title>
			<polygon class=" (ctg133_20)" points="601,40 626,10 626,70" fill="rgb(255,255,255)" fill-opacity="1.0" stroke="rgb(0,0,0)" stroke-width="2"  />
			<g>
				<title>CbiJ (PF02571)
"Precorrin-6x reductase CbiJ/CobK"</title>
				<polygon class="PF02571" points="605,40 615,28 625,28 625,52 615,52" stroke-linejoin="round" width="24" height="24" fill="rgb(228,98,187)" stroke="rgb(182,78,149)" stroke-width="1" opacity="0.75" />
			</g>
		</g>
		<g>
			<title> (ctg133_21)</title>
			<polygon class=" (ctg133_21)" points="659,25 658,25 658,10 628,40 658,70 658,55 659,55" fill="rgb(255,255,255)" fill-opacity="1.0" stroke="rgb(0,0,0)" stroke-width="2"  />
			<g>
				<title>Epimerase (PF01370)
"NAD dependent epimerase/dehydratase family"</title>
				<polygon class="PF01370" points="635,37 644,28 659,28 659,52 644,52 635,43" stroke-linejoin="round" width="24" height="24" fill="rgb(98,102,214)" stroke="rgb(78,81,171)" stroke-width="1" opacity="0.75" />
			</g>
		</g>
		<g>
			<title> (ctg133_22)</title>
			<polygon class=" (ctg133_22)" points="668,10 675,40 668,70" fill="rgb(255,255,255)" fill-opacity="1.0" stroke="rgb(0,0,0)" stroke-width="2"  />
		</g>
		<g>
			<title> (ctg133_23)</title>
			<polygon class=" (ctg133_23)" points="675,40 678,10 678,70" fill="rgb(255,255,255)" fill-opacity="1.0" stroke="rgb(0,0,0)" stroke-width="2"  />
		</g>
	</g>
</svg>
