<svg version="1.1" baseProfile="full" xmlns="http://www.w3.org/2000/svg" width="1570.2" height="80">
	<g>
		<line x1="10" y1="40.0" x2="1560.2" y2="40.0" style="stroke:rgb(70,70,70); stroke-width:3 "/>
		<g>
			<title> (ctg109_1)</title>
			<polygon class=" (ctg109_1)" points="71,25 44,25 44,10 14,40 44,70 44,55 71,55" fill="rgb(255,255,255)" fill-opacity="1.0" stroke="rgb(0,0,0)" stroke-width="2"  />
			<g>
				<title>Aconitase (PF00330)
"Aconitase family (aconitate hydratase)"</title>
				<polygon class="PF00330" points="18,40 30,28 56,28 56,52 30,52" stroke-linejoin="round" width="42" height="24" fill="rgb(180,189,85)" stroke="rgb(144,151,68)" stroke-width="1" opacity="0.75" />
			</g>
			<g>
				<title>Aconitase_C (PF00694)
"Aconitase C-terminal domain"</title>
				<rect class="PF00694" x="61" y="28" stroke-linejoin="round" width="5" height="24" fill="rgb(63,185,92)" stroke="rgb(50,148,73)" stroke-width="1" opacity="0.75" />
			</g>
		</g>
		<g>
			<title> (ctg109_2)</title>
			<polygon class=" (ctg109_2)" points="107,25 102,25 102,10 72,40 102,70 102,55 107,55" fill="rgb(255,255,255)" fill-opacity="1.0" stroke="rgb(0,0,0)" stroke-width="2"  />
			<g>
				<title>Iso_dh (PF00180)
"Isocitrate/isopropylmalate dehydrogenase"</title>
				<polygon class="PF00180" points="76,40 88,28 106,28 106,52 88,52" stroke-linejoin="round" width="33" height="24" fill="rgb(109,54,206)" stroke="rgb(87,43,164)" stroke-width="1" opacity="0.75" />
			</g>
		</g>
		<g>
			<title> (ctg109_3)</title>
			<polygon class=" (ctg109_3)" points="146,25 137,25 137,10 107,40 137,70 137,55 146,55" fill="rgb(255,255,255)" fill-opacity="1.0" stroke="rgb(0,0,0)" stroke-width="2"  />
			<g>
				<title>HMGL-like (PF00682)
"HMGL-like"</title>
				<polygon class="PF00682" points="117,34 123,28 133,28 133,52 123,52 117,46" stroke-linejoin="round" width="16" height="24" fill="rgb(84,228,141)" stroke="rgb(67,182,112)" stroke-width="1" opacity="0.75" />
			</g>
			<g>
				<title>HMGL-like (PF00682)
"HMGL-like"</title>
				<rect class="PF00682" x="134" y="28" stroke-linejoin="round" width="11" height="24" fill="rgb(84,228,141)" stroke="rgb(67,182,112)" stroke-width="1" opacity="0.75" />
			</g>
		</g>
		<g>
			<title> (ctg109_4)</title>
			<polygon class=" (ctg109_4)" points="163,25 349,25 349,10 379,40 349,70 349,55 163,55" fill="rgb(255,255,255)" fill-opacity="1.0" stroke="rgb(0,0,0)" stroke-width="2"  />
			<g>
				<title>AMP-binding (PF00501)
"AMP-binding enzyme"</title>
				<rect class="PF00501" x="164" y="28" stroke-linejoin="round" width="40" height="24" fill="rgb(60,217,223)" stroke="rgb(48,173,178)" stroke-width="1" opacity="0.75" />
			</g>
			<g>
				<title>AMP-binding_C (PF13193)
"AMP-binding enzyme C-terminal domain"</title>
				<rect class="PF13193" x="205" y="28" stroke-linejoin="round" width="7" height="24" fill="rgb(182,50,118)" stroke="rgb(145,39,94)" stroke-width="1" opacity="0.75" />
			</g>
			<g>
				<title>PP-binding (PF00550)
"Phosphopantetheine attachment site"</title>
				<rect class="PF00550" x="215" y="28" stroke-linejoin="round" width="6" height="24" fill="rgb(103,191,88)" stroke="rgb(82,152,70)" stroke-width="1" opacity="0.75" />
			</g>
			<g>
				<title>Condensation (PF00668)
"Condensation domain"</title>
				<rect class="PF00668" x="224" y="28" stroke-linejoin="round" width="46" height="24" fill="rgb(224,184,98)" stroke="rgb(179,147,78)" stroke-width="1" opacity="0.75" />
			</g>
			<g>
				<title>AMP-binding (PF00501)
"AMP-binding enzyme"</title>
				<rect class="PF00501" x="272" y="28" stroke-linejoin="round" width="40" height="24" fill="rgb(60,217,223)" stroke="rgb(48,173,178)" stroke-width="1" opacity="0.75" />
			</g>
			<g>
				<title>AMP-binding_C (PF13193)
"AMP-binding enzyme C-terminal domain"</title>
				<rect class="PF13193" x="314" y="28" stroke-linejoin="round" width="7" height="24" fill="rgb(182,50,118)" stroke="rgb(145,39,94)" stroke-width="1" opacity="0.75" />
			</g>
			<g>
				<title>PP-binding (PF00550)
"Phosphopantetheine attachment site"</title>
				<rect class="PF00550" x="324" y="28" stroke-linejoin="round" width="6" height="24" fill="rgb(103,191,88)" stroke="rgb(82,152,70)" stroke-width="1" opacity="0.75" />
			</g>
			<g>
				<title>Condensation (PF00668)
"Condensation domain"</title>
				<polygon class="PF00668" points="331,28 363,28 375,40 363,52 331,52" stroke-linejoin="round" width="45" height="24" fill="rgb(224,184,98)" stroke="rgb(179,147,78)" stroke-width="1" opacity="0.75" />
			</g>
		</g>
		<g>
			<title> (ctg109_5)</title>
			<polygon class=" (ctg109_5)" points="380,25 457,25 457,10 487,40 457,70 457,55 380,55" fill="rgb(255,255,255)" fill-opacity="1.0" stroke="rgb(0,0,0)" stroke-width="2"  />
			<g>
				<title>Condensation (PF00668)
"Condensation domain"</title>
				<rect class="PF00668" x="380" y="28" stroke-linejoin="round" width="44" height="24" fill="rgb(224,184,98)" stroke="rgb(179,147,78)" stroke-width="1" opacity="0.75" />
			</g>
			<g>
				<title>AMP-binding (PF00501)
"AMP-binding enzyme"</title>
				<rect class="PF00501" x="427" y="28" stroke-linejoin="round" width="39" height="24" fill="rgb(60,217,223)" stroke="rgb(48,173,178)" stroke-width="1" opacity="0.75" />
			</g>
			<g>
				<title>AMP-binding_C (PF13193)
"AMP-binding enzyme C-terminal domain"</title>
				<polygon class="PF13193" points="467,28 471,28 474,31 474,49 471,52 467,52" stroke-linejoin="round" width="7" height="24" fill="rgb(182,50,118)" stroke="rgb(145,39,94)" stroke-width="1" opacity="0.75" />
			</g>
			<g>
				<title>PP-binding (PF00550)
"Phosphopantetheine attachment site"</title>
				<polygon class="PF00550" points="478,35 483,40 478,45" stroke-linejoin="round" width="6" height="24" fill="rgb(103,191,88)" stroke="rgb(82,152,70)" stroke-width="1" opacity="0.75" />
			</g>
		</g>
		<g>
			<title> (ctg109_6)</title>
			<polygon class=" (ctg109_6)" points="495,25 722,25 722,10 752,40 722,70 722,55 495,55" fill="rgb(255,255,255)" fill-opacity="1.0" stroke="rgb(0,0,0)" stroke-width="2"  />
			<g>
				<title>Condensation (PF00668)
"Condensation domain"</title>
				<rect class="PF00668" x="499" y="28" stroke-linejoin="round" width="44" height="24" fill="rgb(224,184,98)" stroke="rgb(179,147,78)" stroke-width="1" opacity="0.75" />
			</g>
			<g>
				<title>AMP-binding (PF00501)
"AMP-binding enzyme"</title>
				<rect class="PF00501" x="546" y="28" stroke-linejoin="round" width="39" height="24" fill="rgb(60,217,223)" stroke="rgb(48,173,178)" stroke-width="1" opacity="0.75" />
			</g>
			<g>
				<title>AMP-binding_C (PF13193)
"AMP-binding enzyme C-terminal domain"</title>
				<rect class="PF13193" x="586" y="28" stroke-linejoin="round" width="7" height="24" fill="rgb(182,50,118)" stroke="rgb(145,39,94)" stroke-width="1" opacity="0.75" />
			</g>
			<g>
				<title>PP-binding (PF00550)
"Phosphopantetheine attachment site"</title>
				<rect class="PF00550" x="596" y="28" stroke-linejoin="round" width="6" height="24" fill="rgb(103,191,88)" stroke="rgb(82,152,70)" stroke-width="1" opacity="0.75" />
			</g>
			<g>
				<title>Condensation (PF00668)
"Condensation domain"</title>
				<rect class="PF00668" x="604" y="28" stroke-linejoin="round" width="45" height="24" fill="rgb(224,184,98)" stroke="rgb(179,147,78)" stroke-width="1" opacity="0.75" />
			</g>
			<g>
				<title>AMP-binding (PF00501)
"AMP-binding enzyme"</title>
				<rect class="PF00501" x="651" y="28" stroke-linejoin="round" width="39" height="24" fill="rgb(60,217,223)" stroke="rgb(48,173,178)" stroke-width="1" opacity="0.75" />
			</g>
			<g>
				<title>Methyltransf_31 (PF13847)
"Methyltransferase domain"</title>
				<rect class="PF13847" x="702" y="28" stroke-linejoin="round" width="15" height="24" fill="rgb(214,74,181)" stroke="rgb(171,59,144)" stroke-width="1" opacity="0.75" />
			</g>
			<g>
				<title>PP-binding (PF00550)
"Phosphopantetheine attachment site"</title>
				<polygon class="PF00550" points="743,35 748,40 743,45" stroke-linejoin="round" width="6" height="24" fill="rgb(103,191,88)" stroke="rgb(82,152,70)" stroke-width="1" opacity="0.75" />
			</g>
		</g>
		<g>
			<title> (ctg109_7)</title>
			<polygon class=" (ctg109_7)" points="753,25 863,25 863,10 893,40 863,70 863,55 753,55" fill="rgb(255,255,255)" fill-opacity="1.0" stroke="rgb(0,0,0)" stroke-width="2"  />
			<g>
				<title>TubC_N (PF18563)
"TubC N-terminal docking domain"</title>
				<rect class="PF18563" x="753" y="28" stroke-linejoin="round" width="5" height="24" fill="rgb(95,217,77)" stroke="rgb(75,173,61)" stroke-width="1" opacity="0.75" />
			</g>
			<g>
				<title>Condensation (PF00668)
"Condensation domain"</title>
				<rect class="PF00668" x="760" y="28" stroke-linejoin="round" width="44" height="24" fill="rgb(224,184,98)" stroke="rgb(179,147,78)" stroke-width="1" opacity="0.75" />
			</g>
			<g>
				<title>AMP-binding (PF00501)
"AMP-binding enzyme"</title>
				<rect class="PF00501" x="807" y="28" stroke-linejoin="round" width="39" height="24" fill="rgb(60,217,223)" stroke="rgb(48,173,178)" stroke-width="1" opacity="0.75" />
			</g>
			<g>
				<title>AMP-binding_C (PF13193)
"AMP-binding enzyme C-terminal domain"</title>
				<rect class="PF13193" x="847" y="28" stroke-linejoin="round" width="7" height="24" fill="rgb(182,50,118)" stroke="rgb(145,39,94)" stroke-width="1" opacity="0.75" />
			</g>
			<g>
				<title>PP-binding (PF00550)
"Phosphopantetheine attachment site"</title>
				<rect class="PF00550" x="857" y="28" stroke-linejoin="round" width="6" height="24" fill="rgb(103,191,88)" stroke="rgb(82,152,70)" stroke-width="1" opacity="0.75" />
			</g>
			<g>
				<title>Thioesterase (PF00975)
"Thioesterase domain"</title>
				<polygon class="PF00975" points="866,28 877,28 889,40 877,52 866,52" stroke-linejoin="round" width="26" height="24" fill="rgb(207,80,138)" stroke="rgb(165,63,110)" stroke-width="1" opacity="0.75" />
			</g>
		</g>
		<g>
			<title> (ctg109_8)</title>
			<polygon class=" (ctg109_8)" points="896,25 924,25 924,10 954,40 924,70 924,55 896,55" fill="rgb(255,255,255)" fill-opacity="1.0" stroke="rgb(0,0,0)" stroke-width="2"  />
			<g>
				<title>ABC_membrane_2 (PF06472)
"ABC transporter transmembrane region 2"</title>
				<rect class="PF06472" x="900" y="28" stroke-linejoin="round" width="26" height="24" fill="rgb(120,179,45)" stroke="rgb(96,143,36)" stroke-width="1" opacity="0.75" />
			</g>
			<g>
				<title>ABC_tran (PF00005)
"ABC transporter"</title>
				<polygon class="PF00005" points="935,28 938,28 948,38 948,42 938,52 935,52" stroke-linejoin="round" width="13" height="24" fill="rgb(129,201,63)" stroke="rgb(103,160,50)" stroke-width="1" opacity="0.75" />
			</g>
		</g>
		<g>
			<title> (ctg109_9)</title>
			<polygon class=" (ctg109_9)" points="959,25 964,25 964,10 994,40 964,70 964,55 959,55" fill="rgb(255,255,255)" fill-opacity="1.0" stroke="rgb(0,0,0)" stroke-width="2"  />
			<g>
				<title>Aminotran_1_2 (PF00155)
"Aminotransferase class I and II"</title>
				<polygon class="PF00155" points="961,28 978,28 990,40 978,52 961,52" stroke-linejoin="round" width="32" height="24" fill="rgb(89,113,198)" stroke="rgb(71,90,158)" stroke-width="1" opacity="0.75" />
			</g>
		</g>
		<g>
			<title> (ctg109_10)</title>
			<polygon class=" (ctg109_10)" points="996,10 1009,40 996,70" fill="rgb(255,255,255)" fill-opacity="1.0" stroke="rgb(0,0,0)" stroke-width="2"  />
		</g>
		<g>
			<title> (ctg109_11)</title>
			<polygon class=" (ctg109_11)" points="1015,40 1021,10 1021,70" fill="rgb(255,255,255)" fill-opacity="1.0" stroke="rgb(0,0,0)" stroke-width="2"  />
		</g>
		<g>
			<title> (ctg109_12)</title>
			<polygon class=" (ctg109_12)" points="1027,40 1051,10 1051,70" fill="rgb(255,255,255)" fill-opacity="1.0" stroke="rgb(0,0,0)" stroke-width="2"  />
			<g>
				<title>DUF1995 (PF09353)
"Domain of unknown function (DUF1995)"</title>
				<polygon class="PF09353" points="1031,40 1041,28 1050,28 1050,52 1041,52" stroke-linejoin="round" width="20" height="24" fill="rgb(215,113,55)" stroke="rgb(172,90,44)" stroke-width="1" opacity="0.75" />
			</g>
		</g>
		<g>
			<title> (ctg109_13)</title>
			<polygon class=" (ctg109_13)" points="1061,40 1070,10 1070,70" fill="rgb(255,255,255)" fill-opacity="1.0" stroke="rgb(0,0,0)" stroke-width="2"  />
		</g>
		<g>
			<title> (ctg109_14)</title>
			<polygon class=" (ctg109_14)" points="1071,40 1095,10 1095,70" fill="rgb(255,255,255)" fill-opacity="1.0" stroke="rgb(0,0,0)" stroke-width="2"  />
		</g>
		<g>
			<title> (ctg109_15)</title>
			<polygon class=" (ctg109_15)" points="1159,25 1131,25 1131,10 1101,40 1131,70 1131,55 1159,55" fill="rgb(255,255,255)" fill-opacity="1.0" stroke="rgb(0,0,0)" stroke-width="2"  />
			<g>
				<title>Flavin_Reduct (PF01613)
"Flavin reductase like domain"</title>
				<polygon class="PF01613" points="1105,40 1115,30 1115,50" stroke-linejoin="round" width="14" height="24" fill="rgb(107,197,222)" stroke="rgb(85,157,177)" stroke-width="1" opacity="0.75" />
			</g>
		</g>
		<g>
			<title> (ctg109_16)</title>
			<polygon class=" (ctg109_16)" points="1161,40 1177,10 1177,70" fill="rgb(255,255,255)" fill-opacity="1.0" stroke="rgb(0,0,0)" stroke-width="2"  />
			<g>
				<title>PsiE (PF06146)
"Phosphate-starvation-inducible E family"</title>
				<polygon class="PF06146" points="1164,40 1171,28 1175,28 1175,52 1171,52 1164,40" stroke-linejoin="round" width="11" height="24" fill="rgb(193,99,211)" stroke="rgb(154,79,168)" stroke-width="1" opacity="0.75" />
			</g>
		</g>
		<g>
			<title> (ctg109_17)</title>
			<polygon class=" (ctg109_17)" points="1240,25 1213,25 1213,10 1183,40 1213,70 1213,55 1240,55" fill="rgb(255,255,255)" fill-opacity="1.0" stroke="rgb(0,0,0)" stroke-width="2"  />
			<g>
				<title>Flavin_Reduct (PF01613)
"Flavin reductase like domain"</title>
				<polygon class="PF01613" points="1187,40 1197,30 1197,50" stroke-linejoin="round" width="14" height="24" fill="rgb(107,197,222)" stroke="rgb(85,157,177)" stroke-width="1" opacity="0.75" />
			</g>
			<g>
				<title>Lactamase_B (PF00753)
"Metallo-beta-lactamase superfamily"</title>
				<rect class="PF00753" x="1216" y="28" stroke-linejoin="round" width="19" height="24" fill="rgb(206,198,96)" stroke="rgb(164,158,76)" stroke-width="1" opacity="0.75" />
			</g>
		</g>
		<g>
			<title> (ctg109_18)</title>
			<polygon class=" (ctg109_18)" points="1253,40 1276,10 1276,70" fill="rgb(255,255,255)" fill-opacity="1.0" stroke="rgb(0,0,0)" stroke-width="2"  />
			<g>
				<title>tRNA_m1G_MT (PF01746)
"tRNA (Guanine-1)-methyltransferase"</title>
				<polygon class="PF01746" points="1257,40 1266,28 1273,28 1273,52 1266,52" stroke-linejoin="round" width="19" height="24" fill="rgb(69,212,172)" stroke="rgb(55,169,137)" stroke-width="1" opacity="0.75" />
			</g>
		</g>
		<g>
			<title> (ctg109_19)</title>
			<polygon class=" (ctg109_19)" points="1289,10 1317,40 1289,70" fill="rgb(255,255,255)" fill-opacity="1.0" stroke="rgb(0,0,0)" stroke-width="2"  />
			<g>
				<title>Peptidase_S51 (PF03575)
"Peptidase family S51"</title>
				<polygon class="PF03575" points="1291,28 1301,28 1311,38 1311,42 1301,52 1291,52" stroke-linejoin="round" width="20" height="24" fill="rgb(84,201,194)" stroke="rgb(67,160,155)" stroke-width="1" opacity="0.75" />
			</g>
		</g>
		<g>
			<title> (ctg109_20)</title>
			<polygon class=" (ctg109_20)" points="1323,25 1378,25 1378,10 1408,40 1378,70 1378,55 1323,55" fill="rgb(255,255,255)" fill-opacity="1.0" stroke="rgb(0,0,0)" stroke-width="2"  />
			<g>
				<title>Cyanophycin_syn (PF18921)
"Cyanophycin synthase-like N-terminal domain"</title>
				<rect class="PF18921" x="1323" y="28" stroke-linejoin="round" width="11" height="24" fill="rgb(120,66,184)" stroke="rgb(95,52,147)" stroke-width="1" opacity="0.75" />
			</g>
			<g>
				<title>RimK (PF08443)
"RimK-like ATP-grasp domain"</title>
				<rect class="PF08443" x="1342" y="28" stroke-linejoin="round" width="12" height="24" fill="rgb(192,59,192)" stroke="rgb(153,47,153)" stroke-width="1" opacity="0.75" />
			</g>
			<g>
				<title>Mur_ligase_M (PF08245)
"Mur ligase middle domain"</title>
				<rect class="PF08245" x="1369" y="28" stroke-linejoin="round" width="21" height="24" fill="rgb(57,133,195)" stroke="rgb(45,106,156)" stroke-width="1" opacity="0.75" />
			</g>
			<g>
				<title>Mur_ligase_C (PF02875)
"Mur ligase family, glutamate ligase domain"</title>
				<polygon class="PF02875" points="1393,29 1401,37 1401,43 1393,51" stroke-linejoin="round" width="8" height="24" fill="rgb(197,75,168)" stroke="rgb(157,60,134)" stroke-width="1" opacity="0.75" />
			</g>
		</g>
		<g>
			<title> (ctg109_21)</title>
			<polygon class=" (ctg109_21)" points="1412,10 1435,40 1412,70" fill="rgb(255,255,255)" fill-opacity="1.0" stroke="rgb(0,0,0)" stroke-width="2"  />
			<g>
				<title>DUF488 (PF04343)
"Protein of unknown function, DUF488"</title>
				<polygon class="PF04343" points="1413,28 1422,28 1424,31 1424,49 1422,52 1413,52" stroke-linejoin="round" width="11" height="24" fill="rgb(200,173,51)" stroke="rgb(160,138,40)" stroke-width="1" opacity="0.75" />
			</g>
		</g>
		<g>
			<title> (ctg109_22)</title>
			<polygon class=" (ctg109_22)" points="1446,10 1470,40 1446,70" fill="rgb(255,255,255)" fill-opacity="1.0" stroke="rgb(0,0,0)" stroke-width="2"  />
		</g>
		<g>
			<title> (ctg109_23)</title>
			<polygon class=" (ctg109_23)" points="1483,40 1504,10 1504,70" fill="rgb(255,255,255)" fill-opacity="1.0" stroke="rgb(0,0,0)" stroke-width="2"  />
		</g>
		<g>
			<title> (ctg109_24)</title>
			<polygon class=" (ctg109_24)" points="1506,10 1518,40 1506,70" fill="rgb(255,255,255)" fill-opacity="1.0" stroke="rgb(0,0,0)" stroke-width="2"  />
		</g>
		<g>
			<title> (ctg109_25)</title>
			<polygon class=" (ctg109_25)" points="1521,10 1531,40 1521,70" fill="rgb(255,255,255)" fill-opacity="1.0" stroke="rgb(0,0,0)" stroke-width="2"  />
		</g>
		<g>
			<title> (ctg109_26)</title>
			<polygon class=" (ctg109_26)" points="1546,40 1556,10 1556,70" fill="rgb(255,255,255)" fill-opacity="1.0" stroke="rgb(0,0,0)" stroke-width="2"  />
		</g>
	</g>
</svg>
