<svg version="1.1" baseProfile="full" xmlns="http://www.w3.org/2000/svg" width="165.7" height="80">
	<g>
		<line x1="10" y1="40.0" x2="155.7" y2="40.0" style="stroke:rgb(70,70,70); stroke-width:3 "/>
		<g>
			<title> (ctg330_1)</title>
			<polygon class=" (ctg330_1)" points="62,25 40,25 40,10 10,40 40,70 40,55 62,55" fill="rgb(255,255,255)" fill-opacity="1.0" stroke="rgb(0,0,0)" stroke-width="2"  />
			<g>
				<title>YcaO (PF02624)
"YcaO cyclodehydratase, ATP-ad Mg2+-binding"</title>
				<polygon class="PF02624" points="14,40 23,31 23,49" stroke-linejoin="round" width="13" height="24" fill="rgb(76,84,185)" stroke="rgb(60,67,148)" stroke-width="1" opacity="0.75" />
			</g>
		</g>
		<g>
			<title> (ctg330_2)</title>
			<polygon class=" (ctg330_2)" points="82,10 93,40 82,70" fill="rgb(255,255,255)" fill-opacity="1.0" stroke="rgb(0,0,0)" stroke-width="2"  />
			<g>
				<title>Rubredoxin (PF00301)
"Rubredoxin"</title>
				<polygon class="PF00301" points="83,28 85,28 87,32 87,48 85,52 83,52" stroke-linejoin="round" width="4" height="24" fill="rgb(130,88,185)" stroke="rgb(104,70,148)" stroke-width="1" opacity="0.75" />
			</g>
		</g>
		<g>
			<title> (ctg330_3)</title>
			<polygon class=" (ctg330_3)" points="97,25 100,25 100,10 130,40 100,70 100,55 97,55" fill="rgb(255,255,255)" fill-opacity="1.0" stroke="rgb(0,0,0)" stroke-width="2"  />
			<g>
				<title>PSII_BNR (PF14870)
"Photosynthesis system II assembly factor YCF48"</title>
				<polygon class="PF14870" points="99,28 113,28 125,40 113,52 99,52" stroke-linejoin="round" width="30" height="24" fill="rgb(188,81,115)" stroke="rgb(150,64,92)" stroke-width="1" opacity="0.75" />
			</g>
		</g>
		<g>
			<title> (ctg330_4)</title>
			<polygon class=" (ctg330_4)" points="133,10 141,40 133,70" fill="rgb(255,255,255)" fill-opacity="1.0" stroke="rgb(0,0,0)" stroke-width="2"  />
			<g>
				<title>Cytochrom_B559 (PF00283)
"Cytochrome b559, alpha (gene psbE) and beta (gene psbF)subunits"</title>
				<polygon class="PF00283" points="133,28 134,28 135,29 135,51 134,52 133,52" stroke-linejoin="round" width="2" height="24" fill="rgb(69,149,197)" stroke="rgb(55,119,157)" stroke-width="1" opacity="0.75" />
			</g>
			<g>
				<title>Cytochrom_B559a (PF00284)
"Lumenal portion of Cytochrome b559, alpha (gene psbE) subunit"</title>
				<polygon class="PF00284" points="137,37 138,40 137,43" stroke-linejoin="round" width="3" height="24" fill="rgb(87,188,64)" stroke="rgb(69,150,51)" stroke-width="1" opacity="0.75" />
			</g>
		</g>
		<g>
			<title> (ctg330_5)</title>
			<polygon class=" (ctg330_5)" points="142,10 146,40 142,70" fill="rgb(255,255,255)" fill-opacity="1.0" stroke="rgb(0,0,0)" stroke-width="2"  />
			<g>
				<title>Cytochrom_B559 (PF00283)
"Cytochrome b559, alpha (gene psbE) and beta (gene psbF)subunits"</title>
				<polygon class="PF00283" points="142,31 143,40 142,49" stroke-linejoin="round" width="2" height="24" fill="rgb(69,149,197)" stroke="rgb(55,119,157)" stroke-width="1" opacity="0.75" />
			</g>
		</g>
		<g>
			<title> (ctg330_6)</title>
			<polygon class=" (ctg330_6)" points="147,10 151,40 147,70" fill="rgb(255,255,255)" fill-opacity="1.0" stroke="rgb(0,0,0)" stroke-width="2"  />
			<g>
				<title>PsbL (PF02419)
"PsbL protein"</title>
				<polygon class="PF02419" points="147,33 147,40 147,47" stroke-linejoin="round" width="3" height="24" fill="rgb(200,88,151)" stroke="rgb(160,70,120)" stroke-width="1" opacity="0.75" />
			</g>
		</g>
		<g>
			<title> (ctg330_7)</title>
			<polygon class=" (ctg330_7)" points="152,10 155,40 152,70" fill="rgb(255,255,255)" fill-opacity="1.0" stroke="rgb(0,0,0)" stroke-width="2"  />
			<g>
				<title>PsbJ (PF01788)
"PsbJ"</title>
				<polygon class="PF01788" points="152,40 152,40 152,40" stroke-linejoin="round" width="3" height="24" fill="rgb(56,185,118)" stroke="rgb(44,148,94)" stroke-width="1" opacity="0.75" />
			</g>
		</g>
	</g>
</svg>
