<svg version="1.1" baseProfile="full" xmlns="http://www.w3.org/2000/svg" width="499.93333333333334" height="80">
	<g>
		<line x1="10" y1="40.0" x2="489.93333333333334" y2="40.0" style="stroke:rgb(70,70,70); stroke-width:3 "/>
		<g>
			<title> (ctg136_1)</title>
			<polygon class=" (ctg136_1)" points="15,10 33,40 15,70" fill="rgb(255,255,255)" fill-opacity="1.0" stroke="rgb(0,0,0)" stroke-width="2"  />
			<g>
				<title>Acetyltransf_3 (PF13302)
"Acetyltransferase (GNAT) domain"</title>
				<polygon class="PF13302" points="16,28 22,28 29,40 22,52 16,52" stroke-linejoin="round" width="14" height="24" fill="rgb(105,146,215)" stroke="rgb(84,116,172)" stroke-width="1" opacity="0.75" />
			</g>
		</g>
		<g>
			<title> (ctg136_2)</title>
			<polygon class=" (ctg136_2)" points="39,10 55,40 39,70" fill="rgb(255,255,255)" fill-opacity="1.0" stroke="rgb(0,0,0)" stroke-width="2"  />
		</g>
		<g>
			<title> (ctg136_3)</title>
			<polygon class=" (ctg136_3)" points="61,40 66,10 66,70" fill="rgb(255,255,255)" fill-opacity="1.0" stroke="rgb(0,0,0)" stroke-width="2"  />
			<g>
				<title>Inhibitor_I10 (PF12559)
"Serine endopeptidase inhibitors"</title>
				<polygon class="PF12559" points="64,40 66,28 66,28 66,52 66,52" stroke-linejoin="round" width="5" height="24" fill="rgb(179,147,51)" stroke="rgb(143,117,40)" stroke-width="1" opacity="0.75" />
			</g>
		</g>
		<g>
			<title> (ctg136_4)</title>
			<polygon class=" (ctg136_4)" points="107,25 105,25 105,10 75,40 105,70 105,55 107,55" fill="rgb(255,255,255)" fill-opacity="1.0" stroke="rgb(0,0,0)" stroke-width="2"  />
		</g>
		<g>
			<title> (ctg136_5)</title>
			<polygon class=" (ctg136_5)" points="141,25 139,25 139,10 109,40 139,70 139,55 141,55" fill="rgb(255,255,255)" fill-opacity="1.0" stroke="rgb(0,0,0)" stroke-width="2"  />
		</g>
		<g>
			<title> (ctg136_6)</title>
			<polygon class=" (ctg136_6)" points="151,40 156,10 156,70" fill="rgb(255,255,255)" fill-opacity="1.0" stroke="rgb(0,0,0)" stroke-width="2"  />
			<g>
				<title>Inhibitor_I10 (PF12559)
"Serine endopeptidase inhibitors"</title>
				<polygon class="PF12559" points="154,40 155,34 155,46" stroke-linejoin="round" width="4" height="24" fill="rgb(179,147,51)" stroke="rgb(143,117,40)" stroke-width="1" opacity="0.75" />
			</g>
		</g>
		<g>
			<title> (ctg136_7)</title>
			<polygon class=" (ctg136_7)" points="216,25 204,25 204,10 174,40 204,70 204,55 216,55" fill="rgb(255,255,255)" fill-opacity="1.0" stroke="rgb(0,0,0)" stroke-width="2"  />
			<g>
				<title>FTSW_RODA_SPOVE (PF01098)
"Cell cycle protein"</title>
				<polygon class="PF01098" points="178,40 190,28 196,28 196,52 190,52" stroke-linejoin="round" width="22" height="24" fill="rgb(57,114,205)" stroke="rgb(45,91,164)" stroke-width="1" opacity="0.75" />
			</g>
		</g>
		<g>
			<title> (ctg136_8)</title>
			<polygon class=" (ctg136_8)" points="259,25 254,25 254,10 224,40 254,70 254,55 259,55" fill="rgb(255,255,255)" fill-opacity="1.0" stroke="rgb(0,0,0)" stroke-width="2"  />
			<g>
				<title>ParA (PF10609)
"NUBPL iron-transfer P-loop NTPase"</title>
				<polygon class="PF10609" points="228,40 240,28 249,28 249,52 240,52" stroke-linejoin="round" width="24" height="24" fill="rgb(107,194,90)" stroke="rgb(85,155,72)" stroke-width="1" opacity="0.75" />
			</g>
			<g>
				<title>FeS_assembly_P (PF01883)
"Iron-sulfur cluster assembly protein"</title>
				<rect class="PF01883" x="251" y="28" stroke-linejoin="round" width="7" height="24" fill="rgb(171,209,57)" stroke="rgb(136,167,45)" stroke-width="1" opacity="0.75" />
			</g>
		</g>
		<g>
			<title> (ctg136_9)</title>
			<polygon class=" (ctg136_9)" points="265,40 291,10 291,70" fill="rgb(255,255,255)" fill-opacity="1.0" stroke="rgb(0,0,0)" stroke-width="2"  />
			<g>
				<title>MOSC (PF03473)
"MOSC domain"</title>
				<polygon class="PF03473" points="269,40 277,31 277,49" stroke-linejoin="round" width="12" height="24" fill="rgb(96,194,162)" stroke="rgb(76,155,129)" stroke-width="1" opacity="0.75" />
			</g>
			<g>
				<title>MOSC_N (PF03476)
"MOSC N-terminal beta barrel domain"</title>
				<polygon class="PF03476" points="280,28 280,28 291,28 291,52 280,52 280,52" stroke-linejoin="round" width="11" height="24" fill="rgb(209,103,209)" stroke="rgb(167,82,167)" stroke-width="1" opacity="0.75" />
			</g>
		</g>
		<g>
			<title> (ctg136_10)</title>
			<polygon class=" (ctg136_10)" points="333,25 321,25 321,10 291,40 321,70 321,55 333,55" fill="rgb(255,255,255)" fill-opacity="1.0" stroke="rgb(0,0,0)" stroke-width="2"  />
			<g>
				<title>Glycos_transf_1 (PF00534)
"Glycosyl transferases group 1"</title>
				<polygon class="PF00534" points="295,40 307,28 312,28 312,52 307,52" stroke-linejoin="round" width="19" height="24" fill="rgb(228,92,150)" stroke="rgb(182,73,119)" stroke-width="1" opacity="0.75" />
			</g>
		</g>
		<g>
			<title> (ctg136_11)</title>
			<polygon class=" (ctg136_11)" points="339,25 348,25 348,10 378,40 348,70 348,55 339,55" fill="rgb(255,255,255)" fill-opacity="1.0" stroke="rgb(0,0,0)" stroke-width="2"  />
		</g>
		<g>
			<title> (ctg136_12)</title>
			<polygon class=" (ctg136_12)" points="393,10 398,40 393,70" fill="rgb(255,255,255)" fill-opacity="1.0" stroke="rgb(0,0,0)" stroke-width="2"  />
		</g>
		<g>
			<title> (ctg136_13)</title>
			<polygon class=" (ctg136_13)" points="437,25 429,25 429,10 399,40 429,70 429,55 437,55" fill="rgb(255,255,255)" fill-opacity="1.0" stroke="rgb(0,0,0)" stroke-width="2"  />
			<g>
				<title>Amidase (PF01425)
"Amidase"</title>
				<polygon class="PF01425" points="403,40 415,28 434,28 434,52 415,52" stroke-linejoin="round" width="35" height="24" fill="rgb(195,142,64)" stroke="rgb(156,113,51)" stroke-width="1" opacity="0.75" />
			</g>
		</g>
		<g>
			<title> (ctg136_14)</title>
			<polygon class=" (ctg136_14)" points="437,40 442,10 442,70" fill="rgb(255,255,255)" fill-opacity="1.0" stroke="rgb(0,0,0)" stroke-width="2"  />
			<g>
				<title>DUF4089 (PF13318)
"Protein of unknown function (DUF4089)"</title>
				<polygon class="PF13318" points="440,40 441,35 441,45" stroke-linejoin="round" width="4" height="24" fill="rgb(94,206,139)" stroke="rgb(75,164,111)" stroke-width="1" opacity="0.75" />
			</g>
		</g>
	</g>
</svg>
