<svg version="1.1" baseProfile="full" xmlns="http://www.w3.org/2000/svg" width="1180.1333333333334" height="80">
	<g>
		<line x1="10" y1="40.0" x2="1170.1333333333334" y2="40.0" style="stroke:rgb(70,70,70); stroke-width:3 "/>
		<g>
			<title> (ctg120_1)</title>
			<polygon class=" (ctg120_1)" points="13,10 24,40 13,70" fill="rgb(255,255,255)" fill-opacity="1.0" stroke="rgb(0,0,0)" stroke-width="2"  />
		</g>
		<g>
			<title> (ctg120_2)</title>
			<polygon class=" (ctg120_2)" points="41,25 55,25 55,10 85,40 55,70 55,55 41,55" fill="rgb(255,255,255)" fill-opacity="1.0" stroke="rgb(0,0,0)" stroke-width="2"  />
			<g>
				<title>AAA_35 (PF14516)
"AAA-like domain"</title>
				<polygon class="PF14516" points="51,28 69,28 81,40 69,52 51,52" stroke-linejoin="round" width="33" height="24" fill="rgb(134,192,86)" stroke="rgb(107,153,68)" stroke-width="1" opacity="0.75" />
			</g>
		</g>
		<g>
			<title> (ctg120_3)</title>
			<polygon class=" (ctg120_3)" points="135,25 129,25 129,10 99,40 129,70 129,55 135,55" fill="rgb(255,255,255)" fill-opacity="1.0" stroke="rgb(0,0,0)" stroke-width="2"  />
			<g>
				<title>WD40 (PF00400)
"WD domain, G-beta repeat"</title>
				<polygon class="PF00400" points="103,40 103,40 103,40" stroke-linejoin="round" width="3" height="24" fill="rgb(190,108,62)" stroke="rgb(152,86,49)" stroke-width="1" opacity="0.75" />
			</g>
			<g>
				<title>WD40 (PF00400)
"WD domain, G-beta repeat"</title>
				<polygon class="PF00400" points="104,39 107,36 107,44 104,41" stroke-linejoin="round" width="3" height="24" fill="rgb(190,108,62)" stroke="rgb(152,86,49)" stroke-width="1" opacity="0.75" />
			</g>
			<g>
				<title>WD40 (PF00400)
"WD domain, G-beta repeat"</title>
				<polygon class="PF00400" points="108,35 112,31 112,49 108,45" stroke-linejoin="round" width="4" height="24" fill="rgb(190,108,62)" stroke="rgb(152,86,49)" stroke-width="1" opacity="0.75" />
			</g>
			<g>
				<title>WD40 (PF00400)
"WD domain, G-beta repeat"</title>
				<polygon class="PF00400" points="112,31 115,28 116,28 116,52 115,52 112,49" stroke-linejoin="round" width="4" height="24" fill="rgb(190,108,62)" stroke="rgb(152,86,49)" stroke-width="1" opacity="0.75" />
			</g>
			<g>
				<title>WD40 (PF00400)
"WD domain, G-beta repeat"</title>
				<rect class="PF00400" x="117" y="28" stroke-linejoin="round" width="3" height="24" fill="rgb(190,108,62)" stroke="rgb(152,86,49)" stroke-width="1" opacity="0.75" />
			</g>
			<g>
				<title>WD40 (PF00400)
"WD domain, G-beta repeat"</title>
				<rect class="PF00400" x="121" y="28" stroke-linejoin="round" width="3" height="24" fill="rgb(190,108,62)" stroke="rgb(152,86,49)" stroke-width="1" opacity="0.75" />
			</g>
			<g>
				<title>WD40 (PF00400)
"WD domain, G-beta repeat"</title>
				<rect class="PF00400" x="131" y="28" stroke-linejoin="round" width="3" height="24" fill="rgb(190,108,62)" stroke="rgb(152,86,49)" stroke-width="1" opacity="0.75" />
			</g>
		</g>
		<g>
			<title> (ctg120_4)</title>
			<polygon class=" (ctg120_4)" points="149,25 156,25 156,10 186,40 156,70 156,55 149,55" fill="rgb(255,255,255)" fill-opacity="1.0" stroke="rgb(0,0,0)" stroke-width="2"  />
			<g>
				<title>Glyco_transf_4 (PF13439)
"Glycosyltransferase Family 4"</title>
				<rect class="PF13439" x="150" y="28" stroke-linejoin="round" width="16" height="24" fill="rgb(162,57,186)" stroke="rgb(129,45,148)" stroke-width="1" opacity="0.75" />
			</g>
			<g>
				<title>Glycos_transf_1 (PF00534)
"Glycosyl transferases group 1"</title>
				<polygon class="PF00534" points="168,28 170,28 182,40 170,52 168,52" stroke-linejoin="round" width="16" height="24" fill="rgb(228,92,150)" stroke="rgb(182,73,119)" stroke-width="1" opacity="0.75" />
			</g>
		</g>
		<g>
			<title> (ctg120_5)</title>
			<polygon class=" (ctg120_5)" points="193,25 198,25 198,10 228,40 198,70 198,55 193,55" fill="rgb(255,255,255)" fill-opacity="1.0" stroke="rgb(0,0,0)" stroke-width="2"  />
			<g>
				<title>Glyco_transf_4 (PF13439)
"Glycosyltransferase Family 4"</title>
				<rect class="PF13439" x="194" y="28" stroke-linejoin="round" width="15" height="24" fill="rgb(162,57,186)" stroke="rgb(129,45,148)" stroke-width="1" opacity="0.75" />
			</g>
			<g>
				<title>Glycos_transf_1 (PF00534)
"Glycosyl transferases group 1"</title>
				<polygon class="PF00534" points="209,28 212,28 224,40 212,52 209,52" stroke-linejoin="round" width="16" height="24" fill="rgb(228,92,150)" stroke="rgb(182,73,119)" stroke-width="1" opacity="0.75" />
			</g>
		</g>
		<g>
			<title> (ctg120_6)</title>
			<polygon class=" (ctg120_6)" points="264,25 263,25 263,10 233,40 263,70 263,55 264,55" fill="rgb(255,255,255)" fill-opacity="1.0" stroke="rgb(0,0,0)" stroke-width="2"  />
			<g>
				<title>N6_N4_Mtase (PF01555)
"DNA methylase"</title>
				<polygon class="PF01555" points="237,40 249,28 260,28 260,52 249,52 237,40" stroke-linejoin="round" width="23" height="24" fill="rgb(54,198,162)" stroke="rgb(43,158,129)" stroke-width="1" opacity="0.75" />
			</g>
		</g>
		<g>
			<title> (ctg120_7)</title>
			<polygon class=" (ctg120_7)" points="272,40 298,10 298,70" fill="rgb(255,255,255)" fill-opacity="1.0" stroke="rgb(0,0,0)" stroke-width="2"  />
			<g>
				<title>Lactamase_B_3 (PF13483)
"Beta-lactamase superfamily domain"</title>
				<polygon class="PF13483" points="277,39 286,28 297,28 297,52 286,52 277,41" stroke-linejoin="round" width="20" height="24" fill="rgb(89,224,69)" stroke="rgb(71,179,55)" stroke-width="1" opacity="0.75" />
			</g>
		</g>
		<g>
			<title> (ctg120_8)</title>
			<polygon class=" (ctg120_8)" points="315,25 332,25 332,10 362,40 332,70 332,55 315,55" fill="rgb(255,255,255)" fill-opacity="1.0" stroke="rgb(0,0,0)" stroke-width="2"  />
			<g>
				<title>NAD_binding_2 (PF03446)
"NAD binding domain of 6-phosphogluconate dehydrogenase"</title>
				<rect class="PF03446" x="315" y="28" stroke-linejoin="round" width="17" height="24" fill="rgb(205,164,98)" stroke="rgb(164,131,78)" stroke-width="1" opacity="0.75" />
			</g>
			<g>
				<title>6PGD (PF00393)
"6-phosphogluconate dehydrogenase, C-terminal domain"</title>
				<polygon class="PF00393" points="333,28 346,28 358,40 346,52 333,52" stroke-linejoin="round" width="29" height="24" fill="rgb(57,119,210)" stroke="rgb(45,95,168)" stroke-width="1" opacity="0.75" />
			</g>
		</g>
		<g>
			<title> (ctg120_9)</title>
			<polygon class=" (ctg120_9)" points="427,25 401,25 401,10 371,40 401,70 401,55 427,55" fill="rgb(255,255,255)" fill-opacity="1.0" stroke="rgb(0,0,0)" stroke-width="2"  />
			<g>
				<title>GUN4 (PF05419)
"GUN4-like"</title>
				<polygon class="PF05419" points="375,40 387,28 389,28 389,52 387,52 375,40" stroke-linejoin="round" width="14" height="24" fill="rgb(207,86,195)" stroke="rgb(165,68,156)" stroke-width="1" opacity="0.75" />
			</g>
		</g>
		<g>
			<title> (ctg120_10)</title>
			<polygon class=" (ctg120_10)" points="430,40 444,10 444,70" fill="rgb(255,255,255)" fill-opacity="1.0" stroke="rgb(0,0,0)" stroke-width="2"  />
		</g>
		<g>
			<title> (ctg120_11)</title>
			<polygon class=" (ctg120_11)" points="512,25 476,25 476,10 446,40 476,70 476,55 512,55" fill="rgb(255,255,255)" fill-opacity="1.0" stroke="rgb(0,0,0)" stroke-width="2"  />
			<g>
				<title>DUF2235 (PF09994)
"Uncharacterized alpha/beta hydrolase domain (DUF2235)"</title>
				<polygon class="PF09994" points="454,36 462,28 481,28 481,52 462,52 454,44" stroke-linejoin="round" width="27" height="24" fill="rgb(67,224,147)" stroke="rgb(53,179,117)" stroke-width="1" opacity="0.75" />
			</g>
			<g>
				<title>Laminin_G_3 (PF13385)
"Concanavalin A-like lectin/glucanases superfamily"</title>
				<rect class="PF13385" x="495" y="28" stroke-linejoin="round" width="15" height="24" fill="rgb(93,162,213)" stroke="rgb(74,129,170)" stroke-width="1" opacity="0.75" />
			</g>
		</g>
		<g>
			<title> (ctg120_12)</title>
			<polygon class=" (ctg120_12)" points="564,25 555,25 555,10 525,40 555,70 555,55 564,55" fill="rgb(255,255,255)" fill-opacity="1.0" stroke="rgb(0,0,0)" stroke-width="2"  />
			<g>
				<title>DUF6014 (PF19477)
"Family of unknown function (DUF6014)"</title>
				<polygon class="PF19477" points="529,40 541,28 563,28 563,52 541,52" stroke-linejoin="round" width="38" height="24" fill="rgb(198,112,85)" stroke="rgb(158,89,68)" stroke-width="1" opacity="0.75" />
			</g>
		</g>
		<g>
			<title> (ctg120_13)</title>
			<polygon class=" (ctg120_13)" points="630,25 596,25 596,10 566,40 596,70 596,55 630,55" fill="rgb(255,255,255)" fill-opacity="1.0" stroke="rgb(0,0,0)" stroke-width="2"  />
			<g>
				<title>ABC_tran (PF00005)
"ABC transporter"</title>
				<polygon class="PF00005" points="582,28 582,28 595,28 595,52 582,52 582,52" stroke-linejoin="round" width="13" height="24" fill="rgb(129,201,63)" stroke="rgb(103,160,50)" stroke-width="1" opacity="0.75" />
			</g>
			<g>
				<title>ABC_membrane_2 (PF06472)
"ABC transporter transmembrane region 2"</title>
				<rect class="PF06472" x="604" y="28" stroke-linejoin="round" width="25" height="24" fill="rgb(120,179,45)" stroke="rgb(96,143,36)" stroke-width="1" opacity="0.75" />
			</g>
		</g>
		<g>
			<title> (ctg120_14)</title>
			<polygon class=" (ctg120_14)" points="650,10 671,40 650,70" fill="rgb(255,255,255)" fill-opacity="1.0" stroke="rgb(0,0,0)" stroke-width="2"  />
			<g>
				<title>Sulfotransfer_2 (PF03567)
"Sulfotransferase family"</title>
				<polygon class="PF03567" points="653,28 659,28 668,40 659,52 653,52" stroke-linejoin="round" width="18" height="24" fill="rgb(192,80,119)" stroke="rgb(153,64,95)" stroke-width="1" opacity="0.75" />
			</g>
		</g>
		<g>
			<title> (ctg120_15)</title>
			<polygon class=" (ctg120_15)" points="675,25 858,25 858,10 888,40 858,70 858,55 675,55" fill="rgb(255,255,255)" fill-opacity="1.0" stroke="rgb(0,0,0)" stroke-width="2"  />
			<g>
				<title>PP-binding (PF00550)
"Phosphopantetheine attachment site"</title>
				<rect class="PF00550" x="735" y="28" stroke-linejoin="round" width="6" height="24" fill="rgb(103,191,88)" stroke="rgb(82,152,70)" stroke-width="1" opacity="0.75" />
			</g>
			<g>
				<title>Sulfotransfer_3 (PF13469)
"Sulfotransferase family"</title>
				<rect class="PF13469" x="747" y="28" stroke-linejoin="round" width="21" height="24" fill="rgb(59,182,84)" stroke="rgb(47,145,67)" stroke-width="1" opacity="0.75" />
			</g>
			<g>
				<title>Condensation (PF00668)
"Condensation domain"</title>
				<rect class="PF00668" x="777" y="28" stroke-linejoin="round" width="45" height="24" fill="rgb(224,184,98)" stroke="rgb(179,147,78)" stroke-width="1" opacity="0.75" />
			</g>
			<g>
				<title>AMP-binding (PF00501)
"AMP-binding enzyme"</title>
				<rect class="PF00501" x="825" y="28" stroke-linejoin="round" width="43" height="24" fill="rgb(60,217,223)" stroke="rgb(48,173,178)" stroke-width="1" opacity="0.75" />
			</g>
			<g>
				<title>AMP-binding_C (PF13193)
"AMP-binding enzyme C-terminal domain"</title>
				<polygon class="PF13193" points="869,28 872,28 876,32 876,48 872,52 869,52" stroke-linejoin="round" width="7" height="24" fill="rgb(182,50,118)" stroke="rgb(145,39,94)" stroke-width="1" opacity="0.75" />
			</g>
			<g>
				<title>PP-binding (PF00550)
"Phosphopantetheine attachment site"</title>
				<polygon class="PF00550" points="879,35 884,40 879,45" stroke-linejoin="round" width="6" height="24" fill="rgb(103,191,88)" stroke="rgb(82,152,70)" stroke-width="1" opacity="0.75" />
			</g>
		</g>
		<g>
			<title> (ctg120_16)</title>
			<polygon class=" (ctg120_16)" points="888,25 1139,25 1139,10 1169,40 1139,70 1139,55 888,55" fill="rgb(255,255,255)" fill-opacity="1.0" stroke="rgb(0,0,0)" stroke-width="2"  />
			<g>
				<title>Condensation (PF00668)
"Condensation domain"</title>
				<rect class="PF00668" x="888" y="28" stroke-linejoin="round" width="44" height="24" fill="rgb(224,184,98)" stroke="rgb(179,147,78)" stroke-width="1" opacity="0.75" />
			</g>
			<g>
				<title>AMP-binding (PF00501)
"AMP-binding enzyme"</title>
				<rect class="PF00501" x="935" y="28" stroke-linejoin="round" width="41" height="24" fill="rgb(60,217,223)" stroke="rgb(48,173,178)" stroke-width="1" opacity="0.75" />
			</g>
			<g>
				<title>AMP-binding_C (PF13193)
"AMP-binding enzyme C-terminal domain"</title>
				<rect class="PF13193" x="977" y="28" stroke-linejoin="round" width="8" height="24" fill="rgb(182,50,118)" stroke="rgb(145,39,94)" stroke-width="1" opacity="0.75" />
			</g>
			<g>
				<title>PP-binding (PF00550)
"Phosphopantetheine attachment site"</title>
				<rect class="PF00550" x="988" y="28" stroke-linejoin="round" width="6" height="24" fill="rgb(103,191,88)" stroke="rgb(82,152,70)" stroke-width="1" opacity="0.75" />
			</g>
			<g>
				<title>Condensation (PF00668)
"Condensation domain"</title>
				<rect class="PF00668" x="996" y="28" stroke-linejoin="round" width="44" height="24" fill="rgb(224,184,98)" stroke="rgb(179,147,78)" stroke-width="1" opacity="0.75" />
			</g>
			<g>
				<title>AMP-binding (PF00501)
"AMP-binding enzyme"</title>
				<rect class="PF00501" x="1043" y="28" stroke-linejoin="round" width="40" height="24" fill="rgb(60,217,223)" stroke="rgb(48,173,178)" stroke-width="1" opacity="0.75" />
			</g>
			<g>
				<title>AMP-binding_C (PF13193)
"AMP-binding enzyme C-terminal domain"</title>
				<rect class="PF13193" x="1085" y="28" stroke-linejoin="round" width="7" height="24" fill="rgb(182,50,118)" stroke="rgb(145,39,94)" stroke-width="1" opacity="0.75" />
			</g>
			<g>
				<title>PP-binding (PF00550)
"Phosphopantetheine attachment site"</title>
				<rect class="PF00550" x="1095" y="28" stroke-linejoin="round" width="6" height="24" fill="rgb(103,191,88)" stroke="rgb(82,152,70)" stroke-width="1" opacity="0.75" />
			</g>
			<g>
				<title>Condensation (PF00668)
"Condensation domain"</title>
				<rect class="PF00668" x="1103" y="28" stroke-linejoin="round" width="44" height="24" fill="rgb(224,184,98)" stroke="rgb(179,147,78)" stroke-width="1" opacity="0.75" />
			</g>
			<g>
				<title>AMP-binding (PF00501)
"AMP-binding enzyme"</title>
				<polygon class="PF00501" points="1150,28 1153,28 1165,40 1153,52 1150,52" stroke-linejoin="round" width="18" height="24" fill="rgb(60,217,223)" stroke="rgb(48,173,178)" stroke-width="1" opacity="0.75" />
			</g>
		</g>
	</g>
</svg>
