<svg version="1.1" baseProfile="full" xmlns="http://www.w3.org/2000/svg" width="151.13333333333333" height="80">
	<g>
		<line x1="10" y1="40.0" x2="141.13333333333333" y2="40.0" style="stroke:rgb(70,70,70); stroke-width:3 "/>
		<g>
			<title> (ctg1180_1)</title>
			<polygon class=" (ctg1180_1)" points="112,25 40,25 40,10 10,40 40,70 40,55 112,55" fill="rgb(255,255,255)" fill-opacity="1.0" stroke="rgb(0,0,0)" stroke-width="2"  />
			<g>
				<title>Condensation (PF00668)
"Condensation domain"</title>
				<polygon class="PF00668" points="14,40 26,28 50,28 50,52 26,52" stroke-linejoin="round" width="39" height="24" fill="rgb(224,184,98)" stroke="rgb(179,147,78)" stroke-width="1" opacity="0.75" />
			</g>
			<g>
				<title>PP-binding (PF00550)
"Phosphopantetheine attachment site"</title>
				<rect class="PF00550" x="53" y="28" stroke-linejoin="round" width="6" height="24" fill="rgb(103,191,88)" stroke="rgb(82,152,70)" stroke-width="1" opacity="0.75" />
			</g>
			<g>
				<title>AMP-binding_C (PF13193)
"AMP-binding enzyme C-terminal domain"</title>
				<rect class="PF13193" x="62" y="28" stroke-linejoin="round" width="7" height="24" fill="rgb(182,50,118)" stroke="rgb(145,39,94)" stroke-width="1" opacity="0.75" />
			</g>
			<g>
				<title>AMP-binding (PF00501)
"AMP-binding enzyme"</title>
				<rect class="PF00501" x="70" y="28" stroke-linejoin="round" width="40" height="24" fill="rgb(60,217,223)" stroke="rgb(48,173,178)" stroke-width="1" opacity="0.75" />
			</g>
		</g>
		<g>
			<title> (ctg1180_2)</title>
			<polygon class=" (ctg1180_2)" points="129,10 141,40 129,70" fill="rgb(255,255,255)" fill-opacity="1.0" stroke="rgb(0,0,0)" stroke-width="2"  />
			<g>
				<title>HMGL-like (PF00682)
"HMGL-like"</title>
				<polygon class="PF00682" points="129,28 132,28 137,40 132,52 129,52" stroke-linejoin="round" width="11" height="24" fill="rgb(84,228,141)" stroke="rgb(67,182,112)" stroke-width="1" opacity="0.75" />
			</g>
		</g>
	</g>
</svg>
