<svg version="1.1" baseProfile="full" xmlns="http://www.w3.org/2000/svg" width="489.3333333333333" height="80">
	<g>
		<line x1="10" y1="40.0" x2="479.3333333333333" y2="40.0" style="stroke:rgb(70,70,70); stroke-width:3 "/>
		<g>
			<title> (ctg89_1)</title>
			<polygon class=" (ctg89_1)" points="16,25 98,25 98,10 128,40 98,70 98,55 16,55" fill="rgb(255,255,255)" fill-opacity="1.0" stroke="rgb(0,0,0)" stroke-width="2"  />
			<g>
				<title>ketoacyl-synt (PF00109)
"Beta-ketoacyl synthase, N-terminal domain"</title>
				<rect class="PF00109" x="16" y="28" stroke-linejoin="round" width="23" height="24" fill="rgb(112,116,228)" stroke="rgb(89,92,182)" stroke-width="1" opacity="0.75" />
			</g>
			<g>
				<title>Ketoacyl-synt_C (PF02801)
"Beta-ketoacyl synthase, C-terminal domain"</title>
				<rect class="PF02801" x="40" y="28" stroke-linejoin="round" width="11" height="24" fill="rgb(215,78,102)" stroke="rgb(172,62,81)" stroke-width="1" opacity="0.75" />
			</g>
			<g>
				<title>KAsynt_C_assoc (PF16197)
"Ketoacyl-synthetase C-terminal extension"</title>
				<rect class="PF16197" x="52" y="28" stroke-linejoin="round" width="11" height="24" fill="rgb(240,150,172)" stroke="rgb(192,120,137)" stroke-width="1" opacity="0.75" />
			</g>
			<g>
				<title>PP-binding (PF00550)
"Phosphopantetheine attachment site"</title>
				<rect class="PF00550" x="95" y="28" stroke-linejoin="round" width="6" height="24" fill="rgb(103,191,88)" stroke="rgb(82,152,70)" stroke-width="1" opacity="0.75" />
			</g>
			<g>
				<title>Thioesterase (PF00975)
"Thioesterase domain"</title>
				<polygon class="PF00975" points="104,28 111,28 123,40 111,52 104,52" stroke-linejoin="round" width="22" height="24" fill="rgb(207,80,138)" stroke="rgb(165,63,110)" stroke-width="1" opacity="0.75" />
			</g>
		</g>
		<g>
			<title> (ctg89_2)</title>
			<polygon class=" (ctg89_2)" points="131,25 131,25 131,10 161,40 131,70 131,55 131,55" fill="rgb(255,255,255)" fill-opacity="1.0" stroke="rgb(0,0,0)" stroke-width="2"  />
		</g>
		<g>
			<title> (ctg89_3)</title>
			<polygon class=" (ctg89_3)" points="173,10 186,40 173,70" fill="rgb(255,255,255)" fill-opacity="1.0" stroke="rgb(0,0,0)" stroke-width="2"  />
		</g>
		<g>
			<title> (ctg89_4)</title>
			<polygon class=" (ctg89_4)" points="189,25 209,25 209,10 239,40 209,70 209,55 189,55" fill="rgb(255,255,255)" fill-opacity="1.0" stroke="rgb(0,0,0)" stroke-width="2"  />
			<g>
				<title>AAA (PF00004)
"ATPase family associated with various cellular activities (AAA)"</title>
				<polygon class="PF00004" points="215,28 223,28 228,33 228,47 223,52 215,52" stroke-linejoin="round" width="13" height="24" fill="rgb(57,194,204)" stroke="rgb(45,155,163)" stroke-width="1" opacity="0.75" />
			</g>
		</g>
		<g>
			<title> (ctg89_5)</title>
			<polygon class=" (ctg89_5)" points="244,10 255,40 244,70" fill="rgb(255,255,255)" fill-opacity="1.0" stroke="rgb(0,0,0)" stroke-width="2"  />
			<g>
				<title>DUF1257 (PF06868)
"Protein of unknown function (DUF1257)"</title>
				<polygon class="PF06868" points="246,28 247,28 252,40 247,52 246,52" stroke-linejoin="round" width="9" height="24" fill="rgb(53,211,155)" stroke="rgb(42,168,124)" stroke-width="1" opacity="0.75" />
			</g>
		</g>
		<g>
			<title> (ctg89_6)</title>
			<polygon class=" (ctg89_6)" points="259,10 280,40 259,70" fill="rgb(255,255,255)" fill-opacity="1.0" stroke="rgb(0,0,0)" stroke-width="2"  />
			<g>
				<title>Methyltransf_11 (PF08241)
"Methyltransferase domain"</title>
				<polygon class="PF08241" points="266,28 268,28 273,35 273,45 268,52 266,52" stroke-linejoin="round" width="7" height="24" fill="rgb(106,219,159)" stroke="rgb(84,175,127)" stroke-width="1" opacity="0.75" />
			</g>
		</g>
		<g>
			<title> (ctg89_7)</title>
			<polygon class=" (ctg89_7)" points="342,25 319,25 319,10 289,40 319,70 319,55 342,55" fill="rgb(255,255,255)" fill-opacity="1.0" stroke="rgb(0,0,0)" stroke-width="2"  />
			<g>
				<title>Anticodon_2 (PF19269)
"Anticodon binding domain"</title>
				<polygon class="PF19269" points="293,40 303,30 303,50" stroke-linejoin="round" width="13" height="24" fill="rgb(191,148,69)" stroke="rgb(152,118,55)" stroke-width="1" opacity="0.75" />
			</g>
			<g>
				<title>tRNA-synt_1f (PF01921)
"tRNA synthetases class I (K)"</title>
				<rect class="PF01921" x="307" y="28" stroke-linejoin="round" width="35" height="24" fill="rgb(59,200,51)" stroke="rgb(47,160,40)" stroke-width="1" opacity="0.75" />
			</g>
		</g>
		<g>
			<title> (ctg89_8)</title>
			<polygon class=" (ctg89_8)" points="375,40 401,10 401,70" fill="rgb(255,255,255)" fill-opacity="1.0" stroke="rgb(0,0,0)" stroke-width="2"  />
			<g>
				<title>HNH_2 (PF13391)
"HNH endonuclease"</title>
				<polygon class="PF13391" points="380,39 385,33 385,47 380,41" stroke-linejoin="round" width="5" height="24" fill="rgb(150,101,220)" stroke="rgb(120,80,176)" stroke-width="1" opacity="0.75" />
			</g>
		</g>
		<g>
			<title> (ctg89_9)</title>
			<polygon class=" (ctg89_9)" points="438,25 432,25 432,10 402,40 432,70 432,55 438,55" fill="rgb(255,255,255)" fill-opacity="1.0" stroke="rgb(0,0,0)" stroke-width="2"  />
			<g>
				<title>AlaDh_PNT_C (PF01262)
"Alanine dehydrogenase/PNT, C-terminal domain"</title>
				<polygon class="PF01262" points="406,40 418,28 424,28 424,52 418,52" stroke-linejoin="round" width="21" height="24" fill="rgb(96,211,180)" stroke="rgb(76,168,144)" stroke-width="1" opacity="0.75" />
			</g>
			<g>
				<title>AlaDh_PNT_N (PF05222)
"Alanine dehydrogenase/PNT, N-terminal domain"</title>
				<rect class="PF05222" x="424" y="28" stroke-linejoin="round" width="13" height="24" fill="rgb(60,217,133)" stroke="rgb(47,173,106)" stroke-width="1" opacity="0.75" />
			</g>
		</g>
		<g>
			<title> (ctg89_10)</title>
			<polygon class=" (ctg89_10)" points="446,40 456,10 456,70" fill="rgb(255,255,255)" fill-opacity="1.0" stroke="rgb(0,0,0)" stroke-width="2"  />
			<g>
				<title>DUF3181 (PF11378)
"Protein of unknown function (DUF3181)"</title>
				<polygon class="PF11378" points="449,40 453,28 454,28 454,52 453,52" stroke-linejoin="round" width="8" height="24" fill="rgb(220,135,102)" stroke="rgb(176,108,81)" stroke-width="1" opacity="0.75" />
			</g>
		</g>
		<g>
			<title> (ctg89_11)</title>
			<polygon class=" (ctg89_11)" points="456,40 464,10 464,70" fill="rgb(255,255,255)" fill-opacity="1.0" stroke="rgb(0,0,0)" stroke-width="2"  />
		</g>
		<g>
			<title> (ctg89_12)</title>
			<polygon class=" (ctg89_12)" points="474,40 478,10 478,70" fill="rgb(255,255,255)" fill-opacity="1.0" stroke="rgb(0,0,0)" stroke-width="2"  />
		</g>
	</g>
</svg>
