<svg version="1.1" baseProfile="full" xmlns="http://www.w3.org/2000/svg" width="246.16666666666666" height="80">
	<g>
		<line x1="10" y1="40.0" x2="236.16666666666666" y2="40.0" style="stroke:rgb(70,70,70); stroke-width:3 "/>
		<g>
			<title> (ctg342_14)</title>
			<polygon class=" (ctg342_14)" points="21,25 47,25 47,10 77,40 47,70 47,55 21,55" fill="rgb(255,255,255)" fill-opacity="1.0" stroke="rgb(0,0,0)" stroke-width="2"  />
			<g>
				<title>PMT_2 (PF13231)
"Dolichyl-phosphate-mannose-protein mannosyltransferase"</title>
				<rect class="PF13231" x="31" y="28" stroke-linejoin="round" width="17" height="24" fill="rgb(149,96,194)" stroke="rgb(119,76,155)" stroke-width="1" opacity="0.75" />
			</g>
		</g>
		<g>
			<title> (ctg342_15)</title>
			<polygon class=" (ctg342_15)" points="77,10 84,40 77,70" fill="rgb(255,255,255)" fill-opacity="1.0" stroke="rgb(0,0,0)" stroke-width="2"  />
		</g>
		<g>
			<title> (ctg342_16)</title>
			<polygon class=" (ctg342_16)" points="92,10 103,40 92,70" fill="rgb(255,255,255)" fill-opacity="1.0" stroke="rgb(0,0,0)" stroke-width="2"  />
			<g>
				<title>DDE_Tnp_1_3 (PF13612)
"Transposase DDE domain"</title>
				<polygon class="PF13612" points="98,34 100,40 98,46" stroke-linejoin="round" width="4" height="24" fill="rgb(205,75,164)" stroke="rgb(164,60,131)" stroke-width="1" opacity="0.75" />
			</g>
		</g>
		<g>
			<title> (ctg342_17)</title>
			<polygon class=" (ctg342_17)" points="116,40 122,10 122,70" fill="rgb(255,255,255)" fill-opacity="1.0" stroke="rgb(0,0,0)" stroke-width="2"  />
			<g>
				<title>HTH_29 (PF13551)
"Winged helix-turn helix"</title>
				<polygon class="PF13551" points="119,40 121,28 121,28 121,52 121,52" stroke-linejoin="round" width="4" height="24" fill="rgb(163,71,225)" stroke="rgb(130,56,180)" stroke-width="1" opacity="0.75" />
			</g>
		</g>
		<g>
			<title> (ctg342_18)</title>
			<polygon class=" (ctg342_18)" points="150,10 175,40 150,70" fill="rgb(255,255,255)" fill-opacity="1.0" stroke="rgb(0,0,0)" stroke-width="2"  />
		</g>
		<g>
			<title> (ctg342_19)</title>
			<polygon class=" (ctg342_19)" points="176,25 194,25 194,10 224,40 194,70 194,55 176,55" fill="rgb(255,255,255)" fill-opacity="1.0" stroke="rgb(0,0,0)" stroke-width="2"  />
			<g>
				<title>DUF692 (PF05114)
"Protein of unknown function (DUF692)"</title>
				<rect class="PF05114" x="176" y="28" stroke-linejoin="round" width="25" height="24" fill="rgb(63,196,127)" stroke="rgb(50,156,101)" stroke-width="1" opacity="0.75" />
			</g>
		</g>
	</g>
</svg>
