<svg version="1.1" baseProfile="full" xmlns="http://www.w3.org/2000/svg" width="533.2333333333333" height="80">
	<g>
		<line x1="10" y1="40.0" x2="523.2333333333333" y2="40.0" style="stroke:rgb(70,70,70); stroke-width:3 "/>
		<g>
			<title> (ctg26_23)</title>
			<polygon class=" (ctg26_23)" points="38,10 52,40 38,70" fill="rgb(255,255,255)" fill-opacity="1.0" stroke="rgb(0,0,0)" stroke-width="2"  />
		</g>
		<g>
			<title> (ctg26_24)</title>
			<polygon class=" (ctg26_24)" points="52,10 78,40 52,70" fill="rgb(255,255,255)" fill-opacity="1.0" stroke="rgb(0,0,0)" stroke-width="2"  />
		</g>
		<g>
			<title> (ctg26_25)</title>
			<polygon class=" (ctg26_25)" points="100,10 113,40 100,70" fill="rgb(255,255,255)" fill-opacity="1.0" stroke="rgb(0,0,0)" stroke-width="2"  />
			<g>
				<title>NTP_transf_2 (PF01909)
"Nucleotidyltransferase domain"</title>
				<polygon class="PF01909" points="103,28 104,28 109,40 104,52 103,52" stroke-linejoin="round" width="9" height="24" fill="rgb(55,187,183)" stroke="rgb(44,149,146)" stroke-width="1" opacity="0.75" />
			</g>
		</g>
		<g>
			<title> (ctg26_26)</title>
			<polygon class=" (ctg26_26)" points="112,10 123,40 112,70" fill="rgb(255,255,255)" fill-opacity="1.0" stroke="rgb(0,0,0)" stroke-width="2"  />
			<g>
				<title>DUF86 (PF01934)
"Protein of unknown function DUF86"</title>
				<polygon class="PF01934" points="113,28 115,28 120,40 115,52 113,52" stroke-linejoin="round" width="9" height="24" fill="rgb(66,222,169)" stroke="rgb(52,177,135)" stroke-width="1" opacity="0.75" />
			</g>
		</g>
		<g>
			<title> (ctg26_27)</title>
			<polygon class=" (ctg26_27)" points="129,10 154,40 129,70" fill="rgb(255,255,255)" fill-opacity="1.0" stroke="rgb(0,0,0)" stroke-width="2"  />
			<g>
				<title>TatC (PF00902)
"Sec-independent protein translocase protein (TatC)"</title>
				<polygon class="PF00902" points="132,28 140,28 150,40 140,52 132,52" stroke-linejoin="round" width="20" height="24" fill="rgb(84,193,209)" stroke="rgb(67,154,167)" stroke-width="1" opacity="0.75" />
			</g>
		</g>
		<g>
			<title> (ctg26_28)</title>
			<polygon class=" (ctg26_28)" points="162,10 172,40 162,70" fill="rgb(255,255,255)" fill-opacity="1.0" stroke="rgb(0,0,0)" stroke-width="2"  />
		</g>
		<g>
			<title> (ctg26_29)</title>
			<polygon class=" (ctg26_29)" points="184,25 204,25 204,10 234,40 204,70 204,55 184,55" fill="rgb(255,255,255)" fill-opacity="1.0" stroke="rgb(0,0,0)" stroke-width="2"  />
			<g>
				<title>PSII (PF00421)
"Photosystem II protein"</title>
				<polygon class="PF00421" points="184,28 218,28 230,40 218,52 184,52" stroke-linejoin="round" width="49" height="24" fill="rgb(183,68,103)" stroke="rgb(146,54,82)" stroke-width="1" opacity="0.75" />
			</g>
		</g>
		<g>
			<title> (ctg26_30)</title>
			<polygon class=" (ctg26_30)" points="249,40 253,10 253,70" fill="rgb(255,255,255)" fill-opacity="1.0" stroke="rgb(0,0,0)" stroke-width="2"  />
			<g>
				<title>PsbJ (PF01788)
"PsbJ"</title>
				<polygon class="PF01788" points="252,40 252,40 252,40" stroke-linejoin="round" width="3" height="24" fill="rgb(56,185,118)" stroke="rgb(44,148,94)" stroke-width="1" opacity="0.75" />
			</g>
		</g>
		<g>
			<title> (ctg26_31)</title>
			<polygon class=" (ctg26_31)" points="254,40 258,10 258,70" fill="rgb(255,255,255)" fill-opacity="1.0" stroke="rgb(0,0,0)" stroke-width="2"  />
			<g>
				<title>PsbL (PF02419)
"PsbL protein"</title>
				<polygon class="PF02419" points="257,40 257,40 257,40" stroke-linejoin="round" width="3" height="24" fill="rgb(200,88,151)" stroke="rgb(160,70,120)" stroke-width="1" opacity="0.75" />
			</g>
		</g>
		<g>
			<title> (ctg26_32)</title>
			<polygon class=" (ctg26_32)" points="259,40 263,10 263,70" fill="rgb(255,255,255)" fill-opacity="1.0" stroke="rgb(0,0,0)" stroke-width="2"  />
			<g>
				<title>Cytochrom_B559 (PF00283)
"Cytochrome b559, alpha (gene psbE) and beta (gene psbF)subunits"</title>
				<polygon class="PF00283" points="262,40 262,40 262,40" stroke-linejoin="round" width="2" height="24" fill="rgb(69,149,197)" stroke="rgb(55,119,157)" stroke-width="1" opacity="0.75" />
			</g>
		</g>
		<g>
			<title> (ctg26_33)</title>
			<polygon class=" (ctg26_33)" points="264,40 272,10 272,70" fill="rgb(255,255,255)" fill-opacity="1.0" stroke="rgb(0,0,0)" stroke-width="2"  />
			<g>
				<title>Cytochrom_B559a (PF00284)
"Lumenal portion of Cytochrome b559, alpha (gene psbE) subunit"</title>
				<polygon class="PF00284" points="267,40 267,40 267,40" stroke-linejoin="round" width="3" height="24" fill="rgb(87,188,64)" stroke="rgb(69,150,51)" stroke-width="1" opacity="0.75" />
			</g>
			<g>
				<title>Cytochrom_B559 (PF00283)
"Cytochrome b559, alpha (gene psbE) and beta (gene psbF)subunits"</title>
				<polygon class="PF00283" points="268,36 270,28 270,28 270,52 270,52 268,44" stroke-linejoin="round" width="2" height="24" fill="rgb(69,149,197)" stroke="rgb(55,119,157)" stroke-width="1" opacity="0.75" />
			</g>
		</g>
		<g>
			<title> (ctg26_34)</title>
			<polygon class=" (ctg26_34)" points="275,40 294,10 294,70" fill="rgb(255,255,255)" fill-opacity="1.0" stroke="rgb(0,0,0)" stroke-width="2"  />
			<g>
				<title>PSII_BNR (PF14870)
"Photosynthesis system II assembly factor YCF48"</title>
				<polygon class="PF14870" points="279,40 287,28 293,28 293,52 287,52" stroke-linejoin="round" width="18" height="24" fill="rgb(188,81,115)" stroke="rgb(150,64,92)" stroke-width="1" opacity="0.75" />
			</g>
		</g>
		<g>
			<title> (ctg26_35)</title>
			<polygon class=" (ctg26_35)" points="297,10 302,40 297,70" fill="rgb(255,255,255)" fill-opacity="1.0" stroke="rgb(0,0,0)" stroke-width="2"  />
		</g>
		<g>
			<title> (ctg26_36)</title>
			<polygon class=" (ctg26_36)" points="312,40 323,10 323,70" fill="rgb(255,255,255)" fill-opacity="1.0" stroke="rgb(0,0,0)" stroke-width="2"  />
			<g>
				<title>Rubredoxin (PF00301)
"Rubredoxin"</title>
				<polygon class="PF00301" points="317,35 320,28 321,28 321,52 320,52 317,45" stroke-linejoin="round" width="4" height="24" fill="rgb(130,88,185)" stroke="rgb(104,70,148)" stroke-width="1" opacity="0.75" />
			</g>
		</g>
		<g>
			<title> (ctg26_37)</title>
			<polygon class=" (ctg26_37)" points="343,25 389,25 389,10 419,40 389,70 389,55 343,55" fill="rgb(255,255,255)" fill-opacity="1.0" stroke="rgb(0,0,0)" stroke-width="2"  />
			<g>
				<title>YcaO (PF02624)
"YcaO cyclodehydratase, ATP-ad Mg2+-binding"</title>
				<polygon class="PF02624" points="382,28 403,28 415,40 415,40 403,52 382,52" stroke-linejoin="round" width="33" height="24" fill="rgb(76,84,185)" stroke="rgb(60,67,148)" stroke-width="1" opacity="0.75" />
			</g>
		</g>
		<g>
			<title> (ctg26_38)</title>
			<polygon class=" (ctg26_38)" points="421,40 428,10 428,70" fill="rgb(255,255,255)" fill-opacity="1.0" stroke="rgb(0,0,0)" stroke-width="2"  />
			<g>
				<title>HicA_toxin (PF07927)
"HicA toxin of bacterial toxin-antitoxin,"</title>
				<polygon class="PF07927" points="424,40 427,28 427,28 427,52 427,52" stroke-linejoin="round" width="5" height="24" fill="rgb(182,96,204)" stroke="rgb(145,76,163)" stroke-width="1" opacity="0.75" />
			</g>
		</g>
		<g>
			<title> (ctg26_39)</title>
			<polygon class=" (ctg26_39)" points="429,40 436,10 436,70" fill="rgb(255,255,255)" fill-opacity="1.0" stroke="rgb(0,0,0)" stroke-width="2"  />
		</g>
		<g>
			<title> (ctg26_40)</title>
			<polygon class=" (ctg26_40)" points="450,40 453,10 453,70" fill="rgb(255,255,255)" fill-opacity="1.0" stroke="rgb(0,0,0)" stroke-width="2"  />
		</g>
		<g>
			<title> (ctg26_41)</title>
			<polygon class=" (ctg26_41)" points="452,40 462,10 462,70" fill="rgb(255,255,255)" fill-opacity="1.0" stroke="rgb(0,0,0)" stroke-width="2"  />
			<g>
				<title>Thiol_cytolys_C (PF17440)
"Thiol-activated cytolysin beta sandwich domain"</title>
				<polygon class="PF17440" points="455,40 459,28 460,28 460,52 459,52" stroke-linejoin="round" width="8" height="24" fill="rgb(203,193,62)" stroke="rgb(162,154,49)" stroke-width="1" opacity="0.75" />
			</g>
		</g>
		<g>
			<title> (ctg26_42)</title>
			<polygon class=" (ctg26_42)" points="472,10 478,40 472,70" fill="rgb(255,255,255)" fill-opacity="1.0" stroke="rgb(0,0,0)" stroke-width="2"  />
			<g>
				<title>YcaO (PF02624)
"YcaO cyclodehydratase, ATP-ad Mg2+-binding"</title>
				<polygon class="PF02624" points="472,28 472,28 474,34 474,46 472,52 472,52" stroke-linejoin="round" width="2" height="24" fill="rgb(76,84,185)" stroke="rgb(60,67,148)" stroke-width="1" opacity="0.75" />
			</g>
		</g>
		<g>
			<title> (ctg26_43)</title>
			<polygon class=" (ctg26_43)" points="479,40 489,10 489,70" fill="rgb(255,255,255)" fill-opacity="1.0" stroke="rgb(0,0,0)" stroke-width="2"  />
			<g>
				<title>HTH_37 (PF13744)
"Helix-turn-helix domain"</title>
				<polygon class="PF13744" points="482,40 486,28 487,28 487,52 486,52" stroke-linejoin="round" width="8" height="24" fill="rgb(113,218,98)" stroke="rgb(90,174,78)" stroke-width="1" opacity="0.75" />
			</g>
		</g>
		<g>
			<title> (ctg26_44)</title>
			<polygon class=" (ctg26_44)" points="490,40 501,10 501,70" fill="rgb(255,255,255)" fill-opacity="1.0" stroke="rgb(0,0,0)" stroke-width="2"  />
			<g>
				<title>Gp49 (PF05973)
"Phage derived protein Gp49-like (DUF891)"</title>
				<polygon class="PF05973" points="493,40 498,28 499,28 499,52 498,52" stroke-linejoin="round" width="8" height="24" fill="rgb(81,198,58)" stroke="rgb(64,158,46)" stroke-width="1" opacity="0.75" />
			</g>
		</g>
		<g>
			<title> (ctg26_45)</title>
			<polygon class=" (ctg26_45)" points="509,40 517,10 517,70" fill="rgb(255,255,255)" fill-opacity="1.0" stroke="rgb(0,0,0)" stroke-width="2"  />
			<g>
				<title>Acetyltransf_7 (PF13508)
"Acetyltransferase (GNAT) domain"</title>
				<polygon class="PF13508" points="512,40 516,28 517,28 517,52 516,52" stroke-linejoin="round" width="6" height="24" fill="rgb(183,210,60)" stroke="rgb(146,168,48)" stroke-width="1" opacity="0.75" />
			</g>
		</g>
	</g>
</svg>
