<svg version="1.1" baseProfile="full" xmlns="http://www.w3.org/2000/svg" width="1105.5666666666666" height="80">
	<g>
		<line x1="10" y1="40.0" x2="1095.5666666666666" y2="40.0" style="stroke:rgb(70,70,70); stroke-width:3 "/>
		<g>
			<title> (ctg221_3)</title>
			<polygon class=" (ctg221_3)" points="33,40 58,10 58,70" fill="rgb(255,255,255)" fill-opacity="1.0" stroke="rgb(0,0,0)" stroke-width="2"  />
			<g>
				<title>AIRC (PF00731)
"AIR carboxylase"</title>
				<polygon class="PF00731" points="37,40 46,29 46,51" stroke-linejoin="round" width="13" height="24" fill="rgb(73,174,200)" stroke="rgb(58,139,160)" stroke-width="1" opacity="0.75" />
			</g>
		</g>
		<g>
			<title> (ctg221_4)</title>
			<polygon class=" (ctg221_4)" points="123,25 95,25 95,10 65,40 95,70 95,55 123,55" fill="rgb(255,255,255)" fill-opacity="1.0" stroke="rgb(0,0,0)" stroke-width="2"  />
			<g>
				<title>RNase_J_C (PF17770)
"Ribonuclease J C-terminal domain"</title>
				<polygon class="PF17770" points="69,40 77,32 77,48" stroke-linejoin="round" width="10" height="24" fill="rgb(205,78,145)" stroke="rgb(164,62,116)" stroke-width="1" opacity="0.75" />
			</g>
			<g>
				<title>RMMBL (PF07521)
"Zn-dependent metallo-hydrolase RNA specificity domain"</title>
				<polygon class="PF07521" points="81,28 81,28 86,28 86,52 81,52 81,52" stroke-linejoin="round" width="5" height="24" fill="rgb(75,144,204)" stroke="rgb(60,115,163)" stroke-width="1" opacity="0.75" />
			</g>
			<g>
				<title>Lactamase_B (PF00753)
"Metallo-beta-lactamase superfamily"</title>
				<rect class="PF00753" x="99" y="28" stroke-linejoin="round" width="21" height="24" fill="rgb(206,198,96)" stroke="rgb(164,158,76)" stroke-width="1" opacity="0.75" />
			</g>
		</g>
		<g>
			<title> (ctg221_5)</title>
			<polygon class=" (ctg221_5)" points="132,40 160,10 160,70" fill="rgb(255,255,255)" fill-opacity="1.0" stroke="rgb(0,0,0)" stroke-width="2"  />
			<g>
				<title>DHDPS (PF00701)
"Dihydrodipicolinate synthetase family"</title>
				<polygon class="PF00701" points="136,40 147,28 160,28 160,52 147,52" stroke-linejoin="round" width="28" height="24" fill="rgb(80,204,82)" stroke="rgb(64,163,65)" stroke-width="1" opacity="0.75" />
			</g>
		</g>
		<g>
			<title> (ctg221_6)</title>
			<polygon class=" (ctg221_6)" points="210,25 206,25 206,10 176,40 206,70 206,55 210,55" fill="rgb(255,255,255)" fill-opacity="1.0" stroke="rgb(0,0,0)" stroke-width="2"  />
			<g>
				<title>Semialdhyde_dhC (PF02774)
"Semialdehyde dehydrogenase, dimerisation domain"</title>
				<polygon class="PF02774" points="180,40 192,28 196,28 196,52 192,52" stroke-linejoin="round" width="18" height="24" fill="rgb(57,188,185)" stroke="rgb(45,150,147)" stroke-width="1" opacity="0.75" />
			</g>
			<g>
				<title>Semialdhyde_dh (PF01118)
"Semialdehyde dehydrogenase, NAD binding domain"</title>
				<rect class="PF01118" x="198" y="28" stroke-linejoin="round" width="11" height="24" fill="rgb(191,106,221)" stroke="rgb(152,84,176)" stroke-width="1" opacity="0.75" />
			</g>
		</g>
		<g>
			<title> (ctg221_7)</title>
			<polygon class=" (ctg221_7)" points="221,25 237,25 237,10 267,40 237,70 237,55 221,55" fill="rgb(255,255,255)" fill-opacity="1.0" stroke="rgb(0,0,0)" stroke-width="2"  />
			<g>
				<title>Trigger_N (PF05697)
"Bacterial trigger factor protein (TF)"</title>
				<rect class="PF05697" x="221" y="28" stroke-linejoin="round" width="14" height="24" fill="rgb(181,113,81)" stroke="rgb(144,90,64)" stroke-width="1" opacity="0.75" />
			</g>
			<g>
				<title>FKBP_C (PF00254)
"FKBP-type peptidyl-prolyl cis-trans isomerase"</title>
				<rect class="PF00254" x="237" y="28" stroke-linejoin="round" width="8" height="24" fill="rgb(137,65,200)" stroke="rgb(109,51,160)" stroke-width="1" opacity="0.75" />
			</g>
			<g>
				<title>Trigger_C (PF05698)
"Bacterial trigger factor protein (TF) C-terminus"</title>
				<polygon class="PF05698" points="248,28 251,28 263,40 263,40 251,52 248,52" stroke-linejoin="round" width="15" height="24" fill="rgb(173,55,194)" stroke="rgb(138,44,155)" stroke-width="1" opacity="0.75" />
			</g>
		</g>
		<g>
			<title> (ctg221_8)</title>
			<polygon class=" (ctg221_8)" points="288,10 308,40 288,70" fill="rgb(255,255,255)" fill-opacity="1.0" stroke="rgb(0,0,0)" stroke-width="2"  />
			<g>
				<title>CLP_protease (PF00574)
"Clp protease"</title>
				<polygon class="PF00574" points="288,28 296,28 304,40 296,52 288,52" stroke-linejoin="round" width="18" height="24" fill="rgb(196,111,59)" stroke="rgb(156,88,47)" stroke-width="1" opacity="0.75" />
			</g>
		</g>
		<g>
			<title> (ctg221_9)</title>
			<polygon class=" (ctg221_9)" points="309,25 323,25 323,10 353,40 323,70 323,55 309,55" fill="rgb(255,255,255)" fill-opacity="1.0" stroke="rgb(0,0,0)" stroke-width="2"  />
			<g>
				<title>zf-C4_ClpX (PF06689)
"ClpX C4-type zinc finger"</title>
				<rect class="PF06689" x="309" y="28" stroke-linejoin="round" width="3" height="24" fill="rgb(218,113,96)" stroke="rgb(174,90,76)" stroke-width="1" opacity="0.75" />
			</g>
			<g>
				<title>AAA_2 (PF07724)
"AAA domain (Cdc48 subfamily)"</title>
				<polygon class="PF07724" points="322,28 337,28 342,33 342,47 337,52 322,52" stroke-linejoin="round" width="20" height="24" fill="rgb(132,215,72)" stroke="rgb(105,172,57)" stroke-width="1" opacity="0.75" />
			</g>
			<g>
				<title>ClpB_D2-small (PF10431)
"C-terminal, D2-small domain, of ClpB protein"</title>
				<polygon class="PF10431" points="342,33 349,40 342,47" stroke-linejoin="round" width="8" height="24" fill="rgb(190,198,67)" stroke="rgb(152,158,53)" stroke-width="1" opacity="0.75" />
			</g>
		</g>
		<g>
			<title> (ctg221_10)</title>
			<polygon class=" (ctg221_10)" points="354,10 360,40 354,70" fill="rgb(255,255,255)" fill-opacity="1.0" stroke="rgb(0,0,0)" stroke-width="2"  />
		</g>
		<g>
			<title> (ctg221_11)</title>
			<polygon class=" (ctg221_11)" points="360,10 371,40 360,70" fill="rgb(255,255,255)" fill-opacity="1.0" stroke="rgb(0,0,0)" stroke-width="2"  />
			<g>
				<title>PemK_toxin (PF02452)
"PemK-like, MazF-like toxin of type II toxin-antitoxin system"</title>
				<polygon class="PF02452" points="360,28 363,28 367,40 363,52 360,52" stroke-linejoin="round" width="10" height="24" fill="rgb(81,193,221)" stroke="rgb(64,154,176)" stroke-width="1" opacity="0.75" />
			</g>
		</g>
		<g>
			<title> (ctg221_12)</title>
			<polygon class=" (ctg221_12)" points="371,10 400,40 371,70" fill="rgb(255,255,255)" fill-opacity="1.0" stroke="rgb(0,0,0)" stroke-width="2"  />
			<g>
				<title>Abhydrolase_1 (PF00561)
"alpha/beta hydrolase fold"</title>
				<polygon class="PF00561" points="374,28 384,28 396,40 384,52 374,52" stroke-linejoin="round" width="23" height="24" fill="rgb(86,180,151)" stroke="rgb(68,144,120)" stroke-width="1" opacity="0.75" />
			</g>
		</g>
		<g>
			<title> (ctg221_13)</title>
			<polygon class=" (ctg221_13)" points="400,10 407,40 400,70" fill="rgb(255,255,255)" fill-opacity="1.0" stroke="rgb(0,0,0)" stroke-width="2"  />
			<g>
				<title>Rotamase (PF00639)
"PPIC-type PPIASE domain"</title>
				<polygon class="PF00639" points="400,28 400,28 404,40 400,52 400,52" stroke-linejoin="round" width="6" height="24" fill="rgb(179,171,54)" stroke="rgb(143,136,43)" stroke-width="1" opacity="0.75" />
			</g>
		</g>
		<g>
			<title> (ctg221_14)</title>
			<polygon class=" (ctg221_14)" points="427,10 446,40 427,70" fill="rgb(255,255,255)" fill-opacity="1.0" stroke="rgb(0,0,0)" stroke-width="2"  />
			<g>
				<title>HTH_23 (PF13384)
"Homeodomain-like domain"</title>
				<rect class="PF13384" x="430" y="28" stroke-linejoin="round" width="4" height="24" fill="rgb(77,216,116)" stroke="rgb(61,172,92)" stroke-width="1" opacity="0.75" />
			</g>
			<g>
				<title>HTH_33 (PF13592)
"Winged helix-turn helix"</title>
				<polygon class="PF13592" points="439,35 442,40 439,45" stroke-linejoin="round" width="5" height="24" fill="rgb(178,60,202)" stroke="rgb(142,47,161)" stroke-width="1" opacity="0.75" />
			</g>
		</g>
		<g>
			<title> (ctg221_15)</title>
			<polygon class=" (ctg221_15)" points="447,25 508,25 508,10 538,40 508,70 508,55 447,55" fill="rgb(255,255,255)" fill-opacity="1.0" stroke="rgb(0,0,0)" stroke-width="2"  />
			<g>
				<title>Peptidase_C39 (PF03412)
"Peptidase C39 family"</title>
				<rect class="PF03412" x="467" y="28" stroke-linejoin="round" width="12" height="24" fill="rgb(214,226,77)" stroke="rgb(171,180,61)" stroke-width="1" opacity="0.75" />
			</g>
			<g>
				<title>ABC_membrane (PF00664)
"ABC transporter transmembrane region"</title>
				<rect class="PF00664" x="483" y="28" stroke-linejoin="round" width="27" height="24" fill="rgb(149,226,73)" stroke="rgb(119,180,58)" stroke-width="1" opacity="0.75" />
			</g>
			<g>
				<title>ABC_tran (PF00005)
"ABC transporter"</title>
				<polygon class="PF00005" points="516,28 522,28 530,36 530,44 522,52 516,52" stroke-linejoin="round" width="14" height="24" fill="rgb(129,201,63)" stroke="rgb(103,160,50)" stroke-width="1" opacity="0.75" />
			</g>
		</g>
		<g>
			<title> (ctg221_16)</title>
			<polygon class=" (ctg221_16)" points="540,25 566,25 566,10 596,40 566,70 566,55 540,55" fill="rgb(255,255,255)" fill-opacity="1.0" stroke="rgb(0,0,0)" stroke-width="2"  />
			<g>
				<title>Biotin_lipoyl_2 (PF13533)
"Biotin-lipoyl like"</title>
				<rect class="PF13533" x="550" y="28" stroke-linejoin="round" width="6" height="24" fill="rgb(229,122,112)" stroke="rgb(183,97,89)" stroke-width="1" opacity="0.75" />
			</g>
			<g>
				<title>HlyD_3 (PF13437)
"HlyD family secretion protein"</title>
				<polygon class="PF13437" points="581,29 592,40 592,40 581,51" stroke-linejoin="round" width="11" height="24" fill="rgb(82,200,102)" stroke="rgb(65,160,81)" stroke-width="1" opacity="0.75" />
			</g>
		</g>
		<g>
			<title> (ctg221_17)</title>
			<polygon class=" (ctg221_17)" points="598,10 622,40 598,70" fill="rgb(255,255,255)" fill-opacity="1.0" stroke="rgb(0,0,0)" stroke-width="2"  />
			<g>
				<title>Rotamase (PF00639)
"PPIC-type PPIASE domain"</title>
				<polygon class="PF00639" points="610,30 618,39 618,41 610,50" stroke-linejoin="round" width="8" height="24" fill="rgb(179,171,54)" stroke="rgb(143,136,43)" stroke-width="1" opacity="0.75" />
			</g>
		</g>
		<g>
			<title> (ctg221_18)</title>
			<polygon class=" (ctg221_18)" points="627,40 632,10 632,70" fill="rgb(255,255,255)" fill-opacity="1.0" stroke="rgb(0,0,0)" stroke-width="2"  />
		</g>
		<g>
			<title> (ctg221_19)</title>
			<polygon class=" (ctg221_19)" points="654,10 662,40 654,70" fill="rgb(255,255,255)" fill-opacity="1.0" stroke="rgb(0,0,0)" stroke-width="2"  />
		</g>
		<g>
			<title> (ctg221_20)</title>
			<polygon class=" (ctg221_20)" points="661,10 670,40 661,70" fill="rgb(255,255,255)" fill-opacity="1.0" stroke="rgb(0,0,0)" stroke-width="2"  />
		</g>
		<g>
			<title> (ctg221_21)</title>
			<polygon class=" (ctg221_21)" points="672,40 676,10 676,70" fill="rgb(255,255,255)" fill-opacity="1.0" stroke="rgb(0,0,0)" stroke-width="2"  />
		</g>
		<g>
			<title> (ctg221_22)</title>
			<polygon class=" (ctg221_22)" points="712,25 706,25 706,10 676,40 706,70 706,55 712,55" fill="rgb(255,255,255)" fill-opacity="1.0" stroke="rgb(0,0,0)" stroke-width="2"  />
			<g>
				<title>HopA1 (PF17914)
"HopA1 effector protein family"</title>
				<polygon class="PF17914" points="680,40 692,28 694,28 694,52 692,52" stroke-linejoin="round" width="17" height="24" fill="rgb(77,79,213)" stroke="rgb(61,63,170)" stroke-width="1" opacity="0.75" />
			</g>
		</g>
		<g>
			<title> (ctg221_23)</title>
			<polygon class=" (ctg221_23)" points="753,25 744,25 744,10 714,40 744,70 744,55 753,55" fill="rgb(255,255,255)" fill-opacity="1.0" stroke="rgb(0,0,0)" stroke-width="2"  />
			<g>
				<title>APH (PF01636)
"Phosphotransferase enzyme family"</title>
				<polygon class="PF01636" points="725,33 730,28 746,28 746,52 730,52 725,47" stroke-linejoin="round" width="21" height="24" fill="rgb(106,220,228)" stroke="rgb(84,176,182)" stroke-width="1" opacity="0.75" />
			</g>
		</g>
		<g>
			<title> (ctg221_24)</title>
			<polygon class=" (ctg221_24)" points="761,10 774,40 761,70" fill="rgb(255,255,255)" fill-opacity="1.0" stroke="rgb(0,0,0)" stroke-width="2"  />
		</g>
		<g>
			<title> (ctg221_25)</title>
			<polygon class=" (ctg221_25)" points="814,25 813,25 813,10 783,40 813,70 813,55 814,55" fill="rgb(255,255,255)" fill-opacity="1.0" stroke="rgb(0,0,0)" stroke-width="2"  />
			<g>
				<title>BacA (PF02673)
"Bacitracin resistance protein BacA"</title>
				<polygon class="PF02673" points="787,40 799,28 809,28 809,52 799,52" stroke-linejoin="round" width="25" height="24" fill="rgb(78,220,196)" stroke="rgb(62,176,156)" stroke-width="1" opacity="0.75" />
			</g>
		</g>
		<g>
			<title> (ctg221_26)</title>
			<polygon class=" (ctg221_26)" points="823,10 847,40 823,70" fill="rgb(255,255,255)" fill-opacity="1.0" stroke="rgb(0,0,0)" stroke-width="2"  />
			<g>
				<title>Redoxin (PF08534)
"Redoxin"</title>
				<polygon class="PF08534" points="823,28 834,28 838,34 838,46 834,52 823,52" stroke-linejoin="round" width="15" height="24" fill="rgb(145,195,92)" stroke="rgb(116,156,73)" stroke-width="1" opacity="0.75" />
			</g>
			<g>
				<title>Glutaredoxin (PF00462)
"Glutaredoxin"</title>
				<polygon class="PF00462" points="840,36 843,40 840,44" stroke-linejoin="round" width="5" height="24" fill="rgb(77,192,167)" stroke="rgb(61,153,133)" stroke-width="1" opacity="0.75" />
			</g>
		</g>
		<g>
			<title> (ctg221_27)</title>
			<polygon class=" (ctg221_27)" points="854,10 865,40 854,70" fill="rgb(255,255,255)" fill-opacity="1.0" stroke="rgb(0,0,0)" stroke-width="2"  />
		</g>
		<g>
			<title> (ctg221_28)</title>
			<polygon class=" (ctg221_28)" points="873,10 879,40 873,70" fill="rgb(255,255,255)" fill-opacity="1.0" stroke="rgb(0,0,0)" stroke-width="2"  />
			<g>
				<title>HicB_lk_antitox (PF15919)
"HicB_like antitoxin of bacterial toxin-antitoxin system"</title>
				<polygon class="PF15919" points="873,28 873,28 876,40 873,52 873,52" stroke-linejoin="round" width="6" height="24" fill="rgb(104,205,86)" stroke="rgb(83,164,68)" stroke-width="1" opacity="0.75" />
			</g>
		</g>
		<g>
			<title> (ctg221_29)</title>
			<polygon class=" (ctg221_29)" points="880,10 887,40 880,70" fill="rgb(255,255,255)" fill-opacity="1.0" stroke="rgb(0,0,0)" stroke-width="2"  />
			<g>
				<title>HicA_toxin (PF07927)
"HicA toxin of bacterial toxin-antitoxin,"</title>
				<polygon class="PF07927" points="881,28 881,28 884,40 881,52 881,52" stroke-linejoin="round" width="5" height="24" fill="rgb(182,96,204)" stroke="rgb(145,76,163)" stroke-width="1" opacity="0.75" />
			</g>
		</g>
		<g>
			<title> (ctg221_30)</title>
			<polygon class=" (ctg221_30)" points="896,10 913,40 896,70" fill="rgb(255,255,255)" fill-opacity="1.0" stroke="rgb(0,0,0)" stroke-width="2"  />
			<g>
				<title>Ferritin (PF00210)
"Ferritin-like domain"</title>
				<polygon class="PF00210" points="899,28 903,28 910,40 903,52 899,52" stroke-linejoin="round" width="14" height="24" fill="rgb(104,82,203)" stroke="rgb(83,65,162)" stroke-width="1" opacity="0.75" />
			</g>
		</g>
		<g>
			<title> (ctg221_31)</title>
			<polygon class=" (ctg221_31)" points="957,25 945,25 945,10 915,40 945,70 945,55 957,55" fill="rgb(255,255,255)" fill-opacity="1.0" stroke="rgb(0,0,0)" stroke-width="2"  />
			<g>
				<title>Pkinase (PF00069)
"Protein kinase domain"</title>
				<rect class="PF00069" x="939" y="28" stroke-linejoin="round" width="16" height="24" fill="rgb(104,187,65)" stroke="rgb(83,149,51)" stroke-width="1" opacity="0.75" />
			</g>
		</g>
		<g>
			<title> (ctg221_32)</title>
			<polygon class=" (ctg221_32)" points="990,40 996,10 996,70" fill="rgb(255,255,255)" fill-opacity="1.0" stroke="rgb(0,0,0)" stroke-width="2"  />
		</g>
		<g>
			<title> (ctg221_33)</title>
			<polygon class=" (ctg221_33)" points="1008,10 1016,40 1008,70" fill="rgb(255,255,255)" fill-opacity="1.0" stroke="rgb(0,0,0)" stroke-width="2"  />
		</g>
		<g>
			<title> (ctg221_34)</title>
			<polygon class=" (ctg221_34)" points="1016,10 1033,40 1016,70" fill="rgb(255,255,255)" fill-opacity="1.0" stroke="rgb(0,0,0)" stroke-width="2"  />
			<g>
				<title>DUF4242 (PF14026)
"Protein of unknown function (DUF4242)"</title>
				<polygon class="PF14026" points="1025,32 1030,40 1025,48" stroke-linejoin="round" width="7" height="24" fill="rgb(115,66,182)" stroke="rgb(92,52,145)" stroke-width="1" opacity="0.75" />
			</g>
		</g>
		<g>
			<title> (ctg221_35)</title>
			<polygon class=" (ctg221_35)" points="1034,25 1041,25 1041,10 1071,40 1041,70 1041,55 1034,55" fill="rgb(255,255,255)" fill-opacity="1.0" stroke="rgb(0,0,0)" stroke-width="2"  />
			<g>
				<title>Acyl-CoA_dh_N (PF02771)
"Acyl-CoA dehydrogenase, N-terminal domain"</title>
				<rect class="PF02771" x="1034" y="28" stroke-linejoin="round" width="9" height="24" fill="rgb(105,135,218)" stroke="rgb(84,108,174)" stroke-width="1" opacity="0.75" />
			</g>
		</g>
		<g>
			<title> (ctg221_36)</title>
			<polygon class=" (ctg221_36)" points="1071,10 1092,40 1071,70" fill="rgb(255,255,255)" fill-opacity="1.0" stroke="rgb(0,0,0)" stroke-width="2"  />
			<g>
				<title>ABC_tran (PF00005)
"ABC transporter"</title>
				<polygon class="PF00005" points="1073,28 1080,28 1087,39 1087,41 1080,52 1073,52" stroke-linejoin="round" width="14" height="24" fill="rgb(129,201,63)" stroke="rgb(103,160,50)" stroke-width="1" opacity="0.75" />
			</g>
		</g>
	</g>
</svg>
