<svg version="1.1" baseProfile="full" xmlns="http://www.w3.org/2000/svg" width="200.46666666666667" height="80">
	<g>
		<line x1="10" y1="40.0" x2="190.46666666666667" y2="40.0" style="stroke:rgb(70,70,70); stroke-width:3 "/>
		<g>
			<title> (ctg313_1)</title>
			<polygon class=" (ctg313_1)" points="13,25 30,25 30,10 60,40 30,70 30,55 13,55" fill="rgb(255,255,255)" fill-opacity="1.0" stroke="rgb(0,0,0)" stroke-width="2"  />
			<g>
				<title>Tnp_DNA_bind (PF14706)
"Transposase DNA-binding"</title>
				<rect class="PF14706" x="13" y="28" stroke-linejoin="round" width="5" height="24" fill="rgb(89,212,164)" stroke="rgb(71,169,131)" stroke-width="1" opacity="0.75" />
			</g>
			<g>
				<title>DDE_Tnp_1 (PF01609)
"Transposase DDE domain"</title>
				<polygon class="PF01609" points="21,28 44,28 50,34 50,46 44,52 21,52" stroke-linejoin="round" width="29" height="24" fill="rgb(229,102,99)" stroke="rgb(183,81,79)" stroke-width="1" opacity="0.75" />
			</g>
			<g>
				<title>Dimer_Tnp_Tn5 (PF02281)
"Transposase Tn5 dimerisation domain"</title>
				<polygon class="PF02281" points="49,33 56,40 49,47" stroke-linejoin="round" width="10" height="24" fill="rgb(195,190,88)" stroke="rgb(156,152,70)" stroke-width="1" opacity="0.75" />
			</g>
		</g>
		<g>
			<title> (ctg313_2)</title>
			<polygon class=" (ctg313_2)" points="162,25 97,25 97,10 67,40 97,70 97,55 162,55" fill="rgb(255,255,255)" fill-opacity="1.0" stroke="rgb(0,0,0)" stroke-width="2"  />
			<g>
				<title>PatG_C (PF18065)
"PatG C-terminal"</title>
				<polygon class="PF18065" points="71,40 78,33 78,47" stroke-linejoin="round" width="11" height="24" fill="rgb(93,82,184)" stroke="rgb(74,65,147)" stroke-width="1" opacity="0.75" />
			</g>
			<g>
				<title>PatG_D (PF18047)
"PatG Domain"</title>
				<polygon class="PF18047" points="83,28 83,28 94,28 94,52 83,52 83,52" stroke-linejoin="round" width="11" height="24" fill="rgb(91,195,69)" stroke="rgb(72,156,55)" stroke-width="1" opacity="0.75" />
			</g>
			<g>
				<title>Pkinase (PF00069)
"Protein kinase domain"</title>
				<rect class="PF00069" x="101" y="28" stroke-linejoin="round" width="23" height="24" fill="rgb(104,187,65)" stroke="rgb(83,149,51)" stroke-width="1" opacity="0.75" />
			</g>
			<g>
				<title>Peptidase_S8 (PF00082)
"Subtilase family"</title>
				<rect class="PF00082" x="130" y="28" stroke-linejoin="round" width="29" height="24" fill="rgb(193,159,94)" stroke="rgb(154,127,75)" stroke-width="1" opacity="0.75" />
			</g>
		</g>
		<g>
			<title> (ctg313_3)</title>
			<polygon class=" (ctg313_3)" points="165,10 190,40 165,70" fill="rgb(255,255,255)" fill-opacity="1.0" stroke="rgb(0,0,0)" stroke-width="2"  />
			<g>
				<title>Uma2 (PF05685)
"Putative restriction endonuclease"</title>
				<polygon class="PF05685" points="168,28 176,28 185,39 185,41 176,52 168,52" stroke-linejoin="round" width="17" height="24" fill="rgb(123,107,219)" stroke="rgb(98,85,175)" stroke-width="1" opacity="0.75" />
			</g>
		</g>
	</g>
</svg>
