<svg version="1.1" baseProfile="full" xmlns="http://www.w3.org/2000/svg" width="1085.7666666666667" height="80">
	<g>
		<line x1="10" y1="40.0" x2="1075.7666666666667" y2="40.0" style="stroke:rgb(70,70,70); stroke-width:3 "/>
		<g>
			<title> (ctg33_1)</title>
			<polygon class=" (ctg33_1)" points="10,10 36,40 10,70" fill="rgb(255,255,255)" fill-opacity="1.0" stroke="rgb(0,0,0)" stroke-width="2"  />
		</g>
		<g>
			<title> (ctg33_2)</title>
			<polygon class=" (ctg33_2)" points="37,10 43,40 37,70" fill="rgb(255,255,255)" fill-opacity="1.0" stroke="rgb(0,0,0)" stroke-width="2"  />
		</g>
		<g>
			<title> (ctg33_3)</title>
			<polygon class=" (ctg33_3)" points="44,10 50,40 44,70" fill="rgb(255,255,255)" fill-opacity="1.0" stroke="rgb(0,0,0)" stroke-width="2"  />
		</g>
		<g>
			<title> (ctg33_4)</title>
			<polygon class=" (ctg33_4)" points="53,40 59,10 59,70" fill="rgb(255,255,255)" fill-opacity="1.0" stroke="rgb(0,0,0)" stroke-width="2"  />
		</g>
		<g>
			<title> (ctg33_5)</title>
			<polygon class=" (ctg33_5)" points="97,25 88,25 88,10 58,40 88,70 88,55 97,55" fill="rgb(255,255,255)" fill-opacity="1.0" stroke="rgb(0,0,0)" stroke-width="2"  />
			<g>
				<title>Aminotran_1_2 (PF00155)
"Aminotransferase class I and II"</title>
				<polygon class="PF00155" points="62,40 74,28 93,28 93,52 74,52" stroke-linejoin="round" width="35" height="24" fill="rgb(89,113,198)" stroke="rgb(71,90,158)" stroke-width="1" opacity="0.75" />
			</g>
		</g>
		<g>
			<title> (ctg33_6)</title>
			<polygon class=" (ctg33_6)" points="98,40 110,10 110,70" fill="rgb(255,255,255)" fill-opacity="1.0" stroke="rgb(0,0,0)" stroke-width="2"  />
			<g>
				<title>Thioredoxin (PF00085)
"Thioredoxin"</title>
				<polygon class="PF00085" points="101,40 106,28 108,28 108,52 106,52" stroke-linejoin="round" width="10" height="24" fill="rgb(220,109,180)" stroke="rgb(176,87,144)" stroke-width="1" opacity="0.75" />
			</g>
		</g>
		<g>
			<title> (ctg33_7)</title>
			<polygon class=" (ctg33_7)" points="112,40 141,10 141,70" fill="rgb(255,255,255)" fill-opacity="1.0" stroke="rgb(0,0,0)" stroke-width="2"  />
			<g>
				<title>BPD_transp_1 (PF00528)
"Binding-protein-dependent transport system inner membrane component"</title>
				<polygon class="PF00528" points="116,40 128,28 131,28 131,52 128,52" stroke-linejoin="round" width="19" height="24" fill="rgb(77,208,225)" stroke="rgb(61,166,180)" stroke-width="1" opacity="0.75" />
			</g>
			<g>
				<title>OppC_N (PF12911)
"N-terminal TM domain of oligopeptide transport permease C"</title>
				<rect class="PF12911" x="135" y="28" stroke-linejoin="round" width="5" height="24" fill="rgb(167,178,88)" stroke="rgb(133,142,70)" stroke-width="1" opacity="0.75" />
			</g>
		</g>
		<g>
			<title> (ctg33_8)</title>
			<polygon class=" (ctg33_8)" points="142,25 147,25 147,10 177,40 147,70 147,55 142,55" fill="rgb(255,255,255)" fill-opacity="1.0" stroke="rgb(0,0,0)" stroke-width="2"  />
			<g>
				<title>DBI_PRT (PF02277)
"Phosphoribosyltransferase"</title>
				<polygon class="PF02277" points="150,28 161,28 168,35 168,45 161,52 150,52" stroke-linejoin="round" width="18" height="24" fill="rgb(116,80,221)" stroke="rgb(92,63,176)" stroke-width="1" opacity="0.75" />
			</g>
		</g>
		<g>
			<title> (ctg33_9)</title>
			<polygon class=" (ctg33_9)" points="184,40 201,10 201,70" fill="rgb(255,255,255)" fill-opacity="1.0" stroke="rgb(0,0,0)" stroke-width="2"  />
			<g>
				<title>Ferritin (PF00210)
"Ferritin-like domain"</title>
				<polygon class="PF00210" points="187,40 194,28 198,28 198,52 194,52" stroke-linejoin="round" width="14" height="24" fill="rgb(104,82,203)" stroke="rgb(83,65,162)" stroke-width="1" opacity="0.75" />
			</g>
		</g>
		<g>
			<title> (ctg33_10)</title>
			<polygon class=" (ctg33_10)" points="218,40 224,10 224,70" fill="rgb(255,255,255)" fill-opacity="1.0" stroke="rgb(0,0,0)" stroke-width="2"  />
			<g>
				<title>HicB_lk_antitox (PF15919)
"HicB_like antitoxin of bacterial toxin-antitoxin system"</title>
				<polygon class="PF15919" points="221,40 224,28 224,28 224,52 224,52" stroke-linejoin="round" width="6" height="24" fill="rgb(104,205,86)" stroke="rgb(83,164,68)" stroke-width="1" opacity="0.75" />
			</g>
		</g>
		<g>
			<title> (ctg33_11)</title>
			<polygon class=" (ctg33_11)" points="228,40 239,10 239,70" fill="rgb(255,255,255)" fill-opacity="1.0" stroke="rgb(0,0,0)" stroke-width="2"  />
		</g>
		<g>
			<title> (ctg33_12)</title>
			<polygon class=" (ctg33_12)" points="246,40 270,10 270,70" fill="rgb(255,255,255)" fill-opacity="1.0" stroke="rgb(0,0,0)" stroke-width="2"  />
			<g>
				<title>Glutaredoxin (PF00462)
"Glutaredoxin"</title>
				<polygon class="PF00462" points="250,40 252,38 252,42" stroke-linejoin="round" width="5" height="24" fill="rgb(77,192,167)" stroke="rgb(61,153,133)" stroke-width="1" opacity="0.75" />
			</g>
			<g>
				<title>Redoxin (PF08534)
"Redoxin"</title>
				<polygon class="PF08534" points="254,35 260,28 269,28 269,52 260,52 254,45" stroke-linejoin="round" width="15" height="24" fill="rgb(145,195,92)" stroke="rgb(116,156,73)" stroke-width="1" opacity="0.75" />
			</g>
		</g>
		<g>
			<title> (ctg33_13)</title>
			<polygon class=" (ctg33_13)" points="278,25 279,25 279,10 309,40 279,70 279,55 278,55" fill="rgb(255,255,255)" fill-opacity="1.0" stroke="rgb(0,0,0)" stroke-width="2"  />
			<g>
				<title>BacA (PF02673)
"Bacitracin resistance protein BacA"</title>
				<polygon class="PF02673" points="282,28 293,28 305,40 293,52 282,52" stroke-linejoin="round" width="25" height="24" fill="rgb(78,220,196)" stroke="rgb(62,176,156)" stroke-width="1" opacity="0.75" />
			</g>
		</g>
		<g>
			<title> (ctg33_14)</title>
			<polygon class=" (ctg33_14)" points="310,40 323,10 323,70" fill="rgb(255,255,255)" fill-opacity="1.0" stroke="rgb(0,0,0)" stroke-width="2"  />
		</g>
		<g>
			<title> (ctg33_15)</title>
			<polygon class=" (ctg33_15)" points="332,25 341,25 341,10 371,40 341,70 341,55 332,55" fill="rgb(255,255,255)" fill-opacity="1.0" stroke="rgb(0,0,0)" stroke-width="2"  />
			<g>
				<title>APH (PF01636)
"Phosphotransferase enzyme family"</title>
				<polygon class="PF01636" points="338,28 354,28 359,33 359,47 354,52 338,52" stroke-linejoin="round" width="21" height="24" fill="rgb(106,220,228)" stroke="rgb(84,176,182)" stroke-width="1" opacity="0.75" />
			</g>
		</g>
		<g>
			<title> (ctg33_16)</title>
			<polygon class=" (ctg33_16)" points="372,25 378,25 378,10 408,40 378,70 378,55 372,55" fill="rgb(255,255,255)" fill-opacity="1.0" stroke="rgb(0,0,0)" stroke-width="2"  />
			<g>
				<title>HopA1 (PF17914)
"HopA1 effector protein family"</title>
				<polygon class="PF17914" points="389,28 392,28 404,40 392,52 389,52" stroke-linejoin="round" width="17" height="24" fill="rgb(77,79,213)" stroke="rgb(61,63,170)" stroke-width="1" opacity="0.75" />
			</g>
		</g>
		<g>
			<title> (ctg33_17)</title>
			<polygon class=" (ctg33_17)" points="414,40 423,10 423,70" fill="rgb(255,255,255)" fill-opacity="1.0" stroke="rgb(0,0,0)" stroke-width="2"  />
		</g>
		<g>
			<title> (ctg33_18)</title>
			<polygon class=" (ctg33_18)" points="422,40 434,10 434,70" fill="rgb(255,255,255)" fill-opacity="1.0" stroke="rgb(0,0,0)" stroke-width="2"  />
		</g>
		<g>
			<title> (ctg33_19)</title>
			<polygon class=" (ctg33_19)" points="449,10 454,40 449,70" fill="rgb(255,255,255)" fill-opacity="1.0" stroke="rgb(0,0,0)" stroke-width="2"  />
		</g>
		<g>
			<title> (ctg33_20)</title>
			<polygon class=" (ctg33_20)" points="458,40 482,10 482,70" fill="rgb(255,255,255)" fill-opacity="1.0" stroke="rgb(0,0,0)" stroke-width="2"  />
			<g>
				<title>Rotamase (PF00639)
"PPIC-type PPIASE domain"</title>
				<polygon class="PF00639" points="462,40 470,30 470,50 462,40" stroke-linejoin="round" width="8" height="24" fill="rgb(179,171,54)" stroke="rgb(143,136,43)" stroke-width="1" opacity="0.75" />
			</g>
		</g>
		<g>
			<title> (ctg33_21)</title>
			<polygon class=" (ctg33_21)" points="541,25 515,25 515,10 485,40 515,70 515,55 541,55" fill="rgb(255,255,255)" fill-opacity="1.0" stroke="rgb(0,0,0)" stroke-width="2"  />
			<g>
				<title>HlyD_3 (PF13437)
"HlyD family secretion protein"</title>
				<polygon class="PF13437" points="489,40 499,30 499,50" stroke-linejoin="round" width="11" height="24" fill="rgb(82,200,102)" stroke="rgb(65,160,81)" stroke-width="1" opacity="0.75" />
			</g>
			<g>
				<title>Biotin_lipoyl_2 (PF13533)
"Biotin-lipoyl like"</title>
				<rect class="PF13533" x="525" y="28" stroke-linejoin="round" width="6" height="24" fill="rgb(229,122,112)" stroke="rgb(183,97,89)" stroke-width="1" opacity="0.75" />
			</g>
		</g>
		<g>
			<title> (ctg33_22)</title>
			<polygon class=" (ctg33_22)" points="633,25 572,25 572,10 542,40 572,70 572,55 633,55" fill="rgb(255,255,255)" fill-opacity="1.0" stroke="rgb(0,0,0)" stroke-width="2"  />
			<g>
				<title>ABC_tran (PF00005)
"ABC transporter"</title>
				<polygon class="PF00005" points="549,37 558,28 563,28 563,52 558,52 549,43" stroke-linejoin="round" width="14" height="24" fill="rgb(129,201,63)" stroke="rgb(103,160,50)" stroke-width="1" opacity="0.75" />
			</g>
			<g>
				<title>ABC_membrane (PF00664)
"ABC transporter transmembrane region"</title>
				<rect class="PF00664" x="570" y="28" stroke-linejoin="round" width="27" height="24" fill="rgb(149,226,73)" stroke="rgb(119,180,58)" stroke-width="1" opacity="0.75" />
			</g>
			<g>
				<title>Peptidase_C39 (PF03412)
"Peptidase C39 family"</title>
				<rect class="PF03412" x="600" y="28" stroke-linejoin="round" width="12" height="24" fill="rgb(214,226,77)" stroke="rgb(171,180,61)" stroke-width="1" opacity="0.75" />
			</g>
		</g>
		<g>
			<title> (ctg33_23)</title>
			<polygon class=" (ctg33_23)" points="635,40 654,10 654,70" fill="rgb(255,255,255)" fill-opacity="1.0" stroke="rgb(0,0,0)" stroke-width="2"  />
			<g>
				<title>HTH_33 (PF13592)
"Winged helix-turn helix"</title>
				<polygon class="PF13592" points="639,40 642,35 642,45" stroke-linejoin="round" width="5" height="24" fill="rgb(178,60,202)" stroke="rgb(142,47,161)" stroke-width="1" opacity="0.75" />
			</g>
			<g>
				<title>HTH_23 (PF13384)
"Homeodomain-like domain"</title>
				<polygon class="PF13384" points="646,29 647,28 650,28 650,52 647,52 646,51" stroke-linejoin="round" width="4" height="24" fill="rgb(77,216,116)" stroke="rgb(61,172,92)" stroke-width="1" opacity="0.75" />
			</g>
		</g>
		<g>
			<title> (ctg33_24)</title>
			<polygon class=" (ctg33_24)" points="660,40 664,10 664,70" fill="rgb(255,255,255)" fill-opacity="1.0" stroke="rgb(0,0,0)" stroke-width="2"  />
		</g>
		<g>
			<title> (ctg33_25)</title>
			<polygon class=" (ctg33_25)" points="670,40 677,10 677,70" fill="rgb(255,255,255)" fill-opacity="1.0" stroke="rgb(0,0,0)" stroke-width="2"  />
			<g>
				<title>Rotamase (PF00639)
"PPIC-type PPIASE domain"</title>
				<polygon class="PF00639" points="673,40 676,28 677,28 677,52 676,52" stroke-linejoin="round" width="6" height="24" fill="rgb(179,171,54)" stroke="rgb(143,136,43)" stroke-width="1" opacity="0.75" />
			</g>
		</g>
		<g>
			<title> (ctg33_26)</title>
			<polygon class=" (ctg33_26)" points="678,40 706,10 706,70" fill="rgb(255,255,255)" fill-opacity="1.0" stroke="rgb(0,0,0)" stroke-width="2"  />
			<g>
				<title>Abhydrolase_1 (PF00561)
"alpha/beta hydrolase fold"</title>
				<polygon class="PF00561" points="682,40 693,28 702,28 702,52 693,52" stroke-linejoin="round" width="23" height="24" fill="rgb(86,180,151)" stroke="rgb(68,144,120)" stroke-width="1" opacity="0.75" />
			</g>
		</g>
		<g>
			<title> (ctg33_27)</title>
			<polygon class=" (ctg33_27)" points="706,40 713,10 713,70" fill="rgb(255,255,255)" fill-opacity="1.0" stroke="rgb(0,0,0)" stroke-width="2"  />
		</g>
		<g>
			<title> (ctg33_28)</title>
			<polygon class=" (ctg33_28)" points="758,25 744,25 744,10 714,40 744,70 744,55 758,55" fill="rgb(255,255,255)" fill-opacity="1.0" stroke="rgb(0,0,0)" stroke-width="2"  />
			<g>
				<title>ClpB_D2-small (PF10431)
"C-terminal, D2-small domain, of ClpB protein"</title>
				<polygon class="PF10431" points="718,40 724,34 724,46" stroke-linejoin="round" width="8" height="24" fill="rgb(190,198,67)" stroke="rgb(152,158,53)" stroke-width="1" opacity="0.75" />
			</g>
			<g>
				<title>AAA_2 (PF07724)
"AAA domain (Cdc48 subfamily)"</title>
				<polygon class="PF07724" points="725,33 730,28 745,28 745,52 730,52 725,47" stroke-linejoin="round" width="20" height="24" fill="rgb(132,215,72)" stroke="rgb(105,172,57)" stroke-width="1" opacity="0.75" />
			</g>
			<g>
				<title>zf-C4_ClpX (PF06689)
"ClpX C4-type zinc finger"</title>
				<rect class="PF06689" x="754" y="28" stroke-linejoin="round" width="3" height="24" fill="rgb(218,113,96)" stroke="rgb(174,90,76)" stroke-width="1" opacity="0.75" />
			</g>
		</g>
		<g>
			<title> (ctg33_29)</title>
			<polygon class=" (ctg33_29)" points="758,40 778,10 778,70" fill="rgb(255,255,255)" fill-opacity="1.0" stroke="rgb(0,0,0)" stroke-width="2"  />
			<g>
				<title>CLP_protease (PF00574)
"Clp protease"</title>
				<polygon class="PF00574" points="762,40 770,28 777,28 777,52 770,52" stroke-linejoin="round" width="18" height="24" fill="rgb(196,111,59)" stroke="rgb(156,88,47)" stroke-width="1" opacity="0.75" />
			</g>
		</g>
		<g>
			<title> (ctg33_30)</title>
			<polygon class=" (ctg33_30)" points="841,25 825,25 825,10 795,40 825,70 825,55 841,55" fill="rgb(255,255,255)" fill-opacity="1.0" stroke="rgb(0,0,0)" stroke-width="2"  />
			<g>
				<title>Trigger_C (PF05698)
"Bacterial trigger factor protein (TF) C-terminus"</title>
				<polygon class="PF05698" points="799,40 811,28 814,28 814,52 811,52" stroke-linejoin="round" width="16" height="24" fill="rgb(173,55,194)" stroke="rgb(138,44,155)" stroke-width="1" opacity="0.75" />
			</g>
			<g>
				<title>FKBP_C (PF00254)
"FKBP-type peptidyl-prolyl cis-trans isomerase"</title>
				<rect class="PF00254" x="816" y="28" stroke-linejoin="round" width="8" height="24" fill="rgb(137,65,200)" stroke="rgb(109,51,160)" stroke-width="1" opacity="0.75" />
			</g>
			<g>
				<title>Trigger_N (PF05697)
"Bacterial trigger factor protein (TF)"</title>
				<rect class="PF05697" x="826" y="28" stroke-linejoin="round" width="14" height="24" fill="rgb(181,113,81)" stroke="rgb(144,90,64)" stroke-width="1" opacity="0.75" />
			</g>
		</g>
		<g>
			<title> (ctg33_31)</title>
			<polygon class=" (ctg33_31)" points="853,25 857,25 857,10 887,40 857,70 857,55 853,55" fill="rgb(255,255,255)" fill-opacity="1.0" stroke="rgb(0,0,0)" stroke-width="2"  />
			<g>
				<title>Semialdhyde_dh (PF01118)
"Semialdehyde dehydrogenase, NAD binding domain"</title>
				<rect class="PF01118" x="853" y="28" stroke-linejoin="round" width="11" height="24" fill="rgb(191,106,221)" stroke="rgb(152,84,176)" stroke-width="1" opacity="0.75" />
			</g>
			<g>
				<title>Semialdhyde_dhC (PF02774)
"Semialdehyde dehydrogenase, dimerisation domain"</title>
				<polygon class="PF02774" points="866,28 871,28 883,40 871,52 866,52" stroke-linejoin="round" width="18" height="24" fill="rgb(57,188,185)" stroke="rgb(45,150,147)" stroke-width="1" opacity="0.75" />
			</g>
		</g>
		<g>
			<title> (ctg33_32)</title>
			<polygon class=" (ctg33_32)" points="896,10 925,40 896,70" fill="rgb(255,255,255)" fill-opacity="1.0" stroke="rgb(0,0,0)" stroke-width="2"  />
			<g>
				<title>DHDPS (PF00701)
"Dihydrodipicolinate synthetase family"</title>
				<polygon class="PF00701" points="896,28 909,28 921,40 909,52 896,52" stroke-linejoin="round" width="28" height="24" fill="rgb(80,204,82)" stroke="rgb(64,163,65)" stroke-width="1" opacity="0.75" />
			</g>
		</g>
		<g>
			<title> (ctg33_33)</title>
			<polygon class=" (ctg33_33)" points="934,25 962,25 962,10 992,40 962,70 962,55 934,55" fill="rgb(255,255,255)" fill-opacity="1.0" stroke="rgb(0,0,0)" stroke-width="2"  />
			<g>
				<title>Lactamase_B (PF00753)
"Metallo-beta-lactamase superfamily"</title>
				<rect class="PF00753" x="936" y="28" stroke-linejoin="round" width="24" height="24" fill="rgb(206,198,96)" stroke="rgb(164,158,76)" stroke-width="1" opacity="0.75" />
			</g>
			<g>
				<title>RMMBL (PF07521)
"Zn-dependent metallo-hydrolase RNA specificity domain"</title>
				<rect class="PF07521" x="970" y="28" stroke-linejoin="round" width="5" height="24" fill="rgb(75,144,204)" stroke="rgb(60,115,163)" stroke-width="1" opacity="0.75" />
			</g>
			<g>
				<title>RNase_J_C (PF17770)
"Ribonuclease J C-terminal domain"</title>
				<polygon class="PF17770" points="979,31 988,40 979,49" stroke-linejoin="round" width="10" height="24" fill="rgb(205,78,145)" stroke="rgb(164,62,116)" stroke-width="1" opacity="0.75" />
			</g>
		</g>
		<g>
			<title> (ctg33_34)</title>
			<polygon class=" (ctg33_34)" points="997,10 1022,40 997,70" fill="rgb(255,255,255)" fill-opacity="1.0" stroke="rgb(0,0,0)" stroke-width="2"  />
			<g>
				<title>AIRC (PF00731)
"AIR carboxylase"</title>
				<polygon class="PF00731" points="1009,29 1018,40 1009,51" stroke-linejoin="round" width="13" height="24" fill="rgb(73,174,200)" stroke="rgb(58,139,160)" stroke-width="1" opacity="0.75" />
			</g>
		</g>
	</g>
</svg>
