<svg version="1.1" baseProfile="full" xmlns="http://www.w3.org/2000/svg" width="708.7" height="80">
	<g>
		<line x1="10" y1="40.0" x2="698.7" y2="40.0" style="stroke:rgb(70,70,70); stroke-width:3 "/>
		<g>
			<title> (ctg166_12)</title>
			<polygon class=" (ctg166_12)" points="31,25 52,25 52,10 82,40 52,70 52,55 31,55" fill="rgb(255,255,255)" fill-opacity="1.0" stroke="rgb(0,0,0)" stroke-width="2"  />
			<g>
				<title>ApeA_NTD1 (PF18862)
"ApeA N-terminal domain 1"</title>
				<polygon class="PF18862" points="31,28 65,28 77,40 65,52 31,52" stroke-linejoin="round" width="47" height="24" fill="rgb(206,84,108)" stroke="rgb(164,67,86)" stroke-width="1" opacity="0.75" />
			</g>
		</g>
		<g>
			<title> (ctg166_13)</title>
			<polygon class=" (ctg166_13)" points="88,25 120,25 120,10 150,40 120,70 120,55 88,55" fill="rgb(255,255,255)" fill-opacity="1.0" stroke="rgb(0,0,0)" stroke-width="2"  />
			<g>
				<title>ABC_tran (PF00005)
"ABC transporter"</title>
				<rect class="PF00005" x="90" y="28" stroke-linejoin="round" width="19" height="24" fill="rgb(129,201,63)" stroke="rgb(103,160,50)" stroke-width="1" opacity="0.75" />
			</g>
			<g>
				<title>oligo_HPY (PF08352)
"Oligopeptide/dipeptide transporter, C-terminal region"</title>
				<rect class="PF08352" x="115" y="28" stroke-linejoin="round" width="4" height="24" fill="rgb(90,183,173)" stroke="rgb(72,146,138)" stroke-width="1" opacity="0.75" />
			</g>
			<g>
				<title>ABC_tran (PF00005)
"ABC transporter"</title>
				<polygon class="PF00005" points="126,28 134,28 141,35 141,45 134,52 126,52" stroke-linejoin="round" width="15" height="24" fill="rgb(129,201,63)" stroke="rgb(103,160,50)" stroke-width="1" opacity="0.75" />
			</g>
			<g>
				<title>oligo_HPY (PF08352)
"Oligopeptide/dipeptide transporter, C-terminal region"</title>
				<polygon class="PF08352" points="147,40 146,40 147,40" stroke-linejoin="round" width="3" height="24" fill="rgb(90,183,173)" stroke="rgb(72,146,138)" stroke-width="1" opacity="0.75" />
			</g>
		</g>
		<g>
			<title> (ctg166_14)</title>
			<polygon class=" (ctg166_14)" points="207,25 191,25 191,10 161,40 191,70 191,55 207,55" fill="rgb(255,255,255)" fill-opacity="1.0" stroke="rgb(0,0,0)" stroke-width="2"  />
			<g>
				<title>Amidase (PF01425)
"Amidase"</title>
				<polygon class="PF01425" points="165,40 177,28 205,28 205,52 177,52" stroke-linejoin="round" width="42" height="24" fill="rgb(195,142,64)" stroke="rgb(156,113,51)" stroke-width="1" opacity="0.75" />
			</g>
		</g>
		<g>
			<title> (ctg166_15)</title>
			<polygon class=" (ctg166_15)" points="213,10 230,40 213,70" fill="rgb(255,255,255)" fill-opacity="1.0" stroke="rgb(0,0,0)" stroke-width="2"  />
			<g>
				<title>Pribosyltran (PF00156)
"Phosphoribosyl transferase domain"</title>
				<polygon class="PF00156" points="213,28 220,28 227,40 220,52 213,52" stroke-linejoin="round" width="16" height="24" fill="rgb(210,210,74)" stroke="rgb(168,168,59)" stroke-width="1" opacity="0.75" />
			</g>
		</g>
		<g>
			<title> (ctg166_16)</title>
			<polygon class=" (ctg166_16)" points="241,40 267,10 267,70" fill="rgb(255,255,255)" fill-opacity="1.0" stroke="rgb(0,0,0)" stroke-width="2"  />
			<g>
				<title>Exo_endo_phos (PF03372)
"Endonuclease/Exonuclease/phosphatase family"</title>
				<polygon class="PF03372" points="245,40 255,28 266,28 266,52 255,52" stroke-linejoin="round" width="24" height="24" fill="rgb(76,66,180)" stroke="rgb(60,52,144)" stroke-width="1" opacity="0.75" />
			</g>
		</g>
		<g>
			<title> (ctg166_17)</title>
			<polygon class=" (ctg166_17)" points="275,40 281,10 281,70" fill="rgb(255,255,255)" fill-opacity="1.0" stroke="rgb(0,0,0)" stroke-width="2"  />
		</g>
		<g>
			<title> (ctg166_18)</title>
			<polygon class=" (ctg166_18)" points="284,40 297,10 297,70" fill="rgb(255,255,255)" fill-opacity="1.0" stroke="rgb(0,0,0)" stroke-width="2"  />
			<g>
				<title>GGACT (PF06094)
"Gamma-glutamyl cyclotransferase, AIG2-like"</title>
				<polygon class="PF06094" points="287,40 292,28 296,28 296,52 292,52" stroke-linejoin="round" width="12" height="24" fill="rgb(227,229,113)" stroke="rgb(181,183,90)" stroke-width="1" opacity="0.75" />
			</g>
		</g>
		<g>
			<title> (ctg166_19)</title>
			<polygon class=" (ctg166_19)" points="331,25 327,25 327,10 297,40 327,70 327,55 331,55" fill="rgb(255,255,255)" fill-opacity="1.0" stroke="rgb(0,0,0)" stroke-width="2"  />
			<g>
				<title>Aldo_ket_red (PF00248)
"Aldo/keto reductase family"</title>
				<polygon class="PF00248" points="301,40 313,28 329,28 329,52 313,52" stroke-linejoin="round" width="29" height="24" fill="rgb(225,205,58)" stroke="rgb(180,164,46)" stroke-width="1" opacity="0.75" />
			</g>
		</g>
		<g>
			<title> (ctg166_20)</title>
			<polygon class=" (ctg166_20)" points="438,25 373,25 373,10 343,40 373,70 373,55 438,55" fill="rgb(255,255,255)" fill-opacity="1.0" stroke="rgb(0,0,0)" stroke-width="2"  />
			<g>
				<title>PatG_C (PF18065)
"PatG C-terminal"</title>
				<polygon class="PF18065" points="347,40 354,33 354,47" stroke-linejoin="round" width="11" height="24" fill="rgb(93,82,184)" stroke="rgb(74,65,147)" stroke-width="1" opacity="0.75" />
			</g>
			<g>
				<title>PatG_D (PF18047)
"PatG Domain"</title>
				<polygon class="PF18047" points="359,28 359,28 370,28 370,52 359,52 359,52" stroke-linejoin="round" width="11" height="24" fill="rgb(91,195,69)" stroke="rgb(72,156,55)" stroke-width="1" opacity="0.75" />
			</g>
			<g>
				<title>Pkinase (PF00069)
"Protein kinase domain"</title>
				<rect class="PF00069" x="377" y="28" stroke-linejoin="round" width="23" height="24" fill="rgb(104,187,65)" stroke="rgb(83,149,51)" stroke-width="1" opacity="0.75" />
			</g>
			<g>
				<title>Peptidase_S8 (PF00082)
"Subtilase family"</title>
				<rect class="PF00082" x="406" y="28" stroke-linejoin="round" width="29" height="24" fill="rgb(193,159,94)" stroke="rgb(154,127,75)" stroke-width="1" opacity="0.75" />
			</g>
		</g>
		<g>
			<title> (ctg166_21)</title>
			<polygon class=" (ctg166_21)" points="441,10 467,40 441,70" fill="rgb(255,255,255)" fill-opacity="1.0" stroke="rgb(0,0,0)" stroke-width="2"  />
			<g>
				<title>Uma2 (PF05685)
"Putative restriction endonuclease"</title>
				<polygon class="PF05685" points="444,28 453,28 461,38 461,42 453,52 444,52" stroke-linejoin="round" width="17" height="24" fill="rgb(123,107,219)" stroke="rgb(98,85,175)" stroke-width="1" opacity="0.75" />
			</g>
		</g>
		<g>
			<title> (ctg166_22)</title>
			<polygon class=" (ctg166_22)" points="468,40 475,10 475,70" fill="rgb(255,255,255)" fill-opacity="1.0" stroke="rgb(0,0,0)" stroke-width="2"  />
		</g>
		<g>
			<title> (ctg166_23)</title>
			<polygon class=" (ctg166_23)" points="477,40 485,10 485,70" fill="rgb(255,255,255)" fill-opacity="1.0" stroke="rgb(0,0,0)" stroke-width="2"  />
		</g>
		<g>
			<title> (ctg166_24)</title>
			<polygon class=" (ctg166_24)" points="552,25 518,25 518,10 488,40 518,70 518,55 552,55" fill="rgb(255,255,255)" fill-opacity="1.0" stroke="rgb(0,0,0)" stroke-width="2"  />
			<g>
				<title>PatG_C (PF18065)
"PatG C-terminal"</title>
				<polygon class="PF18065" points="492,40 499,33 499,47" stroke-linejoin="round" width="11" height="24" fill="rgb(93,82,184)" stroke="rgb(74,65,147)" stroke-width="1" opacity="0.75" />
			</g>
			<g>
				<title>PatG_D (PF18047)
"PatG Domain"</title>
				<polygon class="PF18047" points="504,28 504,28 515,28 515,52 504,52 504,52" stroke-linejoin="round" width="11" height="24" fill="rgb(91,195,69)" stroke="rgb(72,156,55)" stroke-width="1" opacity="0.75" />
			</g>
			<g>
				<title>Peptidase_S8 (PF00082)
"Subtilase family"</title>
				<rect class="PF00082" x="523" y="28" stroke-linejoin="round" width="27" height="24" fill="rgb(193,159,94)" stroke="rgb(154,127,75)" stroke-width="1" opacity="0.75" />
			</g>
		</g>
		<g>
			<title> (ctg166_25)</title>
			<polygon class=" (ctg166_25)" points="554,40 573,10 573,70" fill="rgb(255,255,255)" fill-opacity="1.0" stroke="rgb(0,0,0)" stroke-width="2"  />
			<g>
				<title>Uma2 (PF05685)
"Putative restriction endonuclease"</title>
				<polygon class="PF05685" points="558,40 566,28 571,28 571,52 566,52" stroke-linejoin="round" width="17" height="24" fill="rgb(123,107,219)" stroke="rgb(98,85,175)" stroke-width="1" opacity="0.75" />
			</g>
		</g>
		<g>
			<title> (ctg166_26)</title>
			<polygon class=" (ctg166_26)" points="574,40 588,10 588,70" fill="rgb(255,255,255)" fill-opacity="1.0" stroke="rgb(0,0,0)" stroke-width="2"  />
			<g>
				<title>DUF29 (PF01724)
"Domain of unknown function DUF29"</title>
				<polygon class="PF01724" points="577,40 583,28 587,28 587,52 583,52" stroke-linejoin="round" width="13" height="24" fill="rgb(104,61,184)" stroke="rgb(83,48,147)" stroke-width="1" opacity="0.75" />
			</g>
		</g>
		<g>
			<title> (ctg166_27)</title>
			<polygon class=" (ctg166_27)" points="590,40 612,10 612,70" fill="rgb(255,255,255)" fill-opacity="1.0" stroke="rgb(0,0,0)" stroke-width="2"  />
			<g>
				<title>Uma2 (PF05685)
"Putative restriction endonuclease"</title>
				<polygon class="PF05685" points="594,40 603,28 609,28 609,52 603,52" stroke-linejoin="round" width="17" height="24" fill="rgb(123,107,219)" stroke="rgb(98,85,175)" stroke-width="1" opacity="0.75" />
			</g>
		</g>
		<g>
			<title> (ctg166_28)</title>
			<polygon class=" (ctg166_28)" points="612,40 623,10 623,70" fill="rgb(255,255,255)" fill-opacity="1.0" stroke="rgb(0,0,0)" stroke-width="2"  />
			<g>
				<title>DUF29 (PF01724)
"Domain of unknown function DUF29"</title>
				<polygon class="PF01724" points="615,40 619,28 622,28 622,52 619,52" stroke-linejoin="round" width="10" height="24" fill="rgb(104,61,184)" stroke="rgb(83,48,147)" stroke-width="1" opacity="0.75" />
			</g>
		</g>
		<g>
			<title> (ctg166_29)</title>
			<polygon class=" (ctg166_29)" points="626,10 634,40 626,70" fill="rgb(255,255,255)" fill-opacity="1.0" stroke="rgb(0,0,0)" stroke-width="2"  />
			<g>
				<title>Y1_Tnp (PF01797)
"Transposase IS200 like"</title>
				<polygon class="PF01797" points="626,28 627,28 631,40 627,52 626,52" stroke-linejoin="round" width="7" height="24" fill="rgb(198,164,60)" stroke="rgb(158,131,47)" stroke-width="1" opacity="0.75" />
			</g>
		</g>
		<g>
			<title> (ctg166_30)</title>
			<polygon class=" (ctg166_30)" points="640,10 653,40 640,70" fill="rgb(255,255,255)" fill-opacity="1.0" stroke="rgb(0,0,0)" stroke-width="2"  />
		</g>
		<g>
			<title> (ctg166_31)</title>
			<polygon class=" (ctg166_31)" points="655,40 660,10 660,70" fill="rgb(255,255,255)" fill-opacity="1.0" stroke="rgb(0,0,0)" stroke-width="2"  />
			<g>
				<title>DUF5840 (PF19158)
"Family of unknown function (DUF5840)"</title>
				<polygon class="PF19158" points="658,40 659,34 659,46" stroke-linejoin="round" width="4" height="24" fill="rgb(187,88,114)" stroke="rgb(149,70,91)" stroke-width="1" opacity="0.75" />
			</g>
		</g>
		<g>
			<title> (ctg166_32)</title>
			<polygon class=" (ctg166_32)" points="667,40 671,10 671,70" fill="rgb(255,255,255)" fill-opacity="1.0" stroke="rgb(0,0,0)" stroke-width="2"  />
			<g>
				<title>DUF5840 (PF19158)
"Family of unknown function (DUF5840)"</title>
				<polygon class="PF19158" points="670,40 671,34 671,46" stroke-linejoin="round" width="4" height="24" fill="rgb(187,88,114)" stroke="rgb(149,70,91)" stroke-width="1" opacity="0.75" />
			</g>
		</g>
		<g>
			<title> (ctg166_33)</title>
			<polygon class=" (ctg166_33)" points="678,40 686,10 686,70" fill="rgb(255,255,255)" fill-opacity="1.0" stroke="rgb(0,0,0)" stroke-width="2"  />
			<g>
				<title>ParE_toxin (PF05016)
"ParE toxin of type II toxin-antitoxin system, parDE"</title>
				<polygon class="PF05016" points="681,40 685,28 685,28 685,52 685,52" stroke-linejoin="round" width="7" height="24" fill="rgb(110,226,73)" stroke="rgb(88,180,58)" stroke-width="1" opacity="0.75" />
			</g>
		</g>
		<g>
			<title> (ctg166_34)</title>
			<polygon class=" (ctg166_34)" points="688,40 697,10 697,70" fill="rgb(255,255,255)" fill-opacity="1.0" stroke="rgb(0,0,0)" stroke-width="2"  />
		</g>
	</g>
</svg>
