<svg version="1.1" baseProfile="full" xmlns="http://www.w3.org/2000/svg" width="1653.0" height="80">
	<g>
		<line x1="10" y1="40.0" x2="1643.0" y2="40.0" style="stroke:rgb(70,70,70); stroke-width:3 "/>
		<g>
			<title> (ctg148_9)</title>
			<polygon class=" (ctg148_9)" points="71,10 98,40 71,70" fill="rgb(255,255,255)" fill-opacity="1.0" stroke="rgb(0,0,0)" stroke-width="2"  />
			<g>
				<title>HEAT_PBS (PF03130)
"PBS lyase HEAT-like repeat"</title>
				<rect class="PF03130" x="74" y="28" stroke-linejoin="round" width="2" height="24" fill="rgb(194,75,159)" stroke="rgb(155,60,127)" stroke-width="1" opacity="0.75" />
			</g>
			<g>
				<title>HEAT_2 (PF13646)
"HEAT repeats"</title>
				<polygon class="PF13646" points="77,28 82,28 84,29 84,51 82,52 77,52" stroke-linejoin="round" width="7" height="24" fill="rgb(161,180,58)" stroke="rgb(128,144,46)" stroke-width="1" opacity="0.75" />
			</g>
			<g>
				<title>HEAT_PBS (PF03130)
"PBS lyase HEAT-like repeat"</title>
				<polygon class="PF03130" points="88,34 90,36 90,44 88,46" stroke-linejoin="round" width="2" height="24" fill="rgb(194,75,159)" stroke="rgb(155,60,127)" stroke-width="1" opacity="0.75" />
			</g>
		</g>
		<g>
			<title> (ctg148_10)</title>
			<polygon class=" (ctg148_10)" points="100,10 114,40 100,70" fill="rgb(255,255,255)" fill-opacity="1.0" stroke="rgb(0,0,0)" stroke-width="2"  />
			<g>
				<title>DUF29 (PF01724)
"Domain of unknown function DUF29"</title>
				<polygon class="PF01724" points="100,28 105,28 111,40 105,52 100,52" stroke-linejoin="round" width="14" height="24" fill="rgb(104,61,184)" stroke="rgb(83,48,147)" stroke-width="1" opacity="0.75" />
			</g>
		</g>
		<g>
			<title> (ctg148_11)</title>
			<polygon class=" (ctg148_11)" points="122,10 142,40 122,70" fill="rgb(255,255,255)" fill-opacity="1.0" stroke="rgb(0,0,0)" stroke-width="2"  />
			<g>
				<title>HEAT_2 (PF13646)
"HEAT repeats"</title>
				<rect class="PF13646" x="122" y="28" stroke-linejoin="round" width="8" height="24" fill="rgb(161,180,58)" stroke="rgb(128,144,46)" stroke-width="1" opacity="0.75" />
			</g>
			<g>
				<title>HEAT_2 (PF13646)
"HEAT repeats"</title>
				<polygon class="PF13646" points="131,29 139,40 131,51" stroke-linejoin="round" width="10" height="24" fill="rgb(161,180,58)" stroke="rgb(128,144,46)" stroke-width="1" opacity="0.75" />
			</g>
		</g>
		<g>
			<title> (ctg148_12)</title>
			<polygon class=" (ctg148_12)" points="145,10 170,40 145,70" fill="rgb(255,255,255)" fill-opacity="1.0" stroke="rgb(0,0,0)" stroke-width="2"  />
			<g>
				<title>ABC2_membrane (PF01061)
"ABC-2 type transporter"</title>
				<polygon class="PF01061" points="145,28 156,28 166,40 166,40 156,52 145,52" stroke-linejoin="round" width="21" height="24" fill="rgb(139,217,106)" stroke="rgb(111,173,84)" stroke-width="1" opacity="0.75" />
			</g>
		</g>
		<g>
			<title> (ctg148_13)</title>
			<polygon class=" (ctg148_13)" points="178,10 207,40 178,70" fill="rgb(255,255,255)" fill-opacity="1.0" stroke="rgb(0,0,0)" stroke-width="2"  />
			<g>
				<title>ABC_tran (PF00005)
"ABC transporter"</title>
				<polygon class="PF00005" points="179,28 191,28 193,30 193,50 191,52 179,52" stroke-linejoin="round" width="14" height="24" fill="rgb(129,201,63)" stroke="rgb(103,160,50)" stroke-width="1" opacity="0.75" />
			</g>
		</g>
		<g>
			<title> (ctg148_14)</title>
			<polygon class=" (ctg148_14)" points="237,40 262,10 262,70" fill="rgb(255,255,255)" fill-opacity="1.0" stroke="rgb(0,0,0)" stroke-width="2"  />
		</g>
		<g>
			<title> (ctg148_15)</title>
			<polygon class=" (ctg148_15)" points="307,25 299,25 299,10 269,40 299,70 299,55 307,55" fill="rgb(255,255,255)" fill-opacity="1.0" stroke="rgb(0,0,0)" stroke-width="2"  />
			<g>
				<title>Amino_oxidase (PF01593)
"Flavin containing amine oxidoreductase"</title>
				<polygon class="PF01593" points="280,33 285,28 306,28 306,52 285,52 280,47" stroke-linejoin="round" width="26" height="24" fill="rgb(184,74,52)" stroke="rgb(147,59,41)" stroke-width="1" opacity="0.75" />
			</g>
		</g>
		<g>
			<title> (ctg148_16)</title>
			<polygon class=" (ctg148_16)" points="311,40 314,10 314,70" fill="rgb(255,255,255)" fill-opacity="1.0" stroke="rgb(0,0,0)" stroke-width="2"  />
			<g>
				<title>NAD_binding_8 (PF13450)
"NAD(P)-binding Rossmann-like domain"</title>
				<polygon class="PF13450" points="314,40 314,40 314,40" stroke-linejoin="round" width="3" height="24" fill="rgb(91,180,227)" stroke="rgb(72,144,181)" stroke-width="1" opacity="0.75" />
			</g>
		</g>
		<g>
			<title> (ctg148_17)</title>
			<polygon class=" (ctg148_17)" points="356,25 347,25 347,10 317,40 347,70 347,55 356,55" fill="rgb(255,255,255)" fill-opacity="1.0" stroke="rgb(0,0,0)" stroke-width="2"  />
			<g>
				<title>MFS_1 (PF07690)
"Major Facilitator Superfamily"</title>
				<polygon class="PF07690" points="321,40 333,28 335,28 335,52 333,52" stroke-linejoin="round" width="18" height="24" fill="rgb(193,224,74)" stroke="rgb(154,179,59)" stroke-width="1" opacity="0.75" />
			</g>
			<g>
				<title>MFS_1 (PF07690)
"Major Facilitator Superfamily"</title>
				<rect class="PF07690" x="335" y="28" stroke-linejoin="round" width="19" height="24" fill="rgb(193,224,74)" stroke="rgb(154,179,59)" stroke-width="1" opacity="0.75" />
			</g>
		</g>
		<g>
			<title> (ctg148_18)</title>
			<polygon class=" (ctg148_18)" points="412,25 390,25 390,10 360,40 390,70 390,55 412,55" fill="rgb(255,255,255)" fill-opacity="1.0" stroke="rgb(0,0,0)" stroke-width="2"  />
			<g>
				<title>NMO (PF03060)
"Nitronate monooxygenase"</title>
				<polygon class="PF03060" points="375,29 376,28 405,28 405,52 376,52 375,51" stroke-linejoin="round" width="30" height="24" fill="rgb(100,193,226)" stroke="rgb(80,154,180)" stroke-width="1" opacity="0.75" />
			</g>
			<g>
				<title>PfaD_N (PF18328)
"Fatty acid synthase subunit PfaD N-terminal domain"</title>
				<rect class="PF18328" x="406" y="28" stroke-linejoin="round" width="4" height="24" fill="rgb(143,220,82)" stroke="rgb(114,176,65)" stroke-width="1" opacity="0.75" />
			</g>
		</g>
		<g>
			<title> (ctg148_19)</title>
			<polygon class=" (ctg148_19)" points="584,25 448,25 448,10 418,40 448,70 448,55 584,55" fill="rgb(255,255,255)" fill-opacity="1.0" stroke="rgb(0,0,0)" stroke-width="2"  />
			<g>
				<title>FabA (PF07977)
"FabA-like domain"</title>
				<polygon class="PF07977" points="422,40 432,30 432,50" stroke-linejoin="round" width="13" height="24" fill="rgb(66,205,188)" stroke="rgb(52,164,150)" stroke-width="1" opacity="0.75" />
			</g>
			<g>
				<title>FabA (PF07977)
"FabA-like domain"</title>
				<rect class="PF07977" x="459" y="28" stroke-linejoin="round" width="13" height="24" fill="rgb(66,205,188)" stroke="rgb(52,164,150)" stroke-width="1" opacity="0.75" />
			</g>
		</g>
		<g>
			<title> (ctg148_20)</title>
			<polygon class=" (ctg148_20)" points="644,25 616,25 616,10 586,40 616,70 616,55 644,55" fill="rgb(255,255,255)" fill-opacity="1.0" stroke="rgb(0,0,0)" stroke-width="2"  />
			<g>
				<title>PS-DH (PF14765)
"Polyketide synthase dehydratase"</title>
				<polygon class="PF14765" points="590,40 602,28 614,28 614,52 602,52" stroke-linejoin="round" width="27" height="24" fill="rgb(173,56,182)" stroke="rgb(138,44,145)" stroke-width="1" opacity="0.75" />
			</g>
			<g>
				<title>KR (PF08659)
"KR domain"</title>
				<rect class="PF08659" x="620" y="28" stroke-linejoin="round" width="22" height="24" fill="rgb(66,209,188)" stroke="rgb(52,167,150)" stroke-width="1" opacity="0.75" />
			</g>
		</g>
		<g>
			<title> (ctg148_21)</title>
			<polygon class=" (ctg148_21)" points="650,40 674,10 674,70" fill="rgb(255,255,255)" fill-opacity="1.0" stroke="rgb(0,0,0)" stroke-width="2"  />
		</g>
		<g>
			<title> (ctg148_22)</title>
			<polygon class=" (ctg148_22)" points="803,25 706,25 706,10 676,40 706,70 706,55 803,55" fill="rgb(255,255,255)" fill-opacity="1.0" stroke="rgb(0,0,0)" stroke-width="2"  />
			<g>
				<title>PP-binding (PF00550)
"Phosphopantetheine attachment site"</title>
				<polygon class="PF00550" points="680,40 683,37 683,43" stroke-linejoin="round" width="6" height="24" fill="rgb(103,191,88)" stroke="rgb(82,152,70)" stroke-width="1" opacity="0.75" />
			</g>
			<g>
				<title>Acyl_transf_1 (PF00698)
"Acyl transferase domain"</title>
				<rect class="PF00698" x="711" y="28" stroke-linejoin="round" width="32" height="24" fill="rgb(59,176,209)" stroke="rgb(47,140,167)" stroke-width="1" opacity="0.75" />
			</g>
			<g>
				<title>KAsynt_C_assoc (PF16197)
"Ketoacyl-synthetase C-terminal extension"</title>
				<rect class="PF16197" x="749" y="28" stroke-linejoin="round" width="11" height="24" fill="rgb(240,150,172)" stroke="rgb(192,120,137)" stroke-width="1" opacity="0.75" />
			</g>
			<g>
				<title>Ketoacyl-synt_C (PF02801)
"Beta-ketoacyl synthase, C-terminal domain"</title>
				<rect class="PF02801" x="761" y="28" stroke-linejoin="round" width="11" height="24" fill="rgb(215,78,102)" stroke="rgb(172,62,81)" stroke-width="1" opacity="0.75" />
			</g>
			<g>
				<title>ketoacyl-synt (PF00109)
"Beta-ketoacyl synthase, N-terminal domain"</title>
				<rect class="PF00109" x="773" y="28" stroke-linejoin="round" width="28" height="24" fill="rgb(112,116,228)" stroke="rgb(89,92,182)" stroke-width="1" opacity="0.75" />
			</g>
		</g>
		<g>
			<title> (ctg148_23)</title>
			<polygon class=" (ctg148_23)" points="914,25 847,25 847,10 817,40 847,70 847,55 914,55" fill="rgb(255,255,255)" fill-opacity="1.0" stroke="rgb(0,0,0)" stroke-width="2"  />
			<g>
				<title>Condensation (PF00668)
"Condensation domain"</title>
				<polygon class="PF00668" points="821,40 833,28 860,28 860,52 833,52" stroke-linejoin="round" width="43" height="24" fill="rgb(224,184,98)" stroke="rgb(179,147,78)" stroke-width="1" opacity="0.75" />
			</g>
			<g>
				<title>AMP-binding_C (PF13193)
"AMP-binding enzyme C-terminal domain"</title>
				<rect class="PF13193" x="862" y="28" stroke-linejoin="round" width="7" height="24" fill="rgb(182,50,118)" stroke="rgb(145,39,94)" stroke-width="1" opacity="0.75" />
			</g>
			<g>
				<title>AMP-binding (PF00501)
"AMP-binding enzyme"</title>
				<rect class="PF00501" x="870" y="28" stroke-linejoin="round" width="42" height="24" fill="rgb(60,217,223)" stroke="rgb(48,173,178)" stroke-width="1" opacity="0.75" />
			</g>
		</g>
		<g>
			<title> (ctg148_24)</title>
			<polygon class=" (ctg148_24)" points="1082,25 952,25 952,10 922,40 952,70 952,55 1082,55" fill="rgb(255,255,255)" fill-opacity="1.0" stroke="rgb(0,0,0)" stroke-width="2"  />
			<g>
				<title>PP-binding (PF00550)
"Phosphopantetheine attachment site"</title>
				<polygon class="PF00550" points="926,40 929,37 929,43" stroke-linejoin="round" width="6" height="24" fill="rgb(103,191,88)" stroke="rgb(82,152,70)" stroke-width="1" opacity="0.75" />
			</g>
			<g>
				<title>Condensation (PF00668)
"Condensation domain"</title>
				<polygon class="PF00668" points="931,35 938,28 974,28 974,52 938,52 931,45" stroke-linejoin="round" width="43" height="24" fill="rgb(224,184,98)" stroke="rgb(179,147,78)" stroke-width="1" opacity="0.75" />
			</g>
			<g>
				<title>PP-binding (PF00550)
"Phosphopantetheine attachment site"</title>
				<rect class="PF00550" x="979" y="28" stroke-linejoin="round" width="7" height="24" fill="rgb(103,191,88)" stroke="rgb(82,152,70)" stroke-width="1" opacity="0.75" />
			</g>
			<g>
				<title>Acyl_transf_1 (PF00698)
"Acyl transferase domain"</title>
				<rect class="PF00698" x="994" y="28" stroke-linejoin="round" width="31" height="24" fill="rgb(59,176,209)" stroke="rgb(47,140,167)" stroke-width="1" opacity="0.75" />
			</g>
			<g>
				<title>KAsynt_C_assoc (PF16197)
"Ketoacyl-synthetase C-terminal extension"</title>
				<rect class="PF16197" x="1030" y="28" stroke-linejoin="round" width="11" height="24" fill="rgb(240,150,172)" stroke="rgb(192,120,137)" stroke-width="1" opacity="0.75" />
			</g>
			<g>
				<title>Ketoacyl-synt_C (PF02801)
"Beta-ketoacyl synthase, C-terminal domain"</title>
				<rect class="PF02801" x="1041" y="28" stroke-linejoin="round" width="11" height="24" fill="rgb(215,78,102)" stroke="rgb(172,62,81)" stroke-width="1" opacity="0.75" />
			</g>
			<g>
				<title>ketoacyl-synt (PF00109)
"Beta-ketoacyl synthase, N-terminal domain"</title>
				<rect class="PF00109" x="1054" y="28" stroke-linejoin="round" width="25" height="24" fill="rgb(112,116,228)" stroke="rgb(89,92,182)" stroke-width="1" opacity="0.75" />
			</g>
		</g>
		<g>
			<title> (ctg148_25)</title>
			<polygon class=" (ctg148_25)" points="1246,25 1119,25 1119,10 1089,40 1119,70 1119,55 1246,55" fill="rgb(255,255,255)" fill-opacity="1.0" stroke="rgb(0,0,0)" stroke-width="2"  />
			<g>
				<title>PP-binding (PF00550)
"Phosphopantetheine attachment site"</title>
				<polygon class="PF00550" points="1094,39 1100,33 1100,47 1094,41" stroke-linejoin="round" width="6" height="24" fill="rgb(103,191,88)" stroke="rgb(82,152,70)" stroke-width="1" opacity="0.75" />
			</g>
			<g>
				<title>KR (PF08659)
"KR domain"</title>
				<rect class="PF08659" x="1111" y="28" stroke-linejoin="round" width="18" height="24" fill="rgb(66,209,188)" stroke="rgb(52,167,150)" stroke-width="1" opacity="0.75" />
			</g>
			<g>
				<title>Acyl_transf_1 (PF00698)
"Acyl transferase domain"</title>
				<rect class="PF00698" x="1162" y="28" stroke-linejoin="round" width="32" height="24" fill="rgb(59,176,209)" stroke="rgb(47,140,167)" stroke-width="1" opacity="0.75" />
			</g>
			<g>
				<title>KAsynt_C_assoc (PF16197)
"Ketoacyl-synthetase C-terminal extension"</title>
				<rect class="PF16197" x="1197" y="28" stroke-linejoin="round" width="11" height="24" fill="rgb(240,150,172)" stroke="rgb(192,120,137)" stroke-width="1" opacity="0.75" />
			</g>
			<g>
				<title>Ketoacyl-synt_C (PF02801)
"Beta-ketoacyl synthase, C-terminal domain"</title>
				<rect class="PF02801" x="1209" y="28" stroke-linejoin="round" width="11" height="24" fill="rgb(215,78,102)" stroke="rgb(172,62,81)" stroke-width="1" opacity="0.75" />
			</g>
			<g>
				<title>ketoacyl-synt (PF00109)
"Beta-ketoacyl synthase, N-terminal domain"</title>
				<rect class="PF00109" x="1221" y="28" stroke-linejoin="round" width="24" height="24" fill="rgb(112,116,228)" stroke="rgb(89,92,182)" stroke-width="1" opacity="0.75" />
			</g>
		</g>
		<g>
			<title> (ctg148_26)</title>
			<polygon class=" (ctg148_26)" points="1311,25 1282,25 1282,10 1252,40 1282,70 1282,55 1311,55" fill="rgb(255,255,255)" fill-opacity="1.0" stroke="rgb(0,0,0)" stroke-width="2"  />
			<g>
				<title>Trp_halogenase (PF04820)
"Tryptophan halogenase"</title>
				<rect class="PF04820" x="1272" y="28" stroke-linejoin="round" width="28" height="24" fill="rgb(179,74,194)" stroke="rgb(143,59,155)" stroke-width="1" opacity="0.75" />
			</g>
		</g>
		<g>
			<title> (ctg148_27)</title>
			<polygon class=" (ctg148_27)" points="1314,40 1322,10 1322,70" fill="rgb(255,255,255)" fill-opacity="1.0" stroke="rgb(0,0,0)" stroke-width="2"  />
			<g>
				<title>PP-binding (PF00550)
"Phosphopantetheine attachment site"</title>
				<polygon class="PF00550" points="1317,40 1320,28 1320,28 1320,52 1320,52" stroke-linejoin="round" width="6" height="24" fill="rgb(103,191,88)" stroke="rgb(82,152,70)" stroke-width="1" opacity="0.75" />
			</g>
		</g>
		<g>
			<title> (ctg148_28)</title>
			<polygon class=" (ctg148_28)" points="1332,10 1349,40 1332,70" fill="rgb(255,255,255)" fill-opacity="1.0" stroke="rgb(0,0,0)" stroke-width="2"  />
		</g>
		<g>
			<title> (ctg148_29)</title>
			<polygon class=" (ctg148_29)" points="1382,25 1382,25 1382,10 1352,40 1382,70 1382,55 1382,55" fill="rgb(255,255,255)" fill-opacity="1.0" stroke="rgb(0,0,0)" stroke-width="2"  />
			<g>
				<title>HTH_18 (PF12833)
"Helix-turn-helix domain"</title>
				<polygon class="PF12833" points="1356,40 1359,37 1359,43" stroke-linejoin="round" width="7" height="24" fill="rgb(216,58,224)" stroke="rgb(172,46,179)" stroke-width="1" opacity="0.75" />
			</g>
			<g>
				<title>PAS_8 (PF13188)
"PAS domain"</title>
				<rect class="PF13188" x="1371" y="28" stroke-linejoin="round" width="6" height="24" fill="rgb(206,218,73)" stroke="rgb(164,174,58)" stroke-width="1" opacity="0.75" />
			</g>
		</g>
		<g>
			<title> (ctg148_30)</title>
			<polygon class=" (ctg148_30)" points="1429,25 1431,25 1431,10 1461,40 1431,70 1431,55 1429,55" fill="rgb(255,255,255)" fill-opacity="1.0" stroke="rgb(0,0,0)" stroke-width="2"  />
		</g>
		<g>
			<title> (ctg148_31)</title>
			<polygon class=" (ctg148_31)" points="1463,25 1484,25 1484,10 1514,40 1484,70 1484,55 1463,55" fill="rgb(255,255,255)" fill-opacity="1.0" stroke="rgb(0,0,0)" stroke-width="2"  />
			<g>
				<title>HlyD_3 (PF13437)
"HlyD family secretion protein"</title>
				<polygon class="PF13437" points="1494,28 1498,28 1504,34 1504,46 1498,52 1494,52" stroke-linejoin="round" width="10" height="24" fill="rgb(82,200,102)" stroke="rgb(65,160,81)" stroke-width="1" opacity="0.75" />
			</g>
		</g>
		<g>
			<title> (ctg148_32)</title>
			<polygon class=" (ctg148_32)" points="1528,25 1601,25 1601,10 1631,40 1601,70 1601,55 1528,55" fill="rgb(255,255,255)" fill-opacity="1.0" stroke="rgb(0,0,0)" stroke-width="2"  />
			<g>
				<title>ACR_tran (PF00873)
"AcrB/AcrD/AcrF family"</title>
				<polygon class="PF00873" points="1528,28 1615,28 1627,40 1615,52 1528,52" stroke-linejoin="round" width="102" height="24" fill="rgb(63,191,60)" stroke="rgb(50,152,48)" stroke-width="1" opacity="0.75" />
			</g>
		</g>
	</g>
</svg>
