<svg version="1.1" baseProfile="full" xmlns="http://www.w3.org/2000/svg" width="2097.366666666667" height="80">
	<g>
		<line x1="10" y1="40.0" x2="2087.366666666667" y2="40.0" style="stroke:rgb(70,70,70); stroke-width:3 "/>
		<g>
			<title> (ctg158_1)</title>
			<polygon class=" (ctg158_1)" points="61,25 40,25 40,10 10,40 40,70 40,55 61,55" fill="rgb(255,255,255)" fill-opacity="1.0" stroke="rgb(0,0,0)" stroke-width="2"  />
		</g>
		<g>
			<title> (ctg158_2)</title>
			<polygon class=" (ctg158_2)" points="127,25 99,25 99,10 69,40 99,70 99,55 127,55" fill="rgb(255,255,255)" fill-opacity="1.0" stroke="rgb(0,0,0)" stroke-width="2"  />
		</g>
		<g>
			<title> (ctg158_3)</title>
			<polygon class=" (ctg158_3)" points="127,40 142,10 142,70" fill="rgb(255,255,255)" fill-opacity="1.0" stroke="rgb(0,0,0)" stroke-width="2"  />
		</g>
		<g>
			<title> (ctg158_4)</title>
			<polygon class=" (ctg158_4)" points="143,40 172,10 172,70" fill="rgb(255,255,255)" fill-opacity="1.0" stroke="rgb(0,0,0)" stroke-width="2"  />
			<g>
				<title>RAMPs (PF03787)
"RAMP superfamily"</title>
				<polygon class="PF03787" points="147,40 159,28 171,28 171,52 159,52" stroke-linejoin="round" width="27" height="24" fill="rgb(157,209,52)" stroke="rgb(125,167,41)" stroke-width="1" opacity="0.75" />
			</g>
		</g>
		<g>
			<title> (ctg158_5)</title>
			<polygon class=" (ctg158_5)" points="172,40 186,10 186,70" fill="rgb(255,255,255)" fill-opacity="1.0" stroke="rgb(0,0,0)" stroke-width="2"  />
		</g>
		<g>
			<title> (ctg158_6)</title>
			<polygon class=" (ctg158_6)" points="265,25 245,25 245,10 215,40 245,70 245,55 265,55" fill="rgb(255,255,255)" fill-opacity="1.0" stroke="rgb(0,0,0)" stroke-width="2"  />
		</g>
		<g>
			<title> (ctg158_7)</title>
			<polygon class=" (ctg158_7)" points="305,10 316,40 305,70" fill="rgb(255,255,255)" fill-opacity="1.0" stroke="rgb(0,0,0)" stroke-width="2"  />
		</g>
		<g>
			<title> (ctg158_8)</title>
			<polygon class=" (ctg158_8)" points="319,40 324,10 324,70" fill="rgb(255,255,255)" fill-opacity="1.0" stroke="rgb(0,0,0)" stroke-width="2"  />
		</g>
		<g>
			<title> (ctg158_9)</title>
			<polygon class=" (ctg158_9)" points="359,40 366,10 366,70" fill="rgb(255,255,255)" fill-opacity="1.0" stroke="rgb(0,0,0)" stroke-width="2"  />
		</g>
		<g>
			<title> (ctg158_10)</title>
			<polygon class=" (ctg158_10)" points="374,10 381,40 374,70" fill="rgb(255,255,255)" fill-opacity="1.0" stroke="rgb(0,0,0)" stroke-width="2"  />
		</g>
		<g>
			<title> (ctg158_11)</title>
			<polygon class=" (ctg158_11)" points="384,10 388,40 384,70" fill="rgb(255,255,255)" fill-opacity="1.0" stroke="rgb(0,0,0)" stroke-width="2"  />
		</g>
		<g>
			<title> (ctg158_12)</title>
			<polygon class=" (ctg158_12)" points="405,40 409,10 409,70" fill="rgb(255,255,255)" fill-opacity="1.0" stroke="rgb(0,0,0)" stroke-width="2"  />
		</g>
		<g>
			<title> (ctg158_13)</title>
			<polygon class=" (ctg158_13)" points="416,40 420,10 420,70" fill="rgb(255,255,255)" fill-opacity="1.0" stroke="rgb(0,0,0)" stroke-width="2"  />
		</g>
		<g>
			<title> (ctg158_14)</title>
			<polygon class=" (ctg158_14)" points="472,25 453,25 453,10 423,40 453,70 453,55 472,55" fill="rgb(255,255,255)" fill-opacity="1.0" stroke="rgb(0,0,0)" stroke-width="2"  />
			<g>
				<title>5_nucleotid_C (PF02872)
"5'-nucleotidase, C-terminal domain"</title>
				<polygon class="PF02872" points="427,40 439,28 442,28 442,52 439,52 427,40" stroke-linejoin="round" width="15" height="24" fill="rgb(215,156,101)" stroke="rgb(172,124,80)" stroke-width="1" opacity="0.75" />
			</g>
			<g>
				<title>Metallophos (PF00149)
"Calcineurin-like phosphoesterase"</title>
				<rect class="PF00149" x="449" y="28" stroke-linejoin="round" width="21" height="24" fill="rgb(181,197,58)" stroke="rgb(144,157,46)" stroke-width="1" opacity="0.75" />
			</g>
		</g>
		<g>
			<title> (ctg158_15)</title>
			<polygon class=" (ctg158_15)" points="475,40 486,10 486,70" fill="rgb(255,255,255)" fill-opacity="1.0" stroke="rgb(0,0,0)" stroke-width="2"  />
		</g>
		<g>
			<title> (ctg158_16)</title>
			<polygon class=" (ctg158_16)" points="574,25 532,25 532,10 502,40 532,70 532,55 574,55" fill="rgb(255,255,255)" fill-opacity="1.0" stroke="rgb(0,0,0)" stroke-width="2"  />
			<g>
				<title>PP_kinase_C (PF13090)
"Polyphosphate kinase C-terminal domain 2"</title>
				<polygon class="PF13090" points="506,40 518,28 520,28 520,52 518,52" stroke-linejoin="round" width="17" height="24" fill="rgb(90,162,200)" stroke="rgb(72,129,160)" stroke-width="1" opacity="0.75" />
			</g>
			<g>
				<title>PP_kinase_C_1 (PF17941)
"Polyphosphate kinase C-terminal domain 1"</title>
				<rect class="PF17941" x="521" y="28" stroke-linejoin="round" width="16" height="24" fill="rgb(61,110,209)" stroke="rgb(48,87,167)" stroke-width="1" opacity="0.75" />
			</g>
			<g>
				<title>PP_kinase (PF02503)
"Polyphosphate kinase middle domain"</title>
				<rect class="PF02503" x="540" y="28" stroke-linejoin="round" width="20" height="24" fill="rgb(119,190,62)" stroke="rgb(95,152,49)" stroke-width="1" opacity="0.75" />
			</g>
			<g>
				<title>PP_kinase_N (PF13089)
"Polyphosphate kinase N-terminal domain"</title>
				<rect class="PF13089" x="561" y="28" stroke-linejoin="round" width="10" height="24" fill="rgb(82,191,81)" stroke="rgb(65,152,64)" stroke-width="1" opacity="0.75" />
			</g>
		</g>
		<g>
			<title> (ctg158_17)</title>
			<polygon class=" (ctg158_17)" points="610,25 722,25 722,10 752,40 722,70 722,55 610,55" fill="rgb(255,255,255)" fill-opacity="1.0" stroke="rgb(0,0,0)" stroke-width="2"  />
			<g>
				<title>AMP-binding (PF00501)
"AMP-binding enzyme"</title>
				<rect class="PF00501" x="628" y="28" stroke-linejoin="round" width="44" height="24" fill="rgb(60,217,223)" stroke="rgb(48,173,178)" stroke-width="1" opacity="0.75" />
			</g>
			<g>
				<title>KR (PF08659)
"KR domain"</title>
				<rect class="PF08659" x="709" y="28" stroke-linejoin="round" width="19" height="24" fill="rgb(66,209,188)" stroke="rgb(52,167,150)" stroke-width="1" opacity="0.75" />
			</g>
			<g>
				<title>PP-binding (PF00550)
"Phosphopantetheine attachment site"</title>
				<polygon class="PF00550" points="742,35 747,40 742,45" stroke-linejoin="round" width="6" height="24" fill="rgb(103,191,88)" stroke="rgb(82,152,70)" stroke-width="1" opacity="0.75" />
			</g>
		</g>
		<g>
			<title> (ctg158_18)</title>
			<polygon class=" (ctg158_18)" points="760,25 792,25 792,10 822,40 792,70 792,55 760,55" fill="rgb(255,255,255)" fill-opacity="1.0" stroke="rgb(0,0,0)" stroke-width="2"  />
			<g>
				<title>TubC_N (PF18563)
"TubC N-terminal docking domain"</title>
				<rect class="PF18563" x="760" y="28" stroke-linejoin="round" width="5" height="24" fill="rgb(95,217,77)" stroke="rgb(75,173,61)" stroke-width="1" opacity="0.75" />
			</g>
			<g>
				<title>FAD_binding_3 (PF01494)
"FAD binding domain"</title>
				<rect class="PF01494" x="766" y="28" stroke-linejoin="round" width="24" height="24" fill="rgb(182,175,59)" stroke="rgb(145,140,47)" stroke-width="1" opacity="0.75" />
			</g>
		</g>
		<g>
			<title> (ctg158_19)</title>
			<polygon class=" (ctg158_19)" points="827,25 956,25 956,10 986,40 956,70 956,55 827,55" fill="rgb(255,255,255)" fill-opacity="1.0" stroke="rgb(0,0,0)" stroke-width="2"  />
			<g>
				<title>TubC_N (PF18563)
"TubC N-terminal docking domain"</title>
				<rect class="PF18563" x="827" y="28" stroke-linejoin="round" width="5" height="24" fill="rgb(95,217,77)" stroke="rgb(75,173,61)" stroke-width="1" opacity="0.75" />
			</g>
			<g>
				<title>Condensation (PF00668)
"Condensation domain"</title>
				<rect class="PF00668" x="834" y="28" stroke-linejoin="round" width="44" height="24" fill="rgb(224,184,98)" stroke="rgb(179,147,78)" stroke-width="1" opacity="0.75" />
			</g>
			<g>
				<title>AMP-binding (PF00501)
"AMP-binding enzyme"</title>
				<rect class="PF00501" x="880" y="28" stroke-linejoin="round" width="39" height="24" fill="rgb(60,217,223)" stroke="rgb(48,173,178)" stroke-width="1" opacity="0.75" />
			</g>
			<g>
				<title>AMP-binding_C (PF13193)
"AMP-binding enzyme C-terminal domain"</title>
				<rect class="PF13193" x="921" y="28" stroke-linejoin="round" width="7" height="24" fill="rgb(182,50,118)" stroke="rgb(145,39,94)" stroke-width="1" opacity="0.75" />
			</g>
			<g>
				<title>PP-binding (PF00550)
"Phosphopantetheine attachment site"</title>
				<rect class="PF00550" x="931" y="28" stroke-linejoin="round" width="6" height="24" fill="rgb(103,191,88)" stroke="rgb(82,152,70)" stroke-width="1" opacity="0.75" />
			</g>
			<g>
				<title>Condensation (PF00668)
"Condensation domain"</title>
				<polygon class="PF00668" points="939,28 970,28 982,40 970,52 939,52" stroke-linejoin="round" width="45" height="24" fill="rgb(224,184,98)" stroke="rgb(179,147,78)" stroke-width="1" opacity="0.75" />
			</g>
		</g>
		<g>
			<title> (ctg158_20)</title>
			<polygon class=" (ctg158_20)" points="988,25 992,25 992,10 1022,40 992,70 992,55 988,55" fill="rgb(255,255,255)" fill-opacity="1.0" stroke="rgb(0,0,0)" stroke-width="2"  />
			<g>
				<title>FMN_dh (PF01070)
"FMN-dependent dehydrogenase"</title>
				<rect class="PF01070" x="988" y="28" stroke-linejoin="round" width="10" height="24" fill="rgb(59,82,204)" stroke="rgb(47,65,163)" stroke-width="1" opacity="0.75" />
			</g>
			<g>
				<title>FMN_dh (PF01070)
"FMN-dependent dehydrogenase"</title>
				<polygon class="PF01070" points="1003,28 1006,28 1018,40 1006,52 1003,52" stroke-linejoin="round" width="19" height="24" fill="rgb(59,82,204)" stroke="rgb(47,65,163)" stroke-width="1" opacity="0.75" />
			</g>
		</g>
		<g>
			<title> (ctg158_21)</title>
			<polygon class=" (ctg158_21)" points="1022,10 1043,40 1022,70" fill="rgb(255,255,255)" fill-opacity="1.0" stroke="rgb(0,0,0)" stroke-width="2"  />
		</g>
		<g>
			<title> (ctg158_22)</title>
			<polygon class=" (ctg158_22)" points="1046,10 1066,40 1046,70" fill="rgb(255,255,255)" fill-opacity="1.0" stroke="rgb(0,0,0)" stroke-width="2"  />
			<g>
				<title>Cupin_2 (PF07883)
"Cupin domain"</title>
				<rect class="PF07883" x="1049" y="28" stroke-linejoin="round" width="6" height="24" fill="rgb(211,192,74)" stroke="rgb(168,153,59)" stroke-width="1" opacity="0.75" />
			</g>
			<g>
				<title>Cupin_2 (PF07883)
"Cupin domain"</title>
				<polygon class="PF07883" points="1059,34 1063,40 1059,46" stroke-linejoin="round" width="6" height="24" fill="rgb(211,192,74)" stroke="rgb(168,153,59)" stroke-width="1" opacity="0.75" />
			</g>
		</g>
		<g>
			<title> (ctg158_23)</title>
			<polygon class=" (ctg158_23)" points="1069,10 1095,40 1069,70" fill="rgb(255,255,255)" fill-opacity="1.0" stroke="rgb(0,0,0)" stroke-width="2"  />
			<g>
				<title>adh_short_C2 (PF13561)
"Enoyl-(Acyl carrier protein) reductase"</title>
				<polygon class="PF13561" points="1070,28 1080,28 1091,40 1080,52 1070,52" stroke-linejoin="round" width="24" height="24" fill="rgb(73,205,127)" stroke="rgb(58,164,101)" stroke-width="1" opacity="0.75" />
			</g>
		</g>
		<g>
			<title> (ctg158_24)</title>
			<polygon class=" (ctg158_24)" points="1097,25 1098,25 1098,10 1128,40 1098,70 1098,55 1097,55" fill="rgb(255,255,255)" fill-opacity="1.0" stroke="rgb(0,0,0)" stroke-width="2"  />
			<g>
				<title>NKWYS (PF10364)
"Putative capsular polysaccharide synthesis protein"</title>
				<polygon class="PF10364" points="1113,29 1124,40 1113,51" stroke-linejoin="round" width="13" height="24" fill="rgb(162,59,200)" stroke="rgb(129,47,160)" stroke-width="1" opacity="0.75" />
			</g>
		</g>
		<g>
			<title> (ctg158_25)</title>
			<polygon class=" (ctg158_25)" points="1131,25 1210,25 1210,10 1240,40 1210,70 1210,55 1131,55" fill="rgb(255,255,255)" fill-opacity="1.0" stroke="rgb(0,0,0)" stroke-width="2"  />
			<g>
				<title>Condensation (PF00668)
"Condensation domain"</title>
				<rect class="PF00668" x="1132" y="28" stroke-linejoin="round" width="44" height="24" fill="rgb(224,184,98)" stroke="rgb(179,147,78)" stroke-width="1" opacity="0.75" />
			</g>
			<g>
				<title>AMP-binding (PF00501)
"AMP-binding enzyme"</title>
				<rect class="PF00501" x="1179" y="28" stroke-linejoin="round" width="40" height="24" fill="rgb(60,217,223)" stroke="rgb(48,173,178)" stroke-width="1" opacity="0.75" />
			</g>
			<g>
				<title>AMP-binding_C (PF13193)
"AMP-binding enzyme C-terminal domain"</title>
				<polygon class="PF13193" points="1219,28 1224,28 1226,30 1226,50 1224,52 1219,52" stroke-linejoin="round" width="7" height="24" fill="rgb(182,50,118)" stroke="rgb(145,39,94)" stroke-width="1" opacity="0.75" />
			</g>
			<g>
				<title>PP-binding (PF00550)
"Phosphopantetheine attachment site"</title>
				<polygon class="PF00550" points="1230,34 1236,40 1236,40 1230,46" stroke-linejoin="round" width="6" height="24" fill="rgb(103,191,88)" stroke="rgb(82,152,70)" stroke-width="1" opacity="0.75" />
			</g>
		</g>
		<g>
			<title> (ctg158_26)</title>
			<polygon class=" (ctg158_26)" points="1242,10 1267,40 1242,70" fill="rgb(255,255,255)" fill-opacity="1.0" stroke="rgb(0,0,0)" stroke-width="2"  />
			<g>
				<title>adh_short_C2 (PF13561)
"Enoyl-(Acyl carrier protein) reductase"</title>
				<polygon class="PF13561" points="1243,28 1254,28 1263,40 1254,52 1243,52" stroke-linejoin="round" width="23" height="24" fill="rgb(73,205,127)" stroke="rgb(58,164,101)" stroke-width="1" opacity="0.75" />
			</g>
		</g>
		<g>
			<title> (ctg158_27)</title>
			<polygon class=" (ctg158_27)" points="1271,25 1390,25 1390,10 1420,40 1390,70 1390,55 1271,55" fill="rgb(255,255,255)" fill-opacity="1.0" stroke="rgb(0,0,0)" stroke-width="2"  />
			<g>
				<title>Condensation (PF00668)
"Condensation domain"</title>
				<rect class="PF00668" x="1274" y="28" stroke-linejoin="round" width="44" height="24" fill="rgb(224,184,98)" stroke="rgb(179,147,78)" stroke-width="1" opacity="0.75" />
			</g>
			<g>
				<title>AMP-binding (PF00501)
"AMP-binding enzyme"</title>
				<rect class="PF00501" x="1321" y="28" stroke-linejoin="round" width="41" height="24" fill="rgb(60,217,223)" stroke="rgb(48,173,178)" stroke-width="1" opacity="0.75" />
			</g>
			<g>
				<title>AMP-binding_C (PF13193)
"AMP-binding enzyme C-terminal domain"</title>
				<rect class="PF13193" x="1363" y="28" stroke-linejoin="round" width="7" height="24" fill="rgb(182,50,118)" stroke="rgb(145,39,94)" stroke-width="1" opacity="0.75" />
			</g>
			<g>
				<title>PP-binding (PF00550)
"Phosphopantetheine attachment site"</title>
				<rect class="PF00550" x="1373" y="28" stroke-linejoin="round" width="6" height="24" fill="rgb(103,191,88)" stroke="rgb(82,152,70)" stroke-width="1" opacity="0.75" />
			</g>
			<g>
				<title>NAD_binding_4 (PF07993)
"Male sterility protein"</title>
				<polygon class="PF07993" points="1384,28 1403,28 1407,32 1407,48 1403,52 1384,52" stroke-linejoin="round" width="23" height="24" fill="rgb(100,212,204)" stroke="rgb(80,169,163)" stroke-width="1" opacity="0.75" />
			</g>
		</g>
		<g>
			<title> (ctg158_28)</title>
			<polygon class=" (ctg158_28)" points="1423,10 1439,40 1423,70" fill="rgb(255,255,255)" fill-opacity="1.0" stroke="rgb(0,0,0)" stroke-width="2"  />
		</g>
		<g>
			<title> (ctg158_29)</title>
			<polygon class=" (ctg158_29)" points="1450,25 1486,25 1486,10 1516,40 1486,70 1486,55 1450,55" fill="rgb(255,255,255)" fill-opacity="1.0" stroke="rgb(0,0,0)" stroke-width="2"  />
			<g>
				<title>ABC_membrane_2 (PF06472)
"ABC transporter transmembrane region 2"</title>
				<rect class="PF06472" x="1454" y="28" stroke-linejoin="round" width="25" height="24" fill="rgb(120,179,45)" stroke="rgb(96,143,36)" stroke-width="1" opacity="0.75" />
			</g>
			<g>
				<title>ABC_tran (PF00005)
"ABC transporter"</title>
				<polygon class="PF00005" points="1489,28 1500,28 1502,30 1502,50 1500,52 1489,52" stroke-linejoin="round" width="13" height="24" fill="rgb(129,201,63)" stroke="rgb(103,160,50)" stroke-width="1" opacity="0.75" />
			</g>
		</g>
		<g>
			<title> (ctg158_30)</title>
			<polygon class=" (ctg158_30)" points="1520,40 1535,10 1535,70" fill="rgb(255,255,255)" fill-opacity="1.0" stroke="rgb(0,0,0)" stroke-width="2"  />
		</g>
		<g>
			<title> (ctg158_31)</title>
			<polygon class=" (ctg158_31)" points="1537,10 1560,40 1537,70" fill="rgb(255,255,255)" fill-opacity="1.0" stroke="rgb(0,0,0)" stroke-width="2"  />
		</g>
		<g>
			<title> (ctg158_32)</title>
			<polygon class=" (ctg158_32)" points="1578,25 1585,25 1585,10 1615,40 1585,70 1585,55 1578,55" fill="rgb(255,255,255)" fill-opacity="1.0" stroke="rgb(0,0,0)" stroke-width="2"  />
			<g>
				<title>NADHdh (PF00146)
"NADH dehydrogenase"</title>
				<polygon class="PF00146" points="1581,28 1599,28 1611,40 1599,52 1581,52" stroke-linejoin="round" width="32" height="24" fill="rgb(184,56,88)" stroke="rgb(147,44,70)" stroke-width="1" opacity="0.75" />
			</g>
		</g>
		<g>
			<title> (ctg158_33)</title>
			<polygon class=" (ctg158_33)" points="1617,10 1636,40 1617,70" fill="rgb(255,255,255)" fill-opacity="1.0" stroke="rgb(0,0,0)" stroke-width="2"  />
			<g>
				<title>Fer4_7 (PF12838)
"4Fe-4S dicluster domain"</title>
				<polygon class="PF12838" points="1623,28 1624,28 1628,33 1628,47 1624,52 1623,52" stroke-linejoin="round" width="5" height="24" fill="rgb(138,229,96)" stroke="rgb(110,183,76)" stroke-width="1" opacity="0.75" />
			</g>
		</g>
		<g>
			<title> (ctg158_34)</title>
			<polygon class=" (ctg158_34)" points="1639,10 1658,40 1639,70" fill="rgb(255,255,255)" fill-opacity="1.0" stroke="rgb(0,0,0)" stroke-width="2"  />
			<g>
				<title>Oxidored_q3 (PF00499)
"NADH-ubiquinone/plastoquinone oxidoreductase chain 6"</title>
				<polygon class="PF00499" points="1641,28 1647,28 1655,40 1655,40 1647,52 1641,52" stroke-linejoin="round" width="14" height="24" fill="rgb(189,145,91)" stroke="rgb(151,116,72)" stroke-width="1" opacity="0.75" />
			</g>
		</g>
		<g>
			<title> (ctg158_35)</title>
			<polygon class=" (ctg158_35)" points="1660,10 1670,40 1660,70" fill="rgb(255,255,255)" fill-opacity="1.0" stroke="rgb(0,0,0)" stroke-width="2"  />
			<g>
				<title>Oxidored_q2 (PF00420)
"NADH-ubiquinone/plastoquinone oxidoreductase chain 4L"</title>
				<polygon class="PF00420" points="1660,28 1662,28 1667,40 1662,52 1660,52" stroke-linejoin="round" width="9" height="24" fill="rgb(73,55,194)" stroke="rgb(58,44,155)" stroke-width="1" opacity="0.75" />
			</g>
		</g>
		<g>
			<title> (ctg158_36)</title>
			<polygon class=" (ctg158_36)" points="1712,25 1702,25 1702,10 1672,40 1702,70 1702,55 1712,55" fill="rgb(255,255,255)" fill-opacity="1.0" stroke="rgb(0,0,0)" stroke-width="2"  />
			<g>
				<title>LptC (PF06835)
"Lipopolysaccharide-assembly, LptC-related"</title>
				<rect class="PF06835" x="1694" y="28" stroke-linejoin="round" width="14" height="24" fill="rgb(193,93,52)" stroke="rgb(154,74,41)" stroke-width="1" opacity="0.75" />
			</g>
		</g>
		<g>
			<title> (ctg158_37)</title>
			<polygon class=" (ctg158_37)" points="1778,25 1751,25 1751,10 1721,40 1751,70 1751,55 1778,55" fill="rgb(255,255,255)" fill-opacity="1.0" stroke="rgb(0,0,0)" stroke-width="2"  />
			<g>
				<title>DUF1524 (PF07510)
"Protein of unknown function (DUF1524)"</title>
				<polygon class="PF07510" points="1725,40 1734,31 1734,49" stroke-linejoin="round" width="13" height="24" fill="rgb(220,94,137)" stroke="rgb(176,75,109)" stroke-width="1" opacity="0.75" />
			</g>
			<g>
				<title>DUF262 (PF03235)
"Protein of unknown function DUF262"</title>
				<rect class="PF03235" x="1756" y="28" stroke-linejoin="round" width="21" height="24" fill="rgb(101,154,211)" stroke="rgb(80,123,168)" stroke-width="1" opacity="0.75" />
			</g>
		</g>
		<g>
			<title> (ctg158_38)</title>
			<polygon class=" (ctg158_38)" points="1833,25 1824,25 1824,10 1794,40 1824,70 1824,55 1833,55" fill="rgb(255,255,255)" fill-opacity="1.0" stroke="rgb(0,0,0)" stroke-width="2"  />
			<g>
				<title>PDZ_2 (PF13180)
"PDZ domain"</title>
				<polygon class="PF13180" points="1798,40 1804,34 1804,46" stroke-linejoin="round" width="9" height="24" fill="rgb(128,192,48)" stroke="rgb(102,153,38)" stroke-width="1" opacity="0.75" />
			</g>
			<g>
				<title>Trypsin_2 (PF13365)
"Trypsin-like peptidase domain"</title>
				<polygon class="PF13365" points="1808,30 1810,28 1821,28 1821,52 1810,52 1808,50" stroke-linejoin="round" width="13" height="24" fill="rgb(126,86,188)" stroke="rgb(100,68,150)" stroke-width="1" opacity="0.75" />
			</g>
		</g>
		<g>
			<title> (ctg158_39)</title>
			<polygon class=" (ctg158_39)" points="1845,25 1847,25 1847,10 1877,40 1847,70 1847,55 1845,55" fill="rgb(255,255,255)" fill-opacity="1.0" stroke="rgb(0,0,0)" stroke-width="2"  />
			<g>
				<title>Methyltransf_21 (PF05050)
"Methyltransferase FkbM domain"</title>
				<polygon class="PF05050" points="1852,28 1861,28 1868,35 1868,45 1861,52 1852,52" stroke-linejoin="round" width="16" height="24" fill="rgb(95,204,52)" stroke="rgb(76,163,41)" stroke-width="1" opacity="0.75" />
			</g>
		</g>
		<g>
			<title> (ctg158_40)</title>
			<polygon class=" (ctg158_40)" points="1881,25 1895,25 1895,10 1925,40 1895,70 1895,55 1881,55" fill="rgb(255,255,255)" fill-opacity="1.0" stroke="rgb(0,0,0)" stroke-width="2"  />
			<g>
				<title>Mur_ligase_M (PF08245)
"Mur ligase middle domain"</title>
				<rect class="PF08245" x="1887" y="28" stroke-linejoin="round" width="21" height="24" fill="rgb(57,133,195)" stroke="rgb(45,106,156)" stroke-width="1" opacity="0.75" />
			</g>
			<g>
				<title>MurT_C (PF08353)
"MurT ligase C-terminal"</title>
				<polygon class="PF08353" points="1912,31 1921,40 1912,49" stroke-linejoin="round" width="11" height="24" fill="rgb(104,202,99)" stroke="rgb(83,161,79)" stroke-width="1" opacity="0.75" />
			</g>
		</g>
		<g>
			<title> (ctg158_41)</title>
			<polygon class=" (ctg158_41)" points="1929,10 1955,40 1929,70" fill="rgb(255,255,255)" fill-opacity="1.0" stroke="rgb(0,0,0)" stroke-width="2"  />
			<g>
				<title>GATase_3 (PF07685)
"CobB/CobQ-like glutamine amidotransferase domain"</title>
				<polygon class="PF07685" points="1929,28 1940,28 1950,39 1950,41 1940,52 1929,52" stroke-linejoin="round" width="21" height="24" fill="rgb(206,104,226)" stroke="rgb(164,83,180)" stroke-width="1" opacity="0.75" />
			</g>
		</g>
		<g>
			<title> (ctg158_42)</title>
			<polygon class=" (ctg158_42)" points="1959,25 1959,25 1959,10 1989,40 1959,70 1959,55 1959,55" fill="rgb(255,255,255)" fill-opacity="1.0" stroke="rgb(0,0,0)" stroke-width="2"  />
		</g>
		<g>
			<title> (ctg158_43)</title>
			<polygon class=" (ctg158_43)" points="1992,40 2011,10 2011,70" fill="rgb(255,255,255)" fill-opacity="1.0" stroke="rgb(0,0,0)" stroke-width="2"  />
			<g>
				<title>Cupin_7 (PF12973)
"ChrR Cupin-like domain"</title>
				<polygon class="PF12973" points="1996,40 2002,31 2002,49" stroke-linejoin="round" width="8" height="24" fill="rgb(121,57,179)" stroke="rgb(96,45,143)" stroke-width="1" opacity="0.75" />
			</g>
			<g>
				<title>Cupin_7 (PF12973)
"ChrR Cupin-like domain"</title>
				<polygon class="PF12973" points="2004,28 2004,28 2010,28 2010,52 2004,52 2004,52" stroke-linejoin="round" width="6" height="24" fill="rgb(121,57,179)" stroke="rgb(96,45,143)" stroke-width="1" opacity="0.75" />
			</g>
		</g>
		<g>
			<title> (ctg158_44)</title>
			<polygon class=" (ctg158_44)" points="2044,10 2057,40 2044,70" fill="rgb(255,255,255)" fill-opacity="1.0" stroke="rgb(0,0,0)" stroke-width="2"  />
		</g>
	</g>
</svg>
