<svg version="1.1" baseProfile="full" xmlns="http://www.w3.org/2000/svg" width="381.1666666666667" height="80">
	<g>
		<line x1="10" y1="40.0" x2="371.1666666666667" y2="40.0" style="stroke:rgb(70,70,70); stroke-width:3 "/>
		<g>
			<title> (ctg176_1)</title>
			<polygon class=" (ctg176_1)" points="10,10 37,40 10,70" fill="rgb(255,255,255)" fill-opacity="1.0" stroke="rgb(0,0,0)" stroke-width="2"  />
			<g>
				<title>PatG_D (PF18047)
"PatG Domain"</title>
				<polygon class="PF18047" points="15,28 22,28 26,32 26,48 22,52 15,52" stroke-linejoin="round" width="11" height="24" fill="rgb(91,195,69)" stroke="rgb(72,156,55)" stroke-width="1" opacity="0.75" />
			</g>
			<g>
				<title>PatG_C (PF18065)
"PatG C-terminal"</title>
				<polygon class="PF18065" points="30,36 33,40 30,44" stroke-linejoin="round" width="6" height="24" fill="rgb(93,82,184)" stroke="rgb(74,65,147)" stroke-width="1" opacity="0.75" />
			</g>
		</g>
		<g>
			<title> (ctg176_2)</title>
			<polygon class=" (ctg176_2)" points="38,10 42,40 38,70" fill="rgb(255,255,255)" fill-opacity="1.0" stroke="rgb(0,0,0)" stroke-width="2"  />
			<g>
				<title>PatG_C (PF18065)
"PatG C-terminal"</title>
				<polygon class="PF18065" points="38,32 39,40 38,48" stroke-linejoin="round" width="3" height="24" fill="rgb(93,82,184)" stroke="rgb(74,65,147)" stroke-width="1" opacity="0.75" />
			</g>
		</g>
		<g>
			<title> (ctg176_3)</title>
			<polygon class=" (ctg176_3)" points="52,25 56,25 56,10 86,40 56,70 56,55 52,55" fill="rgb(255,255,255)" fill-opacity="1.0" stroke="rgb(0,0,0)" stroke-width="2"  />
			<g>
				<title>Aldo_ket_red (PF00248)
"Aldo/keto reductase family"</title>
				<polygon class="PF00248" points="53,28 69,28 81,40 69,52 53,52" stroke-linejoin="round" width="29" height="24" fill="rgb(225,205,58)" stroke="rgb(180,164,46)" stroke-width="1" opacity="0.75" />
			</g>
		</g>
		<g>
			<title> (ctg176_4)</title>
			<polygon class=" (ctg176_4)" points="86,10 99,40 86,70" fill="rgb(255,255,255)" fill-opacity="1.0" stroke="rgb(0,0,0)" stroke-width="2"  />
			<g>
				<title>GGACT (PF06094)
"Gamma-glutamyl cyclotransferase, AIG2-like"</title>
				<polygon class="PF06094" points="86,28 90,28 96,40 90,52 86,52" stroke-linejoin="round" width="12" height="24" fill="rgb(227,229,113)" stroke="rgb(181,183,90)" stroke-width="1" opacity="0.75" />
			</g>
		</g>
		<g>
			<title> (ctg176_5)</title>
			<polygon class=" (ctg176_5)" points="102,10 108,40 102,70" fill="rgb(255,255,255)" fill-opacity="1.0" stroke="rgb(0,0,0)" stroke-width="2"  />
		</g>
		<g>
			<title> (ctg176_6)</title>
			<polygon class=" (ctg176_6)" points="116,10 142,40 116,70" fill="rgb(255,255,255)" fill-opacity="1.0" stroke="rgb(0,0,0)" stroke-width="2"  />
			<g>
				<title>Exo_endo_phos (PF03372)
"Endonuclease/Exonuclease/phosphatase family"</title>
				<polygon class="PF03372" points="116,28 128,28 138,40 128,52 116,52" stroke-linejoin="round" width="24" height="24" fill="rgb(76,66,180)" stroke="rgb(60,52,144)" stroke-width="1" opacity="0.75" />
			</g>
		</g>
		<g>
			<title> (ctg176_7)</title>
			<polygon class=" (ctg176_7)" points="149,40 166,10 166,70" fill="rgb(255,255,255)" fill-opacity="1.0" stroke="rgb(0,0,0)" stroke-width="2"  />
			<g>
				<title>Pribosyltran (PF00156)
"Phosphoribosyl transferase domain"</title>
				<polygon class="PF00156" points="152,40 159,28 166,28 166,52 159,52" stroke-linejoin="round" width="16" height="24" fill="rgb(210,210,74)" stroke="rgb(168,168,59)" stroke-width="1" opacity="0.75" />
			</g>
		</g>
		<g>
			<title> (ctg176_8)</title>
			<polygon class=" (ctg176_8)" points="171,25 187,25 187,10 217,40 187,70 187,55 171,55" fill="rgb(255,255,255)" fill-opacity="1.0" stroke="rgb(0,0,0)" stroke-width="2"  />
			<g>
				<title>Amidase (PF01425)
"Amidase"</title>
				<polygon class="PF01425" points="173,28 200,28 212,40 200,52 173,52" stroke-linejoin="round" width="42" height="24" fill="rgb(195,142,64)" stroke="rgb(156,113,51)" stroke-width="1" opacity="0.75" />
			</g>
		</g>
		<g>
			<title> (ctg176_9)</title>
			<polygon class=" (ctg176_9)" points="217,40 244,10 244,70" fill="rgb(255,255,255)" fill-opacity="1.0" stroke="rgb(0,0,0)" stroke-width="2"  />
			<g>
				<title>ABC_tran (PF00005)
"ABC transporter"</title>
				<polygon class="PF00005" points="227,34 232,28 241,28 241,52 232,52 227,46" stroke-linejoin="round" width="14" height="24" fill="rgb(129,201,63)" stroke="rgb(103,160,50)" stroke-width="1" opacity="0.75" />
			</g>
		</g>
		<g>
			<title> (ctg176_10)</title>
			<polygon class=" (ctg176_10)" points="245,40 271,10 271,70" fill="rgb(255,255,255)" fill-opacity="1.0" stroke="rgb(0,0,0)" stroke-width="2"  />
			<g>
				<title>CbiQ (PF02361)
"Cobalt transport protein"</title>
				<polygon class="PF02361" points="249,40 260,28 270,28 270,52 260,52" stroke-linejoin="round" width="22" height="24" fill="rgb(217,92,216)" stroke="rgb(173,73,172)" stroke-width="1" opacity="0.75" />
			</g>
		</g>
		<g>
			<title> (ctg176_11)</title>
			<polygon class=" (ctg176_11)" points="272,40 282,10 282,70" fill="rgb(255,255,255)" fill-opacity="1.0" stroke="rgb(0,0,0)" stroke-width="2"  />
			<g>
				<title>CbiN (PF02553)
"Cobalt transport protein component CbiN"</title>
				<polygon class="PF02553" points="275,40 279,28 281,28 281,52 279,52 275,40" stroke-linejoin="round" width="6" height="24" fill="rgb(68,81,221)" stroke="rgb(54,64,176)" stroke-width="1" opacity="0.75" />
			</g>
		</g>
		<g>
			<title> (ctg176_12)</title>
			<polygon class=" (ctg176_12)" points="283,40 305,10 305,70" fill="rgb(255,255,255)" fill-opacity="1.0" stroke="rgb(0,0,0)" stroke-width="2"  />
			<g>
				<title>CbiM (PF01891)
"Cobalt uptake substrate-specific transmembrane region"</title>
				<polygon class="PF01891" points="287,40 296,28 304,28 304,52 296,52" stroke-linejoin="round" width="20" height="24" fill="rgb(84,193,129)" stroke="rgb(67,154,103)" stroke-width="1" opacity="0.75" />
			</g>
		</g>
	</g>
</svg>
