<svg version="1.1" baseProfile="full" xmlns="http://www.w3.org/2000/svg" width="1071.6" height="80">
	<g>
		<line x1="10" y1="40.0" x2="1061.6" y2="40.0" style="stroke:rgb(70,70,70); stroke-width:3 "/>
		<g>
			<title> (ctg202_1)</title>
			<polygon class=" (ctg202_1)" points="82,25 42,25 42,10 12,40 42,70 42,55 82,55" fill="rgb(255,255,255)" fill-opacity="1.0" stroke="rgb(0,0,0)" stroke-width="2"  />
			<g>
				<title>DUF4976 (PF16347)
"Domain of unknown function (DUF4976)"</title>
				<polygon class="PF16347" points="16,40 26,30 26,50 16,40" stroke-linejoin="round" width="10" height="24" fill="rgb(122,75,207)" stroke="rgb(97,60,165)" stroke-width="1" opacity="0.75" />
			</g>
			<g>
				<title>Sulfatase (PF00884)
"Sulfatase"</title>
				<polygon class="PF00884" points="27,29 28,28 70,28 70,52 28,52 27,51" stroke-linejoin="round" width="43" height="24" fill="rgb(61,103,198)" stroke="rgb(48,82,158)" stroke-width="1" opacity="0.75" />
			</g>
		</g>
		<g>
			<title> (ctg202_2)</title>
			<polygon class=" (ctg202_2)" points="98,40 117,10 117,70" fill="rgb(255,255,255)" fill-opacity="1.0" stroke="rgb(0,0,0)" stroke-width="2"  />
		</g>
		<g>
			<title> (ctg202_3)</title>
			<polygon class=" (ctg202_3)" points="130,25 147,25 147,10 177,40 147,70 147,55 130,55" fill="rgb(255,255,255)" fill-opacity="1.0" stroke="rgb(0,0,0)" stroke-width="2"  />
			<g>
				<title>AMP-binding (PF00501)
"AMP-binding enzyme"</title>
				<polygon class="PF00501" points="139,28 161,28 166,33 166,47 161,52 139,52" stroke-linejoin="round" width="27" height="24" fill="rgb(60,217,223)" stroke="rgb(48,173,178)" stroke-width="1" opacity="0.75" />
			</g>
			<g>
				<title>AMP-binding_C (PF13193)
"AMP-binding enzyme C-terminal domain"</title>
				<polygon class="PF13193" points="168,35 173,40 168,45" stroke-linejoin="round" width="7" height="24" fill="rgb(182,50,118)" stroke="rgb(145,39,94)" stroke-width="1" opacity="0.75" />
			</g>
		</g>
		<g>
			<title> (ctg202_4)</title>
			<polygon class=" (ctg202_4)" points="177,10 186,40 177,70" fill="rgb(255,255,255)" fill-opacity="1.0" stroke="rgb(0,0,0)" stroke-width="2"  />
			<g>
				<title>PP-binding (PF00550)
"Phosphopantetheine attachment site"</title>
				<polygon class="PF00550" points="177,28 179,28 183,40 179,52 177,52" stroke-linejoin="round" width="7" height="24" fill="rgb(103,191,88)" stroke="rgb(82,152,70)" stroke-width="1" opacity="0.75" />
			</g>
		</g>
		<g>
			<title> (ctg202_5)</title>
			<polygon class=" (ctg202_5)" points="188,25 201,25 201,10 231,40 201,70 201,55 188,55" fill="rgb(255,255,255)" fill-opacity="1.0" stroke="rgb(0,0,0)" stroke-width="2"  />
			<g>
				<title>Radical_SAM (PF04055)
"Radical SAM superfamily"</title>
				<rect class="PF04055" x="192" y="28" stroke-linejoin="round" width="17" height="24" fill="rgb(149,56,222)" stroke="rgb(119,44,177)" stroke-width="1" opacity="0.75" />
			</g>
			<g>
				<title>HemN_C (PF06969)
"HemN C-terminal domain"</title>
				<polygon class="PF06969" points="223,36 227,40 223,44" stroke-linejoin="round" width="6" height="24" fill="rgb(84,206,223)" stroke="rgb(67,164,178)" stroke-width="1" opacity="0.75" />
			</g>
		</g>
		<g>
			<title> (ctg202_6)</title>
			<polygon class=" (ctg202_6)" points="235,25 250,25 250,10 280,40 250,70 250,55 235,55" fill="rgb(255,255,255)" fill-opacity="1.0" stroke="rgb(0,0,0)" stroke-width="2"  />
			<g>
				<title>Sulfotransfer_3 (PF13469)
"Sulfotransferase family"</title>
				<polygon class="PF13469" points="252,28 263,28 274,39 274,41 263,52 252,52" stroke-linejoin="round" width="22" height="24" fill="rgb(59,182,84)" stroke="rgb(47,145,67)" stroke-width="1" opacity="0.75" />
			</g>
		</g>
		<g>
			<title> (ctg202_7)</title>
			<polygon class=" (ctg202_7)" points="285,25 364,25 364,10 394,40 364,70 364,55 285,55" fill="rgb(255,255,255)" fill-opacity="1.0" stroke="rgb(0,0,0)" stroke-width="2"  />
			<g>
				<title>AMP-binding (PF00501)
"AMP-binding enzyme"</title>
				<rect class="PF00501" x="287" y="28" stroke-linejoin="round" width="38" height="24" fill="rgb(60,217,223)" stroke="rgb(48,173,178)" stroke-width="1" opacity="0.75" />
			</g>
			<g>
				<title>AMP-binding_C (PF13193)
"AMP-binding enzyme C-terminal domain"</title>
				<rect class="PF13193" x="327" y="28" stroke-linejoin="round" width="7" height="24" fill="rgb(182,50,118)" stroke="rgb(145,39,94)" stroke-width="1" opacity="0.75" />
			</g>
			<g>
				<title>PP-binding (PF00550)
"Phosphopantetheine attachment site"</title>
				<rect class="PF00550" x="338" y="28" stroke-linejoin="round" width="6" height="24" fill="rgb(103,191,88)" stroke="rgb(82,152,70)" stroke-width="1" opacity="0.75" />
			</g>
			<g>
				<title>Condensation (PF00668)
"Condensation domain"</title>
				<polygon class="PF00668" points="348,28 377,28 389,40 377,52 348,52" stroke-linejoin="round" width="45" height="24" fill="rgb(224,184,98)" stroke="rgb(179,147,78)" stroke-width="1" opacity="0.75" />
			</g>
		</g>
		<g>
			<title> (ctg202_8)</title>
			<polygon class=" (ctg202_8)" points="438,25 428,25 428,10 398,40 428,70 428,55 438,55" fill="rgb(255,255,255)" fill-opacity="1.0" stroke="rgb(0,0,0)" stroke-width="2"  />
			<g>
				<title>NAD_binding_4 (PF07993)
"Male sterility protein"</title>
				<polygon class="PF07993" points="410,32 414,28 433,28 433,52 414,52 410,48" stroke-linejoin="round" width="23" height="24" fill="rgb(100,212,204)" stroke="rgb(80,169,163)" stroke-width="1" opacity="0.75" />
			</g>
		</g>
		<g>
			<title> (ctg202_9)</title>
			<polygon class=" (ctg202_9)" points="438,40 465,10 465,70" fill="rgb(255,255,255)" fill-opacity="1.0" stroke="rgb(0,0,0)" stroke-width="2"  />
		</g>
		<g>
			<title> (ctg202_10)</title>
			<polygon class=" (ctg202_10)" points="468,40 494,10 494,70" fill="rgb(255,255,255)" fill-opacity="1.0" stroke="rgb(0,0,0)" stroke-width="2"  />
		</g>
		<g>
			<title> (ctg202_11)</title>
			<polygon class=" (ctg202_11)" points="497,40 524,10 524,70" fill="rgb(255,255,255)" fill-opacity="1.0" stroke="rgb(0,0,0)" stroke-width="2"  />
		</g>
		<g>
			<title> (ctg202_12)</title>
			<polygon class=" (ctg202_12)" points="527,40 554,10 554,70" fill="rgb(255,255,255)" fill-opacity="1.0" stroke="rgb(0,0,0)" stroke-width="2"  />
		</g>
		<g>
			<title> (ctg202_13)</title>
			<polygon class=" (ctg202_13)" points="557,40 586,10 586,70" fill="rgb(255,255,255)" fill-opacity="1.0" stroke="rgb(0,0,0)" stroke-width="2"  />
			<g>
				<title>Sulfotransfer_1 (PF00685)
"Sulfotransferase domain"</title>
				<polygon class="PF00685" points="561,40 573,28 584,28 584,52 573,52" stroke-linejoin="round" width="27" height="24" fill="rgb(66,135,208)" stroke="rgb(52,107,166)" stroke-width="1" opacity="0.75" />
			</g>
		</g>
		<g>
			<title> (ctg202_14)</title>
			<polygon class=" (ctg202_14)" points="631,25 617,25 617,10 587,40 617,70 617,55 631,55" fill="rgb(255,255,255)" fill-opacity="1.0" stroke="rgb(0,0,0)" stroke-width="2"  />
			<g>
				<title>TPP_enzyme_C (PF02775)
"Thiamine pyrophosphate enzyme, C-terminal TPP binding domain"</title>
				<polygon class="PF02775" points="591,40 602,29 602,51" stroke-linejoin="round" width="14" height="24" fill="rgb(156,179,45)" stroke="rgb(124,143,36)" stroke-width="1" opacity="0.75" />
			</g>
			<g>
				<title>TPP_enzyme_M (PF00205)
"Thiamine pyrophosphate enzyme, central domain"</title>
				<rect class="PF00205" x="610" y="28" stroke-linejoin="round" width="13" height="24" fill="rgb(149,194,69)" stroke="rgb(119,155,55)" stroke-width="1" opacity="0.75" />
			</g>
		</g>
		<g>
			<title> (ctg202_15)</title>
			<polygon class=" (ctg202_15)" points="630,40 635,10 635,70" fill="rgb(255,255,255)" fill-opacity="1.0" stroke="rgb(0,0,0)" stroke-width="2"  />
		</g>
		<g>
			<title> (ctg202_16)</title>
			<polygon class=" (ctg202_16)" points="649,40 675,10 675,70" fill="rgb(255,255,255)" fill-opacity="1.0" stroke="rgb(0,0,0)" stroke-width="2"  />
			<g>
				<title>Sulfotransfer_2 (PF03567)
"Sulfotransferase family"</title>
				<polygon class="PF03567" points="653,40 664,28 672,28 672,52 664,52" stroke-linejoin="round" width="21" height="24" fill="rgb(192,80,119)" stroke="rgb(153,64,95)" stroke-width="1" opacity="0.75" />
			</g>
		</g>
		<g>
			<title> (ctg202_17)</title>
			<polygon class=" (ctg202_17)" points="680,10 700,40 680,70" fill="rgb(255,255,255)" fill-opacity="1.0" stroke="rgb(0,0,0)" stroke-width="2"  />
		</g>
		<g>
			<title> (ctg202_18)</title>
			<polygon class=" (ctg202_18)" points="705,40 724,10 724,70" fill="rgb(255,255,255)" fill-opacity="1.0" stroke="rgb(0,0,0)" stroke-width="2"  />
			<g>
				<title>RNase_HII (PF01351)
"Ribonuclease HII"</title>
				<polygon class="PF01351" points="709,40 717,28 723,28 723,52 717,52" stroke-linejoin="round" width="18" height="24" fill="rgb(76,183,124)" stroke="rgb(60,146,99)" stroke-width="1" opacity="0.75" />
			</g>
		</g>
		<g>
			<title> (ctg202_19)</title>
			<polygon class=" (ctg202_19)" points="796,25 754,25 754,10 724,40 754,70 754,55 796,55" fill="rgb(255,255,255)" fill-opacity="1.0" stroke="rgb(0,0,0)" stroke-width="2"  />
			<g>
				<title>RNase_E_G (PF10150)
"Ribonuclease E/G family"</title>
				<rect class="PF10150" x="757" y="28" stroke-linejoin="round" width="27" height="24" fill="rgb(102,220,168)" stroke="rgb(81,176,134)" stroke-width="1" opacity="0.75" />
			</g>
		</g>
		<g>
			<title> (ctg202_20)</title>
			<polygon class=" (ctg202_20)" points="819,40 823,10 823,70" fill="rgb(255,255,255)" fill-opacity="1.0" stroke="rgb(0,0,0)" stroke-width="2"  />
		</g>
		<g>
			<title> (ctg202_21)</title>
			<polygon class=" (ctg202_21)" points="826,40 851,10 851,70" fill="rgb(255,255,255)" fill-opacity="1.0" stroke="rgb(0,0,0)" stroke-width="2"  />
			<g>
				<title>DUF2232 (PF09991)
"Predicted membrane protein (DUF2232)"</title>
				<polygon class="PF09991" points="830,40 840,28 844,28 844,52 840,52" stroke-linejoin="round" width="18" height="24" fill="rgb(123,225,73)" stroke="rgb(98,180,58)" stroke-width="1" opacity="0.75" />
			</g>
		</g>
		<g>
			<title> (ctg202_22)</title>
			<polygon class=" (ctg202_22)" points="857,40 880,10 880,70" fill="rgb(255,255,255)" fill-opacity="1.0" stroke="rgb(0,0,0)" stroke-width="2"  />
			<g>
				<title>Uma2 (PF05685)
"Putative restriction endonuclease"</title>
				<polygon class="PF05685" points="862,39 870,28 877,28 877,52 870,52 862,41" stroke-linejoin="round" width="15" height="24" fill="rgb(123,107,219)" stroke="rgb(98,85,175)" stroke-width="1" opacity="0.75" />
			</g>
		</g>
		<g>
			<title> (ctg202_23)</title>
			<polygon class=" (ctg202_23)" points="926,25 913,25 913,10 883,40 913,70 913,55 926,55" fill="rgb(255,255,255)" fill-opacity="1.0" stroke="rgb(0,0,0)" stroke-width="2"  />
			<g>
				<title>ChpXY (PF10216)
"CO2 hydration protein (ChpXY)"</title>
				<polygon class="PF10216" points="887,40 899,28 923,28 923,52 899,52" stroke-linejoin="round" width="39" height="24" fill="rgb(78,155,220)" stroke="rgb(62,123,176)" stroke-width="1" opacity="0.75" />
			</g>
		</g>
		<g>
			<title> (ctg202_24)</title>
			<polygon class=" (ctg202_24)" points="986,25 965,25 965,10 935,40 965,70 965,55 986,55" fill="rgb(255,255,255)" fill-opacity="1.0" stroke="rgb(0,0,0)" stroke-width="2"  />
			<g>
				<title>Proton_antipo_M (PF00361)
"Proton-conducting membrane transporter"</title>
				<polygon class="PF00361" points="944,35 951,28 973,28 973,52 951,52 944,45" stroke-linejoin="round" width="29" height="24" fill="rgb(54,193,132)" stroke="rgb(43,154,105)" stroke-width="1" opacity="0.75" />
			</g>
			<g>
				<title>Oxidored_q5_N (PF01059)
"NADH-ubiquinone oxidoreductase chain 4, amino terminus"</title>
				<rect class="PF01059" x="974" y="28" stroke-linejoin="round" width="10" height="24" fill="rgb(100,201,163)" stroke="rgb(80,160,130)" stroke-width="1" opacity="0.75" />
			</g>
		</g>
		<g>
			<title> (ctg202_25)</title>
			<polygon class=" (ctg202_25)" points="990,40 1014,10 1014,70" fill="rgb(255,255,255)" fill-opacity="1.0" stroke="rgb(0,0,0)" stroke-width="2"  />
			<g>
				<title>Pro_CA (PF00484)
"Carbonic anhydrase"</title>
				<polygon class="PF00484" points="994,40 1004,28 1004,28 1004,52 1004,52" stroke-linejoin="round" width="14" height="24" fill="rgb(215,92,126)" stroke="rgb(172,73,100)" stroke-width="1" opacity="0.75" />
			</g>
		</g>
	</g>
</svg>
