<svg version="1.1" baseProfile="full" xmlns="http://www.w3.org/2000/svg" width="458.4" height="80">
	<g>
		<line x1="10" y1="40.0" x2="448.4" y2="40.0" style="stroke:rgb(70,70,70); stroke-width:3 "/>
		<g>
			<title> (ctg230_1)</title>
			<polygon class=" (ctg230_1)" points="10,10 14,40 10,70" fill="rgb(255,255,255)" fill-opacity="1.0" stroke="rgb(0,0,0)" stroke-width="2"  />
		</g>
		<g>
			<title> (ctg230_2)</title>
			<polygon class=" (ctg230_2)" points="12,40 19,10 19,70" fill="rgb(255,255,255)" fill-opacity="1.0" stroke="rgb(0,0,0)" stroke-width="2"  />
		</g>
		<g>
			<title> (ctg230_3)</title>
			<polygon class=" (ctg230_3)" points="56,25 49,25 49,10 19,40 49,70 49,55 56,55" fill="rgb(255,255,255)" fill-opacity="1.0" stroke="rgb(0,0,0)" stroke-width="2"  />
			<g>
				<title>Na_Ca_ex (PF01699)
"Sodium/calcium exchanger protein"</title>
				<polygon class="PF01699" points="23,40 33,30 33,50" stroke-linejoin="round" width="14" height="24" fill="rgb(64,189,136)" stroke="rgb(51,151,108)" stroke-width="1" opacity="0.75" />
			</g>
			<g>
				<title>Na_Ca_ex (PF01699)
"Sodium/calcium exchanger protein"</title>
				<rect class="PF01699" x="37" y="28" stroke-linejoin="round" width="15" height="24" fill="rgb(64,189,136)" stroke="rgb(51,151,108)" stroke-width="1" opacity="0.75" />
			</g>
		</g>
		<g>
			<title> (ctg230_4)</title>
			<polygon class=" (ctg230_4)" points="91,25 87,25 87,10 57,40 87,70 87,55 91,55" fill="rgb(255,255,255)" fill-opacity="1.0" stroke="rgb(0,0,0)" stroke-width="2"  />
		</g>
		<g>
			<title> (ctg230_5)</title>
			<polygon class=" (ctg230_5)" points="93,40 103,10 103,70" fill="rgb(255,255,255)" fill-opacity="1.0" stroke="rgb(0,0,0)" stroke-width="2"  />
			<g>
				<title>DUF5132 (PF17195)
"Protein of unknown function (DUF5132)"</title>
				<polygon class="PF17195" points="96,40 98,34 98,46" stroke-linejoin="round" width="4" height="24" fill="rgb(59,186,68)" stroke="rgb(47,148,54)" stroke-width="1" opacity="0.75" />
			</g>
		</g>
		<g>
			<title> (ctg230_6)</title>
			<polygon class=" (ctg230_6)" points="110,40 123,10 123,70" fill="rgb(255,255,255)" fill-opacity="1.0" stroke="rgb(0,0,0)" stroke-width="2"  />
		</g>
		<g>
			<title> (ctg230_7)</title>
			<polygon class=" (ctg230_7)" points="134,40 153,10 153,70" fill="rgb(255,255,255)" fill-opacity="1.0" stroke="rgb(0,0,0)" stroke-width="2"  />
			<g>
				<title>DUF454 (PF04304)
"Protein of unknown function (DUF454)"</title>
				<polygon class="PF04304" points="138,40 138,40 138,40" stroke-linejoin="round" width="4" height="24" fill="rgb(89,204,158)" stroke="rgb(71,163,126)" stroke-width="1" opacity="0.75" />
			</g>
		</g>
		<g>
			<title> (ctg230_8)</title>
			<polygon class=" (ctg230_8)" points="159,10 168,40 159,70" fill="rgb(255,255,255)" fill-opacity="1.0" stroke="rgb(0,0,0)" stroke-width="2"  />
			<g>
				<title>DUF5132 (PF17195)
"Protein of unknown function (DUF5132)"</title>
				<polygon class="PF17195" points="162,30 165,40 162,50" stroke-linejoin="round" width="4" height="24" fill="rgb(59,186,68)" stroke="rgb(47,148,54)" stroke-width="1" opacity="0.75" />
			</g>
		</g>
		<g>
			<title> (ctg230_9)</title>
			<polygon class=" (ctg230_9)" points="169,10 173,40 169,70" fill="rgb(255,255,255)" fill-opacity="1.0" stroke="rgb(0,0,0)" stroke-width="2"  />
		</g>
		<g>
			<title> (ctg230_10)</title>
			<polygon class=" (ctg230_10)" points="193,40 205,10 205,70" fill="rgb(255,255,255)" fill-opacity="1.0" stroke="rgb(0,0,0)" stroke-width="2"  />
			<g>
				<title>zf-ISL3 (PF14690)
"zinc-finger of transposase IS204/IS1001/IS1096/IS1165"</title>
				<polygon class="PF14690" points="197,38 201,28 201,28 201,52 201,52 197,42" stroke-linejoin="round" width="4" height="24" fill="rgb(94,212,144)" stroke="rgb(75,169,115)" stroke-width="1" opacity="0.75" />
			</g>
		</g>
		<g>
			<title> (ctg230_11)</title>
			<polygon class=" (ctg230_11)" points="214,10 227,40 214,70" fill="rgb(255,255,255)" fill-opacity="1.0" stroke="rgb(0,0,0)" stroke-width="2"  />
		</g>
		<g>
			<title> (ctg230_12)</title>
			<polygon class=" (ctg230_12)" points="292,25 259,25 259,10 229,40 259,70 259,55 292,55" fill="rgb(255,255,255)" fill-opacity="1.0" stroke="rgb(0,0,0)" stroke-width="2"  />
			<g>
				<title>SQHop_cyclase_C (PF13243)
"Squalene-hopene cyclase C-terminal domain"</title>
				<polygon class="PF13243" points="233,40 245,28 261,28 261,52 245,52" stroke-linejoin="round" width="32" height="24" fill="rgb(191,58,201)" stroke="rgb(152,46,160)" stroke-width="1" opacity="0.75" />
			</g>
			<g>
				<title>SQHop_cyclase_N (PF13249)
"Squalene-hopene cyclase N-terminal domain"</title>
				<rect class="PF13249" x="262" y="28" stroke-linejoin="round" width="28" height="24" fill="rgb(88,190,89)" stroke="rgb(70,152,71)" stroke-width="1" opacity="0.75" />
			</g>
		</g>
		<g>
			<title> (ctg230_13)</title>
			<polygon class=" (ctg230_13)" points="301,40 326,10 326,70" fill="rgb(255,255,255)" fill-opacity="1.0" stroke="rgb(0,0,0)" stroke-width="2"  />
			<g>
				<title>EF_TS (PF00889)
"Elongation factor TS"</title>
				<polygon class="PF00889" points="306,39 315,28 325,28 325,52 315,52 306,41" stroke-linejoin="round" width="19" height="24" fill="rgb(69,212,85)" stroke="rgb(55,169,67)" stroke-width="1" opacity="0.75" />
			</g>
		</g>
		<g>
			<title> (ctg230_14)</title>
			<polygon class=" (ctg230_14)" points="330,40 356,10 356,70" fill="rgb(255,255,255)" fill-opacity="1.0" stroke="rgb(0,0,0)" stroke-width="2"  />
			<g>
				<title>Ribosomal_S2 (PF00318)
"Ribosomal protein S2"</title>
				<polygon class="PF00318" points="334,40 345,28 355,28 355,52 345,52 334,40" stroke-linejoin="round" width="21" height="24" fill="rgb(60,213,66)" stroke="rgb(48,170,52)" stroke-width="1" opacity="0.75" />
			</g>
		</g>
		<g>
			<title> (ctg230_15)</title>
			<polygon class=" (ctg230_15)" points="362,40 377,10 377,70" fill="rgb(255,255,255)" fill-opacity="1.0" stroke="rgb(0,0,0)" stroke-width="2"  />
			<g>
				<title>AhpC-TSA (PF00578)
"AhpC/TSA family"</title>
				<polygon class="PF00578" points="365,40 371,28 376,28 376,52 371,52" stroke-linejoin="round" width="12" height="24" fill="rgb(166,71,190)" stroke="rgb(132,56,152)" stroke-width="1" opacity="0.75" />
			</g>
		</g>
		<g>
			<title> (ctg230_16)</title>
			<polygon class=" (ctg230_16)" points="378,40 406,10 406,70" fill="rgb(255,255,255)" fill-opacity="1.0" stroke="rgb(0,0,0)" stroke-width="2"  />
			<g>
				<title>Peptidase_M48 (PF01435)
"Peptidase family M48"</title>
				<polygon class="PF01435" points="388,34 393,28 396,28 396,52 393,52 388,46" stroke-linejoin="round" width="8" height="24" fill="rgb(70,152,228)" stroke="rgb(56,121,182)" stroke-width="1" opacity="0.75" />
			</g>
		</g>
		<g>
			<title> (ctg230_17)</title>
			<polygon class=" (ctg230_17)" points="406,40 422,10 422,70" fill="rgb(255,255,255)" fill-opacity="1.0" stroke="rgb(0,0,0)" stroke-width="2"  />
			<g>
				<title>Penicillinase_R (PF03965)
"Penicillinase repressor"</title>
				<polygon class="PF03965" points="409,40 416,28 417,28 417,52 416,52" stroke-linejoin="round" width="11" height="24" fill="rgb(208,59,133)" stroke="rgb(166,47,106)" stroke-width="1" opacity="0.75" />
			</g>
		</g>
		<g>
			<title> (ctg230_18)</title>
			<polygon class=" (ctg230_18)" points="423,10 432,40 423,70" fill="rgb(255,255,255)" fill-opacity="1.0" stroke="rgb(0,0,0)" stroke-width="2"  />
			<g>
				<title>DUF4090 (PF13319)
"Protein of unknown function (DUF4090)"</title>
				<polygon class="PF13319" points="424,28 425,28 429,40 425,52 424,52" stroke-linejoin="round" width="8" height="24" fill="rgb(89,117,182)" stroke="rgb(71,93,145)" stroke-width="1" opacity="0.75" />
			</g>
		</g>
		<g>
			<title> (ctg230_19)</title>
			<polygon class=" (ctg230_19)" points="438,10 448,40 438,70" fill="rgb(255,255,255)" fill-opacity="1.0" stroke="rgb(0,0,0)" stroke-width="2"  />
		</g>
	</g>
</svg>
