<svg version="1.1" baseProfile="full" xmlns="http://www.w3.org/2000/svg" width="527.5666666666666" height="80">
	<g>
		<line x1="10" y1="40.0" x2="517.5666666666666" y2="40.0" style="stroke:rgb(70,70,70); stroke-width:3 "/>
		<g>
			<title> (ctg763_3)</title>
			<polygon class=" (ctg763_3)" points="21,40 34,10 34,70" fill="rgb(255,255,255)" fill-opacity="1.0" stroke="rgb(0,0,0)" stroke-width="2"  />
			<g>
				<title>DUF3110 (PF11360)
"Protein of unknown function (DUF3110)"</title>
				<polygon class="PF11360" points="25,38 29,28 33,28 33,52 29,52 25,42" stroke-linejoin="round" width="8" height="24" fill="rgb(64,181,203)" stroke="rgb(51,144,162)" stroke-width="1" opacity="0.75" />
			</g>
		</g>
		<g>
			<title> (ctg763_4)</title>
			<polygon class=" (ctg763_4)" points="37,40 52,10 52,70" fill="rgb(255,255,255)" fill-opacity="1.0" stroke="rgb(0,0,0)" stroke-width="2"  />
			<g>
				<title>DUF2996 (PF11210)
"Protein of unknown function (DUF2996)"</title>
				<polygon class="PF11210" points="40,40 46,28 49,28 49,52 46,52" stroke-linejoin="round" width="12" height="24" fill="rgb(193,94,118)" stroke="rgb(154,75,94)" stroke-width="1" opacity="0.75" />
			</g>
		</g>
		<g>
			<title> (ctg763_5)</title>
			<polygon class=" (ctg763_5)" points="59,10 72,40 59,70" fill="rgb(255,255,255)" fill-opacity="1.0" stroke="rgb(0,0,0)" stroke-width="2"  />
		</g>
		<g>
			<title> (ctg763_6)</title>
			<polygon class=" (ctg763_6)" points="174,25 103,25 103,10 73,40 103,70 103,55 174,55" fill="rgb(255,255,255)" fill-opacity="1.0" stroke="rgb(0,0,0)" stroke-width="2"  />
			<g>
				<title>Type_ISP_C (PF18135)
"Type ISP C-terminal specificity domain"</title>
				<polygon class="PF18135" points="77,40 89,28 109,28 109,52 89,52" stroke-linejoin="round" width="34" height="24" fill="rgb(194,210,79)" stroke="rgb(155,168,63)" stroke-width="1" opacity="0.75" />
			</g>
			<g>
				<title>N6_Mtase (PF02384)
"N-6 DNA Methylase"</title>
				<rect class="PF02384" x="121" y="28" stroke-linejoin="round" width="25" height="24" fill="rgb(46,179,90)" stroke="rgb(36,143,72)" stroke-width="1" opacity="0.75" />
			</g>
		</g>
		<g>
			<title> (ctg763_7)</title>
			<polygon class=" (ctg763_7)" points="188,10 217,40 188,70" fill="rgb(255,255,255)" fill-opacity="1.0" stroke="rgb(0,0,0)" stroke-width="2"  />
			<g>
				<title>Radical_SAM (PF04055)
"Radical SAM superfamily"</title>
				<polygon class="PF04055" points="193,28 201,28 209,36 209,44 201,52 193,52" stroke-linejoin="round" width="16" height="24" fill="rgb(149,56,222)" stroke="rgb(119,44,177)" stroke-width="1" opacity="0.75" />
			</g>
		</g>
		<g>
			<title> (ctg763_8)</title>
			<polygon class=" (ctg763_8)" points="216,40 236,10 236,70" fill="rgb(255,255,255)" fill-opacity="1.0" stroke="rgb(0,0,0)" stroke-width="2"  />
			<g>
				<title>Ham1p_like (PF01725)
"Ham1 family"</title>
				<polygon class="PF01725" points="220,40 228,28 235,28 235,52 228,52" stroke-linejoin="round" width="18" height="24" fill="rgb(76,199,61)" stroke="rgb(60,159,48)" stroke-width="1" opacity="0.75" />
			</g>
		</g>
		<g>
			<title> (ctg763_9)</title>
			<polygon class=" (ctg763_9)" points="272,25 272,25 272,10 242,40 272,70 272,55 272,55" fill="rgb(255,255,255)" fill-opacity="1.0" stroke="rgb(0,0,0)" stroke-width="2"  />
			<g>
				<title>F_bP_aldolase (PF01116)
"Fructose-bisphosphate aldolase class-II"</title>
				<polygon class="PF01116" points="246,40 258,28 271,28 271,52 258,52" stroke-linejoin="round" width="27" height="24" fill="rgb(188,67,71)" stroke="rgb(150,53,56)" stroke-width="1" opacity="0.75" />
			</g>
		</g>
		<g>
			<title> (ctg763_10)</title>
			<polygon class=" (ctg763_10)" points="278,25 302,25 302,10 332,40 302,70 302,55 278,55" fill="rgb(255,255,255)" fill-opacity="1.0" stroke="rgb(0,0,0)" stroke-width="2"  />
			<g>
				<title>GTP-bdg_N (PF13167)
"GTP-binding GTPase N-terminal"</title>
				<rect class="PF13167" x="298" y="28" stroke-linejoin="round" width="8" height="24" fill="rgb(57,194,165)" stroke="rgb(45,155,132)" stroke-width="1" opacity="0.75" />
			</g>
			<g>
				<title>GTP-bdg_M (PF16360)
"GTP-binding GTPase Middle Region"</title>
				<rect class="PF16360" x="307" y="28" stroke-linejoin="round" width="7" height="24" fill="rgb(91,201,201)" stroke="rgb(72,160,160)" stroke-width="1" opacity="0.75" />
			</g>
			<g>
				<title>MMR_HSR1 (PF01926)
"50S ribosome-binding GTPase"</title>
				<polygon class="PF01926" points="316,28 316,28 328,40 328,40 316,52 316,52" stroke-linejoin="round" width="12" height="24" fill="rgb(105,180,226)" stroke="rgb(83,143,180)" stroke-width="1" opacity="0.75" />
			</g>
		</g>
		<g>
			<title> (ctg763_11)</title>
			<polygon class=" (ctg763_11)" points="343,40 348,10 348,70" fill="rgb(255,255,255)" fill-opacity="1.0" stroke="rgb(0,0,0)" stroke-width="2"  />
			<g>
				<title>Inhibitor_I10 (PF12559)
"Serine endopeptidase inhibitors"</title>
				<polygon class="PF12559" points="346,40 348,28 348,28 348,52 348,52" stroke-linejoin="round" width="5" height="24" fill="rgb(179,147,51)" stroke="rgb(143,117,40)" stroke-width="1" opacity="0.75" />
			</g>
		</g>
		<g>
			<title> (ctg763_12)</title>
			<polygon class=" (ctg763_12)" points="354,40 364,10 364,70" fill="rgb(255,255,255)" fill-opacity="1.0" stroke="rgb(0,0,0)" stroke-width="2"  />
			<g>
				<title>CVNH (PF08881)
"CVNH domain"</title>
				<polygon class="PF08881" points="357,40 361,28 364,28 364,52 361,52" stroke-linejoin="round" width="10" height="24" fill="rgb(103,204,95)" stroke="rgb(82,163,76)" stroke-width="1" opacity="0.75" />
			</g>
		</g>
		<g>
			<title> (ctg763_13)</title>
			<polygon class=" (ctg763_13)" points="377,10 403,40 377,70" fill="rgb(255,255,255)" fill-opacity="1.0" stroke="rgb(0,0,0)" stroke-width="2"  />
			<g>
				<title>Methyltransf_11 (PF08241)
"Methyltransferase domain"</title>
				<polygon class="PF08241" points="383,28 389,28 392,32 392,48 389,52 383,52" stroke-linejoin="round" width="9" height="24" fill="rgb(106,219,159)" stroke="rgb(84,175,127)" stroke-width="1" opacity="0.75" />
			</g>
		</g>
		<g>
			<title> (ctg763_14)</title>
			<polygon class=" (ctg763_14)" points="405,10 429,40 405,70" fill="rgb(255,255,255)" fill-opacity="1.0" stroke="rgb(0,0,0)" stroke-width="2"  />
			<g>
				<title>adh_short_C2 (PF13561)
"Enoyl-(Acyl carrier protein) reductase"</title>
				<polygon class="PF13561" points="406,28 416,28 425,40 416,52 406,52" stroke-linejoin="round" width="22" height="24" fill="rgb(73,205,127)" stroke="rgb(58,164,101)" stroke-width="1" opacity="0.75" />
			</g>
		</g>
		<g>
			<title> (ctg763_15)</title>
			<polygon class=" (ctg763_15)" points="442,40 450,10 450,70" fill="rgb(255,255,255)" fill-opacity="1.0" stroke="rgb(0,0,0)" stroke-width="2"  />
		</g>
		<g>
			<title> (ctg763_16)</title>
			<polygon class=" (ctg763_16)" points="450,40 460,10 460,70" fill="rgb(255,255,255)" fill-opacity="1.0" stroke="rgb(0,0,0)" stroke-width="2"  />
			<g>
				<title>HicA_toxin (PF07927)
"HicA toxin of bacterial toxin-antitoxin,"</title>
				<polygon class="PF07927" points="453,40 455,34 455,46" stroke-linejoin="round" width="5" height="24" fill="rgb(182,96,204)" stroke="rgb(145,76,163)" stroke-width="1" opacity="0.75" />
			</g>
		</g>
		<g>
			<title> (ctg763_17)</title>
			<polygon class=" (ctg763_17)" points="466,10 476,40 466,70" fill="rgb(255,255,255)" fill-opacity="1.0" stroke="rgb(0,0,0)" stroke-width="2"  />
			<g>
				<title>DUF433 (PF04255)
"Protein of unknown function (DUF433)"</title>
				<polygon class="PF04255" points="469,28 469,28 473,40 469,52 469,52" stroke-linejoin="round" width="5" height="24" fill="rgb(205,68,213)" stroke="rgb(164,54,170)" stroke-width="1" opacity="0.75" />
			</g>
		</g>
		<g>
			<title> (ctg763_18)</title>
			<polygon class=" (ctg763_18)" points="486,40 493,10 493,70" fill="rgb(255,255,255)" fill-opacity="1.0" stroke="rgb(0,0,0)" stroke-width="2"  />
		</g>
		<g>
			<title> (ctg763_19)</title>
			<polygon class=" (ctg763_19)" points="493,40 508,10 508,70" fill="rgb(255,255,255)" fill-opacity="1.0" stroke="rgb(0,0,0)" stroke-width="2"  />
			<g>
				<title>PIN (PF01850)
"PIN domain"</title>
				<polygon class="PF01850" points="496,40 502,28 507,28 507,52 502,52" stroke-linejoin="round" width="12" height="24" fill="rgb(91,217,126)" stroke="rgb(72,173,100)" stroke-width="1" opacity="0.75" />
			</g>
		</g>
	</g>
</svg>
