<svg version="1.1" baseProfile="full" xmlns="http://www.w3.org/2000/svg" width="147.9" height="80">
	<g>
		<line x1="10" y1="40.0" x2="137.9" y2="40.0" style="stroke:rgb(70,70,70); stroke-width:3 "/>
		<g>
			<title> (ctg38_1)</title>
			<polygon class=" (ctg38_1)" points="14,10 23,40 14,70" fill="rgb(255,255,255)" fill-opacity="1.0" stroke="rgb(0,0,0)" stroke-width="2"  />
			<g>
				<title>DUF3288 (PF11691)
"Protein of unknown function (DUF3288)"</title>
				<polygon class="PF11691" points="14,28 16,28 20,40 16,52 14,52" stroke-linejoin="round" width="8" height="24" fill="rgb(101,212,216)" stroke="rgb(80,169,172)" stroke-width="1" opacity="0.75" />
			</g>
		</g>
		<g>
			<title> (ctg38_2)</title>
			<polygon class=" (ctg38_2)" points="59,25 59,25 59,10 29,40 59,70 59,55 59,55" fill="rgb(255,255,255)" fill-opacity="1.0" stroke="rgb(0,0,0)" stroke-width="2"  />
		</g>
		<g>
			<title> (ctg38_3)</title>
			<polygon class=" (ctg38_3)" points="99,25 96,25 96,10 66,40 96,70 96,55 99,55" fill="rgb(255,255,255)" fill-opacity="1.0" stroke="rgb(0,0,0)" stroke-width="2"  />
			<g>
				<title>Glycos_transf_1 (PF00534)
"Glycosyl transferases group 1"</title>
				<polygon class="PF00534" points="72,38 82,28 84,28 84,52 82,52 72,42" stroke-linejoin="round" width="12" height="24" fill="rgb(228,92,150)" stroke="rgb(182,73,119)" stroke-width="1" opacity="0.75" />
			</g>
		</g>
		<g>
			<title> (ctg38_4)</title>
			<polygon class=" (ctg38_4)" points="103,10 116,40 103,70" fill="rgb(255,255,255)" fill-opacity="1.0" stroke="rgb(0,0,0)" stroke-width="2"  />
		</g>
		<g>
			<title> (ctg38_5)</title>
			<polygon class=" (ctg38_5)" points="118,40 137,10 137,70" fill="rgb(255,255,255)" fill-opacity="1.0" stroke="rgb(0,0,0)" stroke-width="2"  />
			<g>
				<title>SQHop_cyclase_C (PF13243)
"Squalene-hopene cyclase C-terminal domain"</title>
				<polygon class="PF13243" points="122,40 130,28 137,28 137,52 130,52" stroke-linejoin="round" width="19" height="24" fill="rgb(191,58,201)" stroke="rgb(152,46,160)" stroke-width="1" opacity="0.75" />
			</g>
		</g>
	</g>
</svg>
