<svg version="1.1" baseProfile="full" xmlns="http://www.w3.org/2000/svg" width="150.83333333333334" height="80">
	<g>
		<line x1="10" y1="40.0" x2="140.83333333333334" y2="40.0" style="stroke:rgb(70,70,70); stroke-width:3 "/>
		<g>
			<title> (ctg5_1)</title>
			<polygon class=" (ctg5_1)" points="10,10 14,40 10,70" fill="rgb(255,255,255)" fill-opacity="1.0" stroke="rgb(0,0,0)" stroke-width="2"  />
		</g>
		<g>
			<title> (ctg5_2)</title>
			<polygon class=" (ctg5_2)" points="15,10 25,40 15,70" fill="rgb(255,255,255)" fill-opacity="1.0" stroke="rgb(0,0,0)" stroke-width="2"  />
			<g>
				<title>Rotamase (PF00639)
"PPIC-type PPIASE domain"</title>
				<polygon class="PF00639" points="15,28 17,28 21,37 21,43 17,52 15,52" stroke-linejoin="round" width="6" height="24" fill="rgb(179,171,54)" stroke="rgb(143,136,43)" stroke-width="1" opacity="0.75" />
			</g>
		</g>
		<g>
			<title> (ctg5_3)</title>
			<polygon class=" (ctg5_3)" points="28,40 34,10 34,70" fill="rgb(255,255,255)" fill-opacity="1.0" stroke="rgb(0,0,0)" stroke-width="2"  />
		</g>
		<g>
			<title> (ctg5_4)</title>
			<polygon class=" (ctg5_4)" points="83,25 77,25 77,10 47,40 77,70 77,55 83,55" fill="rgb(255,255,255)" fill-opacity="1.0" stroke="rgb(0,0,0)" stroke-width="2"  />
			<g>
				<title>HopA1 (PF17914)
"HopA1 effector protein family"</title>
				<polygon class="PF17914" points="51,40 63,28 65,28 65,52 63,52" stroke-linejoin="round" width="17" height="24" fill="rgb(77,79,213)" stroke="rgb(61,63,170)" stroke-width="1" opacity="0.75" />
			</g>
		</g>
		<g>
			<title> (ctg5_5)</title>
			<polygon class=" (ctg5_5)" points="124,25 115,25 115,10 85,40 115,70 115,55 124,55" fill="rgb(255,255,255)" fill-opacity="1.0" stroke="rgb(0,0,0)" stroke-width="2"  />
			<g>
				<title>APH (PF01636)
"Phosphotransferase enzyme family"</title>
				<polygon class="PF01636" points="96,33 101,28 116,28 116,52 101,52 96,47" stroke-linejoin="round" width="20" height="24" fill="rgb(106,220,228)" stroke="rgb(84,176,182)" stroke-width="1" opacity="0.75" />
			</g>
		</g>
		<g>
			<title> (ctg5_6)</title>
			<polygon class=" (ctg5_6)" points="134,10 140,40 134,70" fill="rgb(255,255,255)" fill-opacity="1.0" stroke="rgb(0,0,0)" stroke-width="2"  />
		</g>
	</g>
</svg>
