<svg version="1.1" baseProfile="full" xmlns="http://www.w3.org/2000/svg" width="645.5" height="80">
	<g>
		<line x1="10" y1="40.0" x2="635.5" y2="40.0" style="stroke:rgb(70,70,70); stroke-width:3 "/>
		<g>
			<title> (ctg64_41)</title>
			<polygon class=" (ctg64_41)" points="63,25 49,25 49,10 19,40 49,70 49,55 63,55" fill="rgb(255,255,255)" fill-opacity="1.0" stroke="rgb(0,0,0)" stroke-width="2"  />
			<g>
				<title>PMT_2 (PF13231)
"Dolichyl-phosphate-mannose-protein mannosyltransferase"</title>
				<rect class="PF13231" x="38" y="28" stroke-linejoin="round" width="16" height="24" fill="rgb(149,96,194)" stroke="rgb(119,76,155)" stroke-width="1" opacity="0.75" />
			</g>
		</g>
		<g>
			<title> (ctg64_42)</title>
			<polygon class=" (ctg64_42)" points="64,40 73,10 73,70" fill="rgb(255,255,255)" fill-opacity="1.0" stroke="rgb(0,0,0)" stroke-width="2"  />
		</g>
		<g>
			<title> (ctg64_43)</title>
			<polygon class=" (ctg64_43)" points="74,10 100,40 74,70" fill="rgb(255,255,255)" fill-opacity="1.0" stroke="rgb(0,0,0)" stroke-width="2"  />
			<g>
				<title>FGE-sulfatase (PF03781)
"Sulfatase-modifying factor enzyme 1"</title>
				<polygon class="PF03781" points="75,28 86,28 96,40 86,52 75,52" stroke-linejoin="round" width="24" height="24" fill="rgb(206,81,170)" stroke="rgb(164,64,136)" stroke-width="1" opacity="0.75" />
			</g>
		</g>
		<g>
			<title> (ctg64_44)</title>
			<polygon class=" (ctg64_44)" points="102,25 114,25 114,10 144,40 114,70 114,55 102,55" fill="rgb(255,255,255)" fill-opacity="1.0" stroke="rgb(0,0,0)" stroke-width="2"  />
			<g>
				<title>Glycos_transf_2 (PF00535)
"Glycosyl transferase family 2"</title>
				<rect class="PF00535" x="106" y="28" stroke-linejoin="round" width="16" height="24" fill="rgb(224,122,96)" stroke="rgb(179,97,76)" stroke-width="1" opacity="0.75" />
			</g>
			<g>
				<title>GtrA (PF04138)
"GtrA-like protein"</title>
				<polygon class="PF04138" points="131,32 139,40 131,48" stroke-linejoin="round" width="12" height="24" fill="rgb(72,221,86)" stroke="rgb(57,176,68)" stroke-width="1" opacity="0.75" />
			</g>
		</g>
		<g>
			<title> (ctg64_45)</title>
			<polygon class=" (ctg64_45)" points="147,10 161,40 147,70" fill="rgb(255,255,255)" fill-opacity="1.0" stroke="rgb(0,0,0)" stroke-width="2"  />
			<g>
				<title>Prok-JAB (PF14464)
"Prokaryotic homologs of the JAB domain"</title>
				<polygon class="PF14464" points="147,28 151,28 157,40 151,52 147,52" stroke-linejoin="round" width="12" height="24" fill="rgb(187,62,157)" stroke="rgb(149,49,125)" stroke-width="1" opacity="0.75" />
			</g>
		</g>
		<g>
			<title> (ctg64_46)</title>
			<polygon class=" (ctg64_46)" points="161,40 179,10 179,70" fill="rgb(255,255,255)" fill-opacity="1.0" stroke="rgb(0,0,0)" stroke-width="2"  />
			<g>
				<title>DUF4334 (PF14232)
"Domain of unknown function (DUF4334)"</title>
				<polygon class="PF14232" points="165,40 166,38 166,42" stroke-linejoin="round" width="5" height="24" fill="rgb(214,119,60)" stroke="rgb(171,95,47)" stroke-width="1" opacity="0.75" />
			</g>
			<g>
				<title>GXWXG (PF14231)
"GXWXG protein"</title>
				<polygon class="PF14231" points="171,30 173,28 176,28 176,52 173,52 171,50" stroke-linejoin="round" width="5" height="24" fill="rgb(47,179,160)" stroke="rgb(37,143,127)" stroke-width="1" opacity="0.75" />
			</g>
		</g>
		<g>
			<title> (ctg64_47)</title>
			<polygon class=" (ctg64_47)" points="182,40 198,10 198,70" fill="rgb(255,255,255)" fill-opacity="1.0" stroke="rgb(0,0,0)" stroke-width="2"  />
			<g>
				<title>Phage_int_SAM_5 (PF13102)
"Phage integrase SAM-like domain"</title>
				<polygon class="PF13102" points="191,29 191,28 196,28 196,52 191,52 191,51" stroke-linejoin="round" width="5" height="24" fill="rgb(127,79,193)" stroke="rgb(101,63,154)" stroke-width="1" opacity="0.75" />
			</g>
		</g>
		<g>
			<title> (ctg64_48)</title>
			<polygon class=" (ctg64_48)" points="208,25 221,25 221,10 251,40 221,70 221,55 208,55" fill="rgb(255,255,255)" fill-opacity="1.0" stroke="rgb(0,0,0)" stroke-width="2"  />
			<g>
				<title>Aminotran_5 (PF00266)
"Aminotransferase class-V"</title>
				<polygon class="PF00266" points="212,28 234,28 246,40 234,52 212,52" stroke-linejoin="round" width="36" height="24" fill="rgb(214,54,122)" stroke="rgb(171,43,97)" stroke-width="1" opacity="0.75" />
			</g>
		</g>
		<g>
			<title> (ctg64_49)</title>
			<polygon class=" (ctg64_49)" points="302,25 283,25 283,10 253,40 283,70 283,55 302,55" fill="rgb(255,255,255)" fill-opacity="1.0" stroke="rgb(0,0,0)" stroke-width="2"  />
			<g>
				<title>Proton_antipo_M (PF00361)
"Proton-conducting membrane transporter"</title>
				<polygon class="PF00361" points="260,37 269,28 289,28 289,52 269,52 260,43" stroke-linejoin="round" width="29" height="24" fill="rgb(54,193,132)" stroke="rgb(43,154,105)" stroke-width="1" opacity="0.75" />
			</g>
		</g>
		<g>
			<title> (ctg64_50)</title>
			<polygon class=" (ctg64_50)" points="317,10 320,40 317,70" fill="rgb(255,255,255)" fill-opacity="1.0" stroke="rgb(0,0,0)" stroke-width="2"  />
		</g>
		<g>
			<title> (ctg64_51)</title>
			<polygon class=" (ctg64_51)" points="327,10 332,40 327,70" fill="rgb(255,255,255)" fill-opacity="1.0" stroke="rgb(0,0,0)" stroke-width="2"  />
		</g>
		<g>
			<title> (ctg64_52)</title>
			<polygon class=" (ctg64_52)" points="343,25 382,25 382,10 412,40 382,70 382,55 343,55" fill="rgb(255,255,255)" fill-opacity="1.0" stroke="rgb(0,0,0)" stroke-width="2"  />
			<g>
				<title>SQHop_cyclase_C (PF13243)
"Squalene-hopene cyclase C-terminal domain"</title>
				<polygon class="PF13243" points="384,28 395,28 407,40 395,52 384,52" stroke-linejoin="round" width="24" height="24" fill="rgb(191,58,201)" stroke="rgb(152,46,160)" stroke-width="1" opacity="0.75" />
			</g>
		</g>
		<g>
			<title> (ctg64_53)</title>
			<polygon class=" (ctg64_53)" points="413,25 423,25 423,10 453,40 423,70 423,55 413,55" fill="rgb(255,255,255)" fill-opacity="1.0" stroke="rgb(0,0,0)" stroke-width="2"  />
		</g>
		<g>
			<title> (ctg64_54)</title>
			<polygon class=" (ctg64_54)" points="453,25 463,25 463,10 493,40 463,70 463,55 453,55" fill="rgb(255,255,255)" fill-opacity="1.0" stroke="rgb(0,0,0)" stroke-width="2"  />
			<g>
				<title>MacB_PCD (PF12704)
"MacB-like periplasmic core domain"</title>
				<rect class="PF12704" x="455" y="28" stroke-linejoin="round" width="22" height="24" fill="rgb(79,76,190)" stroke="rgb(63,60,152)" stroke-width="1" opacity="0.75" />
			</g>
			<g>
				<title>FtsX (PF02687)
"FtsX-like permease family"</title>
				<polygon class="PF02687" points="483,34 489,40 483,46" stroke-linejoin="round" width="8" height="24" fill="rgb(126,55,214)" stroke="rgb(100,44,171)" stroke-width="1" opacity="0.75" />
			</g>
		</g>
		<g>
			<title> (ctg64_55)</title>
			<polygon class=" (ctg64_55)" points="494,25 511,25 511,10 541,40 511,70 511,55 494,55" fill="rgb(255,255,255)" fill-opacity="1.0" stroke="rgb(0,0,0)" stroke-width="2"  />
			<g>
				<title>Biotin_lipoyl_2 (PF13533)
"Biotin-lipoyl like"</title>
				<rect class="PF13533" x="501" y="28" stroke-linejoin="round" width="4" height="24" fill="rgb(229,122,112)" stroke="rgb(183,97,89)" stroke-width="1" opacity="0.75" />
			</g>
			<g>
				<title>HlyD_D23 (PF16576)
"Barrel-sandwich domain of CusB or HlyD membrane-fusion"</title>
				<polygon class="PF16576" points="515,28 525,28 533,36 533,44 525,52 515,52" stroke-linejoin="round" width="18" height="24" fill="rgb(70,190,92)" stroke="rgb(56,152,73)" stroke-width="1" opacity="0.75" />
			</g>
		</g>
		<g>
			<title> (ctg64_56)</title>
			<polygon class=" (ctg64_56)" points="587,25 572,25 572,10 542,40 572,70 572,55 587,55" fill="rgb(255,255,255)" fill-opacity="1.0" stroke="rgb(0,0,0)" stroke-width="2"  />
			<g>
				<title>AMP-binding_C (PF13193)
"AMP-binding enzyme C-terminal domain"</title>
				<polygon class="PF13193" points="546,40 551,35 551,45" stroke-linejoin="round" width="7" height="24" fill="rgb(182,50,118)" stroke="rgb(145,39,94)" stroke-width="1" opacity="0.75" />
			</g>
			<g>
				<title>AMP-binding (PF00501)
"AMP-binding enzyme"</title>
				<polygon class="PF00501" points="552,34 558,28 576,28 576,52 558,52 552,46" stroke-linejoin="round" width="24" height="24" fill="rgb(60,217,223)" stroke="rgb(48,173,178)" stroke-width="1" opacity="0.75" />
			</g>
		</g>
		<g>
			<title> (ctg64_57)</title>
			<polygon class=" (ctg64_57)" points="618,25 616,25 616,10 586,40 616,70 616,55 618,55" fill="rgb(255,255,255)" fill-opacity="1.0" stroke="rgb(0,0,0)" stroke-width="2"  />
			<g>
				<title>MR_MLE_C (PF13378)
"Enolase C-terminal domain-like"</title>
				<polygon class="PF13378" points="590,40 602,28 605,28 605,52 602,52" stroke-linejoin="round" width="18" height="24" fill="rgb(191,184,94)" stroke="rgb(152,147,75)" stroke-width="1" opacity="0.75" />
			</g>
		</g>
	</g>
</svg>
