<svg version="1.1" baseProfile="full" xmlns="http://www.w3.org/2000/svg" width="250.43333333333334" height="80">
	<g>
		<line x1="10" y1="40.0" x2="240.43333333333334" y2="40.0" style="stroke:rgb(70,70,70); stroke-width:3 "/>
		<g>
			<title> (ctg56_1)</title>
			<polygon class=" (ctg56_1)" points="62,25 40,25 40,10 10,40 40,70 40,55 62,55" fill="rgb(255,255,255)" fill-opacity="1.0" stroke="rgb(0,0,0)" stroke-width="2"  />
			<g>
				<title>Cation_ATPase (PF13246)
"Cation transport ATPase (P-type)"</title>
				<polygon class="PF13246" points="14,40 21,33 21,47" stroke-linejoin="round" width="9" height="24" fill="rgb(200,58,79)" stroke="rgb(160,46,63)" stroke-width="1" opacity="0.75" />
			</g>
			<g>
				<title>E1-E2_ATPase (PF00122)
"E1-E2 ATPase"</title>
				<rect class="PF00122" x="29" y="28" stroke-linejoin="round" width="19" height="24" fill="rgb(149,204,70)" stroke="rgb(119,163,56)" stroke-width="1" opacity="0.75" />
			</g>
			<g>
				<title>Cation_ATPase_N (PF00690)
"Cation transporter/ATPase, N-terminus"</title>
				<rect class="PF00690" x="53" y="28" stroke-linejoin="round" width="6" height="24" fill="rgb(174,102,225)" stroke="rgb(139,81,180)" stroke-width="1" opacity="0.75" />
			</g>
		</g>
		<g>
			<title> (ctg56_2)</title>
			<polygon class=" (ctg56_2)" points="74,25 91,25 91,10 121,40 91,70 91,55 74,55" fill="rgb(255,255,255)" fill-opacity="1.0" stroke="rgb(0,0,0)" stroke-width="2"  />
			<g>
				<title>Amino_oxidase (PF01593)
"Flavin containing amine oxidoreductase"</title>
				<polygon class="PF01593" points="75,28 105,28 117,40 105,52 75,52" stroke-linejoin="round" width="44" height="24" fill="rgb(184,74,52)" stroke="rgb(147,59,41)" stroke-width="1" opacity="0.75" />
			</g>
		</g>
		<g>
			<title> (ctg56_3)</title>
			<polygon class=" (ctg56_3)" points="125,25 126,25 126,10 156,40 126,70 126,55 125,55" fill="rgb(255,255,255)" fill-opacity="1.0" stroke="rgb(0,0,0)" stroke-width="2"  />
			<g>
				<title>SQS_PSY (PF00494)
"Squalene/phytoene synthase"</title>
				<polygon class="PF00494" points="127,28 139,28 151,40 139,52 127,52" stroke-linejoin="round" width="26" height="24" fill="rgb(178,91,49)" stroke="rgb(142,72,39)" stroke-width="1" opacity="0.75" />
			</g>
		</g>
		<g>
			<title> (ctg56_4)</title>
			<polygon class=" (ctg56_4)" points="159,40 172,10 172,70" fill="rgb(255,255,255)" fill-opacity="1.0" stroke="rgb(0,0,0)" stroke-width="2"  />
		</g>
		<g>
			<title> (ctg56_5)</title>
			<polygon class=" (ctg56_5)" points="183,10 191,40 183,70" fill="rgb(255,255,255)" fill-opacity="1.0" stroke="rgb(0,0,0)" stroke-width="2"  />
		</g>
		<g>
			<title> (ctg56_6)</title>
			<polygon class=" (ctg56_6)" points="193,40 216,10 216,70" fill="rgb(255,255,255)" fill-opacity="1.0" stroke="rgb(0,0,0)" stroke-width="2"  />
			<g>
				<title>Pirin_C_2 (PF17954)
"Quercetinase C-terminal cupin domain"</title>
				<polygon class="PF17954" points="197,40 201,35 201,45" stroke-linejoin="round" width="8" height="24" fill="rgb(224,140,102)" stroke="rgb(179,112,81)" stroke-width="1" opacity="0.75" />
			</g>
			<g>
				<title>Pirin (PF02678)
"Pirin"</title>
				<polygon class="PF02678" points="204,31 206,28 215,28 215,52 206,52 204,49" stroke-linejoin="round" width="11" height="24" fill="rgb(139,213,61)" stroke="rgb(111,170,48)" stroke-width="1" opacity="0.75" />
			</g>
		</g>
		<g>
			<title> (ctg56_7)</title>
			<polygon class=" (ctg56_7)" points="230,10 239,40 230,70" fill="rgb(255,255,255)" fill-opacity="1.0" stroke="rgb(0,0,0)" stroke-width="2"  />
		</g>
	</g>
</svg>
