<svg version="1.1" baseProfile="full" xmlns="http://www.w3.org/2000/svg" width="945.7" height="80">
	<g>
		<line x1="10" y1="40.0" x2="935.7" y2="40.0" style="stroke:rgb(70,70,70); stroke-width:3 "/>
		<g>
			<title> (ctg269_1)</title>
			<polygon class=" (ctg269_1)" points="10,10 14,40 10,70" fill="rgb(255,255,255)" fill-opacity="1.0" stroke="rgb(0,0,0)" stroke-width="2"  />
		</g>
		<g>
			<title> (ctg269_2)</title>
			<polygon class=" (ctg269_2)" points="82,25 51,25 51,10 21,40 51,70 51,55 82,55" fill="rgb(255,255,255)" fill-opacity="1.0" stroke="rgb(0,0,0)" stroke-width="2"  />
			<g>
				<title>zinc_ribbon_2 (PF13240)
"zinc-ribbon domain"</title>
				<polygon class="PF13240" points="25,40 23,42 23,38" stroke-linejoin="round" width="2" height="24" fill="rgb(189,93,142)" stroke="rgb(151,74,113)" stroke-width="1" opacity="0.75" />
			</g>
			<g>
				<title>TPP_enzyme_C (PF02775)
"Thiamine pyrophosphate enzyme, C-terminal TPP binding domain"</title>
				<polygon class="PF02775" points="26,39 37,28 40,28 40,52 37,52 26,41" stroke-linejoin="round" width="14" height="24" fill="rgb(156,179,45)" stroke="rgb(124,143,36)" stroke-width="1" opacity="0.75" />
			</g>
			<g>
				<title>TPP_enzyme_M (PF00205)
"Thiamine pyrophosphate enzyme, central domain"</title>
				<rect class="PF00205" x="47" y="28" stroke-linejoin="round" width="13" height="24" fill="rgb(149,194,69)" stroke="rgb(119,155,55)" stroke-width="1" opacity="0.75" />
			</g>
			<g>
				<title>TPP_enzyme_N (PF02776)
"Thiamine pyrophosphate enzyme, N-terminal TPP binding domain"</title>
				<rect class="PF02776" x="63" y="28" stroke-linejoin="round" width="17" height="24" fill="rgb(55,81,185)" stroke="rgb(44,64,148)" stroke-width="1" opacity="0.75" />
			</g>
		</g>
		<g>
			<title> (ctg269_3)</title>
			<polygon class=" (ctg269_3)" points="95,10 117,40 95,70" fill="rgb(255,255,255)" fill-opacity="1.0" stroke="rgb(0,0,0)" stroke-width="2"  />
			<g>
				<title>AAA_26 (PF13500)
"AAA domain"</title>
				<polygon class="PF13500" points="95,28 105,28 113,40 105,52 95,52" stroke-linejoin="round" width="20" height="24" fill="rgb(93,118,228)" stroke="rgb(74,94,182)" stroke-width="1" opacity="0.75" />
			</g>
		</g>
		<g>
			<title> (ctg269_4)</title>
			<polygon class=" (ctg269_4)" points="250,25 156,25 156,10 126,40 156,70 156,55 250,55" fill="rgb(255,255,255)" fill-opacity="1.0" stroke="rgb(0,0,0)" stroke-width="2"  />
			<g>
				<title>TaqI_C (PF12950)
"TaqI-like C-terminal specificity domain"</title>
				<polygon class="PF12950" points="133,37 142,28 148,28 148,52 142,52 133,43" stroke-linejoin="round" width="15" height="24" fill="rgb(132,203,53)" stroke="rgb(105,162,42)" stroke-width="1" opacity="0.75" />
			</g>
			<g>
				<title>Eco57I (PF07669)
"Eco57I restriction-modification methylase"</title>
				<rect class="PF07669" x="158" y="28" stroke-linejoin="round" width="11" height="24" fill="rgb(107,93,196)" stroke="rgb(85,74,156)" stroke-width="1" opacity="0.75" />
			</g>
		</g>
		<g>
			<title> (ctg269_5)</title>
			<polygon class=" (ctg269_5)" points="265,25 293,25 293,10 323,40 293,70 293,55 265,55" fill="rgb(255,255,255)" fill-opacity="1.0" stroke="rgb(0,0,0)" stroke-width="2"  />
			<g>
				<title>AMP-binding (PF00501)
"AMP-binding enzyme"</title>
				<polygon class="PF00501" points="267,28 306,28 311,33 311,47 306,52 267,52" stroke-linejoin="round" width="44" height="24" fill="rgb(60,217,223)" stroke="rgb(48,173,178)" stroke-width="1" opacity="0.75" />
			</g>
		</g>
		<g>
			<title> (ctg269_6)</title>
			<polygon class=" (ctg269_6)" points="328,10 336,40 328,70" fill="rgb(255,255,255)" fill-opacity="1.0" stroke="rgb(0,0,0)" stroke-width="2"  />
			<g>
				<title>PP-binding (PF00550)
"Phosphopantetheine attachment site"</title>
				<polygon class="PF00550" points="329,28 329,28 333,40 329,52 329,52" stroke-linejoin="round" width="6" height="24" fill="rgb(103,191,88)" stroke="rgb(82,152,70)" stroke-width="1" opacity="0.75" />
			</g>
		</g>
		<g>
			<title> (ctg269_7)</title>
			<polygon class=" (ctg269_7)" points="350,25 365,25 365,10 395,40 365,70 365,55 350,55" fill="rgb(255,255,255)" fill-opacity="1.0" stroke="rgb(0,0,0)" stroke-width="2"  />
		</g>
		<g>
			<title> (ctg269_8)</title>
			<polygon class=" (ctg269_8)" points="400,25 689,25 689,10 719,40 689,70 689,55 400,55" fill="rgb(255,255,255)" fill-opacity="1.0" stroke="rgb(0,0,0)" stroke-width="2"  />
			<g>
				<title>ketoacyl-synt (PF00109)
"Beta-ketoacyl synthase, N-terminal domain"</title>
				<rect class="PF00109" x="400" y="28" stroke-linejoin="round" width="22" height="24" fill="rgb(112,116,228)" stroke="rgb(89,92,182)" stroke-width="1" opacity="0.75" />
			</g>
			<g>
				<title>Ketoacyl-synt_C (PF02801)
"Beta-ketoacyl synthase, C-terminal domain"</title>
				<rect class="PF02801" x="423" y="28" stroke-linejoin="round" width="11" height="24" fill="rgb(215,78,102)" stroke="rgb(172,62,81)" stroke-width="1" opacity="0.75" />
			</g>
			<g>
				<title>KAsynt_C_assoc (PF16197)
"Ketoacyl-synthetase C-terminal extension"</title>
				<rect class="PF16197" x="435" y="28" stroke-linejoin="round" width="12" height="24" fill="rgb(240,150,172)" stroke="rgb(192,120,137)" stroke-width="1" opacity="0.75" />
			</g>
			<g>
				<title>Acyl_transf_1 (PF00698)
"Acyl transferase domain"</title>
				<rect class="PF00698" x="451" y="28" stroke-linejoin="round" width="32" height="24" fill="rgb(59,176,209)" stroke="rgb(47,140,167)" stroke-width="1" opacity="0.75" />
			</g>
			<g>
				<title>PP-binding (PF00550)
"Phosphopantetheine attachment site"</title>
				<rect class="PF00550" x="490" y="28" stroke-linejoin="round" width="6" height="24" fill="rgb(103,191,88)" stroke="rgb(82,152,70)" stroke-width="1" opacity="0.75" />
			</g>
			<g>
				<title>Aminotran_3 (PF00202)
"Aminotransferase class-III"</title>
				<rect class="PF00202" x="520" y="28" stroke-linejoin="round" width="38" height="24" fill="rgb(49,163,189)" stroke="rgb(39,130,151)" stroke-width="1" opacity="0.75" />
			</g>
			<g>
				<title>Bac_luciferase (PF00296)
"Luciferase-like monooxygenase"</title>
				<rect class="PF00296" x="573" y="28" stroke-linejoin="round" width="30" height="24" fill="rgb(180,112,78)" stroke="rgb(144,89,62)" stroke-width="1" opacity="0.75" />
			</g>
			<g>
				<title>Condensation (PF00668)
"Condensation domain"</title>
				<rect class="PF00668" x="612" y="28" stroke-linejoin="round" width="44" height="24" fill="rgb(224,184,98)" stroke="rgb(179,147,78)" stroke-width="1" opacity="0.75" />
			</g>
			<g>
				<title>AMP-binding (PF00501)
"AMP-binding enzyme"</title>
				<rect class="PF00501" x="658" y="28" stroke-linejoin="round" width="41" height="24" fill="rgb(60,217,223)" stroke="rgb(48,173,178)" stroke-width="1" opacity="0.75" />
			</g>
			<g>
				<title>AMP-binding_C (PF13193)
"AMP-binding enzyme C-terminal domain"</title>
				<polygon class="PF13193" points="700,28 703,28 707,32 707,48 703,52 700,52" stroke-linejoin="round" width="7" height="24" fill="rgb(182,50,118)" stroke="rgb(145,39,94)" stroke-width="1" opacity="0.75" />
			</g>
			<g>
				<title>PP-binding (PF00550)
"Phosphopantetheine attachment site"</title>
				<polygon class="PF00550" points="710,35 715,40 710,45" stroke-linejoin="round" width="6" height="24" fill="rgb(103,191,88)" stroke="rgb(82,152,70)" stroke-width="1" opacity="0.75" />
			</g>
		</g>
		<g>
			<title> (ctg269_9)</title>
			<polygon class=" (ctg269_9)" points="720,25 808,25 808,10 838,40 808,70 808,55 720,55" fill="rgb(255,255,255)" fill-opacity="1.0" stroke="rgb(0,0,0)" stroke-width="2"  />
			<g>
				<title>TubC_N (PF18563)
"TubC N-terminal docking domain"</title>
				<rect class="PF18563" x="720" y="28" stroke-linejoin="round" width="5" height="24" fill="rgb(95,217,77)" stroke="rgb(75,173,61)" stroke-width="1" opacity="0.75" />
			</g>
			<g>
				<title>Condensation (PF00668)
"Condensation domain"</title>
				<rect class="PF00668" x="727" y="28" stroke-linejoin="round" width="44" height="24" fill="rgb(224,184,98)" stroke="rgb(179,147,78)" stroke-width="1" opacity="0.75" />
			</g>
			<g>
				<title>AMP-binding (PF00501)
"AMP-binding enzyme"</title>
				<rect class="PF00501" x="774" y="28" stroke-linejoin="round" width="43" height="24" fill="rgb(60,217,223)" stroke="rgb(48,173,178)" stroke-width="1" opacity="0.75" />
			</g>
			<g>
				<title>AMP-binding_C (PF13193)
"AMP-binding enzyme C-terminal domain"</title>
				<polygon class="PF13193" points="819,28 821,28 826,33 826,47 821,52 819,52" stroke-linejoin="round" width="7" height="24" fill="rgb(182,50,118)" stroke="rgb(145,39,94)" stroke-width="1" opacity="0.75" />
			</g>
			<g>
				<title>PP-binding (PF00550)
"Phosphopantetheine attachment site"</title>
				<polygon class="PF00550" points="829,36 833,40 829,44" stroke-linejoin="round" width="6" height="24" fill="rgb(103,191,88)" stroke="rgb(82,152,70)" stroke-width="1" opacity="0.75" />
			</g>
		</g>
		<g>
			<title> (ctg269_10)</title>
			<polygon class=" (ctg269_10)" points="838,25 905,25 905,10 935,40 905,70 905,55 838,55" fill="rgb(255,255,255)" fill-opacity="1.0" stroke="rgb(0,0,0)" stroke-width="2"  />
			<g>
				<title>TubC_N (PF18563)
"TubC N-terminal docking domain"</title>
				<rect class="PF18563" x="838" y="28" stroke-linejoin="round" width="5" height="24" fill="rgb(95,217,77)" stroke="rgb(75,173,61)" stroke-width="1" opacity="0.75" />
			</g>
			<g>
				<title>Condensation (PF00668)
"Condensation domain"</title>
				<rect class="PF00668" x="845" y="28" stroke-linejoin="round" width="44" height="24" fill="rgb(224,184,98)" stroke="rgb(179,147,78)" stroke-width="1" opacity="0.75" />
			</g>
			<g>
				<title>AMP-binding (PF00501)
"AMP-binding enzyme"</title>
				<polygon class="PF00501" points="892,28 918,28 930,40 918,52 892,52" stroke-linejoin="round" width="41" height="24" fill="rgb(60,217,223)" stroke="rgb(48,173,178)" stroke-width="1" opacity="0.75" />
			</g>
		</g>
	</g>
</svg>
