<svg version="1.1" baseProfile="full" xmlns="http://www.w3.org/2000/svg" width="727.3666666666667" height="80">
	<g>
		<line x1="10" y1="40.0" x2="717.3666666666667" y2="40.0" style="stroke:rgb(70,70,70); stroke-width:3 "/>
		<g>
			<title> (ctg180_40)</title>
			<polygon class=" (ctg180_40)" points="63,25 44,25 44,10 14,40 44,70 44,55 63,55" fill="rgb(255,255,255)" fill-opacity="1.0" stroke="rgb(0,0,0)" stroke-width="2"  />
			<g>
				<title>Proton_antipo_M (PF00361)
"Proton-conducting membrane transporter"</title>
				<polygon class="PF00361" points="21,37 30,28 50,28 50,52 30,52 21,43" stroke-linejoin="round" width="29" height="24" fill="rgb(54,193,132)" stroke="rgb(43,154,105)" stroke-width="1" opacity="0.75" />
			</g>
		</g>
		<g>
			<title> (ctg180_41)</title>
			<polygon class=" (ctg180_41)" points="89,40 105,10 105,70" fill="rgb(255,255,255)" fill-opacity="1.0" stroke="rgb(0,0,0)" stroke-width="2"  />
			<g>
				<title>Pentapeptide (PF00805)
"Pentapeptide repeats (8 copies)"</title>
				<polygon class="PF00805" points="97,31 99,28 100,28 100,52 99,52 97,49" stroke-linejoin="round" width="3" height="24" fill="rgb(186,52,164)" stroke="rgb(148,41,131)" stroke-width="1" opacity="0.75" />
			</g>
		</g>
		<g>
			<title> (ctg180_42)</title>
			<polygon class=" (ctg180_42)" points="118,40 140,10 140,70" fill="rgb(255,255,255)" fill-opacity="1.0" stroke="rgb(0,0,0)" stroke-width="2"  />
		</g>
		<g>
			<title> (ctg180_43)</title>
			<polygon class=" (ctg180_43)" points="181,25 170,25 170,10 140,40 170,70 170,55 181,55" fill="rgb(255,255,255)" fill-opacity="1.0" stroke="rgb(0,0,0)" stroke-width="2"  />
			<g>
				<title>GUN4 (PF05419)
"GUN4-like"</title>
				<polygon class="PF05419" points="144,40 154,30 154,50" stroke-linejoin="round" width="12" height="24" fill="rgb(207,86,195)" stroke="rgb(165,68,156)" stroke-width="1" opacity="0.75" />
			</g>
			<g>
				<title>Trypsin_2 (PF13365)
"Trypsin-like peptidase domain"</title>
				<rect class="PF13365" x="159" y="28" stroke-linejoin="round" width="16" height="24" fill="rgb(126,86,188)" stroke="rgb(100,68,150)" stroke-width="1" opacity="0.75" />
			</g>
		</g>
		<g>
			<title> (ctg180_44)</title>
			<polygon class=" (ctg180_44)" points="182,40 210,10 210,70" fill="rgb(255,255,255)" fill-opacity="1.0" stroke="rgb(0,0,0)" stroke-width="2"  />
			<g>
				<title>Trypsin_2 (PF13365)
"Trypsin-like peptidase domain"</title>
				<polygon class="PF13365" points="186,40 197,28 202,28 202,52 197,52 186,40" stroke-linejoin="round" width="16" height="24" fill="rgb(126,86,188)" stroke="rgb(100,68,150)" stroke-width="1" opacity="0.75" />
			</g>
		</g>
		<g>
			<title> (ctg180_45)</title>
			<polygon class=" (ctg180_45)" points="211,40 229,10 229,70" fill="rgb(255,255,255)" fill-opacity="1.0" stroke="rgb(0,0,0)" stroke-width="2"  />
			<g>
				<title>COP23 (PF14218)
"Circadian oscillating protein COP23"</title>
				<polygon class="PF14218" points="215,40 222,28 225,28 225,52 222,52" stroke-linejoin="round" width="13" height="24" fill="rgb(177,74,183)" stroke="rgb(141,59,146)" stroke-width="1" opacity="0.75" />
			</g>
		</g>
		<g>
			<title> (ctg180_46)</title>
			<polygon class=" (ctg180_46)" points="305,25 273,25 273,10 243,40 273,70 273,55 305,55" fill="rgb(255,255,255)" fill-opacity="1.0" stroke="rgb(0,0,0)" stroke-width="2"  />
			<g>
				<title>WD40 (PF00400)
"WD domain, G-beta repeat"</title>
				<rect class="PF00400" x="260" y="28" stroke-linejoin="round" width="3" height="24" fill="rgb(190,108,62)" stroke="rgb(152,86,49)" stroke-width="1" opacity="0.75" />
			</g>
			<g>
				<title>WD40 (PF00400)
"WD domain, G-beta repeat"</title>
				<rect class="PF00400" x="264" y="28" stroke-linejoin="round" width="3" height="24" fill="rgb(190,108,62)" stroke="rgb(152,86,49)" stroke-width="1" opacity="0.75" />
			</g>
			<g>
				<title>Pkinase (PF00069)
"Protein kinase domain"</title>
				<rect class="PF00069" x="279" y="28" stroke-linejoin="round" width="25" height="24" fill="rgb(104,187,65)" stroke="rgb(83,149,51)" stroke-width="1" opacity="0.75" />
			</g>
		</g>
		<g>
			<title> (ctg180_47)</title>
			<polygon class=" (ctg180_47)" points="309,40 320,10 320,70" fill="rgb(255,255,255)" fill-opacity="1.0" stroke="rgb(0,0,0)" stroke-width="2"  />
		</g>
		<g>
			<title> (ctg180_48)</title>
			<polygon class=" (ctg180_48)" points="339,40 361,10 361,70" fill="rgb(255,255,255)" fill-opacity="1.0" stroke="rgb(0,0,0)" stroke-width="2"  />
			<g>
				<title>Lum_binding (PF00677)
"Lumazine binding domain"</title>
				<polygon class="PF00677" points="343,40 351,29 351,51" stroke-linejoin="round" width="9" height="24" fill="rgb(107,211,72)" stroke="rgb(85,168,57)" stroke-width="1" opacity="0.75" />
			</g>
			<g>
				<title>Lum_binding (PF00677)
"Lumazine binding domain"</title>
				<polygon class="PF00677" points="352,28 352,28 360,28 360,52 352,52 352,52" stroke-linejoin="round" width="8" height="24" fill="rgb(107,211,72)" stroke="rgb(85,168,57)" stroke-width="1" opacity="0.75" />
			</g>
		</g>
		<g>
			<title> (ctg180_49)</title>
			<polygon class=" (ctg180_49)" points="405,25 392,25 392,10 362,40 392,70 392,55 405,55" fill="rgb(255,255,255)" fill-opacity="1.0" stroke="rgb(0,0,0)" stroke-width="2"  />
			<g>
				<title>Aldedh (PF00171)
"Aldehyde dehydrogenase family"</title>
				<polygon class="PF00171" points="374,32 378,28 404,28 404,52 378,52 374,48" stroke-linejoin="round" width="30" height="24" fill="rgb(105,213,139)" stroke="rgb(84,170,111)" stroke-width="1" opacity="0.75" />
			</g>
		</g>
		<g>
			<title> (ctg180_50)</title>
			<polygon class=" (ctg180_50)" points="460,25 451,25 451,10 421,40 451,70 451,55 460,55" fill="rgb(255,255,255)" fill-opacity="1.0" stroke="rgb(0,0,0)" stroke-width="2"  />
			<g>
				<title>DXPR_C (PF13288)
"DXP reductoisomerase C-terminal domain"</title>
				<polygon class="PF13288" points="425,40 433,32 433,48" stroke-linejoin="round" width="11" height="24" fill="rgb(184,95,48)" stroke="rgb(147,76,38)" stroke-width="1" opacity="0.75" />
			</g>
			<g>
				<title>DXP_redisom_C (PF08436)
"1-deoxy-D-xylulose 5-phosphate reductoisomerase C-terminal domain"</title>
				<polygon class="PF08436" points="437,28 437,28 445,28 445,52 437,52 437,52" stroke-linejoin="round" width="8" height="24" fill="rgb(160,186,55)" stroke="rgb(127,148,44)" stroke-width="1" opacity="0.75" />
			</g>
			<g>
				<title>DXP_reductoisom (PF02670)
"1-deoxy-D-xylulose 5-phosphate reductoisomerase"</title>
				<rect class="PF02670" x="446" y="28" stroke-linejoin="round" width="12" height="24" fill="rgb(106,225,169)" stroke="rgb(84,180,135)" stroke-width="1" opacity="0.75" />
			</g>
		</g>
		<g>
			<title> (ctg180_51)</title>
			<polygon class=" (ctg180_51)" points="464,40 470,10 470,70" fill="rgb(255,255,255)" fill-opacity="1.0" stroke="rgb(0,0,0)" stroke-width="2"  />
		</g>
		<g>
			<title> (ctg180_52)</title>
			<polygon class=" (ctg180_52)" points="477,40 504,10 504,70" fill="rgb(255,255,255)" fill-opacity="1.0" stroke="rgb(0,0,0)" stroke-width="2"  />
			<g>
				<title>FA_desaturase (PF00487)
"Fatty acid desaturase"</title>
				<polygon class="PF00487" points="481,40 492,28 501,28 501,52 492,52" stroke-linejoin="round" width="22" height="24" fill="rgb(104,51,205)" stroke="rgb(83,40,164)" stroke-width="1" opacity="0.75" />
			</g>
		</g>
		<g>
			<title> (ctg180_53)</title>
			<polygon class=" (ctg180_53)" points="508,10 512,40 508,70" fill="rgb(255,255,255)" fill-opacity="1.0" stroke="rgb(0,0,0)" stroke-width="2"  />
		</g>
		<g>
			<title> (ctg180_54)</title>
			<polygon class=" (ctg180_54)" points="519,25 531,25 531,10 561,40 531,70 531,55 519,55" fill="rgb(255,255,255)" fill-opacity="1.0" stroke="rgb(0,0,0)" stroke-width="2"  />
			<g>
				<title>MacB_PCD (PF12704)
"MacB-like periplasmic core domain"</title>
				<rect class="PF12704" x="522" y="28" stroke-linejoin="round" width="23" height="24" fill="rgb(79,76,190)" stroke="rgb(63,60,152)" stroke-width="1" opacity="0.75" />
			</g>
			<g>
				<title>FtsX (PF02687)
"FtsX-like permease family"</title>
				<polygon class="PF02687" points="552,35 557,40 552,45" stroke-linejoin="round" width="8" height="24" fill="rgb(126,55,214)" stroke="rgb(100,44,171)" stroke-width="1" opacity="0.75" />
			</g>
		</g>
		<g>
			<title> (ctg180_55)</title>
			<polygon class=" (ctg180_55)" points="562,40 584,10 584,70" fill="rgb(255,255,255)" fill-opacity="1.0" stroke="rgb(0,0,0)" stroke-width="2"  />
			<g>
				<title>ABC_tran (PF00005)
"ABC transporter"</title>
				<polygon class="PF00005" points="567,39 575,28 581,28 581,52 575,52 567,41" stroke-linejoin="round" width="14" height="24" fill="rgb(129,201,63)" stroke="rgb(103,160,50)" stroke-width="1" opacity="0.75" />
			</g>
		</g>
		<g>
			<title> (ctg180_56)</title>
			<polygon class=" (ctg180_56)" points="596,40 608,10 608,70" fill="rgb(255,255,255)" fill-opacity="1.0" stroke="rgb(0,0,0)" stroke-width="2"  />
		</g>
		<g>
			<title> (ctg180_57)</title>
			<polygon class=" (ctg180_57)" points="617,25 640,25 640,10 670,40 640,70 640,55 617,55" fill="rgb(255,255,255)" fill-opacity="1.0" stroke="rgb(0,0,0)" stroke-width="2"  />
			<g>
				<title>Cyt-b5 (PF00173)
"Cytochrome b5-like Heme/Steroid binding domain"</title>
				<rect class="PF00173" x="623" y="28" stroke-linejoin="round" width="6" height="24" fill="rgb(149,209,92)" stroke="rgb(119,167,73)" stroke-width="1" opacity="0.75" />
			</g>
		</g>
		<g>
			<title> (ctg180_58)</title>
			<polygon class=" (ctg180_58)" points="676,25 682,25 682,10 712,40 682,70 682,55 676,55" fill="rgb(255,255,255)" fill-opacity="1.0" stroke="rgb(0,0,0)" stroke-width="2"  />
			<g>
				<title>Chal_sti_synt_N (PF00195)
"Chalcone and stilbene synthases, N-terminal domain"</title>
				<polygon class="PF00195" points="676,28 696,28 698,30 698,50 696,52 676,52" stroke-linejoin="round" width="22" height="24" fill="rgb(60,181,161)" stroke="rgb(47,144,128)" stroke-width="1" opacity="0.75" />
			</g>
			<g>
				<title>Chal_sti_synt_C (PF02797)
"Chalcone and stilbene synthases, C-terminal domain"</title>
				<polygon class="PF02797" points="699,31 708,40 699,49" stroke-linejoin="round" width="12" height="24" fill="rgb(139,212,63)" stroke="rgb(111,169,50)" stroke-width="1" opacity="0.75" />
			</g>
		</g>
		<g>
			<title> (ctg180_59)</title>
			<polygon class=" (ctg180_59)" points="712,40 716,10 716,70" fill="rgb(255,255,255)" fill-opacity="1.0" stroke="rgb(0,0,0)" stroke-width="2"  />
		</g>
	</g>
</svg>
