<svg version="1.1" baseProfile="full" xmlns="http://www.w3.org/2000/svg" width="541.0333333333333" height="80">
	<g>
		<line x1="10" y1="40.0" x2="531.0333333333333" y2="40.0" style="stroke:rgb(70,70,70); stroke-width:3 "/>
		<g>
			<title> (ctg217_1)</title>
			<polygon class=" (ctg217_1)" points="10,40 17,10 17,70" fill="rgb(255,255,255)" fill-opacity="1.0" stroke="rgb(0,0,0)" stroke-width="2"  />
		</g>
		<g>
			<title> (ctg217_2)</title>
			<polygon class=" (ctg217_2)" points="113,25 59,25 59,10 29,40 59,70 59,55 113,55" fill="rgb(255,255,255)" fill-opacity="1.0" stroke="rgb(0,0,0)" stroke-width="2"  />
			<g>
				<title>PS-DH (PF14765)
"Polyketide synthase dehydratase"</title>
				<polygon class="PF14765" points="33,40 45,28 58,28 58,52 45,52" stroke-linejoin="round" width="28" height="24" fill="rgb(173,56,182)" stroke="rgb(138,44,145)" stroke-width="1" opacity="0.75" />
			</g>
			<g>
				<title>KR (PF08659)
"KR domain"</title>
				<rect class="PF08659" x="65" y="28" stroke-linejoin="round" width="22" height="24" fill="rgb(66,209,188)" stroke="rgb(52,167,150)" stroke-width="1" opacity="0.75" />
			</g>
		</g>
		<g>
			<title> (ctg217_3)</title>
			<polygon class=" (ctg217_3)" points="309,25 142,25 142,10 112,40 142,70 142,55 309,55" fill="rgb(255,255,255)" fill-opacity="1.0" stroke="rgb(0,0,0)" stroke-width="2"  />
			<g>
				<title>PP-binding (PF00550)
"Phosphopantetheine attachment site"</title>
				<polygon class="PF00550" points="116,40 120,36 120,44" stroke-linejoin="round" width="6" height="24" fill="rgb(103,191,88)" stroke="rgb(82,152,70)" stroke-width="1" opacity="0.75" />
			</g>
			<g>
				<title>Acyl_transf_1 (PF00698)
"Acyl transferase domain"</title>
				<rect class="PF00698" x="152" y="28" stroke-linejoin="round" width="30" height="24" fill="rgb(59,176,209)" stroke="rgb(47,140,167)" stroke-width="1" opacity="0.75" />
			</g>
			<g>
				<title>Ketoacyl-synt_C (PF02801)
"Beta-ketoacyl synthase, C-terminal domain"</title>
				<rect class="PF02801" x="200" y="28" stroke-linejoin="round" width="11" height="24" fill="rgb(215,78,102)" stroke="rgb(172,62,81)" stroke-width="1" opacity="0.75" />
			</g>
			<g>
				<title>ketoacyl-synt (PF00109)
"Beta-ketoacyl synthase, N-terminal domain"</title>
				<rect class="PF00109" x="212" y="28" stroke-linejoin="round" width="26" height="24" fill="rgb(112,116,228)" stroke="rgb(89,92,182)" stroke-width="1" opacity="0.75" />
			</g>
			<g>
				<title>NMO (PF03060)
"Nitronate monooxygenase"</title>
				<rect class="PF03060" x="241" y="28" stroke-linejoin="round" width="34" height="24" fill="rgb(100,193,226)" stroke="rgb(80,154,180)" stroke-width="1" opacity="0.75" />
			</g>
		</g>
		<g>
			<title> (ctg217_4)</title>
			<polygon class=" (ctg217_4)" points="341,25 340,25 340,10 310,40 340,70 340,55 341,55" fill="rgb(255,255,255)" fill-opacity="1.0" stroke="rgb(0,0,0)" stroke-width="2"  />
			<g>
				<title>CobW_C (PF07683)
"Cobalamin synthesis protein cobW C-terminal domain"</title>
				<polygon class="PF07683" points="314,40 319,35 319,45" stroke-linejoin="round" width="9" height="24" fill="rgb(172,98,218)" stroke="rgb(137,78,174)" stroke-width="1" opacity="0.75" />
			</g>
			<g>
				<title>cobW (PF02492)
"CobW/HypB/UreG, nucleotide-binding domain"</title>
				<polygon class="PF02492" points="323,31 326,28 340,28 340,52 326,52 323,49" stroke-linejoin="round" width="17" height="24" fill="rgb(79,112,178)" stroke="rgb(63,89,142)" stroke-width="1" opacity="0.75" />
			</g>
		</g>
		<g>
			<title> (ctg217_5)</title>
			<polygon class=" (ctg217_5)" points="344,40 373,10 373,70" fill="rgb(255,255,255)" fill-opacity="1.0" stroke="rgb(0,0,0)" stroke-width="2"  />
			<g>
				<title>Methyltransf_31 (PF13847)
"Methyltransferase domain"</title>
				<polygon class="PF13847" points="351,37 360,28 369,28 369,52 360,52 351,43" stroke-linejoin="round" width="18" height="24" fill="rgb(214,74,181)" stroke="rgb(171,59,144)" stroke-width="1" opacity="0.75" />
			</g>
		</g>
		<g>
			<title> (ctg217_6)</title>
			<polygon class=" (ctg217_6)" points="374,40 402,10 402,70" fill="rgb(255,255,255)" fill-opacity="1.0" stroke="rgb(0,0,0)" stroke-width="2"  />
			<g>
				<title>Sulfatase (PF00884)
"Sulfatase"</title>
				<polygon class="PF00884" points="378,40 389,28 401,28 401,52 389,52" stroke-linejoin="round" width="27" height="24" fill="rgb(61,103,198)" stroke="rgb(48,82,158)" stroke-width="1" opacity="0.75" />
			</g>
		</g>
		<g>
			<title> (ctg217_7)</title>
			<polygon class=" (ctg217_7)" points="482,25 445,25 445,10 415,40 445,70 445,55 482,55" fill="rgb(255,255,255)" fill-opacity="1.0" stroke="rgb(0,0,0)" stroke-width="2"  />
			<g>
				<title>FGE-sulfatase (PF03781)
"Sulfatase-modifying factor enzyme 1"</title>
				<polygon class="PF03781" points="419,40 431,28 438,28 438,52 431,52" stroke-linejoin="round" width="23" height="24" fill="rgb(206,81,170)" stroke="rgb(164,64,136)" stroke-width="1" opacity="0.75" />
			</g>
		</g>
		<g>
			<title> (ctg217_8)</title>
			<polygon class=" (ctg217_8)" points="486,10 496,40 486,70" fill="rgb(255,255,255)" fill-opacity="1.0" stroke="rgb(0,0,0)" stroke-width="2"  />
			<g>
				<title>HTH_OrfB_IS605 (PF12323)
"Helix-turn-helix domain"</title>
				<polygon class="PF12323" points="486,28 488,28 490,32 490,48 488,52 486,52" stroke-linejoin="round" width="4" height="24" fill="rgb(102,226,140)" stroke="rgb(81,180,112)" stroke-width="1" opacity="0.75" />
			</g>
		</g>
	</g>
</svg>
