<svg version="1.1" baseProfile="full" xmlns="http://www.w3.org/2000/svg" width="282.1666666666667" height="80">
	<g>
		<line x1="10" y1="40.0" x2="272.1666666666667" y2="40.0" style="stroke:rgb(70,70,70); stroke-width:3 "/>
		<g>
			<title> (ctg405_1)</title>
			<polygon class=" (ctg405_1)" points="15,40 20,10 20,70" fill="rgb(255,255,255)" fill-opacity="1.0" stroke="rgb(0,0,0)" stroke-width="2"  />
		</g>
		<g>
			<title> (ctg405_2)</title>
			<polygon class=" (ctg405_2)" points="174,25 55,25 55,10 25,40 55,70 55,55 174,55" fill="rgb(255,255,255)" fill-opacity="1.0" stroke="rgb(0,0,0)" stroke-width="2"  />
			<g>
				<title>Condensation (PF00668)
"Condensation domain"</title>
				<polygon class="PF00668" points="29,40 41,28 68,28 68,52 41,52" stroke-linejoin="round" width="43" height="24" fill="rgb(224,184,98)" stroke="rgb(179,147,78)" stroke-width="1" opacity="0.75" />
			</g>
			<g>
				<title>PP-binding (PF00550)
"Phosphopantetheine attachment site"</title>
				<rect class="PF00550" x="70" y="28" stroke-linejoin="round" width="6" height="24" fill="rgb(103,191,88)" stroke="rgb(82,152,70)" stroke-width="1" opacity="0.75" />
			</g>
			<g>
				<title>Methyltransf_12 (PF08242)
"Methyltransferase domain"</title>
				<rect class="PF08242" x="107" y="28" stroke-linejoin="round" width="9" height="24" fill="rgb(187,59,115)" stroke="rgb(149,47,92)" stroke-width="1" opacity="0.75" />
			</g>
			<g>
				<title>AMP-binding (PF00501)
"AMP-binding enzyme"</title>
				<rect class="PF00501" x="129" y="28" stroke-linejoin="round" width="41" height="24" fill="rgb(60,217,223)" stroke="rgb(48,173,178)" stroke-width="1" opacity="0.75" />
			</g>
		</g>
		<g>
			<title> (ctg405_3)</title>
			<polygon class=" (ctg405_3)" points="173,40 196,10 196,70" fill="rgb(255,255,255)" fill-opacity="1.0" stroke="rgb(0,0,0)" stroke-width="2"  />
			<g>
				<title>Prenyltransf (PF01255)
"Putative undecaprenyl diphosphate synthase"</title>
				<polygon class="PF01255" points="177,40 186,28 194,28 194,52 186,52" stroke-linejoin="round" width="21" height="24" fill="rgb(129,224,60)" stroke="rgb(103,179,48)" stroke-width="1" opacity="0.75" />
			</g>
		</g>
		<g>
			<title> (ctg405_4)</title>
			<polygon class=" (ctg405_4)" points="233,25 229,25 229,10 199,40 229,70 229,55 233,55" fill="rgb(255,255,255)" fill-opacity="1.0" stroke="rgb(0,0,0)" stroke-width="2"  />
			<g>
				<title>Methyltransf_2 (PF00891)
"O-methyltransferase domain"</title>
				<polygon class="PF00891" points="203,40 215,28 221,28 221,52 215,52" stroke-linejoin="round" width="20" height="24" fill="rgb(50,51,190)" stroke="rgb(39,40,152)" stroke-width="1" opacity="0.75" />
			</g>
			<g>
				<title>Dimerisation2 (PF16864)
"Dimerisation domain"</title>
				<rect class="PF16864" x="223" y="28" stroke-linejoin="round" width="8" height="24" fill="rgb(84,199,85)" stroke="rgb(67,159,68)" stroke-width="1" opacity="0.75" />
			</g>
		</g>
		<g>
			<title> (ctg405_5)</title>
			<polygon class=" (ctg405_5)" points="235,40 254,10 254,70" fill="rgb(255,255,255)" fill-opacity="1.0" stroke="rgb(0,0,0)" stroke-width="2"  />
			<g>
				<title>DUF98 (PF01947)
"p-hydroxybenzoic acid synthase"</title>
				<polygon class="PF01947" points="239,40 247,28 250,28 250,52 247,52" stroke-linejoin="round" width="15" height="24" fill="rgb(200,80,201)" stroke="rgb(160,64,160)" stroke-width="1" opacity="0.75" />
			</g>
		</g>
	</g>
</svg>
