<svg version="1.1" baseProfile="full" xmlns="http://www.w3.org/2000/svg" width="112.43333333333334" height="80">
	<g>
		<line x1="10" y1="40.0" x2="102.43333333333334" y2="40.0" style="stroke:rgb(70,70,70); stroke-width:3 "/>
		<g>
			<title> (ctg456_1)</title>
			<polygon class=" (ctg456_1)" points="10,40 19,10 19,70" fill="rgb(255,255,255)" fill-opacity="1.0" stroke="rgb(0,0,0)" stroke-width="2"  />
			<g>
				<title>RRXRR (PF14239)
"RRXRR protein"</title>
				<polygon class="PF14239" points="13,40 17,28 19,28 19,52 17,52" stroke-linejoin="round" width="9" height="24" fill="rgb(89,228,62)" stroke="rgb(71,182,49)" stroke-width="1" opacity="0.75" />
			</g>
		</g>
		<g>
			<title> (ctg456_2)</title>
			<polygon class=" (ctg456_2)" points="67,25 56,25 56,10 26,40 56,70 56,55 67,55" fill="rgb(255,255,255)" fill-opacity="1.0" stroke="rgb(0,0,0)" stroke-width="2"  />
			<g>
				<title>Radical_SAM (PF04055)
"Radical SAM superfamily"</title>
				<rect class="PF04055" x="52" y="28" stroke-linejoin="round" width="14" height="24" fill="rgb(149,56,222)" stroke="rgb(119,44,177)" stroke-width="1" opacity="0.75" />
			</g>
		</g>
		<g>
			<title> (ctg456_3)</title>
			<polygon class=" (ctg456_3)" points="69,40 75,10 75,70" fill="rgb(255,255,255)" fill-opacity="1.0" stroke="rgb(0,0,0)" stroke-width="2"  />
		</g>
		<g>
			<title> (ctg456_4)</title>
			<polygon class=" (ctg456_4)" points="79,40 89,10 89,70" fill="rgb(255,255,255)" fill-opacity="1.0" stroke="rgb(0,0,0)" stroke-width="2"  />
			<g>
				<title>Nif11 (PF07862)
"Nif11 domain"</title>
				<polygon class="PF07862" points="84,34 86,28 88,28 88,52 86,52 84,46" stroke-linejoin="round" width="4" height="24" fill="rgb(82,202,204)" stroke="rgb(65,161,163)" stroke-width="1" opacity="0.75" />
			</g>
		</g>
	</g>
</svg>
