<svg version="1.1" baseProfile="full" xmlns="http://www.w3.org/2000/svg" width="495.3333333333333" height="80">
	<g>
		<line x1="10" y1="40.0" x2="485.3333333333333" y2="40.0" style="stroke:rgb(70,70,70); stroke-width:3 "/>
		<g>
			<title> (ctg527_14)</title>
			<polygon class=" (ctg527_14)" points="53,10 76,40 53,70" fill="rgb(255,255,255)" fill-opacity="1.0" stroke="rgb(0,0,0)" stroke-width="2"  />
		</g>
		<g>
			<title> (ctg527_15)</title>
			<polygon class=" (ctg527_15)" points="78,25 83,25 83,10 113,40 83,70 83,55 78,55" fill="rgb(255,255,255)" fill-opacity="1.0" stroke="rgb(0,0,0)" stroke-width="2"  />
			<g>
				<title>Epimerase (PF01370)
"NAD dependent epimerase/dehydratase family"</title>
				<polygon class="PF01370" points="78,28 97,28 104,35 104,45 97,52 78,52" stroke-linejoin="round" width="26" height="24" fill="rgb(98,102,214)" stroke="rgb(78,81,171)" stroke-width="1" opacity="0.75" />
			</g>
		</g>
		<g>
			<title> (ctg527_16)</title>
			<polygon class=" (ctg527_16)" points="113,25 157,25 157,10 187,40 157,70 157,55 113,55" fill="rgb(255,255,255)" fill-opacity="1.0" stroke="rgb(0,0,0)" stroke-width="2"  />
		</g>
		<g>
			<title> (ctg527_17)</title>
			<polygon class=" (ctg527_17)" points="188,40 191,10 191,70" fill="rgb(255,255,255)" fill-opacity="1.0" stroke="rgb(0,0,0)" stroke-width="2"  />
		</g>
		<g>
			<title> (ctg527_18)</title>
			<polygon class=" (ctg527_18)" points="198,10 214,40 198,70" fill="rgb(255,255,255)" fill-opacity="1.0" stroke="rgb(0,0,0)" stroke-width="2"  />
			<g>
				<title>ARD (PF03079)
"ARD/ARD' family"</title>
				<polygon class="PF03079" points="198,28 204,28 210,40 204,52 198,52" stroke-linejoin="round" width="14" height="24" fill="rgb(49,194,66)" stroke="rgb(39,155,52)" stroke-width="1" opacity="0.75" />
			</g>
		</g>
		<g>
			<title> (ctg527_19)</title>
			<polygon class=" (ctg527_19)" points="233,40 249,10 249,70" fill="rgb(255,255,255)" fill-opacity="1.0" stroke="rgb(0,0,0)" stroke-width="2"  />
		</g>
		<g>
			<title> (ctg527_20)</title>
			<polygon class=" (ctg527_20)" points="295,25 292,25 292,10 262,40 292,70 292,55 295,55" fill="rgb(255,255,255)" fill-opacity="1.0" stroke="rgb(0,0,0)" stroke-width="2"  />
			<g>
				<title>Glycos_transf_1 (PF00534)
"Glycosyl transferases group 1"</title>
				<polygon class="PF00534" points="268,38 278,28 281,28 281,52 278,52 268,42" stroke-linejoin="round" width="13" height="24" fill="rgb(228,92,150)" stroke="rgb(182,73,119)" stroke-width="1" opacity="0.75" />
			</g>
		</g>
		<g>
			<title> (ctg527_21)</title>
			<polygon class=" (ctg527_21)" points="310,10 320,40 310,70" fill="rgb(255,255,255)" fill-opacity="1.0" stroke="rgb(0,0,0)" stroke-width="2"  />
			<g>
				<title>HigB_toxin (PF09907)
"HigB_toxin, RelE-like toxic component of a toxin-antitoxin system"</title>
				<polygon class="PF09907" points="311,28 312,28 317,40 312,52 311,52" stroke-linejoin="round" width="7" height="24" fill="rgb(169,190,88)" stroke="rgb(135,152,70)" stroke-width="1" opacity="0.75" />
			</g>
		</g>
		<g>
			<title> (ctg527_22)</title>
			<polygon class=" (ctg527_22)" points="328,10 341,40 328,70" fill="rgb(255,255,255)" fill-opacity="1.0" stroke="rgb(0,0,0)" stroke-width="2"  />
		</g>
		<g>
			<title> (ctg527_23)</title>
			<polygon class=" (ctg527_23)" points="407,25 373,25 373,10 343,40 373,70 373,55 407,55" fill="rgb(255,255,255)" fill-opacity="1.0" stroke="rgb(0,0,0)" stroke-width="2"  />
			<g>
				<title>SQHop_cyclase_C (PF13243)
"Squalene-hopene cyclase C-terminal domain"</title>
				<polygon class="PF13243" points="347,40 359,28 375,28 375,52 359,52" stroke-linejoin="round" width="32" height="24" fill="rgb(191,58,201)" stroke="rgb(152,46,160)" stroke-width="1" opacity="0.75" />
			</g>
			<g>
				<title>SQHop_cyclase_N (PF13249)
"Squalene-hopene cyclase N-terminal domain"</title>
				<rect class="PF13249" x="376" y="28" stroke-linejoin="round" width="28" height="24" fill="rgb(88,190,89)" stroke="rgb(70,152,71)" stroke-width="1" opacity="0.75" />
			</g>
		</g>
		<g>
			<title> (ctg527_24)</title>
			<polygon class=" (ctg527_24)" points="415,40 432,10 432,70" fill="rgb(255,255,255)" fill-opacity="1.0" stroke="rgb(0,0,0)" stroke-width="2"  />
			<g>
				<title>EF_TS (PF00889)
"Elongation factor TS"</title>
				<polygon class="PF00889" points="420,37 425,28 430,28 430,52 425,52 420,43" stroke-linejoin="round" width="10" height="24" fill="rgb(69,212,85)" stroke="rgb(55,169,67)" stroke-width="1" opacity="0.75" />
			</g>
		</g>
		<g>
			<title> (ctg527_25)</title>
			<polygon class=" (ctg527_25)" points="433,10 441,40 433,70" fill="rgb(255,255,255)" fill-opacity="1.0" stroke="rgb(0,0,0)" stroke-width="2"  />
		</g>
		<g>
			<title> (ctg527_26)</title>
			<polygon class=" (ctg527_26)" points="444,40 471,10 471,70" fill="rgb(255,255,255)" fill-opacity="1.0" stroke="rgb(0,0,0)" stroke-width="2"  />
			<g>
				<title>Ribosomal_S2 (PF00318)
"Ribosomal protein S2"</title>
				<polygon class="PF00318" points="448,40 459,28 469,28 469,52 459,52 448,40" stroke-linejoin="round" width="21" height="24" fill="rgb(60,213,66)" stroke="rgb(48,170,52)" stroke-width="1" opacity="0.75" />
			</g>
		</g>
	</g>
</svg>
