<svg version="1.1" baseProfile="full" xmlns="http://www.w3.org/2000/svg" width="351.53333333333336" height="80">
	<g>
		<line x1="10" y1="40.0" x2="341.53333333333336" y2="40.0" style="stroke:rgb(70,70,70); stroke-width:3 "/>
		<g>
			<title> (ctg105_1)</title>
			<polygon class=" (ctg105_1)" points="10,40 15,10 15,70" fill="rgb(255,255,255)" fill-opacity="1.0" stroke="rgb(0,0,0)" stroke-width="2"  />
		</g>
		<g>
			<title> (ctg105_2)</title>
			<polygon class=" (ctg105_2)" points="19,25 104,25 104,10 134,40 104,70 104,55 19,55" fill="rgb(255,255,255)" fill-opacity="1.0" stroke="rgb(0,0,0)" stroke-width="2"  />
			<g>
				<title>ketoacyl-synt (PF00109)
"Beta-ketoacyl synthase, N-terminal domain"</title>
				<rect class="PF00109" x="19" y="28" stroke-linejoin="round" width="23" height="24" fill="rgb(112,116,228)" stroke="rgb(89,92,182)" stroke-width="1" opacity="0.75" />
			</g>
			<g>
				<title>Ketoacyl-synt_C (PF02801)
"Beta-ketoacyl synthase, C-terminal domain"</title>
				<rect class="PF02801" x="43" y="28" stroke-linejoin="round" width="11" height="24" fill="rgb(215,78,102)" stroke="rgb(172,62,81)" stroke-width="1" opacity="0.75" />
			</g>
			<g>
				<title>KAsynt_C_assoc (PF16197)
"Ketoacyl-synthetase C-terminal extension"</title>
				<rect class="PF16197" x="55" y="28" stroke-linejoin="round" width="11" height="24" fill="rgb(240,150,172)" stroke="rgb(192,120,137)" stroke-width="1" opacity="0.75" />
			</g>
			<g>
				<title>PP-binding (PF00550)
"Phosphopantetheine attachment site"</title>
				<rect class="PF00550" x="100" y="28" stroke-linejoin="round" width="6" height="24" fill="rgb(103,191,88)" stroke="rgb(82,152,70)" stroke-width="1" opacity="0.75" />
			</g>
			<g>
				<title>Thioesterase (PF00975)
"Thioesterase domain"</title>
				<polygon class="PF00975" points="110,28 118,28 130,40 118,52 110,52" stroke-linejoin="round" width="24" height="24" fill="rgb(207,80,138)" stroke="rgb(165,63,110)" stroke-width="1" opacity="0.75" />
			</g>
		</g>
		<g>
			<title> (ctg105_3)</title>
			<polygon class=" (ctg105_3)" points="138,25 138,25 138,10 168,40 138,70 138,55 138,55" fill="rgb(255,255,255)" fill-opacity="1.0" stroke="rgb(0,0,0)" stroke-width="2"  />
		</g>
		<g>
			<title> (ctg105_4)</title>
			<polygon class=" (ctg105_4)" points="181,10 194,40 181,70" fill="rgb(255,255,255)" fill-opacity="1.0" stroke="rgb(0,0,0)" stroke-width="2"  />
		</g>
		<g>
			<title> (ctg105_5)</title>
			<polygon class=" (ctg105_5)" points="197,25 217,25 217,10 247,40 217,70 217,55 197,55" fill="rgb(255,255,255)" fill-opacity="1.0" stroke="rgb(0,0,0)" stroke-width="2"  />
			<g>
				<title>AAA (PF00004)
"ATPase family associated with various cellular activities (AAA)"</title>
				<polygon class="PF00004" points="223,28 231,28 236,33 236,47 231,52 223,52" stroke-linejoin="round" width="13" height="24" fill="rgb(57,194,204)" stroke="rgb(45,155,163)" stroke-width="1" opacity="0.75" />
			</g>
		</g>
		<g>
			<title> (ctg105_6)</title>
			<polygon class=" (ctg105_6)" points="249,10 263,40 249,70" fill="rgb(255,255,255)" fill-opacity="1.0" stroke="rgb(0,0,0)" stroke-width="2"  />
			<g>
				<title>DUF1257 (PF06868)
"Protein of unknown function (DUF1257)"</title>
				<polygon class="PF06868" points="253,28 254,28 260,40 254,52 253,52" stroke-linejoin="round" width="9" height="24" fill="rgb(53,211,155)" stroke="rgb(42,168,124)" stroke-width="1" opacity="0.75" />
			</g>
		</g>
		<g>
			<title> (ctg105_7)</title>
			<polygon class=" (ctg105_7)" points="267,10 288,40 267,70" fill="rgb(255,255,255)" fill-opacity="1.0" stroke="rgb(0,0,0)" stroke-width="2"  />
			<g>
				<title>Methyltransf_11 (PF08241)
"Methyltransferase domain"</title>
				<polygon class="PF08241" points="274,28 276,28 280,34 280,46 276,52 274,52" stroke-linejoin="round" width="6" height="24" fill="rgb(106,219,159)" stroke="rgb(84,175,127)" stroke-width="1" opacity="0.75" />
			</g>
		</g>
		<g>
			<title> (ctg105_8)</title>
			<polygon class=" (ctg105_8)" points="287,40 296,10 296,70" fill="rgb(255,255,255)" fill-opacity="1.0" stroke="rgb(0,0,0)" stroke-width="2"  />
		</g>
		<g>
			<title> (ctg105_9)</title>
			<polygon class=" (ctg105_9)" points="296,40 303,10 303,70" fill="rgb(255,255,255)" fill-opacity="1.0" stroke="rgb(0,0,0)" stroke-width="2"  />
		</g>
		<g>
			<title> (ctg105_10)</title>
			<polygon class=" (ctg105_10)" points="309,40 314,10 314,70" fill="rgb(255,255,255)" fill-opacity="1.0" stroke="rgb(0,0,0)" stroke-width="2"  />
		</g>
		<g>
			<title> (ctg105_11)</title>
			<polygon class=" (ctg105_11)" points="324,10 337,40 324,70" fill="rgb(255,255,255)" fill-opacity="1.0" stroke="rgb(0,0,0)" stroke-width="2"  />
		</g>
	</g>
</svg>
