<svg version="1.1" baseProfile="full" xmlns="http://www.w3.org/2000/svg" width="717.7666666666667" height="80">
	<g>
		<line x1="10" y1="40.0" x2="707.7666666666667" y2="40.0" style="stroke:rgb(70,70,70); stroke-width:3 "/>
		<g>
			<title> (ctg107_20)</title>
			<polygon class=" (ctg107_20)" points="42,25 43,25 43,10 73,40 43,70 43,55 42,55" fill="rgb(255,255,255)" fill-opacity="1.0" stroke="rgb(0,0,0)" stroke-width="2"  />
			<g>
				<title>Response_reg (PF00072)
"Response regulator receiver domain"</title>
				<rect class="PF00072" x="43" y="28" stroke-linejoin="round" width="11" height="24" fill="rgb(100,107,203)" stroke="rgb(80,85,162)" stroke-width="1" opacity="0.75" />
			</g>
			<g>
				<title>GGDEF (PF00990)
"Diguanylate cyclase, GGDEF domain"</title>
				<polygon class="PF00990" points="56,28 56,28 68,40 56,52 56,52" stroke-linejoin="round" width="15" height="24" fill="rgb(62,170,199)" stroke="rgb(49,135,159)" stroke-width="1" opacity="0.75" />
			</g>
		</g>
		<g>
			<title> (ctg107_21)</title>
			<polygon class=" (ctg107_21)" points="73,10 99,40 73,70" fill="rgb(255,255,255)" fill-opacity="1.0" stroke="rgb(0,0,0)" stroke-width="2"  />
			<g>
				<title>SBP_bac_3 (PF00497)
"Bacterial extracellular solute-binding proteins, family 3"</title>
				<polygon class="PF00497" points="76,28 85,28 95,40 85,52 76,52" stroke-linejoin="round" width="22" height="24" fill="rgb(186,76,141)" stroke="rgb(148,60,112)" stroke-width="1" opacity="0.75" />
			</g>
		</g>
		<g>
			<title> (ctg107_22)</title>
			<polygon class=" (ctg107_22)" points="105,10 122,40 105,70" fill="rgb(255,255,255)" fill-opacity="1.0" stroke="rgb(0,0,0)" stroke-width="2"  />
			<g>
				<title>TPR_12 (PF13424)
"Tetratricopeptide repeat"</title>
				<polygon class="PF13424" points="110,28 112,28 117,36 117,44 112,52 110,52" stroke-linejoin="round" width="7" height="24" fill="rgb(147,215,101)" stroke="rgb(117,172,80)" stroke-width="1" opacity="0.75" />
			</g>
		</g>
		<g>
			<title> (ctg107_23)</title>
			<polygon class=" (ctg107_23)" points="185,25 155,25 155,10 125,40 155,70 155,55 185,55" fill="rgb(255,255,255)" fill-opacity="1.0" stroke="rgb(0,0,0)" stroke-width="2"  />
			<g>
				<title>CitMHS (PF03600)
"Citrate transporter"</title>
				<polygon class="PF03600" points="130,39 141,28 182,28 182,52 141,52 130,41" stroke-linejoin="round" width="52" height="24" fill="rgb(75,203,220)" stroke="rgb(60,162,176)" stroke-width="1" opacity="0.75" />
			</g>
		</g>
		<g>
			<title> (ctg107_24)</title>
			<polygon class=" (ctg107_24)" points="277,25 215,25 215,10 185,40 215,70 215,55 277,55" fill="rgb(255,255,255)" fill-opacity="1.0" stroke="rgb(0,0,0)" stroke-width="2"  />
			<g>
				<title>Cation_ATPase_C (PF00689)
"Cation transporting ATPase, C-terminus"</title>
				<polygon class="PF00689" points="189,40 201,28 202,28 202,52 201,52" stroke-linejoin="round" width="17" height="24" fill="rgb(76,203,161)" stroke="rgb(60,162,128)" stroke-width="1" opacity="0.75" />
			</g>
			<g>
				<title>Hydrolase (PF00702)
"haloacid dehalogenase-like hydrolase"</title>
				<rect class="PF00702" x="210" y="28" stroke-linejoin="round" width="32" height="24" fill="rgb(68,220,102)" stroke="rgb(54,176,81)" stroke-width="1" opacity="0.75" />
			</g>
			<g>
				<title>E1-E2_ATPase (PF00122)
"E1-E2 ATPase"</title>
				<rect class="PF00122" x="245" y="28" stroke-linejoin="round" width="19" height="24" fill="rgb(149,204,70)" stroke="rgb(119,163,56)" stroke-width="1" opacity="0.75" />
			</g>
			<g>
				<title>Cation_ATPase_N (PF00690)
"Cation transporter/ATPase, N-terminus"</title>
				<rect class="PF00690" x="269" y="28" stroke-linejoin="round" width="6" height="24" fill="rgb(174,102,225)" stroke="rgb(139,81,180)" stroke-width="1" opacity="0.75" />
			</g>
		</g>
		<g>
			<title> (ctg107_25)</title>
			<polygon class=" (ctg107_25)" points="292,25 309,25 309,10 339,40 309,70 309,55 292,55" fill="rgb(255,255,255)" fill-opacity="1.0" stroke="rgb(0,0,0)" stroke-width="2"  />
			<g>
				<title>Amino_oxidase (PF01593)
"Flavin containing amine oxidoreductase"</title>
				<polygon class="PF01593" points="293,28 323,28 335,40 323,52 293,52" stroke-linejoin="round" width="44" height="24" fill="rgb(184,74,52)" stroke="rgb(147,59,41)" stroke-width="1" opacity="0.75" />
			</g>
		</g>
		<g>
			<title> (ctg107_26)</title>
			<polygon class=" (ctg107_26)" points="343,25 344,25 344,10 374,40 344,70 344,55 343,55" fill="rgb(255,255,255)" fill-opacity="1.0" stroke="rgb(0,0,0)" stroke-width="2"  />
			<g>
				<title>SQS_PSY (PF00494)
"Squalene/phytoene synthase"</title>
				<polygon class="PF00494" points="345,28 357,28 369,40 357,52 345,52" stroke-linejoin="round" width="26" height="24" fill="rgb(178,91,49)" stroke="rgb(142,72,39)" stroke-width="1" opacity="0.75" />
			</g>
		</g>
		<g>
			<title> (ctg107_27)</title>
			<polygon class=" (ctg107_27)" points="384,40 399,10 399,70" fill="rgb(255,255,255)" fill-opacity="1.0" stroke="rgb(0,0,0)" stroke-width="2"  />
		</g>
		<g>
			<title> (ctg107_28)</title>
			<polygon class=" (ctg107_28)" points="419,40 442,10 442,70" fill="rgb(255,255,255)" fill-opacity="1.0" stroke="rgb(0,0,0)" stroke-width="2"  />
			<g>
				<title>Pirin_C_2 (PF17954)
"Quercetinase C-terminal cupin domain"</title>
				<polygon class="PF17954" points="423,40 427,35 427,45" stroke-linejoin="round" width="8" height="24" fill="rgb(224,140,102)" stroke="rgb(179,112,81)" stroke-width="1" opacity="0.75" />
			</g>
			<g>
				<title>Pirin (PF02678)
"Pirin"</title>
				<polygon class="PF02678" points="430,31 432,28 441,28 441,52 432,52 430,49" stroke-linejoin="round" width="11" height="24" fill="rgb(139,213,61)" stroke="rgb(111,170,48)" stroke-width="1" opacity="0.75" />
			</g>
		</g>
		<g>
			<title> (ctg107_29)</title>
			<polygon class=" (ctg107_29)" points="447,40 464,10 464,70" fill="rgb(255,255,255)" fill-opacity="1.0" stroke="rgb(0,0,0)" stroke-width="2"  />
		</g>
		<g>
			<title> (ctg107_30)</title>
			<polygon class=" (ctg107_30)" points="520,25 496,25 496,10 466,40 496,70 496,55 520,55" fill="rgb(255,255,255)" fill-opacity="1.0" stroke="rgb(0,0,0)" stroke-width="2"  />
			<g>
				<title>Metallophos (PF00149)
"Calcineurin-like phosphoesterase"</title>
				<polygon class="PF00149" points="477,33 482,28 507,28 507,52 482,52 477,47" stroke-linejoin="round" width="30" height="24" fill="rgb(181,197,58)" stroke="rgb(144,157,46)" stroke-width="1" opacity="0.75" />
			</g>
		</g>
		<g>
			<title> (ctg107_31)</title>
			<polygon class=" (ctg107_31)" points="582,25 554,25 554,10 524,40 554,70 554,55 582,55" fill="rgb(255,255,255)" fill-opacity="1.0" stroke="rgb(0,0,0)" stroke-width="2"  />
			<g>
				<title>ABC_tran (PF00005)
"ABC transporter"</title>
				<polygon class="PF00005" points="531,37 540,28 545,28 545,52 540,52 531,43" stroke-linejoin="round" width="14" height="24" fill="rgb(129,201,63)" stroke="rgb(103,160,50)" stroke-width="1" opacity="0.75" />
			</g>
			<g>
				<title>ABC_membrane (PF00664)
"ABC transporter transmembrane region"</title>
				<rect class="PF00664" x="553" y="28" stroke-linejoin="round" width="27" height="24" fill="rgb(149,226,73)" stroke="rgb(119,180,58)" stroke-width="1" opacity="0.75" />
			</g>
		</g>
		<g>
			<title> (ctg107_32)</title>
			<polygon class=" (ctg107_32)" points="585,40 589,10 589,70" fill="rgb(255,255,255)" fill-opacity="1.0" stroke="rgb(0,0,0)" stroke-width="2"  />
		</g>
		<g>
			<title> (ctg107_33)</title>
			<polygon class=" (ctg107_33)" points="620,25 634,25 634,10 664,40 634,70 634,55 620,55" fill="rgb(255,255,255)" fill-opacity="1.0" stroke="rgb(0,0,0)" stroke-width="2"  />
			<g>
				<title>NMT1_2 (PF13379)
"NMT1-like family"</title>
				<polygon class="PF13379" points="625,28 647,28 650,31 650,49 647,52 625,52" stroke-linejoin="round" width="25" height="24" fill="rgb(139,182,81)" stroke="rgb(111,145,64)" stroke-width="1" opacity="0.75" />
			</g>
		</g>
		<g>
			<title> (ctg107_34)</title>
			<polygon class=" (ctg107_34)" points="670,10 697,40 670,70" fill="rgb(255,255,255)" fill-opacity="1.0" stroke="rgb(0,0,0)" stroke-width="2"  />
			<g>
				<title>BPD_transp_1 (PF00528)
"Binding-protein-dependent transport system inner membrane component"</title>
				<polygon class="PF00528" points="679,28 682,28 693,40 682,52 679,52" stroke-linejoin="round" width="17" height="24" fill="rgb(77,208,225)" stroke="rgb(61,166,180)" stroke-width="1" opacity="0.75" />
			</g>
		</g>
	</g>
</svg>
