<svg version="1.1" baseProfile="full" xmlns="http://www.w3.org/2000/svg" width="167.56666666666666" height="80">
	<g>
		<line x1="10" y1="40.0" x2="157.56666666666666" y2="40.0" style="stroke:rgb(70,70,70); stroke-width:3 "/>
		<g>
			<title> (ctg108_1)</title>
			<polygon class=" (ctg108_1)" points="13,10 24,40 13,70" fill="rgb(255,255,255)" fill-opacity="1.0" stroke="rgb(0,0,0)" stroke-width="2"  />
			<g>
				<title>DDE_Tnp_1_3 (PF13612)
"Transposase DDE domain"</title>
				<polygon class="PF13612" points="19,34 21,40 19,46" stroke-linejoin="round" width="4" height="24" fill="rgb(205,75,164)" stroke="rgb(164,60,131)" stroke-width="1" opacity="0.75" />
			</g>
		</g>
		<g>
			<title> (ctg108_2)</title>
			<polygon class=" (ctg108_2)" points="38,40 44,10 44,70" fill="rgb(255,255,255)" fill-opacity="1.0" stroke="rgb(0,0,0)" stroke-width="2"  />
			<g>
				<title>HTH_29 (PF13551)
"Winged helix-turn helix"</title>
				<polygon class="PF13551" points="41,40 43,28 43,28 43,52 43,52" stroke-linejoin="round" width="4" height="24" fill="rgb(163,71,225)" stroke="rgb(130,56,180)" stroke-width="1" opacity="0.75" />
			</g>
		</g>
		<g>
			<title> (ctg108_3)</title>
			<polygon class=" (ctg108_3)" points="72,10 97,40 72,70" fill="rgb(255,255,255)" fill-opacity="1.0" stroke="rgb(0,0,0)" stroke-width="2"  />
		</g>
		<g>
			<title> (ctg108_4)</title>
			<polygon class=" (ctg108_4)" points="96,25 116,25 116,10 146,40 116,70 116,55 96,55" fill="rgb(255,255,255)" fill-opacity="1.0" stroke="rgb(0,0,0)" stroke-width="2"  />
			<g>
				<title>DUF692 (PF05114)
"Protein of unknown function (DUF692)"</title>
				<rect class="PF05114" x="97" y="28" stroke-linejoin="round" width="25" height="24" fill="rgb(63,196,127)" stroke="rgb(50,156,101)" stroke-width="1" opacity="0.75" />
			</g>
		</g>
	</g>
</svg>
