<svg version="1.1" baseProfile="full" xmlns="http://www.w3.org/2000/svg" width="511.96666666666664" height="80">
	<g>
		<line x1="10" y1="40.0" x2="501.96666666666664" y2="40.0" style="stroke:rgb(70,70,70); stroke-width:3 "/>
		<g>
			<title> (ctg35_1)</title>
			<polygon class=" (ctg35_1)" points="27,40 34,10 34,70" fill="rgb(255,255,255)" fill-opacity="1.0" stroke="rgb(0,0,0)" stroke-width="2"  />
		</g>
		<g>
			<title> (ctg35_2)</title>
			<polygon class=" (ctg35_2)" points="61,25 64,25 64,10 94,40 64,70 64,55 61,55" fill="rgb(255,255,255)" fill-opacity="1.0" stroke="rgb(0,0,0)" stroke-width="2"  />
		</g>
		<g>
			<title> (ctg35_3)</title>
			<polygon class=" (ctg35_3)" points="98,10 117,40 98,70" fill="rgb(255,255,255)" fill-opacity="1.0" stroke="rgb(0,0,0)" stroke-width="2"  />
			<g>
				<title>Collar (PF07484)
"Phage Tail Collar Domain"</title>
				<polygon class="PF07484" points="98,28 106,28 107,30 107,50 106,52 98,52" stroke-linejoin="round" width="9" height="24" fill="rgb(76,212,168)" stroke="rgb(60,169,134)" stroke-width="1" opacity="0.75" />
			</g>
		</g>
		<g>
			<title> (ctg35_4)</title>
			<polygon class=" (ctg35_4)" points="120,40 136,10 136,70" fill="rgb(255,255,255)" fill-opacity="1.0" stroke="rgb(0,0,0)" stroke-width="2"  />
		</g>
		<g>
			<title> (ctg35_5)</title>
			<polygon class=" (ctg35_5)" points="136,40 148,10 148,70" fill="rgb(255,255,255)" fill-opacity="1.0" stroke="rgb(0,0,0)" stroke-width="2"  />
			<g>
				<title>Polbeta (PF18765)
"Polymerase beta, Nucleotidyltransferase"</title>
				<polygon class="PF18765" points="139,40 144,28 144,28 144,52 144,52" stroke-linejoin="round" width="8" height="24" fill="rgb(225,120,66)" stroke="rgb(180,96,52)" stroke-width="1" opacity="0.75" />
			</g>
		</g>
		<g>
			<title> (ctg35_6)</title>
			<polygon class=" (ctg35_6)" points="161,10 168,40 161,70" fill="rgb(255,255,255)" fill-opacity="1.0" stroke="rgb(0,0,0)" stroke-width="2"  />
			<g>
				<title>PhdYeFM_antitox (PF02604)
"Antitoxin Phd_YefM, type II toxin-antitoxin system"</title>
				<polygon class="PF02604" points="161,28 161,28 165,39 165,41 161,52 161,52" stroke-linejoin="round" width="4" height="24" fill="rgb(204,60,69)" stroke="rgb(163,48,55)" stroke-width="1" opacity="0.75" />
			</g>
		</g>
		<g>
			<title> (ctg35_7)</title>
			<polygon class=" (ctg35_7)" points="169,10 176,40 169,70" fill="rgb(255,255,255)" fill-opacity="1.0" stroke="rgb(0,0,0)" stroke-width="2"  />
			<g>
				<title>DUF2281 (PF10047)
"Protein of unknown function (DUF2281)"</title>
				<polygon class="PF10047" points="171,31 173,40 171,49" stroke-linejoin="round" width="4" height="24" fill="rgb(200,158,54)" stroke="rgb(160,126,43)" stroke-width="1" opacity="0.75" />
			</g>
		</g>
		<g>
			<title> (ctg35_8)</title>
			<polygon class=" (ctg35_8)" points="176,10 188,40 176,70" fill="rgb(255,255,255)" fill-opacity="1.0" stroke="rgb(0,0,0)" stroke-width="2"  />
			<g>
				<title>PIN (PF01850)
"PIN domain"</title>
				<polygon class="PF01850" points="176,28 180,28 185,40 180,52 176,52" stroke-linejoin="round" width="12" height="24" fill="rgb(91,217,126)" stroke="rgb(72,173,100)" stroke-width="1" opacity="0.75" />
			</g>
		</g>
		<g>
			<title> (ctg35_9)</title>
			<polygon class=" (ctg35_9)" points="199,10 210,40 199,70" fill="rgb(255,255,255)" fill-opacity="1.0" stroke="rgb(0,0,0)" stroke-width="2"  />
			<g>
				<title>Gp49 (PF05973)
"Phage derived protein Gp49-like (DUF891)"</title>
				<polygon class="PF05973" points="200,28 202,28 207,40 202,52 200,52" stroke-linejoin="round" width="8" height="24" fill="rgb(81,198,58)" stroke="rgb(64,158,46)" stroke-width="1" opacity="0.75" />
			</g>
		</g>
		<g>
			<title> (ctg35_10)</title>
			<polygon class=" (ctg35_10)" points="211,10 221,40 211,70" fill="rgb(255,255,255)" fill-opacity="1.0" stroke="rgb(0,0,0)" stroke-width="2"  />
			<g>
				<title>HTH_37 (PF13744)
"Helix-turn-helix domain"</title>
				<polygon class="PF13744" points="212,28 213,28 217,40 213,52 212,52" stroke-linejoin="round" width="8" height="24" fill="rgb(113,218,98)" stroke="rgb(90,174,78)" stroke-width="1" opacity="0.75" />
			</g>
		</g>
		<g>
			<title> (ctg35_11)</title>
			<polygon class=" (ctg35_11)" points="222,40 228,10 228,70" fill="rgb(255,255,255)" fill-opacity="1.0" stroke="rgb(0,0,0)" stroke-width="2"  />
			<g>
				<title>YcaO (PF02624)
"YcaO cyclodehydratase, ATP-ad Mg2+-binding"</title>
				<polygon class="PF02624" points="225,40 227,31 227,49 225,40" stroke-linejoin="round" width="2" height="24" fill="rgb(76,84,185)" stroke="rgb(60,67,148)" stroke-width="1" opacity="0.75" />
			</g>
		</g>
		<g>
			<title> (ctg35_12)</title>
			<polygon class=" (ctg35_12)" points="241,10 252,40 241,70" fill="rgb(255,255,255)" fill-opacity="1.0" stroke="rgb(0,0,0)" stroke-width="2"  />
			<g>
				<title>MVL (PF12151)
"Mannan-binding protein"</title>
				<polygon class="PF12151" points="242,28 244,28 245,29 245,51 244,52 242,52" stroke-linejoin="round" width="3" height="24" fill="rgb(172,219,73)" stroke="rgb(137,175,58)" stroke-width="1" opacity="0.75" />
			</g>
			<g>
				<title>MVL (PF12151)
"Mannan-binding protein"</title>
				<polygon class="PF12151" points="248,37 249,40 248,43" stroke-linejoin="round" width="3" height="24" fill="rgb(172,219,73)" stroke="rgb(137,175,58)" stroke-width="1" opacity="0.75" />
			</g>
		</g>
		<g>
			<title> (ctg35_13)</title>
			<polygon class=" (ctg35_13)" points="332,25 286,25 286,10 256,40 286,70 286,55 332,55" fill="rgb(255,255,255)" fill-opacity="1.0" stroke="rgb(0,0,0)" stroke-width="2"  />
			<g>
				<title>YcaO (PF02624)
"YcaO cyclodehydratase, ATP-ad Mg2+-binding"</title>
				<polygon class="PF02624" points="260,40 272,28 292,28 292,52 272,52" stroke-linejoin="round" width="33" height="24" fill="rgb(76,84,185)" stroke="rgb(60,67,148)" stroke-width="1" opacity="0.75" />
			</g>
		</g>
		<g>
			<title> (ctg35_14)</title>
			<polygon class=" (ctg35_14)" points="352,10 363,40 352,70" fill="rgb(255,255,255)" fill-opacity="1.0" stroke="rgb(0,0,0)" stroke-width="2"  />
			<g>
				<title>Rubredoxin (PF00301)
"Rubredoxin"</title>
				<polygon class="PF00301" points="353,28 355,28 357,32 357,48 355,52 353,52" stroke-linejoin="round" width="4" height="24" fill="rgb(130,88,185)" stroke="rgb(104,70,148)" stroke-width="1" opacity="0.75" />
			</g>
		</g>
		<g>
			<title> (ctg35_15)</title>
			<polygon class=" (ctg35_15)" points="368,25 371,25 371,10 401,40 371,70 371,55 368,55" fill="rgb(255,255,255)" fill-opacity="1.0" stroke="rgb(0,0,0)" stroke-width="2"  />
			<g>
				<title>PSII_BNR (PF14870)
"Photosynthesis system II assembly factor YCF48"</title>
				<polygon class="PF14870" points="370,28 384,28 396,40 384,52 370,52" stroke-linejoin="round" width="30" height="24" fill="rgb(188,81,115)" stroke="rgb(150,64,92)" stroke-width="1" opacity="0.75" />
			</g>
		</g>
		<g>
			<title> (ctg35_16)</title>
			<polygon class=" (ctg35_16)" points="403,10 411,40 403,70" fill="rgb(255,255,255)" fill-opacity="1.0" stroke="rgb(0,0,0)" stroke-width="2"  />
			<g>
				<title>Cytochrom_B559 (PF00283)
"Cytochrome b559, alpha (gene psbE) and beta (gene psbF)subunits"</title>
				<polygon class="PF00283" points="403,28 404,28 405,29 405,51 404,52 403,52" stroke-linejoin="round" width="2" height="24" fill="rgb(69,149,197)" stroke="rgb(55,119,157)" stroke-width="1" opacity="0.75" />
			</g>
			<g>
				<title>Cytochrom_B559a (PF00284)
"Lumenal portion of Cytochrome b559, alpha (gene psbE) subunit"</title>
				<polygon class="PF00284" points="407,37 408,40 407,43" stroke-linejoin="round" width="3" height="24" fill="rgb(87,188,64)" stroke="rgb(69,150,51)" stroke-width="1" opacity="0.75" />
			</g>
		</g>
		<g>
			<title> (ctg35_17)</title>
			<polygon class=" (ctg35_17)" points="412,10 416,40 412,70" fill="rgb(255,255,255)" fill-opacity="1.0" stroke="rgb(0,0,0)" stroke-width="2"  />
			<g>
				<title>Cytochrom_B559 (PF00283)
"Cytochrome b559, alpha (gene psbE) and beta (gene psbF)subunits"</title>
				<polygon class="PF00283" points="412,31 413,40 412,49" stroke-linejoin="round" width="2" height="24" fill="rgb(69,149,197)" stroke="rgb(55,119,157)" stroke-width="1" opacity="0.75" />
			</g>
		</g>
		<g>
			<title> (ctg35_18)</title>
			<polygon class=" (ctg35_18)" points="417,10 421,40 417,70" fill="rgb(255,255,255)" fill-opacity="1.0" stroke="rgb(0,0,0)" stroke-width="2"  />
			<g>
				<title>PsbL (PF02419)
"PsbL protein"</title>
				<polygon class="PF02419" points="417,33 417,40 417,47" stroke-linejoin="round" width="3" height="24" fill="rgb(200,88,151)" stroke="rgb(160,70,120)" stroke-width="1" opacity="0.75" />
			</g>
		</g>
		<g>
			<title> (ctg35_19)</title>
			<polygon class=" (ctg35_19)" points="423,10 427,40 423,70" fill="rgb(255,255,255)" fill-opacity="1.0" stroke="rgb(0,0,0)" stroke-width="2"  />
			<g>
				<title>PsbJ (PF01788)
"PsbJ"</title>
				<polygon class="PF01788" points="423,33 423,40 423,47" stroke-linejoin="round" width="3" height="24" fill="rgb(56,185,118)" stroke="rgb(44,148,94)" stroke-width="1" opacity="0.75" />
			</g>
		</g>
		<g>
			<title> (ctg35_20)</title>
			<polygon class=" (ctg35_20)" points="489,25 469,25 469,10 439,40 469,70 469,55 489,55" fill="rgb(255,255,255)" fill-opacity="1.0" stroke="rgb(0,0,0)" stroke-width="2"  />
			<g>
				<title>PSII (PF00421)
"Photosystem II protein"</title>
				<polygon class="PF00421" points="443,40 455,28 488,28 488,52 455,52" stroke-linejoin="round" width="49" height="24" fill="rgb(183,68,103)" stroke="rgb(146,54,82)" stroke-width="1" opacity="0.75" />
			</g>
		</g>
	</g>
</svg>
