<svg version="1.1" baseProfile="full" xmlns="http://www.w3.org/2000/svg" width="559.8" height="80">
	<g>
		<line x1="10" y1="40.0" x2="549.8" y2="40.0" style="stroke:rgb(70,70,70); stroke-width:3 "/>
		<g>
			<title> (ctg312_1)</title>
			<polygon class=" (ctg312_1)" points="10,10 14,40 10,70" fill="rgb(255,255,255)" fill-opacity="1.0" stroke="rgb(0,0,0)" stroke-width="2"  />
		</g>
		<g>
			<title> (ctg312_2)</title>
			<polygon class=" (ctg312_2)" points="15,10 38,40 15,70" fill="rgb(255,255,255)" fill-opacity="1.0" stroke="rgb(0,0,0)" stroke-width="2"  />
			<g>
				<title>Pirin (PF02678)
"Pirin"</title>
				<polygon class="PF02678" points="15,28 25,28 26,30 26,50 25,52 15,52" stroke-linejoin="round" width="11" height="24" fill="rgb(139,213,61)" stroke="rgb(111,170,48)" stroke-width="1" opacity="0.75" />
			</g>
			<g>
				<title>Pirin_C_2 (PF17954)
"Quercetinase C-terminal cupin domain"</title>
				<polygon class="PF17954" points="29,34 34,40 29,46" stroke-linejoin="round" width="8" height="24" fill="rgb(224,140,102)" stroke="rgb(179,112,81)" stroke-width="1" opacity="0.75" />
			</g>
		</g>
		<g>
			<title> (ctg312_3)</title>
			<polygon class=" (ctg312_3)" points="40,40 48,10 48,70" fill="rgb(255,255,255)" fill-opacity="1.0" stroke="rgb(0,0,0)" stroke-width="2"  />
		</g>
		<g>
			<title> (ctg312_4)</title>
			<polygon class=" (ctg312_4)" points="56,40 74,10 74,70" fill="rgb(255,255,255)" fill-opacity="1.0" stroke="rgb(0,0,0)" stroke-width="2"  />
		</g>
		<g>
			<title> (ctg312_5)</title>
			<polygon class=" (ctg312_5)" points="76,40 102,10 102,70" fill="rgb(255,255,255)" fill-opacity="1.0" stroke="rgb(0,0,0)" stroke-width="2"  />
			<g>
				<title>PG_binding_1 (PF01471)
"Putative peptidoglycan binding domain"</title>
				<polygon class="PF01471" points="80,40 81,39 81,41" stroke-linejoin="round" width="5" height="24" fill="rgb(186,74,131)" stroke="rgb(148,59,104)" stroke-width="1" opacity="0.75" />
			</g>
			<g>
				<title>Amidase_2 (PF01510)
"N-acetylmuramoyl-L-alanine amidase"</title>
				<polygon class="PF01510" points="85,34 91,28 100,28 100,52 91,52 85,46" stroke-linejoin="round" width="15" height="24" fill="rgb(122,192,71)" stroke="rgb(97,153,56)" stroke-width="1" opacity="0.75" />
			</g>
		</g>
		<g>
			<title> (ctg312_6)</title>
			<polygon class=" (ctg312_6)" points="105,40 119,10 119,70" fill="rgb(255,255,255)" fill-opacity="1.0" stroke="rgb(0,0,0)" stroke-width="2"  />
		</g>
		<g>
			<title> (ctg312_7)</title>
			<polygon class=" (ctg312_7)" points="124,40 147,10 147,70" fill="rgb(255,255,255)" fill-opacity="1.0" stroke="rgb(0,0,0)" stroke-width="2"  />
			<g>
				<title>Phage_lysozyme2 (PF18013)
"Phage tail lysozyme"</title>
				<polygon class="PF18013" points="128,40 136,30 136,50" stroke-linejoin="round" width="12" height="24" fill="rgb(106,215,163)" stroke="rgb(84,172,130)" stroke-width="1" opacity="0.75" />
			</g>
			<g>
				<title>PG_binding_1 (PF01471)
"Putative peptidoglycan binding domain"</title>
				<rect class="PF01471" x="139" y="28" stroke-linejoin="round" width="5" height="24" fill="rgb(186,74,131)" stroke="rgb(148,59,104)" stroke-width="1" opacity="0.75" />
			</g>
		</g>
		<g>
			<title> (ctg312_8)</title>
			<polygon class=" (ctg312_8)" points="163,40 170,10 170,70" fill="rgb(255,255,255)" fill-opacity="1.0" stroke="rgb(0,0,0)" stroke-width="2"  />
		</g>
		<g>
			<title> (ctg312_9)</title>
			<polygon class=" (ctg312_9)" points="171,10 182,40 171,70" fill="rgb(255,255,255)" fill-opacity="1.0" stroke="rgb(0,0,0)" stroke-width="2"  />
		</g>
		<g>
			<title> (ctg312_10)</title>
			<polygon class=" (ctg312_10)" points="216,25 215,25 215,10 185,40 215,70 215,55 216,55" fill="rgb(255,255,255)" fill-opacity="1.0" stroke="rgb(0,0,0)" stroke-width="2"  />
			<g>
				<title>SQS_PSY (PF00494)
"Squalene/phytoene synthase"</title>
				<polygon class="PF00494" points="189,40 201,28 212,28 212,52 201,52" stroke-linejoin="round" width="26" height="24" fill="rgb(178,91,49)" stroke="rgb(142,72,39)" stroke-width="1" opacity="0.75" />
			</g>
		</g>
		<g>
			<title> (ctg312_11)</title>
			<polygon class=" (ctg312_11)" points="266,25 249,25 249,10 219,40 249,70 249,55 266,55" fill="rgb(255,255,255)" fill-opacity="1.0" stroke="rgb(0,0,0)" stroke-width="2"  />
			<g>
				<title>Amino_oxidase (PF01593)
"Flavin containing amine oxidoreductase"</title>
				<polygon class="PF01593" points="223,40 235,28 265,28 265,52 235,52" stroke-linejoin="round" width="44" height="24" fill="rgb(184,74,52)" stroke="rgb(147,59,41)" stroke-width="1" opacity="0.75" />
			</g>
		</g>
		<g>
			<title> (ctg312_12)</title>
			<polygon class=" (ctg312_12)" points="276,25 338,25 338,10 368,40 338,70 338,55 276,55" fill="rgb(255,255,255)" fill-opacity="1.0" stroke="rgb(0,0,0)" stroke-width="2"  />
			<g>
				<title>Cation_ATPase_N (PF00690)
"Cation transporter/ATPase, N-terminus"</title>
				<rect class="PF00690" x="277" y="28" stroke-linejoin="round" width="6" height="24" fill="rgb(174,102,225)" stroke="rgb(139,81,180)" stroke-width="1" opacity="0.75" />
			</g>
			<g>
				<title>E1-E2_ATPase (PF00122)
"E1-E2 ATPase"</title>
				<rect class="PF00122" x="289" y="28" stroke-linejoin="round" width="19" height="24" fill="rgb(149,204,70)" stroke="rgb(119,163,56)" stroke-width="1" opacity="0.75" />
			</g>
			<g>
				<title>Hydrolase (PF00702)
"haloacid dehalogenase-like hydrolase"</title>
				<rect class="PF00702" x="310" y="28" stroke-linejoin="round" width="32" height="24" fill="rgb(68,220,102)" stroke="rgb(54,176,81)" stroke-width="1" opacity="0.75" />
			</g>
			<g>
				<title>Cation_ATPase_C (PF00689)
"Cation transporting ATPase, C-terminus"</title>
				<polygon class="PF00689" points="350,28 352,28 364,40 352,52 350,52" stroke-linejoin="round" width="17" height="24" fill="rgb(76,203,161)" stroke="rgb(60,162,128)" stroke-width="1" opacity="0.75" />
			</g>
		</g>
		<g>
			<title> (ctg312_13)</title>
			<polygon class=" (ctg312_13)" points="369,25 399,25 399,10 429,40 399,70 399,55 369,55" fill="rgb(255,255,255)" fill-opacity="1.0" stroke="rgb(0,0,0)" stroke-width="2"  />
			<g>
				<title>CitMHS (PF03600)
"Citrate transporter"</title>
				<polygon class="PF03600" points="370,28 412,28 422,38 422,42 412,52 370,52" stroke-linejoin="round" width="52" height="24" fill="rgb(75,203,220)" stroke="rgb(60,162,176)" stroke-width="1" opacity="0.75" />
			</g>
		</g>
		<g>
			<title> (ctg312_14)</title>
			<polygon class=" (ctg312_14)" points="431,40 448,10 448,70" fill="rgb(255,255,255)" fill-opacity="1.0" stroke="rgb(0,0,0)" stroke-width="2"  />
			<g>
				<title>TPR_12 (PF13424)
"Tetratricopeptide repeat"</title>
				<polygon class="PF13424" points="436,37 441,28 443,28 443,52 441,52 436,43" stroke-linejoin="round" width="7" height="24" fill="rgb(147,215,101)" stroke="rgb(117,172,80)" stroke-width="1" opacity="0.75" />
			</g>
		</g>
		<g>
			<title> (ctg312_15)</title>
			<polygon class=" (ctg312_15)" points="455,40 481,10 481,70" fill="rgb(255,255,255)" fill-opacity="1.0" stroke="rgb(0,0,0)" stroke-width="2"  />
			<g>
				<title>SBP_bac_3 (PF00497)
"Bacterial extracellular solute-binding proteins, family 3"</title>
				<polygon class="PF00497" points="459,40 469,28 477,28 477,52 469,52" stroke-linejoin="round" width="22" height="24" fill="rgb(186,76,141)" stroke="rgb(148,60,112)" stroke-width="1" opacity="0.75" />
			</g>
		</g>
	</g>
</svg>
