<svg version="1.1" baseProfile="full" xmlns="http://www.w3.org/2000/svg" width="161.33333333333334" height="80">
	<g>
		<line x1="10" y1="40.0" x2="151.33333333333334" y2="40.0" style="stroke:rgb(70,70,70); stroke-width:3 "/>
		<g>
			<title> (ctg1021_1)</title>
			<polygon class=" (ctg1021_1)" points="10,10 30,40 10,70" fill="rgb(255,255,255)" fill-opacity="1.0" stroke="rgb(0,0,0)" stroke-width="2"  />
			<g>
				<title>SPASM (PF13186)
"Iron-sulfur cluster-binding domain"</title>
				<polygon class="PF13186" points="17,28 18,28 23,35 23,45 18,52 17,52" stroke-linejoin="round" width="6" height="24" fill="rgb(183,66,65)" stroke="rgb(146,52,51)" stroke-width="1" opacity="0.75" />
			</g>
		</g>
		<g>
			<title> (ctg1021_2)</title>
			<polygon class=" (ctg1021_2)" points="33,10 38,40 33,70" fill="rgb(255,255,255)" fill-opacity="1.0" stroke="rgb(0,0,0)" stroke-width="2"  />
		</g>
		<g>
			<title> (ctg1021_3)</title>
			<polygon class=" (ctg1021_3)" points="45,25 84,25 84,10 114,40 84,70 84,55 45,55" fill="rgb(255,255,255)" fill-opacity="1.0" stroke="rgb(0,0,0)" stroke-width="2"  />
			<g>
				<title>SQHop_cyclase_C (PF13243)
"Squalene-hopene cyclase C-terminal domain"</title>
				<polygon class="PF13243" points="83,28 97,28 109,40 109,40 97,52 83,52" stroke-linejoin="round" width="26" height="24" fill="rgb(191,58,201)" stroke="rgb(152,46,160)" stroke-width="1" opacity="0.75" />
			</g>
		</g>
		<g>
			<title> (ctg1021_4)</title>
			<polygon class=" (ctg1021_4)" points="115,25 120,25 120,10 150,40 120,70 120,55 115,55" fill="rgb(255,255,255)" fill-opacity="1.0" stroke="rgb(0,0,0)" stroke-width="2"  />
		</g>
	</g>
</svg>
