<svg version="1.1" baseProfile="full" xmlns="http://www.w3.org/2000/svg" width="100.06666666666666" height="80">
	<g>
		<line x1="10" y1="40.0" x2="90.06666666666666" y2="40.0" style="stroke:rgb(70,70,70); stroke-width:3 "/>
		<g>
			<title> (ctg255_1)</title>
			<polygon class=" (ctg255_1)" points="13,10 17,40 13,70" fill="rgb(255,255,255)" fill-opacity="1.0" stroke="rgb(0,0,0)" stroke-width="2"  />
		</g>
		<g>
			<title> (ctg255_2)</title>
			<polygon class=" (ctg255_2)" points="30,10 37,40 30,70" fill="rgb(255,255,255)" fill-opacity="1.0" stroke="rgb(0,0,0)" stroke-width="2"  />
		</g>
		<g>
			<title> (ctg255_3)</title>
			<polygon class=" (ctg255_3)" points="38,10 47,40 38,70" fill="rgb(255,255,255)" fill-opacity="1.0" stroke="rgb(0,0,0)" stroke-width="2"  />
			<g>
				<title>YafQ_toxin (PF15738)
"Bacterial toxin of type II toxin-antitoxin system, YafQ"</title>
				<polygon class="PF15738" points="38,28 40,28 44,40 40,52 38,52" stroke-linejoin="round" width="9" height="24" fill="rgb(58,224,128)" stroke="rgb(46,179,102)" stroke-width="1" opacity="0.75" />
			</g>
		</g>
		<g>
			<title> (ctg255_4)</title>
			<polygon class=" (ctg255_4)" points="49,25 55,25 55,10 85,40 55,70 55,55 49,55" fill="rgb(255,255,255)" fill-opacity="1.0" stroke="rgb(0,0,0)" stroke-width="2"  />
			<g>
				<title>Peptidase_S8 (PF00082)
"Subtilase family"</title>
				<polygon class="PF00082" points="51,28 68,28 79,39 79,41 68,52 51,52" stroke-linejoin="round" width="28" height="24" fill="rgb(193,159,94)" stroke="rgb(154,127,75)" stroke-width="1" opacity="0.75" />
			</g>
		</g>
		<g>
			<title> (ctg255_5)</title>
			<polygon class=" (ctg255_5)" points="87,10 89,40 87,70" fill="rgb(255,255,255)" fill-opacity="1.0" stroke="rgb(0,0,0)" stroke-width="2"  />
		</g>
	</g>
</svg>
