<svg version="1.1" baseProfile="full" xmlns="http://www.w3.org/2000/svg" width="691.7666666666667" height="80">
	<g>
		<line x1="10" y1="40.0" x2="681.7666666666667" y2="40.0" style="stroke:rgb(70,70,70); stroke-width:3 "/>
		<g>
			<title> (ctg59_17)</title>
			<polygon class=" (ctg59_17)" points="32,40 38,10 38,70" fill="rgb(255,255,255)" fill-opacity="1.0" stroke="rgb(0,0,0)" stroke-width="2"  />
		</g>
		<g>
			<title> (ctg59_18)</title>
			<polygon class=" (ctg59_18)" points="81,25 69,25 69,10 39,40 69,70 69,55 81,55" fill="rgb(255,255,255)" fill-opacity="1.0" stroke="rgb(0,0,0)" stroke-width="2"  />
			<g>
				<title>Wzy_C (PF04932)
"O-Antigen ligase"</title>
				<polygon class="PF04932" points="46,37 55,28 60,28 60,52 55,52 46,43" stroke-linejoin="round" width="14" height="24" fill="rgb(106,219,107)" stroke="rgb(84,175,85)" stroke-width="1" opacity="0.75" />
			</g>
		</g>
		<g>
			<title> (ctg59_19)</title>
			<polygon class=" (ctg59_19)" points="81,40 108,10 108,70" fill="rgb(255,255,255)" fill-opacity="1.0" stroke="rgb(0,0,0)" stroke-width="2"  />
		</g>
		<g>
			<title> (ctg59_20)</title>
			<polygon class=" (ctg59_20)" points="112,25 113,25 113,10 143,40 113,70 113,55 112,55" fill="rgb(255,255,255)" fill-opacity="1.0" stroke="rgb(0,0,0)" stroke-width="2"  />
			<g>
				<title>NAD_binding_8 (PF13450)
"NAD(P)-binding Rossmann-like domain"</title>
				<rect class="PF13450" x="113" y="28" stroke-linejoin="round" width="6" height="24" fill="rgb(91,180,227)" stroke="rgb(72,144,181)" stroke-width="1" opacity="0.75" />
			</g>
		</g>
		<g>
			<title> (ctg59_21)</title>
			<polygon class=" (ctg59_21)" points="147,10 155,40 147,70" fill="rgb(255,255,255)" fill-opacity="1.0" stroke="rgb(0,0,0)" stroke-width="2"  />
		</g>
		<g>
			<title> (ctg59_22)</title>
			<polygon class=" (ctg59_22)" points="163,25 201,25 201,10 231,40 201,70 201,55 163,55" fill="rgb(255,255,255)" fill-opacity="1.0" stroke="rgb(0,0,0)" stroke-width="2"  />
			<g>
				<title>ABC_membrane_2 (PF06472)
"ABC transporter transmembrane region 2"</title>
				<rect class="PF06472" x="168" y="28" stroke-linejoin="round" width="25" height="24" fill="rgb(120,179,45)" stroke="rgb(96,143,36)" stroke-width="1" opacity="0.75" />
			</g>
			<g>
				<title>ABC_tran (PF00005)
"ABC transporter"</title>
				<polygon class="PF00005" points="203,28 215,28 216,29 216,51 215,52 203,52" stroke-linejoin="round" width="13" height="24" fill="rgb(129,201,63)" stroke="rgb(103,160,50)" stroke-width="1" opacity="0.75" />
			</g>
		</g>
		<g>
			<title> (ctg59_23)</title>
			<polygon class=" (ctg59_23)" points="238,10 255,40 238,70" fill="rgb(255,255,255)" fill-opacity="1.0" stroke="rgb(0,0,0)" stroke-width="2"  />
			<g>
				<title>Acetyltransf_3 (PF13302)
"Acetyltransferase (GNAT) domain"</title>
				<polygon class="PF13302" points="239,28 245,28 252,40 245,52 239,52" stroke-linejoin="round" width="14" height="24" fill="rgb(105,146,215)" stroke="rgb(84,116,172)" stroke-width="1" opacity="0.75" />
			</g>
		</g>
		<g>
			<title> (ctg59_24)</title>
			<polygon class=" (ctg59_24)" points="297,25 295,25 295,10 265,40 295,70 295,55 297,55" fill="rgb(255,255,255)" fill-opacity="1.0" stroke="rgb(0,0,0)" stroke-width="2"  />
		</g>
		<g>
			<title> (ctg59_25)</title>
			<polygon class=" (ctg59_25)" points="333,25 331,25 331,10 301,40 331,70 331,55 333,55" fill="rgb(255,255,255)" fill-opacity="1.0" stroke="rgb(0,0,0)" stroke-width="2"  />
		</g>
		<g>
			<title> (ctg59_26)</title>
			<polygon class=" (ctg59_26)" points="343,40 348,10 348,70" fill="rgb(255,255,255)" fill-opacity="1.0" stroke="rgb(0,0,0)" stroke-width="2"  />
			<g>
				<title>Inhibitor_I10 (PF12559)
"Serine endopeptidase inhibitors"</title>
				<polygon class="PF12559" points="346,40 347,34 347,46" stroke-linejoin="round" width="4" height="24" fill="rgb(179,147,51)" stroke="rgb(143,117,40)" stroke-width="1" opacity="0.75" />
			</g>
		</g>
		<g>
			<title> (ctg59_27)</title>
			<polygon class=" (ctg59_27)" points="349,40 354,10 354,70" fill="rgb(255,255,255)" fill-opacity="1.0" stroke="rgb(0,0,0)" stroke-width="2"  />
		</g>
		<g>
			<title> (ctg59_28)</title>
			<polygon class=" (ctg59_28)" points="405,25 396,25 396,10 366,40 396,70 396,55 405,55" fill="rgb(255,255,255)" fill-opacity="1.0" stroke="rgb(0,0,0)" stroke-width="2"  />
			<g>
				<title>FTSW_RODA_SPOVE (PF01098)
"Cell cycle protein"</title>
				<polygon class="PF01098" points="370,40 382,28 388,28 388,52 382,52" stroke-linejoin="round" width="22" height="24" fill="rgb(57,114,205)" stroke="rgb(45,91,164)" stroke-width="1" opacity="0.75" />
			</g>
		</g>
		<g>
			<title> (ctg59_29)</title>
			<polygon class=" (ctg59_29)" points="451,25 446,25 446,10 416,40 446,70 446,55 451,55" fill="rgb(255,255,255)" fill-opacity="1.0" stroke="rgb(0,0,0)" stroke-width="2"  />
			<g>
				<title>ParA (PF10609)
"NUBPL iron-transfer P-loop NTPase"</title>
				<polygon class="PF10609" points="420,40 432,28 441,28 441,52 432,52" stroke-linejoin="round" width="24" height="24" fill="rgb(107,194,90)" stroke="rgb(85,155,72)" stroke-width="1" opacity="0.75" />
			</g>
			<g>
				<title>FeS_assembly_P (PF01883)
"Iron-sulfur cluster assembly protein"</title>
				<rect class="PF01883" x="443" y="28" stroke-linejoin="round" width="7" height="24" fill="rgb(171,209,57)" stroke="rgb(136,167,45)" stroke-width="1" opacity="0.75" />
			</g>
		</g>
		<g>
			<title> (ctg59_30)</title>
			<polygon class=" (ctg59_30)" points="458,40 484,10 484,70" fill="rgb(255,255,255)" fill-opacity="1.0" stroke="rgb(0,0,0)" stroke-width="2"  />
			<g>
				<title>MOSC (PF03473)
"MOSC domain"</title>
				<polygon class="PF03473" points="462,40 470,31 470,49" stroke-linejoin="round" width="12" height="24" fill="rgb(96,194,162)" stroke="rgb(76,155,129)" stroke-width="1" opacity="0.75" />
			</g>
			<g>
				<title>MOSC_N (PF03476)
"MOSC N-terminal beta barrel domain"</title>
				<polygon class="PF03476" points="473,28 473,28 484,28 484,52 473,52 473,52" stroke-linejoin="round" width="11" height="24" fill="rgb(209,103,209)" stroke="rgb(167,82,167)" stroke-width="1" opacity="0.75" />
			</g>
		</g>
		<g>
			<title> (ctg59_31)</title>
			<polygon class=" (ctg59_31)" points="526,25 514,25 514,10 484,40 514,70 514,55 526,55" fill="rgb(255,255,255)" fill-opacity="1.0" stroke="rgb(0,0,0)" stroke-width="2"  />
			<g>
				<title>Glycos_transf_1 (PF00534)
"Glycosyl transferases group 1"</title>
				<polygon class="PF00534" points="488,40 500,28 505,28 505,52 500,52" stroke-linejoin="round" width="19" height="24" fill="rgb(228,92,150)" stroke="rgb(182,73,119)" stroke-width="1" opacity="0.75" />
			</g>
		</g>
		<g>
			<title> (ctg59_32)</title>
			<polygon class=" (ctg59_32)" points="532,25 541,25 541,10 571,40 541,70 541,55 532,55" fill="rgb(255,255,255)" fill-opacity="1.0" stroke="rgb(0,0,0)" stroke-width="2"  />
		</g>
		<g>
			<title> (ctg59_33)</title>
			<polygon class=" (ctg59_33)" points="618,25 604,25 604,10 574,40 604,70 604,55 618,55" fill="rgb(255,255,255)" fill-opacity="1.0" stroke="rgb(0,0,0)" stroke-width="2"  />
			<g>
				<title>Amidase (PF01425)
"Amidase"</title>
				<polygon class="PF01425" points="578,40 590,28 615,28 615,52 590,52" stroke-linejoin="round" width="40" height="24" fill="rgb(195,142,64)" stroke="rgb(156,113,51)" stroke-width="1" opacity="0.75" />
			</g>
		</g>
		<g>
			<title> (ctg59_34)</title>
			<polygon class=" (ctg59_34)" points="618,40 623,10 623,70" fill="rgb(255,255,255)" fill-opacity="1.0" stroke="rgb(0,0,0)" stroke-width="2"  />
			<g>
				<title>DUF4089 (PF13318)
"Protein of unknown function (DUF4089)"</title>
				<polygon class="PF13318" points="621,40 622,35 622,45" stroke-linejoin="round" width="4" height="24" fill="rgb(94,206,139)" stroke="rgb(75,164,111)" stroke-width="1" opacity="0.75" />
			</g>
		</g>
	</g>
</svg>
