<svg version="1.1" baseProfile="full" xmlns="http://www.w3.org/2000/svg" width="449.06666666666666" height="80">
	<g>
		<line x1="10" y1="40.0" x2="439.06666666666666" y2="40.0" style="stroke:rgb(70,70,70); stroke-width:3 "/>
		<g>
			<title> (ctg340_1)</title>
			<polygon class=" (ctg340_1)" points="24,10 50,40 24,70" fill="rgb(255,255,255)" fill-opacity="1.0" stroke="rgb(0,0,0)" stroke-width="2"  />
			<g>
				<title>Ribosomal_S2 (PF00318)
"Ribosomal protein S2"</title>
				<polygon class="PF00318" points="24,28 35,28 45,39 45,41 35,52 24,52" stroke-linejoin="round" width="21" height="24" fill="rgb(60,213,66)" stroke="rgb(48,170,52)" stroke-width="1" opacity="0.75" />
			</g>
		</g>
		<g>
			<title> (ctg340_2)</title>
			<polygon class=" (ctg340_2)" points="55,10 80,40 55,70" fill="rgb(255,255,255)" fill-opacity="1.0" stroke="rgb(0,0,0)" stroke-width="2"  />
			<g>
				<title>EF_TS (PF00889)
"Elongation factor TS"</title>
				<polygon class="PF00889" points="55,28 66,28 74,38 74,42 66,52 55,52" stroke-linejoin="round" width="19" height="24" fill="rgb(69,212,85)" stroke="rgb(55,169,67)" stroke-width="1" opacity="0.75" />
			</g>
		</g>
		<g>
			<title> (ctg340_3)</title>
			<polygon class=" (ctg340_3)" points="87,25 121,25 121,10 151,40 121,70 121,55 87,55" fill="rgb(255,255,255)" fill-opacity="1.0" stroke="rgb(0,0,0)" stroke-width="2"  />
			<g>
				<title>SQHop_cyclase_N (PF13249)
"Squalene-hopene cyclase N-terminal domain"</title>
				<rect class="PF13249" x="89" y="28" stroke-linejoin="round" width="28" height="24" fill="rgb(88,190,89)" stroke="rgb(70,152,71)" stroke-width="1" opacity="0.75" />
			</g>
			<g>
				<title>SQHop_cyclase_C (PF13243)
"Squalene-hopene cyclase C-terminal domain"</title>
				<polygon class="PF13243" points="119,28 135,28 147,40 135,52 119,52" stroke-linejoin="round" width="32" height="24" fill="rgb(191,58,201)" stroke="rgb(152,46,160)" stroke-width="1" opacity="0.75" />
			</g>
		</g>
		<g>
			<title> (ctg340_4)</title>
			<polygon class=" (ctg340_4)" points="154,40 167,10 167,70" fill="rgb(255,255,255)" fill-opacity="1.0" stroke="rgb(0,0,0)" stroke-width="2"  />
		</g>
		<g>
			<title> (ctg340_5)</title>
			<polygon class=" (ctg340_5)" points="174,40 184,10 184,70" fill="rgb(255,255,255)" fill-opacity="1.0" stroke="rgb(0,0,0)" stroke-width="2"  />
			<g>
				<title>HigB_toxin (PF09907)
"HigB_toxin, RelE-like toxic component of a toxin-antitoxin system"</title>
				<polygon class="PF09907" points="177,40 181,28 182,28 182,52 181,52" stroke-linejoin="round" width="7" height="24" fill="rgb(169,190,88)" stroke="rgb(135,152,70)" stroke-width="1" opacity="0.75" />
			</g>
		</g>
		<g>
			<title> (ctg340_6)</title>
			<polygon class=" (ctg340_6)" points="199,25 202,25 202,10 232,40 202,70 202,55 199,55" fill="rgb(255,255,255)" fill-opacity="1.0" stroke="rgb(0,0,0)" stroke-width="2"  />
			<g>
				<title>Glycos_transf_1 (PF00534)
"Glycosyl transferases group 1"</title>
				<polygon class="PF00534" points="212,28 215,28 225,38 225,42 215,52 212,52" stroke-linejoin="round" width="13" height="24" fill="rgb(228,92,150)" stroke="rgb(182,73,119)" stroke-width="1" opacity="0.75" />
			</g>
		</g>
		<g>
			<title> (ctg340_7)</title>
			<polygon class=" (ctg340_7)" points="290,25 285,25 285,10 255,40 285,70 285,55 290,55" fill="rgb(255,255,255)" fill-opacity="1.0" stroke="rgb(0,0,0)" stroke-width="2"  />
			<g>
				<title>Pentapeptide (PF00805)
"Pentapeptide repeats (8 copies)"</title>
				<polygon class="PF00805" points="259,40 260,39 260,41" stroke-linejoin="round" width="3" height="24" fill="rgb(186,52,164)" stroke="rgb(148,41,131)" stroke-width="1" opacity="0.75" />
			</g>
			<g>
				<title>Pentapeptide (PF00805)
"Pentapeptide repeats (8 copies)"</title>
				<polygon class="PF00805" points="262,37 265,34 265,46 262,43" stroke-linejoin="round" width="3" height="24" fill="rgb(186,52,164)" stroke="rgb(148,41,131)" stroke-width="1" opacity="0.75" />
			</g>
		</g>
		<g>
			<title> (ctg340_8)</title>
			<polygon class=" (ctg340_8)" points="296,40 325,10 325,70" fill="rgb(255,255,255)" fill-opacity="1.0" stroke="rgb(0,0,0)" stroke-width="2"  />
		</g>
		<g>
			<title> (ctg340_9)</title>
			<polygon class=" (ctg340_9)" points="334,10 345,40 334,70" fill="rgb(255,255,255)" fill-opacity="1.0" stroke="rgb(0,0,0)" stroke-width="2"  />
		</g>
		<g>
			<title> (ctg340_10)</title>
			<polygon class=" (ctg340_10)" points="345,10 365,40 345,70" fill="rgb(255,255,255)" fill-opacity="1.0" stroke="rgb(0,0,0)" stroke-width="2"  />
			<g>
				<title>Aldolase_II (PF00596)
"Class II Aldolase and Adducin N-terminal domain"</title>
				<polygon class="PF00596" points="347,28 353,28 361,40 353,52 347,52" stroke-linejoin="round" width="17" height="24" fill="rgb(208,130,90)" stroke="rgb(166,104,72)" stroke-width="1" opacity="0.75" />
			</g>
		</g>
		<g>
			<title> (ctg340_11)</title>
			<polygon class=" (ctg340_11)" points="382,25 399,25 399,10 429,40 399,70 399,55 382,55" fill="rgb(255,255,255)" fill-opacity="1.0" stroke="rgb(0,0,0)" stroke-width="2"  />
			<g>
				<title>Lyase_1 (PF00206)
"Lyase"</title>
				<rect class="PF00206" x="382" y="28" stroke-linejoin="round" width="29" height="24" fill="rgb(217,92,141)" stroke="rgb(173,73,112)" stroke-width="1" opacity="0.75" />
			</g>
			<g>
				<title>ASL_C2 (PF14698)
"Argininosuccinate lyase C-terminal"</title>
				<polygon class="PF14698" points="418,34 424,40 424,40 418,46" stroke-linejoin="round" width="6" height="24" fill="rgb(107,69,187)" stroke="rgb(85,55,149)" stroke-width="1" opacity="0.75" />
			</g>
		</g>
	</g>
</svg>
