<svg version="1.1" baseProfile="full" xmlns="http://www.w3.org/2000/svg" width="1434.6333333333334" height="80">
	<g>
		<line x1="10" y1="40.0" x2="1424.6333333333334" y2="40.0" style="stroke:rgb(70,70,70); stroke-width:3 "/>
		<g>
			<title> (ctg348_1)</title>
			<polygon class=" (ctg348_1)" points="10,40 33,10 33,70" fill="rgb(255,255,255)" fill-opacity="1.0" stroke="rgb(0,0,0)" stroke-width="2"  />
			<g>
				<title>HemolysinCabind (PF00353)
"RTX calcium-binding nonapeptide repeat (4 copies)"</title>
				<polygon class="PF00353" points="14,40 16,37 16,43" stroke-linejoin="round" width="3" height="24" fill="rgb(73,143,181)" stroke="rgb(58,114,144)" stroke-width="1" opacity="0.75" />
			</g>
		</g>
		<g>
			<title> (ctg348_2)</title>
			<polygon class=" (ctg348_2)" points="69,25 68,25 68,10 38,40 68,70 68,55 69,55" fill="rgb(255,255,255)" fill-opacity="1.0" stroke="rgb(0,0,0)" stroke-width="2"  />
		</g>
		<g>
			<title> (ctg348_3)</title>
			<polygon class=" (ctg348_3)" points="74,40 83,10 83,70" fill="rgb(255,255,255)" fill-opacity="1.0" stroke="rgb(0,0,0)" stroke-width="2"  />
			<g>
				<title>DUF4351 (PF14261)
"Domain of unknown function (DUF4351)"</title>
				<polygon class="PF14261" points="77,40 81,28 82,28 82,52 81,52" stroke-linejoin="round" width="8" height="24" fill="rgb(66,53,182)" stroke="rgb(52,42,145)" stroke-width="1" opacity="0.75" />
			</g>
		</g>
		<g>
			<title> (ctg348_4)</title>
			<polygon class=" (ctg348_4)" points="140,25 124,25 124,10 94,40 124,70 124,55 140,55" fill="rgb(255,255,255)" fill-opacity="1.0" stroke="rgb(0,0,0)" stroke-width="2"  />
			<g>
				<title>MFS_3 (PF05977)
"Transmembrane secretion effector"</title>
				<polygon class="PF05977" points="98,40 110,28 124,28 124,52 110,52" stroke-linejoin="round" width="30" height="24" fill="rgb(80,62,217)" stroke="rgb(64,49,173)" stroke-width="1" opacity="0.75" />
			</g>
		</g>
		<g>
			<title> (ctg348_5)</title>
			<polygon class=" (ctg348_5)" points="144,40 170,10 170,70" fill="rgb(255,255,255)" fill-opacity="1.0" stroke="rgb(0,0,0)" stroke-width="2"  />
			<g>
				<title>RecO_C (PF02565)
"Recombination protein O C terminal"</title>
				<polygon class="PF02565" points="148,40 158,28 161,28 161,52 158,52" stroke-linejoin="round" width="16" height="24" fill="rgb(108,200,225)" stroke="rgb(86,160,180)" stroke-width="1" opacity="0.75" />
			</g>
			<g>
				<title>RecO_N (PF11967)
"Recombination protein O N terminal"</title>
				<rect class="PF11967" x="162" y="28" stroke-linejoin="round" width="7" height="24" fill="rgb(188,95,193)" stroke="rgb(150,76,154)" stroke-width="1" opacity="0.75" />
			</g>
		</g>
		<g>
			<title> (ctg348_6)</title>
			<polygon class=" (ctg348_6)" points="185,10 212,40 185,70" fill="rgb(255,255,255)" fill-opacity="1.0" stroke="rgb(0,0,0)" stroke-width="2"  />
			<g>
				<title>UPF0176_N (PF17773)
"UPF0176 acylphosphatase like domain"</title>
				<rect class="PF17773" x="185" y="28" stroke-linejoin="round" width="9" height="24" fill="rgb(73,125,224)" stroke="rgb(58,99,179)" stroke-width="1" opacity="0.75" />
			</g>
			<g>
				<title>Rhodanese (PF00581)
"Rhodanese-like domain"</title>
				<polygon class="PF00581" points="196,28 196,28 205,37 205,43 196,52 196,52" stroke-linejoin="round" width="9" height="24" fill="rgb(145,191,76)" stroke="rgb(116,152,60)" stroke-width="1" opacity="0.75" />
			</g>
		</g>
		<g>
			<title> (ctg348_7)</title>
			<polygon class=" (ctg348_7)" points="266,25 244,25 244,10 214,40 244,70 244,55 266,55" fill="rgb(255,255,255)" fill-opacity="1.0" stroke="rgb(0,0,0)" stroke-width="2"  />
			<g>
				<title>RDD (PF06271)
"RDD family"</title>
				<polygon class="PF06271" points="218,40 230,28 231,28 231,52 230,52" stroke-linejoin="round" width="17" height="24" fill="rgb(75,173,207)" stroke="rgb(60,138,165)" stroke-width="1" opacity="0.75" />
			</g>
			<g>
				<title>Pkinase (PF00069)
"Protein kinase domain"</title>
				<rect class="PF00069" x="237" y="28" stroke-linejoin="round" width="24" height="24" fill="rgb(104,187,65)" stroke="rgb(83,149,51)" stroke-width="1" opacity="0.75" />
			</g>
		</g>
		<g>
			<title> (ctg348_8)</title>
			<polygon class=" (ctg348_8)" points="268,40 282,10 282,70" fill="rgb(255,255,255)" fill-opacity="1.0" stroke="rgb(0,0,0)" stroke-width="2"  />
		</g>
		<g>
			<title> (ctg348_9)</title>
			<polygon class=" (ctg348_9)" points="284,40 301,10 301,70" fill="rgb(255,255,255)" fill-opacity="1.0" stroke="rgb(0,0,0)" stroke-width="2"  />
		</g>
		<g>
			<title> (ctg348_10)</title>
			<polygon class=" (ctg348_10)" points="308,10 315,40 308,70" fill="rgb(255,255,255)" fill-opacity="1.0" stroke="rgb(0,0,0)" stroke-width="2"  />
		</g>
		<g>
			<title> (ctg348_11)</title>
			<polygon class=" (ctg348_11)" points="316,10 331,40 316,70" fill="rgb(255,255,255)" fill-opacity="1.0" stroke="rgb(0,0,0)" stroke-width="2"  />
		</g>
		<g>
			<title> (ctg348_12)</title>
			<polygon class=" (ctg348_12)" points="338,40 364,10 364,70" fill="rgb(255,255,255)" fill-opacity="1.0" stroke="rgb(0,0,0)" stroke-width="2"  />
			<g>
				<title>Pentapeptide (PF00805)
"Pentapeptide repeats (8 copies)"</title>
				<polygon class="PF00805" points="342,40 343,39 343,41" stroke-linejoin="round" width="3" height="24" fill="rgb(186,52,164)" stroke="rgb(148,41,131)" stroke-width="1" opacity="0.75" />
			</g>
			<g>
				<title>Pentapeptide (PF00805)
"Pentapeptide repeats (8 copies)"</title>
				<polygon class="PF00805" points="344,38 347,34 347,46 344,42" stroke-linejoin="round" width="3" height="24" fill="rgb(186,52,164)" stroke="rgb(148,41,131)" stroke-width="1" opacity="0.75" />
			</g>
			<g>
				<title>Pentapeptide (PF00805)
"Pentapeptide repeats (8 copies)"</title>
				<polygon class="PF00805" points="352,28 352,28 355,28 355,52 352,52 352,52" stroke-linejoin="round" width="3" height="24" fill="rgb(186,52,164)" stroke="rgb(148,41,131)" stroke-width="1" opacity="0.75" />
			</g>
		</g>
		<g>
			<title> (ctg348_13)</title>
			<polygon class=" (ctg348_13)" points="481,25 408,25 408,10 378,40 408,70 408,55 481,55" fill="rgb(255,255,255)" fill-opacity="1.0" stroke="rgb(0,0,0)" stroke-width="2"  />
			<g>
				<title>ACR_tran (PF00873)
"AcrB/AcrD/AcrF family"</title>
				<polygon class="PF00873" points="382,40 394,28 480,28 480,52 394,52" stroke-linejoin="round" width="101" height="24" fill="rgb(63,191,60)" stroke="rgb(50,152,48)" stroke-width="1" opacity="0.75" />
			</g>
		</g>
		<g>
			<title> (ctg348_14)</title>
			<polygon class=" (ctg348_14)" points="528,25 513,25 513,10 483,40 513,70 513,55 528,55" fill="rgb(255,255,255)" fill-opacity="1.0" stroke="rgb(0,0,0)" stroke-width="2"  />
			<g>
				<title>HlyD_3 (PF13437)
"HlyD family secretion protein"</title>
				<polygon class="PF13437" points="491,36 499,28 501,28 501,52 499,52 491,44" stroke-linejoin="round" width="10" height="24" fill="rgb(82,200,102)" stroke="rgb(65,160,81)" stroke-width="1" opacity="0.75" />
			</g>
		</g>
		<g>
			<title> (ctg348_15)</title>
			<polygon class=" (ctg348_15)" points="573,25 560,25 560,10 530,40 560,70 560,55 573,55" fill="rgb(255,255,255)" fill-opacity="1.0" stroke="rgb(0,0,0)" stroke-width="2"  />
			<g>
				<title>MFS_2 (PF13347)
"MFS/sugar transport protein"</title>
				<polygon class="PF13347" points="534,40 546,28 570,28 570,52 546,52" stroke-linejoin="round" width="40" height="24" fill="rgb(68,198,83)" stroke="rgb(54,158,66)" stroke-width="1" opacity="0.75" />
			</g>
		</g>
		<g>
			<title> (ctg348_16)</title>
			<polygon class=" (ctg348_16)" points="629,25 605,25 605,10 575,40 605,70 605,55 629,55" fill="rgb(255,255,255)" fill-opacity="1.0" stroke="rgb(0,0,0)" stroke-width="2"  />
			<g>
				<title>FAD_binding_4 (PF01565)
"FAD binding domain"</title>
				<rect class="PF01565" x="610" y="28" stroke-linejoin="round" width="14" height="24" fill="rgb(226,88,136)" stroke="rgb(180,70,108)" stroke-width="1" opacity="0.75" />
			</g>
		</g>
		<g>
			<title> (ctg348_17)</title>
			<polygon class=" (ctg348_17)" points="632,40 652,10 652,70" fill="rgb(255,255,255)" fill-opacity="1.0" stroke="rgb(0,0,0)" stroke-width="2"  />
			<g>
				<title>ICMT (PF04140)
"Isoprenylcysteine carboxyl methyltransferase (ICMT) family"</title>
				<polygon class="PF04140" points="636,40 644,28 644,28 644,52 644,52" stroke-linejoin="round" width="9" height="24" fill="rgb(100,223,104)" stroke="rgb(80,178,83)" stroke-width="1" opacity="0.75" />
			</g>
		</g>
		<g>
			<title> (ctg348_18)</title>
			<polygon class=" (ctg348_18)" points="692,25 683,25 683,10 653,40 683,70 683,55 692,55" fill="rgb(255,255,255)" fill-opacity="1.0" stroke="rgb(0,0,0)" stroke-width="2"  />
			<g>
				<title>Chal_sti_synt_C (PF02797)
"Chalcone and stilbene synthases, C-terminal domain"</title>
				<polygon class="PF02797" points="657,40 667,30 667,50" stroke-linejoin="round" width="14" height="24" fill="rgb(139,212,63)" stroke="rgb(111,169,50)" stroke-width="1" opacity="0.75" />
			</g>
			<g>
				<title>FAE1_CUT1_RppA (PF08392)
"FAE1/Type III polyketide synthase-like protein"</title>
				<rect class="PF08392" x="672" y="28" stroke-linejoin="round" width="11" height="24" fill="rgb(70,220,135)" stroke="rgb(56,176,108)" stroke-width="1" opacity="0.75" />
			</g>
		</g>
		<g>
			<title> (ctg348_19)</title>
			<polygon class=" (ctg348_19)" points="738,25 724,25 724,10 694,40 724,70 724,55 738,55" fill="rgb(255,255,255)" fill-opacity="1.0" stroke="rgb(0,0,0)" stroke-width="2"  />
			<g>
				<title>FMO-like (PF00743)
"Flavin-binding monooxygenase-like"</title>
				<polygon class="PF00743" points="698,40 710,28 737,28 737,52 710,52" stroke-linejoin="round" width="43" height="24" fill="rgb(203,74,151)" stroke="rgb(162,59,120)" stroke-width="1" opacity="0.75" />
			</g>
		</g>
		<g>
			<title> (ctg348_20)</title>
			<polygon class=" (ctg348_20)" points="871,25 769,25 769,10 739,40 769,70 769,55 871,55" fill="rgb(255,255,255)" fill-opacity="1.0" stroke="rgb(0,0,0)" stroke-width="2"  />
			<g>
				<title>Thioesterase (PF00975)
"Thioesterase domain"</title>
				<polygon class="PF00975" points="743,40 755,28 762,28 762,52 755,52" stroke-linejoin="round" width="22" height="24" fill="rgb(207,80,138)" stroke="rgb(165,63,110)" stroke-width="1" opacity="0.75" />
			</g>
			<g>
				<title>PP-binding (PF00550)
"Phosphopantetheine attachment site"</title>
				<rect class="PF00550" x="768" y="28" stroke-linejoin="round" width="6" height="24" fill="rgb(103,191,88)" stroke="rgb(82,152,70)" stroke-width="1" opacity="0.75" />
			</g>
			<g>
				<title>Acyl_transf_1 (PF00698)
"Acyl transferase domain"</title>
				<rect class="PF00698" x="783" y="28" stroke-linejoin="round" width="31" height="24" fill="rgb(59,176,209)" stroke="rgb(47,140,167)" stroke-width="1" opacity="0.75" />
			</g>
			<g>
				<title>KAsynt_C_assoc (PF16197)
"Ketoacyl-synthetase C-terminal extension"</title>
				<rect class="PF16197" x="818" y="28" stroke-linejoin="round" width="11" height="24" fill="rgb(240,150,172)" stroke="rgb(192,120,137)" stroke-width="1" opacity="0.75" />
			</g>
			<g>
				<title>Ketoacyl-synt_C (PF02801)
"Beta-ketoacyl synthase, C-terminal domain"</title>
				<rect class="PF02801" x="830" y="28" stroke-linejoin="round" width="11" height="24" fill="rgb(215,78,102)" stroke="rgb(172,62,81)" stroke-width="1" opacity="0.75" />
			</g>
			<g>
				<title>ketoacyl-synt (PF00109)
"Beta-ketoacyl synthase, N-terminal domain"</title>
				<rect class="PF00109" x="842" y="28" stroke-linejoin="round" width="25" height="24" fill="rgb(112,116,228)" stroke="rgb(89,92,182)" stroke-width="1" opacity="0.75" />
			</g>
		</g>
		<g>
			<title> (ctg348_21)</title>
			<polygon class=" (ctg348_21)" points="1053,25 902,25 902,10 872,40 902,70 902,55 1053,55" fill="rgb(255,255,255)" fill-opacity="1.0" stroke="rgb(0,0,0)" stroke-width="2"  />
			<g>
				<title>PP-binding (PF00550)
"Phosphopantetheine attachment site"</title>
				<polygon class="PF00550" points="877,39 883,33 883,47 877,41" stroke-linejoin="round" width="6" height="24" fill="rgb(103,191,88)" stroke="rgb(82,152,70)" stroke-width="1" opacity="0.75" />
			</g>
			<g>
				<title>KR (PF08659)
"KR domain"</title>
				<rect class="PF08659" x="893" y="28" stroke-linejoin="round" width="17" height="24" fill="rgb(66,209,188)" stroke="rgb(52,167,150)" stroke-width="1" opacity="0.75" />
			</g>
			<g>
				<title>PS-DH (PF14765)
"Polyketide synthase dehydratase"</title>
				<rect class="PF14765" x="934" y="28" stroke-linejoin="round" width="27" height="24" fill="rgb(173,56,182)" stroke="rgb(138,44,145)" stroke-width="1" opacity="0.75" />
			</g>
			<g>
				<title>Acyl_transf_1 (PF00698)
"Acyl transferase domain"</title>
				<rect class="PF00698" x="966" y="28" stroke-linejoin="round" width="31" height="24" fill="rgb(59,176,209)" stroke="rgb(47,140,167)" stroke-width="1" opacity="0.75" />
			</g>
			<g>
				<title>KAsynt_C_assoc (PF16197)
"Ketoacyl-synthetase C-terminal extension"</title>
				<rect class="PF16197" x="1001" y="28" stroke-linejoin="round" width="11" height="24" fill="rgb(240,150,172)" stroke="rgb(192,120,137)" stroke-width="1" opacity="0.75" />
			</g>
			<g>
				<title>Ketoacyl-synt_C (PF02801)
"Beta-ketoacyl synthase, C-terminal domain"</title>
				<rect class="PF02801" x="1013" y="28" stroke-linejoin="round" width="11" height="24" fill="rgb(215,78,102)" stroke="rgb(172,62,81)" stroke-width="1" opacity="0.75" />
			</g>
			<g>
				<title>ketoacyl-synt (PF00109)
"Beta-ketoacyl synthase, N-terminal domain"</title>
				<rect class="PF00109" x="1026" y="28" stroke-linejoin="round" width="25" height="24" fill="rgb(112,116,228)" stroke="rgb(89,92,182)" stroke-width="1" opacity="0.75" />
			</g>
		</g>
		<g>
			<title> (ctg348_22)</title>
			<polygon class=" (ctg348_22)" points="1186,25 1090,25 1090,10 1060,40 1090,70 1090,55 1186,55" fill="rgb(255,255,255)" fill-opacity="1.0" stroke="rgb(0,0,0)" stroke-width="2"  />
			<g>
				<title>PP-binding (PF00550)
"Phosphopantetheine attachment site"</title>
				<polygon class="PF00550" points="1064,40 1070,34 1070,46 1064,40" stroke-linejoin="round" width="6" height="24" fill="rgb(103,191,88)" stroke="rgb(82,152,70)" stroke-width="1" opacity="0.75" />
			</g>
			<g>
				<title>Acyl-CoA_dh_1 (PF00441)
"Acyl-CoA dehydrogenase, C-terminal domain"</title>
				<rect class="PF00441" x="1089" y="28" stroke-linejoin="round" width="15" height="24" fill="rgb(85,191,117)" stroke="rgb(68,152,93)" stroke-width="1" opacity="0.75" />
			</g>
			<g>
				<title>Acyl-CoA_dh_M (PF02770)
"Acyl-CoA dehydrogenase, middle domain"</title>
				<rect class="PF02770" x="1105" y="28" stroke-linejoin="round" width="9" height="24" fill="rgb(225,186,97)" stroke="rgb(180,148,77)" stroke-width="1" opacity="0.75" />
			</g>
			<g>
				<title>Acyl-CoA_dh_N (PF02771)
"Acyl-CoA dehydrogenase, N-terminal domain"</title>
				<rect class="PF02771" x="1116" y="28" stroke-linejoin="round" width="11" height="24" fill="rgb(105,135,218)" stroke="rgb(84,108,174)" stroke-width="1" opacity="0.75" />
			</g>
			<g>
				<title>AMP-binding (PF00501)
"AMP-binding enzyme"</title>
				<rect class="PF00501" x="1140" y="28" stroke-linejoin="round" width="44" height="24" fill="rgb(60,217,223)" stroke="rgb(48,173,178)" stroke-width="1" opacity="0.75" />
			</g>
		</g>
		<g>
			<title> (ctg348_23)</title>
			<polygon class=" (ctg348_23)" points="1190,40 1212,10 1212,70" fill="rgb(255,255,255)" fill-opacity="1.0" stroke="rgb(0,0,0)" stroke-width="2"  />
			<g>
				<title>Nitroreductase (PF00881)
"Nitroreductase family"</title>
				<polygon class="PF00881" points="1194,40 1203,28 1210,28 1210,52 1203,52" stroke-linejoin="round" width="17" height="24" fill="rgb(79,118,187)" stroke="rgb(63,94,149)" stroke-width="1" opacity="0.75" />
			</g>
		</g>
		<g>
			<title> (ctg348_24)</title>
			<polygon class=" (ctg348_24)" points="1244,25 1243,25 1243,10 1213,40 1243,70 1243,55 1244,55" fill="rgb(255,255,255)" fill-opacity="1.0" stroke="rgb(0,0,0)" stroke-width="2"  />
			<g>
				<title>Glyoxalase (PF00903)
"Glyoxalase/Bleomycin resistance protein/Dioxygenase superfamily"</title>
				<polygon class="PF00903" points="1217,40 1228,29 1228,51" stroke-linejoin="round" width="12" height="24" fill="rgb(50,162,189)" stroke="rgb(40,129,151)" stroke-width="1" opacity="0.75" />
			</g>
		</g>
		<g>
			<title> (ctg348_25)</title>
			<polygon class=" (ctg348_25)" points="1268,25 1286,25 1286,10 1316,40 1286,70 1286,55 1268,55" fill="rgb(255,255,255)" fill-opacity="1.0" stroke="rgb(0,0,0)" stroke-width="2"  />
			<g>
				<title>EAD4 (PF19959)
"Effector-associated domain 4"</title>
				<rect class="PF19959" x="1268" y="28" stroke-linejoin="round" width="11" height="24" fill="rgb(103,71,187)" stroke="rgb(82,56,149)" stroke-width="1" opacity="0.75" />
			</g>
			<g>
				<title>AAA_35 (PF14516)
"AAA-like domain"</title>
				<polygon class="PF14516" points="1282,28 1299,28 1311,40 1299,52 1282,52" stroke-linejoin="round" width="33" height="24" fill="rgb(134,192,86)" stroke="rgb(107,153,68)" stroke-width="1" opacity="0.75" />
			</g>
		</g>
		<g>
			<title> (ctg348_26)</title>
			<polygon class=" (ctg348_26)" points="1407,25 1346,25 1346,10 1316,40 1346,70 1346,55 1407,55" fill="rgb(255,255,255)" fill-opacity="1.0" stroke="rgb(0,0,0)" stroke-width="2"  />
			<g>
				<title>Peripla_BP_6 (PF13458)
"Periplasmic binding protein"</title>
				<polygon class="PF13458" points="1320,40 1332,28 1352,28 1352,52 1332,52" stroke-linejoin="round" width="33" height="24" fill="rgb(94,183,81)" stroke="rgb(75,146,64)" stroke-width="1" opacity="0.75" />
			</g>
			<g>
				<title>AAA_35 (PF14516)
"AAA-like domain"</title>
				<rect class="PF14516" x="1370" y="28" stroke-linejoin="round" width="34" height="24" fill="rgb(134,192,86)" stroke="rgb(107,153,68)" stroke-width="1" opacity="0.75" />
			</g>
		</g>
		<g>
			<title> (ctg348_27)</title>
			<polygon class=" (ctg348_27)" points="1413,40 1423,10 1423,70" fill="rgb(255,255,255)" fill-opacity="1.0" stroke="rgb(0,0,0)" stroke-width="2"  />
		</g>
	</g>
</svg>
