<svg version="1.1" baseProfile="full" xmlns="http://www.w3.org/2000/svg" width="165.1" height="80">
	<g>
		<line x1="10" y1="40.0" x2="155.1" y2="40.0" style="stroke:rgb(70,70,70); stroke-width:3 "/>
		<g>
			<title> (ctg1648_1)</title>
			<polygon class=" (ctg1648_1)" points="17,25 63,25 63,10 93,40 63,70 63,55 17,55" fill="rgb(255,255,255)" fill-opacity="1.0" stroke="rgb(0,0,0)" stroke-width="2"  />
			<g>
				<title>YcaO (PF02624)
"YcaO cyclodehydratase, ATP-ad Mg2+-binding"</title>
				<polygon class="PF02624" points="56,28 77,28 89,40 89,40 77,52 56,52" stroke-linejoin="round" width="33" height="24" fill="rgb(76,84,185)" stroke="rgb(60,67,148)" stroke-width="1" opacity="0.75" />
			</g>
		</g>
		<g>
			<title> (ctg1648_2)</title>
			<polygon class=" (ctg1648_2)" points="94,40 104,10 104,70" fill="rgb(255,255,255)" fill-opacity="1.0" stroke="rgb(0,0,0)" stroke-width="2"  />
			<g>
				<title>HTH_37 (PF13744)
"Helix-turn-helix domain"</title>
				<polygon class="PF13744" points="97,40 101,28 102,28 102,52 101,52" stroke-linejoin="round" width="8" height="24" fill="rgb(113,218,98)" stroke="rgb(90,174,78)" stroke-width="1" opacity="0.75" />
			</g>
		</g>
		<g>
			<title> (ctg1648_3)</title>
			<polygon class=" (ctg1648_3)" points="110,40 122,10 122,70" fill="rgb(255,255,255)" fill-opacity="1.0" stroke="rgb(0,0,0)" stroke-width="2"  />
			<g>
				<title>PIN (PF01850)
"PIN domain"</title>
				<polygon class="PF01850" points="113,40 118,28 122,28 122,52 118,52" stroke-linejoin="round" width="12" height="24" fill="rgb(91,217,126)" stroke="rgb(72,173,100)" stroke-width="1" opacity="0.75" />
			</g>
		</g>
		<g>
			<title> (ctg1648_4)</title>
			<polygon class=" (ctg1648_4)" points="122,40 129,10 129,70" fill="rgb(255,255,255)" fill-opacity="1.0" stroke="rgb(0,0,0)" stroke-width="2"  />
			<g>
				<title>DUF2281 (PF10047)
"Protein of unknown function (DUF2281)"</title>
				<polygon class="PF10047" points="125,40 126,36 126,44" stroke-linejoin="round" width="4" height="24" fill="rgb(200,158,54)" stroke="rgb(160,126,43)" stroke-width="1" opacity="0.75" />
			</g>
		</g>
		<g>
			<title> (ctg1648_5)</title>
			<polygon class=" (ctg1648_5)" points="130,40 137,10 137,70" fill="rgb(255,255,255)" fill-opacity="1.0" stroke="rgb(0,0,0)" stroke-width="2"  />
			<g>
				<title>PhdYeFM_antitox (PF02604)
"Antitoxin Phd_YefM, type II toxin-antitoxin system"</title>
				<polygon class="PF02604" points="133,40 136,28 137,28 137,52 136,52 133,40" stroke-linejoin="round" width="4" height="24" fill="rgb(204,60,69)" stroke="rgb(163,48,55)" stroke-width="1" opacity="0.75" />
			</g>
		</g>
		<g>
			<title> (ctg1648_6)</title>
			<polygon class=" (ctg1648_6)" points="150,10 154,40 150,70" fill="rgb(255,255,255)" fill-opacity="1.0" stroke="rgb(0,0,0)" stroke-width="2"  />
		</g>
	</g>
</svg>
