<svg version="1.1" baseProfile="full" xmlns="http://www.w3.org/2000/svg" width="436.23333333333335" height="80">
	<g>
		<line x1="10" y1="40.0" x2="426.23333333333335" y2="40.0" style="stroke:rgb(70,70,70); stroke-width:3 "/>
		<g>
			<title> (ctg424_1)</title>
			<polygon class=" (ctg424_1)" points="17,10 45,40 17,70" fill="rgb(255,255,255)" fill-opacity="1.0" stroke="rgb(0,0,0)" stroke-width="2"  />
			<g>
				<title>Sulfatase (PF00884)
"Sulfatase"</title>
				<polygon class="PF00884" points="17,28 29,28 40,40 29,52 17,52" stroke-linejoin="round" width="27" height="24" fill="rgb(61,103,198)" stroke="rgb(48,82,158)" stroke-width="1" opacity="0.75" />
			</g>
		</g>
		<g>
			<title> (ctg424_2)</title>
			<polygon class=" (ctg424_2)" points="46,10 75,40 46,70" fill="rgb(255,255,255)" fill-opacity="1.0" stroke="rgb(0,0,0)" stroke-width="2"  />
			<g>
				<title>Methyltransf_31 (PF13847)
"Methyltransferase domain"</title>
				<polygon class="PF13847" points="48,28 59,28 66,35 66,45 59,52 48,52" stroke-linejoin="round" width="18" height="24" fill="rgb(214,74,181)" stroke="rgb(171,59,144)" stroke-width="1" opacity="0.75" />
			</g>
		</g>
		<g>
			<title> (ctg424_3)</title>
			<polygon class=" (ctg424_3)" points="77,25 78,25 78,10 108,40 78,70 78,55 77,55" fill="rgb(255,255,255)" fill-opacity="1.0" stroke="rgb(0,0,0)" stroke-width="2"  />
			<g>
				<title>cobW (PF02492)
"CobW/HypB/UreG, nucleotide-binding domain"</title>
				<polygon class="PF02492" points="77,28 92,28 94,30 94,50 92,52 77,52" stroke-linejoin="round" width="17" height="24" fill="rgb(79,112,178)" stroke="rgb(63,89,142)" stroke-width="1" opacity="0.75" />
			</g>
			<g>
				<title>CobW_C (PF07683)
"Cobalamin synthesis protein cobW C-terminal domain"</title>
				<polygon class="PF07683" points="99,35 104,40 99,45" stroke-linejoin="round" width="9" height="24" fill="rgb(172,98,218)" stroke="rgb(137,78,174)" stroke-width="1" opacity="0.75" />
			</g>
		</g>
		<g>
			<title> (ctg424_4)</title>
			<polygon class=" (ctg424_4)" points="110,25 277,25 277,10 307,40 277,70 277,55 110,55" fill="rgb(255,255,255)" fill-opacity="1.0" stroke="rgb(0,0,0)" stroke-width="2"  />
			<g>
				<title>NMO (PF03060)
"Nitronate monooxygenase"</title>
				<rect class="PF03060" x="143" y="28" stroke-linejoin="round" width="34" height="24" fill="rgb(100,193,226)" stroke="rgb(80,154,180)" stroke-width="1" opacity="0.75" />
			</g>
			<g>
				<title>ketoacyl-synt (PF00109)
"Beta-ketoacyl synthase, N-terminal domain"</title>
				<rect class="PF00109" x="179" y="28" stroke-linejoin="round" width="26" height="24" fill="rgb(112,116,228)" stroke="rgb(89,92,182)" stroke-width="1" opacity="0.75" />
			</g>
			<g>
				<title>Ketoacyl-synt_C (PF02801)
"Beta-ketoacyl synthase, C-terminal domain"</title>
				<rect class="PF02801" x="207" y="28" stroke-linejoin="round" width="11" height="24" fill="rgb(215,78,102)" stroke="rgb(172,62,81)" stroke-width="1" opacity="0.75" />
			</g>
			<g>
				<title>Acyl_transf_1 (PF00698)
"Acyl transferase domain"</title>
				<rect class="PF00698" x="235" y="28" stroke-linejoin="round" width="30" height="24" fill="rgb(59,176,209)" stroke="rgb(47,140,167)" stroke-width="1" opacity="0.75" />
			</g>
			<g>
				<title>PP-binding (PF00550)
"Phosphopantetheine attachment site"</title>
				<polygon class="PF00550" points="297,35 302,40 297,45" stroke-linejoin="round" width="6" height="24" fill="rgb(103,191,88)" stroke="rgb(82,152,70)" stroke-width="1" opacity="0.75" />
			</g>
		</g>
		<g>
			<title> (ctg424_5)</title>
			<polygon class=" (ctg424_5)" points="305,25 359,25 359,10 389,40 359,70 359,55 305,55" fill="rgb(255,255,255)" fill-opacity="1.0" stroke="rgb(0,0,0)" stroke-width="2"  />
			<g>
				<title>KR (PF08659)
"KR domain"</title>
				<rect class="PF08659" x="330" y="28" stroke-linejoin="round" width="22" height="24" fill="rgb(66,209,188)" stroke="rgb(52,167,150)" stroke-width="1" opacity="0.75" />
			</g>
			<g>
				<title>PS-DH (PF14765)
"Polyketide synthase dehydratase"</title>
				<polygon class="PF14765" points="359,28 373,28 385,40 373,52 359,52" stroke-linejoin="round" width="28" height="24" fill="rgb(173,56,182)" stroke="rgb(138,44,145)" stroke-width="1" opacity="0.75" />
			</g>
		</g>
		<g>
			<title> (ctg424_6)</title>
			<polygon class=" (ctg424_6)" points="401,10 425,40 401,70" fill="rgb(255,255,255)" fill-opacity="1.0" stroke="rgb(0,0,0)" stroke-width="2"  />
		</g>
	</g>
</svg>
