<svg version="1.1" baseProfile="full" xmlns="http://www.w3.org/2000/svg" width="541.0666666666667" height="80">
	<g>
		<line x1="10" y1="40.0" x2="531.0666666666667" y2="40.0" style="stroke:rgb(70,70,70); stroke-width:3 "/>
		<g>
			<title> (ctg1752_1)</title>
			<polygon class=" (ctg1752_1)" points="10,40 38,10 38,70" fill="rgb(255,255,255)" fill-opacity="1.0" stroke="rgb(0,0,0)" stroke-width="2"  />
		</g>
		<g>
			<title> (ctg1752_2)</title>
			<polygon class=" (ctg1752_2)" points="55,25 105,25 105,10 135,40 105,70 105,55 55,55" fill="rgb(255,255,255)" fill-opacity="1.0" stroke="rgb(0,0,0)" stroke-width="2"  />
			<g>
				<title>HSDR_N (PF04313)
"Type I restriction enzyme R protein N terminus (HSDR_N)"</title>
				<rect class="PF04313" x="55" y="28" stroke-linejoin="round" width="18" height="24" fill="rgb(67,217,209)" stroke="rgb(53,173,167)" stroke-width="1" opacity="0.75" />
			</g>
			<g>
				<title>SWI2_SNF2 (PF18766)
"SWI2/SNF2 ATPase"</title>
				<rect class="PF18766" x="84" y="28" stroke-linejoin="round" width="23" height="24" fill="rgb(64,57,212)" stroke="rgb(51,45,169)" stroke-width="1" opacity="0.75" />
			</g>
		</g>
		<g>
			<title> (ctg1752_3)</title>
			<polygon class=" (ctg1752_3)" points="138,40 146,10 146,70" fill="rgb(255,255,255)" fill-opacity="1.0" stroke="rgb(0,0,0)" stroke-width="2"  />
		</g>
		<g>
			<title> (ctg1752_4)</title>
			<polygon class=" (ctg1752_4)" points="148,40 162,10 162,70" fill="rgb(255,255,255)" fill-opacity="1.0" stroke="rgb(0,0,0)" stroke-width="2"  />
		</g>
		<g>
			<title> (ctg1752_5)</title>
			<polygon class=" (ctg1752_5)" points="170,40 181,10 181,70" fill="rgb(255,255,255)" fill-opacity="1.0" stroke="rgb(0,0,0)" stroke-width="2"  />
			<g>
				<title>HTH_3 (PF01381)
"Helix-turn-helix"</title>
				<polygon class="PF01381" points="174,37 177,28 179,28 179,52 177,52 174,43" stroke-linejoin="round" width="5" height="24" fill="rgb(105,79,202)" stroke="rgb(83,63,161)" stroke-width="1" opacity="0.75" />
			</g>
		</g>
		<g>
			<title> (ctg1752_6)</title>
			<polygon class=" (ctg1752_6)" points="185,25 204,25 204,10 234,40 204,70 204,55 185,55" fill="rgb(255,255,255)" fill-opacity="1.0" stroke="rgb(0,0,0)" stroke-width="2"  />
		</g>
		<g>
			<title> (ctg1752_7)</title>
			<polygon class=" (ctg1752_7)" points="236,10 265,40 236,70" fill="rgb(255,255,255)" fill-opacity="1.0" stroke="rgb(0,0,0)" stroke-width="2"  />
			<g>
				<title>putAbiC (PF16872)
"Putative phage abortive infection protein"</title>
				<polygon class="PF16872" points="255,34 261,40 255,46" stroke-linejoin="round" width="7" height="24" fill="rgb(189,89,131)" stroke="rgb(151,71,104)" stroke-width="1" opacity="0.75" />
			</g>
		</g>
		<g>
			<title> (ctg1752_8)</title>
			<polygon class=" (ctg1752_8)" points="268,10 290,40 268,70" fill="rgb(255,255,255)" fill-opacity="1.0" stroke="rgb(0,0,0)" stroke-width="2"  />
			<g>
				<title>Transposase_mut (PF00872)
"Transposase, Mutator family"</title>
				<polygon class="PF00872" points="270,28 277,28 286,40 286,40 277,52 270,52" stroke-linejoin="round" width="16" height="24" fill="rgb(137,187,62)" stroke="rgb(109,149,49)" stroke-width="1" opacity="0.75" />
			</g>
		</g>
		<g>
			<title> (ctg1752_9)</title>
			<polygon class=" (ctg1752_9)" points="321,10 340,40 321,70" fill="rgb(255,255,255)" fill-opacity="1.0" stroke="rgb(0,0,0)" stroke-width="2"  />
			<g>
				<title>NusG (PF02357)
"Transcription termination factor nusG"</title>
				<polygon class="PF02357" points="324,28 328,28 333,35 333,45 328,52 324,52" stroke-linejoin="round" width="9" height="24" fill="rgb(166,222,79)" stroke="rgb(132,177,63)" stroke-width="1" opacity="0.75" />
			</g>
		</g>
		<g>
			<title> (ctg1752_10)</title>
			<polygon class=" (ctg1752_10)" points="347,25 500,25 500,10 530,40 500,70 500,55 347,55" fill="rgb(255,255,255)" fill-opacity="1.0" stroke="rgb(0,0,0)" stroke-width="2"  />
			<g>
				<title>Condensation (PF00668)
"Condensation domain"</title>
				<rect class="PF00668" x="347" y="28" stroke-linejoin="round" width="42" height="24" fill="rgb(224,184,98)" stroke="rgb(179,147,78)" stroke-width="1" opacity="0.75" />
			</g>
			<g>
				<title>AMP-binding (PF00501)
"AMP-binding enzyme"</title>
				<rect class="PF00501" x="392" y="28" stroke-linejoin="round" width="38" height="24" fill="rgb(60,217,223)" stroke="rgb(48,173,178)" stroke-width="1" opacity="0.75" />
			</g>
			<g>
				<title>PP-binding (PF00550)
"Phosphopantetheine attachment site"</title>
				<rect class="PF00550" x="440" y="28" stroke-linejoin="round" width="6" height="24" fill="rgb(103,191,88)" stroke="rgb(82,152,70)" stroke-width="1" opacity="0.75" />
			</g>
			<g>
				<title>Condensation (PF00668)
"Condensation domain"</title>
				<rect class="PF00668" x="448" y="28" stroke-linejoin="round" width="45" height="24" fill="rgb(224,184,98)" stroke="rgb(179,147,78)" stroke-width="1" opacity="0.75" />
			</g>
			<g>
				<title>AMP-binding (PF00501)
"AMP-binding enzyme"</title>
				<polygon class="PF00501" points="496,28 514,28 526,40 514,52 496,52" stroke-linejoin="round" width="34" height="24" fill="rgb(60,217,223)" stroke="rgb(48,173,178)" stroke-width="1" opacity="0.75" />
			</g>
		</g>
	</g>
</svg>
