<svg version="1.1" baseProfile="full" xmlns="http://www.w3.org/2000/svg" width="488.3" height="80">
	<g>
		<line x1="10" y1="40.0" x2="478.3" y2="40.0" style="stroke:rgb(70,70,70); stroke-width:3 "/>
		<g>
			<title> (ctg155_1)</title>
			<polygon class=" (ctg155_1)" points="54,25 49,25 49,10 19,40 49,70 49,55 54,55" fill="rgb(255,255,255)" fill-opacity="1.0" stroke="rgb(0,0,0)" stroke-width="2"  />
			<g>
				<title>Esterase_PHB (PF10503)
"Esterase PHB depolymerase"</title>
				<polygon class="PF10503" points="33,30 35,28 46,28 46,52 35,52 33,50" stroke-linejoin="round" width="13" height="24" fill="rgb(189,202,77)" stroke="rgb(151,161,61)" stroke-width="1" opacity="0.75" />
			</g>
		</g>
		<g>
			<title> (ctg155_2)</title>
			<polygon class=" (ctg155_2)" points="92,25 90,25 90,10 60,40 90,70 90,55 92,55" fill="rgb(255,255,255)" fill-opacity="1.0" stroke="rgb(0,0,0)" stroke-width="2"  />
			<g>
				<title>Sulfotransfer_3 (PF13469)
"Sulfotransferase family"</title>
				<polygon class="PF13469" points="67,37 76,28 91,28 91,52 76,52 67,43" stroke-linejoin="round" width="24" height="24" fill="rgb(59,182,84)" stroke="rgb(47,145,67)" stroke-width="1" opacity="0.75" />
			</g>
		</g>
		<g>
			<title> (ctg155_3)</title>
			<polygon class=" (ctg155_3)" points="94,25 113,25 113,10 143,40 113,70 113,55 94,55" fill="rgb(255,255,255)" fill-opacity="1.0" stroke="rgb(0,0,0)" stroke-width="2"  />
		</g>
		<g>
			<title> (ctg155_4)</title>
			<polygon class=" (ctg155_4)" points="146,40 171,10 171,70" fill="rgb(255,255,255)" fill-opacity="1.0" stroke="rgb(0,0,0)" stroke-width="2"  />
			<g>
				<title>adh_short (PF00106)
"short chain dehydrogenase"</title>
				<polygon class="PF00106" points="150,40 160,28 169,28 169,52 160,52 150,40" stroke-linejoin="round" width="19" height="24" fill="rgb(182,219,73)" stroke="rgb(145,175,58)" stroke-width="1" opacity="0.75" />
			</g>
		</g>
		<g>
			<title> (ctg155_5)</title>
			<polygon class=" (ctg155_5)" points="173,40 198,10 198,70" fill="rgb(255,255,255)" fill-opacity="1.0" stroke="rgb(0,0,0)" stroke-width="2"  />
			<g>
				<title>adh_short (PF00106)
"short chain dehydrogenase"</title>
				<polygon class="PF00106" points="177,40 187,28 196,28 196,52 187,52" stroke-linejoin="round" width="20" height="24" fill="rgb(182,219,73)" stroke="rgb(145,175,58)" stroke-width="1" opacity="0.75" />
			</g>
		</g>
		<g>
			<title> (ctg155_6)</title>
			<polygon class=" (ctg155_6)" points="201,40 230,10 230,70" fill="rgb(255,255,255)" fill-opacity="1.0" stroke="rgb(0,0,0)" stroke-width="2"  />
			<g>
				<title>Abhydrolase_1 (PF00561)
"alpha/beta hydrolase fold"</title>
				<polygon class="PF00561" points="205,40 217,28 228,28 228,52 217,52" stroke-linejoin="round" width="24" height="24" fill="rgb(86,180,151)" stroke="rgb(68,144,120)" stroke-width="1" opacity="0.75" />
			</g>
		</g>
		<g>
			<title> (ctg155_7)</title>
			<polygon class=" (ctg155_7)" points="287,25 264,25 264,10 234,40 264,70 264,55 287,55" fill="rgb(255,255,255)" fill-opacity="1.0" stroke="rgb(0,0,0)" stroke-width="2"  />
			<g>
				<title>Phosphodiest (PF01663)
"Type I phosphodiesterase / nucleotide pyrophosphatase"</title>
				<polygon class="PF01663" points="243,35 250,28 286,28 286,52 250,52 243,45" stroke-linejoin="round" width="43" height="24" fill="rgb(178,65,158)" stroke="rgb(142,52,126)" stroke-width="1" opacity="0.75" />
			</g>
		</g>
		<g>
			<title> (ctg155_8)</title>
			<polygon class=" (ctg155_8)" points="290,40 300,10 300,70" fill="rgb(255,255,255)" fill-opacity="1.0" stroke="rgb(0,0,0)" stroke-width="2"  />
		</g>
		<g>
			<title> (ctg155_9)</title>
			<polygon class=" (ctg155_9)" points="455,25 333,25 333,10 303,40 333,70 333,55 455,55" fill="rgb(255,255,255)" fill-opacity="1.0" stroke="rgb(0,0,0)" stroke-width="2"  />
			<g>
				<title>PS-DH (PF14765)
"Polyketide synthase dehydratase"</title>
				<polygon class="PF14765" points="318,29 319,28 347,28 347,52 319,52 318,51" stroke-linejoin="round" width="29" height="24" fill="rgb(173,56,182)" stroke="rgb(138,44,145)" stroke-width="1" opacity="0.75" />
			</g>
			<g>
				<title>Acyl_transf_1 (PF00698)
"Acyl transferase domain"</title>
				<rect class="PF00698" x="364" y="28" stroke-linejoin="round" width="33" height="24" fill="rgb(59,176,209)" stroke="rgb(47,140,167)" stroke-width="1" opacity="0.75" />
			</g>
			<g>
				<title>KAsynt_C_assoc (PF16197)
"Ketoacyl-synthetase C-terminal extension"</title>
				<rect class="PF16197" x="402" y="28" stroke-linejoin="round" width="11" height="24" fill="rgb(240,150,172)" stroke="rgb(192,120,137)" stroke-width="1" opacity="0.75" />
			</g>
			<g>
				<title>Ketoacyl-synt_C (PF02801)
"Beta-ketoacyl synthase, C-terminal domain"</title>
				<rect class="PF02801" x="414" y="28" stroke-linejoin="round" width="11" height="24" fill="rgb(215,78,102)" stroke="rgb(172,62,81)" stroke-width="1" opacity="0.75" />
			</g>
			<g>
				<title>ketoacyl-synt (PF00109)
"Beta-ketoacyl synthase, N-terminal domain"</title>
				<rect class="PF00109" x="427" y="28" stroke-linejoin="round" width="27" height="24" fill="rgb(112,116,228)" stroke="rgb(89,92,182)" stroke-width="1" opacity="0.75" />
			</g>
		</g>
	</g>
</svg>
