<svg version="1.1" baseProfile="full" xmlns="http://www.w3.org/2000/svg" width="181.8" height="80">
	<g>
		<line x1="10" y1="40.0" x2="171.8" y2="40.0" style="stroke:rgb(70,70,70); stroke-width:3 "/>
		<g>
			<title> (ctg192_1)</title>
			<polygon class=" (ctg192_1)" points="10,10 17,40 10,70" fill="rgb(255,255,255)" fill-opacity="1.0" stroke="rgb(0,0,0)" stroke-width="2"  />
		</g>
		<g>
			<title> (ctg192_2)</title>
			<polygon class=" (ctg192_2)" points="18,10 44,40 18,70" fill="rgb(255,255,255)" fill-opacity="1.0" stroke="rgb(0,0,0)" stroke-width="2"  />
			<g>
				<title>Trp_syntA (PF00290)
"Tryptophan synthase alpha chain"</title>
				<polygon class="PF00290" points="18,28 29,28 40,40 29,52 18,52" stroke-linejoin="round" width="25" height="24" fill="rgb(101,209,118)" stroke="rgb(80,167,94)" stroke-width="1" opacity="0.75" />
			</g>
		</g>
		<g>
			<title> (ctg192_3)</title>
			<polygon class=" (ctg192_3)" points="88,25 82,25 82,10 52,40 82,70 82,55 88,55" fill="rgb(255,255,255)" fill-opacity="1.0" stroke="rgb(0,0,0)" stroke-width="2"  />
			<g>
				<title>RRXRR (PF14239)
"RRXRR protein"</title>
				<rect class="PF14239" x="70" y="28" stroke-linejoin="round" width="18" height="24" fill="rgb(89,228,62)" stroke="rgb(71,182,49)" stroke-width="1" opacity="0.75" />
			</g>
		</g>
		<g>
			<title> (ctg192_4)</title>
			<polygon class=" (ctg192_4)" points="137,25 126,25 126,10 96,40 126,70 126,55 137,55" fill="rgb(255,255,255)" fill-opacity="1.0" stroke="rgb(0,0,0)" stroke-width="2"  />
			<g>
				<title>Radical_SAM (PF04055)
"Radical SAM superfamily"</title>
				<rect class="PF04055" x="122" y="28" stroke-linejoin="round" width="14" height="24" fill="rgb(149,56,222)" stroke="rgb(119,44,177)" stroke-width="1" opacity="0.75" />
			</g>
		</g>
		<g>
			<title> (ctg192_5)</title>
			<polygon class=" (ctg192_5)" points="138,40 144,10 144,70" fill="rgb(255,255,255)" fill-opacity="1.0" stroke="rgb(0,0,0)" stroke-width="2"  />
		</g>
		<g>
			<title> (ctg192_6)</title>
			<polygon class=" (ctg192_6)" points="149,40 159,10 159,70" fill="rgb(255,255,255)" fill-opacity="1.0" stroke="rgb(0,0,0)" stroke-width="2"  />
			<g>
				<title>Nif11 (PF07862)
"Nif11 domain"</title>
				<polygon class="PF07862" points="154,34 156,28 158,28 158,52 156,52 154,46" stroke-linejoin="round" width="4" height="24" fill="rgb(82,202,204)" stroke="rgb(65,161,163)" stroke-width="1" opacity="0.75" />
			</g>
		</g>
	</g>
</svg>
