<svg version="1.1" baseProfile="full" xmlns="http://www.w3.org/2000/svg" width="177.83333333333334" height="80">
	<g>
		<line x1="10" y1="40.0" x2="167.83333333333334" y2="40.0" style="stroke:rgb(70,70,70); stroke-width:3 "/>
		<g>
			<title> (ctg993_1)</title>
			<polygon class=" (ctg993_1)" points="65,25 40,25 40,10 10,40 40,70 40,55 65,55" fill="rgb(255,255,255)" fill-opacity="1.0" stroke="rgb(0,0,0)" stroke-width="2"  />
			<g>
				<title>Cation_ATPase (PF13246)
"Cation transport ATPase (P-type)"</title>
				<polygon class="PF13246" points="16,38 25,29 25,51 16,42" stroke-linejoin="round" width="9" height="24" fill="rgb(200,58,79)" stroke="rgb(160,46,63)" stroke-width="1" opacity="0.75" />
			</g>
			<g>
				<title>E1-E2_ATPase (PF00122)
"E1-E2 ATPase"</title>
				<rect class="PF00122" x="32" y="28" stroke-linejoin="round" width="19" height="24" fill="rgb(149,204,70)" stroke="rgb(119,163,56)" stroke-width="1" opacity="0.75" />
			</g>
			<g>
				<title>Cation_ATPase_N (PF00690)
"Cation transporter/ATPase, N-terminus"</title>
				<rect class="PF00690" x="56" y="28" stroke-linejoin="round" width="6" height="24" fill="rgb(174,102,225)" stroke="rgb(139,81,180)" stroke-width="1" opacity="0.75" />
			</g>
		</g>
		<g>
			<title> (ctg993_2)</title>
			<polygon class=" (ctg993_2)" points="75,25 92,25 92,10 122,40 92,70 92,55 75,55" fill="rgb(255,255,255)" fill-opacity="1.0" stroke="rgb(0,0,0)" stroke-width="2"  />
			<g>
				<title>Amino_oxidase (PF01593)
"Flavin containing amine oxidoreductase"</title>
				<polygon class="PF01593" points="76,28 106,28 118,40 106,52 76,52" stroke-linejoin="round" width="44" height="24" fill="rgb(184,74,52)" stroke="rgb(147,59,41)" stroke-width="1" opacity="0.75" />
			</g>
		</g>
		<g>
			<title> (ctg993_3)</title>
			<polygon class=" (ctg993_3)" points="126,25 127,25 127,10 157,40 127,70 127,55 126,55" fill="rgb(255,255,255)" fill-opacity="1.0" stroke="rgb(0,0,0)" stroke-width="2"  />
			<g>
				<title>SQS_PSY (PF00494)
"Squalene/phytoene synthase"</title>
				<polygon class="PF00494" points="128,28 140,28 152,40 140,52 128,52" stroke-linejoin="round" width="26" height="24" fill="rgb(178,91,49)" stroke="rgb(142,72,39)" stroke-width="1" opacity="0.75" />
			</g>
		</g>
	</g>
</svg>
