<svg version="1.1" baseProfile="full" xmlns="http://www.w3.org/2000/svg" width="163.06666666666666" height="80">
	<g>
		<line x1="10" y1="40.0" x2="153.06666666666666" y2="40.0" style="stroke:rgb(70,70,70); stroke-width:3 "/>
		<g>
			<title> (ctg610_1)</title>
			<polygon class=" (ctg610_1)" points="18,25 74,25 74,10 104,40 74,70 74,55 18,55" fill="rgb(255,255,255)" fill-opacity="1.0" stroke="rgb(0,0,0)" stroke-width="2"  />
			<g>
				<title>HlyD_D23 (PF16576)
"Barrel-sandwich domain of CusB or HlyD membrane-fusion"</title>
				<polygon class="PF16576" points="75,28 88,28 100,40 100,40 88,52 75,52" stroke-linejoin="round" width="25" height="24" fill="rgb(70,190,92)" stroke="rgb(56,152,73)" stroke-width="1" opacity="0.75" />
			</g>
		</g>
		<g>
			<title> (ctg610_2)</title>
			<polygon class=" (ctg610_2)" points="106,25 111,25 111,10 141,40 111,70 111,55 106,55" fill="rgb(255,255,255)" fill-opacity="1.0" stroke="rgb(0,0,0)" stroke-width="2"  />
			<g>
				<title>Esterase_PHB (PF10503)
"Esterase PHB depolymerase"</title>
				<polygon class="PF10503" points="113,28 125,28 130,33 130,47 125,52 113,52" stroke-linejoin="round" width="17" height="24" fill="rgb(189,202,77)" stroke="rgb(151,161,61)" stroke-width="1" opacity="0.75" />
			</g>
		</g>
	</g>
</svg>
