<svg version="1.1" baseProfile="full" xmlns="http://www.w3.org/2000/svg" width="523.3" height="80">
	<g>
		<line x1="10" y1="40.0" x2="513.3" y2="40.0" style="stroke:rgb(70,70,70); stroke-width:3 "/>
		<g>
			<title> (ctg513_1)</title>
			<polygon class=" (ctg513_1)" points="16,10 22,40 16,70" fill="rgb(255,255,255)" fill-opacity="1.0" stroke="rgb(0,0,0)" stroke-width="2"  />
		</g>
		<g>
			<title> (ctg513_2)</title>
			<polygon class=" (ctg513_2)" points="30,40 41,10 41,70" fill="rgb(255,255,255)" fill-opacity="1.0" stroke="rgb(0,0,0)" stroke-width="2"  />
		</g>
		<g>
			<title> (ctg513_3)</title>
			<polygon class=" (ctg513_3)" points="42,40 70,10 70,70" fill="rgb(255,255,255)" fill-opacity="1.0" stroke="rgb(0,0,0)" stroke-width="2"  />
			<g>
				<title>Transglut_core (PF01841)
"Transglutaminase-like superfamily"</title>
				<polygon class="PF01841" points="47,39 57,29 57,51 47,41" stroke-linejoin="round" width="10" height="24" fill="rgb(208,223,79)" stroke="rgb(166,178,63)" stroke-width="1" opacity="0.75" />
			</g>
			<g>
				<title>Bact_transglu_N (PF08379)
"Bacterial transglutaminase-like N-terminal region"</title>
				<rect class="PF08379" x="62" y="28" stroke-linejoin="round" width="7" height="24" fill="rgb(224,108,64)" stroke="rgb(179,86,51)" stroke-width="1" opacity="0.75" />
			</g>
		</g>
		<g>
			<title> (ctg513_4)</title>
			<polygon class=" (ctg513_4)" points="104,25 101,25 101,10 71,40 101,70 101,55 104,55" fill="rgb(255,255,255)" fill-opacity="1.0" stroke="rgb(0,0,0)" stroke-width="2"  />
			<g>
				<title>Alpha-E (PF04168)
"A predicted alpha-helical domain with a conserved ER motif."</title>
				<polygon class="PF04168" points="75,40 87,28 103,28 103,52 87,52" stroke-linejoin="round" width="30" height="24" fill="rgb(190,83,80)" stroke="rgb(152,66,64)" stroke-width="1" opacity="0.75" />
			</g>
		</g>
		<g>
			<title> (ctg513_5)</title>
			<polygon class=" (ctg513_5)" points="155,25 138,25 138,10 108,40 138,70 138,55 155,55" fill="rgb(255,255,255)" fill-opacity="1.0" stroke="rgb(0,0,0)" stroke-width="2"  />
			<g>
				<title>CP_ATPgrasp_2 (PF14403)
"Circularly permuted ATP-grasp type 2"</title>
				<polygon class="PF14403" points="112,40 124,28 147,28 147,52 124,52" stroke-linejoin="round" width="37" height="24" fill="rgb(80,222,92)" stroke="rgb(64,177,73)" stroke-width="1" opacity="0.75" />
			</g>
		</g>
		<g>
			<title> (ctg513_6)</title>
			<polygon class=" (ctg513_6)" points="203,25 187,25 187,10 157,40 187,70 187,55 203,55" fill="rgb(255,255,255)" fill-opacity="1.0" stroke="rgb(0,0,0)" stroke-width="2"  />
			<g>
				<title>OrfB_Zn_ribbon (PF07282)
"Putative transposase DNA-binding domain"</title>
				<polygon class="PF07282" points="161,40 164,37 164,43" stroke-linejoin="round" width="6" height="24" fill="rgb(188,84,136)" stroke="rgb(150,67,108)" stroke-width="1" opacity="0.75" />
			</g>
			<g>
				<title>HTH_OrfB_IS605 (PF12323)
"Helix-turn-helix domain"</title>
				<rect class="PF12323" x="190" y="28" stroke-linejoin="round" width="4" height="24" fill="rgb(102,226,140)" stroke="rgb(81,180,112)" stroke-width="1" opacity="0.75" />
			</g>
		</g>
		<g>
			<title> (ctg513_7)</title>
			<polygon class=" (ctg513_7)" points="201,40 211,10 211,70" fill="rgb(255,255,255)" fill-opacity="1.0" stroke="rgb(0,0,0)" stroke-width="2"  />
		</g>
		<g>
			<title> (ctg513_8)</title>
			<polygon class=" (ctg513_8)" points="221,10 243,40 221,70" fill="rgb(255,255,255)" fill-opacity="1.0" stroke="rgb(0,0,0)" stroke-width="2"  />
			<g>
				<title>Cytochrome_B (PF00033)
"Cytochrome b/b6/petB"</title>
				<polygon class="PF00033" points="223,28 230,28 239,40 230,52 223,52" stroke-linejoin="round" width="18" height="24" fill="rgb(209,58,124)" stroke="rgb(167,46,99)" stroke-width="1" opacity="0.75" />
			</g>
		</g>
		<g>
			<title> (ctg513_9)</title>
			<polygon class=" (ctg513_9)" points="245,10 261,40 245,70" fill="rgb(255,255,255)" fill-opacity="1.0" stroke="rgb(0,0,0)" stroke-width="2"  />
			<g>
				<title>Cytochrom_B_C (PF00032)
"Cytochrome b(C-terminal)/b6/petD"</title>
				<polygon class="PF00032" points="251,28 251,28 257,40 251,52 251,52" stroke-linejoin="round" width="9" height="24" fill="rgb(183,105,214)" stroke="rgb(146,84,171)" stroke-width="1" opacity="0.75" />
			</g>
		</g>
		<g>
			<title> (ctg513_10)</title>
			<polygon class=" (ctg513_10)" points="264,40 291,10 291,70" fill="rgb(255,255,255)" fill-opacity="1.0" stroke="rgb(0,0,0)" stroke-width="2"  />
			<g>
				<title>SQS_PSY (PF00494)
"Squalene/phytoene synthase"</title>
				<polygon class="PF00494" points="270,38 279,28 289,28 289,52 279,52 270,42" stroke-linejoin="round" width="19" height="24" fill="rgb(178,91,49)" stroke="rgb(142,72,39)" stroke-width="1" opacity="0.75" />
			</g>
		</g>
		<g>
			<title> (ctg513_11)</title>
			<polygon class=" (ctg513_11)" points="300,40 307,10 307,70" fill="rgb(255,255,255)" fill-opacity="1.0" stroke="rgb(0,0,0)" stroke-width="2"  />
		</g>
		<g>
			<title> (ctg513_12)</title>
			<polygon class=" (ctg513_12)" points="312,40 316,10 316,70" fill="rgb(255,255,255)" fill-opacity="1.0" stroke="rgb(0,0,0)" stroke-width="2"  />
		</g>
		<g>
			<title> (ctg513_13)</title>
			<polygon class=" (ctg513_13)" points="385,25 361,25 361,10 331,40 361,70 361,55 385,55" fill="rgb(255,255,255)" fill-opacity="1.0" stroke="rgb(0,0,0)" stroke-width="2"  />
		</g>
		<g>
			<title> (ctg513_14)</title>
			<polygon class=" (ctg513_14)" points="388,10 395,40 388,70" fill="rgb(255,255,255)" fill-opacity="1.0" stroke="rgb(0,0,0)" stroke-width="2"  />
		</g>
		<g>
			<title> (ctg513_15)</title>
			<polygon class=" (ctg513_15)" points="418,10 434,40 418,70" fill="rgb(255,255,255)" fill-opacity="1.0" stroke="rgb(0,0,0)" stroke-width="2"  />
		</g>
		<g>
			<title> (ctg513_16)</title>
			<polygon class=" (ctg513_16)" points="432,10 453,40 432,70" fill="rgb(255,255,255)" fill-opacity="1.0" stroke="rgb(0,0,0)" stroke-width="2"  />
			<g>
				<title>OrfB_IS605 (PF01385)
"Probable transposase"</title>
				<polygon class="PF01385" points="433,28 441,28 443,31 443,49 441,52 433,52" stroke-linejoin="round" width="10" height="24" fill="rgb(95,115,208)" stroke="rgb(76,92,166)" stroke-width="1" opacity="0.75" />
			</g>
			<g>
				<title>OrfB_Zn_ribbon (PF07282)
"Putative transposase DNA-binding domain"</title>
				<polygon class="PF07282" points="445,33 450,40 445,47" stroke-linejoin="round" width="7" height="24" fill="rgb(188,84,136)" stroke="rgb(150,67,108)" stroke-width="1" opacity="0.75" />
			</g>
		</g>
		<g>
			<title> (ctg513_17)</title>
			<polygon class=" (ctg513_17)" points="463,10 475,40 463,70" fill="rgb(255,255,255)" fill-opacity="1.0" stroke="rgb(0,0,0)" stroke-width="2"  />
			<g>
				<title>Response_reg (PF00072)
"Response regulator receiver domain"</title>
				<polygon class="PF00072" points="463,28 466,28 471,40 466,52 463,52" stroke-linejoin="round" width="11" height="24" fill="rgb(100,107,203)" stroke="rgb(80,85,162)" stroke-width="1" opacity="0.75" />
			</g>
		</g>
		<g>
			<title> (ctg513_18)</title>
			<polygon class=" (ctg513_18)" points="478,10 495,40 478,70" fill="rgb(255,255,255)" fill-opacity="1.0" stroke="rgb(0,0,0)" stroke-width="2"  />
			<g>
				<title>CheW (PF01584)
"CheW-like domain"</title>
				<polygon class="PF01584" points="480,28 485,28 492,40 485,52 480,52" stroke-linejoin="round" width="14" height="24" fill="rgb(141,221,87)" stroke="rgb(112,176,69)" stroke-width="1" opacity="0.75" />
			</g>
		</g>
		<g>
			<title> (ctg513_19)</title>
			<polygon class=" (ctg513_19)" points="501,10 513,40 501,70" fill="rgb(255,255,255)" fill-opacity="1.0" stroke="rgb(0,0,0)" stroke-width="2"  />
			<g>
				<title>HTH_Tnp_4 (PF13613)
"Helix-turn-helix of DDE superfamily endonuclease"</title>
				<polygon class="PF13613" points="507,33 510,40 507,47" stroke-linejoin="round" width="5" height="24" fill="rgb(71,220,91)" stroke="rgb(56,176,72)" stroke-width="1" opacity="0.75" />
			</g>
		</g>
	</g>
</svg>
