<svg version="1.1" baseProfile="full" xmlns="http://www.w3.org/2000/svg" width="548.7333333333333" height="80">
	<g>
		<line x1="10" y1="40.0" x2="538.7333333333333" y2="40.0" style="stroke:rgb(70,70,70); stroke-width:3 "/>
		<g>
			<title> (ctg354_1)</title>
			<polygon class=" (ctg354_1)" points="10,10 14,40 10,70" fill="rgb(255,255,255)" fill-opacity="1.0" stroke="rgb(0,0,0)" stroke-width="2"  />
		</g>
		<g>
			<title> (ctg354_2)</title>
			<polygon class=" (ctg354_2)" points="18,10 43,40 18,70" fill="rgb(255,255,255)" fill-opacity="1.0" stroke="rgb(0,0,0)" stroke-width="2"  />
			<g>
				<title>PatG_D (PF18047)
"PatG Domain"</title>
				<rect class="PF18047" x="18" y="28" stroke-linejoin="round" width="8" height="24" fill="rgb(91,195,69)" stroke="rgb(72,156,55)" stroke-width="1" opacity="0.75" />
			</g>
			<g>
				<title>PatG_C (PF18065)
"PatG C-terminal"</title>
				<polygon class="PF18065" points="31,30 39,40 31,50" stroke-linejoin="round" width="11" height="24" fill="rgb(93,82,184)" stroke="rgb(74,65,147)" stroke-width="1" opacity="0.75" />
			</g>
		</g>
		<g>
			<title> (ctg354_3)</title>
			<polygon class=" (ctg354_3)" points="46,10 54,40 46,70" fill="rgb(255,255,255)" fill-opacity="1.0" stroke="rgb(0,0,0)" stroke-width="2"  />
		</g>
		<g>
			<title> (ctg354_4)</title>
			<polygon class=" (ctg354_4)" points="59,10 75,40 59,70" fill="rgb(255,255,255)" fill-opacity="1.0" stroke="rgb(0,0,0)" stroke-width="2"  />
		</g>
		<g>
			<title> (ctg354_5)</title>
			<polygon class=" (ctg354_5)" points="86,10 93,40 86,70" fill="rgb(255,255,255)" fill-opacity="1.0" stroke="rgb(0,0,0)" stroke-width="2"  />
		</g>
		<g>
			<title> (ctg354_6)</title>
			<polygon class=" (ctg354_6)" points="98,10 103,40 98,70" fill="rgb(255,255,255)" fill-opacity="1.0" stroke="rgb(0,0,0)" stroke-width="2"  />
		</g>
		<g>
			<title> (ctg354_7)</title>
			<polygon class=" (ctg354_7)" points="106,40 130,10 130,70" fill="rgb(255,255,255)" fill-opacity="1.0" stroke="rgb(0,0,0)" stroke-width="2"  />
			<g>
				<title>Uma2 (PF05685)
"Putative restriction endonuclease"</title>
				<polygon class="PF05685" points="111,39 120,28 128,28 128,52 120,52 111,41" stroke-linejoin="round" width="17" height="24" fill="rgb(123,107,219)" stroke="rgb(98,85,175)" stroke-width="1" opacity="0.75" />
			</g>
		</g>
		<g>
			<title> (ctg354_8)</title>
			<polygon class=" (ctg354_8)" points="135,25 174,25 174,10 204,40 174,70 174,55 135,55" fill="rgb(255,255,255)" fill-opacity="1.0" stroke="rgb(0,0,0)" stroke-width="2"  />
			<g>
				<title>Peptidase_S8 (PF00082)
"Subtilase family"</title>
				<rect class="PF00082" x="137" y="28" stroke-linejoin="round" width="32" height="24" fill="rgb(193,159,94)" stroke="rgb(154,127,75)" stroke-width="1" opacity="0.75" />
			</g>
			<g>
				<title>PatG_D (PF18047)
"PatG Domain"</title>
				<rect class="PF18047" x="177" y="28" stroke-linejoin="round" width="11" height="24" fill="rgb(91,195,69)" stroke="rgb(72,156,55)" stroke-width="1" opacity="0.75" />
			</g>
			<g>
				<title>PatG_C (PF18065)
"PatG C-terminal"</title>
				<polygon class="PF18065" points="193,33 200,40 193,47" stroke-linejoin="round" width="11" height="24" fill="rgb(93,82,184)" stroke="rgb(74,65,147)" stroke-width="1" opacity="0.75" />
			</g>
		</g>
		<g>
			<title> (ctg354_9)</title>
			<polygon class=" (ctg354_9)" points="233,10 253,40 233,70" fill="rgb(255,255,255)" fill-opacity="1.0" stroke="rgb(0,0,0)" stroke-width="2"  />
			<g>
				<title>Ribosomal_S30AE (PF02482)
"Sigma 54 modulation protein / S30EA ribosomal protein"</title>
				<polygon class="PF02482" points="233,28 241,28 242,29 242,51 241,52 233,52" stroke-linejoin="round" width="9" height="24" fill="rgb(104,228,126)" stroke="rgb(83,182,100)" stroke-width="1" opacity="0.75" />
			</g>
			<g>
				<title>Ribosom_S30AE_C (PF16321)
"Sigma 54 modulation/S30EA ribosomal protein C terminus"</title>
				<polygon class="PF16321" points="245,34 249,40 245,46" stroke-linejoin="round" width="5" height="24" fill="rgb(200,98,224)" stroke="rgb(160,78,179)" stroke-width="1" opacity="0.75" />
			</g>
		</g>
		<g>
			<title> (ctg354_10)</title>
			<polygon class=" (ctg354_10)" points="255,40 268,10 268,70" fill="rgb(255,255,255)" fill-opacity="1.0" stroke="rgb(0,0,0)" stroke-width="2"  />
			<g>
				<title>HSP20 (PF00011)
"Hsp20/alpha crystallin family"</title>
				<polygon class="PF00011" points="258,40 263,28 264,28 264,52 263,52" stroke-linejoin="round" width="9" height="24" fill="rgb(148,223,75)" stroke="rgb(118,178,60)" stroke-width="1" opacity="0.75" />
			</g>
		</g>
		<g>
			<title> (ctg354_11)</title>
			<polygon class=" (ctg354_11)" points="280,40 301,10 301,70" fill="rgb(255,255,255)" fill-opacity="1.0" stroke="rgb(0,0,0)" stroke-width="2"  />
			<g>
				<title>Sua5_yciO_yrdC (PF01300)
"Telomere recombination"</title>
				<polygon class="PF01300" points="284,40 293,28 299,28 299,52 293,52" stroke-linejoin="round" width="18" height="24" fill="rgb(183,139,65)" stroke="rgb(146,111,51)" stroke-width="1" opacity="0.75" />
			</g>
		</g>
		<g>
			<title> (ctg354_12)</title>
			<polygon class=" (ctg354_12)" points="303,25 312,25 312,10 342,40 312,70 312,55 303,55" fill="rgb(255,255,255)" fill-opacity="1.0" stroke="rgb(0,0,0)" stroke-width="2"  />
			<g>
				<title>DUF111 (PF01969)
"Protein of unknown function DUF111"</title>
				<polygon class="PF01969" points="303,28 326,28 338,40 326,52 303,52" stroke-linejoin="round" width="37" height="24" fill="rgb(171,97,208)" stroke="rgb(136,77,166)" stroke-width="1" opacity="0.75" />
			</g>
		</g>
		<g>
			<title> (ctg354_13)</title>
			<polygon class=" (ctg354_13)" points="354,10 361,40 354,70" fill="rgb(255,255,255)" fill-opacity="1.0" stroke="rgb(0,0,0)" stroke-width="2"  />
		</g>
		<g>
			<title> (ctg354_14)</title>
			<polygon class=" (ctg354_14)" points="377,10 384,40 377,70" fill="rgb(255,255,255)" fill-opacity="1.0" stroke="rgb(0,0,0)" stroke-width="2"  />
			<g>
				<title>Ribonuc_L-PSP (PF01042)
"Endoribonuclease L-PSP"</title>
				<polygon class="PF01042" points="377,28 377,28 381,40 377,52 377,52" stroke-linejoin="round" width="7" height="24" fill="rgb(93,120,208)" stroke="rgb(74,96,166)" stroke-width="1" opacity="0.75" />
			</g>
		</g>
		<g>
			<title> (ctg354_15)</title>
			<polygon class=" (ctg354_15)" points="438,25 416,25 416,10 386,40 416,70 416,55 438,55" fill="rgb(255,255,255)" fill-opacity="1.0" stroke="rgb(0,0,0)" stroke-width="2"  />
			<g>
				<title>RNA_pol_Rpb1_3 (PF04983)
"RNA polymerase Rpb1, domain 3"</title>
				<polygon class="PF04983" points="390,40 398,32 398,48" stroke-linejoin="round" width="12" height="24" fill="rgb(151,80,202)" stroke="rgb(120,64,161)" stroke-width="1" opacity="0.75" />
			</g>
			<g>
				<title>RNA_pol_Rpb1_2 (PF00623)
"RNA polymerase Rpb1, domain 2"</title>
				<polygon class="PF00623" points="399,31 402,28 409,28 409,52 402,52 399,49" stroke-linejoin="round" width="10" height="24" fill="rgb(166,226,92)" stroke="rgb(132,180,73)" stroke-width="1" opacity="0.75" />
			</g>
			<g>
				<title>RNA_pol_Rpb1_1 (PF04997)
"RNA polymerase Rpb1, domain 1"</title>
				<rect class="PF04997" x="413" y="28" stroke-linejoin="round" width="24" height="24" fill="rgb(76,225,92)" stroke="rgb(60,180,73)" stroke-width="1" opacity="0.75" />
			</g>
		</g>
		<g>
			<title> (ctg354_16)</title>
			<polygon class=" (ctg354_16)" points="504,25 485,25 485,10 455,40 485,70 485,55 504,55" fill="rgb(255,255,255)" fill-opacity="1.0" stroke="rgb(0,0,0)" stroke-width="2"  />
			<g>
				<title>WD40 (PF00400)
"WD domain, G-beta repeat"</title>
				<polygon class="PF00400" points="459,40 459,40 459,40" stroke-linejoin="round" width="4" height="24" fill="rgb(190,108,62)" stroke="rgb(152,86,49)" stroke-width="1" opacity="0.75" />
			</g>
			<g>
				<title>WD40 (PF00400)
"WD domain, G-beta repeat"</title>
				<polygon class="PF00400" points="460,39 463,36 463,44 460,41" stroke-linejoin="round" width="3" height="24" fill="rgb(190,108,62)" stroke="rgb(152,86,49)" stroke-width="1" opacity="0.75" />
			</g>
			<g>
				<title>WD40 (PF00400)
"WD domain, G-beta repeat"</title>
				<polygon class="PF00400" points="464,35 467,32 467,48 464,45" stroke-linejoin="round" width="3" height="24" fill="rgb(190,108,62)" stroke="rgb(152,86,49)" stroke-width="1" opacity="0.75" />
			</g>
			<g>
				<title>WD40 (PF00400)
"WD domain, G-beta repeat"</title>
				<polygon class="PF00400" points="468,31 471,28 471,28 471,52 471,52 468,49" stroke-linejoin="round" width="3" height="24" fill="rgb(190,108,62)" stroke="rgb(152,86,49)" stroke-width="1" opacity="0.75" />
			</g>
			<g>
				<title>WD40 (PF00400)
"WD domain, G-beta repeat"</title>
				<rect class="PF00400" x="473" y="28" stroke-linejoin="round" width="3" height="24" fill="rgb(190,108,62)" stroke="rgb(152,86,49)" stroke-width="1" opacity="0.75" />
			</g>
			<g>
				<title>WD40 (PF00400)
"WD domain, G-beta repeat"</title>
				<rect class="PF00400" x="477" y="28" stroke-linejoin="round" width="3" height="24" fill="rgb(190,108,62)" stroke="rgb(152,86,49)" stroke-width="1" opacity="0.75" />
			</g>
			<g>
				<title>WD40 (PF00400)
"WD domain, G-beta repeat"</title>
				<rect class="PF00400" x="481" y="28" stroke-linejoin="round" width="3" height="24" fill="rgb(190,108,62)" stroke="rgb(152,86,49)" stroke-width="1" opacity="0.75" />
			</g>
		</g>
	</g>
</svg>
