<svg version="1.1" baseProfile="full" xmlns="http://www.w3.org/2000/svg" width="239.2" height="80">
	<g>
		<line x1="10" y1="40.0" x2="229.2" y2="40.0" style="stroke:rgb(70,70,70); stroke-width:3 "/>
		<g>
			<title> (ctg49_1)</title>
			<polygon class=" (ctg49_1)" points="10,25 59,25 59,10 89,40 59,70 59,55 10,55" fill="rgb(255,255,255)" fill-opacity="1.0" stroke="rgb(0,0,0)" stroke-width="2"  />
			<g>
				<title>Condensation (PF00668)
"Condensation domain"</title>
				<rect class="PF00668" x="10" y="28" stroke-linejoin="round" width="15" height="24" fill="rgb(224,184,98)" stroke="rgb(179,147,78)" stroke-width="1" opacity="0.75" />
			</g>
			<g>
				<title>Condensation (PF00668)
"Condensation domain"</title>
				<rect class="PF00668" x="27" y="28" stroke-linejoin="round" width="43" height="24" fill="rgb(224,184,98)" stroke="rgb(179,147,78)" stroke-width="1" opacity="0.75" />
			</g>
			<g>
				<title>AMP-binding (PF00501)
"AMP-binding enzyme"</title>
				<polygon class="PF00501" points="72,28 73,28 85,40 73,52 72,52" stroke-linejoin="round" width="16" height="24" fill="rgb(60,217,223)" stroke="rgb(48,173,178)" stroke-width="1" opacity="0.75" />
			</g>
		</g>
		<g>
			<title> (ctg49_2)</title>
			<polygon class=" (ctg49_2)" points="91,25 98,25 98,10 128,40 98,70 98,55 91,55" fill="rgb(255,255,255)" fill-opacity="1.0" stroke="rgb(0,0,0)" stroke-width="2"  />
			<g>
				<title>Glyoxalase (PF00903)
"Glyoxalase/Bleomycin resistance protein/Dioxygenase superfamily"</title>
				<polygon class="PF00903" points="108,28 112,28 120,36 120,44 112,52 108,52" stroke-linejoin="round" width="12" height="24" fill="rgb(50,162,189)" stroke="rgb(40,129,151)" stroke-width="1" opacity="0.75" />
			</g>
		</g>
		<g>
			<title> (ctg49_3)</title>
			<polygon class=" (ctg49_3)" points="129,25 145,25 145,10 175,40 145,70 145,55 129,55" fill="rgb(255,255,255)" fill-opacity="1.0" stroke="rgb(0,0,0)" stroke-width="2"  />
			<g>
				<title>FAD_binding_4 (PF01565)
"FAD binding domain"</title>
				<rect class="PF01565" x="133" y="28" stroke-linejoin="round" width="13" height="24" fill="rgb(226,88,136)" stroke="rgb(180,70,108)" stroke-width="1" opacity="0.75" />
			</g>
			<g>
				<title>FAD-oxidase_C (PF02913)
"FAD linked oxidases, C-terminal domain"</title>
				<polygon class="PF02913" points="150,28 159,28 171,40 159,52 150,52" stroke-linejoin="round" width="24" height="24" fill="rgb(111,69,188)" stroke="rgb(88,55,150)" stroke-width="1" opacity="0.75" />
			</g>
		</g>
		<g>
			<title> (ctg49_4)</title>
			<polygon class=" (ctg49_4)" points="179,25 188,25 188,10 218,40 188,70 188,55 179,55" fill="rgb(255,255,255)" fill-opacity="1.0" stroke="rgb(0,0,0)" stroke-width="2"  />
			<g>
				<title>AMP-binding (PF00501)
"AMP-binding enzyme"</title>
				<rect class="PF00501" x="179" y="28" stroke-linejoin="round" width="19" height="24" fill="rgb(60,217,223)" stroke="rgb(48,173,178)" stroke-width="1" opacity="0.75" />
			</g>
			<g>
				<title>AMP-binding_C (PF13193)
"AMP-binding enzyme C-terminal domain"</title>
				<polygon class="PF13193" points="199,28 201,28 206,33 206,47 201,52 199,52" stroke-linejoin="round" width="7" height="24" fill="rgb(182,50,118)" stroke="rgb(145,39,94)" stroke-width="1" opacity="0.75" />
			</g>
			<g>
				<title>PP-binding (PF00550)
"Phosphopantetheine attachment site"</title>
				<polygon class="PF00550" points="209,36 213,40 209,44" stroke-linejoin="round" width="6" height="24" fill="rgb(103,191,88)" stroke="rgb(82,152,70)" stroke-width="1" opacity="0.75" />
			</g>
		</g>
		<g>
			<title> (ctg49_5)</title>
			<polygon class=" (ctg49_5)" points="218,10 228,40 218,70" fill="rgb(255,255,255)" fill-opacity="1.0" stroke="rgb(0,0,0)" stroke-width="2"  />
			<g>
				<title>TubC_N (PF18563)
"TubC N-terminal docking domain"</title>
				<polygon class="PF18563" points="218,28 220,28 223,34 223,46 220,52 218,52" stroke-linejoin="round" width="5" height="24" fill="rgb(95,217,77)" stroke="rgb(75,173,61)" stroke-width="1" opacity="0.75" />
			</g>
		</g>
	</g>
</svg>
