<svg version="1.1" baseProfile="full" xmlns="http://www.w3.org/2000/svg" width="296.4" height="80">
	<g>
		<line x1="10" y1="40.0" x2="286.4" y2="40.0" style="stroke:rgb(70,70,70); stroke-width:3 "/>
		<g>
			<title> (ctg1707_1)</title>
			<polygon class=" (ctg1707_1)" points="10,25 102,25 102,10 132,40 102,70 102,55 10,55" fill="rgb(255,255,255)" fill-opacity="1.0" stroke="rgb(0,0,0)" stroke-width="2"  />
			<g>
				<title>PP-binding (PF00550)
"Phosphopantetheine attachment site"</title>
				<rect class="PF00550" x="14" y="28" stroke-linejoin="round" width="6" height="24" fill="rgb(103,191,88)" stroke="rgb(82,152,70)" stroke-width="1" opacity="0.75" />
			</g>
			<g>
				<title>Condensation (PF00668)
"Condensation domain"</title>
				<rect class="PF00668" x="22" y="28" stroke-linejoin="round" width="44" height="24" fill="rgb(224,184,98)" stroke="rgb(179,147,78)" stroke-width="1" opacity="0.75" />
			</g>
			<g>
				<title>AMP-binding (PF00501)
"AMP-binding enzyme"</title>
				<rect class="PF00501" x="69" y="28" stroke-linejoin="round" width="43" height="24" fill="rgb(60,217,223)" stroke="rgb(48,173,178)" stroke-width="1" opacity="0.75" />
			</g>
			<g>
				<title>AMP-binding_C (PF13193)
"AMP-binding enzyme C-terminal domain"</title>
				<polygon class="PF13193" points="113,28 116,28 120,32 120,48 116,52 113,52" stroke-linejoin="round" width="7" height="24" fill="rgb(182,50,118)" stroke="rgb(145,39,94)" stroke-width="1" opacity="0.75" />
			</g>
			<g>
				<title>PP-binding (PF00550)
"Phosphopantetheine attachment site"</title>
				<polygon class="PF00550" points="123,35 128,40 123,45" stroke-linejoin="round" width="6" height="24" fill="rgb(103,191,88)" stroke="rgb(82,152,70)" stroke-width="1" opacity="0.75" />
			</g>
		</g>
		<g>
			<title> (ctg1707_2)</title>
			<polygon class=" (ctg1707_2)" points="132,25 255,25 255,10 285,40 255,70 255,55 132,55" fill="rgb(255,255,255)" fill-opacity="1.0" stroke="rgb(0,0,0)" stroke-width="2"  />
			<g>
				<title>Condensation (PF00668)
"Condensation domain"</title>
				<rect class="PF00668" x="132" y="28" stroke-linejoin="round" width="44" height="24" fill="rgb(224,184,98)" stroke="rgb(179,147,78)" stroke-width="1" opacity="0.75" />
			</g>
			<g>
				<title>AMP-binding (PF00501)
"AMP-binding enzyme"</title>
				<rect class="PF00501" x="179" y="28" stroke-linejoin="round" width="41" height="24" fill="rgb(60,217,223)" stroke="rgb(48,173,178)" stroke-width="1" opacity="0.75" />
			</g>
			<g>
				<title>AMP-binding_C (PF13193)
"AMP-binding enzyme C-terminal domain"</title>
				<rect class="PF13193" x="220" y="28" stroke-linejoin="round" width="8" height="24" fill="rgb(182,50,118)" stroke="rgb(145,39,94)" stroke-width="1" opacity="0.75" />
			</g>
			<g>
				<title>PP-binding (PF00550)
"Phosphopantetheine attachment site"</title>
				<rect class="PF00550" x="231" y="28" stroke-linejoin="round" width="6" height="24" fill="rgb(103,191,88)" stroke="rgb(82,152,70)" stroke-width="1" opacity="0.75" />
			</g>
			<g>
				<title>Condensation (PF00668)
"Condensation domain"</title>
				<polygon class="PF00668" points="240,28 269,28 281,40 269,52 240,52" stroke-linejoin="round" width="44" height="24" fill="rgb(224,184,98)" stroke="rgb(179,147,78)" stroke-width="1" opacity="0.75" />
			</g>
		</g>
	</g>
</svg>
