<svg version="1.1" baseProfile="full" xmlns="http://www.w3.org/2000/svg" width="758.4333333333333" height="80">
	<g>
		<line x1="10" y1="40.0" x2="748.4333333333333" y2="40.0" style="stroke:rgb(70,70,70); stroke-width:3 "/>
		<g>
			<title> (ctg188_1)</title>
			<polygon class=" (ctg188_1)" points="122,25 55,25 55,10 25,40 55,70 55,55 122,55" fill="rgb(255,255,255)" fill-opacity="1.0" stroke="rgb(0,0,0)" stroke-width="2"  />
			<g>
				<title>Condensation (PF00668)
"Condensation domain"</title>
				<polygon class="PF00668" points="29,40 41,28 67,28 67,52 41,52" stroke-linejoin="round" width="42" height="24" fill="rgb(224,184,98)" stroke="rgb(179,147,78)" stroke-width="1" opacity="0.75" />
			</g>
			<g>
				<title>AMP-binding_C (PF13193)
"AMP-binding enzyme C-terminal domain"</title>
				<rect class="PF13193" x="70" y="28" stroke-linejoin="round" width="7" height="24" fill="rgb(182,50,118)" stroke="rgb(145,39,94)" stroke-width="1" opacity="0.75" />
			</g>
			<g>
				<title>AMP-binding (PF00501)
"AMP-binding enzyme"</title>
				<rect class="PF00501" x="78" y="28" stroke-linejoin="round" width="42" height="24" fill="rgb(60,217,223)" stroke="rgb(48,173,178)" stroke-width="1" opacity="0.75" />
			</g>
		</g>
		<g>
			<title> (ctg188_2)</title>
			<polygon class=" (ctg188_2)" points="289,25 159,25 159,10 129,40 159,70 159,55 289,55" fill="rgb(255,255,255)" fill-opacity="1.0" stroke="rgb(0,0,0)" stroke-width="2"  />
			<g>
				<title>PP-binding (PF00550)
"Phosphopantetheine attachment site"</title>
				<polygon class="PF00550" points="133,40 136,37 136,43" stroke-linejoin="round" width="6" height="24" fill="rgb(103,191,88)" stroke="rgb(82,152,70)" stroke-width="1" opacity="0.75" />
			</g>
			<g>
				<title>Condensation (PF00668)
"Condensation domain"</title>
				<polygon class="PF00668" points="138,35 145,28 181,28 181,52 145,52 138,45" stroke-linejoin="round" width="43" height="24" fill="rgb(224,184,98)" stroke="rgb(179,147,78)" stroke-width="1" opacity="0.75" />
			</g>
			<g>
				<title>PP-binding (PF00550)
"Phosphopantetheine attachment site"</title>
				<rect class="PF00550" x="186" y="28" stroke-linejoin="round" width="7" height="24" fill="rgb(103,191,88)" stroke="rgb(82,152,70)" stroke-width="1" opacity="0.75" />
			</g>
			<g>
				<title>Acyl_transf_1 (PF00698)
"Acyl transferase domain"</title>
				<rect class="PF00698" x="201" y="28" stroke-linejoin="round" width="31" height="24" fill="rgb(59,176,209)" stroke="rgb(47,140,167)" stroke-width="1" opacity="0.75" />
			</g>
			<g>
				<title>KAsynt_C_assoc (PF16197)
"Ketoacyl-synthetase C-terminal extension"</title>
				<rect class="PF16197" x="237" y="28" stroke-linejoin="round" width="11" height="24" fill="rgb(240,150,172)" stroke="rgb(192,120,137)" stroke-width="1" opacity="0.75" />
			</g>
			<g>
				<title>Ketoacyl-synt_C (PF02801)
"Beta-ketoacyl synthase, C-terminal domain"</title>
				<rect class="PF02801" x="248" y="28" stroke-linejoin="round" width="11" height="24" fill="rgb(215,78,102)" stroke="rgb(172,62,81)" stroke-width="1" opacity="0.75" />
			</g>
			<g>
				<title>ketoacyl-synt (PF00109)
"Beta-ketoacyl synthase, N-terminal domain"</title>
				<rect class="PF00109" x="261" y="28" stroke-linejoin="round" width="25" height="24" fill="rgb(112,116,228)" stroke="rgb(89,92,182)" stroke-width="1" opacity="0.75" />
			</g>
		</g>
		<g>
			<title> (ctg188_3)</title>
			<polygon class=" (ctg188_3)" points="454,25 327,25 327,10 297,40 327,70 327,55 454,55" fill="rgb(255,255,255)" fill-opacity="1.0" stroke="rgb(0,0,0)" stroke-width="2"  />
			<g>
				<title>PP-binding (PF00550)
"Phosphopantetheine attachment site"</title>
				<polygon class="PF00550" points="302,39 308,33 308,47 302,41" stroke-linejoin="round" width="6" height="24" fill="rgb(103,191,88)" stroke="rgb(82,152,70)" stroke-width="1" opacity="0.75" />
			</g>
			<g>
				<title>KR (PF08659)
"KR domain"</title>
				<rect class="PF08659" x="319" y="28" stroke-linejoin="round" width="18" height="24" fill="rgb(66,209,188)" stroke="rgb(52,167,150)" stroke-width="1" opacity="0.75" />
			</g>
			<g>
				<title>Acyl_transf_1 (PF00698)
"Acyl transferase domain"</title>
				<rect class="PF00698" x="370" y="28" stroke-linejoin="round" width="32" height="24" fill="rgb(59,176,209)" stroke="rgb(47,140,167)" stroke-width="1" opacity="0.75" />
			</g>
			<g>
				<title>KAsynt_C_assoc (PF16197)
"Ketoacyl-synthetase C-terminal extension"</title>
				<rect class="PF16197" x="405" y="28" stroke-linejoin="round" width="11" height="24" fill="rgb(240,150,172)" stroke="rgb(192,120,137)" stroke-width="1" opacity="0.75" />
			</g>
			<g>
				<title>Ketoacyl-synt_C (PF02801)
"Beta-ketoacyl synthase, C-terminal domain"</title>
				<rect class="PF02801" x="417" y="28" stroke-linejoin="round" width="11" height="24" fill="rgb(215,78,102)" stroke="rgb(172,62,81)" stroke-width="1" opacity="0.75" />
			</g>
			<g>
				<title>ketoacyl-synt (PF00109)
"Beta-ketoacyl synthase, N-terminal domain"</title>
				<rect class="PF00109" x="429" y="28" stroke-linejoin="round" width="24" height="24" fill="rgb(112,116,228)" stroke="rgb(89,92,182)" stroke-width="1" opacity="0.75" />
			</g>
		</g>
		<g>
			<title> (ctg188_4)</title>
			<polygon class=" (ctg188_4)" points="458,40 468,10 468,70" fill="rgb(255,255,255)" fill-opacity="1.0" stroke="rgb(0,0,0)" stroke-width="2"  />
		</g>
		<g>
			<title> (ctg188_5)</title>
			<polygon class=" (ctg188_5)" points="468,40 474,10 474,70" fill="rgb(255,255,255)" fill-opacity="1.0" stroke="rgb(0,0,0)" stroke-width="2"  />
		</g>
		<g>
			<title> (ctg188_6)</title>
			<polygon class=" (ctg188_6)" points="476,40 484,10 484,70" fill="rgb(255,255,255)" fill-opacity="1.0" stroke="rgb(0,0,0)" stroke-width="2"  />
			<g>
				<title>PP-binding (PF00550)
"Phosphopantetheine attachment site"</title>
				<polygon class="PF00550" points="479,40 482,30 482,50" stroke-linejoin="round" width="6" height="24" fill="rgb(103,191,88)" stroke="rgb(82,152,70)" stroke-width="1" opacity="0.75" />
			</g>
		</g>
		<g>
			<title> (ctg188_7)</title>
			<polygon class=" (ctg188_7)" points="494,10 511,40 494,70" fill="rgb(255,255,255)" fill-opacity="1.0" stroke="rgb(0,0,0)" stroke-width="2"  />
		</g>
		<g>
			<title> (ctg188_8)</title>
			<polygon class=" (ctg188_8)" points="546,25 545,25 545,10 515,40 545,70 545,55 546,55" fill="rgb(255,255,255)" fill-opacity="1.0" stroke="rgb(0,0,0)" stroke-width="2"  />
			<g>
				<title>HTH_18 (PF12833)
"Helix-turn-helix domain"</title>
				<polygon class="PF12833" points="519,40 522,37 522,43" stroke-linejoin="round" width="7" height="24" fill="rgb(216,58,224)" stroke="rgb(172,46,179)" stroke-width="1" opacity="0.75" />
			</g>
			<g>
				<title>PAS_8 (PF13188)
"PAS domain"</title>
				<rect class="PF13188" x="534" y="28" stroke-linejoin="round" width="6" height="24" fill="rgb(206,218,73)" stroke="rgb(164,174,58)" stroke-width="1" opacity="0.75" />
			</g>
		</g>
		<g>
			<title> (ctg188_9)</title>
			<polygon class=" (ctg188_9)" points="563,10 571,40 563,70" fill="rgb(255,255,255)" fill-opacity="1.0" stroke="rgb(0,0,0)" stroke-width="2"  />
		</g>
		<g>
			<title> (ctg188_10)</title>
			<polygon class=" (ctg188_10)" points="572,40 579,10 579,70" fill="rgb(255,255,255)" fill-opacity="1.0" stroke="rgb(0,0,0)" stroke-width="2"  />
		</g>
		<g>
			<title> (ctg188_11)</title>
			<polygon class=" (ctg188_11)" points="580,10 590,40 580,70" fill="rgb(255,255,255)" fill-opacity="1.0" stroke="rgb(0,0,0)" stroke-width="2"  />
			<g>
				<title>DDE_Tnp_1_assoc (PF13808)
"DDE_Tnp_1-associated"</title>
				<polygon class="PF13808" points="580,28 582,28 587,40 582,52 580,52" stroke-linejoin="round" width="8" height="24" fill="rgb(95,129,194)" stroke="rgb(76,103,155)" stroke-width="1" opacity="0.75" />
			</g>
		</g>
		<g>
			<title> (ctg188_12)</title>
			<polygon class=" (ctg188_12)" points="592,10 597,40 592,70" fill="rgb(255,255,255)" fill-opacity="1.0" stroke="rgb(0,0,0)" stroke-width="2"  />
		</g>
		<g>
			<title> (ctg188_13)</title>
			<polygon class=" (ctg188_13)" points="601,25 648,25 648,10 678,40 648,70 648,55 601,55" fill="rgb(255,255,255)" fill-opacity="1.0" stroke="rgb(0,0,0)" stroke-width="2"  />
			<g>
				<title>Molybdopterin (PF00384)
"Molybdopterin oxidoreductase"</title>
				<rect class="PF00384" x="614" y="28" stroke-linejoin="round" width="40" height="24" fill="rgb(65,194,78)" stroke="rgb(52,155,62)" stroke-width="1" opacity="0.75" />
			</g>
			<g>
				<title>Molydop_binding (PF01568)
"Molydopterin dinucleotide binding domain"</title>
				<polygon class="PF01568" points="667,34 673,40 667,46" stroke-linejoin="round" width="10" height="24" fill="rgb(184,132,64)" stroke="rgb(147,105,51)" stroke-width="1" opacity="0.75" />
			</g>
		</g>
		<g>
			<title> (ctg188_14)</title>
			<polygon class=" (ctg188_14)" points="691,10 701,40 691,70" fill="rgb(255,255,255)" fill-opacity="1.0" stroke="rgb(0,0,0)" stroke-width="2"  />
			<g>
				<title>LprI (PF07007)
"Lysozyme inhibitor LprI"</title>
				<polygon class="PF07007" points="691,28 694,28 698,40 694,52 691,52" stroke-linejoin="round" width="9" height="24" fill="rgb(150,179,83)" stroke="rgb(120,143,66)" stroke-width="1" opacity="0.75" />
			</g>
		</g>
		<g>
			<title> (ctg188_15)</title>
			<polygon class=" (ctg188_15)" points="709,40 733,10 733,70" fill="rgb(255,255,255)" fill-opacity="1.0" stroke="rgb(0,0,0)" stroke-width="2"  />
			<g>
				<title>HAD_2 (PF13419)
"Haloacid dehalogenase-like hydrolase"</title>
				<polygon class="PF13419" points="713,40 723,28 732,28 732,52 723,52 713,40" stroke-linejoin="round" width="19" height="24" fill="rgb(60,223,188)" stroke="rgb(48,178,150)" stroke-width="1" opacity="0.75" />
			</g>
		</g>
	</g>
</svg>
