<svg version="1.1" baseProfile="full" xmlns="http://www.w3.org/2000/svg" width="1095.8666666666666" height="80">
	<g>
		<line x1="10" y1="40.0" x2="1085.8666666666666" y2="40.0" style="stroke:rgb(70,70,70); stroke-width:3 "/>
		<g>
			<title> (ctg122_1)</title>
			<polygon class=" (ctg122_1)" points="10,10 15,40 10,70" fill="rgb(255,255,255)" fill-opacity="1.0" stroke="rgb(0,0,0)" stroke-width="2"  />
		</g>
		<g>
			<title> (ctg122_2)</title>
			<polygon class=" (ctg122_2)" points="18,25 31,25 31,10 61,40 31,70 31,55 18,55" fill="rgb(255,255,255)" fill-opacity="1.0" stroke="rgb(0,0,0)" stroke-width="2"  />
			<g>
				<title>Pentapeptide (PF00805)
"Pentapeptide repeats (8 copies)"</title>
				<polygon class="PF00805" points="45,28 45,28 48,31 48,49 45,52 45,52" stroke-linejoin="round" width="3" height="24" fill="rgb(186,52,164)" stroke="rgb(148,41,131)" stroke-width="1" opacity="0.75" />
			</g>
			<g>
				<title>Pentapeptide (PF00805)
"Pentapeptide repeats (8 copies)"</title>
				<polygon class="PF00805" points="48,31 51,34 51,46 48,49" stroke-linejoin="round" width="3" height="24" fill="rgb(186,52,164)" stroke="rgb(148,41,131)" stroke-width="1" opacity="0.75" />
			</g>
			<g>
				<title>Pentapeptide (PF00805)
"Pentapeptide repeats (8 copies)"</title>
				<polygon class="PF00805" points="52,35 55,38 55,42 52,45" stroke-linejoin="round" width="3" height="24" fill="rgb(186,52,164)" stroke="rgb(148,41,131)" stroke-width="1" opacity="0.75" />
			</g>
		</g>
		<g>
			<title> (ctg122_3)</title>
			<polygon class=" (ctg122_3)" points="63,10 83,40 63,70" fill="rgb(255,255,255)" fill-opacity="1.0" stroke="rgb(0,0,0)" stroke-width="2"  />
		</g>
		<g>
			<title> (ctg122_4)</title>
			<polygon class=" (ctg122_4)" points="84,10 91,40 84,70" fill="rgb(255,255,255)" fill-opacity="1.0" stroke="rgb(0,0,0)" stroke-width="2"  />
		</g>
		<g>
			<title> (ctg122_5)</title>
			<polygon class=" (ctg122_5)" points="93,10 103,40 93,70" fill="rgb(255,255,255)" fill-opacity="1.0" stroke="rgb(0,0,0)" stroke-width="2"  />
			<g>
				<title>DUF433 (PF04255)
"Protein of unknown function (DUF433)"</title>
				<polygon class="PF04255" points="94,28 96,28 98,33 98,47 96,52 94,52" stroke-linejoin="round" width="4" height="24" fill="rgb(205,68,213)" stroke="rgb(164,54,170)" stroke-width="1" opacity="0.75" />
			</g>
		</g>
		<g>
			<title> (ctg122_6)</title>
			<polygon class=" (ctg122_6)" points="117,25 117,25 117,10 147,40 117,70 117,55 117,55" fill="rgb(255,255,255)" fill-opacity="1.0" stroke="rgb(0,0,0)" stroke-width="2"  />
		</g>
		<g>
			<title> (ctg122_7)</title>
			<polygon class=" (ctg122_7)" points="153,10 160,40 153,70" fill="rgb(255,255,255)" fill-opacity="1.0" stroke="rgb(0,0,0)" stroke-width="2"  />
		</g>
		<g>
			<title> (ctg122_8)</title>
			<polygon class=" (ctg122_8)" points="160,10 174,40 160,70" fill="rgb(255,255,255)" fill-opacity="1.0" stroke="rgb(0,0,0)" stroke-width="2"  />
			<g>
				<title>PIN (PF01850)
"PIN domain"</title>
				<polygon class="PF01850" points="160,28 164,28 170,40 164,52 160,52" stroke-linejoin="round" width="13" height="24" fill="rgb(91,217,126)" stroke="rgb(72,173,100)" stroke-width="1" opacity="0.75" />
			</g>
		</g>
		<g>
			<title> (ctg122_9)</title>
			<polygon class=" (ctg122_9)" points="229,25 225,25 225,10 195,40 225,70 225,55 229,55" fill="rgb(255,255,255)" fill-opacity="1.0" stroke="rgb(0,0,0)" stroke-width="2"  />
			<g>
				<title>Lipase_GDSL (PF00657)
"GDSL-like Lipase/Acylhydrolase"</title>
				<polygon class="PF00657" points="201,38 211,28 226,28 226,52 211,52 201,42" stroke-linejoin="round" width="25" height="24" fill="rgb(151,210,92)" stroke="rgb(120,168,73)" stroke-width="1" opacity="0.75" />
			</g>
		</g>
		<g>
			<title> (ctg122_10)</title>
			<polygon class=" (ctg122_10)" points="251,40 260,10 260,70" fill="rgb(255,255,255)" fill-opacity="1.0" stroke="rgb(0,0,0)" stroke-width="2"  />
			<g>
				<title>DDE_Tnp_1_4 (PF13701)
"Transposase DDE domain group 1"</title>
				<polygon class="PF13701" points="254,40 258,28 260,28 260,52 258,52" stroke-linejoin="round" width="9" height="24" fill="rgb(187,172,89)" stroke="rgb(149,137,71)" stroke-width="1" opacity="0.75" />
			</g>
		</g>
		<g>
			<title> (ctg122_11)</title>
			<polygon class=" (ctg122_11)" points="272,40 278,10 278,70" fill="rgb(255,255,255)" fill-opacity="1.0" stroke="rgb(0,0,0)" stroke-width="2"  />
		</g>
		<g>
			<title> (ctg122_12)</title>
			<polygon class=" (ctg122_12)" points="291,25 388,25 388,10 418,40 388,70 388,55 291,55" fill="rgb(255,255,255)" fill-opacity="1.0" stroke="rgb(0,0,0)" stroke-width="2"  />
			<g>
				<title>ketoacyl-synt (PF00109)
"Beta-ketoacyl synthase, N-terminal domain"</title>
				<rect class="PF00109" x="292" y="28" stroke-linejoin="round" width="28" height="24" fill="rgb(112,116,228)" stroke="rgb(89,92,182)" stroke-width="1" opacity="0.75" />
			</g>
			<g>
				<title>Ketoacyl-synt_C (PF02801)
"Beta-ketoacyl synthase, C-terminal domain"</title>
				<rect class="PF02801" x="321" y="28" stroke-linejoin="round" width="11" height="24" fill="rgb(215,78,102)" stroke="rgb(172,62,81)" stroke-width="1" opacity="0.75" />
			</g>
			<g>
				<title>KAsynt_C_assoc (PF16197)
"Ketoacyl-synthetase C-terminal extension"</title>
				<rect class="PF16197" x="333" y="28" stroke-linejoin="round" width="11" height="24" fill="rgb(240,150,172)" stroke="rgb(192,120,137)" stroke-width="1" opacity="0.75" />
			</g>
			<g>
				<title>Acyl_transf_1 (PF00698)
"Acyl transferase domain"</title>
				<rect class="PF00698" x="349" y="28" stroke-linejoin="round" width="32" height="24" fill="rgb(59,176,209)" stroke="rgb(47,140,167)" stroke-width="1" opacity="0.75" />
			</g>
			<g>
				<title>PP-binding (PF00550)
"Phosphopantetheine attachment site"</title>
				<polygon class="PF00550" points="410,36 414,40 410,44" stroke-linejoin="round" width="6" height="24" fill="rgb(103,191,88)" stroke="rgb(82,152,70)" stroke-width="1" opacity="0.75" />
			</g>
		</g>
		<g>
			<title> (ctg122_13)</title>
			<polygon class=" (ctg122_13)" points="421,10 445,40 421,70" fill="rgb(255,255,255)" fill-opacity="1.0" stroke="rgb(0,0,0)" stroke-width="2"  />
		</g>
		<g>
			<title> (ctg122_14)</title>
			<polygon class=" (ctg122_14)" points="457,25 485,25 485,10 515,40 485,70 485,55 457,55" fill="rgb(255,255,255)" fill-opacity="1.0" stroke="rgb(0,0,0)" stroke-width="2"  />
			<g>
				<title>KR (PF08659)
"KR domain"</title>
				<rect class="PF08659" x="458" y="28" stroke-linejoin="round" width="22" height="24" fill="rgb(66,209,188)" stroke="rgb(52,167,150)" stroke-width="1" opacity="0.75" />
			</g>
			<g>
				<title>PS-DH (PF14765)
"Polyketide synthase dehydratase"</title>
				<polygon class="PF14765" points="486,28 499,28 511,40 499,52 486,52" stroke-linejoin="round" width="27" height="24" fill="rgb(173,56,182)" stroke="rgb(138,44,145)" stroke-width="1" opacity="0.75" />
			</g>
		</g>
		<g>
			<title> (ctg122_15)</title>
			<polygon class=" (ctg122_15)" points="517,25 653,25 653,10 683,40 653,70 653,55 517,55" fill="rgb(255,255,255)" fill-opacity="1.0" stroke="rgb(0,0,0)" stroke-width="2"  />
			<g>
				<title>FabA (PF07977)
"FabA-like domain"</title>
				<rect class="PF07977" x="628" y="28" stroke-linejoin="round" width="13" height="24" fill="rgb(66,205,188)" stroke="rgb(52,164,150)" stroke-width="1" opacity="0.75" />
			</g>
			<g>
				<title>FabA (PF07977)
"FabA-like domain"</title>
				<polygon class="PF07977" points="668,29 679,40 668,51" stroke-linejoin="round" width="13" height="24" fill="rgb(66,205,188)" stroke="rgb(52,164,150)" stroke-width="1" opacity="0.75" />
			</g>
		</g>
		<g>
			<title> (ctg122_16)</title>
			<polygon class=" (ctg122_16)" points="689,25 711,25 711,10 741,40 711,70 711,55 689,55" fill="rgb(255,255,255)" fill-opacity="1.0" stroke="rgb(0,0,0)" stroke-width="2"  />
			<g>
				<title>PfaD_N (PF18328)
"Fatty acid synthase subunit PfaD N-terminal domain"</title>
				<rect class="PF18328" x="690" y="28" stroke-linejoin="round" width="4" height="24" fill="rgb(143,220,82)" stroke="rgb(114,176,65)" stroke-width="1" opacity="0.75" />
			</g>
			<g>
				<title>NMO (PF03060)
"Nitronate monooxygenase"</title>
				<polygon class="PF03060" points="696,28 725,28 726,29 726,51 725,52 696,52" stroke-linejoin="round" width="30" height="24" fill="rgb(100,193,226)" stroke="rgb(80,154,180)" stroke-width="1" opacity="0.75" />
			</g>
		</g>
		<g>
			<title> (ctg122_17)</title>
			<polygon class=" (ctg122_17)" points="742,25 751,25 751,10 781,40 751,70 751,55 742,55" fill="rgb(255,255,255)" fill-opacity="1.0" stroke="rgb(0,0,0)" stroke-width="2"  />
			<g>
				<title>MFS_1 (PF07690)
"Major Facilitator Superfamily"</title>
				<rect class="PF07690" x="743" y="28" stroke-linejoin="round" width="19" height="24" fill="rgb(193,224,74)" stroke="rgb(154,179,59)" stroke-width="1" opacity="0.75" />
			</g>
			<g>
				<title>MFS_1 (PF07690)
"Major Facilitator Superfamily"</title>
				<polygon class="PF07690" points="762,28 764,28 776,40 764,52 762,52" stroke-linejoin="round" width="18" height="24" fill="rgb(193,224,74)" stroke="rgb(154,179,59)" stroke-width="1" opacity="0.75" />
			</g>
		</g>
		<g>
			<title> (ctg122_18)</title>
			<polygon class=" (ctg122_18)" points="784,10 790,40 784,70" fill="rgb(255,255,255)" fill-opacity="1.0" stroke="rgb(0,0,0)" stroke-width="2"  />
			<g>
				<title>NAD_binding_8 (PF13450)
"NAD(P)-binding Rossmann-like domain"</title>
				<polygon class="PF13450" points="784,28 784,28 787,40 784,52 784,52" stroke-linejoin="round" width="6" height="24" fill="rgb(91,180,227)" stroke="rgb(72,144,181)" stroke-width="1" opacity="0.75" />
			</g>
		</g>
		<g>
			<title> (ctg122_19)</title>
			<polygon class=" (ctg122_19)" points="794,10 818,40 794,70" fill="rgb(255,255,255)" fill-opacity="1.0" stroke="rgb(0,0,0)" stroke-width="2"  />
		</g>
		<g>
			<title> (ctg122_20)</title>
			<polygon class=" (ctg122_20)" points="821,25 823,25 823,10 853,40 823,70 823,55 821,55" fill="rgb(255,255,255)" fill-opacity="1.0" stroke="rgb(0,0,0)" stroke-width="2"  />
		</g>
		<g>
			<title> (ctg122_21)</title>
			<polygon class=" (ctg122_21)" points="861,10 886,40 861,70" fill="rgb(255,255,255)" fill-opacity="1.0" stroke="rgb(0,0,0)" stroke-width="2"  />
		</g>
		<g>
			<title> (ctg122_22)</title>
			<polygon class=" (ctg122_22)" points="905,25 907,25 907,10 937,40 907,70 907,55 905,55" fill="rgb(255,255,255)" fill-opacity="1.0" stroke="rgb(0,0,0)" stroke-width="2"  />
		</g>
		<g>
			<title> (ctg122_23)</title>
			<polygon class=" (ctg122_23)" points="939,25 960,25 960,10 990,40 960,70 960,55 939,55" fill="rgb(255,255,255)" fill-opacity="1.0" stroke="rgb(0,0,0)" stroke-width="2"  />
			<g>
				<title>Biotin_lipoyl_2 (PF13533)
"Biotin-lipoyl like"</title>
				<rect class="PF13533" x="949" y="28" stroke-linejoin="round" width="5" height="24" fill="rgb(229,122,112)" stroke="rgb(183,97,89)" stroke-width="1" opacity="0.75" />
			</g>
			<g>
				<title>HlyD_3 (PF13437)
"HlyD family secretion protein"</title>
				<polygon class="PF13437" points="970,28 974,28 980,34 980,46 974,52 970,52" stroke-linejoin="round" width="10" height="24" fill="rgb(82,200,102)" stroke="rgb(65,160,81)" stroke-width="1" opacity="0.75" />
			</g>
		</g>
	</g>
</svg>
