<svg version="1.1" baseProfile="full" xmlns="http://www.w3.org/2000/svg" width="393.0" height="80">
	<g>
		<line x1="10" y1="40.0" x2="383.0" y2="40.0" style="stroke:rgb(70,70,70); stroke-width:3 "/>
		<g>
			<title> (ctg134_1)</title>
			<polygon class=" (ctg134_1)" points="40,25 40,25 40,10 10,40 40,70 40,55 40,55" fill="rgb(255,255,255)" fill-opacity="1.0" stroke="rgb(0,0,0)" stroke-width="2"  />
			<g>
				<title>FAD_binding_3 (PF01494)
"FAD binding domain"</title>
				<polygon class="PF01494" points="14,40 26,28 34,28 34,52 26,52" stroke-linejoin="round" width="23" height="24" fill="rgb(182,175,59)" stroke="rgb(145,140,47)" stroke-width="1" opacity="0.75" />
			</g>
			<g>
				<title>TubC_N (PF18563)
"TubC N-terminal docking domain"</title>
				<rect class="PF18563" x="35" y="28" stroke-linejoin="round" width="5" height="24" fill="rgb(95,217,77)" stroke="rgb(75,173,61)" stroke-width="1" opacity="0.75" />
			</g>
		</g>
		<g>
			<title> (ctg134_2)</title>
			<polygon class=" (ctg134_2)" points="190,25 78,25 78,10 48,40 78,70 78,55 190,55" fill="rgb(255,255,255)" fill-opacity="1.0" stroke="rgb(0,0,0)" stroke-width="2"  />
			<g>
				<title>PP-binding (PF00550)
"Phosphopantetheine attachment site"</title>
				<polygon class="PF00550" points="52,40 57,35 57,45" stroke-linejoin="round" width="6" height="24" fill="rgb(103,191,88)" stroke="rgb(82,152,70)" stroke-width="1" opacity="0.75" />
			</g>
			<g>
				<title>KR (PF08659)
"KR domain"</title>
				<rect class="PF08659" x="71" y="28" stroke-linejoin="round" width="19" height="24" fill="rgb(66,209,188)" stroke="rgb(52,167,150)" stroke-width="1" opacity="0.75" />
			</g>
			<g>
				<title>AMP-binding (PF00501)
"AMP-binding enzyme"</title>
				<rect class="PF00501" x="127" y="28" stroke-linejoin="round" width="44" height="24" fill="rgb(60,217,223)" stroke="rgb(48,173,178)" stroke-width="1" opacity="0.75" />
			</g>
		</g>
		<g>
			<title> (ctg134_3)</title>
			<polygon class=" (ctg134_3)" points="218,10 244,40 218,70" fill="rgb(255,255,255)" fill-opacity="1.0" stroke="rgb(0,0,0)" stroke-width="2"  />
			<g>
				<title>SWIM (PF04434)
"SWIM zinc finger"</title>
				<polygon class="PF04434" points="228,28 230,28 232,31 232,49 230,52 228,52" stroke-linejoin="round" width="4" height="24" fill="rgb(76,197,68)" stroke="rgb(60,157,54)" stroke-width="1" opacity="0.75" />
			</g>
		</g>
		<g>
			<title> (ctg134_4)</title>
			<polygon class=" (ctg134_4)" points="338,25 281,25 281,10 251,40 281,70 281,55 338,55" fill="rgb(255,255,255)" fill-opacity="1.0" stroke="rgb(0,0,0)" stroke-width="2"  />
			<g>
				<title>Toprim_C_rpt (PF13368)
"Topoisomerase C-terminal repeat"</title>
				<polygon class="PF13368" points="255,40 258,37 258,43" stroke-linejoin="round" width="5" height="24" fill="rgb(146,209,96)" stroke="rgb(116,167,76)" stroke-width="1" opacity="0.75" />
			</g>
			<g>
				<title>Toprim_C_rpt (PF13368)
"Topoisomerase C-terminal repeat"</title>
				<polygon class="PF13368" points="260,35 265,30 265,50 260,45" stroke-linejoin="round" width="5" height="24" fill="rgb(146,209,96)" stroke="rgb(116,167,76)" stroke-width="1" opacity="0.75" />
			</g>
			<g>
				<title>Toprim_C_rpt (PF13368)
"Topoisomerase C-terminal repeat"</title>
				<polygon class="PF13368" points="266,29 267,28 272,28 272,52 267,52 266,51" stroke-linejoin="round" width="6" height="24" fill="rgb(146,209,96)" stroke="rgb(116,167,76)" stroke-width="1" opacity="0.75" />
			</g>
			<g>
				<title>Topoisom_bac (PF01131)
"DNA topoisomerase"</title>
				<rect class="PF01131" x="281" y="28" stroke-linejoin="round" width="43" height="24" fill="rgb(136,196,98)" stroke="rgb(108,156,78)" stroke-width="1" opacity="0.75" />
			</g>
			<g>
				<title>Toprim (PF01751)
"Toprim domain"</title>
				<rect class="PF01751" x="326" y="28" stroke-linejoin="round" width="12" height="24" fill="rgb(95,212,145)" stroke="rgb(76,169,116)" stroke-width="1" opacity="0.75" />
			</g>
		</g>
		<g>
			<title> (ctg134_5)</title>
			<polygon class=" (ctg134_5)" points="348,10 370,40 348,70" fill="rgb(255,255,255)" fill-opacity="1.0" stroke="rgb(0,0,0)" stroke-width="2"  />
			<g>
				<title>DUF938 (PF06080)
"Protein of unknown function (DUF938)"</title>
				<polygon class="PF06080" points="350,28 357,28 366,40 357,52 350,52" stroke-linejoin="round" width="19" height="24" fill="rgb(90,218,195)" stroke="rgb(72,174,156)" stroke-width="1" opacity="0.75" />
			</g>
		</g>
	</g>
</svg>
