<svg version="1.1" baseProfile="full" xmlns="http://www.w3.org/2000/svg" width="1700.5333333333333" height="80">
	<g>
		<line x1="10" y1="40.0" x2="1690.5333333333333" y2="40.0" style="stroke:rgb(70,70,70); stroke-width:3 "/>
		<g>
			<title> (ctg148_1)</title>
			<polygon class=" (ctg148_1)" points="10,40 18,10 18,70" fill="rgb(255,255,255)" fill-opacity="1.0" stroke="rgb(0,0,0)" stroke-width="2"  />
		</g>
		<g>
			<title> (ctg148_2)</title>
			<polygon class=" (ctg148_2)" points="21,40 35,10 35,70" fill="rgb(255,255,255)" fill-opacity="1.0" stroke="rgb(0,0,0)" stroke-width="2"  />
			<g>
				<title>DUF29 (PF01724)
"Domain of unknown function DUF29"</title>
				<polygon class="PF01724" points="24,40 30,28 33,28 33,52 30,52" stroke-linejoin="round" width="12" height="24" fill="rgb(104,61,184)" stroke="rgb(83,48,147)" stroke-width="1" opacity="0.75" />
			</g>
		</g>
		<g>
			<title> (ctg148_3)</title>
			<polygon class=" (ctg148_3)" points="46,40 57,10 57,70" fill="rgb(255,255,255)" fill-opacity="1.0" stroke="rgb(0,0,0)" stroke-width="2"  />
		</g>
		<g>
			<title> (ctg148_4)</title>
			<polygon class=" (ctg148_4)" points="61,10 86,40 61,70" fill="rgb(255,255,255)" fill-opacity="1.0" stroke="rgb(0,0,0)" stroke-width="2"  />
			<g>
				<title>SIMPL (PF04402)
"Protein of unknown function (DUF541)"</title>
				<polygon class="PF04402" points="65,28 72,28 82,40 72,52 65,52" stroke-linejoin="round" width="20" height="24" fill="rgb(88,209,165)" stroke="rgb(70,167,132)" stroke-width="1" opacity="0.75" />
			</g>
		</g>
		<g>
			<title> (ctg148_5)</title>
			<polygon class=" (ctg148_5)" points="94,10 109,40 94,70" fill="rgb(255,255,255)" fill-opacity="1.0" stroke="rgb(0,0,0)" stroke-width="2"  />
			<g>
				<title>HTH_29 (PF13551)
"Winged helix-turn helix"</title>
				<polygon class="PF13551" points="97,28 99,28 103,34 103,46 99,52 97,52" stroke-linejoin="round" width="6" height="24" fill="rgb(163,71,225)" stroke="rgb(130,56,180)" stroke-width="1" opacity="0.75" />
			</g>
		</g>
		<g>
			<title> (ctg148_6)</title>
			<polygon class=" (ctg148_6)" points="107,10 110,40 107,70" fill="rgb(255,255,255)" fill-opacity="1.0" stroke="rgb(0,0,0)" stroke-width="2"  />
		</g>
		<g>
			<title> (ctg148_7)</title>
			<polygon class=" (ctg148_7)" points="179,25 154,25 154,10 124,40 154,70 154,55 179,55" fill="rgb(255,255,255)" fill-opacity="1.0" stroke="rgb(0,0,0)" stroke-width="2"  />
			<g>
				<title>GUN4 (PF05419)
"GUN4-like"</title>
				<polygon class="PF05419" points="128,40 140,28 141,28 141,52 140,52 128,40" stroke-linejoin="round" width="13" height="24" fill="rgb(207,86,195)" stroke="rgb(165,68,156)" stroke-width="1" opacity="0.75" />
			</g>
		</g>
		<g>
			<title> (ctg148_8)</title>
			<polygon class=" (ctg148_8)" points="183,40 199,10 199,70" fill="rgb(255,255,255)" fill-opacity="1.0" stroke="rgb(0,0,0)" stroke-width="2"  />
		</g>
		<g>
			<title> (ctg148_9)</title>
			<polygon class=" (ctg148_9)" points="269,25 232,25 232,10 202,40 232,70 232,55 269,55" fill="rgb(255,255,255)" fill-opacity="1.0" stroke="rgb(0,0,0)" stroke-width="2"  />
			<g>
				<title>DUF2235 (PF09994)
"Uncharacterized alpha/beta hydrolase domain (DUF2235)"</title>
				<polygon class="PF09994" points="210,36 218,28 237,28 237,52 218,52 210,44" stroke-linejoin="round" width="27" height="24" fill="rgb(67,224,147)" stroke="rgb(53,179,117)" stroke-width="1" opacity="0.75" />
			</g>
			<g>
				<title>Laminin_G_3 (PF13385)
"Concanavalin A-like lectin/glucanases superfamily"</title>
				<rect class="PF13385" x="252" y="28" stroke-linejoin="round" width="16" height="24" fill="rgb(93,162,213)" stroke="rgb(74,129,170)" stroke-width="1" opacity="0.75" />
			</g>
		</g>
		<g>
			<title> (ctg148_10)</title>
			<polygon class=" (ctg148_10)" points="323,25 313,25 313,10 283,40 313,70 313,55 323,55" fill="rgb(255,255,255)" fill-opacity="1.0" stroke="rgb(0,0,0)" stroke-width="2"  />
			<g>
				<title>DUF6014 (PF19477)
"Family of unknown function (DUF6014)"</title>
				<polygon class="PF19477" points="287,40 299,28 321,28 321,52 299,52" stroke-linejoin="round" width="38" height="24" fill="rgb(198,112,85)" stroke="rgb(158,89,68)" stroke-width="1" opacity="0.75" />
			</g>
		</g>
		<g>
			<title> (ctg148_11)</title>
			<polygon class=" (ctg148_11)" points="393,25 354,25 354,10 324,40 354,70 354,55 393,55" fill="rgb(255,255,255)" fill-opacity="1.0" stroke="rgb(0,0,0)" stroke-width="2"  />
			<g>
				<title>ABC_tran (PF00005)
"ABC transporter"</title>
				<polygon class="PF00005" points="340,28 340,28 353,28 353,52 340,52 340,52" stroke-linejoin="round" width="13" height="24" fill="rgb(129,201,63)" stroke="rgb(103,160,50)" stroke-width="1" opacity="0.75" />
			</g>
			<g>
				<title>ABC_membrane_2 (PF06472)
"ABC transporter transmembrane region 2"</title>
				<rect class="PF06472" x="362" y="28" stroke-linejoin="round" width="25" height="24" fill="rgb(120,179,45)" stroke="rgb(96,143,36)" stroke-width="1" opacity="0.75" />
			</g>
		</g>
		<g>
			<title> (ctg148_12)</title>
			<polygon class=" (ctg148_12)" points="395,10 399,40 395,70" fill="rgb(255,255,255)" fill-opacity="1.0" stroke="rgb(0,0,0)" stroke-width="2"  />
		</g>
		<g>
			<title> (ctg148_13)</title>
			<polygon class=" (ctg148_13)" points="409,10 430,40 409,70" fill="rgb(255,255,255)" fill-opacity="1.0" stroke="rgb(0,0,0)" stroke-width="2"  />
			<g>
				<title>Sulfotransfer_2 (PF03567)
"Sulfotransferase family"</title>
				<polygon class="PF03567" points="412,28 418,28 427,40 418,52 412,52" stroke-linejoin="round" width="18" height="24" fill="rgb(192,80,119)" stroke="rgb(153,64,95)" stroke-width="1" opacity="0.75" />
			</g>
		</g>
		<g>
			<title> (ctg148_14)</title>
			<polygon class=" (ctg148_14)" points="434,25 615,25 615,10 645,40 615,70 615,55 434,55" fill="rgb(255,255,255)" fill-opacity="1.0" stroke="rgb(0,0,0)" stroke-width="2"  />
			<g>
				<title>PP-binding (PF00550)
"Phosphopantetheine attachment site"</title>
				<rect class="PF00550" x="494" y="28" stroke-linejoin="round" width="6" height="24" fill="rgb(103,191,88)" stroke="rgb(82,152,70)" stroke-width="1" opacity="0.75" />
			</g>
			<g>
				<title>Sulfotransfer_3 (PF13469)
"Sulfotransferase family"</title>
				<rect class="PF13469" x="506" y="28" stroke-linejoin="round" width="21" height="24" fill="rgb(59,182,84)" stroke="rgb(47,145,67)" stroke-width="1" opacity="0.75" />
			</g>
			<g>
				<title>Condensation (PF00668)
"Condensation domain"</title>
				<rect class="PF00668" x="536" y="28" stroke-linejoin="round" width="45" height="24" fill="rgb(224,184,98)" stroke="rgb(179,147,78)" stroke-width="1" opacity="0.75" />
			</g>
			<g>
				<title>AMP-binding (PF00501)
"AMP-binding enzyme"</title>
				<rect class="PF00501" x="584" y="28" stroke-linejoin="round" width="42" height="24" fill="rgb(60,217,223)" stroke="rgb(48,173,178)" stroke-width="1" opacity="0.75" />
			</g>
			<g>
				<title>AMP-binding_C (PF13193)
"AMP-binding enzyme C-terminal domain"</title>
				<polygon class="PF13193" points="626,28 629,28 633,32 633,48 629,52 626,52" stroke-linejoin="round" width="7" height="24" fill="rgb(182,50,118)" stroke="rgb(145,39,94)" stroke-width="1" opacity="0.75" />
			</g>
			<g>
				<title>PP-binding (PF00550)
"Phosphopantetheine attachment site"</title>
				<polygon class="PF00550" points="637,36 641,40 637,44" stroke-linejoin="round" width="6" height="24" fill="rgb(103,191,88)" stroke="rgb(82,152,70)" stroke-width="1" opacity="0.75" />
			</g>
		</g>
		<g>
			<title> (ctg148_15)</title>
			<polygon class=" (ctg148_15)" points="645,25 1124,25 1124,10 1154,40 1124,70 1124,55 645,55" fill="rgb(255,255,255)" fill-opacity="1.0" stroke="rgb(0,0,0)" stroke-width="2"  />
			<g>
				<title>Condensation (PF00668)
"Condensation domain"</title>
				<rect class="PF00668" x="645" y="28" stroke-linejoin="round" width="44" height="24" fill="rgb(224,184,98)" stroke="rgb(179,147,78)" stroke-width="1" opacity="0.75" />
			</g>
			<g>
				<title>AMP-binding (PF00501)
"AMP-binding enzyme"</title>
				<rect class="PF00501" x="692" y="28" stroke-linejoin="round" width="41" height="24" fill="rgb(60,217,223)" stroke="rgb(48,173,178)" stroke-width="1" opacity="0.75" />
			</g>
			<g>
				<title>AMP-binding_C (PF13193)
"AMP-binding enzyme C-terminal domain"</title>
				<rect class="PF13193" x="734" y="28" stroke-linejoin="round" width="8" height="24" fill="rgb(182,50,118)" stroke="rgb(145,39,94)" stroke-width="1" opacity="0.75" />
			</g>
			<g>
				<title>PP-binding (PF00550)
"Phosphopantetheine attachment site"</title>
				<rect class="PF00550" x="745" y="28" stroke-linejoin="round" width="6" height="24" fill="rgb(103,191,88)" stroke="rgb(82,152,70)" stroke-width="1" opacity="0.75" />
			</g>
			<g>
				<title>Condensation (PF00668)
"Condensation domain"</title>
				<rect class="PF00668" x="753" y="28" stroke-linejoin="round" width="44" height="24" fill="rgb(224,184,98)" stroke="rgb(179,147,78)" stroke-width="1" opacity="0.75" />
			</g>
			<g>
				<title>AMP-binding (PF00501)
"AMP-binding enzyme"</title>
				<rect class="PF00501" x="800" y="28" stroke-linejoin="round" width="40" height="24" fill="rgb(60,217,223)" stroke="rgb(48,173,178)" stroke-width="1" opacity="0.75" />
			</g>
			<g>
				<title>AMP-binding_C (PF13193)
"AMP-binding enzyme C-terminal domain"</title>
				<rect class="PF13193" x="842" y="28" stroke-linejoin="round" width="7" height="24" fill="rgb(182,50,118)" stroke="rgb(145,39,94)" stroke-width="1" opacity="0.75" />
			</g>
			<g>
				<title>PP-binding (PF00550)
"Phosphopantetheine attachment site"</title>
				<rect class="PF00550" x="852" y="28" stroke-linejoin="round" width="6" height="24" fill="rgb(103,191,88)" stroke="rgb(82,152,70)" stroke-width="1" opacity="0.75" />
			</g>
			<g>
				<title>Condensation (PF00668)
"Condensation domain"</title>
				<rect class="PF00668" x="860" y="28" stroke-linejoin="round" width="44" height="24" fill="rgb(224,184,98)" stroke="rgb(179,147,78)" stroke-width="1" opacity="0.75" />
			</g>
			<g>
				<title>AMP-binding (PF00501)
"AMP-binding enzyme"</title>
				<rect class="PF00501" x="907" y="28" stroke-linejoin="round" width="41" height="24" fill="rgb(60,217,223)" stroke="rgb(48,173,178)" stroke-width="1" opacity="0.75" />
			</g>
			<g>
				<title>PRMT5 (PF05185)
"PRMT5 arginine-N-methyltransferase"</title>
				<rect class="PF05185" x="954" y="28" stroke-linejoin="round" width="16" height="24" fill="rgb(130,195,89)" stroke="rgb(104,156,71)" stroke-width="1" opacity="0.75" />
			</g>
			<g>
				<title>PP-binding (PF00550)
"Phosphopantetheine attachment site"</title>
				<rect class="PF00550" x="997" y="28" stroke-linejoin="round" width="6" height="24" fill="rgb(103,191,88)" stroke="rgb(82,152,70)" stroke-width="1" opacity="0.75" />
			</g>
			<g>
				<title>Condensation (PF00668)
"Condensation domain"</title>
				<rect class="PF00668" x="1005" y="28" stroke-linejoin="round" width="44" height="24" fill="rgb(224,184,98)" stroke="rgb(179,147,78)" stroke-width="1" opacity="0.75" />
			</g>
			<g>
				<title>AMP-binding (PF00501)
"AMP-binding enzyme"</title>
				<rect class="PF00501" x="1052" y="28" stroke-linejoin="round" width="39" height="24" fill="rgb(60,217,223)" stroke="rgb(48,173,178)" stroke-width="1" opacity="0.75" />
			</g>
			<g>
				<title>Methyltransf_12 (PF08242)
"Methyltransferase domain"</title>
				<rect class="PF08242" x="1104" y="28" stroke-linejoin="round" width="10" height="24" fill="rgb(187,59,115)" stroke="rgb(149,47,92)" stroke-width="1" opacity="0.75" />
			</g>
			<g>
				<title>PP-binding (PF00550)
"Phosphopantetheine attachment site"</title>
				<polygon class="PF00550" points="1146,36 1150,40 1146,44" stroke-linejoin="round" width="6" height="24" fill="rgb(103,191,88)" stroke="rgb(82,152,70)" stroke-width="1" opacity="0.75" />
			</g>
		</g>
		<g>
			<title> (ctg148_16)</title>
			<polygon class=" (ctg148_16)" points="1155,25 1189,25 1189,10 1219,40 1189,70 1189,55 1155,55" fill="rgb(255,255,255)" fill-opacity="1.0" stroke="rgb(0,0,0)" stroke-width="2"  />
			<g>
				<title>TubC_N (PF18563)
"TubC N-terminal docking domain"</title>
				<rect class="PF18563" x="1156" y="28" stroke-linejoin="round" width="5" height="24" fill="rgb(95,217,77)" stroke="rgb(75,173,61)" stroke-width="1" opacity="0.75" />
			</g>
			<g>
				<title>FAD_binding_3 (PF01494)
"FAD binding domain"</title>
				<rect class="PF01494" x="1163" y="28" stroke-linejoin="round" width="27" height="24" fill="rgb(182,175,59)" stroke="rgb(145,140,47)" stroke-width="1" opacity="0.75" />
			</g>
		</g>
		<g>
			<title> (ctg148_17)</title>
			<polygon class=" (ctg148_17)" points="1219,10 1232,40 1219,70" fill="rgb(255,255,255)" fill-opacity="1.0" stroke="rgb(0,0,0)" stroke-width="2"  />
			<g>
				<title>SnoaL (PF07366)
"SnoaL-like polyketide cyclase"</title>
				<polygon class="PF07366" points="1221,28 1223,28 1229,40 1223,52 1221,52" stroke-linejoin="round" width="10" height="24" fill="rgb(206,89,111)" stroke="rgb(164,71,88)" stroke-width="1" opacity="0.75" />
			</g>
		</g>
		<g>
			<title> (ctg148_18)</title>
			<polygon class=" (ctg148_18)" points="1235,25 1345,25 1345,10 1375,40 1345,70 1345,55 1235,55" fill="rgb(255,255,255)" fill-opacity="1.0" stroke="rgb(0,0,0)" stroke-width="2"  />
			<g>
				<title>TubC_N (PF18563)
"TubC N-terminal docking domain"</title>
				<rect class="PF18563" x="1235" y="28" stroke-linejoin="round" width="5" height="24" fill="rgb(95,217,77)" stroke="rgb(75,173,61)" stroke-width="1" opacity="0.75" />
			</g>
			<g>
				<title>Condensation (PF00668)
"Condensation domain"</title>
				<rect class="PF00668" x="1242" y="28" stroke-linejoin="round" width="44" height="24" fill="rgb(224,184,98)" stroke="rgb(179,147,78)" stroke-width="1" opacity="0.75" />
			</g>
			<g>
				<title>AMP-binding (PF00501)
"AMP-binding enzyme"</title>
				<rect class="PF00501" x="1289" y="28" stroke-linejoin="round" width="39" height="24" fill="rgb(60,217,223)" stroke="rgb(48,173,178)" stroke-width="1" opacity="0.75" />
			</g>
			<g>
				<title>AMP-binding_C (PF13193)
"AMP-binding enzyme C-terminal domain"</title>
				<rect class="PF13193" x="1329" y="28" stroke-linejoin="round" width="7" height="24" fill="rgb(182,50,118)" stroke="rgb(145,39,94)" stroke-width="1" opacity="0.75" />
			</g>
			<g>
				<title>PP-binding (PF00550)
"Phosphopantetheine attachment site"</title>
				<rect class="PF00550" x="1339" y="28" stroke-linejoin="round" width="6" height="24" fill="rgb(103,191,88)" stroke="rgb(82,152,70)" stroke-width="1" opacity="0.75" />
			</g>
			<g>
				<title>Thioesterase (PF00975)
"Thioesterase domain"</title>
				<polygon class="PF00975" points="1348,28 1359,28 1371,40 1359,52 1348,52" stroke-linejoin="round" width="26" height="24" fill="rgb(207,80,138)" stroke="rgb(165,63,110)" stroke-width="1" opacity="0.75" />
			</g>
		</g>
		<g>
			<title> (ctg148_19)</title>
			<polygon class=" (ctg148_19)" points="1393,10 1409,40 1393,70" fill="rgb(255,255,255)" fill-opacity="1.0" stroke="rgb(0,0,0)" stroke-width="2"  />
		</g>
		<g>
			<title> (ctg148_20)</title>
			<polygon class=" (ctg148_20)" points="1414,40 1419,10 1419,70" fill="rgb(255,255,255)" fill-opacity="1.0" stroke="rgb(0,0,0)" stroke-width="2"  />
			<g>
				<title>Inhibitor_I10 (PF12559)
"Serine endopeptidase inhibitors"</title>
				<polygon class="PF12559" points="1417,40 1419,28 1419,28 1419,52 1419,52" stroke-linejoin="round" width="5" height="24" fill="rgb(179,147,51)" stroke="rgb(143,117,40)" stroke-width="1" opacity="0.75" />
			</g>
		</g>
		<g>
			<title> (ctg148_21)</title>
			<polygon class=" (ctg148_21)" points="1436,10 1462,40 1436,70" fill="rgb(255,255,255)" fill-opacity="1.0" stroke="rgb(0,0,0)" stroke-width="2"  />
			<g>
				<title>Methyltransf_11 (PF08241)
"Methyltransferase domain"</title>
				<polygon class="PF08241" points="1442,28 1448,28 1451,32 1451,48 1448,52 1442,52" stroke-linejoin="round" width="9" height="24" fill="rgb(106,219,159)" stroke="rgb(84,175,127)" stroke-width="1" opacity="0.75" />
			</g>
		</g>
		<g>
			<title> (ctg148_22)</title>
			<polygon class=" (ctg148_22)" points="1463,10 1487,40 1463,70" fill="rgb(255,255,255)" fill-opacity="1.0" stroke="rgb(0,0,0)" stroke-width="2"  />
			<g>
				<title>adh_short_C2 (PF13561)
"Enoyl-(Acyl carrier protein) reductase"</title>
				<polygon class="PF13561" points="1464,28 1474,28 1483,40 1474,52 1464,52" stroke-linejoin="round" width="22" height="24" fill="rgb(73,205,127)" stroke="rgb(58,164,101)" stroke-width="1" opacity="0.75" />
			</g>
		</g>
		<g>
			<title> (ctg148_23)</title>
			<polygon class=" (ctg148_23)" points="1497,25 1498,25 1498,10 1528,40 1498,70 1498,55 1497,55" fill="rgb(255,255,255)" fill-opacity="1.0" stroke="rgb(0,0,0)" stroke-width="2"  />
			<g>
				<title>HNH_2 (PF13391)
"HNH endonuclease"</title>
				<polygon class="PF13391" points="1517,33 1522,38 1522,42 1517,47" stroke-linejoin="round" width="5" height="24" fill="rgb(150,101,220)" stroke="rgb(120,80,176)" stroke-width="1" opacity="0.75" />
			</g>
		</g>
		<g>
			<title> (ctg148_24)</title>
			<polygon class=" (ctg148_24)" points="1529,25 1554,25 1554,10 1584,40 1554,70 1554,55 1529,55" fill="rgb(255,255,255)" fill-opacity="1.0" stroke="rgb(0,0,0)" stroke-width="2"  />
			<g>
				<title>PAPS_reduct (PF01507)
"Phosphoadenosine phosphosulfate reductase family"</title>
				<rect class="PF01507" x="1533" y="28" stroke-linejoin="round" width="24" height="24" fill="rgb(87,190,105)" stroke="rgb(69,152,83)" stroke-width="1" opacity="0.75" />
			</g>
		</g>
		<g>
			<title> (ctg148_25)</title>
			<polygon class=" (ctg148_25)" points="1586,10 1609,40 1586,70" fill="rgb(255,255,255)" fill-opacity="1.0" stroke="rgb(0,0,0)" stroke-width="2"  />
			<g>
				<title>Peptidase_M15 (PF01427)
"D-ala-D-ala dipeptidase"</title>
				<polygon class="PF01427" points="1588,28 1596,28 1605,40 1596,52 1588,52" stroke-linejoin="round" width="20" height="24" fill="rgb(224,66,206)" stroke="rgb(179,52,164)" stroke-width="1" opacity="0.75" />
			</g>
		</g>
		<g>
			<title> (ctg148_26)</title>
			<polygon class=" (ctg148_26)" points="1612,40 1625,10 1625,70" fill="rgb(255,255,255)" fill-opacity="1.0" stroke="rgb(0,0,0)" stroke-width="2"  />
			<g>
				<title>Response_reg (PF00072)
"Response regulator receiver domain"</title>
				<polygon class="PF00072" points="1615,40 1620,28 1624,28 1624,52 1620,52" stroke-linejoin="round" width="12" height="24" fill="rgb(100,107,203)" stroke="rgb(80,85,162)" stroke-width="1" opacity="0.75" />
			</g>
		</g>
		<g>
			<title> (ctg148_27)</title>
			<polygon class=" (ctg148_27)" points="1628,25 1657,25 1657,10 1687,40 1657,70 1657,55 1628,55" fill="rgb(255,255,255)" fill-opacity="1.0" stroke="rgb(0,0,0)" stroke-width="2"  />
			<g>
				<title>DNA_topoisoIV (PF00521)
"DNA gyrase/topoisomerase IV, subunit A"</title>
				<polygon class="PF00521" points="1631,28 1671,28 1675,32 1675,48 1671,52 1631,52" stroke-linejoin="round" width="44" height="24" fill="rgb(196,204,77)" stroke="rgb(156,163,61)" stroke-width="1" opacity="0.75" />
			</g>
		</g>
	</g>
</svg>
