<svg version="1.1" baseProfile="full" xmlns="http://www.w3.org/2000/svg" width="958.8666666666667" height="80">
	<g>
		<line x1="10" y1="40.0" x2="948.8666666666667" y2="40.0" style="stroke:rgb(70,70,70); stroke-width:3 "/>
		<g>
			<title> (ctg351_1)</title>
			<polygon class=" (ctg351_1)" points="18,10 21,40 18,70" fill="rgb(255,255,255)" fill-opacity="1.0" stroke="rgb(0,0,0)" stroke-width="2"  />
		</g>
		<g>
			<title> (ctg351_2)</title>
			<polygon class=" (ctg351_2)" points="28,10 56,40 28,70" fill="rgb(255,255,255)" fill-opacity="1.0" stroke="rgb(0,0,0)" stroke-width="2"  />
			<g>
				<title>Trypsin_2 (PF13365)
"Trypsin-like peptidase domain"</title>
				<polygon class="PF13365" points="40,28 40,28 52,40 40,52 40,52" stroke-linejoin="round" width="15" height="24" fill="rgb(126,86,188)" stroke="rgb(100,68,150)" stroke-width="1" opacity="0.75" />
			</g>
		</g>
		<g>
			<title> (ctg351_3)</title>
			<polygon class=" (ctg351_3)" points="60,10 70,40 60,70" fill="rgb(255,255,255)" fill-opacity="1.0" stroke="rgb(0,0,0)" stroke-width="2"  />
		</g>
		<g>
			<title> (ctg351_4)</title>
			<polygon class=" (ctg351_4)" points="70,25 82,25 82,10 112,40 82,70 82,55 70,55" fill="rgb(255,255,255)" fill-opacity="1.0" stroke="rgb(0,0,0)" stroke-width="2"  />
			<g>
				<title>ABC1 (PF03109)
"ABC1 atypical kinase-like domain"</title>
				<polygon class="PF03109" points="78,28 95,28 102,35 102,45 95,52 78,52" stroke-linejoin="round" width="24" height="24" fill="rgb(197,149,67)" stroke="rgb(157,119,53)" stroke-width="1" opacity="0.75" />
			</g>
		</g>
		<g>
			<title> (ctg351_5)</title>
			<polygon class=" (ctg351_5)" points="108,40 119,10 119,70" fill="rgb(255,255,255)" fill-opacity="1.0" stroke="rgb(0,0,0)" stroke-width="2"  />
		</g>
		<g>
			<title> (ctg351_6)</title>
			<polygon class=" (ctg351_6)" points="167,25 151,25 151,10 121,40 151,70 151,55 167,55" fill="rgb(255,255,255)" fill-opacity="1.0" stroke="rgb(0,0,0)" stroke-width="2"  />
			<g>
				<title>p450 (PF00067)
"Cytochrome P450"</title>
				<polygon class="PF00067" points="125,40 137,28 166,28 166,52 137,52" stroke-linejoin="round" width="43" height="24" fill="rgb(85,216,107)" stroke="rgb(68,172,85)" stroke-width="1" opacity="0.75" />
			</g>
		</g>
		<g>
			<title> (ctg351_7)</title>
			<polygon class=" (ctg351_7)" points="232,25 198,25 198,10 168,40 198,70 198,55 232,55" fill="rgb(255,255,255)" fill-opacity="1.0" stroke="rgb(0,0,0)" stroke-width="2"  />
			<g>
				<title>DUF4440 (PF14534)
"Domain of unknown function (DUF4440)"</title>
				<polygon class="PF14534" points="172,40 179,33 179,47" stroke-linejoin="round" width="10" height="24" fill="rgb(63,159,224)" stroke="rgb(50,127,179)" stroke-width="1" opacity="0.75" />
			</g>
			<g>
				<title>Peptidase_S8 (PF00082)
"Subtilase family"</title>
				<rect class="PF00082" x="185" y="28" stroke-linejoin="round" width="29" height="24" fill="rgb(193,159,94)" stroke="rgb(154,127,75)" stroke-width="1" opacity="0.75" />
			</g>
		</g>
		<g>
			<title> (ctg351_8)</title>
			<polygon class=" (ctg351_8)" points="233,40 243,10 243,70" fill="rgb(255,255,255)" fill-opacity="1.0" stroke="rgb(0,0,0)" stroke-width="2"  />
		</g>
		<g>
			<title> (ctg351_9)</title>
			<polygon class=" (ctg351_9)" points="248,40 277,10 277,70" fill="rgb(255,255,255)" fill-opacity="1.0" stroke="rgb(0,0,0)" stroke-width="2"  />
			<g>
				<title>Epimerase (PF01370)
"NAD dependent epimerase/dehydratase family"</title>
				<polygon class="PF01370" points="256,36 264,28 277,28 277,52 264,52 256,44" stroke-linejoin="round" width="21" height="24" fill="rgb(98,102,214)" stroke="rgb(78,81,171)" stroke-width="1" opacity="0.75" />
			</g>
		</g>
		<g>
			<title> (ctg351_10)</title>
			<polygon class=" (ctg351_10)" points="279,40 308,10 308,70" fill="rgb(255,255,255)" fill-opacity="1.0" stroke="rgb(0,0,0)" stroke-width="2"  />
			<g>
				<title>AHSA1 (PF08327)
"Activator of Hsp90 ATPase homolog 1-like protein"</title>
				<polygon class="PF08327" points="294,29 295,28 305,28 305,52 295,52 294,51" stroke-linejoin="round" width="11" height="24" fill="rgb(81,199,171)" stroke="rgb(64,159,136)" stroke-width="1" opacity="0.75" />
			</g>
		</g>
		<g>
			<title> (ctg351_11)</title>
			<polygon class=" (ctg351_11)" points="343,25 339,25 339,10 309,40 339,70 339,55 343,55" fill="rgb(255,255,255)" fill-opacity="1.0" stroke="rgb(0,0,0)" stroke-width="2"  />
			<g>
				<title>AHSA1 (PF08327)
"Activator of Hsp90 ATPase homolog 1-like protein"</title>
				<polygon class="PF08327" points="325,28 325,28 336,28 336,52 325,52 325,52" stroke-linejoin="round" width="11" height="24" fill="rgb(81,199,171)" stroke="rgb(64,159,136)" stroke-width="1" opacity="0.75" />
			</g>
		</g>
		<g>
			<title> (ctg351_12)</title>
			<polygon class=" (ctg351_12)" points="345,40 367,10 367,70" fill="rgb(255,255,255)" fill-opacity="1.0" stroke="rgb(0,0,0)" stroke-width="2"  />
			<g>
				<title>SnoaL (PF07366)
"SnoaL-like polyketide cyclase"</title>
				<polygon class="PF07366" points="350,39 358,28 363,28 363,52 358,52 350,41" stroke-linejoin="round" width="13" height="24" fill="rgb(206,89,111)" stroke="rgb(164,71,88)" stroke-width="1" opacity="0.75" />
			</g>
		</g>
		<g>
			<title> (ctg351_13)</title>
			<polygon class=" (ctg351_13)" points="384,10 408,40 384,70" fill="rgb(255,255,255)" fill-opacity="1.0" stroke="rgb(0,0,0)" stroke-width="2"  />
			<g>
				<title>DUF6073 (PF19550)
"Family of unknown function (DUF6073)"</title>
				<polygon class="PF19550" points="384,28 395,28 404,40 395,52 384,52" stroke-linejoin="round" width="22" height="24" fill="rgb(222,114,99)" stroke="rgb(177,91,79)" stroke-width="1" opacity="0.75" />
			</g>
		</g>
		<g>
			<title> (ctg351_14)</title>
			<polygon class=" (ctg351_14)" points="409,25 421,25 421,10 451,40 421,70 421,55 409,55" fill="rgb(255,255,255)" fill-opacity="1.0" stroke="rgb(0,0,0)" stroke-width="2"  />
			<g>
				<title>HEAT_2 (PF13646)
"HEAT repeats"</title>
				<rect class="PF13646" x="416" y="28" stroke-linejoin="round" width="9" height="24" fill="rgb(161,180,58)" stroke="rgb(128,144,46)" stroke-width="1" opacity="0.75" />
			</g>
		</g>
		<g>
			<title> (ctg351_15)</title>
			<polygon class=" (ctg351_15)" points="467,10 484,40 467,70" fill="rgb(255,255,255)" fill-opacity="1.0" stroke="rgb(0,0,0)" stroke-width="2"  />
			<g>
				<title>Glyoxalase (PF00903)
"Glyoxalase/Bleomycin resistance protein/Dioxygenase superfamily"</title>
				<polygon class="PF00903" points="471,28 473,28 481,40 473,52 471,52" stroke-linejoin="round" width="12" height="24" fill="rgb(50,162,189)" stroke="rgb(40,129,151)" stroke-width="1" opacity="0.75" />
			</g>
		</g>
		<g>
			<title> (ctg351_16)</title>
			<polygon class=" (ctg351_16)" points="496,25 499,25 499,10 529,40 499,70 499,55 496,55" fill="rgb(255,255,255)" fill-opacity="1.0" stroke="rgb(0,0,0)" stroke-width="2"  />
			<g>
				<title>Exo_endo_phos (PF03372)
"Endonuclease/Exonuclease/phosphatase family"</title>
				<polygon class="PF03372" points="496,28 512,28 524,40 512,52 496,52" stroke-linejoin="round" width="31" height="24" fill="rgb(76,66,180)" stroke="rgb(60,52,144)" stroke-width="1" opacity="0.75" />
			</g>
		</g>
		<g>
			<title> (ctg351_17)</title>
			<polygon class=" (ctg351_17)" points="531,40 558,10 558,70" fill="rgb(255,255,255)" fill-opacity="1.0" stroke="rgb(0,0,0)" stroke-width="2"  />
			<g>
				<title>HTH_18 (PF12833)
"Helix-turn-helix domain"</title>
				<polygon class="PF12833" points="546,28 546,28 553,28 553,52 546,52 546,52" stroke-linejoin="round" width="7" height="24" fill="rgb(216,58,224)" stroke="rgb(172,46,179)" stroke-width="1" opacity="0.75" />
			</g>
		</g>
		<g>
			<title> (ctg351_18)</title>
			<polygon class=" (ctg351_18)" points="561,40 575,10 575,70" fill="rgb(255,255,255)" fill-opacity="1.0" stroke="rgb(0,0,0)" stroke-width="2"  />
			<g>
				<title>4HBT_2 (PF13279)
"Thioesterase-like superfamily"</title>
				<polygon class="PF13279" points="564,40 570,28 573,28 573,52 570,52" stroke-linejoin="round" width="12" height="24" fill="rgb(213,114,82)" stroke="rgb(170,91,65)" stroke-width="1" opacity="0.75" />
			</g>
		</g>
		<g>
			<title> (ctg351_19)</title>
			<polygon class=" (ctg351_19)" points="577,40 597,10 597,70" fill="rgb(255,255,255)" fill-opacity="1.0" stroke="rgb(0,0,0)" stroke-width="2"  />
		</g>
		<g>
			<title> (ctg351_20)</title>
			<polygon class=" (ctg351_20)" points="800,25 629,25 629,10 599,40 629,70 629,55 800,55" fill="rgb(255,255,255)" fill-opacity="1.0" stroke="rgb(0,0,0)" stroke-width="2"  />
			<g>
				<title>PS-DH (PF14765)
"Polyketide synthase dehydratase"</title>
				<rect class="PF14765" x="618" y="28" stroke-linejoin="round" width="30" height="24" fill="rgb(173,56,182)" stroke="rgb(138,44,145)" stroke-width="1" opacity="0.75" />
			</g>
			<g>
				<title>KR (PF08659)
"KR domain"</title>
				<rect class="PF08659" x="656" y="28" stroke-linejoin="round" width="18" height="24" fill="rgb(66,209,188)" stroke="rgb(52,167,150)" stroke-width="1" opacity="0.75" />
			</g>
			<g>
				<title>Acyl_transf_1 (PF00698)
"Acyl transferase domain"</title>
				<rect class="PF00698" x="714" y="28" stroke-linejoin="round" width="29" height="24" fill="rgb(59,176,209)" stroke="rgb(47,140,167)" stroke-width="1" opacity="0.75" />
			</g>
			<g>
				<title>Ketoacyl-synt_C (PF02801)
"Beta-ketoacyl synthase, C-terminal domain"</title>
				<rect class="PF02801" x="757" y="28" stroke-linejoin="round" width="11" height="24" fill="rgb(215,78,102)" stroke="rgb(172,62,81)" stroke-width="1" opacity="0.75" />
			</g>
			<g>
				<title>ketoacyl-synt (PF00109)
"Beta-ketoacyl synthase, N-terminal domain"</title>
				<rect class="PF00109" x="770" y="28" stroke-linejoin="round" width="28" height="24" fill="rgb(112,116,228)" stroke="rgb(89,92,182)" stroke-width="1" opacity="0.75" />
			</g>
		</g>
		<g>
			<title> (ctg351_21)</title>
			<polygon class=" (ctg351_21)" points="834,25 831,25 831,10 801,40 831,70 831,55 834,55" fill="rgb(255,255,255)" fill-opacity="1.0" stroke="rgb(0,0,0)" stroke-width="2"  />
		</g>
		<g>
			<title> (ctg351_22)</title>
			<polygon class=" (ctg351_22)" points="902,25 866,25 866,10 836,40 866,70 866,55 902,55" fill="rgb(255,255,255)" fill-opacity="1.0" stroke="rgb(0,0,0)" stroke-width="2"  />
			<g>
				<title>UnbV_ASPIC (PF07593)
"ASPIC and UnbV"</title>
				<polygon class="PF07593" points="840,40 843,37 843,43" stroke-linejoin="round" width="6" height="24" fill="rgb(157,212,86)" stroke="rgb(125,169,68)" stroke-width="1" opacity="0.75" />
			</g>
			<g>
				<title>FG-GAP (PF01839)
"FG-GAP repeat"</title>
				<polygon class="PF01839" points="847,33 850,30 850,50 847,47" stroke-linejoin="round" width="3" height="24" fill="rgb(84,217,101)" stroke="rgb(67,173,80)" stroke-width="1" opacity="0.75" />
			</g>
			<g>
				<title>FG-GAP_3 (PF13517)
"FG-GAP-like repeat"</title>
				<rect class="PF13517" x="865" y="28" stroke-linejoin="round" width="7" height="24" fill="rgb(77,199,76)" stroke="rgb(61,159,60)" stroke-width="1" opacity="0.75" />
			</g>
			<g>
				<title>FG-GAP_3 (PF13517)
"FG-GAP-like repeat"</title>
				<rect class="PF13517" x="880" y="28" stroke-linejoin="round" width="7" height="24" fill="rgb(77,199,76)" stroke="rgb(61,159,60)" stroke-width="1" opacity="0.75" />
			</g>
		</g>
		<g>
			<title> (ctg351_23)</title>
			<polygon class=" (ctg351_23)" points="902,40 928,10 928,70" fill="rgb(255,255,255)" fill-opacity="1.0" stroke="rgb(0,0,0)" stroke-width="2"  />
			<g>
				<title>DUF1702 (PF08012)
"Protein of unknown function (DUF1702)"</title>
				<polygon class="PF08012" points="906,40 917,28 927,28 927,52 917,52" stroke-linejoin="round" width="25" height="24" fill="rgb(177,49,186)" stroke="rgb(141,39,148)" stroke-width="1" opacity="0.75" />
			</g>
		</g>
	</g>
</svg>
