<svg version="1.1" baseProfile="full" xmlns="http://www.w3.org/2000/svg" width="763.2666666666667" height="80">
	<g>
		<line x1="10" y1="40.0" x2="753.2666666666667" y2="40.0" style="stroke:rgb(70,70,70); stroke-width:3 "/>
		<g>
			<title> (ctg4_2)</title>
			<polygon class=" (ctg4_2)" points="135,25 132,25 132,10 102,40 132,70 132,55 135,55" fill="rgb(255,255,255)" fill-opacity="1.0" stroke="rgb(0,0,0)" stroke-width="2"  />
		</g>
		<g>
			<title> (ctg4_3)</title>
			<polygon class=" (ctg4_3)" points="173,25 167,25 167,10 137,40 167,70 167,55 173,55" fill="rgb(255,255,255)" fill-opacity="1.0" stroke="rgb(0,0,0)" stroke-width="2"  />
			<g>
				<title>Amidohydro_2 (PF04909)
"Amidohydrolase"</title>
				<polygon class="PF04909" points="141,40 153,28 172,28 172,52 153,52" stroke-linejoin="round" width="35" height="24" fill="rgb(95,225,123)" stroke="rgb(76,180,98)" stroke-width="1" opacity="0.75" />
			</g>
		</g>
		<g>
			<title> (ctg4_4)</title>
			<polygon class=" (ctg4_4)" points="178,10 181,40 178,70" fill="rgb(255,255,255)" fill-opacity="1.0" stroke="rgb(0,0,0)" stroke-width="2"  />
		</g>
		<g>
			<title> (ctg4_5)</title>
			<polygon class=" (ctg4_5)" points="185,10 191,40 185,70" fill="rgb(255,255,255)" fill-opacity="1.0" stroke="rgb(0,0,0)" stroke-width="2"  />
			<g>
				<title>BrnT_toxin (PF04365)
"Ribonuclease toxin, BrnT, of type II toxin-antitoxin system"</title>
				<polygon class="PF04365" points="185,28 185,28 188,40 185,52 185,52" stroke-linejoin="round" width="5" height="24" fill="rgb(81,152,189)" stroke="rgb(64,121,151)" stroke-width="1" opacity="0.75" />
			</g>
		</g>
		<g>
			<title> (ctg4_6)</title>
			<polygon class=" (ctg4_6)" points="191,10 199,40 191,70" fill="rgb(255,255,255)" fill-opacity="1.0" stroke="rgb(0,0,0)" stroke-width="2"  />
			<g>
				<title>BrnA_antitoxin (PF14384)
"BrnA antitoxin of type II toxin-antitoxin system"</title>
				<polygon class="PF14384" points="191,28 192,28 196,39 196,41 192,52 191,52" stroke-linejoin="round" width="5" height="24" fill="rgb(80,199,169)" stroke="rgb(64,159,135)" stroke-width="1" opacity="0.75" />
			</g>
		</g>
		<g>
			<title> (ctg4_7)</title>
			<polygon class=" (ctg4_7)" points="203,40 210,10 210,70" fill="rgb(255,255,255)" fill-opacity="1.0" stroke="rgb(0,0,0)" stroke-width="2"  />
		</g>
		<g>
			<title> (ctg4_8)</title>
			<polygon class=" (ctg4_8)" points="210,40 220,10 220,70" fill="rgb(255,255,255)" fill-opacity="1.0" stroke="rgb(0,0,0)" stroke-width="2"  />
			<g>
				<title>DUF4258 (PF14076)
"Domain of unknown function (DUF4258)"</title>
				<polygon class="PF14076" points="213,40 217,28 218,28 218,52 217,52" stroke-linejoin="round" width="7" height="24" fill="rgb(176,87,229)" stroke="rgb(140,69,183)" stroke-width="1" opacity="0.75" />
			</g>
		</g>
		<g>
			<title> (ctg4_9)</title>
			<polygon class=" (ctg4_9)" points="226,10 229,40 226,70" fill="rgb(255,255,255)" fill-opacity="1.0" stroke="rgb(0,0,0)" stroke-width="2"  />
		</g>
		<g>
			<title> (ctg4_10)</title>
			<polygon class=" (ctg4_10)" points="233,40 246,10 246,70" fill="rgb(255,255,255)" fill-opacity="1.0" stroke="rgb(0,0,0)" stroke-width="2"  />
			<g>
				<title>PIN (PF01850)
"PIN domain"</title>
				<polygon class="PF01850" points="236,40 241,28 246,28 246,52 241,52" stroke-linejoin="round" width="12" height="24" fill="rgb(91,217,126)" stroke="rgb(72,173,100)" stroke-width="1" opacity="0.75" />
			</g>
		</g>
		<g>
			<title> (ctg4_11)</title>
			<polygon class=" (ctg4_11)" points="246,40 254,10 254,70" fill="rgb(255,255,255)" fill-opacity="1.0" stroke="rgb(0,0,0)" stroke-width="2"  />
		</g>
		<g>
			<title> (ctg4_12)</title>
			<polygon class=" (ctg4_12)" points="272,25 308,25 308,10 338,40 308,70 308,55 272,55" fill="rgb(255,255,255)" fill-opacity="1.0" stroke="rgb(0,0,0)" stroke-width="2"  />
		</g>
		<g>
			<title> (ctg4_13)</title>
			<polygon class=" (ctg4_13)" points="419,25 373,25 373,10 343,40 373,70 373,55 419,55" fill="rgb(255,255,255)" fill-opacity="1.0" stroke="rgb(0,0,0)" stroke-width="2"  />
			<g>
				<title>YcaO (PF02624)
"YcaO cyclodehydratase, ATP-ad Mg2+-binding"</title>
				<polygon class="PF02624" points="347,40 359,28 379,28 379,52 359,52" stroke-linejoin="round" width="33" height="24" fill="rgb(76,84,185)" stroke="rgb(60,67,148)" stroke-width="1" opacity="0.75" />
			</g>
		</g>
		<g>
			<title> (ctg4_14)</title>
			<polygon class=" (ctg4_14)" points="435,10 449,40 435,70" fill="rgb(255,255,255)" fill-opacity="1.0" stroke="rgb(0,0,0)" stroke-width="2"  />
			<g>
				<title>Rubredoxin (PF00301)
"Rubredoxin"</title>
				<polygon class="PF00301" points="439,28 440,28 443,34 443,46 440,52 439,52" stroke-linejoin="round" width="4" height="24" fill="rgb(130,88,185)" stroke="rgb(104,70,148)" stroke-width="1" opacity="0.75" />
			</g>
		</g>
		<g>
			<title> (ctg4_15)</title>
			<polygon class=" (ctg4_15)" points="454,40 458,10 458,70" fill="rgb(255,255,255)" fill-opacity="1.0" stroke="rgb(0,0,0)" stroke-width="2"  />
		</g>
		<g>
			<title> (ctg4_16)</title>
			<polygon class=" (ctg4_16)" points="459,40 464,10 464,70" fill="rgb(255,255,255)" fill-opacity="1.0" stroke="rgb(0,0,0)" stroke-width="2"  />
		</g>
		<g>
			<title> (ctg4_17)</title>
			<polygon class=" (ctg4_17)" points="467,10 486,40 467,70" fill="rgb(255,255,255)" fill-opacity="1.0" stroke="rgb(0,0,0)" stroke-width="2"  />
			<g>
				<title>PSII_BNR (PF14870)
"Photosynthesis system II assembly factor YCF48"</title>
				<polygon class="PF14870" points="467,28 474,28 482,40 474,52 467,52" stroke-linejoin="round" width="18" height="24" fill="rgb(188,81,115)" stroke="rgb(150,64,92)" stroke-width="1" opacity="0.75" />
			</g>
		</g>
		<g>
			<title> (ctg4_18)</title>
			<polygon class=" (ctg4_18)" points="489,10 497,40 489,70" fill="rgb(255,255,255)" fill-opacity="1.0" stroke="rgb(0,0,0)" stroke-width="2"  />
			<g>
				<title>Cytochrom_B559 (PF00283)
"Cytochrome b559, alpha (gene psbE) and beta (gene psbF)subunits"</title>
				<polygon class="PF00283" points="489,28 490,28 491,29 491,51 490,52 489,52" stroke-linejoin="round" width="2" height="24" fill="rgb(69,149,197)" stroke="rgb(55,119,157)" stroke-width="1" opacity="0.75" />
			</g>
			<g>
				<title>Cytochrom_B559a (PF00284)
"Lumenal portion of Cytochrome b559, alpha (gene psbE) subunit"</title>
				<polygon class="PF00284" points="493,37 494,40 493,43" stroke-linejoin="round" width="3" height="24" fill="rgb(87,188,64)" stroke="rgb(69,150,51)" stroke-width="1" opacity="0.75" />
			</g>
		</g>
		<g>
			<title> (ctg4_19)</title>
			<polygon class=" (ctg4_19)" points="498,10 502,40 498,70" fill="rgb(255,255,255)" fill-opacity="1.0" stroke="rgb(0,0,0)" stroke-width="2"  />
			<g>
				<title>Cytochrom_B559 (PF00283)
"Cytochrome b559, alpha (gene psbE) and beta (gene psbF)subunits"</title>
				<polygon class="PF00283" points="498,31 499,40 498,49" stroke-linejoin="round" width="2" height="24" fill="rgb(69,149,197)" stroke="rgb(55,119,157)" stroke-width="1" opacity="0.75" />
			</g>
		</g>
		<g>
			<title> (ctg4_20)</title>
			<polygon class=" (ctg4_20)" points="503,10 507,40 503,70" fill="rgb(255,255,255)" fill-opacity="1.0" stroke="rgb(0,0,0)" stroke-width="2"  />
			<g>
				<title>PsbL (PF02419)
"PsbL protein"</title>
				<polygon class="PF02419" points="503,33 503,40 503,47" stroke-linejoin="round" width="3" height="24" fill="rgb(200,88,151)" stroke="rgb(160,70,120)" stroke-width="1" opacity="0.75" />
			</g>
		</g>
		<g>
			<title> (ctg4_21)</title>
			<polygon class=" (ctg4_21)" points="508,10 512,40 508,70" fill="rgb(255,255,255)" fill-opacity="1.0" stroke="rgb(0,0,0)" stroke-width="2"  />
			<g>
				<title>PsbJ (PF01788)
"PsbJ"</title>
				<polygon class="PF01788" points="508,33 508,40 508,47" stroke-linejoin="round" width="3" height="24" fill="rgb(56,185,118)" stroke="rgb(44,148,94)" stroke-width="1" opacity="0.75" />
			</g>
		</g>
		<g>
			<title> (ctg4_22)</title>
			<polygon class=" (ctg4_22)" points="576,25 556,25 556,10 526,40 556,70 556,55 576,55" fill="rgb(255,255,255)" fill-opacity="1.0" stroke="rgb(0,0,0)" stroke-width="2"  />
			<g>
				<title>PSII (PF00421)
"Photosystem II protein"</title>
				<polygon class="PF00421" points="530,40 542,28 575,28 575,52 542,52" stroke-linejoin="round" width="49" height="24" fill="rgb(183,68,103)" stroke="rgb(146,54,82)" stroke-width="1" opacity="0.75" />
			</g>
		</g>
		<g>
			<title> (ctg4_23)</title>
			<polygon class=" (ctg4_23)" points="601,25 614,25 614,10 644,40 614,70 614,55 601,55" fill="rgb(255,255,255)" fill-opacity="1.0" stroke="rgb(0,0,0)" stroke-width="2"  />
			<g>
				<title>PALP (PF00291)
"Pyridoxal-phosphate dependent enzyme"</title>
				<polygon class="PF00291" points="609,28 628,28 639,39 639,41 628,52 609,52" stroke-linejoin="round" width="30" height="24" fill="rgb(180,55,145)" stroke="rgb(144,44,116)" stroke-width="1" opacity="0.75" />
			</g>
		</g>
		<g>
			<title> (ctg4_24)</title>
			<polygon class=" (ctg4_24)" points="648,10 657,40 648,70" fill="rgb(255,255,255)" fill-opacity="1.0" stroke="rgb(0,0,0)" stroke-width="2"  />
			<g>
				<title>ThiS (PF02597)
"ThiS family"</title>
				<polygon class="PF02597" points="648,28 650,28 654,40 650,52 648,52" stroke-linejoin="round" width="8" height="24" fill="rgb(73,117,196)" stroke="rgb(58,93,156)" stroke-width="1" opacity="0.75" />
			</g>
		</g>
		<g>
			<title> (ctg4_25)</title>
			<polygon class=" (ctg4_25)" points="665,40 674,10 674,70" fill="rgb(255,255,255)" fill-opacity="1.0" stroke="rgb(0,0,0)" stroke-width="2"  />
		</g>
		<g>
			<title> (ctg4_26)</title>
			<polygon class=" (ctg4_26)" points="691,40 706,10 706,70" fill="rgb(255,255,255)" fill-opacity="1.0" stroke="rgb(0,0,0)" stroke-width="2"  />
			<g>
				<title>DUF29 (PF01724)
"Domain of unknown function DUF29"</title>
				<polygon class="PF01724" points="694,40 700,28 705,28 705,52 700,52" stroke-linejoin="round" width="14" height="24" fill="rgb(104,61,184)" stroke="rgb(83,48,147)" stroke-width="1" opacity="0.75" />
			</g>
		</g>
	</g>
</svg>
