<svg version="1.1" baseProfile="full" xmlns="http://www.w3.org/2000/svg" width="315.56666666666666" height="80">
	<g>
		<line x1="10" y1="40.0" x2="305.56666666666666" y2="40.0" style="stroke:rgb(70,70,70); stroke-width:3 "/>
		<g>
			<title> (ctg512_1)</title>
			<polygon class=" (ctg512_1)" points="19,40 25,10 25,70" fill="rgb(255,255,255)" fill-opacity="1.0" stroke="rgb(0,0,0)" stroke-width="2"  />
		</g>
		<g>
			<title> (ctg512_2)</title>
			<polygon class=" (ctg512_2)" points="28,40 41,10 41,70" fill="rgb(255,255,255)" fill-opacity="1.0" stroke="rgb(0,0,0)" stroke-width="2"  />
			<g>
				<title>GGACT (PF06094)
"Gamma-glutamyl cyclotransferase, AIG2-like"</title>
				<polygon class="PF06094" points="31,40 36,28 40,28 40,52 36,52" stroke-linejoin="round" width="12" height="24" fill="rgb(227,229,113)" stroke="rgb(181,183,90)" stroke-width="1" opacity="0.75" />
			</g>
		</g>
		<g>
			<title> (ctg512_3)</title>
			<polygon class=" (ctg512_3)" points="75,25 71,25 71,10 41,40 71,70 71,55 75,55" fill="rgb(255,255,255)" fill-opacity="1.0" stroke="rgb(0,0,0)" stroke-width="2"  />
			<g>
				<title>Aldo_ket_red (PF00248)
"Aldo/keto reductase family"</title>
				<polygon class="PF00248" points="45,40 57,28 73,28 73,52 57,52" stroke-linejoin="round" width="29" height="24" fill="rgb(225,205,58)" stroke="rgb(180,164,46)" stroke-width="1" opacity="0.75" />
			</g>
		</g>
		<g>
			<title> (ctg512_4)</title>
			<polygon class=" (ctg512_4)" points="149,25 110,25 110,10 80,40 110,70 110,55 149,55" fill="rgb(255,255,255)" fill-opacity="1.0" stroke="rgb(0,0,0)" stroke-width="2"  />
			<g>
				<title>PatG_C (PF18065)
"PatG C-terminal"</title>
				<polygon class="PF18065" points="84,40 91,33 91,47" stroke-linejoin="round" width="11" height="24" fill="rgb(93,82,184)" stroke="rgb(74,65,147)" stroke-width="1" opacity="0.75" />
			</g>
			<g>
				<title>PatG_D (PF18047)
"PatG Domain"</title>
				<polygon class="PF18047" points="96,28 96,28 107,28 107,52 96,52 96,52" stroke-linejoin="round" width="11" height="24" fill="rgb(91,195,69)" stroke="rgb(72,156,55)" stroke-width="1" opacity="0.75" />
			</g>
			<g>
				<title>Peptidase_S8 (PF00082)
"Subtilase family"</title>
				<rect class="PF00082" x="117" y="28" stroke-linejoin="round" width="29" height="24" fill="rgb(193,159,94)" stroke="rgb(154,127,75)" stroke-width="1" opacity="0.75" />
			</g>
		</g>
		<g>
			<title> (ctg512_5)</title>
			<polygon class=" (ctg512_5)" points="151,10 177,40 151,70" fill="rgb(255,255,255)" fill-opacity="1.0" stroke="rgb(0,0,0)" stroke-width="2"  />
			<g>
				<title>Uma2 (PF05685)
"Putative restriction endonuclease"</title>
				<polygon class="PF05685" points="154,28 163,28 171,38 171,42 163,52 154,52" stroke-linejoin="round" width="17" height="24" fill="rgb(123,107,219)" stroke="rgb(98,85,175)" stroke-width="1" opacity="0.75" />
			</g>
		</g>
		<g>
			<title> (ctg512_6)</title>
			<polygon class=" (ctg512_6)" points="178,40 185,10 185,70" fill="rgb(255,255,255)" fill-opacity="1.0" stroke="rgb(0,0,0)" stroke-width="2"  />
		</g>
		<g>
			<title> (ctg512_7)</title>
			<polygon class=" (ctg512_7)" points="187,40 194,10 194,70" fill="rgb(255,255,255)" fill-opacity="1.0" stroke="rgb(0,0,0)" stroke-width="2"  />
		</g>
		<g>
			<title> (ctg512_8)</title>
			<polygon class=" (ctg512_8)" points="262,25 228,25 228,10 198,40 228,70 228,55 262,55" fill="rgb(255,255,255)" fill-opacity="1.0" stroke="rgb(0,0,0)" stroke-width="2"  />
			<g>
				<title>PatG_C (PF18065)
"PatG C-terminal"</title>
				<polygon class="PF18065" points="202,40 209,33 209,47" stroke-linejoin="round" width="11" height="24" fill="rgb(93,82,184)" stroke="rgb(74,65,147)" stroke-width="1" opacity="0.75" />
			</g>
			<g>
				<title>PatG_D (PF18047)
"PatG Domain"</title>
				<polygon class="PF18047" points="214,28 214,28 225,28 225,52 214,52 214,52" stroke-linejoin="round" width="11" height="24" fill="rgb(91,195,69)" stroke="rgb(72,156,55)" stroke-width="1" opacity="0.75" />
			</g>
			<g>
				<title>Peptidase_S8 (PF00082)
"Subtilase family"</title>
				<rect class="PF00082" x="234" y="28" stroke-linejoin="round" width="26" height="24" fill="rgb(193,159,94)" stroke="rgb(154,127,75)" stroke-width="1" opacity="0.75" />
			</g>
		</g>
		<g>
			<title> (ctg512_9)</title>
			<polygon class=" (ctg512_9)" points="268,40 275,10 275,70" fill="rgb(255,255,255)" fill-opacity="1.0" stroke="rgb(0,0,0)" stroke-width="2"  />
		</g>
		<g>
			<title> (ctg512_10)</title>
			<polygon class=" (ctg512_10)" points="275,40 282,10 282,70" fill="rgb(255,255,255)" fill-opacity="1.0" stroke="rgb(0,0,0)" stroke-width="2"  />
		</g>
		<g>
			<title> (ctg512_11)</title>
			<polygon class=" (ctg512_11)" points="288,40 292,10 292,70" fill="rgb(255,255,255)" fill-opacity="1.0" stroke="rgb(0,0,0)" stroke-width="2"  />
		</g>
		<g>
			<title> (ctg512_12)</title>
			<polygon class=" (ctg512_12)" points="292,40 299,10 299,70" fill="rgb(255,255,255)" fill-opacity="1.0" stroke="rgb(0,0,0)" stroke-width="2"  />
		</g>
		<g>
			<title> (ctg512_13)</title>
			<polygon class=" (ctg512_13)" points="301,40 305,10 305,70" fill="rgb(255,255,255)" fill-opacity="1.0" stroke="rgb(0,0,0)" stroke-width="2"  />
		</g>
	</g>
</svg>
