<svg version="1.1" baseProfile="full" xmlns="http://www.w3.org/2000/svg" width="1541.0" height="80">
	<g>
		<line x1="10" y1="40.0" x2="1531.0" y2="40.0" style="stroke:rgb(70,70,70); stroke-width:3 "/>
		<g>
			<title> (ctg160_1)</title>
			<polygon class=" (ctg160_1)" points="10,40 15,10 15,70" fill="rgb(255,255,255)" fill-opacity="1.0" stroke="rgb(0,0,0)" stroke-width="2"  />
		</g>
		<g>
			<title> (ctg160_2)</title>
			<polygon class=" (ctg160_2)" points="17,25 18,25 18,10 48,40 18,70 18,55 17,55" fill="rgb(255,255,255)" fill-opacity="1.0" stroke="rgb(0,0,0)" stroke-width="2"  />
			<g>
				<title>TPR_11 (PF13414)
"TPR repeat"</title>
				<polygon class="PF13414" points="29,28 32,28 33,29 33,51 32,52 29,52" stroke-linejoin="round" width="4" height="24" fill="rgb(55,76,182)" stroke="rgb(44,60,145)" stroke-width="1" opacity="0.75" />
			</g>
			<g>
				<title>TPR_11 (PF13414)
"TPR repeat"</title>
				<polygon class="PF13414" points="40,36 43,39 43,41 40,44" stroke-linejoin="round" width="3" height="24" fill="rgb(55,76,182)" stroke="rgb(44,60,145)" stroke-width="1" opacity="0.75" />
			</g>
		</g>
		<g>
			<title> (ctg160_3)</title>
			<polygon class=" (ctg160_3)" points="146,25 79,25 79,10 49,40 79,70 79,55 146,55" fill="rgb(255,255,255)" fill-opacity="1.0" stroke="rgb(0,0,0)" stroke-width="2"  />
			<g>
				<title>DSHCT (PF08148)
"DSHCT (NUC185) domain"</title>
				<polygon class="PF08148" points="53,40 65,28 66,28 66,52 65,52" stroke-linejoin="round" width="17" height="24" fill="rgb(63,184,140)" stroke="rgb(50,147,112)" stroke-width="1" opacity="0.75" />
			</g>
			<g>
				<title>Helicase_C (PF00271)
"Helicase conserved C-terminal domain"</title>
				<rect class="PF00271" x="98" y="28" stroke-linejoin="round" width="11" height="24" fill="rgb(104,224,158)" stroke="rgb(83,179,126)" stroke-width="1" opacity="0.75" />
			</g>
			<g>
				<title>DEAD (PF00270)
"DEAD/DEAH box helicase"</title>
				<rect class="PF00270" x="127" y="28" stroke-linejoin="round" width="17" height="24" fill="rgb(195,100,62)" stroke="rgb(156,80,49)" stroke-width="1" opacity="0.75" />
			</g>
		</g>
		<g>
			<title> (ctg160_4)</title>
			<polygon class=" (ctg160_4)" points="154,25 155,25 155,10 185,40 155,70 155,55 154,55" fill="rgb(255,255,255)" fill-opacity="1.0" stroke="rgb(0,0,0)" stroke-width="2"  />
			<g>
				<title>Response_reg (PF00072)
"Response regulator receiver domain"</title>
				<rect class="PF00072" x="155" y="28" stroke-linejoin="round" width="11" height="24" fill="rgb(100,107,203)" stroke="rgb(80,85,162)" stroke-width="1" opacity="0.75" />
			</g>
			<g>
				<title>GGDEF (PF00990)
"Diguanylate cyclase, GGDEF domain"</title>
				<polygon class="PF00990" points="168,28 168,28 180,40 168,52 168,52" stroke-linejoin="round" width="15" height="24" fill="rgb(62,170,199)" stroke="rgb(49,135,159)" stroke-width="1" opacity="0.75" />
			</g>
		</g>
		<g>
			<title> (ctg160_5)</title>
			<polygon class=" (ctg160_5)" points="185,10 211,40 185,70" fill="rgb(255,255,255)" fill-opacity="1.0" stroke="rgb(0,0,0)" stroke-width="2"  />
			<g>
				<title>SBP_bac_3 (PF00497)
"Bacterial extracellular solute-binding proteins, family 3"</title>
				<polygon class="PF00497" points="188,28 197,28 207,40 197,52 188,52" stroke-linejoin="round" width="22" height="24" fill="rgb(186,76,141)" stroke="rgb(148,60,112)" stroke-width="1" opacity="0.75" />
			</g>
		</g>
		<g>
			<title> (ctg160_6)</title>
			<polygon class=" (ctg160_6)" points="216,10 233,40 216,70" fill="rgb(255,255,255)" fill-opacity="1.0" stroke="rgb(0,0,0)" stroke-width="2"  />
			<g>
				<title>TPR_12 (PF13424)
"Tetratricopeptide repeat"</title>
				<polygon class="PF13424" points="221,28 223,28 228,36 228,44 223,52 221,52" stroke-linejoin="round" width="7" height="24" fill="rgb(147,215,101)" stroke="rgb(117,172,80)" stroke-width="1" opacity="0.75" />
			</g>
		</g>
		<g>
			<title> (ctg160_7)</title>
			<polygon class=" (ctg160_7)" points="295,25 265,25 265,10 235,40 265,70 265,55 295,55" fill="rgb(255,255,255)" fill-opacity="1.0" stroke="rgb(0,0,0)" stroke-width="2"  />
			<g>
				<title>CitMHS (PF03600)
"Citrate transporter"</title>
				<polygon class="PF03600" points="240,39 251,28 292,28 292,52 251,52 240,41" stroke-linejoin="round" width="52" height="24" fill="rgb(75,203,220)" stroke="rgb(60,162,176)" stroke-width="1" opacity="0.75" />
			</g>
		</g>
		<g>
			<title> (ctg160_8)</title>
			<polygon class=" (ctg160_8)" points="388,25 326,25 326,10 296,40 326,70 326,55 388,55" fill="rgb(255,255,255)" fill-opacity="1.0" stroke="rgb(0,0,0)" stroke-width="2"  />
			<g>
				<title>Cation_ATPase_C (PF00689)
"Cation transporting ATPase, C-terminus"</title>
				<polygon class="PF00689" points="300,40 312,28 313,28 313,52 312,52" stroke-linejoin="round" width="17" height="24" fill="rgb(76,203,161)" stroke="rgb(60,162,128)" stroke-width="1" opacity="0.75" />
			</g>
			<g>
				<title>Hydrolase (PF00702)
"haloacid dehalogenase-like hydrolase"</title>
				<rect class="PF00702" x="321" y="28" stroke-linejoin="round" width="32" height="24" fill="rgb(68,220,102)" stroke="rgb(54,176,81)" stroke-width="1" opacity="0.75" />
			</g>
			<g>
				<title>E1-E2_ATPase (PF00122)
"E1-E2 ATPase"</title>
				<rect class="PF00122" x="356" y="28" stroke-linejoin="round" width="19" height="24" fill="rgb(149,204,70)" stroke="rgb(119,163,56)" stroke-width="1" opacity="0.75" />
			</g>
			<g>
				<title>Cation_ATPase_N (PF00690)
"Cation transporter/ATPase, N-terminus"</title>
				<rect class="PF00690" x="380" y="28" stroke-linejoin="round" width="6" height="24" fill="rgb(174,102,225)" stroke="rgb(139,81,180)" stroke-width="1" opacity="0.75" />
			</g>
		</g>
		<g>
			<title> (ctg160_9)</title>
			<polygon class=" (ctg160_9)" points="401,25 418,25 418,10 448,40 418,70 418,55 401,55" fill="rgb(255,255,255)" fill-opacity="1.0" stroke="rgb(0,0,0)" stroke-width="2"  />
			<g>
				<title>Amino_oxidase (PF01593)
"Flavin containing amine oxidoreductase"</title>
				<polygon class="PF01593" points="402,28 432,28 444,40 432,52 402,52" stroke-linejoin="round" width="44" height="24" fill="rgb(184,74,52)" stroke="rgb(147,59,41)" stroke-width="1" opacity="0.75" />
			</g>
		</g>
		<g>
			<title> (ctg160_10)</title>
			<polygon class=" (ctg160_10)" points="452,25 453,25 453,10 483,40 453,70 453,55 452,55" fill="rgb(255,255,255)" fill-opacity="1.0" stroke="rgb(0,0,0)" stroke-width="2"  />
			<g>
				<title>SQS_PSY (PF00494)
"Squalene/phytoene synthase"</title>
				<polygon class="PF00494" points="454,28 466,28 478,40 466,52 454,52" stroke-linejoin="round" width="26" height="24" fill="rgb(178,91,49)" stroke="rgb(142,72,39)" stroke-width="1" opacity="0.75" />
			</g>
		</g>
		<g>
			<title> (ctg160_11)</title>
			<polygon class=" (ctg160_11)" points="485,40 500,10 500,70" fill="rgb(255,255,255)" fill-opacity="1.0" stroke="rgb(0,0,0)" stroke-width="2"  />
		</g>
		<g>
			<title> (ctg160_12)</title>
			<polygon class=" (ctg160_12)" points="510,10 518,40 510,70" fill="rgb(255,255,255)" fill-opacity="1.0" stroke="rgb(0,0,0)" stroke-width="2"  />
		</g>
		<g>
			<title> (ctg160_13)</title>
			<polygon class=" (ctg160_13)" points="520,40 543,10 543,70" fill="rgb(255,255,255)" fill-opacity="1.0" stroke="rgb(0,0,0)" stroke-width="2"  />
			<g>
				<title>Pirin_C_2 (PF17954)
"Quercetinase C-terminal cupin domain"</title>
				<polygon class="PF17954" points="524,40 528,35 528,45" stroke-linejoin="round" width="8" height="24" fill="rgb(224,140,102)" stroke="rgb(179,112,81)" stroke-width="1" opacity="0.75" />
			</g>
			<g>
				<title>Pirin (PF02678)
"Pirin"</title>
				<polygon class="PF02678" points="531,31 533,28 542,28 542,52 533,52 531,49" stroke-linejoin="round" width="11" height="24" fill="rgb(139,213,61)" stroke="rgb(111,170,48)" stroke-width="1" opacity="0.75" />
			</g>
		</g>
		<g>
			<title> (ctg160_14)</title>
			<polygon class=" (ctg160_14)" points="571,25 572,25 572,10 602,40 572,70 572,55 571,55" fill="rgb(255,255,255)" fill-opacity="1.0" stroke="rgb(0,0,0)" stroke-width="2"  />
		</g>
		<g>
			<title> (ctg160_15)</title>
			<polygon class=" (ctg160_15)" points="609,40 628,10 628,70" fill="rgb(255,255,255)" fill-opacity="1.0" stroke="rgb(0,0,0)" stroke-width="2"  />
			<g>
				<title>Uma2 (PF05685)
"Putative restriction endonuclease"</title>
				<polygon class="PF05685" points="613,40 621,28 627,28 627,52 621,52" stroke-linejoin="round" width="15" height="24" fill="rgb(123,107,219)" stroke="rgb(98,85,175)" stroke-width="1" opacity="0.75" />
			</g>
		</g>
		<g>
			<title> (ctg160_16)</title>
			<polygon class=" (ctg160_16)" points="631,25 633,25 633,10 663,40 633,70 633,55 631,55" fill="rgb(255,255,255)" fill-opacity="1.0" stroke="rgb(0,0,0)" stroke-width="2"  />
		</g>
		<g>
			<title> (ctg160_17)</title>
			<polygon class=" (ctg160_17)" points="666,25 833,25 833,10 863,40 833,70 833,55 666,55" fill="rgb(255,255,255)" fill-opacity="1.0" stroke="rgb(0,0,0)" stroke-width="2"  />
			<g>
				<title>ketoacyl-synt (PF00109)
"Beta-ketoacyl synthase, N-terminal domain"</title>
				<rect class="PF00109" x="666" y="28" stroke-linejoin="round" width="28" height="24" fill="rgb(112,116,228)" stroke="rgb(89,92,182)" stroke-width="1" opacity="0.75" />
			</g>
			<g>
				<title>Ketoacyl-synt_C (PF02801)
"Beta-ketoacyl synthase, C-terminal domain"</title>
				<rect class="PF02801" x="695" y="28" stroke-linejoin="round" width="11" height="24" fill="rgb(215,78,102)" stroke="rgb(172,62,81)" stroke-width="1" opacity="0.75" />
			</g>
			<g>
				<title>KAsynt_C_assoc (PF16197)
"Ketoacyl-synthetase C-terminal extension"</title>
				<rect class="PF16197" x="707" y="28" stroke-linejoin="round" width="12" height="24" fill="rgb(240,150,172)" stroke="rgb(192,120,137)" stroke-width="1" opacity="0.75" />
			</g>
			<g>
				<title>Acyl_transf_1 (PF00698)
"Acyl transferase domain"</title>
				<rect class="PF00698" x="721" y="28" stroke-linejoin="round" width="31" height="24" fill="rgb(59,176,209)" stroke="rgb(47,140,167)" stroke-width="1" opacity="0.75" />
			</g>
			<g>
				<title>PP-binding (PF00550)
"Phosphopantetheine attachment site"</title>
				<rect class="PF00550" x="760" y="28" stroke-linejoin="round" width="6" height="24" fill="rgb(103,191,88)" stroke="rgb(82,152,70)" stroke-width="1" opacity="0.75" />
			</g>
			<g>
				<title>KR (PF08659)
"KR domain"</title>
				<rect class="PF08659" x="787" y="28" stroke-linejoin="round" width="18" height="24" fill="rgb(66,209,188)" stroke="rgb(52,167,150)" stroke-width="1" opacity="0.75" />
			</g>
			<g>
				<title>PS-DH (PF14765)
"Polyketide synthase dehydratase"</title>
				<rect class="PF14765" x="812" y="28" stroke-linejoin="round" width="29" height="24" fill="rgb(173,56,182)" stroke="rgb(138,44,145)" stroke-width="1" opacity="0.75" />
			</g>
		</g>
		<g>
			<title> (ctg160_18)</title>
			<polygon class=" (ctg160_18)" points="865,10 883,40 865,70" fill="rgb(255,255,255)" fill-opacity="1.0" stroke="rgb(0,0,0)" stroke-width="2"  />
		</g>
		<g>
			<title> (ctg160_19)</title>
			<polygon class=" (ctg160_19)" points="920,25 919,25 919,10 889,40 919,70 919,55 920,55" fill="rgb(255,255,255)" fill-opacity="1.0" stroke="rgb(0,0,0)" stroke-width="2"  />
		</g>
		<g>
			<title> (ctg160_20)</title>
			<polygon class=" (ctg160_20)" points="936,10 946,40 936,70" fill="rgb(255,255,255)" fill-opacity="1.0" stroke="rgb(0,0,0)" stroke-width="2"  />
			<g>
				<title>NTP_transf_2 (PF01909)
"Nucleotidyltransferase domain"</title>
				<polygon class="PF01909" points="936,28 938,28 942,40 938,52 936,52" stroke-linejoin="round" width="9" height="24" fill="rgb(55,187,183)" stroke="rgb(44,149,146)" stroke-width="1" opacity="0.75" />
			</g>
		</g>
		<g>
			<title> (ctg160_21)</title>
			<polygon class=" (ctg160_21)" points="946,10 958,40 946,70" fill="rgb(255,255,255)" fill-opacity="1.0" stroke="rgb(0,0,0)" stroke-width="2"  />
			<g>
				<title>DUF86 (PF01934)
"Protein of unknown function DUF86"</title>
				<polygon class="PF01934" points="947,28 949,28 954,40 949,52 947,52" stroke-linejoin="round" width="9" height="24" fill="rgb(66,222,169)" stroke="rgb(52,177,135)" stroke-width="1" opacity="0.75" />
			</g>
		</g>
		<g>
			<title> (ctg160_22)</title>
			<polygon class=" (ctg160_22)" points="958,40 970,10 970,70" fill="rgb(255,255,255)" fill-opacity="1.0" stroke="rgb(0,0,0)" stroke-width="2"  />
		</g>
		<g>
			<title> (ctg160_23)</title>
			<polygon class=" (ctg160_23)" points="982,10 996,40 982,70" fill="rgb(255,255,255)" fill-opacity="1.0" stroke="rgb(0,0,0)" stroke-width="2"  />
			<g>
				<title>4HBT_2 (PF13279)
"Thioesterase-like superfamily"</title>
				<polygon class="PF13279" points="983,28 987,28 992,40 987,52 983,52" stroke-linejoin="round" width="12" height="24" fill="rgb(213,114,82)" stroke="rgb(170,91,65)" stroke-width="1" opacity="0.75" />
			</g>
		</g>
		<g>
			<title> (ctg160_24)</title>
			<polygon class=" (ctg160_24)" points="1040,25 1032,25 1032,10 1002,40 1032,70 1032,55 1040,55" fill="rgb(255,255,255)" fill-opacity="1.0" stroke="rgb(0,0,0)" stroke-width="2"  />
			<g>
				<title>FtsX (PF02687)
"FtsX-like permease family"</title>
				<polygon class="PF02687" points="1006,40 1010,36 1010,44" stroke-linejoin="round" width="8" height="24" fill="rgb(126,55,214)" stroke="rgb(100,44,171)" stroke-width="1" opacity="0.75" />
			</g>
		</g>
		<g>
			<title> (ctg160_25)</title>
			<polygon class=" (ctg160_25)" points="1087,25 1072,25 1072,10 1042,40 1072,70 1072,55 1087,55" fill="rgb(255,255,255)" fill-opacity="1.0" stroke="rgb(0,0,0)" stroke-width="2"  />
			<g>
				<title>HlyD_3 (PF13437)
"HlyD family secretion protein"</title>
				<polygon class="PF13437" points="1046,40 1053,33 1053,47" stroke-linejoin="round" width="11" height="24" fill="rgb(82,200,102)" stroke="rgb(65,160,81)" stroke-width="1" opacity="0.75" />
			</g>
			<g>
				<title>Biotin_lipoyl_2 (PF13533)
"Biotin-lipoyl like"</title>
				<rect class="PF13533" x="1073" y="28" stroke-linejoin="round" width="5" height="24" fill="rgb(229,122,112)" stroke="rgb(183,97,89)" stroke-width="1" opacity="0.75" />
			</g>
		</g>
		<g>
			<title> (ctg160_26)</title>
			<polygon class=" (ctg160_26)" points="1089,25 1094,25 1094,10 1124,40 1094,70 1094,55 1089,55" fill="rgb(255,255,255)" fill-opacity="1.0" stroke="rgb(0,0,0)" stroke-width="2"  />
			<g>
				<title>DUF1702 (PF08012)
"Protein of unknown function (DUF1702)"</title>
				<polygon class="PF08012" points="1091,28 1107,28 1119,40 1107,52 1091,52" stroke-linejoin="round" width="32" height="24" fill="rgb(177,49,186)" stroke="rgb(141,39,148)" stroke-width="1" opacity="0.75" />
			</g>
		</g>
		<g>
			<title> (ctg160_27)</title>
			<polygon class=" (ctg160_27)" points="1126,25 1159,25 1159,10 1189,40 1159,70 1159,55 1126,55" fill="rgb(255,255,255)" fill-opacity="1.0" stroke="rgb(0,0,0)" stroke-width="2"  />
			<g>
				<title>FG-GAP_3 (PF13517)
"FG-GAP-like repeat"</title>
				<rect class="PF13517" x="1140" y="28" stroke-linejoin="round" width="6" height="24" fill="rgb(77,199,76)" stroke="rgb(61,159,60)" stroke-width="1" opacity="0.75" />
			</g>
			<g>
				<title>FG-GAP_3 (PF13517)
"FG-GAP-like repeat"</title>
				<rect class="PF13517" x="1153" y="28" stroke-linejoin="round" width="7" height="24" fill="rgb(77,199,76)" stroke="rgb(61,159,60)" stroke-width="1" opacity="0.75" />
			</g>
			<g>
				<title>FG-GAP (PF01839)
"FG-GAP repeat"</title>
				<polygon class="PF01839" points="1174,29 1177,32 1177,48 1174,51" stroke-linejoin="round" width="3" height="24" fill="rgb(84,217,101)" stroke="rgb(67,173,80)" stroke-width="1" opacity="0.75" />
			</g>
			<g>
				<title>UnbV_ASPIC (PF07593)
"ASPIC and UnbV"</title>
				<polygon class="PF07593" points="1181,36 1185,40 1181,44" stroke-linejoin="round" width="6" height="24" fill="rgb(157,212,86)" stroke="rgb(125,169,68)" stroke-width="1" opacity="0.75" />
			</g>
		</g>
		<g>
			<title> (ctg160_28)</title>
			<polygon class=" (ctg160_28)" points="1222,25 1234,25 1234,10 1264,40 1234,70 1234,55 1222,55" fill="rgb(255,255,255)" fill-opacity="1.0" stroke="rgb(0,0,0)" stroke-width="2"  />
			<g>
				<title>HTH_OrfB_IS605 (PF12323)
"Helix-turn-helix domain"</title>
				<rect class="PF12323" x="1222" y="28" stroke-linejoin="round" width="4" height="24" fill="rgb(102,226,140)" stroke="rgb(81,180,112)" stroke-width="1" opacity="0.75" />
			</g>
			<g>
				<title>OrfB_IS605 (PF01385)
"Probable transposase"</title>
				<polygon class="PF01385" points="1240,28 1248,28 1251,31 1251,49 1248,52 1240,52" stroke-linejoin="round" width="11" height="24" fill="rgb(95,115,208)" stroke="rgb(76,92,166)" stroke-width="1" opacity="0.75" />
			</g>
			<g>
				<title>OrfB_Zn_ribbon (PF07282)
"Putative transposase DNA-binding domain"</title>
				<polygon class="PF07282" points="1253,33 1259,39 1259,41 1253,47" stroke-linejoin="round" width="6" height="24" fill="rgb(188,84,136)" stroke="rgb(150,67,108)" stroke-width="1" opacity="0.75" />
			</g>
		</g>
		<g>
			<title> (ctg160_29)</title>
			<polygon class=" (ctg160_29)" points="1273,10 1299,40 1273,70" fill="rgb(255,255,255)" fill-opacity="1.0" stroke="rgb(0,0,0)" stroke-width="2"  />
			<g>
				<title>ABC2_membrane_2 (PF12679)
"ABC-2 family transporter protein"</title>
				<polygon class="PF12679" points="1273,28 1285,28 1295,40 1285,52 1273,52" stroke-linejoin="round" width="25" height="24" fill="rgb(70,194,214)" stroke="rgb(56,155,171)" stroke-width="1" opacity="0.75" />
			</g>
		</g>
		<g>
			<title> (ctg160_30)</title>
			<polygon class=" (ctg160_30)" points="1301,10 1316,40 1301,70" fill="rgb(255,255,255)" fill-opacity="1.0" stroke="rgb(0,0,0)" stroke-width="2"  />
		</g>
		<g>
			<title> (ctg160_31)</title>
			<polygon class=" (ctg160_31)" points="1328,10 1355,40 1328,70" fill="rgb(255,255,255)" fill-opacity="1.0" stroke="rgb(0,0,0)" stroke-width="2"  />
			<g>
				<title>PAPS_reduct (PF01507)
"Phosphoadenosine phosphosulfate reductase family"</title>
				<polygon class="PF01507" points="1334,28 1339,28 1351,40 1351,40 1339,52 1334,52" stroke-linejoin="round" width="17" height="24" fill="rgb(87,190,105)" stroke="rgb(69,152,83)" stroke-width="1" opacity="0.75" />
			</g>
		</g>
		<g>
			<title> (ctg160_32)</title>
			<polygon class=" (ctg160_32)" points="1358,10 1386,40 1358,70" fill="rgb(255,255,255)" fill-opacity="1.0" stroke="rgb(0,0,0)" stroke-width="2"  />
			<g>
				<title>Abhydrolase_6 (PF12697)
"Alpha/beta hydrolase family"</title>
				<polygon class="PF12697" points="1361,28 1370,28 1382,40 1370,52 1361,52" stroke-linejoin="round" width="24" height="24" fill="rgb(113,71,219)" stroke="rgb(90,56,175)" stroke-width="1" opacity="0.75" />
			</g>
		</g>
		<g>
			<title> (ctg160_33)</title>
			<polygon class=" (ctg160_33)" points="1387,10 1391,40 1387,70" fill="rgb(255,255,255)" fill-opacity="1.0" stroke="rgb(0,0,0)" stroke-width="2"  />
		</g>
		<g>
			<title> (ctg160_34)</title>
			<polygon class=" (ctg160_34)" points="1394,10 1403,40 1394,70" fill="rgb(255,255,255)" fill-opacity="1.0" stroke="rgb(0,0,0)" stroke-width="2"  />
			<g>
				<title>BrnT_toxin (PF04365)
"Ribonuclease toxin, BrnT, of type II toxin-antitoxin system"</title>
				<polygon class="PF04365" points="1394,28 1396,28 1400,40 1396,52 1394,52" stroke-linejoin="round" width="7" height="24" fill="rgb(81,152,189)" stroke="rgb(64,121,151)" stroke-width="1" opacity="0.75" />
			</g>
		</g>
		<g>
			<title> (ctg160_35)</title>
			<polygon class=" (ctg160_35)" points="1404,10 1410,40 1404,70" fill="rgb(255,255,255)" fill-opacity="1.0" stroke="rgb(0,0,0)" stroke-width="2"  />
		</g>
		<g>
			<title> (ctg160_36)</title>
			<polygon class=" (ctg160_36)" points="1415,40 1421,10 1421,70" fill="rgb(255,255,255)" fill-opacity="1.0" stroke="rgb(0,0,0)" stroke-width="2"  />
		</g>
		<g>
			<title> (ctg160_37)</title>
			<polygon class=" (ctg160_37)" points="1484,25 1453,25 1453,10 1423,40 1453,70 1453,55 1484,55" fill="rgb(255,255,255)" fill-opacity="1.0" stroke="rgb(0,0,0)" stroke-width="2"  />
			<g>
				<title>MMR_HSR1 (PF01926)
"50S ribosome-binding GTPase"</title>
				<rect class="PF01926" x="1444" y="28" stroke-linejoin="round" width="11" height="24" fill="rgb(105,180,226)" stroke="rgb(83,143,180)" stroke-width="1" opacity="0.75" />
			</g>
		</g>
		<g>
			<title> (ctg160_38)</title>
			<polygon class=" (ctg160_38)" points="1487,40 1516,10 1516,70" fill="rgb(255,255,255)" fill-opacity="1.0" stroke="rgb(0,0,0)" stroke-width="2"  />
			<g>
				<title>Inositol_P (PF00459)
"Inositol monophosphatase family"</title>
				<polygon class="PF00459" points="1491,40 1503,28 1514,28 1514,52 1503,52" stroke-linejoin="round" width="27" height="24" fill="rgb(67,210,137)" stroke="rgb(53,168,109)" stroke-width="1" opacity="0.75" />
			</g>
		</g>
	</g>
</svg>
