<svg version="1.1" baseProfile="full" xmlns="http://www.w3.org/2000/svg" width="541.4333333333333" height="80">
	<g>
		<line x1="10" y1="40.0" x2="531.4333333333333" y2="40.0" style="stroke:rgb(70,70,70); stroke-width:3 "/>
		<g>
			<title> (ctg194_1)</title>
			<polygon class=" (ctg194_1)" points="10,10 13,40 10,70" fill="rgb(255,255,255)" fill-opacity="1.0" stroke="rgb(0,0,0)" stroke-width="2"  />
		</g>
		<g>
			<title> (ctg194_2)</title>
			<polygon class=" (ctg194_2)" points="58,25 46,25 46,10 16,40 46,70 46,55 58,55" fill="rgb(255,255,255)" fill-opacity="1.0" stroke="rgb(0,0,0)" stroke-width="2"  />
			<g>
				<title>VWA (PF00092)
"von Willebrand factor type A domain"</title>
				<rect class="PF00092" x="37" y="28" stroke-linejoin="round" width="16" height="24" fill="rgb(199,215,59)" stroke="rgb(159,172,47)" stroke-width="1" opacity="0.75" />
			</g>
		</g>
		<g>
			<title> (ctg194_3)</title>
			<polygon class=" (ctg194_3)" points="112,25 101,25 101,10 71,40 101,70 101,55 112,55" fill="rgb(255,255,255)" fill-opacity="1.0" stroke="rgb(0,0,0)" stroke-width="2"  />
			<g>
				<title>Met_gamma_lyase (PF06838)
"Methionine gamma-lyase"</title>
				<polygon class="PF06838" points="75,40 87,28 112,28 112,52 87,52" stroke-linejoin="round" width="40" height="24" fill="rgb(96,226,191)" stroke="rgb(76,180,152)" stroke-width="1" opacity="0.75" />
			</g>
		</g>
		<g>
			<title> (ctg194_4)</title>
			<polygon class=" (ctg194_4)" points="168,25 146,25 146,10 116,40 146,70 146,55 168,55" fill="rgb(255,255,255)" fill-opacity="1.0" stroke="rgb(0,0,0)" stroke-width="2"  />
			<g>
				<title>HlyD_3 (PF13437)
"HlyD family secretion protein"</title>
				<polygon class="PF13437" points="127,33 132,28 138,28 138,52 132,52 127,47" stroke-linejoin="round" width="11" height="24" fill="rgb(82,200,102)" stroke="rgb(65,160,81)" stroke-width="1" opacity="0.75" />
			</g>
			<g>
				<title>Biotin_lipoyl_2 (PF13533)
"Biotin-lipoyl like"</title>
				<rect class="PF13533" x="155" y="28" stroke-linejoin="round" width="5" height="24" fill="rgb(229,122,112)" stroke="rgb(183,97,89)" stroke-width="1" opacity="0.75" />
			</g>
		</g>
		<g>
			<title> (ctg194_5)</title>
			<polygon class=" (ctg194_5)" points="230,25 199,25 199,10 169,40 199,70 199,55 230,55" fill="rgb(255,255,255)" fill-opacity="1.0" stroke="rgb(0,0,0)" stroke-width="2"  />
			<g>
				<title>ABC_tran (PF00005)
"ABC transporter"</title>
				<polygon class="PF00005" points="175,38 185,28 188,28 188,52 185,52 175,42" stroke-linejoin="round" width="13" height="24" fill="rgb(129,201,63)" stroke="rgb(103,160,50)" stroke-width="1" opacity="0.75" />
			</g>
			<g>
				<title>ABC_membrane (PF00664)
"ABC transporter transmembrane region"</title>
				<rect class="PF00664" x="203" y="28" stroke-linejoin="round" width="25" height="24" fill="rgb(149,226,73)" stroke="rgb(119,180,58)" stroke-width="1" opacity="0.75" />
			</g>
		</g>
		<g>
			<title> (ctg194_6)</title>
			<polygon class=" (ctg194_6)" points="271,25 262,25 262,10 232,40 262,70 262,55 271,55" fill="rgb(255,255,255)" fill-opacity="1.0" stroke="rgb(0,0,0)" stroke-width="2"  />
			<g>
				<title>Chal_sti_synt_C (PF02797)
"Chalcone and stilbene synthases, C-terminal domain"</title>
				<polygon class="PF02797" points="236,40 247,29 247,51" stroke-linejoin="round" width="15" height="24" fill="rgb(139,212,63)" stroke="rgb(111,169,50)" stroke-width="1" opacity="0.75" />
			</g>
			<g>
				<title>Chal_sti_synt_N (PF00195)
"Chalcone and stilbene synthases, N-terminal domain"</title>
				<rect class="PF00195" x="249" y="28" stroke-linejoin="round" width="22" height="24" fill="rgb(60,181,161)" stroke="rgb(47,144,128)" stroke-width="1" opacity="0.75" />
			</g>
		</g>
		<g>
			<title> (ctg194_7)</title>
			<polygon class=" (ctg194_7)" points="330,25 307,25 307,10 277,40 307,70 307,55 330,55" fill="rgb(255,255,255)" fill-opacity="1.0" stroke="rgb(0,0,0)" stroke-width="2"  />
			<g>
				<title>Cyt-b5 (PF00173)
"Cytochrome b5-like Heme/Steroid binding domain"</title>
				<rect class="PF00173" x="317" y="28" stroke-linejoin="round" width="6" height="24" fill="rgb(149,209,92)" stroke="rgb(119,167,73)" stroke-width="1" opacity="0.75" />
			</g>
		</g>
		<g>
			<title> (ctg194_8)</title>
			<polygon class=" (ctg194_8)" points="337,10 342,40 337,70" fill="rgb(255,255,255)" fill-opacity="1.0" stroke="rgb(0,0,0)" stroke-width="2"  />
		</g>
		<g>
			<title> (ctg194_9)</title>
			<polygon class=" (ctg194_9)" points="342,40 353,10 353,70" fill="rgb(255,255,255)" fill-opacity="1.0" stroke="rgb(0,0,0)" stroke-width="2"  />
		</g>
		<g>
			<title> (ctg194_10)</title>
			<polygon class=" (ctg194_10)" points="364,10 386,40 364,70" fill="rgb(255,255,255)" fill-opacity="1.0" stroke="rgb(0,0,0)" stroke-width="2"  />
			<g>
				<title>ABC_tran (PF00005)
"ABC transporter"</title>
				<polygon class="PF00005" points="366,28 373,28 380,37 380,43 373,52 366,52" stroke-linejoin="round" width="14" height="24" fill="rgb(129,201,63)" stroke="rgb(103,160,50)" stroke-width="1" opacity="0.75" />
			</g>
		</g>
		<g>
			<title> (ctg194_11)</title>
			<polygon class=" (ctg194_11)" points="429,25 417,25 417,10 387,40 417,70 417,55 429,55" fill="rgb(255,255,255)" fill-opacity="1.0" stroke="rgb(0,0,0)" stroke-width="2"  />
			<g>
				<title>FtsX (PF02687)
"FtsX-like permease family"</title>
				<polygon class="PF02687" points="391,40 395,36 395,44" stroke-linejoin="round" width="8" height="24" fill="rgb(126,55,214)" stroke="rgb(100,44,171)" stroke-width="1" opacity="0.75" />
			</g>
			<g>
				<title>MacB_PCD (PF12704)
"MacB-like periplasmic core domain"</title>
				<polygon class="PF12704" points="403,28 403,28 426,28 426,52 403,52 403,52" stroke-linejoin="round" width="23" height="24" fill="rgb(79,76,190)" stroke="rgb(63,60,152)" stroke-width="1" opacity="0.75" />
			</g>
		</g>
		<g>
			<title> (ctg194_12)</title>
			<polygon class=" (ctg194_12)" points="435,40 439,10 439,70" fill="rgb(255,255,255)" fill-opacity="1.0" stroke="rgb(0,0,0)" stroke-width="2"  />
		</g>
		<g>
			<title> (ctg194_13)</title>
			<polygon class=" (ctg194_13)" points="444,10 471,40 444,70" fill="rgb(255,255,255)" fill-opacity="1.0" stroke="rgb(0,0,0)" stroke-width="2"  />
			<g>
				<title>FA_desaturase (PF00487)
"Fatty acid desaturase"</title>
				<polygon class="PF00487" points="447,28 456,28 467,40 456,52 447,52" stroke-linejoin="round" width="22" height="24" fill="rgb(104,51,205)" stroke="rgb(83,40,164)" stroke-width="1" opacity="0.75" />
			</g>
		</g>
		<g>
			<title> (ctg194_14)</title>
			<polygon class=" (ctg194_14)" points="485,25 494,25 494,10 524,40 494,70 494,55 485,55" fill="rgb(255,255,255)" fill-opacity="1.0" stroke="rgb(0,0,0)" stroke-width="2"  />
			<g>
				<title>DXP_reductoisom (PF02670)
"1-deoxy-D-xylulose 5-phosphate reductoisomerase"</title>
				<rect class="PF02670" x="485" y="28" stroke-linejoin="round" width="12" height="24" fill="rgb(106,225,169)" stroke="rgb(84,180,135)" stroke-width="1" opacity="0.75" />
			</g>
			<g>
				<title>DXP_redisom_C (PF08436)
"1-deoxy-D-xylulose 5-phosphate reductoisomerase C-terminal domain"</title>
				<rect class="PF08436" x="499" y="28" stroke-linejoin="round" width="8" height="24" fill="rgb(160,186,55)" stroke="rgb(127,148,44)" stroke-width="1" opacity="0.75" />
			</g>
			<g>
				<title>DXPR_C (PF13288)
"DXP reductoisomerase C-terminal domain"</title>
				<polygon class="PF13288" points="511,32 519,40 511,48" stroke-linejoin="round" width="11" height="24" fill="rgb(184,95,48)" stroke="rgb(147,76,38)" stroke-width="1" opacity="0.75" />
			</g>
		</g>
	</g>
</svg>
