<svg version="1.1" baseProfile="full" xmlns="http://www.w3.org/2000/svg" width="720.7666666666667" height="80">
	<g>
		<line x1="10" y1="40.0" x2="710.7666666666667" y2="40.0" style="stroke:rgb(70,70,70); stroke-width:3 "/>
		<g>
			<title> (ctg21_1)</title>
			<polygon class=" (ctg21_1)" points="44,25 40,25 40,10 10,40 40,70 40,55 44,55" fill="rgb(255,255,255)" fill-opacity="1.0" stroke="rgb(0,0,0)" stroke-width="2"  />
			<g>
				<title>FMO-like (PF00743)
"Flavin-binding monooxygenase-like"</title>
				<polygon class="PF00743" points="14,40 26,28 44,28 44,52 26,52" stroke-linejoin="round" width="34" height="24" fill="rgb(203,74,151)" stroke="rgb(162,59,120)" stroke-width="1" opacity="0.75" />
			</g>
		</g>
		<g>
			<title> (ctg21_2)</title>
			<polygon class=" (ctg21_2)" points="177,25 75,25 75,10 45,40 75,70 75,55 177,55" fill="rgb(255,255,255)" fill-opacity="1.0" stroke="rgb(0,0,0)" stroke-width="2"  />
			<g>
				<title>Thioesterase (PF00975)
"Thioesterase domain"</title>
				<polygon class="PF00975" points="49,40 61,28 68,28 68,52 61,52" stroke-linejoin="round" width="22" height="24" fill="rgb(207,80,138)" stroke="rgb(165,63,110)" stroke-width="1" opacity="0.75" />
			</g>
			<g>
				<title>PP-binding (PF00550)
"Phosphopantetheine attachment site"</title>
				<rect class="PF00550" x="74" y="28" stroke-linejoin="round" width="6" height="24" fill="rgb(103,191,88)" stroke="rgb(82,152,70)" stroke-width="1" opacity="0.75" />
			</g>
			<g>
				<title>Acyl_transf_1 (PF00698)
"Acyl transferase domain"</title>
				<rect class="PF00698" x="89" y="28" stroke-linejoin="round" width="31" height="24" fill="rgb(59,176,209)" stroke="rgb(47,140,167)" stroke-width="1" opacity="0.75" />
			</g>
			<g>
				<title>KAsynt_C_assoc (PF16197)
"Ketoacyl-synthetase C-terminal extension"</title>
				<rect class="PF16197" x="124" y="28" stroke-linejoin="round" width="11" height="24" fill="rgb(240,150,172)" stroke="rgb(192,120,137)" stroke-width="1" opacity="0.75" />
			</g>
			<g>
				<title>Ketoacyl-synt_C (PF02801)
"Beta-ketoacyl synthase, C-terminal domain"</title>
				<rect class="PF02801" x="136" y="28" stroke-linejoin="round" width="11" height="24" fill="rgb(215,78,102)" stroke="rgb(172,62,81)" stroke-width="1" opacity="0.75" />
			</g>
			<g>
				<title>ketoacyl-synt (PF00109)
"Beta-ketoacyl synthase, N-terminal domain"</title>
				<rect class="PF00109" x="148" y="28" stroke-linejoin="round" width="25" height="24" fill="rgb(112,116,228)" stroke="rgb(89,92,182)" stroke-width="1" opacity="0.75" />
			</g>
		</g>
		<g>
			<title> (ctg21_3)</title>
			<polygon class=" (ctg21_3)" points="360,25 209,25 209,10 179,40 209,70 209,55 360,55" fill="rgb(255,255,255)" fill-opacity="1.0" stroke="rgb(0,0,0)" stroke-width="2"  />
			<g>
				<title>PP-binding (PF00550)
"Phosphopantetheine attachment site"</title>
				<polygon class="PF00550" points="184,39 190,33 190,47 184,41" stroke-linejoin="round" width="6" height="24" fill="rgb(103,191,88)" stroke="rgb(82,152,70)" stroke-width="1" opacity="0.75" />
			</g>
			<g>
				<title>KR (PF08659)
"KR domain"</title>
				<rect class="PF08659" x="200" y="28" stroke-linejoin="round" width="17" height="24" fill="rgb(66,209,188)" stroke="rgb(52,167,150)" stroke-width="1" opacity="0.75" />
			</g>
			<g>
				<title>PS-DH (PF14765)
"Polyketide synthase dehydratase"</title>
				<rect class="PF14765" x="241" y="28" stroke-linejoin="round" width="27" height="24" fill="rgb(173,56,182)" stroke="rgb(138,44,145)" stroke-width="1" opacity="0.75" />
			</g>
			<g>
				<title>Acyl_transf_1 (PF00698)
"Acyl transferase domain"</title>
				<rect class="PF00698" x="273" y="28" stroke-linejoin="round" width="31" height="24" fill="rgb(59,176,209)" stroke="rgb(47,140,167)" stroke-width="1" opacity="0.75" />
			</g>
			<g>
				<title>KAsynt_C_assoc (PF16197)
"Ketoacyl-synthetase C-terminal extension"</title>
				<rect class="PF16197" x="308" y="28" stroke-linejoin="round" width="11" height="24" fill="rgb(240,150,172)" stroke="rgb(192,120,137)" stroke-width="1" opacity="0.75" />
			</g>
			<g>
				<title>Ketoacyl-synt_C (PF02801)
"Beta-ketoacyl synthase, C-terminal domain"</title>
				<rect class="PF02801" x="320" y="28" stroke-linejoin="round" width="11" height="24" fill="rgb(215,78,102)" stroke="rgb(172,62,81)" stroke-width="1" opacity="0.75" />
			</g>
			<g>
				<title>ketoacyl-synt (PF00109)
"Beta-ketoacyl synthase, N-terminal domain"</title>
				<rect class="PF00109" x="332" y="28" stroke-linejoin="round" width="25" height="24" fill="rgb(112,116,228)" stroke="rgb(89,92,182)" stroke-width="1" opacity="0.75" />
			</g>
		</g>
		<g>
			<title> (ctg21_4)</title>
			<polygon class=" (ctg21_4)" points="453,25 397,25 397,10 367,40 397,70 397,55 453,55" fill="rgb(255,255,255)" fill-opacity="1.0" stroke="rgb(0,0,0)" stroke-width="2"  />
			<g>
				<title>PP-binding (PF00550)
"Phosphopantetheine attachment site"</title>
				<polygon class="PF00550" points="371,40 377,34 377,46 371,40" stroke-linejoin="round" width="6" height="24" fill="rgb(103,191,88)" stroke="rgb(82,152,70)" stroke-width="1" opacity="0.75" />
			</g>
			<g>
				<title>Acyl-CoA_dh_1 (PF00441)
"Acyl-CoA dehydrogenase, C-terminal domain"</title>
				<rect class="PF00441" x="396" y="28" stroke-linejoin="round" width="15" height="24" fill="rgb(85,191,117)" stroke="rgb(68,152,93)" stroke-width="1" opacity="0.75" />
			</g>
			<g>
				<title>Acyl-CoA_dh_M (PF02770)
"Acyl-CoA dehydrogenase, middle domain"</title>
				<rect class="PF02770" x="412" y="28" stroke-linejoin="round" width="9" height="24" fill="rgb(225,186,97)" stroke="rgb(180,148,77)" stroke-width="1" opacity="0.75" />
			</g>
			<g>
				<title>Acyl-CoA_dh_N (PF02771)
"Acyl-CoA dehydrogenase, N-terminal domain"</title>
				<rect class="PF02771" x="423" y="28" stroke-linejoin="round" width="11" height="24" fill="rgb(105,135,218)" stroke="rgb(84,108,174)" stroke-width="1" opacity="0.75" />
			</g>
			<g>
				<title>AMP-binding (PF00501)
"AMP-binding enzyme"</title>
				<rect class="PF00501" x="447" y="28" stroke-linejoin="round" width="5" height="24" fill="rgb(60,217,223)" stroke="rgb(48,173,178)" stroke-width="1" opacity="0.75" />
			</g>
		</g>
		<g>
			<title> (ctg21_5)</title>
			<polygon class=" (ctg21_5)" points="496,40 518,10 518,70" fill="rgb(255,255,255)" fill-opacity="1.0" stroke="rgb(0,0,0)" stroke-width="2"  />
			<g>
				<title>Nitroreductase (PF00881)
"Nitroreductase family"</title>
				<polygon class="PF00881" points="500,40 509,28 516,28 516,52 509,52" stroke-linejoin="round" width="17" height="24" fill="rgb(79,118,187)" stroke="rgb(63,94,149)" stroke-width="1" opacity="0.75" />
			</g>
		</g>
		<g>
			<title> (ctg21_6)</title>
			<polygon class=" (ctg21_6)" points="550,25 549,25 549,10 519,40 549,70 549,55 550,55" fill="rgb(255,255,255)" fill-opacity="1.0" stroke="rgb(0,0,0)" stroke-width="2"  />
			<g>
				<title>Glyoxalase (PF00903)
"Glyoxalase/Bleomycin resistance protein/Dioxygenase superfamily"</title>
				<polygon class="PF00903" points="523,40 534,29 534,51" stroke-linejoin="round" width="12" height="24" fill="rgb(50,162,189)" stroke="rgb(40,129,151)" stroke-width="1" opacity="0.75" />
			</g>
		</g>
		<g>
			<title> (ctg21_7)</title>
			<polygon class=" (ctg21_7)" points="562,25 580,25 580,10 610,40 580,70 580,55 562,55" fill="rgb(255,255,255)" fill-opacity="1.0" stroke="rgb(0,0,0)" stroke-width="2"  />
			<g>
				<title>EAD4 (PF19959)
"Effector-associated domain 4"</title>
				<rect class="PF19959" x="562" y="28" stroke-linejoin="round" width="11" height="24" fill="rgb(103,71,187)" stroke="rgb(82,56,149)" stroke-width="1" opacity="0.75" />
			</g>
			<g>
				<title>AAA_35 (PF14516)
"AAA-like domain"</title>
				<polygon class="PF14516" points="576,28 593,28 605,40 593,52 576,52" stroke-linejoin="round" width="33" height="24" fill="rgb(134,192,86)" stroke="rgb(107,153,68)" stroke-width="1" opacity="0.75" />
			</g>
		</g>
		<g>
			<title> (ctg21_8)</title>
			<polygon class=" (ctg21_8)" points="692,25 640,25 640,10 610,40 640,70 640,55 692,55" fill="rgb(255,255,255)" fill-opacity="1.0" stroke="rgb(0,0,0)" stroke-width="2"  />
			<g>
				<title>Peripla_BP_6 (PF13458)
"Periplasmic binding protein"</title>
				<polygon class="PF13458" points="614,40 626,28 646,28 646,52 626,52" stroke-linejoin="round" width="33" height="24" fill="rgb(94,183,81)" stroke="rgb(75,146,64)" stroke-width="1" opacity="0.75" />
			</g>
			<g>
				<title>AAA_35 (PF14516)
"AAA-like domain"</title>
				<rect class="PF14516" x="664" y="28" stroke-linejoin="round" width="27" height="24" fill="rgb(134,192,86)" stroke="rgb(107,153,68)" stroke-width="1" opacity="0.75" />
			</g>
		</g>
		<g>
			<title> (ctg21_9)</title>
			<polygon class=" (ctg21_9)" points="706,40 710,10 710,70" fill="rgb(255,255,255)" fill-opacity="1.0" stroke="rgb(0,0,0)" stroke-width="2"  />
		</g>
	</g>
</svg>
