<svg version="1.1" baseProfile="full" xmlns="http://www.w3.org/2000/svg" width="672.2666666666667" height="80">
	<g>
		<line x1="10" y1="40.0" x2="662.2666666666667" y2="40.0" style="stroke:rgb(70,70,70); stroke-width:3 "/>
		<g>
			<title> (ctg706_1)</title>
			<polygon class=" (ctg706_1)" points="10,40 18,10 18,70" fill="rgb(255,255,255)" fill-opacity="1.0" stroke="rgb(0,0,0)" stroke-width="2"  />
		</g>
		<g>
			<title> (ctg706_2)</title>
			<polygon class=" (ctg706_2)" points="22,40 36,10 36,70" fill="rgb(255,255,255)" fill-opacity="1.0" stroke="rgb(0,0,0)" stroke-width="2"  />
			<g>
				<title>DUF29 (PF01724)
"Domain of unknown function DUF29"</title>
				<polygon class="PF01724" points="25,40 31,28 34,28 34,52 31,52" stroke-linejoin="round" width="12" height="24" fill="rgb(104,61,184)" stroke="rgb(83,48,147)" stroke-width="1" opacity="0.75" />
			</g>
		</g>
		<g>
			<title> (ctg706_3)</title>
			<polygon class=" (ctg706_3)" points="55,40 61,10 61,70" fill="rgb(255,255,255)" fill-opacity="1.0" stroke="rgb(0,0,0)" stroke-width="2"  />
		</g>
		<g>
			<title> (ctg706_4)</title>
			<polygon class=" (ctg706_4)" points="62,10 87,40 62,70" fill="rgb(255,255,255)" fill-opacity="1.0" stroke="rgb(0,0,0)" stroke-width="2"  />
			<g>
				<title>SIMPL (PF04402)
"Protein of unknown function (DUF541)"</title>
				<polygon class="PF04402" points="66,28 73,28 83,40 73,52 66,52" stroke-linejoin="round" width="20" height="24" fill="rgb(88,209,165)" stroke="rgb(70,167,132)" stroke-width="1" opacity="0.75" />
			</g>
		</g>
		<g>
			<title> (ctg706_5)</title>
			<polygon class=" (ctg706_5)" points="94,10 109,40 94,70" fill="rgb(255,255,255)" fill-opacity="1.0" stroke="rgb(0,0,0)" stroke-width="2"  />
			<g>
				<title>HTH_29 (PF13551)
"Winged helix-turn helix"</title>
				<polygon class="PF13551" points="97,28 99,28 103,34 103,46 99,52 97,52" stroke-linejoin="round" width="6" height="24" fill="rgb(163,71,225)" stroke="rgb(130,56,180)" stroke-width="1" opacity="0.75" />
			</g>
		</g>
		<g>
			<title> (ctg706_6)</title>
			<polygon class=" (ctg706_6)" points="181,25 155,25 155,10 125,40 155,70 155,55 181,55" fill="rgb(255,255,255)" fill-opacity="1.0" stroke="rgb(0,0,0)" stroke-width="2"  />
			<g>
				<title>GUN4 (PF05419)
"GUN4-like"</title>
				<polygon class="PF05419" points="129,40 141,28 142,28 142,52 141,52 129,40" stroke-linejoin="round" width="13" height="24" fill="rgb(207,86,195)" stroke="rgb(165,68,156)" stroke-width="1" opacity="0.75" />
			</g>
		</g>
		<g>
			<title> (ctg706_7)</title>
			<polygon class=" (ctg706_7)" points="184,40 200,10 200,70" fill="rgb(255,255,255)" fill-opacity="1.0" stroke="rgb(0,0,0)" stroke-width="2"  />
		</g>
		<g>
			<title> (ctg706_8)</title>
			<polygon class=" (ctg706_8)" points="270,25 233,25 233,10 203,40 233,70 233,55 270,55" fill="rgb(255,255,255)" fill-opacity="1.0" stroke="rgb(0,0,0)" stroke-width="2"  />
			<g>
				<title>DUF2235 (PF09994)
"Uncharacterized alpha/beta hydrolase domain (DUF2235)"</title>
				<polygon class="PF09994" points="211,36 219,28 238,28 238,52 219,52 211,44" stroke-linejoin="round" width="27" height="24" fill="rgb(67,224,147)" stroke="rgb(53,179,117)" stroke-width="1" opacity="0.75" />
			</g>
			<g>
				<title>Laminin_G_3 (PF13385)
"Concanavalin A-like lectin/glucanases superfamily"</title>
				<rect class="PF13385" x="253" y="28" stroke-linejoin="round" width="16" height="24" fill="rgb(93,162,213)" stroke="rgb(74,129,170)" stroke-width="1" opacity="0.75" />
			</g>
		</g>
		<g>
			<title> (ctg706_9)</title>
			<polygon class=" (ctg706_9)" points="324,25 314,25 314,10 284,40 314,70 314,55 324,55" fill="rgb(255,255,255)" fill-opacity="1.0" stroke="rgb(0,0,0)" stroke-width="2"  />
			<g>
				<title>DUF6014 (PF19477)
"Family of unknown function (DUF6014)"</title>
				<polygon class="PF19477" points="288,40 300,28 322,28 322,52 300,52" stroke-linejoin="round" width="38" height="24" fill="rgb(198,112,85)" stroke="rgb(158,89,68)" stroke-width="1" opacity="0.75" />
			</g>
		</g>
		<g>
			<title> (ctg706_10)</title>
			<polygon class=" (ctg706_10)" points="394,25 355,25 355,10 325,40 355,70 355,55 394,55" fill="rgb(255,255,255)" fill-opacity="1.0" stroke="rgb(0,0,0)" stroke-width="2"  />
			<g>
				<title>ABC_tran (PF00005)
"ABC transporter"</title>
				<polygon class="PF00005" points="341,28 341,28 354,28 354,52 341,52 341,52" stroke-linejoin="round" width="13" height="24" fill="rgb(129,201,63)" stroke="rgb(103,160,50)" stroke-width="1" opacity="0.75" />
			</g>
			<g>
				<title>ABC_membrane_2 (PF06472)
"ABC transporter transmembrane region 2"</title>
				<rect class="PF06472" x="363" y="28" stroke-linejoin="round" width="25" height="24" fill="rgb(120,179,45)" stroke="rgb(96,143,36)" stroke-width="1" opacity="0.75" />
			</g>
		</g>
		<g>
			<title> (ctg706_11)</title>
			<polygon class=" (ctg706_11)" points="409,10 430,40 409,70" fill="rgb(255,255,255)" fill-opacity="1.0" stroke="rgb(0,0,0)" stroke-width="2"  />
			<g>
				<title>Sulfotransfer_2 (PF03567)
"Sulfotransferase family"</title>
				<polygon class="PF03567" points="412,28 418,28 427,40 418,52 412,52" stroke-linejoin="round" width="18" height="24" fill="rgb(192,80,119)" stroke="rgb(153,64,95)" stroke-width="1" opacity="0.75" />
			</g>
		</g>
		<g>
			<title> (ctg706_12)</title>
			<polygon class=" (ctg706_12)" points="434,25 616,25 616,10 646,40 616,70 616,55 434,55" fill="rgb(255,255,255)" fill-opacity="1.0" stroke="rgb(0,0,0)" stroke-width="2"  />
			<g>
				<title>PP-binding (PF00550)
"Phosphopantetheine attachment site"</title>
				<rect class="PF00550" x="495" y="28" stroke-linejoin="round" width="6" height="24" fill="rgb(103,191,88)" stroke="rgb(82,152,70)" stroke-width="1" opacity="0.75" />
			</g>
			<g>
				<title>Sulfotransfer_3 (PF13469)
"Sulfotransferase family"</title>
				<rect class="PF13469" x="506" y="28" stroke-linejoin="round" width="21" height="24" fill="rgb(59,182,84)" stroke="rgb(47,145,67)" stroke-width="1" opacity="0.75" />
			</g>
			<g>
				<title>Condensation (PF00668)
"Condensation domain"</title>
				<rect class="PF00668" x="536" y="28" stroke-linejoin="round" width="45" height="24" fill="rgb(224,184,98)" stroke="rgb(179,147,78)" stroke-width="1" opacity="0.75" />
			</g>
			<g>
				<title>AMP-binding (PF00501)
"AMP-binding enzyme"</title>
				<rect class="PF00501" x="584" y="28" stroke-linejoin="round" width="42" height="24" fill="rgb(60,217,223)" stroke="rgb(48,173,178)" stroke-width="1" opacity="0.75" />
			</g>
			<g>
				<title>AMP-binding_C (PF13193)
"AMP-binding enzyme C-terminal domain"</title>
				<polygon class="PF13193" points="627,28 629,28 634,33 634,47 629,52 627,52" stroke-linejoin="round" width="7" height="24" fill="rgb(182,50,118)" stroke="rgb(145,39,94)" stroke-width="1" opacity="0.75" />
			</g>
			<g>
				<title>PP-binding (PF00550)
"Phosphopantetheine attachment site"</title>
				<polygon class="PF00550" points="637,36 641,40 637,44" stroke-linejoin="round" width="6" height="24" fill="rgb(103,191,88)" stroke="rgb(82,152,70)" stroke-width="1" opacity="0.75" />
			</g>
		</g>
		<g>
			<title> (ctg706_13)</title>
			<polygon class=" (ctg706_13)" points="646,10 662,40 646,70" fill="rgb(255,255,255)" fill-opacity="1.0" stroke="rgb(0,0,0)" stroke-width="2"  />
			<g>
				<title>Condensation (PF00668)
"Condensation domain"</title>
				<polygon class="PF00668" points="646,28 652,28 658,40 652,52 646,52" stroke-linejoin="round" width="15" height="24" fill="rgb(224,184,98)" stroke="rgb(179,147,78)" stroke-width="1" opacity="0.75" />
			</g>
		</g>
	</g>
</svg>
