<svg version="1.1" baseProfile="full" xmlns="http://www.w3.org/2000/svg" width="463.8333333333333" height="80">
	<g>
		<line x1="10" y1="40.0" x2="453.8333333333333" y2="40.0" style="stroke:rgb(70,70,70); stroke-width:3 "/>
		<g>
			<title> (ctg100_1)</title>
			<polygon class=" (ctg100_1)" points="10,40 33,10 33,70" fill="rgb(255,255,255)" fill-opacity="1.0" stroke="rgb(0,0,0)" stroke-width="2"  />
			<g>
				<title>Glycos_transf_1 (PF00534)
"Glycosyl transferases group 1"</title>
				<polygon class="PF00534" points="14,40 20,32 20,48" stroke-linejoin="round" width="10" height="24" fill="rgb(228,92,150)" stroke="rgb(182,73,119)" stroke-width="1" opacity="0.75" />
			</g>
		</g>
		<g>
			<title> (ctg100_2)</title>
			<polygon class=" (ctg100_2)" points="41,10 54,40 41,70" fill="rgb(255,255,255)" fill-opacity="1.0" stroke="rgb(0,0,0)" stroke-width="2"  />
		</g>
		<g>
			<title> (ctg100_3)</title>
			<polygon class=" (ctg100_3)" points="119,25 86,25 86,10 56,40 86,70 86,55 119,55" fill="rgb(255,255,255)" fill-opacity="1.0" stroke="rgb(0,0,0)" stroke-width="2"  />
			<g>
				<title>SQHop_cyclase_C (PF13243)
"Squalene-hopene cyclase C-terminal domain"</title>
				<polygon class="PF13243" points="60,40 72,28 88,28 88,52 72,52" stroke-linejoin="round" width="32" height="24" fill="rgb(191,58,201)" stroke="rgb(152,46,160)" stroke-width="1" opacity="0.75" />
			</g>
			<g>
				<title>SQHop_cyclase_N (PF13249)
"Squalene-hopene cyclase N-terminal domain"</title>
				<rect class="PF13249" x="89" y="28" stroke-linejoin="round" width="28" height="24" fill="rgb(88,190,89)" stroke="rgb(70,152,71)" stroke-width="1" opacity="0.75" />
			</g>
		</g>
		<g>
			<title> (ctg100_4)</title>
			<polygon class=" (ctg100_4)" points="132,40 157,10 157,70" fill="rgb(255,255,255)" fill-opacity="1.0" stroke="rgb(0,0,0)" stroke-width="2"  />
			<g>
				<title>EF_TS (PF00889)
"Elongation factor TS"</title>
				<polygon class="PF00889" points="137,39 146,28 156,28 156,52 146,52 137,41" stroke-linejoin="round" width="19" height="24" fill="rgb(69,212,85)" stroke="rgb(55,169,67)" stroke-width="1" opacity="0.75" />
			</g>
		</g>
		<g>
			<title> (ctg100_5)</title>
			<polygon class=" (ctg100_5)" points="162,40 188,10 188,70" fill="rgb(255,255,255)" fill-opacity="1.0" stroke="rgb(0,0,0)" stroke-width="2"  />
			<g>
				<title>Ribosomal_S2 (PF00318)
"Ribosomal protein S2"</title>
				<polygon class="PF00318" points="166,40 177,28 187,28 187,52 177,52 166,40" stroke-linejoin="round" width="21" height="24" fill="rgb(60,213,66)" stroke="rgb(48,170,52)" stroke-width="1" opacity="0.75" />
			</g>
		</g>
		<g>
			<title> (ctg100_6)</title>
			<polygon class=" (ctg100_6)" points="193,40 208,10 208,70" fill="rgb(255,255,255)" fill-opacity="1.0" stroke="rgb(0,0,0)" stroke-width="2"  />
			<g>
				<title>AhpC-TSA (PF00578)
"AhpC/TSA family"</title>
				<polygon class="PF00578" points="196,40 202,28 207,28 207,52 202,52" stroke-linejoin="round" width="12" height="24" fill="rgb(166,71,190)" stroke="rgb(132,56,152)" stroke-width="1" opacity="0.75" />
			</g>
		</g>
		<g>
			<title> (ctg100_7)</title>
			<polygon class=" (ctg100_7)" points="209,40 237,10 237,70" fill="rgb(255,255,255)" fill-opacity="1.0" stroke="rgb(0,0,0)" stroke-width="2"  />
			<g>
				<title>Peptidase_M48 (PF01435)
"Peptidase family M48"</title>
				<polygon class="PF01435" points="218,35 224,28 226,28 226,52 224,52 218,45" stroke-linejoin="round" width="8" height="24" fill="rgb(70,152,228)" stroke="rgb(56,121,182)" stroke-width="1" opacity="0.75" />
			</g>
		</g>
		<g>
			<title> (ctg100_8)</title>
			<polygon class=" (ctg100_8)" points="237,40 251,10 251,70" fill="rgb(255,255,255)" fill-opacity="1.0" stroke="rgb(0,0,0)" stroke-width="2"  />
			<g>
				<title>Penicillinase_R (PF03965)
"Penicillinase repressor"</title>
				<polygon class="PF03965" points="240,40 246,28 248,28 248,52 246,52" stroke-linejoin="round" width="11" height="24" fill="rgb(208,59,133)" stroke="rgb(166,47,106)" stroke-width="1" opacity="0.75" />
			</g>
		</g>
		<g>
			<title> (ctg100_9)</title>
			<polygon class=" (ctg100_9)" points="254,10 263,40 254,70" fill="rgb(255,255,255)" fill-opacity="1.0" stroke="rgb(0,0,0)" stroke-width="2"  />
			<g>
				<title>DUF4090 (PF13319)
"Protein of unknown function (DUF4090)"</title>
				<polygon class="PF13319" points="255,28 256,28 260,40 256,52 255,52" stroke-linejoin="round" width="8" height="24" fill="rgb(89,117,182)" stroke="rgb(71,93,145)" stroke-width="1" opacity="0.75" />
			</g>
		</g>
		<g>
			<title> (ctg100_10)</title>
			<polygon class=" (ctg100_10)" points="276,25 284,25 284,10 314,40 284,70 284,55 276,55" fill="rgb(255,255,255)" fill-opacity="1.0" stroke="rgb(0,0,0)" stroke-width="2"  />
			<g>
				<title>NTP_transferase (PF00483)
"Nucleotidyl transferase"</title>
				<polygon class="PF00483" points="276,28 298,28 300,30 300,50 298,52 276,52" stroke-linejoin="round" width="24" height="24" fill="rgb(198,101,87)" stroke="rgb(158,80,69)" stroke-width="1" opacity="0.75" />
			</g>
		</g>
		<g>
			<title> (ctg100_11)</title>
			<polygon class=" (ctg100_11)" points="319,25 330,25 330,10 360,40 330,70 330,55 319,55" fill="rgb(255,255,255)" fill-opacity="1.0" stroke="rgb(0,0,0)" stroke-width="2"  />
		</g>
		<g>
			<title> (ctg100_12)</title>
			<polygon class=" (ctg100_12)" points="373,10 402,40 373,70" fill="rgb(255,255,255)" fill-opacity="1.0" stroke="rgb(0,0,0)" stroke-width="2"  />
			<g>
				<title>Sulfotransfer_3 (PF13469)
"Sulfotransferase family"</title>
				<polygon class="PF13469" points="373,28 385,28 391,33 391,47 385,52 373,52" stroke-linejoin="round" width="18" height="24" fill="rgb(59,182,84)" stroke="rgb(47,145,67)" stroke-width="1" opacity="0.75" />
			</g>
		</g>
	</g>
</svg>
