<svg version="1.1" baseProfile="full" xmlns="http://www.w3.org/2000/svg" width="357.76666666666665" height="80">
	<g>
		<line x1="10" y1="40.0" x2="347.76666666666665" y2="40.0" style="stroke:rgb(70,70,70); stroke-width:3 "/>
		<g>
			<title> (ctg247_1)</title>
			<polygon class=" (ctg247_1)" points="47,25 40,25 40,10 10,40 40,70 40,55 47,55" fill="rgb(255,255,255)" fill-opacity="1.0" stroke="rgb(0,0,0)" stroke-width="2"  />
			<g>
				<title>ABC_membrane (PF00664)
"ABC transporter transmembrane region"</title>
				<polygon class="PF00664" points="19,35 26,28 45,28 45,52 26,52 19,45" stroke-linejoin="round" width="26" height="24" fill="rgb(149,226,73)" stroke="rgb(119,180,58)" stroke-width="1" opacity="0.75" />
			</g>
		</g>
		<g>
			<title> (ctg247_2)</title>
			<polygon class=" (ctg247_2)" points="87,25 78,25 78,10 48,40 78,70 78,55 87,55" fill="rgb(255,255,255)" fill-opacity="1.0" stroke="rgb(0,0,0)" stroke-width="2"  />
			<g>
				<title>Chal_sti_synt_C (PF02797)
"Chalcone and stilbene synthases, C-terminal domain"</title>
				<polygon class="PF02797" points="52,40 63,29 63,51" stroke-linejoin="round" width="15" height="24" fill="rgb(139,212,63)" stroke="rgb(111,169,50)" stroke-width="1" opacity="0.75" />
			</g>
			<g>
				<title>Chal_sti_synt_N (PF00195)
"Chalcone and stilbene synthases, N-terminal domain"</title>
				<rect class="PF00195" x="65" y="28" stroke-linejoin="round" width="22" height="24" fill="rgb(60,181,161)" stroke="rgb(47,144,128)" stroke-width="1" opacity="0.75" />
			</g>
		</g>
		<g>
			<title> (ctg247_3)</title>
			<polygon class=" (ctg247_3)" points="146,25 123,25 123,10 93,40 123,70 123,55 146,55" fill="rgb(255,255,255)" fill-opacity="1.0" stroke="rgb(0,0,0)" stroke-width="2"  />
			<g>
				<title>Cyt-b5 (PF00173)
"Cytochrome b5-like Heme/Steroid binding domain"</title>
				<rect class="PF00173" x="133" y="28" stroke-linejoin="round" width="6" height="24" fill="rgb(149,209,92)" stroke="rgb(119,167,73)" stroke-width="1" opacity="0.75" />
			</g>
		</g>
		<g>
			<title> (ctg247_4)</title>
			<polygon class=" (ctg247_4)" points="153,10 158,40 153,70" fill="rgb(255,255,255)" fill-opacity="1.0" stroke="rgb(0,0,0)" stroke-width="2"  />
		</g>
		<g>
			<title> (ctg247_5)</title>
			<polygon class=" (ctg247_5)" points="158,40 169,10 169,70" fill="rgb(255,255,255)" fill-opacity="1.0" stroke="rgb(0,0,0)" stroke-width="2"  />
		</g>
		<g>
			<title> (ctg247_6)</title>
			<polygon class=" (ctg247_6)" points="180,10 202,40 180,70" fill="rgb(255,255,255)" fill-opacity="1.0" stroke="rgb(0,0,0)" stroke-width="2"  />
			<g>
				<title>ABC_tran (PF00005)
"ABC transporter"</title>
				<polygon class="PF00005" points="182,28 189,28 196,37 196,43 189,52 182,52" stroke-linejoin="round" width="14" height="24" fill="rgb(129,201,63)" stroke="rgb(103,160,50)" stroke-width="1" opacity="0.75" />
			</g>
		</g>
		<g>
			<title> (ctg247_7)</title>
			<polygon class=" (ctg247_7)" points="245,25 233,25 233,10 203,40 233,70 233,55 245,55" fill="rgb(255,255,255)" fill-opacity="1.0" stroke="rgb(0,0,0)" stroke-width="2"  />
			<g>
				<title>FtsX (PF02687)
"FtsX-like permease family"</title>
				<polygon class="PF02687" points="207,40 211,36 211,44" stroke-linejoin="round" width="8" height="24" fill="rgb(126,55,214)" stroke="rgb(100,44,171)" stroke-width="1" opacity="0.75" />
			</g>
			<g>
				<title>MacB_PCD (PF12704)
"MacB-like periplasmic core domain"</title>
				<polygon class="PF12704" points="219,28 219,28 242,28 242,52 219,52 219,52" stroke-linejoin="round" width="23" height="24" fill="rgb(79,76,190)" stroke="rgb(63,60,152)" stroke-width="1" opacity="0.75" />
			</g>
		</g>
		<g>
			<title> (ctg247_8)</title>
			<polygon class=" (ctg247_8)" points="251,40 255,10 255,70" fill="rgb(255,255,255)" fill-opacity="1.0" stroke="rgb(0,0,0)" stroke-width="2"  />
		</g>
		<g>
			<title> (ctg247_9)</title>
			<polygon class=" (ctg247_9)" points="260,10 287,40 260,70" fill="rgb(255,255,255)" fill-opacity="1.0" stroke="rgb(0,0,0)" stroke-width="2"  />
			<g>
				<title>FA_desaturase (PF00487)
"Fatty acid desaturase"</title>
				<polygon class="PF00487" points="263,28 272,28 283,40 272,52 263,52" stroke-linejoin="round" width="22" height="24" fill="rgb(104,51,205)" stroke="rgb(83,40,164)" stroke-width="1" opacity="0.75" />
			</g>
		</g>
		<g>
			<title> (ctg247_10)</title>
			<polygon class=" (ctg247_10)" points="302,25 311,25 311,10 341,40 311,70 311,55 302,55" fill="rgb(255,255,255)" fill-opacity="1.0" stroke="rgb(0,0,0)" stroke-width="2"  />
			<g>
				<title>DXP_reductoisom (PF02670)
"1-deoxy-D-xylulose 5-phosphate reductoisomerase"</title>
				<rect class="PF02670" x="302" y="28" stroke-linejoin="round" width="12" height="24" fill="rgb(106,225,169)" stroke="rgb(84,180,135)" stroke-width="1" opacity="0.75" />
			</g>
			<g>
				<title>DXP_redisom_C (PF08436)
"1-deoxy-D-xylulose 5-phosphate reductoisomerase C-terminal domain"</title>
				<rect class="PF08436" x="316" y="28" stroke-linejoin="round" width="8" height="24" fill="rgb(160,186,55)" stroke="rgb(127,148,44)" stroke-width="1" opacity="0.75" />
			</g>
			<g>
				<title>DXPR_C (PF13288)
"DXP reductoisomerase C-terminal domain"</title>
				<polygon class="PF13288" points="328,32 336,40 328,48" stroke-linejoin="round" width="11" height="24" fill="rgb(184,95,48)" stroke="rgb(147,76,38)" stroke-width="1" opacity="0.75" />
			</g>
		</g>
	</g>
</svg>
