<svg version="1.1" baseProfile="full" xmlns="http://www.w3.org/2000/svg" width="130.8" height="80">
	<g>
		<line x1="10" y1="40.0" x2="120.8" y2="40.0" style="stroke:rgb(70,70,70); stroke-width:3 "/>
		<g>
			<title> (ctg251_1)</title>
			<polygon class=" (ctg251_1)" points="26,25 35,25 35,10 65,40 35,70 35,55 26,55" fill="rgb(255,255,255)" fill-opacity="1.0" stroke="rgb(0,0,0)" stroke-width="2"  />
			<g>
				<title>APH (PF01636)
"Phosphotransferase enzyme family"</title>
				<polygon class="PF01636" points="33,28 48,28 53,33 53,47 48,52 33,52" stroke-linejoin="round" width="20" height="24" fill="rgb(106,220,228)" stroke="rgb(84,176,182)" stroke-width="1" opacity="0.75" />
			</g>
		</g>
		<g>
			<title> (ctg251_2)</title>
			<polygon class=" (ctg251_2)" points="66,25 72,25 72,10 102,40 72,70 72,55 66,55" fill="rgb(255,255,255)" fill-opacity="1.0" stroke="rgb(0,0,0)" stroke-width="2"  />
			<g>
				<title>HopA1 (PF17914)
"HopA1 effector protein family"</title>
				<polygon class="PF17914" points="83,28 86,28 98,40 86,52 83,52" stroke-linejoin="round" width="17" height="24" fill="rgb(77,79,213)" stroke="rgb(61,63,170)" stroke-width="1" opacity="0.75" />
			</g>
		</g>
	</g>
</svg>
