<svg version="1.1" baseProfile="full" xmlns="http://www.w3.org/2000/svg" width="179.1" height="80">
	<g>
		<line x1="10" y1="40.0" x2="169.1" y2="40.0" style="stroke:rgb(70,70,70); stroke-width:3 "/>
		<g>
			<title> (ctg242_1)</title>
			<polygon class=" (ctg242_1)" points="52,25 52,25 52,10 22,40 52,70 52,55 52,55" fill="rgb(255,255,255)" fill-opacity="1.0" stroke="rgb(0,0,0)" stroke-width="2"  />
			<g>
				<title>Glycos_transf_2 (PF00535)
"Glycosyl transferase family 2"</title>
				<polygon class="PF00535" points="36,30 38,28 51,28 51,52 38,52 36,50" stroke-linejoin="round" width="15" height="24" fill="rgb(224,122,96)" stroke="rgb(179,97,76)" stroke-width="1" opacity="0.75" />
			</g>
		</g>
		<g>
			<title> (ctg242_2)</title>
			<polygon class=" (ctg242_2)" points="53,10 58,40 53,70" fill="rgb(255,255,255)" fill-opacity="1.0" stroke="rgb(0,0,0)" stroke-width="2"  />
		</g>
		<g>
			<title> (ctg242_3)</title>
			<polygon class=" (ctg242_3)" points="61,10 87,40 61,70" fill="rgb(255,255,255)" fill-opacity="1.0" stroke="rgb(0,0,0)" stroke-width="2"  />
			<g>
				<title>Trp_syntA (PF00290)
"Tryptophan synthase alpha chain"</title>
				<polygon class="PF00290" points="61,28 72,28 83,40 72,52 61,52" stroke-linejoin="round" width="25" height="24" fill="rgb(101,209,118)" stroke="rgb(80,167,94)" stroke-width="1" opacity="0.75" />
			</g>
		</g>
		<g>
			<title> (ctg242_4)</title>
			<polygon class=" (ctg242_4)" points="135,25 124,25 124,10 94,40 124,70 124,55 135,55" fill="rgb(255,255,255)" fill-opacity="1.0" stroke="rgb(0,0,0)" stroke-width="2"  />
			<g>
				<title>Radical_SAM (PF04055)
"Radical SAM superfamily"</title>
				<rect class="PF04055" x="120" y="28" stroke-linejoin="round" width="14" height="24" fill="rgb(149,56,222)" stroke="rgb(119,44,177)" stroke-width="1" opacity="0.75" />
			</g>
		</g>
		<g>
			<title> (ctg242_5)</title>
			<polygon class=" (ctg242_5)" points="136,40 143,10 143,70" fill="rgb(255,255,255)" fill-opacity="1.0" stroke="rgb(0,0,0)" stroke-width="2"  />
		</g>
		<g>
			<title> (ctg242_6)</title>
			<polygon class=" (ctg242_6)" points="145,40 158,10 158,70" fill="rgb(255,255,255)" fill-opacity="1.0" stroke="rgb(0,0,0)" stroke-width="2"  />
			<g>
				<title>Nif11 (PF07862)
"Nif11 domain"</title>
				<polygon class="PF07862" points="153,28 153,28 157,28 157,52 153,52 153,52" stroke-linejoin="round" width="4" height="24" fill="rgb(82,202,204)" stroke="rgb(65,161,163)" stroke-width="1" opacity="0.75" />
			</g>
		</g>
		<g>
			<title> (ctg242_7)</title>
			<polygon class=" (ctg242_7)" points="163,40 168,10 168,70" fill="rgb(255,255,255)" fill-opacity="1.0" stroke="rgb(0,0,0)" stroke-width="2"  />
		</g>
	</g>
</svg>
