<svg version="1.1" baseProfile="full" xmlns="http://www.w3.org/2000/svg" width="475.56666666666666" height="80">
	<g>
		<line x1="10" y1="40.0" x2="465.56666666666666" y2="40.0" style="stroke:rgb(70,70,70); stroke-width:3 "/>
		<g>
			<title> (ctg111_1)</title>
			<polygon class=" (ctg111_1)" points="24,10 31,40 24,70" fill="rgb(255,255,255)" fill-opacity="1.0" stroke="rgb(0,0,0)" stroke-width="2"  />
		</g>
		<g>
			<title> (ctg111_2)</title>
			<polygon class=" (ctg111_2)" points="30,10 36,40 30,70" fill="rgb(255,255,255)" fill-opacity="1.0" stroke="rgb(0,0,0)" stroke-width="2"  />
		</g>
		<g>
			<title> (ctg111_3)</title>
			<polygon class=" (ctg111_3)" points="38,10 56,40 38,70" fill="rgb(255,255,255)" fill-opacity="1.0" stroke="rgb(0,0,0)" stroke-width="2"  />
		</g>
		<g>
			<title> (ctg111_4)</title>
			<polygon class=" (ctg111_4)" points="61,10 75,40 61,70" fill="rgb(255,255,255)" fill-opacity="1.0" stroke="rgb(0,0,0)" stroke-width="2"  />
			<g>
				<title>DUF1345 (PF07077)
"Protein of unknown function (DUF1345)"</title>
				<polygon class="PF07077" points="64,28 66,28 71,40 66,52 64,52" stroke-linejoin="round" width="10" height="24" fill="rgb(214,90,215)" stroke="rgb(171,72,172)" stroke-width="1" opacity="0.75" />
			</g>
		</g>
		<g>
			<title> (ctg111_5)</title>
			<polygon class=" (ctg111_5)" points="106,25 126,25 126,10 156,40 126,70 126,55 106,55" fill="rgb(255,255,255)" fill-opacity="1.0" stroke="rgb(0,0,0)" stroke-width="2"  />
			<g>
				<title>PSII (PF00421)
"Photosystem II protein"</title>
				<polygon class="PF00421" points="106,28 140,28 152,40 140,52 106,52" stroke-linejoin="round" width="49" height="24" fill="rgb(183,68,103)" stroke="rgb(146,54,82)" stroke-width="1" opacity="0.75" />
			</g>
		</g>
		<g>
			<title> (ctg111_6)</title>
			<polygon class=" (ctg111_6)" points="167,40 171,10 171,70" fill="rgb(255,255,255)" fill-opacity="1.0" stroke="rgb(0,0,0)" stroke-width="2"  />
			<g>
				<title>PsbJ (PF01788)
"PsbJ"</title>
				<polygon class="PF01788" points="170,40 170,40 170,40" stroke-linejoin="round" width="3" height="24" fill="rgb(56,185,118)" stroke="rgb(44,148,94)" stroke-width="1" opacity="0.75" />
			</g>
		</g>
		<g>
			<title> (ctg111_7)</title>
			<polygon class=" (ctg111_7)" points="172,40 176,10 176,70" fill="rgb(255,255,255)" fill-opacity="1.0" stroke="rgb(0,0,0)" stroke-width="2"  />
			<g>
				<title>PsbL (PF02419)
"PsbL protein"</title>
				<polygon class="PF02419" points="175,40 175,40 175,40" stroke-linejoin="round" width="3" height="24" fill="rgb(200,88,151)" stroke="rgb(160,70,120)" stroke-width="1" opacity="0.75" />
			</g>
		</g>
		<g>
			<title> (ctg111_8)</title>
			<polygon class=" (ctg111_8)" points="176,40 180,10 180,70" fill="rgb(255,255,255)" fill-opacity="1.0" stroke="rgb(0,0,0)" stroke-width="2"  />
			<g>
				<title>Cytochrom_B559 (PF00283)
"Cytochrome b559, alpha (gene psbE) and beta (gene psbF)subunits"</title>
				<polygon class="PF00283" points="179,40 179,40 179,40" stroke-linejoin="round" width="2" height="24" fill="rgb(69,149,197)" stroke="rgb(55,119,157)" stroke-width="1" opacity="0.75" />
			</g>
		</g>
		<g>
			<title> (ctg111_9)</title>
			<polygon class=" (ctg111_9)" points="182,40 190,10 190,70" fill="rgb(255,255,255)" fill-opacity="1.0" stroke="rgb(0,0,0)" stroke-width="2"  />
			<g>
				<title>Cytochrom_B559a (PF00284)
"Lumenal portion of Cytochrome b559, alpha (gene psbE) subunit"</title>
				<polygon class="PF00284" points="185,40 185,40 185,40" stroke-linejoin="round" width="3" height="24" fill="rgb(87,188,64)" stroke="rgb(69,150,51)" stroke-width="1" opacity="0.75" />
			</g>
			<g>
				<title>Cytochrom_B559 (PF00283)
"Cytochrome b559, alpha (gene psbE) and beta (gene psbF)subunits"</title>
				<polygon class="PF00283" points="186,36 188,28 188,28 188,52 188,52 186,44" stroke-linejoin="round" width="2" height="24" fill="rgb(69,149,197)" stroke="rgb(55,119,157)" stroke-width="1" opacity="0.75" />
			</g>
		</g>
		<g>
			<title> (ctg111_10)</title>
			<polygon class=" (ctg111_10)" points="225,25 222,25 222,10 192,40 222,70 222,55 225,55" fill="rgb(255,255,255)" fill-opacity="1.0" stroke="rgb(0,0,0)" stroke-width="2"  />
			<g>
				<title>PSII_BNR (PF14870)
"Photosynthesis system II assembly factor YCF48"</title>
				<polygon class="PF14870" points="196,40 208,28 222,28 222,52 208,52" stroke-linejoin="round" width="30" height="24" fill="rgb(188,81,115)" stroke="rgb(150,64,92)" stroke-width="1" opacity="0.75" />
			</g>
		</g>
		<g>
			<title> (ctg111_11)</title>
			<polygon class=" (ctg111_11)" points="229,40 240,10 240,70" fill="rgb(255,255,255)" fill-opacity="1.0" stroke="rgb(0,0,0)" stroke-width="2"  />
			<g>
				<title>Rubredoxin (PF00301)
"Rubredoxin"</title>
				<polygon class="PF00301" points="234,35 237,28 238,28 238,52 237,52 234,45" stroke-linejoin="round" width="4" height="24" fill="rgb(130,88,185)" stroke="rgb(104,70,148)" stroke-width="1" opacity="0.75" />
			</g>
		</g>
		<g>
			<title> (ctg111_12)</title>
			<polygon class=" (ctg111_12)" points="260,25 306,25 306,10 336,40 306,70 306,55 260,55" fill="rgb(255,255,255)" fill-opacity="1.0" stroke="rgb(0,0,0)" stroke-width="2"  />
			<g>
				<title>YcaO (PF02624)
"YcaO cyclodehydratase, ATP-ad Mg2+-binding"</title>
				<polygon class="PF02624" points="299,28 320,28 332,40 332,40 320,52 299,52" stroke-linejoin="round" width="33" height="24" fill="rgb(76,84,185)" stroke="rgb(60,67,148)" stroke-width="1" opacity="0.75" />
			</g>
		</g>
		<g>
			<title> (ctg111_13)</title>
			<polygon class=" (ctg111_13)" points="338,40 348,10 348,70" fill="rgb(255,255,255)" fill-opacity="1.0" stroke="rgb(0,0,0)" stroke-width="2"  />
			<g>
				<title>HTH_37 (PF13744)
"Helix-turn-helix domain"</title>
				<polygon class="PF13744" points="341,40 345,28 346,28 346,52 345,52" stroke-linejoin="round" width="8" height="24" fill="rgb(113,218,98)" stroke="rgb(90,174,78)" stroke-width="1" opacity="0.75" />
			</g>
		</g>
		<g>
			<title> (ctg111_14)</title>
			<polygon class=" (ctg111_14)" points="353,40 365,10 365,70" fill="rgb(255,255,255)" fill-opacity="1.0" stroke="rgb(0,0,0)" stroke-width="2"  />
			<g>
				<title>PIN (PF01850)
"PIN domain"</title>
				<polygon class="PF01850" points="356,40 361,28 365,28 365,52 361,52" stroke-linejoin="round" width="12" height="24" fill="rgb(91,217,126)" stroke="rgb(72,173,100)" stroke-width="1" opacity="0.75" />
			</g>
		</g>
		<g>
			<title> (ctg111_15)</title>
			<polygon class=" (ctg111_15)" points="366,40 373,10 373,70" fill="rgb(255,255,255)" fill-opacity="1.0" stroke="rgb(0,0,0)" stroke-width="2"  />
			<g>
				<title>DUF2281 (PF10047)
"Protein of unknown function (DUF2281)"</title>
				<polygon class="PF10047" points="369,40 370,36 370,44" stroke-linejoin="round" width="4" height="24" fill="rgb(200,158,54)" stroke="rgb(160,126,43)" stroke-width="1" opacity="0.75" />
			</g>
		</g>
		<g>
			<title> (ctg111_16)</title>
			<polygon class=" (ctg111_16)" points="374,40 381,10 381,70" fill="rgb(255,255,255)" fill-opacity="1.0" stroke="rgb(0,0,0)" stroke-width="2"  />
			<g>
				<title>PhdYeFM_antitox (PF02604)
"Antitoxin Phd_YefM, type II toxin-antitoxin system"</title>
				<polygon class="PF02604" points="377,40 380,28 381,28 381,52 380,52 377,40" stroke-linejoin="round" width="4" height="24" fill="rgb(204,60,69)" stroke="rgb(163,48,55)" stroke-width="1" opacity="0.75" />
			</g>
		</g>
		<g>
			<title> (ctg111_17)</title>
			<polygon class=" (ctg111_17)" points="393,10 405,40 393,70" fill="rgb(255,255,255)" fill-opacity="1.0" stroke="rgb(0,0,0)" stroke-width="2"  />
			<g>
				<title>Polbeta (PF18765)
"Polymerase beta, Nucleotidyltransferase"</title>
				<polygon class="PF18765" points="397,28 397,28 402,40 397,52 397,52" stroke-linejoin="round" width="8" height="24" fill="rgb(225,120,66)" stroke="rgb(180,96,52)" stroke-width="1" opacity="0.75" />
			</g>
		</g>
		<g>
			<title> (ctg111_18)</title>
			<polygon class=" (ctg111_18)" points="406,10 422,40 406,70" fill="rgb(255,255,255)" fill-opacity="1.0" stroke="rgb(0,0,0)" stroke-width="2"  />
		</g>
		<g>
			<title> (ctg111_19)</title>
			<polygon class=" (ctg111_19)" points="431,40 440,10 440,70" fill="rgb(255,255,255)" fill-opacity="1.0" stroke="rgb(0,0,0)" stroke-width="2"  />
		</g>
		<g>
			<title> (ctg111_20)</title>
			<polygon class=" (ctg111_20)" points="444,40 455,10 455,70" fill="rgb(255,255,255)" fill-opacity="1.0" stroke="rgb(0,0,0)" stroke-width="2"  />
			<g>
				<title>BrnT_toxin (PF04365)
"Ribonuclease toxin, BrnT, of type II toxin-antitoxin system"</title>
				<polygon class="PF04365" points="447,40 448,37 448,43" stroke-linejoin="round" width="4" height="24" fill="rgb(81,152,189)" stroke="rgb(64,121,151)" stroke-width="1" opacity="0.75" />
			</g>
		</g>
		<g>
			<title> (ctg111_21)</title>
			<polygon class=" (ctg111_21)" points="461,40 465,10 465,70" fill="rgb(255,255,255)" fill-opacity="1.0" stroke="rgb(0,0,0)" stroke-width="2"  />
		</g>
	</g>
</svg>
