<svg version="1.1" baseProfile="full" xmlns="http://www.w3.org/2000/svg" width="650.0666666666667" height="80">
	<g>
		<line x1="10" y1="40.0" x2="640.0666666666667" y2="40.0" style="stroke:rgb(70,70,70); stroke-width:3 "/>
		<g>
			<title> (ctg480_1)</title>
			<polygon class=" (ctg480_1)" points="10,40 39,10 39,70" fill="rgb(255,255,255)" fill-opacity="1.0" stroke="rgb(0,0,0)" stroke-width="2"  />
		</g>
		<g>
			<title> (ctg480_2)</title>
			<polygon class=" (ctg480_2)" points="75,25 68,25 68,10 38,40 68,70 68,55 75,55" fill="rgb(255,255,255)" fill-opacity="1.0" stroke="rgb(0,0,0)" stroke-width="2"  />
		</g>
		<g>
			<title> (ctg480_3)</title>
			<polygon class=" (ctg480_3)" points="76,40 93,10 93,70" fill="rgb(255,255,255)" fill-opacity="1.0" stroke="rgb(0,0,0)" stroke-width="2"  />
			<g>
				<title>Uma2 (PF05685)
"Putative restriction endonuclease"</title>
				<polygon class="PF05685" points="79,40 86,28 92,28 92,52 86,52" stroke-linejoin="round" width="14" height="24" fill="rgb(123,107,219)" stroke="rgb(98,85,175)" stroke-width="1" opacity="0.75" />
			</g>
		</g>
		<g>
			<title> (ctg480_4)</title>
			<polygon class=" (ctg480_4)" points="94,40 98,10 98,70" fill="rgb(255,255,255)" fill-opacity="1.0" stroke="rgb(0,0,0)" stroke-width="2"  />
		</g>
		<g>
			<title> (ctg480_5)</title>
			<polygon class=" (ctg480_5)" points="102,40 116,10 116,70" fill="rgb(255,255,255)" fill-opacity="1.0" stroke="rgb(0,0,0)" stroke-width="2"  />
		</g>
		<g>
			<title> (ctg480_6)</title>
			<polygon class=" (ctg480_6)" points="120,25 122,25 122,10 152,40 122,70 122,55 120,55" fill="rgb(255,255,255)" fill-opacity="1.0" stroke="rgb(0,0,0)" stroke-width="2"  />
			<g>
				<title>DUF4277 (PF14104)
"Domain of unknown function (DUF4277)"</title>
				<rect class="PF14104" x="120" y="28" stroke-linejoin="round" width="10" height="24" fill="rgb(67,132,210)" stroke="rgb(53,105,168)" stroke-width="1" opacity="0.75" />
			</g>
			<g>
				<title>DDE_Tnp_1 (PF01609)
"Transposase DDE domain"</title>
				<polygon class="PF01609" points="132,28 136,28 148,40 136,52 132,52" stroke-linejoin="round" width="19" height="24" fill="rgb(229,102,99)" stroke="rgb(183,81,79)" stroke-width="1" opacity="0.75" />
			</g>
		</g>
		<g>
			<title> (ctg480_7)</title>
			<polygon class=" (ctg480_7)" points="155,10 176,40 155,70" fill="rgb(255,255,255)" fill-opacity="1.0" stroke="rgb(0,0,0)" stroke-width="2"  />
		</g>
		<g>
			<title> (ctg480_8)</title>
			<polygon class=" (ctg480_8)" points="220,25 215,25 215,10 185,40 215,70 215,55 220,55" fill="rgb(255,255,255)" fill-opacity="1.0" stroke="rgb(0,0,0)" stroke-width="2"  />
			<g>
				<title>Esterase_PHB (PF10503)
"Esterase PHB depolymerase"</title>
				<polygon class="PF10503" points="196,33 201,28 213,28 213,52 201,52 196,47" stroke-linejoin="round" width="17" height="24" fill="rgb(189,202,77)" stroke="rgb(151,161,61)" stroke-width="1" opacity="0.75" />
			</g>
		</g>
		<g>
			<title> (ctg480_9)</title>
			<polygon class=" (ctg480_9)" points="308,25 252,25 252,10 222,40 252,70 252,55 308,55" fill="rgb(255,255,255)" fill-opacity="1.0" stroke="rgb(0,0,0)" stroke-width="2"  />
			<g>
				<title>HlyD_D23 (PF16576)
"Barrel-sandwich domain of CusB or HlyD membrane-fusion"</title>
				<polygon class="PF16576" points="227,39 238,28 250,28 250,52 238,52 227,41" stroke-linejoin="round" width="23" height="24" fill="rgb(70,190,92)" stroke="rgb(56,152,73)" stroke-width="1" opacity="0.75" />
			</g>
		</g>
		<g>
			<title> (ctg480_10)</title>
			<polygon class=" (ctg480_10)" points="333,25 335,25 335,10 365,40 335,70 335,55 333,55" fill="rgb(255,255,255)" fill-opacity="1.0" stroke="rgb(0,0,0)" stroke-width="2"  />
			<g>
				<title>Methyltransf_11 (PF08241)
"Methyltransferase domain"</title>
				<rect class="PF08241" x="339" y="28" stroke-linejoin="round" width="10" height="24" fill="rgb(106,219,159)" stroke="rgb(84,175,127)" stroke-width="1" opacity="0.75" />
			</g>
		</g>
		<g>
			<title> (ctg480_11)</title>
			<polygon class=" (ctg480_11)" points="371,25 375,25 375,10 405,40 375,70 375,55 371,55" fill="rgb(255,255,255)" fill-opacity="1.0" stroke="rgb(0,0,0)" stroke-width="2"  />
			<g>
				<title>Radical_SAM (PF04055)
"Radical SAM superfamily"</title>
				<polygon class="PF04055" points="375,28 389,28 390,29 390,51 389,52 375,52" stroke-linejoin="round" width="15" height="24" fill="rgb(149,56,222)" stroke="rgb(119,44,177)" stroke-width="1" opacity="0.75" />
			</g>
			<g>
				<title>DUF3641 (PF12345)
"Protein of unknown function (DUF3641)"</title>
				<polygon class="PF12345" points="391,30 401,40 391,50" stroke-linejoin="round" width="13" height="24" fill="rgb(88,191,80)" stroke="rgb(70,152,64)" stroke-width="1" opacity="0.75" />
			</g>
		</g>
		<g>
			<title> (ctg480_12)</title>
			<polygon class=" (ctg480_12)" points="413,40 422,10 422,70" fill="rgb(255,255,255)" fill-opacity="1.0" stroke="rgb(0,0,0)" stroke-width="2"  />
			<g>
				<title>DUF3143 (PF11341)
"Protein of unknown function (DUF3143)"</title>
				<polygon class="PF11341" points="416,40 419,30 419,50" stroke-linejoin="round" width="6" height="24" fill="rgb(216,218,83)" stroke="rgb(172,174,66)" stroke-width="1" opacity="0.75" />
			</g>
		</g>
		<g>
			<title> (ctg480_13)</title>
			<polygon class=" (ctg480_13)" points="423,40 439,10 439,70" fill="rgb(255,255,255)" fill-opacity="1.0" stroke="rgb(0,0,0)" stroke-width="2"  />
			<g>
				<title>DnaJ (PF00226)
"DnaJ domain"</title>
				<polygon class="PF00226" points="430,33 433,28 436,28 436,52 433,52 430,47" stroke-linejoin="round" width="6" height="24" fill="rgb(207,80,207)" stroke="rgb(165,63,165)" stroke-width="1" opacity="0.75" />
			</g>
		</g>
		<g>
			<title> (ctg480_14)</title>
			<polygon class=" (ctg480_14)" points="470,10 493,40 470,70" fill="rgb(255,255,255)" fill-opacity="1.0" stroke="rgb(0,0,0)" stroke-width="2"  />
			<g>
				<title>DnaJ (PF00226)
"DnaJ domain"</title>
				<rect class="PF00226" x="470" y="28" stroke-linejoin="round" width="6" height="24" fill="rgb(207,80,207)" stroke="rgb(165,63,165)" stroke-width="1" opacity="0.75" />
			</g>
		</g>
		<g>
			<title> (ctg480_15)</title>
			<polygon class=" (ctg480_15)" points="493,10 515,40 493,70" fill="rgb(255,255,255)" fill-opacity="1.0" stroke="rgb(0,0,0)" stroke-width="2"  />
			<g>
				<title>DUF3611 (PF12263)
"Protein of unknown function (DUF3611)"</title>
				<polygon class="PF12263" points="497,28 503,28 511,40 503,52 497,52" stroke-linejoin="round" width="17" height="24" fill="rgb(224,81,153)" stroke="rgb(179,64,122)" stroke-width="1" opacity="0.75" />
			</g>
		</g>
		<g>
			<title> (ctg480_16)</title>
			<polygon class=" (ctg480_16)" points="516,10 527,40 516,70" fill="rgb(255,255,255)" fill-opacity="1.0" stroke="rgb(0,0,0)" stroke-width="2"  />
			<g>
				<title>DUF565 (PF04483)
"Protein of unknown function (DUF565)"</title>
				<polygon class="PF04483" points="521,32 524,40 521,48" stroke-linejoin="round" width="6" height="24" fill="rgb(70,229,162)" stroke="rgb(56,183,129)" stroke-width="1" opacity="0.75" />
			</g>
		</g>
		<g>
			<title> (ctg480_17)</title>
			<polygon class=" (ctg480_17)" points="538,25 589,25 589,10 619,40 589,70 589,55 538,55" fill="rgb(255,255,255)" fill-opacity="1.0" stroke="rgb(0,0,0)" stroke-width="2"  />
			<g>
				<title>TPR_8 (PF13181)
"Tetratricopeptide repeat"</title>
				<rect class="PF13181" x="563" y="28" stroke-linejoin="round" width="3" height="24" fill="rgb(182,172,47)" stroke="rgb(145,137,37)" stroke-width="1" opacity="0.75" />
			</g>
			<g>
				<title>TPR_8 (PF13181)
"Tetratricopeptide repeat"</title>
				<rect class="PF13181" x="576" y="28" stroke-linejoin="round" width="3" height="24" fill="rgb(182,172,47)" stroke="rgb(145,137,37)" stroke-width="1" opacity="0.75" />
			</g>
			<g>
				<title>TPR_16 (PF13432)
"Tetratricopeptide repeat"</title>
				<rect class="PF13432" x="581" y="28" stroke-linejoin="round" width="5" height="24" fill="rgb(154,205,86)" stroke="rgb(123,164,68)" stroke-width="1" opacity="0.75" />
			</g>
			<g>
				<title>TPR_16 (PF13432)
"Tetratricopeptide repeat"</title>
				<rect class="PF13432" x="591" y="28" stroke-linejoin="round" width="6" height="24" fill="rgb(154,205,86)" stroke="rgb(123,164,68)" stroke-width="1" opacity="0.75" />
			</g>
			<g>
				<title>TPR_11 (PF13414)
"TPR repeat"</title>
				<polygon class="PF13414" points="608,33 611,36 611,44 608,47" stroke-linejoin="round" width="3" height="24" fill="rgb(55,76,182)" stroke="rgb(44,60,145)" stroke-width="1" opacity="0.75" />
			</g>
		</g>
		<g>
			<title> (ctg480_18)</title>
			<polygon class=" (ctg480_18)" points="629,40 639,10 639,70" fill="rgb(255,255,255)" fill-opacity="1.0" stroke="rgb(0,0,0)" stroke-width="2"  />
			<g>
				<title>TPR_1 (PF00515)
"Tetratricopeptide repeat"</title>
				<polygon class="PF00515" points="634,34 636,28 637,28 637,52 636,52 634,46" stroke-linejoin="round" width="3" height="24" fill="rgb(193,73,189)" stroke="rgb(154,58,151)" stroke-width="1" opacity="0.75" />
			</g>
		</g>
	</g>
</svg>
