<svg version="1.1" baseProfile="full" xmlns="http://www.w3.org/2000/svg" width="532.5666666666667" height="80">
	<g>
		<line x1="10" y1="40.0" x2="522.5666666666667" y2="40.0" style="stroke:rgb(70,70,70); stroke-width:3 "/>
		<g>
			<title> (ctg447_1)</title>
			<polygon class=" (ctg447_1)" points="10,40 14,10 14,70" fill="rgb(255,255,255)" fill-opacity="1.0" stroke="rgb(0,0,0)" stroke-width="2"  />
		</g>
		<g>
			<title> (ctg447_2)</title>
			<polygon class=" (ctg447_2)" points="110,25 56,25 56,10 26,40 56,70 56,55 110,55" fill="rgb(255,255,255)" fill-opacity="1.0" stroke="rgb(0,0,0)" stroke-width="2"  />
			<g>
				<title>PS-DH (PF14765)
"Polyketide synthase dehydratase"</title>
				<polygon class="PF14765" points="30,40 42,28 55,28 55,52 42,52" stroke-linejoin="round" width="28" height="24" fill="rgb(173,56,182)" stroke="rgb(138,44,145)" stroke-width="1" opacity="0.75" />
			</g>
			<g>
				<title>KR (PF08659)
"KR domain"</title>
				<rect class="PF08659" x="62" y="28" stroke-linejoin="round" width="22" height="24" fill="rgb(66,209,188)" stroke="rgb(52,167,150)" stroke-width="1" opacity="0.75" />
			</g>
		</g>
		<g>
			<title> (ctg447_3)</title>
			<polygon class=" (ctg447_3)" points="306,25 139,25 139,10 109,40 139,70 139,55 306,55" fill="rgb(255,255,255)" fill-opacity="1.0" stroke="rgb(0,0,0)" stroke-width="2"  />
			<g>
				<title>PP-binding (PF00550)
"Phosphopantetheine attachment site"</title>
				<polygon class="PF00550" points="113,40 117,36 117,44" stroke-linejoin="round" width="6" height="24" fill="rgb(103,191,88)" stroke="rgb(82,152,70)" stroke-width="1" opacity="0.75" />
			</g>
			<g>
				<title>Acyl_transf_1 (PF00698)
"Acyl transferase domain"</title>
				<rect class="PF00698" x="149" y="28" stroke-linejoin="round" width="30" height="24" fill="rgb(59,176,209)" stroke="rgb(47,140,167)" stroke-width="1" opacity="0.75" />
			</g>
			<g>
				<title>Ketoacyl-synt_C (PF02801)
"Beta-ketoacyl synthase, C-terminal domain"</title>
				<rect class="PF02801" x="197" y="28" stroke-linejoin="round" width="11" height="24" fill="rgb(215,78,102)" stroke="rgb(172,62,81)" stroke-width="1" opacity="0.75" />
			</g>
			<g>
				<title>ketoacyl-synt (PF00109)
"Beta-ketoacyl synthase, N-terminal domain"</title>
				<rect class="PF00109" x="209" y="28" stroke-linejoin="round" width="26" height="24" fill="rgb(112,116,228)" stroke="rgb(89,92,182)" stroke-width="1" opacity="0.75" />
			</g>
			<g>
				<title>NMO (PF03060)
"Nitronate monooxygenase"</title>
				<rect class="PF03060" x="238" y="28" stroke-linejoin="round" width="34" height="24" fill="rgb(100,193,226)" stroke="rgb(80,154,180)" stroke-width="1" opacity="0.75" />
			</g>
		</g>
		<g>
			<title> (ctg447_4)</title>
			<polygon class=" (ctg447_4)" points="338,25 337,25 337,10 307,40 337,70 337,55 338,55" fill="rgb(255,255,255)" fill-opacity="1.0" stroke="rgb(0,0,0)" stroke-width="2"  />
			<g>
				<title>CobW_C (PF07683)
"Cobalamin synthesis protein cobW C-terminal domain"</title>
				<polygon class="PF07683" points="311,40 316,35 316,45" stroke-linejoin="round" width="9" height="24" fill="rgb(172,98,218)" stroke="rgb(137,78,174)" stroke-width="1" opacity="0.75" />
			</g>
			<g>
				<title>cobW (PF02492)
"CobW/HypB/UreG, nucleotide-binding domain"</title>
				<polygon class="PF02492" points="320,31 323,28 337,28 337,52 323,52 320,49" stroke-linejoin="round" width="17" height="24" fill="rgb(79,112,178)" stroke="rgb(63,89,142)" stroke-width="1" opacity="0.75" />
			</g>
		</g>
		<g>
			<title> (ctg447_5)</title>
			<polygon class=" (ctg447_5)" points="340,40 369,10 369,70" fill="rgb(255,255,255)" fill-opacity="1.0" stroke="rgb(0,0,0)" stroke-width="2"  />
			<g>
				<title>Methyltransf_31 (PF13847)
"Methyltransferase domain"</title>
				<polygon class="PF13847" points="347,37 356,28 365,28 365,52 356,52 347,43" stroke-linejoin="round" width="18" height="24" fill="rgb(214,74,181)" stroke="rgb(171,59,144)" stroke-width="1" opacity="0.75" />
			</g>
		</g>
		<g>
			<title> (ctg447_6)</title>
			<polygon class=" (ctg447_6)" points="371,40 399,10 399,70" fill="rgb(255,255,255)" fill-opacity="1.0" stroke="rgb(0,0,0)" stroke-width="2"  />
			<g>
				<title>Sulfatase (PF00884)
"Sulfatase"</title>
				<polygon class="PF00884" points="375,40 386,28 398,28 398,52 386,52" stroke-linejoin="round" width="27" height="24" fill="rgb(61,103,198)" stroke="rgb(48,82,158)" stroke-width="1" opacity="0.75" />
			</g>
		</g>
		<g>
			<title> (ctg447_7)</title>
			<polygon class=" (ctg447_7)" points="409,25 410,25 410,10 440,40 410,70 410,55 409,55" fill="rgb(255,255,255)" fill-opacity="1.0" stroke="rgb(0,0,0)" stroke-width="2"  />
			<g>
				<title>TPR_16 (PF13432)
"Tetratricopeptide repeat"</title>
				<rect class="PF13432" x="411" y="28" stroke-linejoin="round" width="6" height="24" fill="rgb(154,205,86)" stroke="rgb(123,164,68)" stroke-width="1" opacity="0.75" />
			</g>
			<g>
				<title>TPR_11 (PF13414)
"TPR repeat"</title>
				<rect class="PF13414" x="418" y="28" stroke-linejoin="round" width="4" height="24" fill="rgb(55,76,182)" stroke="rgb(44,60,145)" stroke-width="1" opacity="0.75" />
			</g>
			<g>
				<title>TPR_19 (PF14559)
"Tetratricopeptide repeat"</title>
				<polygon class="PF14559" points="428,33 434,39 434,41 428,47" stroke-linejoin="round" width="6" height="24" fill="rgb(182,60,145)" stroke="rgb(145,48,115)" stroke-width="1" opacity="0.75" />
			</g>
		</g>
		<g>
			<title> (ctg447_8)</title>
			<polygon class=" (ctg447_8)" points="455,10 474,40 455,70" fill="rgb(255,255,255)" fill-opacity="1.0" stroke="rgb(0,0,0)" stroke-width="2"  />
		</g>
		<g>
			<title> (ctg447_9)</title>
			<polygon class=" (ctg447_9)" points="477,25 483,25 483,10 513,40 483,70 483,55 477,55" fill="rgb(255,255,255)" fill-opacity="1.0" stroke="rgb(0,0,0)" stroke-width="2"  />
			<g>
				<title>Rieske (PF00355)
"Rieske [2Fe-2S] domain"</title>
				<rect class="PF00355" x="479" y="28" stroke-linejoin="round" width="9" height="24" fill="rgb(186,77,145)" stroke="rgb(148,61,115)" stroke-width="1" opacity="0.75" />
			</g>
			<g>
				<title>Ring_hydroxyl_A (PF00848)
"Ring hydroxylating alpha subunit (catalytic domain)"</title>
				<polygon class="PF00848" points="492,28 497,28 509,40 497,52 492,52" stroke-linejoin="round" width="20" height="24" fill="rgb(76,134,184)" stroke="rgb(60,107,147)" stroke-width="1" opacity="0.75" />
			</g>
		</g>
	</g>
</svg>
