<svg version="1.1" baseProfile="full" xmlns="http://www.w3.org/2000/svg" width="644.1333333333333" height="80">
	<g>
		<line x1="10" y1="40.0" x2="634.1333333333333" y2="40.0" style="stroke:rgb(70,70,70); stroke-width:3 "/>
		<g>
			<title> (ctg86_1)</title>
			<polygon class=" (ctg86_1)" points="10,40 18,10 18,70" fill="rgb(255,255,255)" fill-opacity="1.0" stroke="rgb(0,0,0)" stroke-width="2"  />
			<g>
				<title>DDE_Tnp_1_3 (PF13612)
"Transposase DDE domain"</title>
				<polygon class="PF13612" points="13,40 15,33 15,47" stroke-linejoin="round" width="5" height="24" fill="rgb(205,75,164)" stroke="rgb(164,60,131)" stroke-width="1" opacity="0.75" />
			</g>
		</g>
		<g>
			<title> (ctg86_2)</title>
			<polygon class=" (ctg86_2)" points="25,25 27,25 27,10 57,40 27,70 27,55 25,55" fill="rgb(255,255,255)" fill-opacity="1.0" stroke="rgb(0,0,0)" stroke-width="2"  />
			<g>
				<title>MR_MLE_C (PF13378)
"Enolase C-terminal domain-like"</title>
				<polygon class="PF13378" points="37,28 40,28 52,40 40,52 37,52" stroke-linejoin="round" width="18" height="24" fill="rgb(191,184,94)" stroke="rgb(152,147,75)" stroke-width="1" opacity="0.75" />
			</g>
		</g>
		<g>
			<title> (ctg86_3)</title>
			<polygon class=" (ctg86_3)" points="56,25 71,25 71,10 101,40 71,70 71,55 56,55" fill="rgb(255,255,255)" fill-opacity="1.0" stroke="rgb(0,0,0)" stroke-width="2"  />
			<g>
				<title>AMP-binding (PF00501)
"AMP-binding enzyme"</title>
				<polygon class="PF00501" points="66,28 84,28 90,34 90,46 84,52 66,52" stroke-linejoin="round" width="24" height="24" fill="rgb(60,217,223)" stroke="rgb(48,173,178)" stroke-width="1" opacity="0.75" />
			</g>
			<g>
				<title>AMP-binding_C (PF13193)
"AMP-binding enzyme C-terminal domain"</title>
				<polygon class="PF13193" points="91,35 96,40 91,45" stroke-linejoin="round" width="7" height="24" fill="rgb(182,50,118)" stroke="rgb(145,39,94)" stroke-width="1" opacity="0.75" />
			</g>
		</g>
		<g>
			<title> (ctg86_4)</title>
			<polygon class=" (ctg86_4)" points="149,25 132,25 132,10 102,40 132,70 132,55 149,55" fill="rgb(255,255,255)" fill-opacity="1.0" stroke="rgb(0,0,0)" stroke-width="2"  />
			<g>
				<title>HlyD_3 (PF13437)
"HlyD family secretion protein"</title>
				<polygon class="PF13437" points="109,37 118,28 120,28 120,52 118,52 109,43" stroke-linejoin="round" width="11" height="24" fill="rgb(82,200,102)" stroke="rgb(65,160,81)" stroke-width="1" opacity="0.75" />
			</g>
			<g>
				<title>Biotin_lipoyl_2 (PF13533)
"Biotin-lipoyl like"</title>
				<rect class="PF13533" x="137" y="28" stroke-linejoin="round" width="4" height="24" fill="rgb(229,122,112)" stroke="rgb(183,97,89)" stroke-width="1" opacity="0.75" />
			</g>
		</g>
		<g>
			<title> (ctg86_5)</title>
			<polygon class=" (ctg86_5)" points="190,25 180,25 180,10 150,40 180,70 180,55 190,55" fill="rgb(255,255,255)" fill-opacity="1.0" stroke="rgb(0,0,0)" stroke-width="2"  />
			<g>
				<title>FtsX (PF02687)
"FtsX-like permease family"</title>
				<polygon class="PF02687" points="154,40 158,36 158,44" stroke-linejoin="round" width="8" height="24" fill="rgb(126,55,214)" stroke="rgb(100,44,171)" stroke-width="1" opacity="0.75" />
			</g>
			<g>
				<title>MacB_PCD (PF12704)
"MacB-like periplasmic core domain"</title>
				<polygon class="PF12704" points="165,29 166,28 187,28 187,52 166,52 165,51" stroke-linejoin="round" width="22" height="24" fill="rgb(79,76,190)" stroke="rgb(63,60,152)" stroke-width="1" opacity="0.75" />
			</g>
		</g>
		<g>
			<title> (ctg86_6)</title>
			<polygon class=" (ctg86_6)" points="230,25 220,25 220,10 190,40 220,70 220,55 230,55" fill="rgb(255,255,255)" fill-opacity="1.0" stroke="rgb(0,0,0)" stroke-width="2"  />
		</g>
		<g>
			<title> (ctg86_7)</title>
			<polygon class=" (ctg86_7)" points="300,25 261,25 261,10 231,40 261,70 261,55 300,55" fill="rgb(255,255,255)" fill-opacity="1.0" stroke="rgb(0,0,0)" stroke-width="2"  />
			<g>
				<title>SQHop_cyclase_C (PF13243)
"Squalene-hopene cyclase C-terminal domain"</title>
				<polygon class="PF13243" points="235,40 247,28 261,28 261,52 247,52 235,40" stroke-linejoin="round" width="26" height="24" fill="rgb(191,58,201)" stroke="rgb(152,46,160)" stroke-width="1" opacity="0.75" />
			</g>
		</g>
		<g>
			<title> (ctg86_8)</title>
			<polygon class=" (ctg86_8)" points="306,40 311,10 311,70" fill="rgb(255,255,255)" fill-opacity="1.0" stroke="rgb(0,0,0)" stroke-width="2"  />
		</g>
		<g>
			<title> (ctg86_9)</title>
			<polygon class=" (ctg86_9)" points="365,25 345,25 345,10 315,40 345,70 345,55 365,55" fill="rgb(255,255,255)" fill-opacity="1.0" stroke="rgb(0,0,0)" stroke-width="2"  />
			<g>
				<title>Radical_SAM (PF04055)
"Radical SAM superfamily"</title>
				<rect class="PF04055" x="335" y="28" stroke-linejoin="round" width="17" height="24" fill="rgb(149,56,222)" stroke="rgb(119,44,177)" stroke-width="1" opacity="0.75" />
			</g>
		</g>
		<g>
			<title> (ctg86_10)</title>
			<polygon class=" (ctg86_10)" points="387,25 406,25 406,10 436,40 406,70 406,55 387,55" fill="rgb(255,255,255)" fill-opacity="1.0" stroke="rgb(0,0,0)" stroke-width="2"  />
			<g>
				<title>Proton_antipo_M (PF00361)
"Proton-conducting membrane transporter"</title>
				<polygon class="PF00361" points="399,28 419,28 428,37 428,43 419,52 399,52" stroke-linejoin="round" width="29" height="24" fill="rgb(54,193,132)" stroke="rgb(43,154,105)" stroke-width="1" opacity="0.75" />
			</g>
		</g>
		<g>
			<title> (ctg86_11)</title>
			<polygon class=" (ctg86_11)" points="481,25 468,25 468,10 438,40 468,70 468,55 481,55" fill="rgb(255,255,255)" fill-opacity="1.0" stroke="rgb(0,0,0)" stroke-width="2"  />
			<g>
				<title>Aminotran_5 (PF00266)
"Aminotransferase class-V"</title>
				<polygon class="PF00266" points="442,40 454,28 475,28 475,52 454,52" stroke-linejoin="round" width="36" height="24" fill="rgb(214,54,122)" stroke="rgb(171,43,97)" stroke-width="1" opacity="0.75" />
			</g>
		</g>
		<g>
			<title> (ctg86_12)</title>
			<polygon class=" (ctg86_12)" points="488,10 506,40 488,70" fill="rgb(255,255,255)" fill-opacity="1.0" stroke="rgb(0,0,0)" stroke-width="2"  />
			<g>
				<title>GXWXG (PF14231)
"GXWXG protein"</title>
				<rect class="PF14231" x="490" y="28" stroke-linejoin="round" width="5" height="24" fill="rgb(47,179,160)" stroke="rgb(37,143,127)" stroke-width="1" opacity="0.75" />
			</g>
			<g>
				<title>DUF4334 (PF14232)
"Domain of unknown function (DUF4334)"</title>
				<polygon class="PF14232" points="500,35 503,40 500,45" stroke-linejoin="round" width="5" height="24" fill="rgb(214,119,60)" stroke="rgb(171,95,47)" stroke-width="1" opacity="0.75" />
			</g>
		</g>
		<g>
			<title> (ctg86_13)</title>
			<polygon class=" (ctg86_13)" points="506,40 520,10 520,70" fill="rgb(255,255,255)" fill-opacity="1.0" stroke="rgb(0,0,0)" stroke-width="2"  />
			<g>
				<title>Prok-JAB (PF14464)
"Prokaryotic homologs of the JAB domain"</title>
				<polygon class="PF14464" points="509,40 515,28 519,28 519,52 515,52" stroke-linejoin="round" width="12" height="24" fill="rgb(187,62,157)" stroke="rgb(149,49,125)" stroke-width="1" opacity="0.75" />
			</g>
		</g>
		<g>
			<title> (ctg86_14)</title>
			<polygon class=" (ctg86_14)" points="565,25 553,25 553,10 523,40 553,70 553,55 565,55" fill="rgb(255,255,255)" fill-opacity="1.0" stroke="rgb(0,0,0)" stroke-width="2"  />
			<g>
				<title>GtrA (PF04138)
"GtrA-like protein"</title>
				<polygon class="PF04138" points="527,40 535,32 535,48" stroke-linejoin="round" width="12" height="24" fill="rgb(72,221,86)" stroke="rgb(57,176,68)" stroke-width="1" opacity="0.75" />
			</g>
			<g>
				<title>Glycos_transf_2 (PF00535)
"Glycosyl transferase family 2"</title>
				<rect class="PF00535" x="543" y="28" stroke-linejoin="round" width="16" height="24" fill="rgb(224,122,96)" stroke="rgb(179,97,76)" stroke-width="1" opacity="0.75" />
			</g>
		</g>
		<g>
			<title> (ctg86_15)</title>
			<polygon class=" (ctg86_15)" points="568,40 578,10 578,70" fill="rgb(255,255,255)" fill-opacity="1.0" stroke="rgb(0,0,0)" stroke-width="2"  />
			<g>
				<title>FGE-sulfatase (PF03781)
"Sulfatase-modifying factor enzyme 1"</title>
				<polygon class="PF03781" points="571,40 575,28 578,28 578,52 575,52" stroke-linejoin="round" width="10" height="24" fill="rgb(206,81,170)" stroke="rgb(164,64,136)" stroke-width="1" opacity="0.75" />
			</g>
		</g>
		<g>
			<title> (ctg86_16)</title>
			<polygon class=" (ctg86_16)" points="595,10 604,40 595,70" fill="rgb(255,255,255)" fill-opacity="1.0" stroke="rgb(0,0,0)" stroke-width="2"  />
		</g>
	</g>
</svg>
