<svg version="1.1" baseProfile="full" xmlns="http://www.w3.org/2000/svg" width="379.43333333333334" height="80">
	<g>
		<line x1="10" y1="40.0" x2="369.43333333333334" y2="40.0" style="stroke:rgb(70,70,70); stroke-width:3 "/>
		<g>
			<title> (ctg560_1)</title>
			<polygon class=" (ctg560_1)" points="14,40 43,10 43,70" fill="rgb(255,255,255)" fill-opacity="1.0" stroke="rgb(0,0,0)" stroke-width="2"  />
			<g>
				<title>RAMPs (PF03787)
"RAMP superfamily"</title>
				<polygon class="PF03787" points="18,40 30,28 42,28 42,52 30,52" stroke-linejoin="round" width="27" height="24" fill="rgb(157,209,52)" stroke="rgb(125,167,41)" stroke-width="1" opacity="0.75" />
			</g>
		</g>
		<g>
			<title> (ctg560_2)</title>
			<polygon class=" (ctg560_2)" points="77,25 74,25 74,10 44,40 74,70 74,55 77,55" fill="rgb(255,255,255)" fill-opacity="1.0" stroke="rgb(0,0,0)" stroke-width="2"  />
		</g>
		<g>
			<title> (ctg560_3)</title>
			<polygon class=" (ctg560_3)" points="84,10 96,40 84,70" fill="rgb(255,255,255)" fill-opacity="1.0" stroke="rgb(0,0,0)" stroke-width="2"  />
			<g>
				<title>DUF3288 (PF11691)
"Protein of unknown function (DUF3288)"</title>
				<polygon class="PF11691" points="87,28 87,28 93,40 87,52 87,52" stroke-linejoin="round" width="8" height="24" fill="rgb(101,212,216)" stroke="rgb(80,169,172)" stroke-width="1" opacity="0.75" />
			</g>
		</g>
		<g>
			<title> (ctg560_4)</title>
			<polygon class=" (ctg560_4)" points="128,25 128,25 128,10 98,40 128,70 128,55 128,55" fill="rgb(255,255,255)" fill-opacity="1.0" stroke="rgb(0,0,0)" stroke-width="2"  />
		</g>
		<g>
			<title> (ctg560_5)</title>
			<polygon class=" (ctg560_5)" points="184,25 181,25 181,10 151,40 181,70 181,55 184,55" fill="rgb(255,255,255)" fill-opacity="1.0" stroke="rgb(0,0,0)" stroke-width="2"  />
			<g>
				<title>Glycos_transf_1 (PF00534)
"Glycosyl transferases group 1"</title>
				<polygon class="PF00534" points="157,38 167,28 170,28 170,52 167,52 157,42" stroke-linejoin="round" width="13" height="24" fill="rgb(228,92,150)" stroke="rgb(182,73,119)" stroke-width="1" opacity="0.75" />
			</g>
		</g>
		<g>
			<title> (ctg560_6)</title>
			<polygon class=" (ctg560_6)" points="199,10 209,40 199,70" fill="rgb(255,255,255)" fill-opacity="1.0" stroke="rgb(0,0,0)" stroke-width="2"  />
			<g>
				<title>HigB_toxin (PF09907)
"HigB_toxin, RelE-like toxic component of a toxin-antitoxin system"</title>
				<polygon class="PF09907" points="200,28 201,28 206,40 201,52 200,52" stroke-linejoin="round" width="7" height="24" fill="rgb(169,190,88)" stroke="rgb(135,152,70)" stroke-width="1" opacity="0.75" />
			</g>
		</g>
		<g>
			<title> (ctg560_7)</title>
			<polygon class=" (ctg560_7)" points="217,10 230,40 217,70" fill="rgb(255,255,255)" fill-opacity="1.0" stroke="rgb(0,0,0)" stroke-width="2"  />
		</g>
		<g>
			<title> (ctg560_8)</title>
			<polygon class=" (ctg560_8)" points="295,25 262,25 262,10 232,40 262,70 262,55 295,55" fill="rgb(255,255,255)" fill-opacity="1.0" stroke="rgb(0,0,0)" stroke-width="2"  />
			<g>
				<title>SQHop_cyclase_C (PF13243)
"Squalene-hopene cyclase C-terminal domain"</title>
				<polygon class="PF13243" points="236,40 248,28 264,28 264,52 248,52" stroke-linejoin="round" width="32" height="24" fill="rgb(191,58,201)" stroke="rgb(152,46,160)" stroke-width="1" opacity="0.75" />
			</g>
			<g>
				<title>SQHop_cyclase_N (PF13249)
"Squalene-hopene cyclase N-terminal domain"</title>
				<rect class="PF13249" x="265" y="28" stroke-linejoin="round" width="28" height="24" fill="rgb(88,190,89)" stroke="rgb(70,152,71)" stroke-width="1" opacity="0.75" />
			</g>
		</g>
		<g>
			<title> (ctg560_9)</title>
			<polygon class=" (ctg560_9)" points="299,40 324,10 324,70" fill="rgb(255,255,255)" fill-opacity="1.0" stroke="rgb(0,0,0)" stroke-width="2"  />
			<g>
				<title>EF_TS (PF00889)
"Elongation factor TS"</title>
				<polygon class="PF00889" points="304,39 313,28 323,28 323,52 313,52 304,41" stroke-linejoin="round" width="19" height="24" fill="rgb(69,212,85)" stroke="rgb(55,169,67)" stroke-width="1" opacity="0.75" />
			</g>
		</g>
		<g>
			<title> (ctg560_10)</title>
			<polygon class=" (ctg560_10)" points="328,40 354,10 354,70" fill="rgb(255,255,255)" fill-opacity="1.0" stroke="rgb(0,0,0)" stroke-width="2"  />
			<g>
				<title>Ribosomal_S2 (PF00318)
"Ribosomal protein S2"</title>
				<polygon class="PF00318" points="332,40 343,28 353,28 353,52 343,52 332,40" stroke-linejoin="round" width="21" height="24" fill="rgb(60,213,66)" stroke="rgb(48,170,52)" stroke-width="1" opacity="0.75" />
			</g>
		</g>
	</g>
</svg>
