<svg version="1.1" baseProfile="full" xmlns="http://www.w3.org/2000/svg" width="464.6333333333333" height="80">
	<g>
		<line x1="10" y1="40.0" x2="454.6333333333333" y2="40.0" style="stroke:rgb(70,70,70); stroke-width:3 "/>
		<g>
			<title> (ctg185_1)</title>
			<polygon class=" (ctg185_1)" points="12,40 21,10 21,70" fill="rgb(255,255,255)" fill-opacity="1.0" stroke="rgb(0,0,0)" stroke-width="2"  />
		</g>
		<g>
			<title>allorf_00427_00516 (allorf_00427_00516)</title>
			<polygon class="allorf_00427_00516 (allorf_00427_00516)" points="24,40 27,10 27,70" fill="rgb(255,255,255)" fill-opacity="1.0" stroke="rgb(0,0,0)" stroke-width="2"  />
		</g>
		<g>
			<title>allorf_01049_01237 (allorf_01049_01237)</title>
			<polygon class="allorf_01049_01237 (allorf_01049_01237)" points="44,10 50,40 44,70" fill="rgb(255,255,255)" fill-opacity="1.0" stroke="rgb(0,0,0)" stroke-width="2"  />
		</g>
		<g>
			<title> (ctg185_2)</title>
			<polygon class=" (ctg185_2)" points="60,40 70,10 70,70" fill="rgb(255,255,255)" fill-opacity="1.0" stroke="rgb(0,0,0)" stroke-width="2"  />
			<g>
				<title>DUF2442 (PF10387)
"Protein of unknown function (DUF2442)"</title>
				<polygon class="PF10387" points="63,40 67,28 69,28 69,52 67,52" stroke-linejoin="round" width="7" height="24" fill="rgb(196,147,55)" stroke="rgb(156,117,44)" stroke-width="1" opacity="0.75" />
			</g>
		</g>
		<g>
			<title> (ctg185_3)</title>
			<polygon class=" (ctg185_3)" points="70,40 77,10 77,70" fill="rgb(255,255,255)" fill-opacity="1.0" stroke="rgb(0,0,0)" stroke-width="2"  />
			<g>
				<title>DUF4160 (PF13711)
"Domain of unknown function (DUF4160)"</title>
				<polygon class="PF13711" points="73,40 76,28 76,28 76,52 76,52" stroke-linejoin="round" width="6" height="24" fill="rgb(55,181,90)" stroke="rgb(44,144,72)" stroke-width="1" opacity="0.75" />
			</g>
		</g>
		<g>
			<title> (ctg185_4)</title>
			<polygon class=" (ctg185_4)" points="91,40 103,10 103,70" fill="rgb(255,255,255)" fill-opacity="1.0" stroke="rgb(0,0,0)" stroke-width="2"  />
		</g>
		<g>
			<title> (ctg185_5)</title>
			<polygon class=" (ctg185_5)" points="103,40 112,10 112,70" fill="rgb(255,255,255)" fill-opacity="1.0" stroke="rgb(0,0,0)" stroke-width="2"  />
		</g>
		<g>
			<title> (ctg185_6)</title>
			<polygon class=" (ctg185_6)" points="121,40 133,10 133,70" fill="rgb(255,255,255)" fill-opacity="1.0" stroke="rgb(0,0,0)" stroke-width="2"  />
		</g>
		<g>
			<title> (ctg185_7)</title>
			<polygon class=" (ctg185_7)" points="133,40 142,10 142,70" fill="rgb(255,255,255)" fill-opacity="1.0" stroke="rgb(0,0,0)" stroke-width="2"  />
		</g>
		<g>
			<title>allorf_04114_04197 (allorf_04114_04197)</title>
			<polygon class="allorf_04114_04197 (allorf_04114_04197)" points="147,40 149,10 149,70" fill="rgb(255,255,255)" fill-opacity="1.0" stroke="rgb(0,0,0)" stroke-width="2"  />
		</g>
		<g>
			<title> (ctg185_8)</title>
			<polygon class=" (ctg185_8)" points="150,40 156,10 156,70" fill="rgb(255,255,255)" fill-opacity="1.0" stroke="rgb(0,0,0)" stroke-width="2"  />
		</g>
		<g>
			<title> (ctg185_9)</title>
			<polygon class=" (ctg185_9)" points="272,25 191,25 191,10 161,40 191,70 191,55 272,55" fill="rgb(255,255,255)" fill-opacity="1.0" stroke="rgb(0,0,0)" stroke-width="2"  />
			<g>
				<title>LANC_like (PF05147)
"Lanthionine synthetase C-like protein"</title>
				<polygon class="PF05147" points="165,40 177,28 198,28 198,52 177,52" stroke-linejoin="round" width="37" height="24" fill="rgb(129,182,79)" stroke="rgb(103,145,63)" stroke-width="1" opacity="0.75" />
			</g>
			<g>
				<title>DUF4135 (PF13575)
"Domain of unknown function (DUF4135)"</title>
				<rect class="PF13575" x="211" y="28" stroke-linejoin="round" width="38" height="24" fill="rgb(228,84,217)" stroke="rgb(182,67,173)" stroke-width="1" opacity="0.75" />
			</g>
		</g>
		<g>
			<title> (ctg185_10)</title>
			<polygon class=" (ctg185_10)" points="275,40 283,10 283,70" fill="rgb(255,255,255)" fill-opacity="1.0" stroke="rgb(0,0,0)" stroke-width="2"  />
		</g>
		<g>
			<title> (ctg185_11)</title>
			<polygon class=" (ctg185_11)" points="291,40 301,10 301,70" fill="rgb(255,255,255)" fill-opacity="1.0" stroke="rgb(0,0,0)" stroke-width="2"  />
		</g>
		<g>
			<title> (ctg185_12)</title>
			<polygon class=" (ctg185_12)" points="305,40 315,10 315,70" fill="rgb(255,255,255)" fill-opacity="1.0" stroke="rgb(0,0,0)" stroke-width="2"  />
		</g>
		<g>
			<title> (ctg185_13)</title>
			<polygon class=" (ctg185_13)" points="378,25 360,25 360,10 330,40 360,70 360,55 378,55" fill="rgb(255,255,255)" fill-opacity="1.0" stroke="rgb(0,0,0)" stroke-width="2"  />
			<g>
				<title>RecQ_Zn_bind (PF16124)
"RecQ zinc-binding"</title>
				<polygon class="PF16124" points="334,40 335,39 335,41" stroke-linejoin="round" width="5" height="24" fill="rgb(207,93,128)" stroke="rgb(165,74,102)" stroke-width="1" opacity="0.75" />
			</g>
			<g>
				<title>Helicase_C (PF00271)
"Helicase conserved C-terminal domain"</title>
				<polygon class="PF00271" points="344,30 346,28 354,28 354,52 346,52 344,50" stroke-linejoin="round" width="10" height="24" fill="rgb(104,224,158)" stroke="rgb(83,179,126)" stroke-width="1" opacity="0.75" />
			</g>
			<g>
				<title>DEAD (PF00270)
"DEAD/DEAH box helicase"</title>
				<rect class="PF00270" x="358" y="28" stroke-linejoin="round" width="17" height="24" fill="rgb(195,100,62)" stroke="rgb(156,80,49)" stroke-width="1" opacity="0.75" />
			</g>
		</g>
		<g>
			<title> (ctg185_14)</title>
			<polygon class=" (ctg185_14)" points="387,10 393,40 387,70" fill="rgb(255,255,255)" fill-opacity="1.0" stroke="rgb(0,0,0)" stroke-width="2"  />
			<g>
				<title>DUF3285 (PF11688)
"Protein of unknown function (DUF3285)"</title>
				<polygon class="PF11688" points="388,30 390,40 388,50" stroke-linejoin="round" width="4" height="24" fill="rgb(207,84,153)" stroke="rgb(165,67,122)" stroke-width="1" opacity="0.75" />
			</g>
		</g>
		<g>
			<title> (ctg185_15)</title>
			<polygon class=" (ctg185_15)" points="394,10 411,40 394,70" fill="rgb(255,255,255)" fill-opacity="1.0" stroke="rgb(0,0,0)" stroke-width="2"  />
			<g>
				<title>YbeY (PF02130)
"Endoribonuclease YbeY"</title>
				<polygon class="PF02130" points="396,28 400,28 407,40 400,52 396,52" stroke-linejoin="round" width="13" height="24" fill="rgb(53,183,58)" stroke="rgb(42,146,46)" stroke-width="1" opacity="0.75" />
			</g>
		</g>
		<g>
			<title> (ctg185_16)</title>
			<polygon class=" (ctg185_16)" points="412,10 428,40 412,70" fill="rgb(255,255,255)" fill-opacity="1.0" stroke="rgb(0,0,0)" stroke-width="2"  />
			<g>
				<title>DAGK_prokar (PF01219)
"Prokaryotic diacylglycerol kinase"</title>
				<polygon class="PF01219" points="417,28 418,28 424,40 418,52 417,52" stroke-linejoin="round" width="10" height="24" fill="rgb(54,189,137)" stroke="rgb(43,151,109)" stroke-width="1" opacity="0.75" />
			</g>
		</g>
		<g>
			<title> (ctg185_17)</title>
			<polygon class=" (ctg185_17)" points="438,10 446,40 438,70" fill="rgb(255,255,255)" fill-opacity="1.0" stroke="rgb(0,0,0)" stroke-width="2"  />
			<g>
				<title>DUF4327 (PF14217)
"Domain of unknown function (DUF4327)"</title>
				<polygon class="PF14217" points="439,28 439,28 442,40 439,52 439,52" stroke-linejoin="round" width="6" height="24" fill="rgb(120,205,79)" stroke="rgb(95,164,63)" stroke-width="1" opacity="0.75" />
			</g>
		</g>
	</g>
</svg>
