<svg version="1.1" baseProfile="full" xmlns="http://www.w3.org/2000/svg" width="1664.7666666666667" height="80">
	<g>
		<line x1="10" y1="40.0" x2="1654.7666666666667" y2="40.0" style="stroke:rgb(70,70,70); stroke-width:3 "/>
		<g>
			<title> (ctg18_1)</title>
			<polygon class=" (ctg18_1)" points="10,40 13,10 13,70" fill="rgb(255,255,255)" fill-opacity="1.0" stroke="rgb(0,0,0)" stroke-width="2"  />
		</g>
		<g>
			<title> (ctg18_2)</title>
			<polygon class=" (ctg18_2)" points="11,40 17,10 17,70" fill="rgb(255,255,255)" fill-opacity="1.0" stroke="rgb(0,0,0)" stroke-width="2"  />
		</g>
		<g>
			<title> (ctg18_3)</title>
			<polygon class=" (ctg18_3)" points="84,10 98,40 84,70" fill="rgb(255,255,255)" fill-opacity="1.0" stroke="rgb(0,0,0)" stroke-width="2"  />
		</g>
		<g>
			<title> (ctg18_4)</title>
			<polygon class=" (ctg18_4)" points="101,10 121,40 101,70" fill="rgb(255,255,255)" fill-opacity="1.0" stroke="rgb(0,0,0)" stroke-width="2"  />
			<g>
				<title>Uma2 (PF05685)
"Putative restriction endonuclease"</title>
				<polygon class="PF05685" points="102,28 110,28 118,40 110,52 102,52" stroke-linejoin="round" width="18" height="24" fill="rgb(123,107,219)" stroke="rgb(98,85,175)" stroke-width="1" opacity="0.75" />
			</g>
		</g>
		<g>
			<title> (ctg18_5)</title>
			<polygon class=" (ctg18_5)" points="132,40 145,10 145,70" fill="rgb(255,255,255)" fill-opacity="1.0" stroke="rgb(0,0,0)" stroke-width="2"  />
		</g>
		<g>
			<title> (ctg18_6)</title>
			<polygon class=" (ctg18_6)" points="181,25 176,25 176,10 146,40 176,70 176,55 181,55" fill="rgb(255,255,255)" fill-opacity="1.0" stroke="rgb(0,0,0)" stroke-width="2"  />
			<g>
				<title>Aminotran_1_2 (PF00155)
"Aminotransferase class I and II"</title>
				<polygon class="PF00155" points="150,40 162,28 179,28 179,52 162,52" stroke-linejoin="round" width="32" height="24" fill="rgb(89,113,198)" stroke="rgb(71,90,158)" stroke-width="1" opacity="0.75" />
			</g>
		</g>
		<g>
			<title> (ctg18_7)</title>
			<polygon class=" (ctg18_7)" points="245,25 217,25 217,10 187,40 217,70 217,55 245,55" fill="rgb(255,255,255)" fill-opacity="1.0" stroke="rgb(0,0,0)" stroke-width="2"  />
			<g>
				<title>ABC_tran (PF00005)
"ABC transporter"</title>
				<polygon class="PF00005" points="192,39 203,28 205,28 205,52 203,52 192,41" stroke-linejoin="round" width="13" height="24" fill="rgb(129,201,63)" stroke="rgb(103,160,50)" stroke-width="1" opacity="0.75" />
			</g>
			<g>
				<title>ABC_membrane_2 (PF06472)
"ABC transporter transmembrane region 2"</title>
				<rect class="PF06472" x="215" y="28" stroke-linejoin="round" width="26" height="24" fill="rgb(120,179,45)" stroke="rgb(96,143,36)" stroke-width="1" opacity="0.75" />
			</g>
		</g>
		<g>
			<title> (ctg18_8)</title>
			<polygon class=" (ctg18_8)" points="251,40 255,10 255,70" fill="rgb(255,255,255)" fill-opacity="1.0" stroke="rgb(0,0,0)" stroke-width="2"  />
		</g>
		<g>
			<title> (ctg18_9)</title>
			<polygon class=" (ctg18_9)" points="396,25 285,25 285,10 255,40 285,70 285,55 396,55" fill="rgb(255,255,255)" fill-opacity="1.0" stroke="rgb(0,0,0)" stroke-width="2"  />
			<g>
				<title>Thioesterase (PF00975)
"Thioesterase domain"</title>
				<polygon class="PF00975" points="259,40 271,28 283,28 283,52 271,52" stroke-linejoin="round" width="26" height="24" fill="rgb(207,80,138)" stroke="rgb(165,63,110)" stroke-width="1" opacity="0.75" />
			</g>
			<g>
				<title>PP-binding (PF00550)
"Phosphopantetheine attachment site"</title>
				<rect class="PF00550" x="285" y="28" stroke-linejoin="round" width="6" height="24" fill="rgb(103,191,88)" stroke="rgb(82,152,70)" stroke-width="1" opacity="0.75" />
			</g>
			<g>
				<title>AMP-binding_C (PF13193)
"AMP-binding enzyme C-terminal domain"</title>
				<rect class="PF13193" x="294" y="28" stroke-linejoin="round" width="7" height="24" fill="rgb(182,50,118)" stroke="rgb(145,39,94)" stroke-width="1" opacity="0.75" />
			</g>
			<g>
				<title>AMP-binding (PF00501)
"AMP-binding enzyme"</title>
				<rect class="PF00501" x="302" y="28" stroke-linejoin="round" width="39" height="24" fill="rgb(60,217,223)" stroke="rgb(48,173,178)" stroke-width="1" opacity="0.75" />
			</g>
			<g>
				<title>Condensation (PF00668)
"Condensation domain"</title>
				<rect class="PF00668" x="344" y="28" stroke-linejoin="round" width="44" height="24" fill="rgb(224,184,98)" stroke="rgb(179,147,78)" stroke-width="1" opacity="0.75" />
			</g>
			<g>
				<title>TubC_N (PF18563)
"TubC N-terminal docking domain"</title>
				<rect class="PF18563" x="390" y="28" stroke-linejoin="round" width="5" height="24" fill="rgb(95,217,77)" stroke="rgb(75,173,61)" stroke-width="1" opacity="0.75" />
			</g>
		</g>
		<g>
			<title> (ctg18_10)</title>
			<polygon class=" (ctg18_10)" points="649,25 426,25 426,10 396,40 426,70 426,55 649,55" fill="rgb(255,255,255)" fill-opacity="1.0" stroke="rgb(0,0,0)" stroke-width="2"  />
			<g>
				<title>PP-binding (PF00550)
"Phosphopantetheine attachment site"</title>
				<polygon class="PF00550" points="400,40 404,36 404,44" stroke-linejoin="round" width="6" height="24" fill="rgb(103,191,88)" stroke="rgb(82,152,70)" stroke-width="1" opacity="0.75" />
			</g>
			<g>
				<title>Methyltransf_31 (PF13847)
"Methyltransferase domain"</title>
				<rect class="PF13847" x="430" y="28" stroke-linejoin="round" width="15" height="24" fill="rgb(214,74,181)" stroke="rgb(171,59,144)" stroke-width="1" opacity="0.75" />
			</g>
			<g>
				<title>AMP-binding (PF00501)
"AMP-binding enzyme"</title>
				<rect class="PF00501" x="456" y="28" stroke-linejoin="round" width="39" height="24" fill="rgb(60,217,223)" stroke="rgb(48,173,178)" stroke-width="1" opacity="0.75" />
			</g>
			<g>
				<title>Condensation (PF00668)
"Condensation domain"</title>
				<rect class="PF00668" x="498" y="28" stroke-linejoin="round" width="45" height="24" fill="rgb(224,184,98)" stroke="rgb(179,147,78)" stroke-width="1" opacity="0.75" />
			</g>
			<g>
				<title>PP-binding (PF00550)
"Phosphopantetheine attachment site"</title>
				<rect class="PF00550" x="545" y="28" stroke-linejoin="round" width="6" height="24" fill="rgb(103,191,88)" stroke="rgb(82,152,70)" stroke-width="1" opacity="0.75" />
			</g>
			<g>
				<title>AMP-binding_C (PF13193)
"AMP-binding enzyme C-terminal domain"</title>
				<rect class="PF13193" x="554" y="28" stroke-linejoin="round" width="7" height="24" fill="rgb(182,50,118)" stroke="rgb(145,39,94)" stroke-width="1" opacity="0.75" />
			</g>
			<g>
				<title>AMP-binding (PF00501)
"AMP-binding enzyme"</title>
				<rect class="PF00501" x="562" y="28" stroke-linejoin="round" width="39" height="24" fill="rgb(60,217,223)" stroke="rgb(48,173,178)" stroke-width="1" opacity="0.75" />
			</g>
			<g>
				<title>Condensation (PF00668)
"Condensation domain"</title>
				<rect class="PF00668" x="604" y="28" stroke-linejoin="round" width="44" height="24" fill="rgb(224,184,98)" stroke="rgb(179,147,78)" stroke-width="1" opacity="0.75" />
			</g>
		</g>
		<g>
			<title> (ctg18_11)</title>
			<polygon class=" (ctg18_11)" points="650,10 654,40 650,70" fill="rgb(255,255,255)" fill-opacity="1.0" stroke="rgb(0,0,0)" stroke-width="2"  />
		</g>
		<g>
			<title> (ctg18_12)</title>
			<polygon class=" (ctg18_12)" points="658,10 661,40 658,70" fill="rgb(255,255,255)" fill-opacity="1.0" stroke="rgb(0,0,0)" stroke-width="2"  />
		</g>
		<g>
			<title> (ctg18_13)</title>
			<polygon class=" (ctg18_13)" points="770,25 693,25 693,10 663,40 693,70 693,55 770,55" fill="rgb(255,255,255)" fill-opacity="1.0" stroke="rgb(0,0,0)" stroke-width="2"  />
			<g>
				<title>PP-binding (PF00550)
"Phosphopantetheine attachment site"</title>
				<polygon class="PF00550" points="667,40 672,35 672,45" stroke-linejoin="round" width="6" height="24" fill="rgb(103,191,88)" stroke="rgb(82,152,70)" stroke-width="1" opacity="0.75" />
			</g>
			<g>
				<title>AMP-binding_C (PF13193)
"AMP-binding enzyme C-terminal domain"</title>
				<polygon class="PF13193" points="675,32 679,28 682,28 682,52 679,52 675,48" stroke-linejoin="round" width="7" height="24" fill="rgb(182,50,118)" stroke="rgb(145,39,94)" stroke-width="1" opacity="0.75" />
			</g>
			<g>
				<title>AMP-binding (PF00501)
"AMP-binding enzyme"</title>
				<rect class="PF00501" x="684" y="28" stroke-linejoin="round" width="39" height="24" fill="rgb(60,217,223)" stroke="rgb(48,173,178)" stroke-width="1" opacity="0.75" />
			</g>
			<g>
				<title>Condensation (PF00668)
"Condensation domain"</title>
				<rect class="PF00668" x="726" y="28" stroke-linejoin="round" width="44" height="24" fill="rgb(224,184,98)" stroke="rgb(179,147,78)" stroke-width="1" opacity="0.75" />
			</g>
		</g>
		<g>
			<title> (ctg18_14)</title>
			<polygon class=" (ctg18_14)" points="987,25 801,25 801,10 771,40 801,70 801,55 987,55" fill="rgb(255,255,255)" fill-opacity="1.0" stroke="rgb(0,0,0)" stroke-width="2"  />
			<g>
				<title>Condensation (PF00668)
"Condensation domain"</title>
				<polygon class="PF00668" points="775,40 787,28 818,28 818,52 787,52" stroke-linejoin="round" width="45" height="24" fill="rgb(224,184,98)" stroke="rgb(179,147,78)" stroke-width="1" opacity="0.75" />
			</g>
			<g>
				<title>PP-binding (PF00550)
"Phosphopantetheine attachment site"</title>
				<rect class="PF00550" x="820" y="28" stroke-linejoin="round" width="6" height="24" fill="rgb(103,191,88)" stroke="rgb(82,152,70)" stroke-width="1" opacity="0.75" />
			</g>
			<g>
				<title>AMP-binding_C (PF13193)
"AMP-binding enzyme C-terminal domain"</title>
				<rect class="PF13193" x="829" y="28" stroke-linejoin="round" width="7" height="24" fill="rgb(182,50,118)" stroke="rgb(145,39,94)" stroke-width="1" opacity="0.75" />
			</g>
			<g>
				<title>AMP-binding (PF00501)
"AMP-binding enzyme"</title>
				<rect class="PF00501" x="837" y="28" stroke-linejoin="round" width="40" height="24" fill="rgb(60,217,223)" stroke="rgb(48,173,178)" stroke-width="1" opacity="0.75" />
			</g>
			<g>
				<title>Condensation (PF00668)
"Condensation domain"</title>
				<rect class="PF00668" x="879" y="28" stroke-linejoin="round" width="46" height="24" fill="rgb(224,184,98)" stroke="rgb(179,147,78)" stroke-width="1" opacity="0.75" />
			</g>
			<g>
				<title>PP-binding (PF00550)
"Phosphopantetheine attachment site"</title>
				<rect class="PF00550" x="928" y="28" stroke-linejoin="round" width="6" height="24" fill="rgb(103,191,88)" stroke="rgb(82,152,70)" stroke-width="1" opacity="0.75" />
			</g>
			<g>
				<title>AMP-binding_C (PF13193)
"AMP-binding enzyme C-terminal domain"</title>
				<rect class="PF13193" x="937" y="28" stroke-linejoin="round" width="7" height="24" fill="rgb(182,50,118)" stroke="rgb(145,39,94)" stroke-width="1" opacity="0.75" />
			</g>
			<g>
				<title>AMP-binding (PF00501)
"AMP-binding enzyme"</title>
				<rect class="PF00501" x="946" y="28" stroke-linejoin="round" width="40" height="24" fill="rgb(60,217,223)" stroke="rgb(48,173,178)" stroke-width="1" opacity="0.75" />
			</g>
		</g>
		<g>
			<title> (ctg18_15)</title>
			<polygon class=" (ctg18_15)" points="1004,25 1013,25 1013,10 1043,40 1013,70 1013,55 1004,55" fill="rgb(255,255,255)" fill-opacity="1.0" stroke="rgb(0,0,0)" stroke-width="2"  />
			<g>
				<title>HMGL-like (PF00682)
"HMGL-like"</title>
				<rect class="PF00682" x="1004" y="28" stroke-linejoin="round" width="11" height="24" fill="rgb(84,228,141)" stroke="rgb(67,182,112)" stroke-width="1" opacity="0.75" />
			</g>
			<g>
				<title>HMGL-like (PF00682)
"HMGL-like"</title>
				<polygon class="PF00682" points="1016,28 1027,28 1032,33 1032,47 1027,52 1016,52" stroke-linejoin="round" width="16" height="24" fill="rgb(84,228,141)" stroke="rgb(67,182,112)" stroke-width="1" opacity="0.75" />
			</g>
		</g>
		<g>
			<title> (ctg18_16)</title>
			<polygon class=" (ctg18_16)" points="1043,25 1048,25 1048,10 1078,40 1048,70 1048,55 1043,55" fill="rgb(255,255,255)" fill-opacity="1.0" stroke="rgb(0,0,0)" stroke-width="2"  />
			<g>
				<title>Iso_dh (PF00180)
"Isocitrate/isopropylmalate dehydrogenase"</title>
				<polygon class="PF00180" points="1044,28 1062,28 1074,40 1062,52 1044,52" stroke-linejoin="round" width="33" height="24" fill="rgb(109,54,206)" stroke="rgb(87,43,164)" stroke-width="1" opacity="0.75" />
			</g>
		</g>
		<g>
			<title> (ctg18_17)</title>
			<polygon class=" (ctg18_17)" points="1079,25 1106,25 1106,10 1136,40 1106,70 1106,55 1079,55" fill="rgb(255,255,255)" fill-opacity="1.0" stroke="rgb(0,0,0)" stroke-width="2"  />
			<g>
				<title>Aconitase_C (PF00694)
"Aconitase C-terminal domain"</title>
				<rect class="PF00694" x="1083" y="28" stroke-linejoin="round" width="5" height="24" fill="rgb(63,185,92)" stroke="rgb(50,148,73)" stroke-width="1" opacity="0.75" />
			</g>
			<g>
				<title>Aconitase (PF00330)
"Aconitase family (aconitate hydratase)"</title>
				<polygon class="PF00330" points="1093,28 1120,28 1132,40 1120,52 1093,52" stroke-linejoin="round" width="42" height="24" fill="rgb(180,189,85)" stroke="rgb(144,151,68)" stroke-width="1" opacity="0.75" />
			</g>
		</g>
		<g>
			<title> (ctg18_18)</title>
			<polygon class=" (ctg18_18)" points="1172,40 1178,10 1178,70" fill="rgb(255,255,255)" fill-opacity="1.0" stroke="rgb(0,0,0)" stroke-width="2"  />
		</g>
		<g>
			<title> (ctg18_19)</title>
			<polygon class=" (ctg18_19)" points="1188,10 1210,40 1188,70" fill="rgb(255,255,255)" fill-opacity="1.0" stroke="rgb(0,0,0)" stroke-width="2"  />
			<g>
				<title>Acyltransferase (PF01553)
"Acyltransferase"</title>
				<polygon class="PF01553" points="1192,28 1197,28 1204,37 1204,43 1197,52 1192,52" stroke-linejoin="round" width="12" height="24" fill="rgb(87,176,216)" stroke="rgb(69,140,172)" stroke-width="1" opacity="0.75" />
			</g>
		</g>
		<g>
			<title> (ctg18_20)</title>
			<polygon class=" (ctg18_20)" points="1224,10 1233,40 1224,70" fill="rgb(255,255,255)" fill-opacity="1.0" stroke="rgb(0,0,0)" stroke-width="2"  />
		</g>
		<g>
			<title> (ctg18_21)</title>
			<polygon class=" (ctg18_21)" points="1265,25 1263,25 1263,10 1233,40 1263,70 1263,55 1265,55" fill="rgb(255,255,255)" fill-opacity="1.0" stroke="rgb(0,0,0)" stroke-width="2"  />
			<g>
				<title>CobD_Cbib (PF03186)
"CobD/Cbib protein"</title>
				<polygon class="PF03186" points="1237,40 1249,28 1264,28 1264,52 1249,52" stroke-linejoin="round" width="29" height="24" fill="rgb(184,228,63)" stroke="rgb(147,182,50)" stroke-width="1" opacity="0.75" />
			</g>
		</g>
		<g>
			<title> (ctg18_22)</title>
			<polygon class=" (ctg18_22)" points="1266,40 1281,10 1281,70" fill="rgb(255,255,255)" fill-opacity="1.0" stroke="rgb(0,0,0)" stroke-width="2"  />
			<g>
				<title>GFA (PF04828)
"Glutathione-dependent formaldehyde-activating enzyme"</title>
				<polygon class="PF04828" points="1269,40 1275,28 1275,28 1275,52 1275,52" stroke-linejoin="round" width="8" height="24" fill="rgb(68,192,55)" stroke="rgb(54,153,44)" stroke-width="1" opacity="0.75" />
			</g>
		</g>
		<g>
			<title> (ctg18_23)</title>
			<polygon class=" (ctg18_23)" points="1280,40 1294,10 1294,70" fill="rgb(255,255,255)" fill-opacity="1.0" stroke="rgb(0,0,0)" stroke-width="2"  />
		</g>
		<g>
			<title> (ctg18_24)</title>
			<polygon class=" (ctg18_24)" points="1305,10 1318,40 1305,70" fill="rgb(255,255,255)" fill-opacity="1.0" stroke="rgb(0,0,0)" stroke-width="2"  />
			<g>
				<title>AbrB-like (PF14250)
"AbrB-like transcriptional regulator"</title>
				<polygon class="PF14250" points="1310,30 1314,40 1310,50" stroke-linejoin="round" width="6" height="24" fill="rgb(117,78,227)" stroke="rgb(93,62,181)" stroke-width="1" opacity="0.75" />
			</g>
		</g>
		<g>
			<title> (ctg18_25)</title>
			<polygon class=" (ctg18_25)" points="1343,40 1368,10 1368,70" fill="rgb(255,255,255)" fill-opacity="1.0" stroke="rgb(0,0,0)" stroke-width="2"  />
			<g>
				<title>SIMPL (PF04402)
"Protein of unknown function (DUF541)"</title>
				<polygon class="PF04402" points="1347,40 1357,28 1363,28 1363,52 1357,52" stroke-linejoin="round" width="20" height="24" fill="rgb(88,209,165)" stroke="rgb(70,167,132)" stroke-width="1" opacity="0.75" />
			</g>
		</g>
		<g>
			<title> (ctg18_26)</title>
			<polygon class=" (ctg18_26)" points="1426,25 1413,25 1413,10 1383,40 1413,70 1413,55 1426,55" fill="rgb(255,255,255)" fill-opacity="1.0" stroke="rgb(0,0,0)" stroke-width="2"  />
			<g>
				<title>Enolase_C (PF00113)
"Enolase, C-terminal TIM barrel domain"</title>
				<polygon class="PF00113" points="1387,40 1399,28 1411,28 1411,52 1399,52" stroke-linejoin="round" width="28" height="24" fill="rgb(70,106,194)" stroke="rgb(56,84,155)" stroke-width="1" opacity="0.75" />
			</g>
			<g>
				<title>Enolase_N (PF03952)
"Enolase, N-terminal domain"</title>
				<rect class="PF03952" x="1412" y="28" stroke-linejoin="round" width="13" height="24" fill="rgb(188,63,147)" stroke="rgb(150,50,117)" stroke-width="1" opacity="0.75" />
			</g>
		</g>
		<g>
			<title> (ctg18_27)</title>
			<polygon class=" (ctg18_27)" points="1428,40 1453,10 1453,70" fill="rgb(255,255,255)" fill-opacity="1.0" stroke="rgb(0,0,0)" stroke-width="2"  />
			<g>
				<title>DUF3887 (PF13026)
"Protein of unknown function (DUF3887)"</title>
				<polygon class="PF13026" points="1439,32 1442,28 1447,28 1447,52 1442,52 1439,48" stroke-linejoin="round" width="8" height="24" fill="rgb(146,81,179)" stroke="rgb(116,64,143)" stroke-width="1" opacity="0.75" />
			</g>
		</g>
		<g>
			<title> (ctg18_28)</title>
			<polygon class=" (ctg18_28)" points="1526,25 1487,25 1487,10 1457,40 1487,70 1487,55 1526,55" fill="rgb(255,255,255)" fill-opacity="1.0" stroke="rgb(0,0,0)" stroke-width="2"  />
			<g>
				<title>Alpha-amylase (PF00128)
"Alpha amylase, catalytic domain"</title>
				<rect class="PF00128" x="1489" y="28" stroke-linejoin="round" width="19" height="24" fill="rgb(72,189,149)" stroke="rgb(57,151,119)" stroke-width="1" opacity="0.75" />
			</g>
			<g>
				<title>CBM_48 (PF02922)
"Carbohydrate-binding module 48 (Isoamylase N-terminal domain)"</title>
				<rect class="PF02922" x="1515" y="28" stroke-linejoin="round" width="9" height="24" fill="rgb(166,223,94)" stroke="rgb(132,178,75)" stroke-width="1" opacity="0.75" />
			</g>
		</g>
		<g>
			<title> (ctg18_29)</title>
			<polygon class=" (ctg18_29)" points="1536,40 1565,10 1565,70" fill="rgb(255,255,255)" fill-opacity="1.0" stroke="rgb(0,0,0)" stroke-width="2"  />
			<g>
				<title>DUF4351 (PF14261)
"Domain of unknown function (DUF4351)"</title>
				<polygon class="PF14261" points="1540,40 1541,39 1541,41" stroke-linejoin="round" width="5" height="24" fill="rgb(66,53,182)" stroke="rgb(52,42,145)" stroke-width="1" opacity="0.75" />
			</g>
		</g>
		<g>
			<title> (ctg18_30)</title>
			<polygon class=" (ctg18_30)" points="1598,25 1598,25 1598,10 1568,40 1598,70 1598,55 1598,55" fill="rgb(255,255,255)" fill-opacity="1.0" stroke="rgb(0,0,0)" stroke-width="2"  />
			<g>
				<title>DUF4351 (PF14261)
"Domain of unknown function (DUF4351)"</title>
				<polygon class="PF14261" points="1572,40 1574,38 1574,42" stroke-linejoin="round" width="6" height="24" fill="rgb(66,53,182)" stroke="rgb(52,42,145)" stroke-width="1" opacity="0.75" />
			</g>
		</g>
	</g>
</svg>
