<svg version="1.1" baseProfile="full" xmlns="http://www.w3.org/2000/svg" width="422.43333333333334" height="80">
	<g>
		<line x1="10" y1="40.0" x2="412.43333333333334" y2="40.0" style="stroke:rgb(70,70,70); stroke-width:3 "/>
		<g>
			<title> (ctg453_5)</title>
			<polygon class=" (ctg453_5)" points="58,25 46,25 46,10 16,40 46,70 46,55 58,55" fill="rgb(255,255,255)" fill-opacity="1.0" stroke="rgb(0,0,0)" stroke-width="2"  />
			<g>
				<title>FTSW_RODA_SPOVE (PF01098)
"Cell cycle protein"</title>
				<polygon class="PF01098" points="20,40 32,28 55,28 55,52 32,52" stroke-linejoin="round" width="39" height="24" fill="rgb(57,114,205)" stroke="rgb(45,91,164)" stroke-width="1" opacity="0.75" />
			</g>
		</g>
		<g>
			<title> (ctg453_6)</title>
			<polygon class=" (ctg453_6)" points="101,25 96,25 96,10 66,40 96,70 96,55 101,55" fill="rgb(255,255,255)" fill-opacity="1.0" stroke="rgb(0,0,0)" stroke-width="2"  />
			<g>
				<title>ParA (PF10609)
"NUBPL iron-transfer P-loop NTPase"</title>
				<polygon class="PF10609" points="70,40 82,28 91,28 91,52 82,52" stroke-linejoin="round" width="24" height="24" fill="rgb(107,194,90)" stroke="rgb(85,155,72)" stroke-width="1" opacity="0.75" />
			</g>
			<g>
				<title>FeS_assembly_P (PF01883)
"Iron-sulfur cluster assembly protein"</title>
				<rect class="PF01883" x="93" y="28" stroke-linejoin="round" width="7" height="24" fill="rgb(171,209,57)" stroke="rgb(136,167,45)" stroke-width="1" opacity="0.75" />
			</g>
		</g>
		<g>
			<title> (ctg453_7)</title>
			<polygon class=" (ctg453_7)" points="109,10 126,40 109,70" fill="rgb(255,255,255)" fill-opacity="1.0" stroke="rgb(0,0,0)" stroke-width="2"  />
			<g>
				<title>TPR_12 (PF13424)
"Tetratricopeptide repeat"</title>
				<polygon class="PF13424" points="114,28 116,28 121,36 121,44 116,52 114,52" stroke-linejoin="round" width="7" height="24" fill="rgb(147,215,101)" stroke="rgb(117,172,80)" stroke-width="1" opacity="0.75" />
			</g>
		</g>
		<g>
			<title> (ctg453_8)</title>
			<polygon class=" (ctg453_8)" points="189,25 159,25 159,10 129,40 159,70 159,55 189,55" fill="rgb(255,255,255)" fill-opacity="1.0" stroke="rgb(0,0,0)" stroke-width="2"  />
			<g>
				<title>CitMHS (PF03600)
"Citrate transporter"</title>
				<polygon class="PF03600" points="134,39 145,28 186,28 186,52 145,52 134,41" stroke-linejoin="round" width="52" height="24" fill="rgb(75,203,220)" stroke="rgb(60,162,176)" stroke-width="1" opacity="0.75" />
			</g>
		</g>
		<g>
			<title> (ctg453_9)</title>
			<polygon class=" (ctg453_9)" points="281,25 219,25 219,10 189,40 219,70 219,55 281,55" fill="rgb(255,255,255)" fill-opacity="1.0" stroke="rgb(0,0,0)" stroke-width="2"  />
			<g>
				<title>Cation_ATPase_C (PF00689)
"Cation transporting ATPase, C-terminus"</title>
				<polygon class="PF00689" points="193,40 205,28 206,28 206,52 205,52" stroke-linejoin="round" width="17" height="24" fill="rgb(76,203,161)" stroke="rgb(60,162,128)" stroke-width="1" opacity="0.75" />
			</g>
			<g>
				<title>Hydrolase (PF00702)
"haloacid dehalogenase-like hydrolase"</title>
				<rect class="PF00702" x="214" y="28" stroke-linejoin="round" width="32" height="24" fill="rgb(68,220,102)" stroke="rgb(54,176,81)" stroke-width="1" opacity="0.75" />
			</g>
			<g>
				<title>E1-E2_ATPase (PF00122)
"E1-E2 ATPase"</title>
				<rect class="PF00122" x="249" y="28" stroke-linejoin="round" width="19" height="24" fill="rgb(149,204,70)" stroke="rgb(119,163,56)" stroke-width="1" opacity="0.75" />
			</g>
			<g>
				<title>Cation_ATPase_N (PF00690)
"Cation transporter/ATPase, N-terminus"</title>
				<rect class="PF00690" x="273" y="28" stroke-linejoin="round" width="6" height="24" fill="rgb(174,102,225)" stroke="rgb(139,81,180)" stroke-width="1" opacity="0.75" />
			</g>
		</g>
		<g>
			<title> (ctg453_10)</title>
			<polygon class=" (ctg453_10)" points="292,25 309,25 309,10 339,40 309,70 309,55 292,55" fill="rgb(255,255,255)" fill-opacity="1.0" stroke="rgb(0,0,0)" stroke-width="2"  />
			<g>
				<title>Amino_oxidase (PF01593)
"Flavin containing amine oxidoreductase"</title>
				<polygon class="PF01593" points="293,28 323,28 335,40 323,52 293,52" stroke-linejoin="round" width="44" height="24" fill="rgb(184,74,52)" stroke="rgb(147,59,41)" stroke-width="1" opacity="0.75" />
			</g>
		</g>
		<g>
			<title> (ctg453_11)</title>
			<polygon class=" (ctg453_11)" points="343,25 344,25 344,10 374,40 344,70 344,55 343,55" fill="rgb(255,255,255)" fill-opacity="1.0" stroke="rgb(0,0,0)" stroke-width="2"  />
			<g>
				<title>SQS_PSY (PF00494)
"Squalene/phytoene synthase"</title>
				<polygon class="PF00494" points="345,28 357,28 369,40 357,52 345,52" stroke-linejoin="round" width="26" height="24" fill="rgb(178,91,49)" stroke="rgb(142,72,39)" stroke-width="1" opacity="0.75" />
			</g>
		</g>
		<g>
			<title> (ctg453_12)</title>
			<polygon class=" (ctg453_12)" points="384,40 399,10 399,70" fill="rgb(255,255,255)" fill-opacity="1.0" stroke="rgb(0,0,0)" stroke-width="2"  />
		</g>
	</g>
</svg>
