<svg version="1.1" baseProfile="full" xmlns="http://www.w3.org/2000/svg" width="1726.4333333333334" height="80">
	<g>
		<line x1="10" y1="40.0" x2="1716.4333333333334" y2="40.0" style="stroke:rgb(70,70,70); stroke-width:3 "/>
		<g>
			<title> (ctg24_5)</title>
			<polygon class=" (ctg24_5)" points="31,40 56,10 56,70" fill="rgb(255,255,255)" fill-opacity="1.0" stroke="rgb(0,0,0)" stroke-width="2"  />
			<g>
				<title>DUF3800 (PF12686)
"Protein of unknown function (DUF3800)"</title>
				<polygon class="PF12686" points="35,40 45,28 56,28 56,52 45,52 35,40" stroke-linejoin="round" width="21" height="24" fill="rgb(215,73,159)" stroke="rgb(172,58,127)" stroke-width="1" opacity="0.75" />
			</g>
		</g>
		<g>
			<title> (ctg24_6)</title>
			<polygon class=" (ctg24_6)" points="71,10 77,40 71,70" fill="rgb(255,255,255)" fill-opacity="1.0" stroke="rgb(0,0,0)" stroke-width="2"  />
			<g>
				<title>DUF433 (PF04255)
"Protein of unknown function (DUF433)"</title>
				<polygon class="PF04255" points="71,28 71,28 74,40 71,52 71,52" stroke-linejoin="round" width="4" height="24" fill="rgb(205,68,213)" stroke="rgb(164,54,170)" stroke-width="1" opacity="0.75" />
			</g>
		</g>
		<g>
			<title> (ctg24_7)</title>
			<polygon class=" (ctg24_7)" points="77,10 89,40 77,70" fill="rgb(255,255,255)" fill-opacity="1.0" stroke="rgb(0,0,0)" stroke-width="2"  />
			<g>
				<title>DUF5615 (PF18480)
"Domain of unknown function (DUF5615)"</title>
				<polygon class="PF18480" points="77,28 81,28 84,35 84,45 81,52 77,52" stroke-linejoin="round" width="7" height="24" fill="rgb(193,159,69)" stroke="rgb(154,127,55)" stroke-width="1" opacity="0.75" />
			</g>
		</g>
		<g>
			<title> (ctg24_8)</title>
			<polygon class=" (ctg24_8)" points="132,25 129,25 129,10 99,40 129,70 129,55 132,55" fill="rgb(255,255,255)" fill-opacity="1.0" stroke="rgb(0,0,0)" stroke-width="2"  />
			<g>
				<title>PfkB (PF00294)
"pfkB family carbohydrate kinase"</title>
				<polygon class="PF00294" points="103,40 115,28 128,28 128,52 115,52" stroke-linejoin="round" width="28" height="24" fill="rgb(153,96,212)" stroke="rgb(122,76,169)" stroke-width="1" opacity="0.75" />
			</g>
		</g>
		<g>
			<title> (ctg24_9)</title>
			<polygon class=" (ctg24_9)" points="138,40 145,10 145,70" fill="rgb(255,255,255)" fill-opacity="1.0" stroke="rgb(0,0,0)" stroke-width="2"  />
			<g>
				<title>DUF2555 (PF10742)
"Protein of unknown function (DUF2555)"</title>
				<polygon class="PF10742" points="141,40 143,32 143,48" stroke-linejoin="round" width="5" height="24" fill="rgb(214,222,57)" stroke="rgb(171,177,45)" stroke-width="1" opacity="0.75" />
			</g>
		</g>
		<g>
			<title> (ctg24_10)</title>
			<polygon class=" (ctg24_10)" points="150,10 175,40 150,70" fill="rgb(255,255,255)" fill-opacity="1.0" stroke="rgb(0,0,0)" stroke-width="2"  />
			<g>
				<title>adh_short (PF00106)
"short chain dehydrogenase"</title>
				<polygon class="PF00106" points="150,28 162,28 169,37 169,43 162,52 150,52" stroke-linejoin="round" width="19" height="24" fill="rgb(182,219,73)" stroke="rgb(145,175,58)" stroke-width="1" opacity="0.75" />
			</g>
		</g>
		<g>
			<title> (ctg24_11)</title>
			<polygon class=" (ctg24_11)" points="188,40 210,10 210,70" fill="rgb(255,255,255)" fill-opacity="1.0" stroke="rgb(0,0,0)" stroke-width="2"  />
			<g>
				<title>HHH_3 (PF12836)
"Helix-hairpin-helix motif"</title>
				<polygon class="PF12836" points="194,37 200,30 200,50 194,43" stroke-linejoin="round" width="6" height="24" fill="rgb(58,214,96)" stroke="rgb(46,171,76)" stroke-width="1" opacity="0.75" />
			</g>
		</g>
		<g>
			<title> (ctg24_12)</title>
			<polygon class=" (ctg24_12)" points="211,40 222,10 222,70" fill="rgb(255,255,255)" fill-opacity="1.0" stroke="rgb(0,0,0)" stroke-width="2"  />
			<g>
				<title>SHOCT (PF09851)
"Short C-terminal domain"</title>
				<polygon class="PF09851" points="214,40 213,43 213,37" stroke-linejoin="round" width="2" height="24" fill="rgb(97,185,199)" stroke="rgb(77,147,159)" stroke-width="1" opacity="0.75" />
			</g>
			<g>
				<title>TM2 (PF05154)
"TM2 domain"</title>
				<polygon class="PF05154" points="217,32 219,28 222,28 222,52 219,52 217,48" stroke-linejoin="round" width="5" height="24" fill="rgb(117,58,203)" stroke="rgb(93,46,162)" stroke-width="1" opacity="0.75" />
			</g>
		</g>
		<g>
			<title> (ctg24_13)</title>
			<polygon class=" (ctg24_13)" points="223,40 230,10 230,70" fill="rgb(255,255,255)" fill-opacity="1.0" stroke="rgb(0,0,0)" stroke-width="2"  />
		</g>
		<g>
			<title> (ctg24_14)</title>
			<polygon class=" (ctg24_14)" points="232,40 241,10 241,70" fill="rgb(255,255,255)" fill-opacity="1.0" stroke="rgb(0,0,0)" stroke-width="2"  />
			<g>
				<title>DUF2470 (PF10615)
"Protein of unknown function (DUF2470)"</title>
				<polygon class="PF10615" points="235,40 239,28 239,28 239,52 239,52" stroke-linejoin="round" width="7" height="24" fill="rgb(77,184,50)" stroke="rgb(61,147,40)" stroke-width="1" opacity="0.75" />
			</g>
		</g>
		<g>
			<title> (ctg24_15)</title>
			<polygon class=" (ctg24_15)" points="254,40 271,10 271,70" fill="rgb(255,255,255)" fill-opacity="1.0" stroke="rgb(0,0,0)" stroke-width="2"  />
		</g>
		<g>
			<title> (ctg24_16)</title>
			<polygon class=" (ctg24_16)" points="276,10 283,40 276,70" fill="rgb(255,255,255)" fill-opacity="1.0" stroke="rgb(0,0,0)" stroke-width="2"  />
		</g>
		<g>
			<title> (ctg24_17)</title>
			<polygon class=" (ctg24_17)" points="402,25 329,25 329,10 299,40 329,70 329,55 402,55" fill="rgb(255,255,255)" fill-opacity="1.0" stroke="rgb(0,0,0)" stroke-width="2"  />
			<g>
				<title>ACR_tran (PF00873)
"AcrB/AcrD/AcrF family"</title>
				<polygon class="PF00873" points="303,40 315,28 402,28 402,52 315,52" stroke-linejoin="round" width="102" height="24" fill="rgb(63,191,60)" stroke="rgb(50,152,48)" stroke-width="1" opacity="0.75" />
			</g>
		</g>
		<g>
			<title> (ctg24_18)</title>
			<polygon class=" (ctg24_18)" points="466,25 445,25 445,10 415,40 445,70 445,55 466,55" fill="rgb(255,255,255)" fill-opacity="1.0" stroke="rgb(0,0,0)" stroke-width="2"  />
			<g>
				<title>HlyD_3 (PF13437)
"HlyD family secretion protein"</title>
				<polygon class="PF13437" points="424,35 431,28 434,28 434,52 431,52 424,45" stroke-linejoin="round" width="10" height="24" fill="rgb(82,200,102)" stroke="rgb(65,160,81)" stroke-width="1" opacity="0.75" />
			</g>
		</g>
		<g>
			<title> (ctg24_19)</title>
			<polygon class=" (ctg24_19)" points="501,25 499,25 499,10 469,40 499,70 499,55 501,55" fill="rgb(255,255,255)" fill-opacity="1.0" stroke="rgb(0,0,0)" stroke-width="2"  />
		</g>
		<g>
			<title> (ctg24_20)</title>
			<polygon class=" (ctg24_20)" points="541,25 541,25 541,10 571,40 541,70 541,55 541,55" fill="rgb(255,255,255)" fill-opacity="1.0" stroke="rgb(0,0,0)" stroke-width="2"  />
			<g>
				<title>PAS_8 (PF13188)
"PAS domain"</title>
				<rect class="PF13188" x="544" y="28" stroke-linejoin="round" width="6" height="24" fill="rgb(206,218,73)" stroke="rgb(164,174,58)" stroke-width="1" opacity="0.75" />
			</g>
			<g>
				<title>HTH_18 (PF12833)
"Helix-turn-helix domain"</title>
				<polygon class="PF12833" points="562,36 566,40 562,44" stroke-linejoin="round" width="7" height="24" fill="rgb(216,58,224)" stroke="rgb(172,46,179)" stroke-width="1" opacity="0.75" />
			</g>
		</g>
		<g>
			<title> (ctg24_21)</title>
			<polygon class=" (ctg24_21)" points="575,40 592,10 592,70" fill="rgb(255,255,255)" fill-opacity="1.0" stroke="rgb(0,0,0)" stroke-width="2"  />
		</g>
		<g>
			<title> (ctg24_22)</title>
			<polygon class=" (ctg24_22)" points="602,10 610,40 602,70" fill="rgb(255,255,255)" fill-opacity="1.0" stroke="rgb(0,0,0)" stroke-width="2"  />
			<g>
				<title>PP-binding (PF00550)
"Phosphopantetheine attachment site"</title>
				<polygon class="PF00550" points="603,28 603,28 607,40 603,52 603,52" stroke-linejoin="round" width="6" height="24" fill="rgb(103,191,88)" stroke="rgb(82,152,70)" stroke-width="1" opacity="0.75" />
			</g>
		</g>
		<g>
			<title> (ctg24_23)</title>
			<polygon class=" (ctg24_23)" points="613,25 643,25 643,10 673,40 643,70 643,55 613,55" fill="rgb(255,255,255)" fill-opacity="1.0" stroke="rgb(0,0,0)" stroke-width="2"  />
			<g>
				<title>Trp_halogenase (PF04820)
"Tryptophan halogenase"</title>
				<rect class="PF04820" x="624" y="28" stroke-linejoin="round" width="28" height="24" fill="rgb(179,74,194)" stroke="rgb(143,59,155)" stroke-width="1" opacity="0.75" />
			</g>
		</g>
		<g>
			<title> (ctg24_24)</title>
			<polygon class=" (ctg24_24)" points="676,25 803,25 803,10 833,40 803,70 803,55 676,55" fill="rgb(255,255,255)" fill-opacity="1.0" stroke="rgb(0,0,0)" stroke-width="2"  />
			<g>
				<title>ketoacyl-synt (PF00109)
"Beta-ketoacyl synthase, N-terminal domain"</title>
				<rect class="PF00109" x="676" y="28" stroke-linejoin="round" width="24" height="24" fill="rgb(112,116,228)" stroke="rgb(89,92,182)" stroke-width="1" opacity="0.75" />
			</g>
			<g>
				<title>Ketoacyl-synt_C (PF02801)
"Beta-ketoacyl synthase, C-terminal domain"</title>
				<rect class="PF02801" x="701" y="28" stroke-linejoin="round" width="11" height="24" fill="rgb(215,78,102)" stroke="rgb(172,62,81)" stroke-width="1" opacity="0.75" />
			</g>
			<g>
				<title>KAsynt_C_assoc (PF16197)
"Ketoacyl-synthetase C-terminal extension"</title>
				<rect class="PF16197" x="713" y="28" stroke-linejoin="round" width="11" height="24" fill="rgb(240,150,172)" stroke="rgb(192,120,137)" stroke-width="1" opacity="0.75" />
			</g>
			<g>
				<title>Acyl_transf_1 (PF00698)
"Acyl transferase domain"</title>
				<rect class="PF00698" x="728" y="28" stroke-linejoin="round" width="32" height="24" fill="rgb(59,176,209)" stroke="rgb(47,140,167)" stroke-width="1" opacity="0.75" />
			</g>
			<g>
				<title>KR (PF08659)
"KR domain"</title>
				<rect class="PF08659" x="793" y="28" stroke-linejoin="round" width="18" height="24" fill="rgb(66,209,188)" stroke="rgb(52,167,150)" stroke-width="1" opacity="0.75" />
			</g>
			<g>
				<title>PP-binding (PF00550)
"Phosphopantetheine attachment site"</title>
				<polygon class="PF00550" points="821,32 827,38 827,42 821,48" stroke-linejoin="round" width="6" height="24" fill="rgb(103,191,88)" stroke="rgb(82,152,70)" stroke-width="1" opacity="0.75" />
			</g>
		</g>
		<g>
			<title> (ctg24_25)</title>
			<polygon class=" (ctg24_25)" points="841,25 971,25 971,10 1001,40 971,70 971,55 841,55" fill="rgb(255,255,255)" fill-opacity="1.0" stroke="rgb(0,0,0)" stroke-width="2"  />
			<g>
				<title>ketoacyl-synt (PF00109)
"Beta-ketoacyl synthase, N-terminal domain"</title>
				<rect class="PF00109" x="844" y="28" stroke-linejoin="round" width="25" height="24" fill="rgb(112,116,228)" stroke="rgb(89,92,182)" stroke-width="1" opacity="0.75" />
			</g>
			<g>
				<title>Ketoacyl-synt_C (PF02801)
"Beta-ketoacyl synthase, C-terminal domain"</title>
				<rect class="PF02801" x="870" y="28" stroke-linejoin="round" width="11" height="24" fill="rgb(215,78,102)" stroke="rgb(172,62,81)" stroke-width="1" opacity="0.75" />
			</g>
			<g>
				<title>KAsynt_C_assoc (PF16197)
"Ketoacyl-synthetase C-terminal extension"</title>
				<rect class="PF16197" x="882" y="28" stroke-linejoin="round" width="11" height="24" fill="rgb(240,150,172)" stroke="rgb(192,120,137)" stroke-width="1" opacity="0.75" />
			</g>
			<g>
				<title>Acyl_transf_1 (PF00698)
"Acyl transferase domain"</title>
				<rect class="PF00698" x="897" y="28" stroke-linejoin="round" width="31" height="24" fill="rgb(59,176,209)" stroke="rgb(47,140,167)" stroke-width="1" opacity="0.75" />
			</g>
			<g>
				<title>PP-binding (PF00550)
"Phosphopantetheine attachment site"</title>
				<rect class="PF00550" x="936" y="28" stroke-linejoin="round" width="7" height="24" fill="rgb(103,191,88)" stroke="rgb(82,152,70)" stroke-width="1" opacity="0.75" />
			</g>
			<g>
				<title>Condensation (PF00668)
"Condensation domain"</title>
				<polygon class="PF00668" points="948,28 985,28 991,34 991,46 985,52 948,52" stroke-linejoin="round" width="43" height="24" fill="rgb(224,184,98)" stroke="rgb(179,147,78)" stroke-width="1" opacity="0.75" />
			</g>
			<g>
				<title>PP-binding (PF00550)
"Phosphopantetheine attachment site"</title>
				<polygon class="PF00550" points="993,36 997,40 993,44" stroke-linejoin="round" width="6" height="24" fill="rgb(103,191,88)" stroke="rgb(82,152,70)" stroke-width="1" opacity="0.75" />
			</g>
		</g>
		<g>
			<title> (ctg24_26)</title>
			<polygon class=" (ctg24_26)" points="1009,25 1076,25 1076,10 1106,40 1076,70 1076,55 1009,55" fill="rgb(255,255,255)" fill-opacity="1.0" stroke="rgb(0,0,0)" stroke-width="2"  />
			<g>
				<title>AMP-binding (PF00501)
"AMP-binding enzyme"</title>
				<rect class="PF00501" x="1010" y="28" stroke-linejoin="round" width="42" height="24" fill="rgb(60,217,223)" stroke="rgb(48,173,178)" stroke-width="1" opacity="0.75" />
			</g>
			<g>
				<title>AMP-binding_C (PF13193)
"AMP-binding enzyme C-terminal domain"</title>
				<rect class="PF13193" x="1053" y="28" stroke-linejoin="round" width="7" height="24" fill="rgb(182,50,118)" stroke="rgb(145,39,94)" stroke-width="1" opacity="0.75" />
			</g>
			<g>
				<title>Condensation (PF00668)
"Condensation domain"</title>
				<polygon class="PF00668" points="1063,28 1090,28 1102,40 1090,52 1063,52" stroke-linejoin="round" width="43" height="24" fill="rgb(224,184,98)" stroke="rgb(179,147,78)" stroke-width="1" opacity="0.75" />
			</g>
		</g>
		<g>
			<title> (ctg24_27)</title>
			<polygon class=" (ctg24_27)" points="1120,25 1217,25 1217,10 1247,40 1217,70 1217,55 1120,55" fill="rgb(255,255,255)" fill-opacity="1.0" stroke="rgb(0,0,0)" stroke-width="2"  />
			<g>
				<title>ketoacyl-synt (PF00109)
"Beta-ketoacyl synthase, N-terminal domain"</title>
				<rect class="PF00109" x="1121" y="28" stroke-linejoin="round" width="28" height="24" fill="rgb(112,116,228)" stroke="rgb(89,92,182)" stroke-width="1" opacity="0.75" />
			</g>
			<g>
				<title>Ketoacyl-synt_C (PF02801)
"Beta-ketoacyl synthase, C-terminal domain"</title>
				<rect class="PF02801" x="1150" y="28" stroke-linejoin="round" width="11" height="24" fill="rgb(215,78,102)" stroke="rgb(172,62,81)" stroke-width="1" opacity="0.75" />
			</g>
			<g>
				<title>KAsynt_C_assoc (PF16197)
"Ketoacyl-synthetase C-terminal extension"</title>
				<rect class="PF16197" x="1162" y="28" stroke-linejoin="round" width="11" height="24" fill="rgb(240,150,172)" stroke="rgb(192,120,137)" stroke-width="1" opacity="0.75" />
			</g>
			<g>
				<title>Acyl_transf_1 (PF00698)
"Acyl transferase domain"</title>
				<rect class="PF00698" x="1178" y="28" stroke-linejoin="round" width="32" height="24" fill="rgb(59,176,209)" stroke="rgb(47,140,167)" stroke-width="1" opacity="0.75" />
			</g>
			<g>
				<title>PP-binding (PF00550)
"Phosphopantetheine attachment site"</title>
				<polygon class="PF00550" points="1239,36 1243,40 1239,44" stroke-linejoin="round" width="6" height="24" fill="rgb(103,191,88)" stroke="rgb(82,152,70)" stroke-width="1" opacity="0.75" />
			</g>
		</g>
		<g>
			<title> (ctg24_28)</title>
			<polygon class=" (ctg24_28)" points="1249,10 1273,40 1249,70" fill="rgb(255,255,255)" fill-opacity="1.0" stroke="rgb(0,0,0)" stroke-width="2"  />
		</g>
		<g>
			<title> (ctg24_29)</title>
			<polygon class=" (ctg24_29)" points="1278,25 1306,25 1306,10 1336,40 1306,70 1306,55 1278,55" fill="rgb(255,255,255)" fill-opacity="1.0" stroke="rgb(0,0,0)" stroke-width="2"  />
			<g>
				<title>KR (PF08659)
"KR domain"</title>
				<rect class="PF08659" x="1279" y="28" stroke-linejoin="round" width="22" height="24" fill="rgb(66,209,188)" stroke="rgb(52,167,150)" stroke-width="1" opacity="0.75" />
			</g>
			<g>
				<title>PS-DH (PF14765)
"Polyketide synthase dehydratase"</title>
				<polygon class="PF14765" points="1307,28 1320,28 1332,40 1320,52 1307,52" stroke-linejoin="round" width="27" height="24" fill="rgb(173,56,182)" stroke="rgb(138,44,145)" stroke-width="1" opacity="0.75" />
			</g>
		</g>
		<g>
			<title> (ctg24_30)</title>
			<polygon class=" (ctg24_30)" points="1339,25 1475,25 1475,10 1505,40 1475,70 1475,55 1339,55" fill="rgb(255,255,255)" fill-opacity="1.0" stroke="rgb(0,0,0)" stroke-width="2"  />
			<g>
				<title>FabA (PF07977)
"FabA-like domain"</title>
				<rect class="PF07977" x="1450" y="28" stroke-linejoin="round" width="13" height="24" fill="rgb(66,205,188)" stroke="rgb(52,164,150)" stroke-width="1" opacity="0.75" />
			</g>
			<g>
				<title>FabA (PF07977)
"FabA-like domain"</title>
				<polygon class="PF07977" points="1490,29 1501,40 1490,51" stroke-linejoin="round" width="13" height="24" fill="rgb(66,205,188)" stroke="rgb(52,164,150)" stroke-width="1" opacity="0.75" />
			</g>
		</g>
		<g>
			<title> (ctg24_31)</title>
			<polygon class=" (ctg24_31)" points="1510,25 1532,25 1532,10 1562,40 1532,70 1532,55 1510,55" fill="rgb(255,255,255)" fill-opacity="1.0" stroke="rgb(0,0,0)" stroke-width="2"  />
			<g>
				<title>PfaD_N (PF18328)
"Fatty acid synthase subunit PfaD N-terminal domain"</title>
				<rect class="PF18328" x="1511" y="28" stroke-linejoin="round" width="4" height="24" fill="rgb(143,220,82)" stroke="rgb(114,176,65)" stroke-width="1" opacity="0.75" />
			</g>
			<g>
				<title>NMO (PF03060)
"Nitronate monooxygenase"</title>
				<polygon class="PF03060" points="1517,28 1546,28 1547,29 1547,51 1546,52 1517,52" stroke-linejoin="round" width="30" height="24" fill="rgb(100,193,226)" stroke="rgb(80,154,180)" stroke-width="1" opacity="0.75" />
			</g>
		</g>
		<g>
			<title> (ctg24_32)</title>
			<polygon class=" (ctg24_32)" points="1564,25 1573,25 1573,10 1603,40 1573,70 1573,55 1564,55" fill="rgb(255,255,255)" fill-opacity="1.0" stroke="rgb(0,0,0)" stroke-width="2"  />
			<g>
				<title>MFS_1 (PF07690)
"Major Facilitator Superfamily"</title>
				<rect class="PF07690" x="1565" y="28" stroke-linejoin="round" width="19" height="24" fill="rgb(193,224,74)" stroke="rgb(154,179,59)" stroke-width="1" opacity="0.75" />
			</g>
			<g>
				<title>MFS_1 (PF07690)
"Major Facilitator Superfamily"</title>
				<polygon class="PF07690" points="1584,28 1586,28 1598,40 1586,52 1584,52" stroke-linejoin="round" width="17" height="24" fill="rgb(193,224,74)" stroke="rgb(154,179,59)" stroke-width="1" opacity="0.75" />
			</g>
		</g>
		<g>
			<title> (ctg24_33)</title>
			<polygon class=" (ctg24_33)" points="1605,25 1617,25 1617,10 1647,40 1617,70 1617,55 1605,55" fill="rgb(255,255,255)" fill-opacity="1.0" stroke="rgb(0,0,0)" stroke-width="2"  />
			<g>
				<title>Amino_oxidase (PF01593)
"Flavin containing amine oxidoreductase"</title>
				<polygon class="PF01593" points="1606,28 1631,28 1636,33 1636,47 1631,52 1606,52" stroke-linejoin="round" width="30" height="24" fill="rgb(184,74,52)" stroke="rgb(147,59,41)" stroke-width="1" opacity="0.75" />
			</g>
		</g>
		<g>
			<title> (ctg24_34)</title>
			<polygon class=" (ctg24_34)" points="1654,10 1679,40 1654,70" fill="rgb(255,255,255)" fill-opacity="1.0" stroke="rgb(0,0,0)" stroke-width="2"  />
		</g>
		<g>
			<title> (ctg24_35)</title>
			<polygon class=" (ctg24_35)" points="1692,10 1697,40 1692,70" fill="rgb(255,255,255)" fill-opacity="1.0" stroke="rgb(0,0,0)" stroke-width="2"  />
		</g>
	</g>
</svg>
