<svg version="1.1" baseProfile="full" xmlns="http://www.w3.org/2000/svg" width="1400.7" height="80">
	<g>
		<line x1="10" y1="40.0" x2="1390.7" y2="40.0" style="stroke:rgb(70,70,70); stroke-width:3 "/>
		<g>
			<title> (ctg168_1)</title>
			<polygon class=" (ctg168_1)" points="14,25 42,25 42,10 72,40 42,70 42,55 14,55" fill="rgb(255,255,255)" fill-opacity="1.0" stroke="rgb(0,0,0)" stroke-width="2"  />
			<g>
				<title>ABC_membrane (PF00664)
"ABC transporter transmembrane region"</title>
				<rect class="PF00664" x="16" y="28" stroke-linejoin="round" width="27" height="24" fill="rgb(149,226,73)" stroke="rgb(119,180,58)" stroke-width="1" opacity="0.75" />
			</g>
			<g>
				<title>ABC_tran (PF00005)
"ABC transporter"</title>
				<polygon class="PF00005" points="49,28 55,28 63,36 63,44 55,52 49,52" stroke-linejoin="round" width="14" height="24" fill="rgb(129,201,63)" stroke="rgb(103,160,50)" stroke-width="1" opacity="0.75" />
			</g>
		</g>
		<g>
			<title> (ctg168_2)</title>
			<polygon class=" (ctg168_2)" points="75,25 100,25 100,10 130,40 100,70 100,55 75,55" fill="rgb(255,255,255)" fill-opacity="1.0" stroke="rgb(0,0,0)" stroke-width="2"  />
			<g>
				<title>Metallophos (PF00149)
"Calcineurin-like phosphoesterase"</title>
				<polygon class="PF00149" points="88,28 114,28 118,32 118,48 114,52 88,52" stroke-linejoin="round" width="30" height="24" fill="rgb(181,197,58)" stroke="rgb(144,157,46)" stroke-width="1" opacity="0.75" />
			</g>
		</g>
		<g>
			<title> (ctg168_3)</title>
			<polygon class=" (ctg168_3)" points="132,10 145,40 132,70" fill="rgb(255,255,255)" fill-opacity="1.0" stroke="rgb(0,0,0)" stroke-width="2"  />
		</g>
		<g>
			<title> (ctg168_4)</title>
			<polygon class=" (ctg168_4)" points="191,25 177,25 177,10 147,40 177,70 177,55 191,55" fill="rgb(255,255,255)" fill-opacity="1.0" stroke="rgb(0,0,0)" stroke-width="2"  />
			<g>
				<title>NIDO (PF06119)
"Nidogen-like"</title>
				<rect class="PF06119" x="164" y="28" stroke-linejoin="round" width="9" height="24" fill="rgb(183,118,84)" stroke="rgb(146,94,67)" stroke-width="1" opacity="0.75" />
			</g>
		</g>
		<g>
			<title> (ctg168_5)</title>
			<polygon class=" (ctg168_5)" points="266,25 233,25 233,10 203,40 233,70 233,55 266,55" fill="rgb(255,255,255)" fill-opacity="1.0" stroke="rgb(0,0,0)" stroke-width="2"  />
			<g>
				<title>UnbV_ASPIC (PF07593)
"ASPIC and UnbV"</title>
				<polygon class="PF07593" points="207,40 210,37 210,43" stroke-linejoin="round" width="6" height="24" fill="rgb(157,212,86)" stroke="rgb(125,169,68)" stroke-width="1" opacity="0.75" />
			</g>
			<g>
				<title>FG-GAP (PF01839)
"FG-GAP repeat"</title>
				<polygon class="PF01839" points="213,34 216,31 216,49 213,46" stroke-linejoin="round" width="3" height="24" fill="rgb(84,217,101)" stroke="rgb(67,173,80)" stroke-width="1" opacity="0.75" />
			</g>
			<g>
				<title>FG-GAP_3 (PF13517)
"FG-GAP-like repeat"</title>
				<rect class="PF13517" x="231" y="28" stroke-linejoin="round" width="7" height="24" fill="rgb(77,199,76)" stroke="rgb(61,159,60)" stroke-width="1" opacity="0.75" />
			</g>
			<g>
				<title>FG-GAP_3 (PF13517)
"FG-GAP-like repeat"</title>
				<rect class="PF13517" x="245" y="28" stroke-linejoin="round" width="6" height="24" fill="rgb(77,199,76)" stroke="rgb(61,159,60)" stroke-width="1" opacity="0.75" />
			</g>
		</g>
		<g>
			<title> (ctg168_6)</title>
			<polygon class=" (ctg168_6)" points="305,25 298,25 298,10 268,40 298,70 298,55 305,55" fill="rgb(255,255,255)" fill-opacity="1.0" stroke="rgb(0,0,0)" stroke-width="2"  />
			<g>
				<title>DUF1702 (PF08012)
"Protein of unknown function (DUF1702)"</title>
				<polygon class="PF08012" points="272,40 284,28 300,28 300,52 284,52" stroke-linejoin="round" width="32" height="24" fill="rgb(177,49,186)" stroke="rgb(141,39,148)" stroke-width="1" opacity="0.75" />
			</g>
		</g>
		<g>
			<title> (ctg168_7)</title>
			<polygon class=" (ctg168_7)" points="311,25 324,25 324,10 354,40 324,70 324,55 311,55" fill="rgb(255,255,255)" fill-opacity="1.0" stroke="rgb(0,0,0)" stroke-width="2"  />
			<g>
				<title>Biotin_lipoyl_2 (PF13533)
"Biotin-lipoyl like"</title>
				<rect class="PF13533" x="318" y="28" stroke-linejoin="round" width="5" height="24" fill="rgb(229,122,112)" stroke="rgb(183,97,89)" stroke-width="1" opacity="0.75" />
			</g>
			<g>
				<title>HlyD_3 (PF13437)
"HlyD family secretion protein"</title>
				<polygon class="PF13437" points="342,32 350,40 342,48" stroke-linejoin="round" width="11" height="24" fill="rgb(82,200,102)" stroke="rgb(65,160,81)" stroke-width="1" opacity="0.75" />
			</g>
		</g>
		<g>
			<title> (ctg168_8)</title>
			<polygon class=" (ctg168_8)" points="355,25 363,25 363,10 393,40 363,70 363,55 355,55" fill="rgb(255,255,255)" fill-opacity="1.0" stroke="rgb(0,0,0)" stroke-width="2"  />
			<g>
				<title>FtsX (PF02687)
"FtsX-like permease family"</title>
				<polygon class="PF02687" points="384,35 389,40 384,45" stroke-linejoin="round" width="8" height="24" fill="rgb(126,55,214)" stroke="rgb(100,44,171)" stroke-width="1" opacity="0.75" />
			</g>
		</g>
		<g>
			<title> (ctg168_9)</title>
			<polygon class=" (ctg168_9)" points="393,40 398,10 398,70" fill="rgb(255,255,255)" fill-opacity="1.0" stroke="rgb(0,0,0)" stroke-width="2"  />
		</g>
		<g>
			<title> (ctg168_10)</title>
			<polygon class=" (ctg168_10)" points="400,40 414,10 414,70" fill="rgb(255,255,255)" fill-opacity="1.0" stroke="rgb(0,0,0)" stroke-width="2"  />
			<g>
				<title>4HBT_2 (PF13279)
"Thioesterase-like superfamily"</title>
				<polygon class="PF13279" points="403,40 409,28 412,28 412,52 409,52" stroke-linejoin="round" width="12" height="24" fill="rgb(213,114,82)" stroke="rgb(170,91,65)" stroke-width="1" opacity="0.75" />
			</g>
		</g>
		<g>
			<title> (ctg168_11)</title>
			<polygon class=" (ctg168_11)" points="425,10 437,40 425,70" fill="rgb(255,255,255)" fill-opacity="1.0" stroke="rgb(0,0,0)" stroke-width="2"  />
		</g>
		<g>
			<title> (ctg168_12)</title>
			<polygon class=" (ctg168_12)" points="438,40 451,10 451,70" fill="rgb(255,255,255)" fill-opacity="1.0" stroke="rgb(0,0,0)" stroke-width="2"  />
			<g>
				<title>PIN (PF01850)
"PIN domain"</title>
				<polygon class="PF01850" points="441,40 447,28 450,28 450,52 447,52" stroke-linejoin="round" width="12" height="24" fill="rgb(91,217,126)" stroke="rgb(72,173,100)" stroke-width="1" opacity="0.75" />
			</g>
		</g>
		<g>
			<title> (ctg168_13)</title>
			<polygon class=" (ctg168_13)" points="452,40 459,10 459,70" fill="rgb(255,255,255)" fill-opacity="1.0" stroke="rgb(0,0,0)" stroke-width="2"  />
		</g>
		<g>
			<title> (ctg168_14)</title>
			<polygon class=" (ctg168_14)" points="461,25 462,25 462,10 492,40 462,70 462,55 461,55" fill="rgb(255,255,255)" fill-opacity="1.0" stroke="rgb(0,0,0)" stroke-width="2"  />
		</g>
		<g>
			<title> (ctg168_15)</title>
			<polygon class=" (ctg168_15)" points="493,10 500,40 493,70" fill="rgb(255,255,255)" fill-opacity="1.0" stroke="rgb(0,0,0)" stroke-width="2"  />
		</g>
		<g>
			<title> (ctg168_16)</title>
			<polygon class=" (ctg168_16)" points="505,40 523,10 523,70" fill="rgb(255,255,255)" fill-opacity="1.0" stroke="rgb(0,0,0)" stroke-width="2"  />
		</g>
		<g>
			<title> (ctg168_17)</title>
			<polygon class=" (ctg168_17)" points="724,25 556,25 556,10 526,40 556,70 556,55 724,55" fill="rgb(255,255,255)" fill-opacity="1.0" stroke="rgb(0,0,0)" stroke-width="2"  />
			<g>
				<title>PS-DH (PF14765)
"Polyketide synthase dehydratase"</title>
				<rect class="PF14765" x="547" y="28" stroke-linejoin="round" width="31" height="24" fill="rgb(173,56,182)" stroke="rgb(138,44,145)" stroke-width="1" opacity="0.75" />
			</g>
			<g>
				<title>KR (PF08659)
"KR domain"</title>
				<rect class="PF08659" x="584" y="28" stroke-linejoin="round" width="18" height="24" fill="rgb(66,209,188)" stroke="rgb(52,167,150)" stroke-width="1" opacity="0.75" />
			</g>
			<g>
				<title>PP-binding (PF00550)
"Phosphopantetheine attachment site"</title>
				<rect class="PF00550" x="623" y="28" stroke-linejoin="round" width="6" height="24" fill="rgb(103,191,88)" stroke="rgb(82,152,70)" stroke-width="1" opacity="0.75" />
			</g>
			<g>
				<title>Acyl_transf_1 (PF00698)
"Acyl transferase domain"</title>
				<rect class="PF00698" x="637" y="28" stroke-linejoin="round" width="30" height="24" fill="rgb(59,176,209)" stroke="rgb(47,140,167)" stroke-width="1" opacity="0.75" />
			</g>
			<g>
				<title>KAsynt_C_assoc (PF16197)
"Ketoacyl-synthetase C-terminal extension"</title>
				<rect class="PF16197" x="670" y="28" stroke-linejoin="round" width="12" height="24" fill="rgb(240,150,172)" stroke="rgb(192,120,137)" stroke-width="1" opacity="0.75" />
			</g>
			<g>
				<title>Ketoacyl-synt_C (PF02801)
"Beta-ketoacyl synthase, C-terminal domain"</title>
				<rect class="PF02801" x="682" y="28" stroke-linejoin="round" width="11" height="24" fill="rgb(215,78,102)" stroke="rgb(172,62,81)" stroke-width="1" opacity="0.75" />
			</g>
			<g>
				<title>ketoacyl-synt (PF00109)
"Beta-ketoacyl synthase, N-terminal domain"</title>
				<rect class="PF00109" x="694" y="28" stroke-linejoin="round" width="28" height="24" fill="rgb(112,116,228)" stroke="rgb(89,92,182)" stroke-width="1" opacity="0.75" />
			</g>
		</g>
		<g>
			<title> (ctg168_18)</title>
			<polygon class=" (ctg168_18)" points="759,25 757,25 757,10 727,40 757,70 757,55 759,55" fill="rgb(255,255,255)" fill-opacity="1.0" stroke="rgb(0,0,0)" stroke-width="2"  />
		</g>
		<g>
			<title> (ctg168_19)</title>
			<polygon class=" (ctg168_19)" points="762,10 781,40 762,70" fill="rgb(255,255,255)" fill-opacity="1.0" stroke="rgb(0,0,0)" stroke-width="2"  />
			<g>
				<title>Uma2 (PF05685)
"Putative restriction endonuclease"</title>
				<polygon class="PF05685" points="762,28 769,28 777,40 777,40 769,52 762,52" stroke-linejoin="round" width="15" height="24" fill="rgb(123,107,219)" stroke="rgb(98,85,175)" stroke-width="1" opacity="0.75" />
			</g>
		</g>
		<g>
			<title> (ctg168_20)</title>
			<polygon class=" (ctg168_20)" points="818,25 818,25 818,10 788,40 818,70 818,55 818,55" fill="rgb(255,255,255)" fill-opacity="1.0" stroke="rgb(0,0,0)" stroke-width="2"  />
		</g>
		<g>
			<title> (ctg168_21)</title>
			<polygon class=" (ctg168_21)" points="832,10 855,40 832,70" fill="rgb(255,255,255)" fill-opacity="1.0" stroke="rgb(0,0,0)" stroke-width="2"  />
			<g>
				<title>Pirin (PF02678)
"Pirin"</title>
				<polygon class="PF02678" points="832,28 842,28 843,30 843,50 842,52 832,52" stroke-linejoin="round" width="11" height="24" fill="rgb(139,213,61)" stroke="rgb(111,170,48)" stroke-width="1" opacity="0.75" />
			</g>
			<g>
				<title>Pirin_C_2 (PF17954)
"Quercetinase C-terminal cupin domain"</title>
				<polygon class="PF17954" points="846,34 851,40 846,46" stroke-linejoin="round" width="8" height="24" fill="rgb(224,140,102)" stroke="rgb(179,112,81)" stroke-width="1" opacity="0.75" />
			</g>
		</g>
		<g>
			<title> (ctg168_22)</title>
			<polygon class=" (ctg168_22)" points="858,40 866,10 866,70" fill="rgb(255,255,255)" fill-opacity="1.0" stroke="rgb(0,0,0)" stroke-width="2"  />
		</g>
		<g>
			<title> (ctg168_23)</title>
			<polygon class=" (ctg168_23)" points="879,10 890,40 879,70" fill="rgb(255,255,255)" fill-opacity="1.0" stroke="rgb(0,0,0)" stroke-width="2"  />
		</g>
		<g>
			<title> (ctg168_24)</title>
			<polygon class=" (ctg168_24)" points="923,25 922,25 922,10 892,40 922,70 922,55 923,55" fill="rgb(255,255,255)" fill-opacity="1.0" stroke="rgb(0,0,0)" stroke-width="2"  />
			<g>
				<title>SQS_PSY (PF00494)
"Squalene/phytoene synthase"</title>
				<polygon class="PF00494" points="896,40 908,28 919,28 919,52 908,52" stroke-linejoin="round" width="26" height="24" fill="rgb(178,91,49)" stroke="rgb(142,72,39)" stroke-width="1" opacity="0.75" />
			</g>
		</g>
		<g>
			<title> (ctg168_25)</title>
			<polygon class=" (ctg168_25)" points="974,25 957,25 957,10 927,40 957,70 957,55 974,55" fill="rgb(255,255,255)" fill-opacity="1.0" stroke="rgb(0,0,0)" stroke-width="2"  />
			<g>
				<title>Amino_oxidase (PF01593)
"Flavin containing amine oxidoreductase"</title>
				<polygon class="PF01593" points="931,40 943,28 973,28 973,52 943,52" stroke-linejoin="round" width="44" height="24" fill="rgb(184,74,52)" stroke="rgb(147,59,41)" stroke-width="1" opacity="0.75" />
			</g>
		</g>
		<g>
			<title> (ctg168_26)</title>
			<polygon class=" (ctg168_26)" points="987,25 1049,25 1049,10 1079,40 1049,70 1049,55 987,55" fill="rgb(255,255,255)" fill-opacity="1.0" stroke="rgb(0,0,0)" stroke-width="2"  />
			<g>
				<title>Cation_ATPase_N (PF00690)
"Cation transporter/ATPase, N-terminus"</title>
				<rect class="PF00690" x="988" y="28" stroke-linejoin="round" width="6" height="24" fill="rgb(174,102,225)" stroke="rgb(139,81,180)" stroke-width="1" opacity="0.75" />
			</g>
			<g>
				<title>E1-E2_ATPase (PF00122)
"E1-E2 ATPase"</title>
				<rect class="PF00122" x="1000" y="28" stroke-linejoin="round" width="19" height="24" fill="rgb(149,204,70)" stroke="rgb(119,163,56)" stroke-width="1" opacity="0.75" />
			</g>
			<g>
				<title>Hydrolase (PF00702)
"haloacid dehalogenase-like hydrolase"</title>
				<rect class="PF00702" x="1021" y="28" stroke-linejoin="round" width="32" height="24" fill="rgb(68,220,102)" stroke="rgb(54,176,81)" stroke-width="1" opacity="0.75" />
			</g>
			<g>
				<title>Cation_ATPase_C (PF00689)
"Cation transporting ATPase, C-terminus"</title>
				<polygon class="PF00689" points="1061,28 1063,28 1075,40 1063,52 1061,52" stroke-linejoin="round" width="17" height="24" fill="rgb(76,203,161)" stroke="rgb(60,162,128)" stroke-width="1" opacity="0.75" />
			</g>
		</g>
		<g>
			<title> (ctg168_27)</title>
			<polygon class=" (ctg168_27)" points="1080,25 1110,25 1110,10 1140,40 1110,70 1110,55 1080,55" fill="rgb(255,255,255)" fill-opacity="1.0" stroke="rgb(0,0,0)" stroke-width="2"  />
			<g>
				<title>CitMHS (PF03600)
"Citrate transporter"</title>
				<polygon class="PF03600" points="1081,28 1123,28 1133,38 1133,42 1123,52 1081,52" stroke-linejoin="round" width="52" height="24" fill="rgb(75,203,220)" stroke="rgb(60,162,176)" stroke-width="1" opacity="0.75" />
			</g>
		</g>
		<g>
			<title> (ctg168_28)</title>
			<polygon class=" (ctg168_28)" points="1142,40 1159,10 1159,70" fill="rgb(255,255,255)" fill-opacity="1.0" stroke="rgb(0,0,0)" stroke-width="2"  />
			<g>
				<title>TPR_12 (PF13424)
"Tetratricopeptide repeat"</title>
				<polygon class="PF13424" points="1147,37 1152,28 1154,28 1154,52 1152,52 1147,43" stroke-linejoin="round" width="7" height="24" fill="rgb(147,215,101)" stroke="rgb(117,172,80)" stroke-width="1" opacity="0.75" />
			</g>
		</g>
		<g>
			<title> (ctg168_29)</title>
			<polygon class=" (ctg168_29)" points="1168,40 1194,10 1194,70" fill="rgb(255,255,255)" fill-opacity="1.0" stroke="rgb(0,0,0)" stroke-width="2"  />
			<g>
				<title>SBP_bac_3 (PF00497)
"Bacterial extracellular solute-binding proteins, family 3"</title>
				<polygon class="PF00497" points="1172,40 1182,28 1190,28 1190,52 1182,52" stroke-linejoin="round" width="22" height="24" fill="rgb(186,76,141)" stroke="rgb(148,60,112)" stroke-width="1" opacity="0.75" />
			</g>
		</g>
		<g>
			<title> (ctg168_30)</title>
			<polygon class=" (ctg168_30)" points="1194,40 1217,10 1217,70" fill="rgb(255,255,255)" fill-opacity="1.0" stroke="rgb(0,0,0)" stroke-width="2"  />
			<g>
				<title>GGDEF (PF00990)
"Diguanylate cyclase, GGDEF domain"</title>
				<polygon class="PF00990" points="1198,40 1207,28 1209,28 1209,52 1207,52" stroke-linejoin="round" width="15" height="24" fill="rgb(62,170,199)" stroke="rgb(49,135,159)" stroke-width="1" opacity="0.75" />
			</g>
		</g>
		<g>
			<title> (ctg168_31)</title>
			<polygon class=" (ctg168_31)" points="1218,40 1224,10 1224,70" fill="rgb(255,255,255)" fill-opacity="1.0" stroke="rgb(0,0,0)" stroke-width="2"  />
			<g>
				<title>Response_reg (PF00072)
"Response regulator receiver domain"</title>
				<polygon class="PF00072" points="1221,40 1223,31 1223,49" stroke-linejoin="round" width="5" height="24" fill="rgb(100,107,203)" stroke="rgb(80,85,162)" stroke-width="1" opacity="0.75" />
			</g>
		</g>
		<g>
			<title> (ctg168_32)</title>
			<polygon class=" (ctg168_32)" points="1232,25 1299,25 1299,10 1329,40 1299,70 1299,55 1232,55" fill="rgb(255,255,255)" fill-opacity="1.0" stroke="rgb(0,0,0)" stroke-width="2"  />
			<g>
				<title>DEAD (PF00270)
"DEAD/DEAH box helicase"</title>
				<rect class="PF00270" x="1234" y="28" stroke-linejoin="round" width="17" height="24" fill="rgb(195,100,62)" stroke="rgb(156,80,49)" stroke-width="1" opacity="0.75" />
			</g>
			<g>
				<title>Helicase_C (PF00271)
"Helicase conserved C-terminal domain"</title>
				<rect class="PF00271" x="1268" y="28" stroke-linejoin="round" width="11" height="24" fill="rgb(104,224,158)" stroke="rgb(83,179,126)" stroke-width="1" opacity="0.75" />
			</g>
			<g>
				<title>DSHCT (PF08148)
"DSHCT (NUC185) domain"</title>
				<polygon class="PF08148" points="1312,28 1313,28 1325,40 1313,52 1312,52" stroke-linejoin="round" width="17" height="24" fill="rgb(63,184,140)" stroke="rgb(50,147,112)" stroke-width="1" opacity="0.75" />
			</g>
		</g>
		<g>
			<title> (ctg168_33)</title>
			<polygon class=" (ctg168_33)" points="1361,25 1360,25 1360,10 1330,40 1360,70 1360,55 1361,55" fill="rgb(255,255,255)" fill-opacity="1.0" stroke="rgb(0,0,0)" stroke-width="2"  />
			<g>
				<title>TPR_11 (PF13414)
"TPR repeat"</title>
				<polygon class="PF13414" points="1334,40 1337,37 1337,43 1334,40" stroke-linejoin="round" width="3" height="24" fill="rgb(55,76,182)" stroke="rgb(44,60,145)" stroke-width="1" opacity="0.75" />
			</g>
			<g>
				<title>TPR_11 (PF13414)
"TPR repeat"</title>
				<polygon class="PF13414" points="1345,29 1346,28 1349,28 1349,52 1346,52 1345,51" stroke-linejoin="round" width="4" height="24" fill="rgb(55,76,182)" stroke="rgb(44,60,145)" stroke-width="1" opacity="0.75" />
			</g>
		</g>
		<g>
			<title> (ctg168_34)</title>
			<polygon class=" (ctg168_34)" points="1372,10 1389,40 1372,70" fill="rgb(255,255,255)" fill-opacity="1.0" stroke="rgb(0,0,0)" stroke-width="2"  />
			<g>
				<title>YceD (PF02620)
"Large ribosomal RNA subunit accumulation protein YceD"</title>
				<polygon class="PF02620" points="1376,28 1378,28 1385,40 1378,52 1376,52" stroke-linejoin="round" width="11" height="24" fill="rgb(206,67,167)" stroke="rgb(164,53,133)" stroke-width="1" opacity="0.75" />
			</g>
		</g>
	</g>
</svg>
