<svg version="1.1" baseProfile="full" xmlns="http://www.w3.org/2000/svg" width="836.7" height="80">
	<g>
		<line x1="10" y1="40.0" x2="826.7" y2="40.0" style="stroke:rgb(70,70,70); stroke-width:3 "/>
		<g>
			<title> (ctg21_1)</title>
			<polygon class=" (ctg21_1)" points="10,10 20,40 10,70" fill="rgb(255,255,255)" fill-opacity="1.0" stroke="rgb(0,0,0)" stroke-width="2"  />
			<g>
				<title>PP-binding (PF00550)
"Phosphopantetheine attachment site"</title>
				<polygon class="PF00550" points="11,28 13,28 17,39 17,41 13,52 11,52" stroke-linejoin="round" width="6" height="24" fill="rgb(103,191,88)" stroke="rgb(82,152,70)" stroke-width="1" opacity="0.75" />
			</g>
		</g>
		<g>
			<title> (ctg21_2)</title>
			<polygon class=" (ctg21_2)" points="21,25 130,25 130,10 160,40 130,70 130,55 21,55" fill="rgb(255,255,255)" fill-opacity="1.0" stroke="rgb(0,0,0)" stroke-width="2"  />
			<g>
				<title>TubC_N (PF18563)
"TubC N-terminal docking domain"</title>
				<rect class="PF18563" x="21" y="28" stroke-linejoin="round" width="5" height="24" fill="rgb(95,217,77)" stroke="rgb(75,173,61)" stroke-width="1" opacity="0.75" />
			</g>
			<g>
				<title>Condensation (PF00668)
"Condensation domain"</title>
				<rect class="PF00668" x="28" y="28" stroke-linejoin="round" width="44" height="24" fill="rgb(224,184,98)" stroke="rgb(179,147,78)" stroke-width="1" opacity="0.75" />
			</g>
			<g>
				<title>AMP-binding (PF00501)
"AMP-binding enzyme"</title>
				<rect class="PF00501" x="75" y="28" stroke-linejoin="round" width="39" height="24" fill="rgb(60,217,223)" stroke="rgb(48,173,178)" stroke-width="1" opacity="0.75" />
			</g>
			<g>
				<title>AMP-binding_C (PF13193)
"AMP-binding enzyme C-terminal domain"</title>
				<rect class="PF13193" x="115" y="28" stroke-linejoin="round" width="7" height="24" fill="rgb(182,50,118)" stroke="rgb(145,39,94)" stroke-width="1" opacity="0.75" />
			</g>
			<g>
				<title>PP-binding (PF00550)
"Phosphopantetheine attachment site"</title>
				<rect class="PF00550" x="125" y="28" stroke-linejoin="round" width="6" height="24" fill="rgb(103,191,88)" stroke="rgb(82,152,70)" stroke-width="1" opacity="0.75" />
			</g>
			<g>
				<title>Thioesterase (PF00975)
"Thioesterase domain"</title>
				<polygon class="PF00975" points="134,28 143,28 155,40 143,52 134,52" stroke-linejoin="round" width="25" height="24" fill="rgb(207,80,138)" stroke="rgb(165,63,110)" stroke-width="1" opacity="0.75" />
			</g>
		</g>
		<g>
			<title> (ctg21_3)</title>
			<polygon class=" (ctg21_3)" points="162,25 198,25 198,10 228,40 198,70 198,55 162,55" fill="rgb(255,255,255)" fill-opacity="1.0" stroke="rgb(0,0,0)" stroke-width="2"  />
			<g>
				<title>ABC_membrane_2 (PF06472)
"ABC transporter transmembrane region 2"</title>
				<rect class="PF06472" x="166" y="28" stroke-linejoin="round" width="25" height="24" fill="rgb(120,179,45)" stroke="rgb(96,143,36)" stroke-width="1" opacity="0.75" />
			</g>
			<g>
				<title>ABC_tran (PF00005)
"ABC transporter"</title>
				<polygon class="PF00005" points="200,28 212,28 213,29 213,51 212,52 200,52" stroke-linejoin="round" width="13" height="24" fill="rgb(129,201,63)" stroke="rgb(103,160,50)" stroke-width="1" opacity="0.75" />
			</g>
		</g>
		<g>
			<title> (ctg21_4)</title>
			<polygon class=" (ctg21_4)" points="228,40 234,10 234,70" fill="rgb(255,255,255)" fill-opacity="1.0" stroke="rgb(0,0,0)" stroke-width="2"  />
		</g>
		<g>
			<title> (ctg21_5)</title>
			<polygon class=" (ctg21_5)" points="365,25 269,25 269,10 239,40 269,70 269,55 365,55" fill="rgb(255,255,255)" fill-opacity="1.0" stroke="rgb(0,0,0)" stroke-width="2"  />
			<g>
				<title>TaqI_C (PF12950)
"TaqI-like C-terminal specificity domain"</title>
				<polygon class="PF12950" points="246,37 255,28 262,28 262,52 255,52 246,43" stroke-linejoin="round" width="16" height="24" fill="rgb(132,203,53)" stroke="rgb(105,162,42)" stroke-width="1" opacity="0.75" />
			</g>
			<g>
				<title>Eco57I (PF07669)
"Eco57I restriction-modification methylase"</title>
				<rect class="PF07669" x="272" y="28" stroke-linejoin="round" width="11" height="24" fill="rgb(107,93,196)" stroke="rgb(85,74,156)" stroke-width="1" opacity="0.75" />
			</g>
		</g>
		<g>
			<title> (ctg21_6)</title>
			<polygon class=" (ctg21_6)" points="372,40 396,10 396,70" fill="rgb(255,255,255)" fill-opacity="1.0" stroke="rgb(0,0,0)" stroke-width="2"  />
			<g>
				<title>DUF1995 (PF09353)
"Domain of unknown function (DUF1995)"</title>
				<polygon class="PF09353" points="376,40 386,28 395,28 395,52 386,52" stroke-linejoin="round" width="20" height="24" fill="rgb(215,113,55)" stroke="rgb(172,90,44)" stroke-width="1" opacity="0.75" />
			</g>
		</g>
		<g>
			<title> (ctg21_7)</title>
			<polygon class=" (ctg21_7)" points="410,40 419,10 419,70" fill="rgb(255,255,255)" fill-opacity="1.0" stroke="rgb(0,0,0)" stroke-width="2"  />
		</g>
		<g>
			<title> (ctg21_8)</title>
			<polygon class=" (ctg21_8)" points="419,40 442,10 442,70" fill="rgb(255,255,255)" fill-opacity="1.0" stroke="rgb(0,0,0)" stroke-width="2"  />
		</g>
		<g>
			<title> (ctg21_9)</title>
			<polygon class=" (ctg21_9)" points="505,25 477,25 477,10 447,40 477,70 477,55 505,55" fill="rgb(255,255,255)" fill-opacity="1.0" stroke="rgb(0,0,0)" stroke-width="2"  />
			<g>
				<title>Flavin_Reduct (PF01613)
"Flavin reductase like domain"</title>
				<polygon class="PF01613" points="451,40 461,30 461,50" stroke-linejoin="round" width="14" height="24" fill="rgb(107,197,222)" stroke="rgb(85,157,177)" stroke-width="1" opacity="0.75" />
			</g>
		</g>
		<g>
			<title> (ctg21_10)</title>
			<polygon class=" (ctg21_10)" points="507,40 523,10 523,70" fill="rgb(255,255,255)" fill-opacity="1.0" stroke="rgb(0,0,0)" stroke-width="2"  />
			<g>
				<title>PsiE (PF06146)
"Phosphate-starvation-inducible E family"</title>
				<polygon class="PF06146" points="510,40 517,28 521,28 521,52 517,52 510,40" stroke-linejoin="round" width="11" height="24" fill="rgb(193,99,211)" stroke="rgb(154,79,168)" stroke-width="1" opacity="0.75" />
			</g>
		</g>
		<g>
			<title> (ctg21_11)</title>
			<polygon class=" (ctg21_11)" points="587,25 560,25 560,10 530,40 560,70 560,55 587,55" fill="rgb(255,255,255)" fill-opacity="1.0" stroke="rgb(0,0,0)" stroke-width="2"  />
			<g>
				<title>Flavin_Reduct (PF01613)
"Flavin reductase like domain"</title>
				<polygon class="PF01613" points="534,40 544,30 544,50" stroke-linejoin="round" width="14" height="24" fill="rgb(107,197,222)" stroke="rgb(85,157,177)" stroke-width="1" opacity="0.75" />
			</g>
			<g>
				<title>Lactamase_B (PF00753)
"Metallo-beta-lactamase superfamily"</title>
				<rect class="PF00753" x="563" y="28" stroke-linejoin="round" width="19" height="24" fill="rgb(206,198,96)" stroke="rgb(164,158,76)" stroke-width="1" opacity="0.75" />
			</g>
		</g>
		<g>
			<title> (ctg21_12)</title>
			<polygon class=" (ctg21_12)" points="598,10 603,40 598,70" fill="rgb(255,255,255)" fill-opacity="1.0" stroke="rgb(0,0,0)" stroke-width="2"  />
		</g>
		<g>
			<title> (ctg21_13)</title>
			<polygon class=" (ctg21_13)" points="748,25 631,25 631,10 601,40 631,70 631,55 748,55" fill="rgb(255,255,255)" fill-opacity="1.0" stroke="rgb(0,0,0)" stroke-width="2"  />
			<g>
				<title>HemolysinCabind (PF00353)
"RTX calcium-binding nonapeptide repeat (4 copies)"</title>
				<polygon class="PF00353" points="613,32 616,29 616,51 613,48" stroke-linejoin="round" width="3" height="24" fill="rgb(73,143,181)" stroke="rgb(58,114,144)" stroke-width="1" opacity="0.75" />
			</g>
			<g>
				<title>HemolysinCabind (PF00353)
"RTX calcium-binding nonapeptide repeat (4 copies)"</title>
				<rect class="PF00353" x="623" y="28" stroke-linejoin="round" width="3" height="24" fill="rgb(73,143,181)" stroke="rgb(58,114,144)" stroke-width="1" opacity="0.75" />
			</g>
			<g>
				<title>Calx-beta (PF03160)
"Calx-beta domain"</title>
				<rect class="PF03160" x="630" y="28" stroke-linejoin="round" width="10" height="24" fill="rgb(179,76,146)" stroke="rgb(143,60,116)" stroke-width="1" opacity="0.75" />
			</g>
			<g>
				<title>Calx-beta (PF03160)
"Calx-beta domain"</title>
				<rect class="PF03160" x="642" y="28" stroke-linejoin="round" width="10" height="24" fill="rgb(179,76,146)" stroke="rgb(143,60,116)" stroke-width="1" opacity="0.75" />
			</g>
			<g>
				<title>Calx-beta (PF03160)
"Calx-beta domain"</title>
				<rect class="PF03160" x="653" y="28" stroke-linejoin="round" width="10" height="24" fill="rgb(179,76,146)" stroke="rgb(143,60,116)" stroke-width="1" opacity="0.75" />
			</g>
			<g>
				<title>Calx-beta (PF03160)
"Calx-beta domain"</title>
				<rect class="PF03160" x="665" y="28" stroke-linejoin="round" width="9" height="24" fill="rgb(179,76,146)" stroke="rgb(143,60,116)" stroke-width="1" opacity="0.75" />
			</g>
			<g>
				<title>HemolysinCabind (PF00353)
"RTX calcium-binding nonapeptide repeat (4 copies)"</title>
				<rect class="PF00353" x="685" y="28" stroke-linejoin="round" width="3" height="24" fill="rgb(73,143,181)" stroke="rgb(58,114,144)" stroke-width="1" opacity="0.75" />
			</g>
			<g>
				<title>HemolysinCabind (PF00353)
"RTX calcium-binding nonapeptide repeat (4 copies)"</title>
				<rect class="PF00353" x="688" y="28" stroke-linejoin="round" width="3" height="24" fill="rgb(73,143,181)" stroke="rgb(58,114,144)" stroke-width="1" opacity="0.75" />
			</g>
			<g>
				<title>HemolysinCabind (PF00353)
"RTX calcium-binding nonapeptide repeat (4 copies)"</title>
				<rect class="PF00353" x="696" y="28" stroke-linejoin="round" width="1" height="24" fill="rgb(73,143,181)" stroke="rgb(58,114,144)" stroke-width="1" opacity="0.75" />
			</g>
			<g>
				<title>HemolysinCabind (PF00353)
"RTX calcium-binding nonapeptide repeat (4 copies)"</title>
				<rect class="PF00353" x="700" y="28" stroke-linejoin="round" width="3" height="24" fill="rgb(73,143,181)" stroke="rgb(58,114,144)" stroke-width="1" opacity="0.75" />
			</g>
			<g>
				<title>HemolysinCabind (PF00353)
"RTX calcium-binding nonapeptide repeat (4 copies)"</title>
				<rect class="PF00353" x="714" y="28" stroke-linejoin="round" width="3" height="24" fill="rgb(73,143,181)" stroke="rgb(58,114,144)" stroke-width="1" opacity="0.75" />
			</g>
			<g>
				<title>HemolysinCabind (PF00353)
"RTX calcium-binding nonapeptide repeat (4 copies)"</title>
				<rect class="PF00353" x="724" y="28" stroke-linejoin="round" width="1" height="24" fill="rgb(73,143,181)" stroke="rgb(58,114,144)" stroke-width="1" opacity="0.75" />
			</g>
			<g>
				<title>HemolysinCabind (PF00353)
"RTX calcium-binding nonapeptide repeat (4 copies)"</title>
				<rect class="PF00353" x="726" y="28" stroke-linejoin="round" width="3" height="24" fill="rgb(73,143,181)" stroke="rgb(58,114,144)" stroke-width="1" opacity="0.75" />
			</g>
		</g>
		<g>
			<title> (ctg21_14)</title>
			<polygon class=" (ctg21_14)" points="758,40 781,10 781,70" fill="rgb(255,255,255)" fill-opacity="1.0" stroke="rgb(0,0,0)" stroke-width="2"  />
			<g>
				<title>tRNA_m1G_MT (PF01746)
"tRNA (Guanine-1)-methyltransferase"</title>
				<polygon class="PF01746" points="762,40 771,28 778,28 778,52 771,52" stroke-linejoin="round" width="19" height="24" fill="rgb(69,212,172)" stroke="rgb(55,169,137)" stroke-width="1" opacity="0.75" />
			</g>
		</g>
		<g>
			<title> (ctg21_15)</title>
			<polygon class=" (ctg21_15)" points="789,25 791,25 791,10 821,40 791,70 791,55 789,55" fill="rgb(255,255,255)" fill-opacity="1.0" stroke="rgb(0,0,0)" stroke-width="2"  />
			<g>
				<title>Peptidase_S51 (PF03575)
"Peptidase family S51"</title>
				<polygon class="PF03575" points="795,28 805,28 815,38 815,42 805,52 795,52" stroke-linejoin="round" width="20" height="24" fill="rgb(84,201,194)" stroke="rgb(67,160,155)" stroke-width="1" opacity="0.75" />
			</g>
		</g>
	</g>
</svg>
