<svg version="1.1" baseProfile="full" xmlns="http://www.w3.org/2000/svg" width="750.2666666666667" height="80">
	<g>
		<line x1="10" y1="40.0" x2="740.2666666666667" y2="40.0" style="stroke:rgb(70,70,70); stroke-width:3 "/>
		<g>
			<title> (ctg3_32)</title>
			<polygon class=" (ctg3_32)" points="18,25 18,25 18,10 48,40 18,70 18,55 18,55" fill="rgb(255,255,255)" fill-opacity="1.0" stroke="rgb(0,0,0)" stroke-width="2"  />
			<g>
				<title>EamA (PF00892)
"EamA-like transporter family"</title>
				<polygon class="PF00892" points="19,28 31,28 32,29 32,51 31,52 19,52" stroke-linejoin="round" width="13" height="24" fill="rgb(105,217,77)" stroke="rgb(84,173,61)" stroke-width="1" opacity="0.75" />
			</g>
			<g>
				<title>EamA (PF00892)
"EamA-like transporter family"</title>
				<polygon class="PF00892" points="34,31 43,40 34,49" stroke-linejoin="round" width="14" height="24" fill="rgb(105,217,77)" stroke="rgb(84,173,61)" stroke-width="1" opacity="0.75" />
			</g>
		</g>
		<g>
			<title> (ctg3_33)</title>
			<polygon class=" (ctg3_33)" points="89,25 78,25 78,10 48,40 78,70 78,55 89,55" fill="rgb(255,255,255)" fill-opacity="1.0" stroke="rgb(0,0,0)" stroke-width="2"  />
			<g>
				<title>VWA (PF00092)
"von Willebrand factor type A domain"</title>
				<rect class="PF00092" x="68" y="28" stroke-linejoin="round" width="16" height="24" fill="rgb(199,215,59)" stroke="rgb(159,172,47)" stroke-width="1" opacity="0.75" />
			</g>
		</g>
		<g>
			<title> (ctg3_34)</title>
			<polygon class=" (ctg3_34)" points="101,10 107,40 101,70" fill="rgb(255,255,255)" fill-opacity="1.0" stroke="rgb(0,0,0)" stroke-width="2"  />
			<g>
				<title>DUF4277 (PF14104)
"Domain of unknown function (DUF4277)"</title>
				<polygon class="PF14104" points="101,28 101,28 104,40 101,52 101,52" stroke-linejoin="round" width="5" height="24" fill="rgb(67,132,210)" stroke="rgb(53,105,168)" stroke-width="1" opacity="0.75" />
			</g>
		</g>
		<g>
			<title> (ctg3_35)</title>
			<polygon class=" (ctg3_35)" points="159,25 151,25 151,10 121,40 151,70 151,55 159,55" fill="rgb(255,255,255)" fill-opacity="1.0" stroke="rgb(0,0,0)" stroke-width="2"  />
			<g>
				<title>Aminotran_5 (PF00266)
"Aminotransferase class-V"</title>
				<polygon class="PF00266" points="125,40 137,28 158,28 158,52 137,52 125,40" stroke-linejoin="round" width="33" height="24" fill="rgb(214,54,122)" stroke="rgb(171,43,97)" stroke-width="1" opacity="0.75" />
			</g>
		</g>
		<g>
			<title> (ctg3_36)</title>
			<polygon class=" (ctg3_36)" points="167,40 196,10 196,70" fill="rgb(255,255,255)" fill-opacity="1.0" stroke="rgb(0,0,0)" stroke-width="2"  />
			<g>
				<title>IGPS (PF00218)
"Indole-3-glycerol phosphate synthase"</title>
				<polygon class="PF00218" points="171,40 183,28 192,28 192,52 183,52" stroke-linejoin="round" width="25" height="24" fill="rgb(183,89,153)" stroke="rgb(146,71,122)" stroke-width="1" opacity="0.75" />
			</g>
		</g>
		<g>
			<title> (ctg3_37)</title>
			<polygon class=" (ctg3_37)" points="201,40 208,10 208,70" fill="rgb(255,255,255)" fill-opacity="1.0" stroke="rgb(0,0,0)" stroke-width="2"  />
		</g>
		<g>
			<title> (ctg3_38)</title>
			<polygon class=" (ctg3_38)" points="218,10 238,40 218,70" fill="rgb(255,255,255)" fill-opacity="1.0" stroke="rgb(0,0,0)" stroke-width="2"  />
		</g>
		<g>
			<title> (ctg3_39)</title>
			<polygon class=" (ctg3_39)" points="239,10 248,40 239,70" fill="rgb(255,255,255)" fill-opacity="1.0" stroke="rgb(0,0,0)" stroke-width="2"  />
			<g>
				<title>DUF3288 (PF11691)
"Protein of unknown function (DUF3288)"</title>
				<polygon class="PF11691" points="239,28 241,28 245,40 241,52 239,52" stroke-linejoin="round" width="8" height="24" fill="rgb(101,212,216)" stroke="rgb(80,169,172)" stroke-width="1" opacity="0.75" />
			</g>
		</g>
		<g>
			<title> (ctg3_40)</title>
			<polygon class=" (ctg3_40)" points="284,25 284,25 284,10 254,40 284,70 284,55 284,55" fill="rgb(255,255,255)" fill-opacity="1.0" stroke="rgb(0,0,0)" stroke-width="2"  />
		</g>
		<g>
			<title> (ctg3_41)</title>
			<polygon class=" (ctg3_41)" points="323,25 320,25 320,10 290,40 320,70 320,55 323,55" fill="rgb(255,255,255)" fill-opacity="1.0" stroke="rgb(0,0,0)" stroke-width="2"  />
			<g>
				<title>Glycos_transf_1 (PF00534)
"Glycosyl transferases group 1"</title>
				<polygon class="PF00534" points="296,38 306,28 308,28 308,52 306,52 296,42" stroke-linejoin="round" width="12" height="24" fill="rgb(228,92,150)" stroke="rgb(182,73,119)" stroke-width="1" opacity="0.75" />
			</g>
		</g>
		<g>
			<title> (ctg3_42)</title>
			<polygon class=" (ctg3_42)" points="328,10 341,40 328,70" fill="rgb(255,255,255)" fill-opacity="1.0" stroke="rgb(0,0,0)" stroke-width="2"  />
		</g>
		<g>
			<title> (ctg3_43)</title>
			<polygon class=" (ctg3_43)" points="406,25 373,25 373,10 343,40 373,70 373,55 406,55" fill="rgb(255,255,255)" fill-opacity="1.0" stroke="rgb(0,0,0)" stroke-width="2"  />
			<g>
				<title>SQHop_cyclase_C (PF13243)
"Squalene-hopene cyclase C-terminal domain"</title>
				<polygon class="PF13243" points="347,40 359,28 375,28 375,52 359,52" stroke-linejoin="round" width="32" height="24" fill="rgb(191,58,201)" stroke="rgb(152,46,160)" stroke-width="1" opacity="0.75" />
			</g>
			<g>
				<title>SQHop_cyclase_N (PF13249)
"Squalene-hopene cyclase N-terminal domain"</title>
				<rect class="PF13249" x="376" y="28" stroke-linejoin="round" width="28" height="24" fill="rgb(88,190,89)" stroke="rgb(70,152,71)" stroke-width="1" opacity="0.75" />
			</g>
		</g>
		<g>
			<title> (ctg3_44)</title>
			<polygon class=" (ctg3_44)" points="415,40 440,10 440,70" fill="rgb(255,255,255)" fill-opacity="1.0" stroke="rgb(0,0,0)" stroke-width="2"  />
			<g>
				<title>EF_TS (PF00889)
"Elongation factor TS"</title>
				<polygon class="PF00889" points="420,39 429,28 439,28 439,52 429,52 420,41" stroke-linejoin="round" width="19" height="24" fill="rgb(69,212,85)" stroke="rgb(55,169,67)" stroke-width="1" opacity="0.75" />
			</g>
		</g>
		<g>
			<title> (ctg3_45)</title>
			<polygon class=" (ctg3_45)" points="444,40 470,10 470,70" fill="rgb(255,255,255)" fill-opacity="1.0" stroke="rgb(0,0,0)" stroke-width="2"  />
			<g>
				<title>Ribosomal_S2 (PF00318)
"Ribosomal protein S2"</title>
				<polygon class="PF00318" points="448,40 459,28 469,28 469,52 459,52 448,40" stroke-linejoin="round" width="21" height="24" fill="rgb(60,213,66)" stroke="rgb(48,170,52)" stroke-width="1" opacity="0.75" />
			</g>
		</g>
		<g>
			<title> (ctg3_46)</title>
			<polygon class=" (ctg3_46)" points="475,40 490,10 490,70" fill="rgb(255,255,255)" fill-opacity="1.0" stroke="rgb(0,0,0)" stroke-width="2"  />
			<g>
				<title>AhpC-TSA (PF00578)
"AhpC/TSA family"</title>
				<polygon class="PF00578" points="478,40 484,28 489,28 489,52 484,52" stroke-linejoin="round" width="12" height="24" fill="rgb(166,71,190)" stroke="rgb(132,56,152)" stroke-width="1" opacity="0.75" />
			</g>
		</g>
		<g>
			<title> (ctg3_47)</title>
			<polygon class=" (ctg3_47)" points="491,40 519,10 519,70" fill="rgb(255,255,255)" fill-opacity="1.0" stroke="rgb(0,0,0)" stroke-width="2"  />
			<g>
				<title>Peptidase_M48 (PF01435)
"Peptidase family M48"</title>
				<polygon class="PF01435" points="501,34 506,28 509,28 509,52 506,52 501,46" stroke-linejoin="round" width="8" height="24" fill="rgb(70,152,228)" stroke="rgb(56,121,182)" stroke-width="1" opacity="0.75" />
			</g>
		</g>
		<g>
			<title> (ctg3_48)</title>
			<polygon class=" (ctg3_48)" points="519,40 533,10 533,70" fill="rgb(255,255,255)" fill-opacity="1.0" stroke="rgb(0,0,0)" stroke-width="2"  />
			<g>
				<title>Penicillinase_R (PF03965)
"Penicillinase repressor"</title>
				<polygon class="PF03965" points="522,40 528,28 530,28 530,52 528,52" stroke-linejoin="round" width="11" height="24" fill="rgb(208,59,133)" stroke="rgb(166,47,106)" stroke-width="1" opacity="0.75" />
			</g>
		</g>
		<g>
			<title> (ctg3_49)</title>
			<polygon class=" (ctg3_49)" points="536,10 545,40 536,70" fill="rgb(255,255,255)" fill-opacity="1.0" stroke="rgb(0,0,0)" stroke-width="2"  />
			<g>
				<title>DUF4090 (PF13319)
"Protein of unknown function (DUF4090)"</title>
				<polygon class="PF13319" points="537,28 538,28 542,40 538,52 537,52" stroke-linejoin="round" width="8" height="24" fill="rgb(89,117,182)" stroke="rgb(71,93,145)" stroke-width="1" opacity="0.75" />
			</g>
		</g>
		<g>
			<title> (ctg3_50)</title>
			<polygon class=" (ctg3_50)" points="553,40 556,10 556,70" fill="rgb(255,255,255)" fill-opacity="1.0" stroke="rgb(0,0,0)" stroke-width="2"  />
		</g>
		<g>
			<title> (ctg3_51)</title>
			<polygon class=" (ctg3_51)" points="567,25 575,25 575,10 605,40 575,70 575,55 567,55" fill="rgb(255,255,255)" fill-opacity="1.0" stroke="rgb(0,0,0)" stroke-width="2"  />
			<g>
				<title>NTP_transferase (PF00483)
"Nucleotidyl transferase"</title>
				<polygon class="PF00483" points="567,28 589,28 591,30 591,50 589,52 567,52" stroke-linejoin="round" width="24" height="24" fill="rgb(198,101,87)" stroke="rgb(158,80,69)" stroke-width="1" opacity="0.75" />
			</g>
		</g>
		<g>
			<title> (ctg3_52)</title>
			<polygon class=" (ctg3_52)" points="609,25 622,25 622,10 652,40 622,70 622,55 609,55" fill="rgb(255,255,255)" fill-opacity="1.0" stroke="rgb(0,0,0)" stroke-width="2"  />
		</g>
		<g>
			<title> (ctg3_53)</title>
			<polygon class=" (ctg3_53)" points="715,25 683,25 683,10 653,40 683,70 683,55 715,55" fill="rgb(255,255,255)" fill-opacity="1.0" stroke="rgb(0,0,0)" stroke-width="2"  />
			<g>
				<title>Toprim_2 (PF13155)
"Toprim-like"</title>
				<rect class="PF13155" x="679" y="28" stroke-linejoin="round" width="9" height="24" fill="rgb(98,107,198)" stroke="rgb(78,85,158)" stroke-width="1" opacity="0.75" />
			</g>
			<g>
				<title>Toprim_N (PF08275)
"DNA primase catalytic core, N-terminal domain"</title>
				<rect class="PF08275" x="689" y="28" stroke-linejoin="round" width="12" height="24" fill="rgb(118,218,88)" stroke="rgb(94,174,70)" stroke-width="1" opacity="0.75" />
			</g>
			<g>
				<title>zf-CHC2 (PF01807)
"CHC2 zinc finger"</title>
				<rect class="PF01807" x="705" y="28" stroke-linejoin="round" width="9" height="24" fill="rgb(76,201,77)" stroke="rgb(60,160,61)" stroke-width="1" opacity="0.75" />
			</g>
		</g>
	</g>
</svg>
