<svg version="1.1" baseProfile="full" xmlns="http://www.w3.org/2000/svg" width="587.6" height="80">
	<g>
		<line x1="10" y1="40.0" x2="577.6" y2="40.0" style="stroke:rgb(70,70,70); stroke-width:3 "/>
		<g>
			<title> (ctg14_12)</title>
			<polygon class=" (ctg14_12)" points="44,25 63,25 63,10 93,40 63,70 63,55 44,55" fill="rgb(255,255,255)" fill-opacity="1.0" stroke="rgb(0,0,0)" stroke-width="2"  />
			<g>
				<title>WD40 (PF00400)
"WD domain, G-beta repeat"</title>
				<rect class="PF00400" x="62" y="28" stroke-linejoin="round" width="3" height="24" fill="rgb(190,108,62)" stroke="rgb(152,86,49)" stroke-width="1" opacity="0.75" />
			</g>
			<g>
				<title>WD40 (PF00400)
"WD domain, G-beta repeat"</title>
				<rect class="PF00400" x="67" y="28" stroke-linejoin="round" width="3" height="24" fill="rgb(190,108,62)" stroke="rgb(152,86,49)" stroke-width="1" opacity="0.75" />
			</g>
			<g>
				<title>WD40 (PF00400)
"WD domain, G-beta repeat"</title>
				<rect class="PF00400" x="71" y="28" stroke-linejoin="round" width="3" height="24" fill="rgb(190,108,62)" stroke="rgb(152,86,49)" stroke-width="1" opacity="0.75" />
			</g>
			<g>
				<title>WD40 (PF00400)
"WD domain, G-beta repeat"</title>
				<polygon class="PF00400" points="75,28 77,28 78,29 78,51 77,52 75,52" stroke-linejoin="round" width="3" height="24" fill="rgb(190,108,62)" stroke="rgb(152,86,49)" stroke-width="1" opacity="0.75" />
			</g>
			<g>
				<title>WD40 (PF00400)
"WD domain, G-beta repeat"</title>
				<polygon class="PF00400" points="80,31 83,34 83,46 80,49" stroke-linejoin="round" width="3" height="24" fill="rgb(190,108,62)" stroke="rgb(152,86,49)" stroke-width="1" opacity="0.75" />
			</g>
			<g>
				<title>WD40 (PF00400)
"WD domain, G-beta repeat"</title>
				<polygon class="PF00400" points="84,35 87,38 87,42 84,45" stroke-linejoin="round" width="3" height="24" fill="rgb(190,108,62)" stroke="rgb(152,86,49)" stroke-width="1" opacity="0.75" />
			</g>
			<g>
				<title>WD40 (PF00400)
"WD domain, G-beta repeat"</title>
				<polygon class="PF00400" points="89,40 89,40 89,40" stroke-linejoin="round" width="4" height="24" fill="rgb(190,108,62)" stroke="rgb(152,86,49)" stroke-width="1" opacity="0.75" />
			</g>
		</g>
		<g>
			<title> (ctg14_13)</title>
			<polygon class=" (ctg14_13)" points="100,25 132,25 132,10 162,40 132,70 132,55 100,55" fill="rgb(255,255,255)" fill-opacity="1.0" stroke="rgb(0,0,0)" stroke-width="2"  />
			<g>
				<title>RNA_pol_Rpb1_1 (PF04997)
"RNA polymerase Rpb1, domain 1"</title>
				<rect class="PF04997" x="100" y="28" stroke-linejoin="round" width="34" height="24" fill="rgb(76,225,92)" stroke="rgb(60,180,73)" stroke-width="1" opacity="0.75" />
			</g>
			<g>
				<title>RNA_pol_Rpb1_2 (PF00623)
"RNA polymerase Rpb1, domain 2"</title>
				<polygon class="PF00623" points="139,28 146,28 148,30 148,50 146,52 139,52" stroke-linejoin="round" width="9" height="24" fill="rgb(166,226,92)" stroke="rgb(132,180,73)" stroke-width="1" opacity="0.75" />
			</g>
			<g>
				<title>RNA_pol_Rpb1_3 (PF04983)
"RNA polymerase Rpb1, domain 3"</title>
				<polygon class="PF04983" points="149,31 158,40 149,49" stroke-linejoin="round" width="12" height="24" fill="rgb(151,80,202)" stroke="rgb(120,64,161)" stroke-width="1" opacity="0.75" />
			</g>
		</g>
		<g>
			<title> (ctg14_14)</title>
			<polygon class=" (ctg14_14)" points="164,40 177,10 177,70" fill="rgb(255,255,255)" fill-opacity="1.0" stroke="rgb(0,0,0)" stroke-width="2"  />
			<g>
				<title>Ribonuc_L-PSP (PF01042)
"Endoribonuclease L-PSP"</title>
				<polygon class="PF01042" points="167,40 173,28 176,28 176,52 173,52" stroke-linejoin="round" width="12" height="24" fill="rgb(93,120,208)" stroke="rgb(74,96,166)" stroke-width="1" opacity="0.75" />
			</g>
		</g>
		<g>
			<title> (ctg14_15)</title>
			<polygon class=" (ctg14_15)" points="186,40 193,10 193,70" fill="rgb(255,255,255)" fill-opacity="1.0" stroke="rgb(0,0,0)" stroke-width="2"  />
		</g>
		<g>
			<title> (ctg14_16)</title>
			<polygon class=" (ctg14_16)" points="196,10 201,40 196,70" fill="rgb(255,255,255)" fill-opacity="1.0" stroke="rgb(0,0,0)" stroke-width="2"  />
			<g>
				<title>DUF29 (PF01724)
"Domain of unknown function DUF29"</title>
				<polygon class="PF01724" points="196,27 198,40 196,53" stroke-linejoin="round" width="4" height="24" fill="rgb(104,61,184)" stroke="rgb(83,48,147)" stroke-width="1" opacity="0.75" />
			</g>
		</g>
		<g>
			<title> (ctg14_17)</title>
			<polygon class=" (ctg14_17)" points="245,25 235,25 235,10 205,40 235,70 235,55 245,55" fill="rgb(255,255,255)" fill-opacity="1.0" stroke="rgb(0,0,0)" stroke-width="2"  />
			<g>
				<title>DUF111 (PF01969)
"Protein of unknown function DUF111"</title>
				<polygon class="PF01969" points="209,40 221,28 244,28 244,52 221,52" stroke-linejoin="round" width="37" height="24" fill="rgb(171,97,208)" stroke="rgb(136,77,166)" stroke-width="1" opacity="0.75" />
			</g>
		</g>
		<g>
			<title> (ctg14_18)</title>
			<polygon class=" (ctg14_18)" points="247,10 268,40 247,70" fill="rgb(255,255,255)" fill-opacity="1.0" stroke="rgb(0,0,0)" stroke-width="2"  />
			<g>
				<title>Sua5_yciO_yrdC (PF01300)
"Telomere recombination"</title>
				<polygon class="PF01300" points="249,28 256,28 264,40 256,52 249,52" stroke-linejoin="round" width="18" height="24" fill="rgb(183,139,65)" stroke="rgb(146,111,51)" stroke-width="1" opacity="0.75" />
			</g>
		</g>
		<g>
			<title> (ctg14_19)</title>
			<polygon class=" (ctg14_19)" points="279,10 292,40 279,70" fill="rgb(255,255,255)" fill-opacity="1.0" stroke="rgb(0,0,0)" stroke-width="2"  />
			<g>
				<title>HSP20 (PF00011)
"Hsp20/alpha crystallin family"</title>
				<polygon class="PF00011" points="282,28 283,28 289,40 283,52 282,52" stroke-linejoin="round" width="9" height="24" fill="rgb(148,223,75)" stroke="rgb(118,178,60)" stroke-width="1" opacity="0.75" />
			</g>
		</g>
		<g>
			<title> (ctg14_20)</title>
			<polygon class=" (ctg14_20)" points="295,40 315,10 315,70" fill="rgb(255,255,255)" fill-opacity="1.0" stroke="rgb(0,0,0)" stroke-width="2"  />
			<g>
				<title>Ribosom_S30AE_C (PF16321)
"Sigma 54 modulation/S30EA ribosomal protein C terminus"</title>
				<polygon class="PF16321" points="299,40 301,37 301,43" stroke-linejoin="round" width="5" height="24" fill="rgb(200,98,224)" stroke="rgb(160,78,179)" stroke-width="1" opacity="0.75" />
			</g>
			<g>
				<title>Ribosomal_S30AE (PF02482)
"Sigma 54 modulation protein / S30EA ribosomal protein"</title>
				<polygon class="PF02482" points="305,31 307,28 314,28 314,52 307,52 305,49" stroke-linejoin="round" width="9" height="24" fill="rgb(104,228,126)" stroke="rgb(83,182,100)" stroke-width="1" opacity="0.75" />
			</g>
		</g>
		<g>
			<title> (ctg14_21)</title>
			<polygon class=" (ctg14_21)" points="412,25 373,25 373,10 343,40 373,70 373,55 412,55" fill="rgb(255,255,255)" fill-opacity="1.0" stroke="rgb(0,0,0)" stroke-width="2"  />
			<g>
				<title>PatG_C (PF18065)
"PatG C-terminal"</title>
				<polygon class="PF18065" points="347,40 354,33 354,47" stroke-linejoin="round" width="11" height="24" fill="rgb(93,82,184)" stroke="rgb(74,65,147)" stroke-width="1" opacity="0.75" />
			</g>
			<g>
				<title>PatG_D (PF18047)
"PatG Domain"</title>
				<polygon class="PF18047" points="359,28 359,28 370,28 370,52 359,52 359,52" stroke-linejoin="round" width="11" height="24" fill="rgb(91,195,69)" stroke="rgb(72,156,55)" stroke-width="1" opacity="0.75" />
			</g>
			<g>
				<title>Peptidase_S8 (PF00082)
"Subtilase family"</title>
				<rect class="PF00082" x="378" y="28" stroke-linejoin="round" width="32" height="24" fill="rgb(193,159,94)" stroke="rgb(154,127,75)" stroke-width="1" opacity="0.75" />
			</g>
		</g>
		<g>
			<title> (ctg14_22)</title>
			<polygon class=" (ctg14_22)" points="415,10 441,40 415,70" fill="rgb(255,255,255)" fill-opacity="1.0" stroke="rgb(0,0,0)" stroke-width="2"  />
			<g>
				<title>Uma2 (PF05685)
"Putative restriction endonuclease"</title>
				<polygon class="PF05685" points="418,28 427,28 435,38 435,42 427,52 418,52" stroke-linejoin="round" width="17" height="24" fill="rgb(123,107,219)" stroke="rgb(98,85,175)" stroke-width="1" opacity="0.75" />
			</g>
		</g>
		<g>
			<title> (ctg14_23)</title>
			<polygon class=" (ctg14_23)" points="442,40 449,10 449,70" fill="rgb(255,255,255)" fill-opacity="1.0" stroke="rgb(0,0,0)" stroke-width="2"  />
		</g>
		<g>
			<title> (ctg14_24)</title>
			<polygon class=" (ctg14_24)" points="451,40 459,10 459,70" fill="rgb(255,255,255)" fill-opacity="1.0" stroke="rgb(0,0,0)" stroke-width="2"  />
		</g>
		<g>
			<title> (ctg14_25)</title>
			<polygon class=" (ctg14_25)" points="526,25 492,25 492,10 462,40 492,70 492,55 526,55" fill="rgb(255,255,255)" fill-opacity="1.0" stroke="rgb(0,0,0)" stroke-width="2"  />
			<g>
				<title>PatG_C (PF18065)
"PatG C-terminal"</title>
				<polygon class="PF18065" points="466,40 473,33 473,47" stroke-linejoin="round" width="11" height="24" fill="rgb(93,82,184)" stroke="rgb(74,65,147)" stroke-width="1" opacity="0.75" />
			</g>
			<g>
				<title>PatG_D (PF18047)
"PatG Domain"</title>
				<polygon class="PF18047" points="478,28 478,28 489,28 489,52 478,52 478,52" stroke-linejoin="round" width="11" height="24" fill="rgb(91,195,69)" stroke="rgb(72,156,55)" stroke-width="1" opacity="0.75" />
			</g>
			<g>
				<title>Peptidase_S8 (PF00082)
"Subtilase family"</title>
				<rect class="PF00082" x="497" y="28" stroke-linejoin="round" width="27" height="24" fill="rgb(193,159,94)" stroke="rgb(154,127,75)" stroke-width="1" opacity="0.75" />
			</g>
		</g>
		<g>
			<title> (ctg14_26)</title>
			<polygon class=" (ctg14_26)" points="529,40 538,10 538,70" fill="rgb(255,255,255)" fill-opacity="1.0" stroke="rgb(0,0,0)" stroke-width="2"  />
			<g>
				<title>YafQ_toxin (PF15738)
"Bacterial toxin of type II toxin-antitoxin system, YafQ"</title>
				<polygon class="PF15738" points="532,40 536,28 538,28 538,52 536,52" stroke-linejoin="round" width="9" height="24" fill="rgb(58,224,128)" stroke="rgb(46,179,102)" stroke-width="1" opacity="0.75" />
			</g>
		</g>
		<g>
			<title> (ctg14_27)</title>
			<polygon class=" (ctg14_27)" points="539,40 546,10 546,70" fill="rgb(255,255,255)" fill-opacity="1.0" stroke="rgb(0,0,0)" stroke-width="2"  />
		</g>
		<g>
			<title> (ctg14_28)</title>
			<polygon class=" (ctg14_28)" points="556,40 563,10 563,70" fill="rgb(255,255,255)" fill-opacity="1.0" stroke="rgb(0,0,0)" stroke-width="2"  />
		</g>
		<g>
			<title> (ctg14_29)</title>
			<polygon class=" (ctg14_29)" points="564,40 577,10 577,70" fill="rgb(255,255,255)" fill-opacity="1.0" stroke="rgb(0,0,0)" stroke-width="2"  />
			<g>
				<title>Uma2 (PF05685)
"Putative restriction endonuclease"</title>
				<polygon class="PF05685" points="567,40 572,28 577,28 577,52 572,52" stroke-linejoin="round" width="11" height="24" fill="rgb(123,107,219)" stroke="rgb(98,85,175)" stroke-width="1" opacity="0.75" />
			</g>
		</g>
	</g>
</svg>
