<svg version="1.1" baseProfile="full" xmlns="http://www.w3.org/2000/svg" width="1387.6666666666667" height="80">
	<g>
		<line x1="10" y1="40.0" x2="1377.6666666666667" y2="40.0" style="stroke:rgb(70,70,70); stroke-width:3 "/>
		<g>
			<title> (ctg175_1)</title>
			<polygon class=" (ctg175_1)" points="10,10 13,40 10,70" fill="rgb(255,255,255)" fill-opacity="1.0" stroke="rgb(0,0,0)" stroke-width="2"  />
		</g>
		<g>
			<title> (ctg175_2)</title>
			<polygon class=" (ctg175_2)" points="17,40 27,10 27,70" fill="rgb(255,255,255)" fill-opacity="1.0" stroke="rgb(0,0,0)" stroke-width="2"  />
			<g>
				<title>DUF29 (PF01724)
"Domain of unknown function DUF29"</title>
				<polygon class="PF01724" points="20,40 24,28 26,28 26,52 24,52" stroke-linejoin="round" width="9" height="24" fill="rgb(104,61,184)" stroke="rgb(83,48,147)" stroke-width="1" opacity="0.75" />
			</g>
		</g>
		<g>
			<title> (ctg175_3)</title>
			<polygon class=" (ctg175_3)" points="30,25 38,25 38,10 68,40 38,70 38,55 30,55" fill="rgb(255,255,255)" fill-opacity="1.0" stroke="rgb(0,0,0)" stroke-width="2"  />
			<g>
				<title>DDE_Tnp_1 (PF01609)
"Transposase DDE domain"</title>
				<polygon class="PF01609" points="39,28 52,28 59,35 59,45 52,52 39,52" stroke-linejoin="round" width="20" height="24" fill="rgb(229,102,99)" stroke="rgb(183,81,79)" stroke-width="1" opacity="0.75" />
			</g>
		</g>
		<g>
			<title> (ctg175_4)</title>
			<polygon class=" (ctg175_4)" points="68,40 94,10 94,70" fill="rgb(255,255,255)" fill-opacity="1.0" stroke="rgb(0,0,0)" stroke-width="2"  />
			<g>
				<title>DDE_Tnp_ISL3 (PF01610)
"Transposase"</title>
				<polygon class="PF01610" points="72,40 78,33 78,47" stroke-linejoin="round" width="9" height="24" fill="rgb(227,129,58)" stroke="rgb(181,103,46)" stroke-width="1" opacity="0.75" />
			</g>
			<g>
				<title>HTH_Tnp_ISL3 (PF13542)
"Helix-turn-helix domain of transposase family ISL3"</title>
				<polygon class="PF13542" points="80,31 82,28 85,28 85,52 82,52 80,49" stroke-linejoin="round" width="5" height="24" fill="rgb(203,97,164)" stroke="rgb(162,77,131)" stroke-width="1" opacity="0.75" />
			</g>
			<g>
				<title>zf-ISL3 (PF14690)
"zinc-finger of transposase IS204/IS1001/IS1096/IS1165"</title>
				<rect class="PF14690" x="86" y="28" stroke-linejoin="round" width="4" height="24" fill="rgb(94,212,144)" stroke="rgb(75,169,115)" stroke-width="1" opacity="0.75" />
			</g>
		</g>
		<g>
			<title> (ctg175_5)</title>
			<polygon class=" (ctg175_5)" points="108,25 119,25 119,10 149,40 119,70 119,55 108,55" fill="rgb(255,255,255)" fill-opacity="1.0" stroke="rgb(0,0,0)" stroke-width="2"  />
			<g>
				<title>Beta-lactamase (PF00144)
"Beta-lactamase"</title>
				<polygon class="PF00144" points="117,28 133,28 137,32 137,48 133,52 117,52" stroke-linejoin="round" width="20" height="24" fill="rgb(92,159,200)" stroke="rgb(73,127,160)" stroke-width="1" opacity="0.75" />
			</g>
		</g>
		<g>
			<title> (ctg175_6)</title>
			<polygon class=" (ctg175_6)" points="152,25 192,25 192,10 222,40 192,70 192,55 152,55" fill="rgb(255,255,255)" fill-opacity="1.0" stroke="rgb(0,0,0)" stroke-width="2"  />
			<g>
				<title>PPC (PF04151)
"Bacterial pre-peptidase C-terminal domain"</title>
				<rect class="PF04151" x="174" y="28" stroke-linejoin="round" width="6" height="24" fill="rgb(214,100,162)" stroke="rgb(171,79,129)" stroke-width="1" opacity="0.75" />
			</g>
		</g>
		<g>
			<title> (ctg175_7)</title>
			<polygon class=" (ctg175_7)" points="226,10 251,40 226,70" fill="rgb(255,255,255)" fill-opacity="1.0" stroke="rgb(0,0,0)" stroke-width="2"  />
		</g>
		<g>
			<title> (ctg175_8)</title>
			<polygon class=" (ctg175_8)" points="300,25 283,25 283,10 253,40 283,70 283,55 300,55" fill="rgb(255,255,255)" fill-opacity="1.0" stroke="rgb(0,0,0)" stroke-width="2"  />
			<g>
				<title>DDE_Tnp_1_2 (PF13586)
"Transposase DDE domain"</title>
				<polygon class="PF13586" points="257,40 266,31 266,49 257,40" stroke-linejoin="round" width="9" height="24" fill="rgb(94,207,193)" stroke="rgb(75,165,154)" stroke-width="1" opacity="0.75" />
			</g>
			<g>
				<title>DUF772 (PF05598)
"Transposase domain (DUF772)"</title>
				<rect class="PF05598" x="290" y="28" stroke-linejoin="round" width="7" height="24" fill="rgb(221,202,107)" stroke="rgb(176,161,85)" stroke-width="1" opacity="0.75" />
			</g>
		</g>
		<g>
			<title> (ctg175_9)</title>
			<polygon class=" (ctg175_9)" points="341,25 339,25 339,10 309,40 339,70 339,55 341,55" fill="rgb(255,255,255)" fill-opacity="1.0" stroke="rgb(0,0,0)" stroke-width="2"  />
			<g>
				<title>Sulfotransfer_3 (PF13469)
"Sulfotransferase family"</title>
				<polygon class="PF13469" points="316,37 325,28 340,28 340,52 325,52 316,43" stroke-linejoin="round" width="24" height="24" fill="rgb(59,182,84)" stroke="rgb(47,145,67)" stroke-width="1" opacity="0.75" />
			</g>
		</g>
		<g>
			<title> (ctg175_10)</title>
			<polygon class=" (ctg175_10)" points="351,25 370,25 370,10 400,40 370,70 370,55 351,55" fill="rgb(255,255,255)" fill-opacity="1.0" stroke="rgb(0,0,0)" stroke-width="2"  />
		</g>
		<g>
			<title> (ctg175_11)</title>
			<polygon class=" (ctg175_11)" points="403,40 428,10 428,70" fill="rgb(255,255,255)" fill-opacity="1.0" stroke="rgb(0,0,0)" stroke-width="2"  />
			<g>
				<title>adh_short (PF00106)
"short chain dehydrogenase"</title>
				<polygon class="PF00106" points="407,40 417,28 426,28 426,52 417,52 407,40" stroke-linejoin="round" width="19" height="24" fill="rgb(182,219,73)" stroke="rgb(145,175,58)" stroke-width="1" opacity="0.75" />
			</g>
		</g>
		<g>
			<title> (ctg175_12)</title>
			<polygon class=" (ctg175_12)" points="429,40 454,10 454,70" fill="rgb(255,255,255)" fill-opacity="1.0" stroke="rgb(0,0,0)" stroke-width="2"  />
			<g>
				<title>adh_short (PF00106)
"short chain dehydrogenase"</title>
				<polygon class="PF00106" points="433,40 443,28 452,28 452,52 443,52" stroke-linejoin="round" width="20" height="24" fill="rgb(182,219,73)" stroke="rgb(145,175,58)" stroke-width="1" opacity="0.75" />
			</g>
		</g>
		<g>
			<title> (ctg175_13)</title>
			<polygon class=" (ctg175_13)" points="457,40 486,10 486,70" fill="rgb(255,255,255)" fill-opacity="1.0" stroke="rgb(0,0,0)" stroke-width="2"  />
			<g>
				<title>Abhydrolase_1 (PF00561)
"alpha/beta hydrolase fold"</title>
				<polygon class="PF00561" points="461,40 473,28 484,28 484,52 473,52" stroke-linejoin="round" width="24" height="24" fill="rgb(86,180,151)" stroke="rgb(68,144,120)" stroke-width="1" opacity="0.75" />
			</g>
		</g>
		<g>
			<title> (ctg175_14)</title>
			<polygon class=" (ctg175_14)" points="543,25 520,25 520,10 490,40 520,70 520,55 543,55" fill="rgb(255,255,255)" fill-opacity="1.0" stroke="rgb(0,0,0)" stroke-width="2"  />
			<g>
				<title>Phosphodiest (PF01663)
"Type I phosphodiesterase / nucleotide pyrophosphatase"</title>
				<polygon class="PF01663" points="499,35 506,28 542,28 542,52 506,52 499,45" stroke-linejoin="round" width="43" height="24" fill="rgb(178,65,158)" stroke="rgb(142,52,126)" stroke-width="1" opacity="0.75" />
			</g>
		</g>
		<g>
			<title> (ctg175_15)</title>
			<polygon class=" (ctg175_15)" points="546,40 556,10 556,70" fill="rgb(255,255,255)" fill-opacity="1.0" stroke="rgb(0,0,0)" stroke-width="2"  />
		</g>
		<g>
			<title> (ctg175_16)</title>
			<polygon class=" (ctg175_16)" points="710,25 589,25 589,10 559,40 589,70 589,55 710,55" fill="rgb(255,255,255)" fill-opacity="1.0" stroke="rgb(0,0,0)" stroke-width="2"  />
			<g>
				<title>PS-DH (PF14765)
"Polyketide synthase dehydratase"</title>
				<polygon class="PF14765" points="574,29 575,28 603,28 603,52 575,52 574,51" stroke-linejoin="round" width="29" height="24" fill="rgb(173,56,182)" stroke="rgb(138,44,145)" stroke-width="1" opacity="0.75" />
			</g>
			<g>
				<title>Acyl_transf_1 (PF00698)
"Acyl transferase domain"</title>
				<rect class="PF00698" x="620" y="28" stroke-linejoin="round" width="33" height="24" fill="rgb(59,176,209)" stroke="rgb(47,140,167)" stroke-width="1" opacity="0.75" />
			</g>
			<g>
				<title>KAsynt_C_assoc (PF16197)
"Ketoacyl-synthetase C-terminal extension"</title>
				<rect class="PF16197" x="658" y="28" stroke-linejoin="round" width="11" height="24" fill="rgb(240,150,172)" stroke="rgb(192,120,137)" stroke-width="1" opacity="0.75" />
			</g>
			<g>
				<title>Ketoacyl-synt_C (PF02801)
"Beta-ketoacyl synthase, C-terminal domain"</title>
				<rect class="PF02801" x="670" y="28" stroke-linejoin="round" width="11" height="24" fill="rgb(215,78,102)" stroke="rgb(172,62,81)" stroke-width="1" opacity="0.75" />
			</g>
			<g>
				<title>ketoacyl-synt (PF00109)
"Beta-ketoacyl synthase, N-terminal domain"</title>
				<rect class="PF00109" x="683" y="28" stroke-linejoin="round" width="27" height="24" fill="rgb(112,116,228)" stroke="rgb(89,92,182)" stroke-width="1" opacity="0.75" />
			</g>
		</g>
		<g>
			<title> (ctg175_17)</title>
			<polygon class=" (ctg175_17)" points="735,40 753,10 753,70" fill="rgb(255,255,255)" fill-opacity="1.0" stroke="rgb(0,0,0)" stroke-width="2"  />
			<g>
				<title>HD (PF01966)
"HD domain"</title>
				<polygon class="PF01966" points="739,40 746,29 746,51" stroke-linejoin="round" width="9" height="24" fill="rgb(92,193,119)" stroke="rgb(73,154,95)" stroke-width="1" opacity="0.75" />
			</g>
		</g>
		<g>
			<title> (ctg175_18)</title>
			<polygon class=" (ctg175_18)" points="863,25 784,25 784,10 754,40 784,70 784,55 863,55" fill="rgb(255,255,255)" fill-opacity="1.0" stroke="rgb(0,0,0)" stroke-width="2"  />
			<g>
				<title>TaqI_C (PF12950)
"TaqI-like C-terminal specificity domain"</title>
				<polygon class="PF12950" points="759,39 770,28 774,28 774,52 770,52 759,41" stroke-linejoin="round" width="15" height="24" fill="rgb(132,203,53)" stroke="rgb(105,162,42)" stroke-width="1" opacity="0.75" />
			</g>
			<g>
				<title>Eco57I (PF07669)
"Eco57I restriction-modification methylase"</title>
				<rect class="PF07669" x="784" y="28" stroke-linejoin="round" width="11" height="24" fill="rgb(107,93,196)" stroke="rgb(85,74,156)" stroke-width="1" opacity="0.75" />
			</g>
		</g>
		<g>
			<title> (ctg175_19)</title>
			<polygon class=" (ctg175_19)" points="872,25 873,25 873,10 903,40 873,70 873,55 872,55" fill="rgb(255,255,255)" fill-opacity="1.0" stroke="rgb(0,0,0)" stroke-width="2"  />
			<g>
				<title>AAA_22 (PF13401)
"AAA domain"</title>
				<polygon class="PF13401" points="877,28 886,28 889,31 889,49 886,52 877,52" stroke-linejoin="round" width="12" height="24" fill="rgb(174,224,73)" stroke="rgb(139,179,58)" stroke-width="1" opacity="0.75" />
			</g>
		</g>
		<g>
			<title> (ctg175_20)</title>
			<polygon class=" (ctg175_20)" points="905,10 926,40 905,70" fill="rgb(255,255,255)" fill-opacity="1.0" stroke="rgb(0,0,0)" stroke-width="2"  />
			<g>
				<title>Uma2 (PF05685)
"Putative restriction endonuclease"</title>
				<polygon class="PF05685" points="906,28 914,28 922,40 914,52 906,52" stroke-linejoin="round" width="19" height="24" fill="rgb(123,107,219)" stroke="rgb(98,85,175)" stroke-width="1" opacity="0.75" />
			</g>
		</g>
		<g>
			<title> (ctg175_21)</title>
			<polygon class=" (ctg175_21)" points="1029,25 963,25 963,10 933,40 963,70 963,55 1029,55" fill="rgb(255,255,255)" fill-opacity="1.0" stroke="rgb(0,0,0)" stroke-width="2"  />
			<g>
				<title>DUF3854 (PF12965)
"Domain of unknown function (DUF3854)"</title>
				<rect class="PF12965" x="1003" y="28" stroke-linejoin="round" width="12" height="24" fill="rgb(160,223,57)" stroke="rgb(128,178,45)" stroke-width="1" opacity="0.75" />
			</g>
		</g>
		<g>
			<title> (ctg175_22)</title>
			<polygon class=" (ctg175_22)" points="1075,10 1091,40 1075,70" fill="rgb(255,255,255)" fill-opacity="1.0" stroke="rgb(0,0,0)" stroke-width="2"  />
		</g>
		<g>
			<title> (ctg175_23)</title>
			<polygon class=" (ctg175_23)" points="1092,25 1098,25 1098,10 1128,40 1098,70 1098,55 1092,55" fill="rgb(255,255,255)" fill-opacity="1.0" stroke="rgb(0,0,0)" stroke-width="2"  />
		</g>
		<g>
			<title> (ctg175_24)</title>
			<polygon class=" (ctg175_24)" points="1128,25 1148,25 1148,10 1178,40 1148,70 1148,55 1128,55" fill="rgb(255,255,255)" fill-opacity="1.0" stroke="rgb(0,0,0)" stroke-width="2"  />
		</g>
		<g>
			<title> (ctg175_25)</title>
			<polygon class=" (ctg175_25)" points="1177,10 1197,40 1177,70" fill="rgb(255,255,255)" fill-opacity="1.0" stroke="rgb(0,0,0)" stroke-width="2"  />
		</g>
		<g>
			<title> (ctg175_26)</title>
			<polygon class=" (ctg175_26)" points="1208,25 1235,25 1235,10 1265,40 1235,70 1235,55 1208,55" fill="rgb(255,255,255)" fill-opacity="1.0" stroke="rgb(0,0,0)" stroke-width="2"  />
			<g>
				<title>DDE_Tnp_1 (PF01609)
"Transposase DDE domain"</title>
				<polygon class="PF01609" points="1225,28 1249,28 1255,34 1255,46 1249,52 1225,52" stroke-linejoin="round" width="30" height="24" fill="rgb(229,102,99)" stroke="rgb(183,81,79)" stroke-width="1" opacity="0.75" />
			</g>
		</g>
		<g>
			<title> (ctg175_27)</title>
			<polygon class=" (ctg175_27)" points="1303,40 1326,10 1326,70" fill="rgb(255,255,255)" fill-opacity="1.0" stroke="rgb(0,0,0)" stroke-width="2"  />
			<g>
				<title>Peptidase_M10 (PF00413)
"Matrixin"</title>
				<polygon class="PF00413" points="1307,40 1316,28 1318,28 1318,52 1316,52" stroke-linejoin="round" width="13" height="24" fill="rgb(99,152,217)" stroke="rgb(79,121,173)" stroke-width="1" opacity="0.75" />
			</g>
		</g>
		<g>
			<title> (ctg175_28)</title>
			<polygon class=" (ctg175_28)" points="1327,40 1347,10 1347,70" fill="rgb(255,255,255)" fill-opacity="1.0" stroke="rgb(0,0,0)" stroke-width="2"  />
			<g>
				<title>TerD (PF02342)
"TerD domain"</title>
				<polygon class="PF02342" points="1331,40 1339,28 1346,28 1346,52 1339,52" stroke-linejoin="round" width="19" height="24" fill="rgb(84,103,187)" stroke="rgb(67,82,149)" stroke-width="1" opacity="0.75" />
			</g>
		</g>
		<g>
			<title> (ctg175_29)</title>
			<polygon class=" (ctg175_29)" points="1347,40 1366,10 1366,70" fill="rgb(255,255,255)" fill-opacity="1.0" stroke="rgb(0,0,0)" stroke-width="2"  />
			<g>
				<title>TerD (PF02342)
"TerD domain"</title>
				<polygon class="PF02342" points="1351,40 1359,28 1365,28 1365,52 1359,52" stroke-linejoin="round" width="18" height="24" fill="rgb(84,103,187)" stroke="rgb(67,82,149)" stroke-width="1" opacity="0.75" />
			</g>
		</g>
	</g>
</svg>
