<svg version="1.1" baseProfile="full" xmlns="http://www.w3.org/2000/svg" width="690.6666666666666" height="80">
	<g>
		<line x1="10" y1="40.0" x2="680.6666666666666" y2="40.0" style="stroke:rgb(70,70,70); stroke-width:3 "/>
		<g>
			<title> (ctg164_1)</title>
			<polygon class=" (ctg164_1)" points="10,10 17,40 10,70" fill="rgb(255,255,255)" fill-opacity="1.0" stroke="rgb(0,0,0)" stroke-width="2"  />
		</g>
		<g>
			<title> (ctg164_2)</title>
			<polygon class=" (ctg164_2)" points="17,40 24,10 24,70" fill="rgb(255,255,255)" fill-opacity="1.0" stroke="rgb(0,0,0)" stroke-width="2"  />
		</g>
		<g>
			<title> (ctg164_3)</title>
			<polygon class=" (ctg164_3)" points="33,25 34,25 34,10 64,40 34,70 34,55 33,55" fill="rgb(255,255,255)" fill-opacity="1.0" stroke="rgb(0,0,0)" stroke-width="2"  />
			<g>
				<title>Epimerase (PF01370)
"NAD dependent epimerase/dehydratase family"</title>
				<polygon class="PF01370" points="33,28 48,28 57,37 57,43 48,52 33,52" stroke-linejoin="round" width="24" height="24" fill="rgb(98,102,214)" stroke="rgb(78,81,171)" stroke-width="1" opacity="0.75" />
			</g>
		</g>
		<g>
			<title> (ctg164_4)</title>
			<polygon class=" (ctg164_4)" points="66,10 91,40 66,70" fill="rgb(255,255,255)" fill-opacity="1.0" stroke="rgb(0,0,0)" stroke-width="2"  />
			<g>
				<title>CbiJ (PF02571)
"Precorrin-6x reductase CbiJ/CobK"</title>
				<polygon class="PF02571" points="66,28 77,28 87,40 77,52 66,52" stroke-linejoin="round" width="24" height="24" fill="rgb(228,98,187)" stroke="rgb(182,78,149)" stroke-width="1" opacity="0.75" />
			</g>
		</g>
		<g>
			<title> (ctg164_5)</title>
			<polygon class=" (ctg164_5)" points="93,40 120,10 120,70" fill="rgb(255,255,255)" fill-opacity="1.0" stroke="rgb(0,0,0)" stroke-width="2"  />
			<g>
				<title>DUF3598 (PF12204)
"Domain of unknown function (DUF3598)"</title>
				<polygon class="PF12204" points="97,40 108,28 119,28 119,52 108,52" stroke-linejoin="round" width="26" height="24" fill="rgb(225,89,209)" stroke="rgb(180,71,167)" stroke-width="1" opacity="0.75" />
			</g>
		</g>
		<g>
			<title> (ctg164_6)</title>
			<polygon class=" (ctg164_6)" points="122,10 136,40 122,70" fill="rgb(255,255,255)" fill-opacity="1.0" stroke="rgb(0,0,0)" stroke-width="2"  />
			<g>
				<title>Asp_decarbox (PF02261)
"Aspartate decarboxylase"</title>
				<polygon class="PF02261" points="122,28 126,28 132,40 126,52 122,52" stroke-linejoin="round" width="11" height="24" fill="rgb(223,94,196)" stroke="rgb(178,75,156)" stroke-width="1" opacity="0.75" />
			</g>
		</g>
		<g>
			<title> (ctg164_7)</title>
			<polygon class=" (ctg164_7)" points="135,25 148,25 148,10 178,40 148,70 148,55 135,55" fill="rgb(255,255,255)" fill-opacity="1.0" stroke="rgb(0,0,0)" stroke-width="2"  />
			<g>
				<title>ArsA_ATPase (PF02374)
"Anion-transporting ATPase"</title>
				<polygon class="PF02374" points="138,28 162,28 168,34 168,46 162,52 138,52" stroke-linejoin="round" width="30" height="24" fill="rgb(210,53,214)" stroke="rgb(167,42,171)" stroke-width="1" opacity="0.75" />
			</g>
			<g>
				<title>ArsA_HSP20 (PF17886)
"HSP20-like domain found in ArsA"</title>
				<polygon class="PF17886" points="171,37 174,40 171,43" stroke-linejoin="round" width="6" height="24" fill="rgb(215,176,93)" stroke="rgb(172,140,74)" stroke-width="1" opacity="0.75" />
			</g>
		</g>
		<g>
			<title> (ctg164_8)</title>
			<polygon class=" (ctg164_8)" points="188,40 191,10 191,70" fill="rgb(255,255,255)" fill-opacity="1.0" stroke="rgb(0,0,0)" stroke-width="2"  />
		</g>
		<g>
			<title> (ctg164_9)</title>
			<polygon class=" (ctg164_9)" points="191,40 202,10 202,70" fill="rgb(255,255,255)" fill-opacity="1.0" stroke="rgb(0,0,0)" stroke-width="2"  />
			<g>
				<title>NdhM (PF10664)
"Cyanobacterial and plastid NDH-1 subunit M"</title>
				<polygon class="PF10664" points="194,40 198,28 201,28 201,52 198,52" stroke-linejoin="round" width="10" height="24" fill="rgb(57,176,203)" stroke="rgb(45,140,162)" stroke-width="1" opacity="0.75" />
			</g>
		</g>
		<g>
			<title> (ctg164_10)</title>
			<polygon class=" (ctg164_10)" points="205,10 212,40 205,70" fill="rgb(255,255,255)" fill-opacity="1.0" stroke="rgb(0,0,0)" stroke-width="2"  />
		</g>
		<g>
			<title> (ctg164_11)</title>
			<polygon class=" (ctg164_11)" points="213,10 222,40 213,70" fill="rgb(255,255,255)" fill-opacity="1.0" stroke="rgb(0,0,0)" stroke-width="2"  />
			<g>
				<title>Ribosomal_S15 (PF00312)
"Ribosomal protein S15"</title>
				<polygon class="PF00312" points="213,28 214,28 218,40 214,52 213,52" stroke-linejoin="round" width="8" height="24" fill="rgb(176,72,186)" stroke="rgb(140,57,148)" stroke-width="1" opacity="0.75" />
			</g>
		</g>
		<g>
			<title> (ctg164_12)</title>
			<polygon class=" (ctg164_12)" points="232,10 238,40 232,70" fill="rgb(255,255,255)" fill-opacity="1.0" stroke="rgb(0,0,0)" stroke-width="2"  />
			<g>
				<title>DUF3464 (PF11947)
"Photosynthesis affected mutant 68"</title>
				<polygon class="PF11947" points="232,28 232,28 234,40 232,52 232,52" stroke-linejoin="round" width="5" height="24" fill="rgb(199,90,182)" stroke="rgb(159,72,145)" stroke-width="1" opacity="0.75" />
			</g>
		</g>
		<g>
			<title> (ctg164_13)</title>
			<polygon class=" (ctg164_13)" points="240,25 245,25 245,10 275,40 245,70 245,55 240,55" fill="rgb(255,255,255)" fill-opacity="1.0" stroke="rgb(0,0,0)" stroke-width="2"  />
			<g>
				<title>DAHP_snth_FXD (PF18152)
"DAHP synthase ferredoxin-like domain"</title>
				<rect class="PF18152" x="240" y="28" stroke-linejoin="round" width="6" height="24" fill="rgb(80,206,228)" stroke="rgb(64,164,182)" stroke-width="1" opacity="0.75" />
			</g>
			<g>
				<title>DAHP_synth_1 (PF00793)
"DAHP synthetase I family"</title>
				<polygon class="PF00793" points="248,28 258,28 270,40 258,52 248,52" stroke-linejoin="round" width="25" height="24" fill="rgb(223,103,208)" stroke="rgb(178,82,166)" stroke-width="1" opacity="0.75" />
			</g>
		</g>
		<g>
			<title> (ctg164_14)</title>
			<polygon class=" (ctg164_14)" points="278,10 299,40 278,70" fill="rgb(255,255,255)" fill-opacity="1.0" stroke="rgb(0,0,0)" stroke-width="2"  />
			<g>
				<title>Uma2 (PF05685)
"Putative restriction endonuclease"</title>
				<polygon class="PF05685" points="280,28 287,28 296,40 296,40 287,52 280,52" stroke-linejoin="round" width="16" height="24" fill="rgb(123,107,219)" stroke="rgb(98,85,175)" stroke-width="1" opacity="0.75" />
			</g>
		</g>
		<g>
			<title> (ctg164_15)</title>
			<polygon class=" (ctg164_15)" points="300,10 321,40 300,70" fill="rgb(255,255,255)" fill-opacity="1.0" stroke="rgb(0,0,0)" stroke-width="2"  />
			<g>
				<title>Uma2 (PF05685)
"Putative restriction endonuclease"</title>
				<polygon class="PF05685" points="302,28 309,28 318,40 318,40 309,52 302,52" stroke-linejoin="round" width="16" height="24" fill="rgb(123,107,219)" stroke="rgb(98,85,175)" stroke-width="1" opacity="0.75" />
			</g>
		</g>
		<g>
			<title> (ctg164_16)</title>
			<polygon class=" (ctg164_16)" points="334,25 349,25 349,10 379,40 349,70 349,55 334,55" fill="rgb(255,255,255)" fill-opacity="1.0" stroke="rgb(0,0,0)" stroke-width="2"  />
			<g>
				<title>TIR_2 (PF13676)
"TIR domain"</title>
				<rect class="PF13676" x="334" y="28" stroke-linejoin="round" width="13" height="24" fill="rgb(87,220,58)" stroke="rgb(69,176,46)" stroke-width="1" opacity="0.75" />
			</g>
			<g>
				<title>FGE-sulfatase (PF03781)
"Sulfatase-modifying factor enzyme 1"</title>
				<polygon class="PF03781" points="353,28 363,28 375,40 363,52 353,52" stroke-linejoin="round" width="25" height="24" fill="rgb(206,81,170)" stroke="rgb(164,64,136)" stroke-width="1" opacity="0.75" />
			</g>
		</g>
		<g>
			<title> (ctg164_17)</title>
			<polygon class=" (ctg164_17)" points="429,25 412,25 412,10 382,40 412,70 412,55 429,55" fill="rgb(255,255,255)" fill-opacity="1.0" stroke="rgb(0,0,0)" stroke-width="2"  />
			<g>
				<title>tRNA-synt_2 (PF00152)
"tRNA synthetases class II (D, K and N)"</title>
				<polygon class="PF00152" points="386,40 398,28 428,28 428,52 398,52" stroke-linejoin="round" width="43" height="24" fill="rgb(90,71,190)" stroke="rgb(72,56,152)" stroke-width="1" opacity="0.75" />
			</g>
		</g>
		<g>
			<title> (ctg164_18)</title>
			<polygon class=" (ctg164_18)" points="431,10 443,40 431,70" fill="rgb(255,255,255)" fill-opacity="1.0" stroke="rgb(0,0,0)" stroke-width="2"  />
		</g>
		<g>
			<title> (ctg164_19)</title>
			<polygon class=" (ctg164_19)" points="443,10 447,40 443,70" fill="rgb(255,255,255)" fill-opacity="1.0" stroke="rgb(0,0,0)" stroke-width="2"  />
		</g>
		<g>
			<title> (ctg164_20)</title>
			<polygon class=" (ctg164_20)" points="449,10 475,40 449,70" fill="rgb(255,255,255)" fill-opacity="1.0" stroke="rgb(0,0,0)" stroke-width="2"  />
			<g>
				<title>HpcH_HpaI (PF03328)
"HpcH/HpaI aldolase/citrate lyase family"</title>
				<polygon class="PF03328" points="454,28 461,28 467,36 467,44 461,52 454,52" stroke-linejoin="round" width="13" height="24" fill="rgb(81,183,94)" stroke="rgb(64,146,75)" stroke-width="1" opacity="0.75" />
			</g>
		</g>
		<g>
			<title> (ctg164_21)</title>
			<polygon class=" (ctg164_21)" points="479,10 483,40 479,70" fill="rgb(255,255,255)" fill-opacity="1.0" stroke="rgb(0,0,0)" stroke-width="2"  />
		</g>
		<g>
			<title> (ctg164_22)</title>
			<polygon class=" (ctg164_22)" points="507,40 531,10 531,70" fill="rgb(255,255,255)" fill-opacity="1.0" stroke="rgb(0,0,0)" stroke-width="2"  />
			<g>
				<title>adh_short_C2 (PF13561)
"Enoyl-(Acyl carrier protein) reductase"</title>
				<polygon class="PF13561" points="511,40 521,28 529,28 529,52 521,52" stroke-linejoin="round" width="22" height="24" fill="rgb(73,205,127)" stroke="rgb(58,164,101)" stroke-width="1" opacity="0.75" />
			</g>
		</g>
		<g>
			<title> (ctg164_23)</title>
			<polygon class=" (ctg164_23)" points="533,40 559,10 559,70" fill="rgb(255,255,255)" fill-opacity="1.0" stroke="rgb(0,0,0)" stroke-width="2"  />
			<g>
				<title>Methyltransf_11 (PF08241)
"Methyltransferase domain"</title>
				<polygon class="PF08241" points="543,33 548,28 552,28 552,52 548,52 543,47" stroke-linejoin="round" width="9" height="24" fill="rgb(106,219,159)" stroke="rgb(84,175,127)" stroke-width="1" opacity="0.75" />
			</g>
		</g>
		<g>
			<title> (ctg164_24)</title>
			<polygon class=" (ctg164_24)" points="571,40 574,10 574,70" fill="rgb(255,255,255)" fill-opacity="1.0" stroke="rgb(0,0,0)" stroke-width="2"  />
		</g>
		<g>
			<title> (ctg164_25)</title>
			<polygon class=" (ctg164_25)" points="580,10 586,40 580,70" fill="rgb(255,255,255)" fill-opacity="1.0" stroke="rgb(0,0,0)" stroke-width="2"  />
			<g>
				<title>CVNH (PF08881)
"CVNH domain"</title>
				<polygon class="PF08881" points="580,28 580,28 583,40 580,52 580,52" stroke-linejoin="round" width="5" height="24" fill="rgb(103,204,95)" stroke="rgb(82,163,76)" stroke-width="1" opacity="0.75" />
			</g>
		</g>
		<g>
			<title> (ctg164_26)</title>
			<polygon class=" (ctg164_26)" points="589,40 592,10 592,70" fill="rgb(255,255,255)" fill-opacity="1.0" stroke="rgb(0,0,0)" stroke-width="2"  />
		</g>
		<g>
			<title> (ctg164_27)</title>
			<polygon class=" (ctg164_27)" points="602,40 618,10 618,70" fill="rgb(255,255,255)" fill-opacity="1.0" stroke="rgb(0,0,0)" stroke-width="2"  />
		</g>
		<g>
			<title> (ctg164_28)</title>
			<polygon class=" (ctg164_28)" points="680,25 658,25 658,10 628,40 658,70 658,55 680,55" fill="rgb(255,255,255)" fill-opacity="1.0" stroke="rgb(0,0,0)" stroke-width="2"  />
			<g>
				<title>Thioesterase (PF00975)
"Thioesterase domain"</title>
				<polygon class="PF00975" points="632,40 644,28 654,28 654,52 644,52" stroke-linejoin="round" width="26" height="24" fill="rgb(207,80,138)" stroke="rgb(165,63,110)" stroke-width="1" opacity="0.75" />
			</g>
			<g>
				<title>PP-binding (PF00550)
"Phosphopantetheine attachment site"</title>
				<rect class="PF00550" x="657" y="28" stroke-linejoin="round" width="6" height="24" fill="rgb(103,191,88)" stroke="rgb(82,152,70)" stroke-width="1" opacity="0.75" />
			</g>
			<g>
				<title>AMP-binding_C (PF13193)
"AMP-binding enzyme C-terminal domain"</title>
				<rect class="PF13193" x="666" y="28" stroke-linejoin="round" width="7" height="24" fill="rgb(182,50,118)" stroke="rgb(145,39,94)" stroke-width="1" opacity="0.75" />
			</g>
			<g>
				<title>AMP-binding (PF00501)
"AMP-binding enzyme"</title>
				<rect class="PF00501" x="674" y="28" stroke-linejoin="round" width="5" height="24" fill="rgb(60,217,223)" stroke="rgb(48,173,178)" stroke-width="1" opacity="0.75" />
			</g>
		</g>
	</g>
</svg>
