<svg version="1.1" baseProfile="full" xmlns="http://www.w3.org/2000/svg" width="731.3333333333334" height="80">
	<g>
		<line x1="10" y1="40.0" x2="721.3333333333334" y2="40.0" style="stroke:rgb(70,70,70); stroke-width:3 "/>
		<g>
			<title> (ctg53_1)</title>
			<polygon class=" (ctg53_1)" points="10,40 13,10 13,70" fill="rgb(255,255,255)" fill-opacity="1.0" stroke="rgb(0,0,0)" stroke-width="2"  />
		</g>
		<g>
			<title> (ctg53_2)</title>
			<polygon class=" (ctg53_2)" points="23,10 27,40 23,70" fill="rgb(255,255,255)" fill-opacity="1.0" stroke="rgb(0,0,0)" stroke-width="2"  />
		</g>
		<g>
			<title> (ctg53_3)</title>
			<polygon class=" (ctg53_3)" points="80,25 67,25 67,10 37,40 67,70 67,55 80,55" fill="rgb(255,255,255)" fill-opacity="1.0" stroke="rgb(0,0,0)" stroke-width="2"  />
			<g>
				<title>DUF4143 (PF13635)
"Domain of unknown function (DUF4143)"</title>
				<polygon class="PF13635" points="45,36 53,28 60,28 60,52 53,52 45,44" stroke-linejoin="round" width="15" height="24" fill="rgb(119,89,210)" stroke="rgb(95,71,168)" stroke-width="1" opacity="0.75" />
			</g>
			<g>
				<title>AAA_14 (PF13173)
"AAA domain"</title>
				<rect class="PF13173" x="67" y="28" stroke-linejoin="round" width="12" height="24" fill="rgb(77,222,177)" stroke="rgb(61,177,141)" stroke-width="1" opacity="0.75" />
			</g>
		</g>
		<g>
			<title> (ctg53_4)</title>
			<polygon class=" (ctg53_4)" points="98,10 123,40 98,70" fill="rgb(255,255,255)" fill-opacity="1.0" stroke="rgb(0,0,0)" stroke-width="2"  />
			<g>
				<title>TatC (PF00902)
"Sec-independent protein translocase protein (TatC)"</title>
				<polygon class="PF00902" points="101,28 109,28 119,40 109,52 101,52" stroke-linejoin="round" width="20" height="24" fill="rgb(84,193,209)" stroke="rgb(67,154,167)" stroke-width="1" opacity="0.75" />
			</g>
		</g>
		<g>
			<title> (ctg53_5)</title>
			<polygon class=" (ctg53_5)" points="131,10 141,40 131,70" fill="rgb(255,255,255)" fill-opacity="1.0" stroke="rgb(0,0,0)" stroke-width="2"  />
		</g>
		<g>
			<title> (ctg53_6)</title>
			<polygon class=" (ctg53_6)" points="157,25 177,25 177,10 207,40 177,70 177,55 157,55" fill="rgb(255,255,255)" fill-opacity="1.0" stroke="rgb(0,0,0)" stroke-width="2"  />
			<g>
				<title>PSII (PF00421)
"Photosystem II protein"</title>
				<polygon class="PF00421" points="157,28 191,28 203,40 191,52 157,52" stroke-linejoin="round" width="49" height="24" fill="rgb(183,68,103)" stroke="rgb(146,54,82)" stroke-width="1" opacity="0.75" />
			</g>
		</g>
		<g>
			<title> (ctg53_7)</title>
			<polygon class=" (ctg53_7)" points="217,40 221,10 221,70" fill="rgb(255,255,255)" fill-opacity="1.0" stroke="rgb(0,0,0)" stroke-width="2"  />
			<g>
				<title>PsbJ (PF01788)
"PsbJ"</title>
				<polygon class="PF01788" points="220,40 220,40 220,40" stroke-linejoin="round" width="3" height="24" fill="rgb(56,185,118)" stroke="rgb(44,148,94)" stroke-width="1" opacity="0.75" />
			</g>
		</g>
		<g>
			<title> (ctg53_8)</title>
			<polygon class=" (ctg53_8)" points="223,40 227,10 227,70" fill="rgb(255,255,255)" fill-opacity="1.0" stroke="rgb(0,0,0)" stroke-width="2"  />
			<g>
				<title>PsbL (PF02419)
"PsbL protein"</title>
				<polygon class="PF02419" points="226,40 226,40 226,40" stroke-linejoin="round" width="3" height="24" fill="rgb(200,88,151)" stroke="rgb(160,70,120)" stroke-width="1" opacity="0.75" />
			</g>
		</g>
		<g>
			<title> (ctg53_9)</title>
			<polygon class=" (ctg53_9)" points="227,40 231,10 231,70" fill="rgb(255,255,255)" fill-opacity="1.0" stroke="rgb(0,0,0)" stroke-width="2"  />
			<g>
				<title>Cytochrom_B559 (PF00283)
"Cytochrome b559, alpha (gene psbE) and beta (gene psbF)subunits"</title>
				<polygon class="PF00283" points="230,40 230,40 230,40" stroke-linejoin="round" width="2" height="24" fill="rgb(69,149,197)" stroke="rgb(55,119,157)" stroke-width="1" opacity="0.75" />
			</g>
		</g>
		<g>
			<title> (ctg53_10)</title>
			<polygon class=" (ctg53_10)" points="232,40 240,10 240,70" fill="rgb(255,255,255)" fill-opacity="1.0" stroke="rgb(0,0,0)" stroke-width="2"  />
			<g>
				<title>Cytochrom_B559a (PF00284)
"Lumenal portion of Cytochrome b559, alpha (gene psbE) subunit"</title>
				<polygon class="PF00284" points="235,40 235,40 235,40" stroke-linejoin="round" width="3" height="24" fill="rgb(87,188,64)" stroke="rgb(69,150,51)" stroke-width="1" opacity="0.75" />
			</g>
			<g>
				<title>Cytochrom_B559 (PF00283)
"Cytochrome b559, alpha (gene psbE) and beta (gene psbF)subunits"</title>
				<polygon class="PF00283" points="236,36 238,28 238,28 238,52 238,52 236,44" stroke-linejoin="round" width="2" height="24" fill="rgb(69,149,197)" stroke="rgb(55,119,157)" stroke-width="1" opacity="0.75" />
			</g>
		</g>
		<g>
			<title> (ctg53_11)</title>
			<polygon class=" (ctg53_11)" points="276,25 273,25 273,10 243,40 273,70 273,55 276,55" fill="rgb(255,255,255)" fill-opacity="1.0" stroke="rgb(0,0,0)" stroke-width="2"  />
			<g>
				<title>PSII_BNR (PF14870)
"Photosynthesis system II assembly factor YCF48"</title>
				<polygon class="PF14870" points="247,40 259,28 273,28 273,52 259,52" stroke-linejoin="round" width="30" height="24" fill="rgb(188,81,115)" stroke="rgb(150,64,92)" stroke-width="1" opacity="0.75" />
			</g>
		</g>
		<g>
			<title> (ctg53_12)</title>
			<polygon class=" (ctg53_12)" points="280,40 292,10 292,70" fill="rgb(255,255,255)" fill-opacity="1.0" stroke="rgb(0,0,0)" stroke-width="2"  />
			<g>
				<title>Rubredoxin (PF00301)
"Rubredoxin"</title>
				<polygon class="PF00301" points="285,35 288,28 289,28 289,52 288,52 285,45" stroke-linejoin="round" width="4" height="24" fill="rgb(130,88,185)" stroke="rgb(104,70,148)" stroke-width="1" opacity="0.75" />
			</g>
		</g>
		<g>
			<title> (ctg53_13)</title>
			<polygon class=" (ctg53_13)" points="311,25 357,25 357,10 387,40 357,70 357,55 311,55" fill="rgb(255,255,255)" fill-opacity="1.0" stroke="rgb(0,0,0)" stroke-width="2"  />
			<g>
				<title>YcaO (PF02624)
"YcaO cyclodehydratase, ATP-ad Mg2+-binding"</title>
				<polygon class="PF02624" points="350,28 371,28 383,40 383,40 371,52 350,52" stroke-linejoin="round" width="33" height="24" fill="rgb(76,84,185)" stroke="rgb(60,67,148)" stroke-width="1" opacity="0.75" />
			</g>
		</g>
		<g>
			<title> (ctg53_14)</title>
			<polygon class=" (ctg53_14)" points="389,40 399,10 399,70" fill="rgb(255,255,255)" fill-opacity="1.0" stroke="rgb(0,0,0)" stroke-width="2"  />
			<g>
				<title>HTH_37 (PF13744)
"Helix-turn-helix domain"</title>
				<polygon class="PF13744" points="392,40 396,28 397,28 397,52 396,52" stroke-linejoin="round" width="8" height="24" fill="rgb(113,218,98)" stroke="rgb(90,174,78)" stroke-width="1" opacity="0.75" />
			</g>
		</g>
		<g>
			<title> (ctg53_15)</title>
			<polygon class=" (ctg53_15)" points="399,40 410,10 410,70" fill="rgb(255,255,255)" fill-opacity="1.0" stroke="rgb(0,0,0)" stroke-width="2"  />
			<g>
				<title>Gp49 (PF05973)
"Phage derived protein Gp49-like (DUF891)"</title>
				<polygon class="PF05973" points="402,40 407,28 408,28 408,52 407,52" stroke-linejoin="round" width="8" height="24" fill="rgb(81,198,58)" stroke="rgb(64,158,46)" stroke-width="1" opacity="0.75" />
			</g>
		</g>
		<g>
			<title> (ctg53_16)</title>
			<polygon class=" (ctg53_16)" points="414,40 419,10 419,70" fill="rgb(255,255,255)" fill-opacity="1.0" stroke="rgb(0,0,0)" stroke-width="2"  />
			<g>
				<title>DUF4160 (PF13711)
"Domain of unknown function (DUF4160)"</title>
				<polygon class="PF13711" points="417,40 418,34 418,46" stroke-linejoin="round" width="4" height="24" fill="rgb(55,181,90)" stroke="rgb(44,144,72)" stroke-width="1" opacity="0.75" />
			</g>
		</g>
		<g>
			<title> (ctg53_17)</title>
			<polygon class=" (ctg53_17)" points="421,40 426,10 426,70" fill="rgb(255,255,255)" fill-opacity="1.0" stroke="rgb(0,0,0)" stroke-width="2"  />
		</g>
		<g>
			<title> (ctg53_18)</title>
			<polygon class=" (ctg53_18)" points="430,40 438,10 438,70" fill="rgb(255,255,255)" fill-opacity="1.0" stroke="rgb(0,0,0)" stroke-width="2"  />
		</g>
		<g>
			<title> (ctg53_19)</title>
			<polygon class=" (ctg53_19)" points="456,10 462,40 456,70" fill="rgb(255,255,255)" fill-opacity="1.0" stroke="rgb(0,0,0)" stroke-width="2"  />
			<g>
				<title>YcaO (PF02624)
"YcaO cyclodehydratase, ATP-ad Mg2+-binding"</title>
				<polygon class="PF02624" points="456,28 456,28 458,34 458,46 456,52 456,52" stroke-linejoin="round" width="2" height="24" fill="rgb(76,84,185)" stroke="rgb(60,67,148)" stroke-width="1" opacity="0.75" />
			</g>
		</g>
		<g>
			<title> (ctg53_20)</title>
			<polygon class=" (ctg53_20)" points="468,40 493,10 493,70" fill="rgb(255,255,255)" fill-opacity="1.0" stroke="rgb(0,0,0)" stroke-width="2"  />
			<g>
				<title>Transposase_20 (PF02371)
"Transposase IS116/IS110/IS902 family"</title>
				<polygon class="PF02371" points="472,40 480,31 480,49 472,40" stroke-linejoin="round" width="8" height="24" fill="rgb(104,204,65)" stroke="rgb(83,163,52)" stroke-width="1" opacity="0.75" />
			</g>
			<g>
				<title>DEDD_Tnp_IS110 (PF01548)
"Transposase"</title>
				<rect class="PF01548" x="484" y="28" stroke-linejoin="round" width="8" height="24" fill="rgb(59,200,207)" stroke="rgb(47,160,165)" stroke-width="1" opacity="0.75" />
			</g>
		</g>
		<g>
			<title> (ctg53_21)</title>
			<polygon class=" (ctg53_21)" points="494,40 502,10 502,70" fill="rgb(255,255,255)" fill-opacity="1.0" stroke="rgb(0,0,0)" stroke-width="2"  />
		</g>
		<g>
			<title> (ctg53_22)</title>
			<polygon class=" (ctg53_22)" points="536,10 564,40 536,70" fill="rgb(255,255,255)" fill-opacity="1.0" stroke="rgb(0,0,0)" stroke-width="2"  />
			<g>
				<title>DUF455 (PF04305)
"Protein of unknown function (DUF455)"</title>
				<polygon class="PF04305" points="537,28 548,28 556,36 556,44 548,52 537,52" stroke-linejoin="round" width="19" height="24" fill="rgb(49,129,189)" stroke="rgb(39,103,151)" stroke-width="1" opacity="0.75" />
			</g>
		</g>
		<g>
			<title> (ctg53_23)</title>
			<polygon class=" (ctg53_23)" points="570,25 575,25 575,10 605,40 575,70 575,55 570,55" fill="rgb(255,255,255)" fill-opacity="1.0" stroke="rgb(0,0,0)" stroke-width="2"  />
			<g>
				<title>Pentapeptide (PF00805)
"Pentapeptide repeats (8 copies)"</title>
				<polygon class="PF00805" points="594,33 597,36 597,44 594,47" stroke-linejoin="round" width="3" height="24" fill="rgb(186,52,164)" stroke="rgb(148,41,131)" stroke-width="1" opacity="0.75" />
			</g>
			<g>
				<title>Pentapeptide (PF00805)
"Pentapeptide repeats (8 copies)"</title>
				<polygon class="PF00805" points="599,38 601,40 599,42" stroke-linejoin="round" width="3" height="24" fill="rgb(186,52,164)" stroke="rgb(148,41,131)" stroke-width="1" opacity="0.75" />
			</g>
		</g>
		<g>
			<title> (ctg53_24)</title>
			<polygon class=" (ctg53_24)" points="608,40 633,10 633,70" fill="rgb(255,255,255)" fill-opacity="1.0" stroke="rgb(0,0,0)" stroke-width="2"  />
			<g>
				<title>Uma2 (PF05685)
"Putative restriction endonuclease"</title>
				<polygon class="PF05685" points="612,40 622,28 631,28 631,52 622,52" stroke-linejoin="round" width="20" height="24" fill="rgb(123,107,219)" stroke="rgb(98,85,175)" stroke-width="1" opacity="0.75" />
			</g>
		</g>
		<g>
			<title> (ctg53_25)</title>
			<polygon class=" (ctg53_25)" points="637,40 658,10 658,70" fill="rgb(255,255,255)" fill-opacity="1.0" stroke="rgb(0,0,0)" stroke-width="2"  />
			<g>
				<title>GerE (PF00196)
"Bacterial regulatory proteins, luxR family"</title>
				<polygon class="PF00196" points="641,40 642,39 642,41" stroke-linejoin="round" width="5" height="24" fill="rgb(219,94,82)" stroke="rgb(175,75,65)" stroke-width="1" opacity="0.75" />
			</g>
			<g>
				<title>Response_reg (PF00072)
"Response regulator receiver domain"</title>
				<polygon class="PF00072" points="646,33 649,28 657,28 657,52 649,52 646,47" stroke-linejoin="round" width="11" height="24" fill="rgb(100,107,203)" stroke="rgb(80,85,162)" stroke-width="1" opacity="0.75" />
			</g>
		</g>
	</g>
</svg>
