<svg version="1.1" baseProfile="full" xmlns="http://www.w3.org/2000/svg" width="1950.4333333333334" height="80">
	<g>
		<line x1="10" y1="40.0" x2="1940.4333333333334" y2="40.0" style="stroke:rgb(70,70,70); stroke-width:3 "/>
		<g>
			<title> (ctg34_21)</title>
			<polygon class=" (ctg34_21)" points="39,40 52,10 52,70" fill="rgb(255,255,255)" fill-opacity="1.0" stroke="rgb(0,0,0)" stroke-width="2"  />
		</g>
		<g>
			<title> (ctg34_22)</title>
			<polygon class=" (ctg34_22)" points="80,10 99,40 80,70" fill="rgb(255,255,255)" fill-opacity="1.0" stroke="rgb(0,0,0)" stroke-width="2"  />
			<g>
				<title>Cupin_7 (PF12973)
"ChrR Cupin-like domain"</title>
				<rect class="PF12973" x="80" y="28" stroke-linejoin="round" width="6" height="24" fill="rgb(121,57,179)" stroke="rgb(96,45,143)" stroke-width="1" opacity="0.75" />
			</g>
			<g>
				<title>Cupin_7 (PF12973)
"ChrR Cupin-like domain"</title>
				<polygon class="PF12973" points="88,28 88,28 95,40 88,52 88,52" stroke-linejoin="round" width="8" height="24" fill="rgb(121,57,179)" stroke="rgb(96,45,143)" stroke-width="1" opacity="0.75" />
			</g>
		</g>
		<g>
			<title> (ctg34_23)</title>
			<polygon class=" (ctg34_23)" points="133,25 132,25 132,10 102,40 132,70 132,55 133,55" fill="rgb(255,255,255)" fill-opacity="1.0" stroke="rgb(0,0,0)" stroke-width="2"  />
		</g>
		<g>
			<title> (ctg34_24)</title>
			<polygon class=" (ctg34_24)" points="136,40 162,10 162,70" fill="rgb(255,255,255)" fill-opacity="1.0" stroke="rgb(0,0,0)" stroke-width="2"  />
			<g>
				<title>GATase_3 (PF07685)
"CobB/CobQ-like glutamine amidotransferase domain"</title>
				<polygon class="PF07685" points="141,39 151,28 162,28 162,52 151,52 141,41" stroke-linejoin="round" width="21" height="24" fill="rgb(206,104,226)" stroke="rgb(164,83,180)" stroke-width="1" opacity="0.75" />
			</g>
		</g>
		<g>
			<title> (ctg34_25)</title>
			<polygon class=" (ctg34_25)" points="211,25 197,25 197,10 167,40 197,70 197,55 211,55" fill="rgb(255,255,255)" fill-opacity="1.0" stroke="rgb(0,0,0)" stroke-width="2"  />
			<g>
				<title>MurT_C (PF08353)
"MurT ligase C-terminal"</title>
				<polygon class="PF08353" points="171,40 179,32 179,48" stroke-linejoin="round" width="11" height="24" fill="rgb(104,202,99)" stroke="rgb(83,161,79)" stroke-width="1" opacity="0.75" />
			</g>
			<g>
				<title>Mur_ligase_M (PF08245)
"Mur ligase middle domain"</title>
				<polygon class="PF08245" points="183,28 183,28 204,28 204,52 183,52 183,52" stroke-linejoin="round" width="21" height="24" fill="rgb(57,133,195)" stroke="rgb(45,106,156)" stroke-width="1" opacity="0.75" />
			</g>
		</g>
		<g>
			<title> (ctg34_26)</title>
			<polygon class=" (ctg34_26)" points="247,25 245,25 245,10 215,40 245,70 245,55 247,55" fill="rgb(255,255,255)" fill-opacity="1.0" stroke="rgb(0,0,0)" stroke-width="2"  />
			<g>
				<title>Methyltransf_21 (PF05050)
"Methyltransferase FkbM domain"</title>
				<polygon class="PF05050" points="223,36 231,28 239,28 239,52 231,52 223,44" stroke-linejoin="round" width="16" height="24" fill="rgb(95,204,52)" stroke="rgb(76,163,41)" stroke-width="1" opacity="0.75" />
			</g>
		</g>
		<g>
			<title> (ctg34_27)</title>
			<polygon class=" (ctg34_27)" points="258,25 267,25 267,10 297,40 267,70 267,55 258,55" fill="rgb(255,255,255)" fill-opacity="1.0" stroke="rgb(0,0,0)" stroke-width="2"  />
			<g>
				<title>Trypsin_2 (PF13365)
"Trypsin-like peptidase domain"</title>
				<polygon class="PF13365" points="269,28 281,28 282,29 282,51 281,52 269,52" stroke-linejoin="round" width="13" height="24" fill="rgb(126,86,188)" stroke="rgb(100,68,150)" stroke-width="1" opacity="0.75" />
			</g>
			<g>
				<title>PDZ_2 (PF13180)
"PDZ domain"</title>
				<polygon class="PF13180" points="286,33 293,40 286,47" stroke-linejoin="round" width="9" height="24" fill="rgb(128,192,48)" stroke="rgb(102,153,38)" stroke-width="1" opacity="0.75" />
			</g>
		</g>
		<g>
			<title> (ctg34_28)</title>
			<polygon class=" (ctg34_28)" points="314,25 341,25 341,10 371,40 341,70 341,55 314,55" fill="rgb(255,255,255)" fill-opacity="1.0" stroke="rgb(0,0,0)" stroke-width="2"  />
			<g>
				<title>DUF262 (PF03235)
"Protein of unknown function DUF262"</title>
				<rect class="PF03235" x="314" y="28" stroke-linejoin="round" width="21" height="24" fill="rgb(101,154,211)" stroke="rgb(80,123,168)" stroke-width="1" opacity="0.75" />
			</g>
			<g>
				<title>DUF1524 (PF07510)
"Protein of unknown function (DUF1524)"</title>
				<polygon class="PF07510" points="356,29 367,40 356,51" stroke-linejoin="round" width="13" height="24" fill="rgb(220,94,137)" stroke="rgb(176,75,109)" stroke-width="1" opacity="0.75" />
			</g>
		</g>
		<g>
			<title> (ctg34_29)</title>
			<polygon class=" (ctg34_29)" points="379,25 389,25 389,10 419,40 389,70 389,55 379,55" fill="rgb(255,255,255)" fill-opacity="1.0" stroke="rgb(0,0,0)" stroke-width="2"  />
			<g>
				<title>LptC (PF06835)
"Lipopolysaccharide-assembly, LptC-related"</title>
				<rect class="PF06835" x="383" y="28" stroke-linejoin="round" width="14" height="24" fill="rgb(193,93,52)" stroke="rgb(154,74,41)" stroke-width="1" opacity="0.75" />
			</g>
		</g>
		<g>
			<title> (ctg34_30)</title>
			<polygon class=" (ctg34_30)" points="422,40 432,10 432,70" fill="rgb(255,255,255)" fill-opacity="1.0" stroke="rgb(0,0,0)" stroke-width="2"  />
			<g>
				<title>Oxidored_q2 (PF00420)
"NADH-ubiquinone/plastoquinone oxidoreductase chain 4L"</title>
				<polygon class="PF00420" points="425,40 429,28 431,28 431,52 429,52" stroke-linejoin="round" width="9" height="24" fill="rgb(73,55,194)" stroke="rgb(58,44,155)" stroke-width="1" opacity="0.75" />
			</g>
		</g>
		<g>
			<title> (ctg34_31)</title>
			<polygon class=" (ctg34_31)" points="433,40 452,10 452,70" fill="rgb(255,255,255)" fill-opacity="1.0" stroke="rgb(0,0,0)" stroke-width="2"  />
			<g>
				<title>Oxidored_q3 (PF00499)
"NADH-ubiquinone/plastoquinone oxidoreductase chain 6"</title>
				<polygon class="PF00499" points="437,40 445,28 450,28 450,52 445,52" stroke-linejoin="round" width="14" height="24" fill="rgb(189,145,91)" stroke="rgb(151,116,72)" stroke-width="1" opacity="0.75" />
			</g>
		</g>
		<g>
			<title> (ctg34_32)</title>
			<polygon class=" (ctg34_32)" points="456,40 475,10 475,70" fill="rgb(255,255,255)" fill-opacity="1.0" stroke="rgb(0,0,0)" stroke-width="2"  />
			<g>
				<title>Fer4_7 (PF12838)
"4Fe-4S dicluster domain"</title>
				<polygon class="PF12838" points="463,35 468,28 468,28 468,52 468,52 463,45" stroke-linejoin="round" width="5" height="24" fill="rgb(138,229,96)" stroke="rgb(110,183,76)" stroke-width="1" opacity="0.75" />
			</g>
		</g>
		<g>
			<title> (ctg34_33)</title>
			<polygon class=" (ctg34_33)" points="514,25 507,25 507,10 477,40 507,70 507,55 514,55" fill="rgb(255,255,255)" fill-opacity="1.0" stroke="rgb(0,0,0)" stroke-width="2"  />
			<g>
				<title>NADHdh (PF00146)
"NADH dehydrogenase"</title>
				<polygon class="PF00146" points="481,40 493,28 510,28 510,52 493,52" stroke-linejoin="round" width="32" height="24" fill="rgb(184,56,88)" stroke="rgb(147,44,70)" stroke-width="1" opacity="0.75" />
			</g>
		</g>
		<g>
			<title> (ctg34_34)</title>
			<polygon class=" (ctg34_34)" points="536,40 559,10 559,70" fill="rgb(255,255,255)" fill-opacity="1.0" stroke="rgb(0,0,0)" stroke-width="2"  />
		</g>
		<g>
			<title> (ctg34_35)</title>
			<polygon class=" (ctg34_35)" points="561,10 576,40 561,70" fill="rgb(255,255,255)" fill-opacity="1.0" stroke="rgb(0,0,0)" stroke-width="2"  />
		</g>
		<g>
			<title> (ctg34_36)</title>
			<polygon class=" (ctg34_36)" points="573,40 581,10 581,70" fill="rgb(255,255,255)" fill-opacity="1.0" stroke="rgb(0,0,0)" stroke-width="2"  />
		</g>
		<g>
			<title> (ctg34_37)</title>
			<polygon class=" (ctg34_37)" points="646,25 610,25 610,10 580,40 610,70 610,55 646,55" fill="rgb(255,255,255)" fill-opacity="1.0" stroke="rgb(0,0,0)" stroke-width="2"  />
			<g>
				<title>ABC_tran (PF00005)
"ABC transporter"</title>
				<polygon class="PF00005" points="593,31 596,28 606,28 606,52 596,52 593,49" stroke-linejoin="round" width="13" height="24" fill="rgb(129,201,63)" stroke="rgb(103,160,50)" stroke-width="1" opacity="0.75" />
			</g>
			<g>
				<title>ABC_membrane_2 (PF06472)
"ABC transporter transmembrane region 2"</title>
				<rect class="PF06472" x="616" y="28" stroke-linejoin="round" width="25" height="24" fill="rgb(120,179,45)" stroke="rgb(96,143,36)" stroke-width="1" opacity="0.75" />
			</g>
		</g>
		<g>
			<title> (ctg34_38)</title>
			<polygon class=" (ctg34_38)" points="653,40 658,10 658,70" fill="rgb(255,255,255)" fill-opacity="1.0" stroke="rgb(0,0,0)" stroke-width="2"  />
		</g>
		<g>
			<title> (ctg34_39)</title>
			<polygon class=" (ctg34_39)" points="657,40 673,10 673,70" fill="rgb(255,255,255)" fill-opacity="1.0" stroke="rgb(0,0,0)" stroke-width="2"  />
		</g>
		<g>
			<title> (ctg34_40)</title>
			<polygon class=" (ctg34_40)" points="825,25 706,25 706,10 676,40 706,70 706,55 825,55" fill="rgb(255,255,255)" fill-opacity="1.0" stroke="rgb(0,0,0)" stroke-width="2"  />
			<g>
				<title>NAD_binding_4 (PF07993)
"Male sterility protein"</title>
				<polygon class="PF07993" points="688,32 692,28 711,28 711,52 692,52 688,48" stroke-linejoin="round" width="23" height="24" fill="rgb(100,212,204)" stroke="rgb(80,169,163)" stroke-width="1" opacity="0.75" />
			</g>
			<g>
				<title>PP-binding (PF00550)
"Phosphopantetheine attachment site"</title>
				<rect class="PF00550" x="716" y="28" stroke-linejoin="round" width="6" height="24" fill="rgb(103,191,88)" stroke="rgb(82,152,70)" stroke-width="1" opacity="0.75" />
			</g>
			<g>
				<title>AMP-binding_C (PF13193)
"AMP-binding enzyme C-terminal domain"</title>
				<rect class="PF13193" x="725" y="28" stroke-linejoin="round" width="7" height="24" fill="rgb(182,50,118)" stroke="rgb(145,39,94)" stroke-width="1" opacity="0.75" />
			</g>
			<g>
				<title>AMP-binding (PF00501)
"AMP-binding enzyme"</title>
				<rect class="PF00501" x="733" y="28" stroke-linejoin="round" width="41" height="24" fill="rgb(60,217,223)" stroke="rgb(48,173,178)" stroke-width="1" opacity="0.75" />
			</g>
			<g>
				<title>Condensation (PF00668)
"Condensation domain"</title>
				<rect class="PF00668" x="776" y="28" stroke-linejoin="round" width="44" height="24" fill="rgb(224,184,98)" stroke="rgb(179,147,78)" stroke-width="1" opacity="0.75" />
			</g>
		</g>
		<g>
			<title> (ctg34_41)</title>
			<polygon class=" (ctg34_41)" points="828,40 853,10 853,70" fill="rgb(255,255,255)" fill-opacity="1.0" stroke="rgb(0,0,0)" stroke-width="2"  />
			<g>
				<title>adh_short_C2 (PF13561)
"Enoyl-(Acyl carrier protein) reductase"</title>
				<polygon class="PF13561" points="832,40 842,28 851,28 851,52 842,52" stroke-linejoin="round" width="23" height="24" fill="rgb(73,205,127)" stroke="rgb(58,164,101)" stroke-width="1" opacity="0.75" />
			</g>
		</g>
		<g>
			<title> (ctg34_42)</title>
			<polygon class=" (ctg34_42)" points="965,25 886,25 886,10 856,40 886,70 886,55 965,55" fill="rgb(255,255,255)" fill-opacity="1.0" stroke="rgb(0,0,0)" stroke-width="2"  />
			<g>
				<title>PP-binding (PF00550)
"Phosphopantetheine attachment site"</title>
				<polygon class="PF00550" points="860,40 865,35 865,45" stroke-linejoin="round" width="6" height="24" fill="rgb(103,191,88)" stroke="rgb(82,152,70)" stroke-width="1" opacity="0.75" />
			</g>
			<g>
				<title>AMP-binding_C (PF13193)
"AMP-binding enzyme C-terminal domain"</title>
				<polygon class="PF13193" points="868,32 872,28 875,28 875,52 872,52 868,48" stroke-linejoin="round" width="7" height="24" fill="rgb(182,50,118)" stroke="rgb(145,39,94)" stroke-width="1" opacity="0.75" />
			</g>
			<g>
				<title>AMP-binding (PF00501)
"AMP-binding enzyme"</title>
				<rect class="PF00501" x="877" y="28" stroke-linejoin="round" width="40" height="24" fill="rgb(60,217,223)" stroke="rgb(48,173,178)" stroke-width="1" opacity="0.75" />
			</g>
			<g>
				<title>Condensation (PF00668)
"Condensation domain"</title>
				<rect class="PF00668" x="919" y="28" stroke-linejoin="round" width="44" height="24" fill="rgb(224,184,98)" stroke="rgb(179,147,78)" stroke-width="1" opacity="0.75" />
			</g>
		</g>
		<g>
			<title> (ctg34_43)</title>
			<polygon class=" (ctg34_43)" points="999,25 998,25 998,10 968,40 998,70 998,55 999,55" fill="rgb(255,255,255)" fill-opacity="1.0" stroke="rgb(0,0,0)" stroke-width="2"  />
			<g>
				<title>NKWYS (PF10364)
"Putative capsular polysaccharide synthesis protein"</title>
				<polygon class="PF10364" points="972,40 982,30 982,50" stroke-linejoin="round" width="13" height="24" fill="rgb(162,59,200)" stroke="rgb(129,47,160)" stroke-width="1" opacity="0.75" />
			</g>
		</g>
		<g>
			<title> (ctg34_44)</title>
			<polygon class=" (ctg34_44)" points="1001,40 1027,10 1027,70" fill="rgb(255,255,255)" fill-opacity="1.0" stroke="rgb(0,0,0)" stroke-width="2"  />
			<g>
				<title>adh_short_C2 (PF13561)
"Enoyl-(Acyl carrier protein) reductase"</title>
				<polygon class="PF13561" points="1005,40 1016,28 1025,28 1025,52 1016,52" stroke-linejoin="round" width="24" height="24" fill="rgb(73,205,127)" stroke="rgb(58,164,101)" stroke-width="1" opacity="0.75" />
			</g>
		</g>
		<g>
			<title> (ctg34_45)</title>
			<polygon class=" (ctg34_45)" points="1029,40 1049,10 1049,70" fill="rgb(255,255,255)" fill-opacity="1.0" stroke="rgb(0,0,0)" stroke-width="2"  />
			<g>
				<title>Cupin_2 (PF07883)
"Cupin domain"</title>
				<polygon class="PF07883" points="1033,40 1035,37 1035,43" stroke-linejoin="round" width="6" height="24" fill="rgb(211,192,74)" stroke="rgb(168,153,59)" stroke-width="1" opacity="0.75" />
			</g>
			<g>
				<title>Cupin_2 (PF07883)
"Cupin domain"</title>
				<polygon class="PF07883" points="1040,30 1041,28 1046,28 1046,52 1041,52 1040,50" stroke-linejoin="round" width="6" height="24" fill="rgb(211,192,74)" stroke="rgb(168,153,59)" stroke-width="1" opacity="0.75" />
			</g>
		</g>
		<g>
			<title> (ctg34_46)</title>
			<polygon class=" (ctg34_46)" points="1053,40 1074,10 1074,70" fill="rgb(255,255,255)" fill-opacity="1.0" stroke="rgb(0,0,0)" stroke-width="2"  />
		</g>
		<g>
			<title> (ctg34_47)</title>
			<polygon class=" (ctg34_47)" points="1108,25 1104,25 1104,10 1074,40 1104,70 1104,55 1108,55" fill="rgb(255,255,255)" fill-opacity="1.0" stroke="rgb(0,0,0)" stroke-width="2"  />
			<g>
				<title>FMN_dh (PF01070)
"FMN-dependent dehydrogenase"</title>
				<polygon class="PF01070" points="1078,40 1090,28 1093,28 1093,52 1090,52" stroke-linejoin="round" width="19" height="24" fill="rgb(59,82,204)" stroke="rgb(47,65,163)" stroke-width="1" opacity="0.75" />
			</g>
			<g>
				<title>FMN_dh (PF01070)
"FMN-dependent dehydrogenase"</title>
				<rect class="PF01070" x="1097" y="28" stroke-linejoin="round" width="10" height="24" fill="rgb(59,82,204)" stroke="rgb(47,65,163)" stroke-width="1" opacity="0.75" />
			</g>
		</g>
		<g>
			<title> (ctg34_48)</title>
			<polygon class=" (ctg34_48)" points="1269,25 1140,25 1140,10 1110,40 1140,70 1140,55 1269,55" fill="rgb(255,255,255)" fill-opacity="1.0" stroke="rgb(0,0,0)" stroke-width="2"  />
			<g>
				<title>Condensation (PF00668)
"Condensation domain"</title>
				<polygon class="PF00668" points="1114,40 1126,28 1156,28 1156,52 1126,52" stroke-linejoin="round" width="45" height="24" fill="rgb(224,184,98)" stroke="rgb(179,147,78)" stroke-width="1" opacity="0.75" />
			</g>
			<g>
				<title>PP-binding (PF00550)
"Phosphopantetheine attachment site"</title>
				<rect class="PF00550" x="1158" y="28" stroke-linejoin="round" width="6" height="24" fill="rgb(103,191,88)" stroke="rgb(82,152,70)" stroke-width="1" opacity="0.75" />
			</g>
			<g>
				<title>AMP-binding_C (PF13193)
"AMP-binding enzyme C-terminal domain"</title>
				<rect class="PF13193" x="1167" y="28" stroke-linejoin="round" width="7" height="24" fill="rgb(182,50,118)" stroke="rgb(145,39,94)" stroke-width="1" opacity="0.75" />
			</g>
			<g>
				<title>AMP-binding (PF00501)
"AMP-binding enzyme"</title>
				<rect class="PF00501" x="1175" y="28" stroke-linejoin="round" width="39" height="24" fill="rgb(60,217,223)" stroke="rgb(48,173,178)" stroke-width="1" opacity="0.75" />
			</g>
			<g>
				<title>Condensation (PF00668)
"Condensation domain"</title>
				<rect class="PF00668" x="1217" y="28" stroke-linejoin="round" width="44" height="24" fill="rgb(224,184,98)" stroke="rgb(179,147,78)" stroke-width="1" opacity="0.75" />
			</g>
			<g>
				<title>TubC_N (PF18563)
"TubC N-terminal docking domain"</title>
				<rect class="PF18563" x="1264" y="28" stroke-linejoin="round" width="5" height="24" fill="rgb(95,217,77)" stroke="rgb(75,173,61)" stroke-width="1" opacity="0.75" />
			</g>
		</g>
		<g>
			<title> (ctg34_49)</title>
			<polygon class=" (ctg34_49)" points="1336,25 1304,25 1304,10 1274,40 1304,70 1304,55 1336,55" fill="rgb(255,255,255)" fill-opacity="1.0" stroke="rgb(0,0,0)" stroke-width="2"  />
			<g>
				<title>FAD_binding_3 (PF01494)
"FAD binding domain"</title>
				<rect class="PF01494" x="1305" y="28" stroke-linejoin="round" width="24" height="24" fill="rgb(182,175,59)" stroke="rgb(145,140,47)" stroke-width="1" opacity="0.75" />
			</g>
			<g>
				<title>TubC_N (PF18563)
"TubC N-terminal docking domain"</title>
				<rect class="PF18563" x="1331" y="28" stroke-linejoin="round" width="5" height="24" fill="rgb(95,217,77)" stroke="rgb(75,173,61)" stroke-width="1" opacity="0.75" />
			</g>
		</g>
		<g>
			<title> (ctg34_50)</title>
			<polygon class=" (ctg34_50)" points="1486,25 1374,25 1374,10 1344,40 1374,70 1374,55 1486,55" fill="rgb(255,255,255)" fill-opacity="1.0" stroke="rgb(0,0,0)" stroke-width="2"  />
			<g>
				<title>PP-binding (PF00550)
"Phosphopantetheine attachment site"</title>
				<polygon class="PF00550" points="1348,40 1353,35 1353,45" stroke-linejoin="round" width="6" height="24" fill="rgb(103,191,88)" stroke="rgb(82,152,70)" stroke-width="1" opacity="0.75" />
			</g>
			<g>
				<title>KR (PF08659)
"KR domain"</title>
				<rect class="PF08659" x="1367" y="28" stroke-linejoin="round" width="19" height="24" fill="rgb(66,209,188)" stroke="rgb(52,167,150)" stroke-width="1" opacity="0.75" />
			</g>
			<g>
				<title>AMP-binding (PF00501)
"AMP-binding enzyme"</title>
				<rect class="PF00501" x="1423" y="28" stroke-linejoin="round" width="44" height="24" fill="rgb(60,217,223)" stroke="rgb(48,173,178)" stroke-width="1" opacity="0.75" />
			</g>
		</g>
		<g>
			<title> (ctg34_51)</title>
			<polygon class=" (ctg34_51)" points="1491,40 1501,10 1501,70" fill="rgb(255,255,255)" fill-opacity="1.0" stroke="rgb(0,0,0)" stroke-width="2"  />
		</g>
		<g>
			<title> (ctg34_52)</title>
			<polygon class=" (ctg34_52)" points="1522,25 1564,25 1564,10 1594,40 1564,70 1564,55 1522,55" fill="rgb(255,255,255)" fill-opacity="1.0" stroke="rgb(0,0,0)" stroke-width="2"  />
			<g>
				<title>PP_kinase_N (PF13089)
"Polyphosphate kinase N-terminal domain"</title>
				<rect class="PF13089" x="1523" y="28" stroke-linejoin="round" width="10" height="24" fill="rgb(82,191,81)" stroke="rgb(65,152,64)" stroke-width="1" opacity="0.75" />
			</g>
			<g>
				<title>PP_kinase (PF02503)
"Polyphosphate kinase middle domain"</title>
				<rect class="PF02503" x="1535" y="28" stroke-linejoin="round" width="20" height="24" fill="rgb(119,190,62)" stroke="rgb(95,152,49)" stroke-width="1" opacity="0.75" />
			</g>
			<g>
				<title>PP_kinase_C_1 (PF17941)
"Polyphosphate kinase C-terminal domain 1"</title>
				<rect class="PF17941" x="1558" y="28" stroke-linejoin="round" width="16" height="24" fill="rgb(61,110,209)" stroke="rgb(48,87,167)" stroke-width="1" opacity="0.75" />
			</g>
			<g>
				<title>PP_kinase_C (PF13090)
"Polyphosphate kinase C-terminal domain 2"</title>
				<polygon class="PF13090" points="1575,28 1578,28 1590,40 1578,52 1575,52" stroke-linejoin="round" width="17" height="24" fill="rgb(90,162,200)" stroke="rgb(72,129,160)" stroke-width="1" opacity="0.75" />
			</g>
		</g>
		<g>
			<title> (ctg34_53)</title>
			<polygon class=" (ctg34_53)" points="1606,10 1610,40 1606,70" fill="rgb(255,255,255)" fill-opacity="1.0" stroke="rgb(0,0,0)" stroke-width="2"  />
		</g>
		<g>
			<title> (ctg34_54)</title>
			<polygon class=" (ctg34_54)" points="1610,10 1621,40 1610,70" fill="rgb(255,255,255)" fill-opacity="1.0" stroke="rgb(0,0,0)" stroke-width="2"  />
		</g>
		<g>
			<title> (ctg34_55)</title>
			<polygon class=" (ctg34_55)" points="1624,25 1643,25 1643,10 1673,40 1643,70 1643,55 1624,55" fill="rgb(255,255,255)" fill-opacity="1.0" stroke="rgb(0,0,0)" stroke-width="2"  />
			<g>
				<title>Metallophos (PF00149)
"Calcineurin-like phosphoesterase"</title>
				<rect class="PF00149" x="1625" y="28" stroke-linejoin="round" width="21" height="24" fill="rgb(181,197,58)" stroke="rgb(144,157,46)" stroke-width="1" opacity="0.75" />
			</g>
			<g>
				<title>5_nucleotid_C (PF02872)
"5'-nucleotidase, C-terminal domain"</title>
				<polygon class="PF02872" points="1653,28 1656,28 1668,40 1668,40 1656,52 1653,52" stroke-linejoin="round" width="15" height="24" fill="rgb(215,156,101)" stroke="rgb(172,124,80)" stroke-width="1" opacity="0.75" />
			</g>
		</g>
		<g>
			<title> (ctg34_56)</title>
			<polygon class=" (ctg34_56)" points="1677,10 1681,40 1677,70" fill="rgb(255,255,255)" fill-opacity="1.0" stroke="rgb(0,0,0)" stroke-width="2"  />
		</g>
		<g>
			<title> (ctg34_57)</title>
			<polygon class=" (ctg34_57)" points="1686,10 1690,40 1686,70" fill="rgb(255,255,255)" fill-opacity="1.0" stroke="rgb(0,0,0)" stroke-width="2"  />
		</g>
		<g>
			<title> (ctg34_58)</title>
			<polygon class=" (ctg34_58)" points="1692,40 1696,10 1696,70" fill="rgb(255,255,255)" fill-opacity="1.0" stroke="rgb(0,0,0)" stroke-width="2"  />
		</g>
		<g>
			<title> (ctg34_59)</title>
			<polygon class=" (ctg34_59)" points="1706,40 1710,10 1710,70" fill="rgb(255,255,255)" fill-opacity="1.0" stroke="rgb(0,0,0)" stroke-width="2"  />
		</g>
		<g>
			<title> (ctg34_60)</title>
			<polygon class=" (ctg34_60)" points="1714,40 1721,10 1721,70" fill="rgb(255,255,255)" fill-opacity="1.0" stroke="rgb(0,0,0)" stroke-width="2"  />
		</g>
		<g>
			<title> (ctg34_61)</title>
			<polygon class=" (ctg34_61)" points="1729,10 1736,40 1729,70" fill="rgb(255,255,255)" fill-opacity="1.0" stroke="rgb(0,0,0)" stroke-width="2"  />
		</g>
		<g>
			<title> (ctg34_62)</title>
			<polygon class=" (ctg34_62)" points="1737,10 1745,40 1737,70" fill="rgb(255,255,255)" fill-opacity="1.0" stroke="rgb(0,0,0)" stroke-width="2"  />
			<g>
				<title>ParE_toxin (PF05016)
"ParE toxin of type II toxin-antitoxin system, parDE"</title>
				<polygon class="PF05016" points="1737,28 1738,28 1742,40 1738,52 1737,52" stroke-linejoin="round" width="7" height="24" fill="rgb(110,226,73)" stroke="rgb(88,180,58)" stroke-width="1" opacity="0.75" />
			</g>
		</g>
		<g>
			<title> (ctg34_63)</title>
			<polygon class=" (ctg34_63)" points="1811,25 1837,25 1837,10 1867,40 1837,70 1837,55 1811,55" fill="rgb(255,255,255)" fill-opacity="1.0" stroke="rgb(0,0,0)" stroke-width="2"  />
			<g>
				<title>DUF3692 (PF12469)
"CRISPR-associated protein"</title>
				<rect class="PF12469" x="1811" y="28" stroke-linejoin="round" width="9" height="24" fill="rgb(229,87,144)" stroke="rgb(183,69,115)" stroke-width="1" opacity="0.75" />
			</g>
		</g>
		<g>
			<title> (ctg34_64)</title>
			<polygon class=" (ctg34_64)" points="1870,25 1873,25 1873,10 1903,40 1873,70 1873,55 1870,55" fill="rgb(255,255,255)" fill-opacity="1.0" stroke="rgb(0,0,0)" stroke-width="2"  />
		</g>
		<g>
			<title> (ctg34_65)</title>
			<polygon class=" (ctg34_65)" points="1903,10 1932,40 1903,70" fill="rgb(255,255,255)" fill-opacity="1.0" stroke="rgb(0,0,0)" stroke-width="2"  />
			<g>
				<title>RAMPs (PF03787)
"RAMP superfamily"</title>
				<polygon class="PF03787" points="1903,28 1916,28 1928,40 1916,52 1903,52" stroke-linejoin="round" width="27" height="24" fill="rgb(157,209,52)" stroke="rgb(125,167,41)" stroke-width="1" opacity="0.75" />
			</g>
		</g>
	</g>
</svg>
