<svg version="1.1" baseProfile="full" xmlns="http://www.w3.org/2000/svg" width="595.1333333333333" height="80">
	<g>
		<line x1="10" y1="40.0" x2="585.1333333333333" y2="40.0" style="stroke:rgb(70,70,70); stroke-width:3 "/>
		<g>
			<title> (ctg87_2)</title>
			<polygon class=" (ctg87_2)" points="38,10 57,40 38,70" fill="rgb(255,255,255)" fill-opacity="1.0" stroke="rgb(0,0,0)" stroke-width="2"  />
			<g>
				<title>Uma2 (PF05685)
"Putative restriction endonuclease"</title>
				<polygon class="PF05685" points="39,28 45,28 53,40 45,52 39,52" stroke-linejoin="round" width="16" height="24" fill="rgb(123,107,219)" stroke="rgb(98,85,175)" stroke-width="1" opacity="0.75" />
			</g>
		</g>
		<g>
			<title> (ctg87_3)</title>
			<polygon class=" (ctg87_3)" points="58,10 65,40 58,70" fill="rgb(255,255,255)" fill-opacity="1.0" stroke="rgb(0,0,0)" stroke-width="2"  />
		</g>
		<g>
			<title> (ctg87_4)</title>
			<polygon class=" (ctg87_4)" points="67,10 73,40 67,70" fill="rgb(255,255,255)" fill-opacity="1.0" stroke="rgb(0,0,0)" stroke-width="2"  />
		</g>
		<g>
			<title> (ctg87_5)</title>
			<polygon class=" (ctg87_5)" points="77,40 98,10 98,70" fill="rgb(255,255,255)" fill-opacity="1.0" stroke="rgb(0,0,0)" stroke-width="2"  />
		</g>
		<g>
			<title> (ctg87_6)</title>
			<polygon class=" (ctg87_6)" points="106,40 122,10 122,70" fill="rgb(255,255,255)" fill-opacity="1.0" stroke="rgb(0,0,0)" stroke-width="2"  />
		</g>
		<g>
			<title> (ctg87_7)</title>
			<polygon class=" (ctg87_7)" points="127,40 141,10 141,70" fill="rgb(255,255,255)" fill-opacity="1.0" stroke="rgb(0,0,0)" stroke-width="2"  />
			<g>
				<title>DUF29 (PF01724)
"Domain of unknown function DUF29"</title>
				<polygon class="PF01724" points="130,40 136,28 139,28 139,52 136,52" stroke-linejoin="round" width="11" height="24" fill="rgb(104,61,184)" stroke="rgb(83,48,147)" stroke-width="1" opacity="0.75" />
			</g>
		</g>
		<g>
			<title> (ctg87_8)</title>
			<polygon class=" (ctg87_8)" points="151,25 160,25 160,10 190,40 160,70 160,55 151,55" fill="rgb(255,255,255)" fill-opacity="1.0" stroke="rgb(0,0,0)" stroke-width="2"  />
		</g>
		<g>
			<title> (ctg87_9)</title>
			<polygon class=" (ctg87_9)" points="196,10 206,40 196,70" fill="rgb(255,255,255)" fill-opacity="1.0" stroke="rgb(0,0,0)" stroke-width="2"  />
			<g>
				<title>DUF433 (PF04255)
"Protein of unknown function (DUF433)"</title>
				<polygon class="PF04255" points="197,28 198,28 201,34 201,46 198,52 197,52" stroke-linejoin="round" width="4" height="24" fill="rgb(205,68,213)" stroke="rgb(164,54,170)" stroke-width="1" opacity="0.75" />
			</g>
		</g>
		<g>
			<title> (ctg87_10)</title>
			<polygon class=" (ctg87_10)" points="250,25 241,25 241,10 211,40 241,70 241,55 250,55" fill="rgb(255,255,255)" fill-opacity="1.0" stroke="rgb(0,0,0)" stroke-width="2"  />
			<g>
				<title>DUF111 (PF01969)
"Protein of unknown function DUF111"</title>
				<polygon class="PF01969" points="215,40 227,28 249,28 249,52 227,52" stroke-linejoin="round" width="37" height="24" fill="rgb(171,97,208)" stroke="rgb(136,77,166)" stroke-width="1" opacity="0.75" />
			</g>
		</g>
		<g>
			<title> (ctg87_11)</title>
			<polygon class=" (ctg87_11)" points="252,10 273,40 252,70" fill="rgb(255,255,255)" fill-opacity="1.0" stroke="rgb(0,0,0)" stroke-width="2"  />
			<g>
				<title>Sua5_yciO_yrdC (PF01300)
"Telomere recombination"</title>
				<polygon class="PF01300" points="254,28 261,28 269,40 261,52 254,52" stroke-linejoin="round" width="18" height="24" fill="rgb(183,139,65)" stroke="rgb(146,111,51)" stroke-width="1" opacity="0.75" />
			</g>
		</g>
		<g>
			<title> (ctg87_12)</title>
			<polygon class=" (ctg87_12)" points="282,10 295,40 282,70" fill="rgb(255,255,255)" fill-opacity="1.0" stroke="rgb(0,0,0)" stroke-width="2"  />
			<g>
				<title>HSP20 (PF00011)
"Hsp20/alpha crystallin family"</title>
				<polygon class="PF00011" points="285,28 286,28 292,40 286,52 285,52" stroke-linejoin="round" width="9" height="24" fill="rgb(148,223,75)" stroke="rgb(118,178,60)" stroke-width="1" opacity="0.75" />
			</g>
		</g>
		<g>
			<title> (ctg87_13)</title>
			<polygon class=" (ctg87_13)" points="298,40 318,10 318,70" fill="rgb(255,255,255)" fill-opacity="1.0" stroke="rgb(0,0,0)" stroke-width="2"  />
			<g>
				<title>Ribosom_S30AE_C (PF16321)
"Sigma 54 modulation/S30EA ribosomal protein C terminus"</title>
				<polygon class="PF16321" points="302,40 304,37 304,43" stroke-linejoin="round" width="5" height="24" fill="rgb(200,98,224)" stroke="rgb(160,78,179)" stroke-width="1" opacity="0.75" />
			</g>
			<g>
				<title>Ribosomal_S30AE (PF02482)
"Sigma 54 modulation protein / S30EA ribosomal protein"</title>
				<polygon class="PF02482" points="308,31 310,28 317,28 317,52 310,52 308,49" stroke-linejoin="round" width="9" height="24" fill="rgb(104,228,126)" stroke="rgb(83,182,100)" stroke-width="1" opacity="0.75" />
			</g>
		</g>
		<g>
			<title> (ctg87_14)</title>
			<polygon class=" (ctg87_14)" points="334,10 341,40 334,70" fill="rgb(255,255,255)" fill-opacity="1.0" stroke="rgb(0,0,0)" stroke-width="2"  />
		</g>
		<g>
			<title> (ctg87_15)</title>
			<polygon class=" (ctg87_15)" points="438,25 373,25 373,10 343,40 373,70 373,55 438,55" fill="rgb(255,255,255)" fill-opacity="1.0" stroke="rgb(0,0,0)" stroke-width="2"  />
			<g>
				<title>PatG_C (PF18065)
"PatG C-terminal"</title>
				<polygon class="PF18065" points="347,40 354,33 354,47" stroke-linejoin="round" width="11" height="24" fill="rgb(93,82,184)" stroke="rgb(74,65,147)" stroke-width="1" opacity="0.75" />
			</g>
			<g>
				<title>PatG_D (PF18047)
"PatG Domain"</title>
				<polygon class="PF18047" points="359,28 359,28 370,28 370,52 359,52 359,52" stroke-linejoin="round" width="11" height="24" fill="rgb(91,195,69)" stroke="rgb(72,156,55)" stroke-width="1" opacity="0.75" />
			</g>
			<g>
				<title>Pkinase (PF00069)
"Protein kinase domain"</title>
				<rect class="PF00069" x="377" y="28" stroke-linejoin="round" width="23" height="24" fill="rgb(104,187,65)" stroke="rgb(83,149,51)" stroke-width="1" opacity="0.75" />
			</g>
			<g>
				<title>Peptidase_S8 (PF00082)
"Subtilase family"</title>
				<rect class="PF00082" x="406" y="28" stroke-linejoin="round" width="29" height="24" fill="rgb(193,159,94)" stroke="rgb(154,127,75)" stroke-width="1" opacity="0.75" />
			</g>
		</g>
		<g>
			<title> (ctg87_16)</title>
			<polygon class=" (ctg87_16)" points="441,10 467,40 441,70" fill="rgb(255,255,255)" fill-opacity="1.0" stroke="rgb(0,0,0)" stroke-width="2"  />
			<g>
				<title>Uma2 (PF05685)
"Putative restriction endonuclease"</title>
				<polygon class="PF05685" points="444,28 453,28 462,39 462,41 453,52 444,52" stroke-linejoin="round" width="18" height="24" fill="rgb(123,107,219)" stroke="rgb(98,85,175)" stroke-width="1" opacity="0.75" />
			</g>
		</g>
		<g>
			<title> (ctg87_17)</title>
			<polygon class=" (ctg87_17)" points="468,40 475,10 475,70" fill="rgb(255,255,255)" fill-opacity="1.0" stroke="rgb(0,0,0)" stroke-width="2"  />
		</g>
		<g>
			<title> (ctg87_18)</title>
			<polygon class=" (ctg87_18)" points="477,40 485,10 485,70" fill="rgb(255,255,255)" fill-opacity="1.0" stroke="rgb(0,0,0)" stroke-width="2"  />
		</g>
		<g>
			<title> (ctg87_19)</title>
			<polygon class=" (ctg87_19)" points="552,25 518,25 518,10 488,40 518,70 518,55 552,55" fill="rgb(255,255,255)" fill-opacity="1.0" stroke="rgb(0,0,0)" stroke-width="2"  />
			<g>
				<title>PatG_C (PF18065)
"PatG C-terminal"</title>
				<polygon class="PF18065" points="492,40 499,33 499,47" stroke-linejoin="round" width="11" height="24" fill="rgb(93,82,184)" stroke="rgb(74,65,147)" stroke-width="1" opacity="0.75" />
			</g>
			<g>
				<title>PatG_D (PF18047)
"PatG Domain"</title>
				<polygon class="PF18047" points="504,28 504,28 515,28 515,52 504,52 504,52" stroke-linejoin="round" width="11" height="24" fill="rgb(91,195,69)" stroke="rgb(72,156,55)" stroke-width="1" opacity="0.75" />
			</g>
			<g>
				<title>Peptidase_S8 (PF00082)
"Subtilase family"</title>
				<rect class="PF00082" x="523" y="28" stroke-linejoin="round" width="27" height="24" fill="rgb(193,159,94)" stroke="rgb(154,127,75)" stroke-width="1" opacity="0.75" />
			</g>
		</g>
		<g>
			<title> (ctg87_20)</title>
			<polygon class=" (ctg87_20)" points="554,40 573,10 573,70" fill="rgb(255,255,255)" fill-opacity="1.0" stroke="rgb(0,0,0)" stroke-width="2"  />
			<g>
				<title>Uma2 (PF05685)
"Putative restriction endonuclease"</title>
				<polygon class="PF05685" points="558,40 566,28 571,28 571,52 566,52" stroke-linejoin="round" width="17" height="24" fill="rgb(123,107,219)" stroke="rgb(98,85,175)" stroke-width="1" opacity="0.75" />
			</g>
		</g>
		<g>
			<title> (ctg87_21)</title>
			<polygon class=" (ctg87_21)" points="574,40 584,10 584,70" fill="rgb(255,255,255)" fill-opacity="1.0" stroke="rgb(0,0,0)" stroke-width="2"  />
			<g>
				<title>DUF29 (PF01724)
"Domain of unknown function DUF29"</title>
				<polygon class="PF01724" points="577,40 581,28 584,28 584,52 581,52" stroke-linejoin="round" width="10" height="24" fill="rgb(104,61,184)" stroke="rgb(83,48,147)" stroke-width="1" opacity="0.75" />
			</g>
		</g>
	</g>
</svg>
