<svg version="1.1" baseProfile="full" xmlns="http://www.w3.org/2000/svg" width="667.3333333333334" height="80">
	<g>
		<line x1="10" y1="40.0" x2="657.3333333333334" y2="40.0" style="stroke:rgb(70,70,70); stroke-width:3 "/>
		<g>
			<title> (ctg67_1)</title>
			<polygon class=" (ctg67_1)" points="10,10 20,40 10,70" fill="rgb(255,255,255)" fill-opacity="1.0" stroke="rgb(0,0,0)" stroke-width="2"  />
			<g>
				<title>DUF4351 (PF14261)
"Domain of unknown function (DUF4351)"</title>
				<polygon class="PF14261" points="14,31 17,40 14,49" stroke-linejoin="round" width="5" height="24" fill="rgb(66,53,182)" stroke="rgb(52,42,145)" stroke-width="1" opacity="0.75" />
			</g>
		</g>
		<g>
			<title> (ctg67_2)</title>
			<polygon class=" (ctg67_2)" points="64,25 57,25 57,10 27,40 57,70 57,55 64,55" fill="rgb(255,255,255)" fill-opacity="1.0" stroke="rgb(0,0,0)" stroke-width="2"  />
			<g>
				<title>Aminotran_5 (PF00266)
"Aminotransferase class-V"</title>
				<polygon class="PF00266" points="31,40 43,28 63,28 63,52 43,52 31,40" stroke-linejoin="round" width="32" height="24" fill="rgb(214,54,122)" stroke="rgb(171,43,97)" stroke-width="1" opacity="0.75" />
			</g>
		</g>
		<g>
			<title> (ctg67_3)</title>
			<polygon class=" (ctg67_3)" points="76,40 105,10 105,70" fill="rgb(255,255,255)" fill-opacity="1.0" stroke="rgb(0,0,0)" stroke-width="2"  />
			<g>
				<title>IGPS (PF00218)
"Indole-3-glycerol phosphate synthase"</title>
				<polygon class="PF00218" points="80,40 92,28 101,28 101,52 92,52" stroke-linejoin="round" width="25" height="24" fill="rgb(183,89,153)" stroke="rgb(146,71,122)" stroke-width="1" opacity="0.75" />
			</g>
		</g>
		<g>
			<title> (ctg67_4)</title>
			<polygon class=" (ctg67_4)" points="110,40 117,10 117,70" fill="rgb(255,255,255)" fill-opacity="1.0" stroke="rgb(0,0,0)" stroke-width="2"  />
		</g>
		<g>
			<title> (ctg67_5)</title>
			<polygon class=" (ctg67_5)" points="131,10 149,40 131,70" fill="rgb(255,255,255)" fill-opacity="1.0" stroke="rgb(0,0,0)" stroke-width="2"  />
		</g>
		<g>
			<title> (ctg67_6)</title>
			<polygon class=" (ctg67_6)" points="149,10 158,40 149,70" fill="rgb(255,255,255)" fill-opacity="1.0" stroke="rgb(0,0,0)" stroke-width="2"  />
			<g>
				<title>DUF3288 (PF11691)
"Protein of unknown function (DUF3288)"</title>
				<polygon class="PF11691" points="149,28 151,28 155,40 151,52 149,52" stroke-linejoin="round" width="8" height="24" fill="rgb(101,212,216)" stroke="rgb(80,169,172)" stroke-width="1" opacity="0.75" />
			</g>
		</g>
		<g>
			<title> (ctg67_7)</title>
			<polygon class=" (ctg67_7)" points="190,25 190,25 190,10 160,40 190,70 190,55 190,55" fill="rgb(255,255,255)" fill-opacity="1.0" stroke="rgb(0,0,0)" stroke-width="2"  />
		</g>
		<g>
			<title> (ctg67_8)</title>
			<polygon class=" (ctg67_8)" points="232,25 232,25 232,10 202,40 232,70 232,55 232,55" fill="rgb(255,255,255)" fill-opacity="1.0" stroke="rgb(0,0,0)" stroke-width="2"  />
			<g>
				<title>Glycos_transf_1 (PF00534)
"Glycosyl transferases group 1"</title>
				<polygon class="PF00534" points="209,37 218,28 221,28 221,52 218,52 209,43" stroke-linejoin="round" width="12" height="24" fill="rgb(228,92,150)" stroke="rgb(182,73,119)" stroke-width="1" opacity="0.75" />
			</g>
		</g>
		<g>
			<title> (ctg67_9)</title>
			<polygon class=" (ctg67_9)" points="243,10 256,40 243,70" fill="rgb(255,255,255)" fill-opacity="1.0" stroke="rgb(0,0,0)" stroke-width="2"  />
		</g>
		<g>
			<title> (ctg67_10)</title>
			<polygon class=" (ctg67_10)" points="323,25 289,25 289,10 259,40 289,70 289,55 323,55" fill="rgb(255,255,255)" fill-opacity="1.0" stroke="rgb(0,0,0)" stroke-width="2"  />
			<g>
				<title>SQHop_cyclase_C (PF13243)
"Squalene-hopene cyclase C-terminal domain"</title>
				<polygon class="PF13243" points="263,40 275,28 291,28 291,52 275,52" stroke-linejoin="round" width="32" height="24" fill="rgb(191,58,201)" stroke="rgb(152,46,160)" stroke-width="1" opacity="0.75" />
			</g>
			<g>
				<title>SQHop_cyclase_N (PF13249)
"Squalene-hopene cyclase N-terminal domain"</title>
				<rect class="PF13249" x="292" y="28" stroke-linejoin="round" width="28" height="24" fill="rgb(88,190,89)" stroke="rgb(70,152,71)" stroke-width="1" opacity="0.75" />
			</g>
		</g>
		<g>
			<title> (ctg67_11)</title>
			<polygon class=" (ctg67_11)" points="335,40 352,10 352,70" fill="rgb(255,255,255)" fill-opacity="1.0" stroke="rgb(0,0,0)" stroke-width="2"  />
			<g>
				<title>EF_TS (PF00889)
"Elongation factor TS"</title>
				<polygon class="PF00889" points="340,37 345,28 350,28 350,52 345,52 340,43" stroke-linejoin="round" width="10" height="24" fill="rgb(69,212,85)" stroke="rgb(55,169,67)" stroke-width="1" opacity="0.75" />
			</g>
		</g>
		<g>
			<title> (ctg67_12)</title>
			<polygon class=" (ctg67_12)" points="353,10 363,40 353,70" fill="rgb(255,255,255)" fill-opacity="1.0" stroke="rgb(0,0,0)" stroke-width="2"  />
		</g>
		<g>
			<title> (ctg67_13)</title>
			<polygon class=" (ctg67_13)" points="364,40 391,10 391,70" fill="rgb(255,255,255)" fill-opacity="1.0" stroke="rgb(0,0,0)" stroke-width="2"  />
			<g>
				<title>Ribosomal_S2 (PF00318)
"Ribosomal protein S2"</title>
				<polygon class="PF00318" points="368,40 379,28 389,28 389,52 379,52 368,40" stroke-linejoin="round" width="21" height="24" fill="rgb(60,213,66)" stroke="rgb(48,170,52)" stroke-width="1" opacity="0.75" />
			</g>
		</g>
		<g>
			<title> (ctg67_14)</title>
			<polygon class=" (ctg67_14)" points="396,40 411,10 411,70" fill="rgb(255,255,255)" fill-opacity="1.0" stroke="rgb(0,0,0)" stroke-width="2"  />
			<g>
				<title>AhpC-TSA (PF00578)
"AhpC/TSA family"</title>
				<polygon class="PF00578" points="399,40 405,28 410,28 410,52 405,52" stroke-linejoin="round" width="12" height="24" fill="rgb(166,71,190)" stroke="rgb(132,56,152)" stroke-width="1" opacity="0.75" />
			</g>
		</g>
		<g>
			<title> (ctg67_15)</title>
			<polygon class=" (ctg67_15)" points="411,40 434,10 434,70" fill="rgb(255,255,255)" fill-opacity="1.0" stroke="rgb(0,0,0)" stroke-width="2"  />
			<g>
				<title>Peptidase_M48 (PF01435)
"Peptidase family M48"</title>
				<polygon class="PF01435" points="420,34 424,28 429,28 429,52 424,52 420,46" stroke-linejoin="round" width="9" height="24" fill="rgb(70,152,228)" stroke="rgb(56,121,182)" stroke-width="1" opacity="0.75" />
			</g>
		</g>
		<g>
			<title> (ctg67_16)</title>
			<polygon class=" (ctg67_16)" points="439,40 455,10 455,70" fill="rgb(255,255,255)" fill-opacity="1.0" stroke="rgb(0,0,0)" stroke-width="2"  />
			<g>
				<title>Penicillinase_R (PF03965)
"Penicillinase repressor"</title>
				<polygon class="PF03965" points="442,40 449,28 450,28 450,52 449,52" stroke-linejoin="round" width="11" height="24" fill="rgb(208,59,133)" stroke="rgb(166,47,106)" stroke-width="1" opacity="0.75" />
			</g>
		</g>
		<g>
			<title> (ctg67_17)</title>
			<polygon class=" (ctg67_17)" points="456,10 466,40 456,70" fill="rgb(255,255,255)" fill-opacity="1.0" stroke="rgb(0,0,0)" stroke-width="2"  />
			<g>
				<title>DUF4090 (PF13319)
"Protein of unknown function (DUF4090)"</title>
				<polygon class="PF13319" points="457,28 458,28 462,40 458,52 457,52" stroke-linejoin="round" width="8" height="24" fill="rgb(89,117,182)" stroke="rgb(71,93,145)" stroke-width="1" opacity="0.75" />
			</g>
		</g>
		<g>
			<title> (ctg67_18)</title>
			<polygon class=" (ctg67_18)" points="488,25 496,25 496,10 526,40 496,70 496,55 488,55" fill="rgb(255,255,255)" fill-opacity="1.0" stroke="rgb(0,0,0)" stroke-width="2"  />
			<g>
				<title>NTP_transferase (PF00483)
"Nucleotidyl transferase"</title>
				<polygon class="PF00483" points="488,28 510,28 512,30 512,50 510,52 488,52" stroke-linejoin="round" width="24" height="24" fill="rgb(198,101,87)" stroke="rgb(158,80,69)" stroke-width="1" opacity="0.75" />
			</g>
		</g>
		<g>
			<title> (ctg67_19)</title>
			<polygon class=" (ctg67_19)" points="530,25 541,25 541,10 571,40 541,70 541,55 530,55" fill="rgb(255,255,255)" fill-opacity="1.0" stroke="rgb(0,0,0)" stroke-width="2"  />
		</g>
		<g>
			<title> (ctg67_20)</title>
			<polygon class=" (ctg67_20)" points="634,25 602,25 602,10 572,40 602,70 602,55 634,55" fill="rgb(255,255,255)" fill-opacity="1.0" stroke="rgb(0,0,0)" stroke-width="2"  />
			<g>
				<title>Toprim_2 (PF13155)
"Toprim-like"</title>
				<rect class="PF13155" x="598" y="28" stroke-linejoin="round" width="9" height="24" fill="rgb(98,107,198)" stroke="rgb(78,85,158)" stroke-width="1" opacity="0.75" />
			</g>
			<g>
				<title>Toprim_N (PF08275)
"DNA primase catalytic core, N-terminal domain"</title>
				<rect class="PF08275" x="608" y="28" stroke-linejoin="round" width="12" height="24" fill="rgb(118,218,88)" stroke="rgb(94,174,70)" stroke-width="1" opacity="0.75" />
			</g>
			<g>
				<title>zf-CHC2 (PF01807)
"CHC2 zinc finger"</title>
				<rect class="PF01807" x="624" y="28" stroke-linejoin="round" width="9" height="24" fill="rgb(76,201,77)" stroke="rgb(60,160,61)" stroke-width="1" opacity="0.75" />
			</g>
		</g>
		<g>
			<title> (ctg67_21)</title>
			<polygon class=" (ctg67_21)" points="637,40 644,10 644,70" fill="rgb(255,255,255)" fill-opacity="1.0" stroke="rgb(0,0,0)" stroke-width="2"  />
		</g>
	</g>
</svg>
