<svg version="1.1" baseProfile="full" xmlns="http://www.w3.org/2000/svg" width="489.7" height="80">
	<g>
		<line x1="10" y1="40.0" x2="479.7" y2="40.0" style="stroke:rgb(70,70,70); stroke-width:3 "/>
		<g>
			<title> (ctg335_1)</title>
			<polygon class=" (ctg335_1)" points="13,10 27,40 13,70" fill="rgb(255,255,255)" fill-opacity="1.0" stroke="rgb(0,0,0)" stroke-width="2"  />
			<g>
				<title>PatG_C (PF18065)
"PatG C-terminal"</title>
				<polygon class="PF18065" points="15,28 18,28 23,40 18,52 15,52" stroke-linejoin="round" width="11" height="24" fill="rgb(93,82,184)" stroke="rgb(74,65,147)" stroke-width="1" opacity="0.75" />
			</g>
		</g>
		<g>
			<title> (ctg335_2)</title>
			<polygon class=" (ctg335_2)" points="32,10 39,40 32,70" fill="rgb(255,255,255)" fill-opacity="1.0" stroke="rgb(0,0,0)" stroke-width="2"  />
		</g>
		<g>
			<title> (ctg335_3)</title>
			<polygon class=" (ctg335_3)" points="40,10 47,40 40,70" fill="rgb(255,255,255)" fill-opacity="1.0" stroke="rgb(0,0,0)" stroke-width="2"  />
		</g>
		<g>
			<title> (ctg335_4)</title>
			<polygon class=" (ctg335_4)" points="48,40 74,10 74,70" fill="rgb(255,255,255)" fill-opacity="1.0" stroke="rgb(0,0,0)" stroke-width="2"  />
			<g>
				<title>Uma2 (PF05685)
"Putative restriction endonuclease"</title>
				<polygon class="PF05685" points="53,39 63,28 71,28 71,52 63,52 53,41" stroke-linejoin="round" width="18" height="24" fill="rgb(123,107,219)" stroke="rgb(98,85,175)" stroke-width="1" opacity="0.75" />
			</g>
		</g>
		<g>
			<title> (ctg335_5)</title>
			<polygon class=" (ctg335_5)" points="77,25 116,25 116,10 146,40 116,70 116,55 77,55" fill="rgb(255,255,255)" fill-opacity="1.0" stroke="rgb(0,0,0)" stroke-width="2"  />
			<g>
				<title>Peptidase_S8 (PF00082)
"Subtilase family"</title>
				<rect class="PF00082" x="79" y="28" stroke-linejoin="round" width="32" height="24" fill="rgb(193,159,94)" stroke="rgb(154,127,75)" stroke-width="1" opacity="0.75" />
			</g>
			<g>
				<title>PatG_D (PF18047)
"PatG Domain"</title>
				<rect class="PF18047" x="118" y="28" stroke-linejoin="round" width="11" height="24" fill="rgb(91,195,69)" stroke="rgb(72,156,55)" stroke-width="1" opacity="0.75" />
			</g>
			<g>
				<title>PatG_C (PF18065)
"PatG C-terminal"</title>
				<polygon class="PF18065" points="134,33 141,40 134,47" stroke-linejoin="round" width="11" height="24" fill="rgb(93,82,184)" stroke="rgb(74,65,147)" stroke-width="1" opacity="0.75" />
			</g>
		</g>
		<g>
			<title> (ctg335_6)</title>
			<polygon class=" (ctg335_6)" points="174,10 194,40 174,70" fill="rgb(255,255,255)" fill-opacity="1.0" stroke="rgb(0,0,0)" stroke-width="2"  />
			<g>
				<title>Ribosomal_S30AE (PF02482)
"Sigma 54 modulation protein / S30EA ribosomal protein"</title>
				<polygon class="PF02482" points="174,28 182,28 183,29 183,51 182,52 174,52" stroke-linejoin="round" width="9" height="24" fill="rgb(104,228,126)" stroke="rgb(83,182,100)" stroke-width="1" opacity="0.75" />
			</g>
			<g>
				<title>Ribosom_S30AE_C (PF16321)
"Sigma 54 modulation/S30EA ribosomal protein C terminus"</title>
				<polygon class="PF16321" points="186,34 190,40 186,46" stroke-linejoin="round" width="5" height="24" fill="rgb(200,98,224)" stroke="rgb(160,78,179)" stroke-width="1" opacity="0.75" />
			</g>
		</g>
		<g>
			<title> (ctg335_7)</title>
			<polygon class=" (ctg335_7)" points="196,40 209,10 209,70" fill="rgb(255,255,255)" fill-opacity="1.0" stroke="rgb(0,0,0)" stroke-width="2"  />
			<g>
				<title>HSP20 (PF00011)
"Hsp20/alpha crystallin family"</title>
				<polygon class="PF00011" points="199,40 204,28 205,28 205,52 204,52" stroke-linejoin="round" width="9" height="24" fill="rgb(148,223,75)" stroke="rgb(118,178,60)" stroke-width="1" opacity="0.75" />
			</g>
		</g>
		<g>
			<title> (ctg335_8)</title>
			<polygon class=" (ctg335_8)" points="221,40 242,10 242,70" fill="rgb(255,255,255)" fill-opacity="1.0" stroke="rgb(0,0,0)" stroke-width="2"  />
			<g>
				<title>Sua5_yciO_yrdC (PF01300)
"Telomere recombination"</title>
				<polygon class="PF01300" points="225,40 234,28 240,28 240,52 234,52" stroke-linejoin="round" width="18" height="24" fill="rgb(183,139,65)" stroke="rgb(146,111,51)" stroke-width="1" opacity="0.75" />
			</g>
		</g>
		<g>
			<title> (ctg335_9)</title>
			<polygon class=" (ctg335_9)" points="244,25 253,25 253,10 283,40 253,70 253,55 244,55" fill="rgb(255,255,255)" fill-opacity="1.0" stroke="rgb(0,0,0)" stroke-width="2"  />
			<g>
				<title>DUF111 (PF01969)
"Protein of unknown function DUF111"</title>
				<polygon class="PF01969" points="244,28 267,28 279,40 267,52 244,52" stroke-linejoin="round" width="37" height="24" fill="rgb(171,97,208)" stroke="rgb(136,77,166)" stroke-width="1" opacity="0.75" />
			</g>
		</g>
		<g>
			<title> (ctg335_10)</title>
			<polygon class=" (ctg335_10)" points="288,40 303,10 303,70" fill="rgb(255,255,255)" fill-opacity="1.0" stroke="rgb(0,0,0)" stroke-width="2"  />
			<g>
				<title>DUF29 (PF01724)
"Domain of unknown function DUF29"</title>
				<polygon class="PF01724" points="291,40 297,28 301,28 301,52 297,52" stroke-linejoin="round" width="13" height="24" fill="rgb(104,61,184)" stroke="rgb(83,48,147)" stroke-width="1" opacity="0.75" />
			</g>
		</g>
		<g>
			<title> (ctg335_11)</title>
			<polygon class=" (ctg335_11)" points="319,25 326,25 326,10 356,40 326,70 326,55 319,55" fill="rgb(255,255,255)" fill-opacity="1.0" stroke="rgb(0,0,0)" stroke-width="2"  />
			<g>
				<title>DUF262 (PF03235)
"Protein of unknown function DUF262"</title>
				<rect class="PF03235" x="323" y="28" stroke-linejoin="round" width="15" height="24" fill="rgb(101,154,211)" stroke="rgb(80,123,168)" stroke-width="1" opacity="0.75" />
			</g>
		</g>
		<g>
			<title> (ctg335_12)</title>
			<polygon class=" (ctg335_12)" points="356,10 372,40 356,70" fill="rgb(255,255,255)" fill-opacity="1.0" stroke="rgb(0,0,0)" stroke-width="2"  />
			<g>
				<title>HEPN_RiboL-PSP (PF18735)
"RiboL-PSP-HEPN"</title>
				<polygon class="PF18735" points="356,28 362,28 369,40 362,52 356,52" stroke-linejoin="round" width="15" height="24" fill="rgb(213,143,98)" stroke="rgb(170,114,78)" stroke-width="1" opacity="0.75" />
			</g>
		</g>
		<g>
			<title> (ctg335_13)</title>
			<polygon class=" (ctg335_13)" points="377,10 390,40 377,70" fill="rgb(255,255,255)" fill-opacity="1.0" stroke="rgb(0,0,0)" stroke-width="2"  />
			<g>
				<title>Ribonuc_L-PSP (PF01042)
"Endoribonuclease L-PSP"</title>
				<polygon class="PF01042" points="378,28 381,28 387,40 381,52 378,52" stroke-linejoin="round" width="12" height="24" fill="rgb(93,120,208)" stroke="rgb(74,96,166)" stroke-width="1" opacity="0.75" />
			</g>
		</g>
		<g>
			<title> (ctg335_14)</title>
			<polygon class=" (ctg335_14)" points="454,25 422,25 422,10 392,40 422,70 422,55 454,55" fill="rgb(255,255,255)" fill-opacity="1.0" stroke="rgb(0,0,0)" stroke-width="2"  />
			<g>
				<title>RNA_pol_Rpb1_3 (PF04983)
"RNA polymerase Rpb1, domain 3"</title>
				<polygon class="PF04983" points="396,40 404,32 404,48" stroke-linejoin="round" width="12" height="24" fill="rgb(151,80,202)" stroke="rgb(120,64,161)" stroke-width="1" opacity="0.75" />
			</g>
			<g>
				<title>RNA_pol_Rpb1_2 (PF00623)
"RNA polymerase Rpb1, domain 2"</title>
				<polygon class="PF00623" points="405,31 408,28 414,28 414,52 408,52 405,49" stroke-linejoin="round" width="9" height="24" fill="rgb(166,226,92)" stroke="rgb(132,180,73)" stroke-width="1" opacity="0.75" />
			</g>
			<g>
				<title>RNA_pol_Rpb1_1 (PF04997)
"RNA polymerase Rpb1, domain 1"</title>
				<rect class="PF04997" x="419" y="28" stroke-linejoin="round" width="34" height="24" fill="rgb(76,225,92)" stroke="rgb(60,180,73)" stroke-width="1" opacity="0.75" />
			</g>
		</g>
	</g>
</svg>
