<svg version="1.1" baseProfile="full" xmlns="http://www.w3.org/2000/svg" width="1004.0666666666667" height="80">
	<g>
		<line x1="10" y1="40.0" x2="994.0666666666667" y2="40.0" style="stroke:rgb(70,70,70); stroke-width:3 "/>
		<g>
			<title> (ctg2_1)</title>
			<polygon class=" (ctg2_1)" points="10,10 23,40 10,70" fill="rgb(255,255,255)" fill-opacity="1.0" stroke="rgb(0,0,0)" stroke-width="2"  />
			<g>
				<title>OrfB_IS605 (PF01385)
"Probable transposase"</title>
				<rect class="PF01385" x="10" y="28" stroke-linejoin="round" width="4" height="24" fill="rgb(95,115,208)" stroke="rgb(76,92,166)" stroke-width="1" opacity="0.75" />
			</g>
			<g>
				<title>OrfB_Zn_ribbon (PF07282)
"Putative transposase DNA-binding domain"</title>
				<polygon class="PF07282" points="15,29 20,40 15,51" stroke-linejoin="round" width="7" height="24" fill="rgb(188,84,136)" stroke="rgb(150,67,108)" stroke-width="1" opacity="0.75" />
			</g>
		</g>
		<g>
			<title> (ctg2_2)</title>
			<polygon class=" (ctg2_2)" points="129,25 77,25 77,10 47,40 77,70 77,55 129,55" fill="rgb(255,255,255)" fill-opacity="1.0" stroke="rgb(0,0,0)" stroke-width="2"  />
			<g>
				<title>PS-DH (PF14765)
"Polyketide synthase dehydratase"</title>
				<polygon class="PF14765" points="51,40 63,28 76,28 76,52 63,52" stroke-linejoin="round" width="28" height="24" fill="rgb(173,56,182)" stroke="rgb(138,44,145)" stroke-width="1" opacity="0.75" />
			</g>
			<g>
				<title>KR (PF08659)
"KR domain"</title>
				<rect class="PF08659" x="83" y="28" stroke-linejoin="round" width="22" height="24" fill="rgb(66,209,188)" stroke="rgb(52,167,150)" stroke-width="1" opacity="0.75" />
			</g>
		</g>
		<g>
			<title> (ctg2_3)</title>
			<polygon class=" (ctg2_3)" points="327,25 160,25 160,10 130,40 160,70 160,55 327,55" fill="rgb(255,255,255)" fill-opacity="1.0" stroke="rgb(0,0,0)" stroke-width="2"  />
			<g>
				<title>PP-binding (PF00550)
"Phosphopantetheine attachment site"</title>
				<polygon class="PF00550" points="134,40 139,35 139,45" stroke-linejoin="round" width="7" height="24" fill="rgb(103,191,88)" stroke="rgb(82,152,70)" stroke-width="1" opacity="0.75" />
			</g>
			<g>
				<title>Acyl_transf_1 (PF00698)
"Acyl transferase domain"</title>
				<rect class="PF00698" x="170" y="28" stroke-linejoin="round" width="30" height="24" fill="rgb(59,176,209)" stroke="rgb(47,140,167)" stroke-width="1" opacity="0.75" />
			</g>
			<g>
				<title>Ketoacyl-synt_C (PF02801)
"Beta-ketoacyl synthase, C-terminal domain"</title>
				<rect class="PF02801" x="218" y="28" stroke-linejoin="round" width="11" height="24" fill="rgb(215,78,102)" stroke="rgb(172,62,81)" stroke-width="1" opacity="0.75" />
			</g>
			<g>
				<title>ketoacyl-synt (PF00109)
"Beta-ketoacyl synthase, N-terminal domain"</title>
				<rect class="PF00109" x="230" y="28" stroke-linejoin="round" width="26" height="24" fill="rgb(112,116,228)" stroke="rgb(89,92,182)" stroke-width="1" opacity="0.75" />
			</g>
			<g>
				<title>NMO (PF03060)
"Nitronate monooxygenase"</title>
				<rect class="PF03060" x="259" y="28" stroke-linejoin="round" width="34" height="24" fill="rgb(100,193,226)" stroke="rgb(80,154,180)" stroke-width="1" opacity="0.75" />
			</g>
		</g>
		<g>
			<title> (ctg2_4)</title>
			<polygon class=" (ctg2_4)" points="359,25 358,25 358,10 328,40 358,70 358,55 359,55" fill="rgb(255,255,255)" fill-opacity="1.0" stroke="rgb(0,0,0)" stroke-width="2"  />
			<g>
				<title>CobW_C (PF07683)
"Cobalamin synthesis protein cobW C-terminal domain"</title>
				<polygon class="PF07683" points="332,40 337,35 337,45" stroke-linejoin="round" width="9" height="24" fill="rgb(172,98,218)" stroke="rgb(137,78,174)" stroke-width="1" opacity="0.75" />
			</g>
			<g>
				<title>cobW (PF02492)
"CobW/HypB/UreG, nucleotide-binding domain"</title>
				<polygon class="PF02492" points="341,31 344,28 358,28 358,52 344,52 341,49" stroke-linejoin="round" width="17" height="24" fill="rgb(79,112,178)" stroke="rgb(63,89,142)" stroke-width="1" opacity="0.75" />
			</g>
		</g>
		<g>
			<title> (ctg2_5)</title>
			<polygon class=" (ctg2_5)" points="362,40 391,10 391,70" fill="rgb(255,255,255)" fill-opacity="1.0" stroke="rgb(0,0,0)" stroke-width="2"  />
			<g>
				<title>Methyltransf_31 (PF13847)
"Methyltransferase domain"</title>
				<polygon class="PF13847" points="371,35 378,28 388,28 388,52 378,52 371,45" stroke-linejoin="round" width="17" height="24" fill="rgb(214,74,181)" stroke="rgb(171,59,144)" stroke-width="1" opacity="0.75" />
			</g>
		</g>
		<g>
			<title> (ctg2_6)</title>
			<polygon class=" (ctg2_6)" points="392,40 415,10 415,70" fill="rgb(255,255,255)" fill-opacity="1.0" stroke="rgb(0,0,0)" stroke-width="2"  />
			<g>
				<title>Sulfatase (PF00884)
"Sulfatase"</title>
				<polygon class="PF00884" points="396,40 405,28 410,28 410,52 405,52" stroke-linejoin="round" width="18" height="24" fill="rgb(61,103,198)" stroke="rgb(48,82,158)" stroke-width="1" opacity="0.75" />
			</g>
		</g>
		<g>
			<title> (ctg2_7)</title>
			<polygon class=" (ctg2_7)" points="415,40 418,10 418,70" fill="rgb(255,255,255)" fill-opacity="1.0" stroke="rgb(0,0,0)" stroke-width="2"  />
		</g>
		<g>
			<title> (ctg2_8)</title>
			<polygon class=" (ctg2_8)" points="430,25 431,25 431,10 461,40 431,70 431,55 430,55" fill="rgb(255,255,255)" fill-opacity="1.0" stroke="rgb(0,0,0)" stroke-width="2"  />
			<g>
				<title>TPR_16 (PF13432)
"Tetratricopeptide repeat"</title>
				<rect class="PF13432" x="432" y="28" stroke-linejoin="round" width="6" height="24" fill="rgb(154,205,86)" stroke="rgb(123,164,68)" stroke-width="1" opacity="0.75" />
			</g>
			<g>
				<title>TPR_11 (PF13414)
"TPR repeat"</title>
				<rect class="PF13414" x="439" y="28" stroke-linejoin="round" width="4" height="24" fill="rgb(55,76,182)" stroke="rgb(44,60,145)" stroke-width="1" opacity="0.75" />
			</g>
			<g>
				<title>TPR_19 (PF14559)
"Tetratricopeptide repeat"</title>
				<polygon class="PF14559" points="449,33 455,39 455,41 449,47" stroke-linejoin="round" width="6" height="24" fill="rgb(182,60,145)" stroke="rgb(145,48,115)" stroke-width="1" opacity="0.75" />
			</g>
		</g>
		<g>
			<title> (ctg2_9)</title>
			<polygon class=" (ctg2_9)" points="465,10 492,40 465,70" fill="rgb(255,255,255)" fill-opacity="1.0" stroke="rgb(0,0,0)" stroke-width="2"  />
		</g>
		<g>
			<title> (ctg2_10)</title>
			<polygon class=" (ctg2_10)" points="496,25 502,25 502,10 532,40 502,70 502,55 496,55" fill="rgb(255,255,255)" fill-opacity="1.0" stroke="rgb(0,0,0)" stroke-width="2"  />
			<g>
				<title>Rieske (PF00355)
"Rieske [2Fe-2S] domain"</title>
				<rect class="PF00355" x="498" y="28" stroke-linejoin="round" width="9" height="24" fill="rgb(186,77,145)" stroke="rgb(148,61,115)" stroke-width="1" opacity="0.75" />
			</g>
			<g>
				<title>Ring_hydroxyl_A (PF00848)
"Ring hydroxylating alpha subunit (catalytic domain)"</title>
				<polygon class="PF00848" points="510,28 516,28 528,40 516,52 510,52" stroke-linejoin="round" width="21" height="24" fill="rgb(76,134,184)" stroke="rgb(60,107,147)" stroke-width="1" opacity="0.75" />
			</g>
		</g>
		<g>
			<title> (ctg2_11)</title>
			<polygon class=" (ctg2_11)" points="597,25 570,25 570,10 540,40 570,70 570,55 597,55" fill="rgb(255,255,255)" fill-opacity="1.0" stroke="rgb(0,0,0)" stroke-width="2"  />
			<g>
				<title>Amidohydro_1 (PF01979)
"Amidohydrolase family"</title>
				<polygon class="PF01979" points="551,33 556,28 584,28 584,52 556,52 551,47" stroke-linejoin="round" width="33" height="24" fill="rgb(210,93,184)" stroke="rgb(168,74,147)" stroke-width="1" opacity="0.75" />
			</g>
			<g>
				<title>Urease_alpha (PF00449)
"Urease alpha-subunit, N-terminal domain"</title>
				<rect class="PF00449" x="584" y="28" stroke-linejoin="round" width="11" height="24" fill="rgb(76,190,108)" stroke="rgb(60,152,86)" stroke-width="1" opacity="0.75" />
			</g>
		</g>
		<g>
			<title> (ctg2_12)</title>
			<polygon class=" (ctg2_12)" points="600,40 629,10 629,70" fill="rgb(255,255,255)" fill-opacity="1.0" stroke="rgb(0,0,0)" stroke-width="2"  />
			<g>
				<title>PPK2 (PF03976)
"Polyphosphate kinase 2 (PPK2)"</title>
				<polygon class="PF03976" points="604,40 616,28 626,28 626,52 616,52" stroke-linejoin="round" width="24" height="24" fill="rgb(57,123,215)" stroke="rgb(45,98,172)" stroke-width="1" opacity="0.75" />
			</g>
		</g>
		<g>
			<title> (ctg2_13)</title>
			<polygon class=" (ctg2_13)" points="636,40 647,10 647,70" fill="rgb(255,255,255)" fill-opacity="1.0" stroke="rgb(0,0,0)" stroke-width="2"  />
			<g>
				<title>XisI (PF08869)
"XisI protein"</title>
				<polygon class="PF08869" points="639,40 644,28 647,28 647,52 644,52" stroke-linejoin="round" width="11" height="24" fill="rgb(139,215,88)" stroke="rgb(111,172,70)" stroke-width="1" opacity="0.75" />
			</g>
		</g>
		<g>
			<title> (ctg2_14)</title>
			<polygon class=" (ctg2_14)" points="684,25 682,25 682,10 652,40 682,70 682,55 684,55" fill="rgb(255,255,255)" fill-opacity="1.0" stroke="rgb(0,0,0)" stroke-width="2"  />
		</g>
		<g>
			<title> (ctg2_15)</title>
			<polygon class=" (ctg2_15)" points="689,40 697,10 697,70" fill="rgb(255,255,255)" fill-opacity="1.0" stroke="rgb(0,0,0)" stroke-width="2"  />
		</g>
		<g>
			<title> (ctg2_16)</title>
			<polygon class=" (ctg2_16)" points="696,40 705,10 705,70" fill="rgb(255,255,255)" fill-opacity="1.0" stroke="rgb(0,0,0)" stroke-width="2"  />
			<g>
				<title>BrnT_toxin (PF04365)
"Ribonuclease toxin, BrnT, of type II toxin-antitoxin system"</title>
				<polygon class="PF04365" points="699,40 703,28 704,28 704,52 703,52" stroke-linejoin="round" width="7" height="24" fill="rgb(81,152,189)" stroke="rgb(64,121,151)" stroke-width="1" opacity="0.75" />
			</g>
		</g>
		<g>
			<title> (ctg2_17)</title>
			<polygon class=" (ctg2_17)" points="798,25 741,25 741,10 711,40 741,70 741,55 798,55" fill="rgb(255,255,255)" fill-opacity="1.0" stroke="rgb(0,0,0)" stroke-width="2"  />
			<g>
				<title>Aconitase (PF00330)
"Aconitase family (aconitate hydratase)"</title>
				<polygon class="PF00330" points="717,38 727,28 758,28 758,52 727,52 717,42" stroke-linejoin="round" width="41" height="24" fill="rgb(180,189,85)" stroke="rgb(144,151,68)" stroke-width="1" opacity="0.75" />
			</g>
			<g>
				<title>Aconitase_2_N (PF06434)
"Aconitate hydratase 2 N-terminus"</title>
				<rect class="PF06434" x="760" y="28" stroke-linejoin="round" width="20" height="24" fill="rgb(99,199,218)" stroke="rgb(79,159,174)" stroke-width="1" opacity="0.75" />
			</g>
			<g>
				<title>Aconitase_B_N (PF11791)
"Aconitate B N-terminal domain"</title>
				<rect class="PF11791" x="782" y="28" stroke-linejoin="round" width="15" height="24" fill="rgb(92,160,188)" stroke="rgb(73,128,150)" stroke-width="1" opacity="0.75" />
			</g>
		</g>
		<g>
			<title> (ctg2_18)</title>
			<polygon class=" (ctg2_18)" points="803,10 825,40 803,70" fill="rgb(255,255,255)" fill-opacity="1.0" stroke="rgb(0,0,0)" stroke-width="2"  />
			<g>
				<title>DeoC (PF01791)
"DeoC/LacD family aldolase"</title>
				<polygon class="PF01791" points="804,28 813,28 821,40 813,52 804,52" stroke-linejoin="round" width="20" height="24" fill="rgb(151,59,198)" stroke="rgb(120,47,158)" stroke-width="1" opacity="0.75" />
			</g>
		</g>
		<g>
			<title> (ctg2_19)</title>
			<polygon class=" (ctg2_19)" points="824,40 833,10 833,70" fill="rgb(255,255,255)" fill-opacity="1.0" stroke="rgb(0,0,0)" stroke-width="2"  />
		</g>
		<g>
			<title> (ctg2_20)</title>
			<polygon class=" (ctg2_20)" points="834,10 858,40 834,70" fill="rgb(255,255,255)" fill-opacity="1.0" stroke="rgb(0,0,0)" stroke-width="2"  />
			<g>
				<title>HAD_2 (PF13419)
"Haloacid dehalogenase-like hydrolase"</title>
				<polygon class="PF13419" points="835,28 845,28 854,39 854,41 845,52 835,52" stroke-linejoin="round" width="19" height="24" fill="rgb(60,223,188)" stroke="rgb(48,178,150)" stroke-width="1" opacity="0.75" />
			</g>
		</g>
		<g>
			<title> (ctg2_21)</title>
			<polygon class=" (ctg2_21)" points="865,10 886,40 865,70" fill="rgb(255,255,255)" fill-opacity="1.0" stroke="rgb(0,0,0)" stroke-width="2"  />
			<g>
				<title>HisG (PF01634)
"ATP phosphoribosyltransferase"</title>
				<polygon class="PF01634" points="870,28 874,28 882,40 874,52 870,52" stroke-linejoin="round" width="15" height="24" fill="rgb(212,55,174)" stroke="rgb(169,44,139)" stroke-width="1" opacity="0.75" />
			</g>
		</g>
		<g>
			<title> (ctg2_22)</title>
			<polygon class=" (ctg2_22)" points="934,25 926,25 926,10 896,40 926,70 926,55 934,55" fill="rgb(255,255,255)" fill-opacity="1.0" stroke="rgb(0,0,0)" stroke-width="2"  />
			<g>
				<title>Chromate_transp (PF02417)
"Chromate transporter"</title>
				<polygon class="PF02417" points="900,40 912,28 913,28 913,52 912,52" stroke-linejoin="round" width="17" height="24" fill="rgb(216,70,196)" stroke="rgb(172,56,156)" stroke-width="1" opacity="0.75" />
			</g>
			<g>
				<title>Chromate_transp (PF02417)
"Chromate transporter"</title>
				<rect class="PF02417" x="917" y="28" stroke-linejoin="round" width="16" height="24" fill="rgb(216,70,196)" stroke="rgb(172,56,156)" stroke-width="1" opacity="0.75" />
			</g>
		</g>
		<g>
			<title> (ctg2_23)</title>
			<polygon class=" (ctg2_23)" points="947,25 954,25 954,10 984,40 954,70 954,55 947,55" fill="rgb(255,255,255)" fill-opacity="1.0" stroke="rgb(0,0,0)" stroke-width="2"  />
			<g>
				<title>DUF4915 (PF16261)
"Domain of unknown function (DUF4915)"</title>
				<polygon class="PF16261" points="950,28 967,28 979,40 967,52 950,52" stroke-linejoin="round" width="31" height="24" fill="rgb(150,82,179)" stroke="rgb(120,65,143)" stroke-width="1" opacity="0.75" />
			</g>
		</g>
		<g>
			<title> (ctg2_24)</title>
			<polygon class=" (ctg2_24)" points="987,10 993,40 987,70" fill="rgb(255,255,255)" fill-opacity="1.0" stroke="rgb(0,0,0)" stroke-width="2"  />
		</g>
	</g>
</svg>
