<svg version="1.1" baseProfile="full" xmlns="http://www.w3.org/2000/svg" width="342.93333333333334" height="80">
	<g>
		<line x1="10" y1="40.0" x2="332.93333333333334" y2="40.0" style="stroke:rgb(70,70,70); stroke-width:3 "/>
		<g>
			<title> (ctg109_1)</title>
			<polygon class=" (ctg109_1)" points="10,40 14,10 14,70" fill="rgb(255,255,255)" fill-opacity="1.0" stroke="rgb(0,0,0)" stroke-width="2"  />
		</g>
		<g>
			<title> (ctg109_2)</title>
			<polygon class=" (ctg109_2)" points="27,10 52,40 27,70" fill="rgb(255,255,255)" fill-opacity="1.0" stroke="rgb(0,0,0)" stroke-width="2"  />
			<g>
				<title>TatC (PF00902)
"Sec-independent protein translocase protein (TatC)"</title>
				<polygon class="PF00902" points="30,28 38,28 48,40 38,52 30,52" stroke-linejoin="round" width="20" height="24" fill="rgb(84,193,209)" stroke="rgb(67,154,167)" stroke-width="1" opacity="0.75" />
			</g>
		</g>
		<g>
			<title> (ctg109_3)</title>
			<polygon class=" (ctg109_3)" points="55,10 65,40 55,70" fill="rgb(255,255,255)" fill-opacity="1.0" stroke="rgb(0,0,0)" stroke-width="2"  />
		</g>
		<g>
			<title> (ctg109_4)</title>
			<polygon class=" (ctg109_4)" points="78,25 98,25 98,10 128,40 98,70 98,55 78,55" fill="rgb(255,255,255)" fill-opacity="1.0" stroke="rgb(0,0,0)" stroke-width="2"  />
			<g>
				<title>PSII (PF00421)
"Photosystem II protein"</title>
				<polygon class="PF00421" points="78,28 112,28 124,40 112,52 78,52" stroke-linejoin="round" width="49" height="24" fill="rgb(183,68,103)" stroke="rgb(146,54,82)" stroke-width="1" opacity="0.75" />
			</g>
		</g>
		<g>
			<title> (ctg109_5)</title>
			<polygon class=" (ctg109_5)" points="139,40 143,10 143,70" fill="rgb(255,255,255)" fill-opacity="1.0" stroke="rgb(0,0,0)" stroke-width="2"  />
			<g>
				<title>PsbJ (PF01788)
"PsbJ"</title>
				<polygon class="PF01788" points="142,40 142,40 142,40" stroke-linejoin="round" width="3" height="24" fill="rgb(56,185,118)" stroke="rgb(44,148,94)" stroke-width="1" opacity="0.75" />
			</g>
		</g>
		<g>
			<title> (ctg109_6)</title>
			<polygon class=" (ctg109_6)" points="144,40 148,10 148,70" fill="rgb(255,255,255)" fill-opacity="1.0" stroke="rgb(0,0,0)" stroke-width="2"  />
			<g>
				<title>PsbL (PF02419)
"PsbL protein"</title>
				<polygon class="PF02419" points="147,40 147,40 147,40" stroke-linejoin="round" width="3" height="24" fill="rgb(200,88,151)" stroke="rgb(160,70,120)" stroke-width="1" opacity="0.75" />
			</g>
		</g>
		<g>
			<title> (ctg109_7)</title>
			<polygon class=" (ctg109_7)" points="149,40 153,10 153,70" fill="rgb(255,255,255)" fill-opacity="1.0" stroke="rgb(0,0,0)" stroke-width="2"  />
			<g>
				<title>Cytochrom_B559 (PF00283)
"Cytochrome b559, alpha (gene psbE) and beta (gene psbF)subunits"</title>
				<polygon class="PF00283" points="152,40 152,40 152,40" stroke-linejoin="round" width="2" height="24" fill="rgb(69,149,197)" stroke="rgb(55,119,157)" stroke-width="1" opacity="0.75" />
			</g>
		</g>
		<g>
			<title> (ctg109_8)</title>
			<polygon class=" (ctg109_8)" points="154,40 162,10 162,70" fill="rgb(255,255,255)" fill-opacity="1.0" stroke="rgb(0,0,0)" stroke-width="2"  />
			<g>
				<title>Cytochrom_B559a (PF00284)
"Lumenal portion of Cytochrome b559, alpha (gene psbE) subunit"</title>
				<polygon class="PF00284" points="157,40 157,40 157,40" stroke-linejoin="round" width="3" height="24" fill="rgb(87,188,64)" stroke="rgb(69,150,51)" stroke-width="1" opacity="0.75" />
			</g>
			<g>
				<title>Cytochrom_B559 (PF00283)
"Cytochrome b559, alpha (gene psbE) and beta (gene psbF)subunits"</title>
				<polygon class="PF00283" points="158,36 160,28 160,28 160,52 160,52 158,44" stroke-linejoin="round" width="2" height="24" fill="rgb(69,149,197)" stroke="rgb(55,119,157)" stroke-width="1" opacity="0.75" />
			</g>
		</g>
		<g>
			<title> (ctg109_9)</title>
			<polygon class=" (ctg109_9)" points="198,25 195,25 195,10 165,40 195,70 195,55 198,55" fill="rgb(255,255,255)" fill-opacity="1.0" stroke="rgb(0,0,0)" stroke-width="2"  />
			<g>
				<title>PSII_BNR (PF14870)
"Photosynthesis system II assembly factor YCF48"</title>
				<polygon class="PF14870" points="169,40 181,28 195,28 195,52 181,52" stroke-linejoin="round" width="30" height="24" fill="rgb(188,81,115)" stroke="rgb(150,64,92)" stroke-width="1" opacity="0.75" />
			</g>
		</g>
		<g>
			<title> (ctg109_10)</title>
			<polygon class=" (ctg109_10)" points="202,40 213,10 213,70" fill="rgb(255,255,255)" fill-opacity="1.0" stroke="rgb(0,0,0)" stroke-width="2"  />
			<g>
				<title>Rubredoxin (PF00301)
"Rubredoxin"</title>
				<polygon class="PF00301" points="207,35 210,28 211,28 211,52 210,52 207,45" stroke-linejoin="round" width="4" height="24" fill="rgb(130,88,185)" stroke="rgb(104,70,148)" stroke-width="1" opacity="0.75" />
			</g>
		</g>
		<g>
			<title> (ctg109_11)</title>
			<polygon class=" (ctg109_11)" points="231,25 277,25 277,10 307,40 277,70 277,55 231,55" fill="rgb(255,255,255)" fill-opacity="1.0" stroke="rgb(0,0,0)" stroke-width="2"  />
			<g>
				<title>YcaO (PF02624)
"YcaO cyclodehydratase, ATP-ad Mg2+-binding"</title>
				<polygon class="PF02624" points="270,28 291,28 303,40 303,40 291,52 270,52" stroke-linejoin="round" width="33" height="24" fill="rgb(76,84,185)" stroke="rgb(60,67,148)" stroke-width="1" opacity="0.75" />
			</g>
		</g>
		<g>
			<title> (ctg109_12)</title>
			<polygon class=" (ctg109_12)" points="314,40 327,10 327,70" fill="rgb(255,255,255)" fill-opacity="1.0" stroke="rgb(0,0,0)" stroke-width="2"  />
			<g>
				<title>Acetyltransf_7 (PF13508)
"Acetyltransferase (GNAT) domain"</title>
				<polygon class="PF13508" points="317,40 322,28 326,28 326,52 322,52" stroke-linejoin="round" width="10" height="24" fill="rgb(183,210,60)" stroke="rgb(146,168,48)" stroke-width="1" opacity="0.75" />
			</g>
		</g>
	</g>
</svg>
