<svg version="1.1" baseProfile="full" xmlns="http://www.w3.org/2000/svg" width="507.4" height="80">
	<g>
		<line x1="10" y1="40.0" x2="497.4" y2="40.0" style="stroke:rgb(70,70,70); stroke-width:3 "/>
		<g>
			<title> (ctg138_1)</title>
			<polygon class=" (ctg138_1)" points="10,40 15,10 15,70" fill="rgb(255,255,255)" fill-opacity="1.0" stroke="rgb(0,0,0)" stroke-width="2"  />
		</g>
		<g>
			<title> (ctg138_2)</title>
			<polygon class=" (ctg138_2)" points="35,25 51,25 51,10 81,40 51,70 51,55 35,55" fill="rgb(255,255,255)" fill-opacity="1.0" stroke="rgb(0,0,0)" stroke-width="2"  />
			<g>
				<title>DUF2252 (PF10009)
"Uncharacterized protein conserved in bacteria (DUF2252)"</title>
				<polygon class="PF10009" points="41,28 65,28 77,40 65,52 41,52" stroke-linejoin="round" width="38" height="24" fill="rgb(161,58,189)" stroke="rgb(128,46,151)" stroke-width="1" opacity="0.75" />
			</g>
		</g>
		<g>
			<title> (ctg138_3)</title>
			<polygon class=" (ctg138_3)" points="163,25 124,25 124,10 94,40 124,70 124,55 163,55" fill="rgb(255,255,255)" fill-opacity="1.0" stroke="rgb(0,0,0)" stroke-width="2"  />
			<g>
				<title>PatG_C (PF18065)
"PatG C-terminal"</title>
				<polygon class="PF18065" points="98,40 105,33 105,47" stroke-linejoin="round" width="11" height="24" fill="rgb(93,82,184)" stroke="rgb(74,65,147)" stroke-width="1" opacity="0.75" />
			</g>
			<g>
				<title>PatG_D (PF18047)
"PatG Domain"</title>
				<polygon class="PF18047" points="110,28 110,28 121,28 121,52 110,52 110,52" stroke-linejoin="round" width="11" height="24" fill="rgb(91,195,69)" stroke="rgb(72,156,55)" stroke-width="1" opacity="0.75" />
			</g>
			<g>
				<title>Peptidase_S8 (PF00082)
"Subtilase family"</title>
				<rect class="PF00082" x="129" y="28" stroke-linejoin="round" width="32" height="24" fill="rgb(193,159,94)" stroke="rgb(154,127,75)" stroke-width="1" opacity="0.75" />
			</g>
		</g>
		<g>
			<title> (ctg138_4)</title>
			<polygon class=" (ctg138_4)" points="166,10 192,40 166,70" fill="rgb(255,255,255)" fill-opacity="1.0" stroke="rgb(0,0,0)" stroke-width="2"  />
			<g>
				<title>Uma2 (PF05685)
"Putative restriction endonuclease"</title>
				<polygon class="PF05685" points="169,28 178,28 186,38 186,42 178,52 169,52" stroke-linejoin="round" width="17" height="24" fill="rgb(123,107,219)" stroke="rgb(98,85,175)" stroke-width="1" opacity="0.75" />
			</g>
		</g>
		<g>
			<title> (ctg138_5)</title>
			<polygon class=" (ctg138_5)" points="189,40 200,10 200,70" fill="rgb(255,255,255)" fill-opacity="1.0" stroke="rgb(0,0,0)" stroke-width="2"  />
		</g>
		<g>
			<title> (ctg138_6)</title>
			<polygon class=" (ctg138_6)" points="203,40 224,10 224,70" fill="rgb(255,255,255)" fill-opacity="1.0" stroke="rgb(0,0,0)" stroke-width="2"  />
			<g>
				<title>Uma2 (PF05685)
"Putative restriction endonuclease"</title>
				<polygon class="PF05685" points="207,40 216,28 222,28 222,52 216,52" stroke-linejoin="round" width="17" height="24" fill="rgb(123,107,219)" stroke="rgb(98,85,175)" stroke-width="1" opacity="0.75" />
			</g>
		</g>
		<g>
			<title> (ctg138_7)</title>
			<polygon class=" (ctg138_7)" points="225,40 244,10 244,70" fill="rgb(255,255,255)" fill-opacity="1.0" stroke="rgb(0,0,0)" stroke-width="2"  />
			<g>
				<title>Uma2 (PF05685)
"Putative restriction endonuclease"</title>
				<polygon class="PF05685" points="229,40 237,28 242,28 242,52 237,52" stroke-linejoin="round" width="17" height="24" fill="rgb(123,107,219)" stroke="rgb(98,85,175)" stroke-width="1" opacity="0.75" />
			</g>
		</g>
		<g>
			<title> (ctg138_8)</title>
			<polygon class=" (ctg138_8)" points="245,40 263,10 263,70" fill="rgb(255,255,255)" fill-opacity="1.0" stroke="rgb(0,0,0)" stroke-width="2"  />
			<g>
				<title>Uma2 (PF05685)
"Putative restriction endonuclease"</title>
				<polygon class="PF05685" points="249,40 257,28 262,28 262,52 257,52" stroke-linejoin="round" width="17" height="24" fill="rgb(123,107,219)" stroke="rgb(98,85,175)" stroke-width="1" opacity="0.75" />
			</g>
		</g>
		<g>
			<title> (ctg138_9)</title>
			<polygon class=" (ctg138_9)" points="265,10 273,40 265,70" fill="rgb(255,255,255)" fill-opacity="1.0" stroke="rgb(0,0,0)" stroke-width="2"  />
			<g>
				<title>Y1_Tnp (PF01797)
"Transposase IS200 like"</title>
				<polygon class="PF01797" points="265,28 266,28 270,40 266,52 265,52" stroke-linejoin="round" width="7" height="24" fill="rgb(198,164,60)" stroke="rgb(158,131,47)" stroke-width="1" opacity="0.75" />
			</g>
		</g>
		<g>
			<title> (ctg138_10)</title>
			<polygon class=" (ctg138_10)" points="292,40 296,10 296,70" fill="rgb(255,255,255)" fill-opacity="1.0" stroke="rgb(0,0,0)" stroke-width="2"  />
			<g>
				<title>DUF5840 (PF19158)
"Family of unknown function (DUF5840)"</title>
				<polygon class="PF19158" points="295,40 296,34 296,46" stroke-linejoin="round" width="4" height="24" fill="rgb(187,88,114)" stroke="rgb(149,70,91)" stroke-width="1" opacity="0.75" />
			</g>
		</g>
		<g>
			<title> (ctg138_11)</title>
			<polygon class=" (ctg138_11)" points="304,40 313,10 313,70" fill="rgb(255,255,255)" fill-opacity="1.0" stroke="rgb(0,0,0)" stroke-width="2"  />
			<g>
				<title>YafQ_toxin (PF15738)
"Bacterial toxin of type II toxin-antitoxin system, YafQ"</title>
				<polygon class="PF15738" points="307,40 311,28 313,28 313,52 311,52" stroke-linejoin="round" width="9" height="24" fill="rgb(58,224,128)" stroke="rgb(46,179,102)" stroke-width="1" opacity="0.75" />
			</g>
		</g>
		<g>
			<title> (ctg138_12)</title>
			<polygon class=" (ctg138_12)" points="314,40 321,10 321,70" fill="rgb(255,255,255)" fill-opacity="1.0" stroke="rgb(0,0,0)" stroke-width="2"  />
		</g>
		<g>
			<title> (ctg138_13)</title>
			<polygon class=" (ctg138_13)" points="320,40 325,10 325,70" fill="rgb(255,255,255)" fill-opacity="1.0" stroke="rgb(0,0,0)" stroke-width="2"  />
		</g>
		<g>
			<title> (ctg138_14)</title>
			<polygon class=" (ctg138_14)" points="326,40 334,10 334,70" fill="rgb(255,255,255)" fill-opacity="1.0" stroke="rgb(0,0,0)" stroke-width="2"  />
		</g>
		<g>
			<title> (ctg138_15)</title>
			<polygon class=" (ctg138_15)" points="344,40 353,10 353,70" fill="rgb(255,255,255)" fill-opacity="1.0" stroke="rgb(0,0,0)" stroke-width="2"  />
		</g>
		<g>
			<title> (ctg138_16)</title>
			<polygon class=" (ctg138_16)" points="352,40 361,10 361,70" fill="rgb(255,255,255)" fill-opacity="1.0" stroke="rgb(0,0,0)" stroke-width="2"  />
			<g>
				<title>BrnT_toxin (PF04365)
"Ribonuclease toxin, BrnT, of type II toxin-antitoxin system"</title>
				<polygon class="PF04365" points="355,40 359,28 360,28 360,52 359,52" stroke-linejoin="round" width="7" height="24" fill="rgb(81,152,189)" stroke="rgb(64,121,151)" stroke-width="1" opacity="0.75" />
			</g>
		</g>
		<g>
			<title> (ctg138_17)</title>
			<polygon class=" (ctg138_17)" points="370,40 379,10 379,70" fill="rgb(255,255,255)" fill-opacity="1.0" stroke="rgb(0,0,0)" stroke-width="2"  />
			<g>
				<title>ParE_toxin (PF05016)
"ParE toxin of type II toxin-antitoxin system, parDE"</title>
				<polygon class="PF05016" points="373,40 377,28 378,28 378,52 377,52" stroke-linejoin="round" width="8" height="24" fill="rgb(110,226,73)" stroke="rgb(88,180,58)" stroke-width="1" opacity="0.75" />
			</g>
		</g>
		<g>
			<title> (ctg138_18)</title>
			<polygon class=" (ctg138_18)" points="380,40 389,10 389,70" fill="rgb(255,255,255)" fill-opacity="1.0" stroke="rgb(0,0,0)" stroke-width="2"  />
		</g>
		<g>
			<title> (ctg138_19)</title>
			<polygon class=" (ctg138_19)" points="401,10 410,40 401,70" fill="rgb(255,255,255)" fill-opacity="1.0" stroke="rgb(0,0,0)" stroke-width="2"  />
			<g>
				<title>HicB_lk_antitox (PF15919)
"HicB_like antitoxin of bacterial toxin-antitoxin system"</title>
				<polygon class="PF15919" points="401,28 403,28 407,40 403,52 401,52" stroke-linejoin="round" width="7" height="24" fill="rgb(104,205,86)" stroke="rgb(83,164,68)" stroke-width="1" opacity="0.75" />
			</g>
		</g>
		<g>
			<title> (ctg138_20)</title>
			<polygon class=" (ctg138_20)" points="423,25 426,25 426,10 456,40 426,70 426,55 423,55" fill="rgb(255,255,255)" fill-opacity="1.0" stroke="rgb(0,0,0)" stroke-width="2"  />
			<g>
				<title>HTH_18 (PF12833)
"Helix-turn-helix domain"</title>
				<polygon class="PF12833" points="448,36 452,40 448,44" stroke-linejoin="round" width="7" height="24" fill="rgb(216,58,224)" stroke="rgb(172,46,179)" stroke-width="1" opacity="0.75" />
			</g>
		</g>
		<g>
			<title> (ctg138_21)</title>
			<polygon class=" (ctg138_21)" points="454,40 462,10 462,70" fill="rgb(255,255,255)" fill-opacity="1.0" stroke="rgb(0,0,0)" stroke-width="2"  />
		</g>
		<g>
			<title> (ctg138_22)</title>
			<polygon class=" (ctg138_22)" points="470,40 491,10 491,70" fill="rgb(255,255,255)" fill-opacity="1.0" stroke="rgb(0,0,0)" stroke-width="2"  />
			<g>
				<title>HupE_UreJ (PF04955)
"HupE / UreJ protein"</title>
				<polygon class="PF04955" points="474,40 483,28 489,28 489,52 483,52" stroke-linejoin="round" width="19" height="24" fill="rgb(190,188,89)" stroke="rgb(152,150,71)" stroke-width="1" opacity="0.75" />
			</g>
		</g>
	</g>
</svg>
