<svg version="1.1" baseProfile="full" xmlns="http://www.w3.org/2000/svg" width="453.06666666666666" height="80">
	<g>
		<line x1="10" y1="40.0" x2="443.06666666666666" y2="40.0" style="stroke:rgb(70,70,70); stroke-width:3 "/>
		<g>
			<title> (ctg176_6)</title>
			<polygon class=" (ctg176_6)" points="195,40 216,10 216,70" fill="rgb(255,255,255)" fill-opacity="1.0" stroke="rgb(0,0,0)" stroke-width="2"  />
		</g>
		<g>
			<title> (ctg176_7)</title>
			<polygon class=" (ctg176_7)" points="254,25 248,25 248,10 218,40 248,70 248,55 254,55" fill="rgb(255,255,255)" fill-opacity="1.0" stroke="rgb(0,0,0)" stroke-width="2"  />
			<g>
				<title>Amidohydro_2 (PF04909)
"Amidohydrolase"</title>
				<polygon class="PF04909" points="222,40 234,28 253,28 253,52 234,52" stroke-linejoin="round" width="35" height="24" fill="rgb(95,225,123)" stroke="rgb(76,180,98)" stroke-width="1" opacity="0.75" />
			</g>
		</g>
		<g>
			<title> (ctg176_8)</title>
			<polygon class=" (ctg176_8)" points="265,10 274,40 265,70" fill="rgb(255,255,255)" fill-opacity="1.0" stroke="rgb(0,0,0)" stroke-width="2"  />
			<g>
				<title>BrnA_antitoxin (PF14384)
"BrnA antitoxin of type II toxin-antitoxin system"</title>
				<polygon class="PF14384" points="265,28 267,28 270,37 270,43 267,52 265,52" stroke-linejoin="round" width="5" height="24" fill="rgb(80,199,169)" stroke="rgb(64,159,135)" stroke-width="1" opacity="0.75" />
			</g>
		</g>
		<g>
			<title> (ctg176_9)</title>
			<polygon class=" (ctg176_9)" points="275,40 282,10 282,70" fill="rgb(255,255,255)" fill-opacity="1.0" stroke="rgb(0,0,0)" stroke-width="2"  />
		</g>
		<g>
			<title> (ctg176_10)</title>
			<polygon class=" (ctg176_10)" points="282,40 292,10 292,70" fill="rgb(255,255,255)" fill-opacity="1.0" stroke="rgb(0,0,0)" stroke-width="2"  />
			<g>
				<title>DUF4258 (PF14076)
"Domain of unknown function (DUF4258)"</title>
				<polygon class="PF14076" points="285,40 289,28 290,28 290,52 289,52" stroke-linejoin="round" width="7" height="24" fill="rgb(176,87,229)" stroke="rgb(140,69,183)" stroke-width="1" opacity="0.75" />
			</g>
		</g>
		<g>
			<title> (ctg176_11)</title>
			<polygon class=" (ctg176_11)" points="298,10 301,40 298,70" fill="rgb(255,255,255)" fill-opacity="1.0" stroke="rgb(0,0,0)" stroke-width="2"  />
		</g>
		<g>
			<title> (ctg176_12)</title>
			<polygon class=" (ctg176_12)" points="305,40 318,10 318,70" fill="rgb(255,255,255)" fill-opacity="1.0" stroke="rgb(0,0,0)" stroke-width="2"  />
			<g>
				<title>PIN (PF01850)
"PIN domain"</title>
				<polygon class="PF01850" points="308,40 313,28 318,28 318,52 313,52" stroke-linejoin="round" width="12" height="24" fill="rgb(91,217,126)" stroke="rgb(72,173,100)" stroke-width="1" opacity="0.75" />
			</g>
		</g>
		<g>
			<title> (ctg176_13)</title>
			<polygon class=" (ctg176_13)" points="319,40 327,10 327,70" fill="rgb(255,255,255)" fill-opacity="1.0" stroke="rgb(0,0,0)" stroke-width="2"  />
		</g>
		<g>
			<title> (ctg176_14)</title>
			<polygon class=" (ctg176_14)" points="343,25 350,25 350,10 380,40 350,70 350,55 343,55" fill="rgb(255,255,255)" fill-opacity="1.0" stroke="rgb(0,0,0)" stroke-width="2"  />
			<g>
				<title>Peptidase_S8 (PF00082)
"Subtilase family"</title>
				<polygon class="PF00082" points="344,28 363,28 370,35 370,45 363,52 344,52" stroke-linejoin="round" width="26" height="24" fill="rgb(193,159,94)" stroke="rgb(154,127,75)" stroke-width="1" opacity="0.75" />
			</g>
		</g>
		<g>
			<title> (ctg176_15)</title>
			<polygon class=" (ctg176_15)" points="380,25 381,25 381,10 411,40 381,70 381,55 380,55" fill="rgb(255,255,255)" fill-opacity="1.0" stroke="rgb(0,0,0)" stroke-width="2"  />
			<g>
				<title>PatG_D (PF18047)
"PatG Domain"</title>
				<rect class="PF18047" x="386" y="28" stroke-linejoin="round" width="8" height="24" fill="rgb(91,195,69)" stroke="rgb(72,156,55)" stroke-width="1" opacity="0.75" />
			</g>
			<g>
				<title>PatG_C (PF18065)
"PatG C-terminal"</title>
				<polygon class="PF18065" points="399,32 407,40 399,48" stroke-linejoin="round" width="11" height="24" fill="rgb(93,82,184)" stroke="rgb(74,65,147)" stroke-width="1" opacity="0.75" />
			</g>
		</g>
		<g>
			<title> (ctg176_16)</title>
			<polygon class=" (ctg176_16)" points="412,10 424,40 412,70" fill="rgb(255,255,255)" fill-opacity="1.0" stroke="rgb(0,0,0)" stroke-width="2"  />
		</g>
		<g>
			<title> (ctg176_17)</title>
			<polygon class=" (ctg176_17)" points="426,10 433,40 426,70" fill="rgb(255,255,255)" fill-opacity="1.0" stroke="rgb(0,0,0)" stroke-width="2"  />
		</g>
	</g>
</svg>
