<svg version="1.1" baseProfile="full" xmlns="http://www.w3.org/2000/svg" width="231.46666666666667" height="80">
	<g>
		<line x1="10" y1="40.0" x2="221.46666666666667" y2="40.0" style="stroke:rgb(70,70,70); stroke-width:3 "/>
		<g>
			<title> (ctg292_1)</title>
			<polygon class=" (ctg292_1)" points="18,10 24,40 18,70" fill="rgb(255,255,255)" fill-opacity="1.0" stroke="rgb(0,0,0)" stroke-width="2"  />
			<g>
				<title>Pirin_C_2 (PF17954)
"Quercetinase C-terminal cupin domain"</title>
				<polygon class="PF17954" points="18,28 18,28 21,40 18,52 18,52" stroke-linejoin="round" width="6" height="24" fill="rgb(224,140,102)" stroke="rgb(179,112,81)" stroke-width="1" opacity="0.75" />
			</g>
		</g>
		<g>
			<title> (ctg292_2)</title>
			<polygon class=" (ctg292_2)" points="26,40 34,10 34,70" fill="rgb(255,255,255)" fill-opacity="1.0" stroke="rgb(0,0,0)" stroke-width="2"  />
		</g>
		<g>
			<title> (ctg292_3)</title>
			<polygon class=" (ctg292_3)" points="43,10 58,40 43,70" fill="rgb(255,255,255)" fill-opacity="1.0" stroke="rgb(0,0,0)" stroke-width="2"  />
		</g>
		<g>
			<title> (ctg292_4)</title>
			<polygon class=" (ctg292_4)" points="93,25 92,25 92,10 62,40 92,70 92,55 93,55" fill="rgb(255,255,255)" fill-opacity="1.0" stroke="rgb(0,0,0)" stroke-width="2"  />
			<g>
				<title>SQS_PSY (PF00494)
"Squalene/phytoene synthase"</title>
				<polygon class="PF00494" points="66,40 78,28 89,28 89,52 78,52" stroke-linejoin="round" width="26" height="24" fill="rgb(178,91,49)" stroke="rgb(142,72,39)" stroke-width="1" opacity="0.75" />
			</g>
		</g>
		<g>
			<title> (ctg292_5)</title>
			<polygon class=" (ctg292_5)" points="143,25 126,25 126,10 96,40 126,70 126,55 143,55" fill="rgb(255,255,255)" fill-opacity="1.0" stroke="rgb(0,0,0)" stroke-width="2"  />
			<g>
				<title>Amino_oxidase (PF01593)
"Flavin containing amine oxidoreductase"</title>
				<polygon class="PF01593" points="100,40 112,28 142,28 142,52 112,52" stroke-linejoin="round" width="44" height="24" fill="rgb(184,74,52)" stroke="rgb(147,59,41)" stroke-width="1" opacity="0.75" />
			</g>
		</g>
		<g>
			<title> (ctg292_6)</title>
			<polygon class=" (ctg292_6)" points="158,25 183,25 183,10 213,40 183,70 183,55 158,55" fill="rgb(255,255,255)" fill-opacity="1.0" stroke="rgb(0,0,0)" stroke-width="2"  />
			<g>
				<title>Glucos_trans_II (PF14264)
"Glucosyl transferase GtrII"</title>
				<rect class="PF14264" x="161" y="28" stroke-linejoin="round" width="31" height="24" fill="rgb(222,82,164)" stroke="rgb(177,65,131)" stroke-width="1" opacity="0.75" />
			</g>
		</g>
	</g>
</svg>
