<svg version="1.1" baseProfile="full" xmlns="http://www.w3.org/2000/svg" width="459.3666666666667" height="80">
	<g>
		<line x1="10" y1="40.0" x2="449.3666666666667" y2="40.0" style="stroke:rgb(70,70,70); stroke-width:3 "/>
		<g>
			<title> (ctg4_1)</title>
			<polygon class=" (ctg4_1)" points="10,25 29,25 29,10 59,40 29,70 29,55 10,55" fill="rgb(255,255,255)" fill-opacity="1.0" stroke="rgb(0,0,0)" stroke-width="2"  />
		</g>
		<g>
			<title> (ctg4_2)</title>
			<polygon class=" (ctg4_2)" points="72,10 79,40 72,70" fill="rgb(255,255,255)" fill-opacity="1.0" stroke="rgb(0,0,0)" stroke-width="2"  />
		</g>
		<g>
			<title> (ctg4_3)</title>
			<polygon class=" (ctg4_3)" points="89,10 116,40 89,70" fill="rgb(255,255,255)" fill-opacity="1.0" stroke="rgb(0,0,0)" stroke-width="2"  />
			<g>
				<title>SQS_PSY (PF00494)
"Squalene/phytoene synthase"</title>
				<polygon class="PF00494" points="90,28 100,28 109,37 109,43 100,52 90,52" stroke-linejoin="round" width="19" height="24" fill="rgb(178,91,49)" stroke="rgb(142,72,39)" stroke-width="1" opacity="0.75" />
			</g>
		</g>
		<g>
			<title> (ctg4_4)</title>
			<polygon class=" (ctg4_4)" points="121,40 133,10 133,70" fill="rgb(255,255,255)" fill-opacity="1.0" stroke="rgb(0,0,0)" stroke-width="2"  />
		</g>
		<g>
			<title> (ctg4_5)</title>
			<polygon class=" (ctg4_5)" points="140,10 166,40 140,70" fill="rgb(255,255,255)" fill-opacity="1.0" stroke="rgb(0,0,0)" stroke-width="2"  />
			<g>
				<title>Methyltransf_21 (PF05050)
"Methyltransferase FkbM domain"</title>
				<polygon class="PF05050" points="148,28 151,28 162,40 151,52 148,52" stroke-linejoin="round" width="16" height="24" fill="rgb(95,204,52)" stroke="rgb(76,163,41)" stroke-width="1" opacity="0.75" />
			</g>
		</g>
		<g>
			<title> (ctg4_6)</title>
			<polygon class=" (ctg4_6)" points="192,40 208,10 208,70" fill="rgb(255,255,255)" fill-opacity="1.0" stroke="rgb(0,0,0)" stroke-width="2"  />
			<g>
				<title>Cytochrom_B_C (PF00032)
"Cytochrome b(C-terminal)/b6/petD"</title>
				<polygon class="PF00032" points="195,40 201,28 201,28 201,52 201,52" stroke-linejoin="round" width="9" height="24" fill="rgb(183,105,214)" stroke="rgb(146,84,171)" stroke-width="1" opacity="0.75" />
			</g>
		</g>
		<g>
			<title> (ctg4_7)</title>
			<polygon class=" (ctg4_7)" points="210,40 219,10 219,70" fill="rgb(255,255,255)" fill-opacity="1.0" stroke="rgb(0,0,0)" stroke-width="2"  />
			<g>
				<title>Cytochrome_B (PF00033)
"Cytochrome b/b6/petB"</title>
				<polygon class="PF00033" points="213,40 217,28 218,28 218,52 217,52" stroke-linejoin="round" width="8" height="24" fill="rgb(209,58,124)" stroke="rgb(167,46,99)" stroke-width="1" opacity="0.75" />
			</g>
		</g>
		<g>
			<title> (ctg4_8)</title>
			<polygon class=" (ctg4_8)" points="242,10 258,40 242,70" fill="rgb(255,255,255)" fill-opacity="1.0" stroke="rgb(0,0,0)" stroke-width="2"  />
			<g>
				<title>MerR_1 (PF13411)
"MerR HTH family regulatory protein"</title>
				<rect class="PF13411" x="242" y="28" stroke-linejoin="round" width="4" height="24" fill="rgb(100,202,107)" stroke="rgb(80,161,85)" stroke-width="1" opacity="0.75" />
			</g>
			<g>
				<title>Resolvase (PF00239)
"Resolvase, N terminal domain"</title>
				<polygon class="PF00239" points="247,28 248,28 254,40 248,52 247,52" stroke-linejoin="round" width="10" height="24" fill="rgb(99,177,201)" stroke="rgb(79,141,160)" stroke-width="1" opacity="0.75" />
			</g>
		</g>
		<g>
			<title> (ctg4_9)</title>
			<polygon class=" (ctg4_9)" points="258,10 262,40 258,70" fill="rgb(255,255,255)" fill-opacity="1.0" stroke="rgb(0,0,0)" stroke-width="2"  />
		</g>
		<g>
			<title> (ctg4_10)</title>
			<polygon class=" (ctg4_10)" points="261,25 266,25 266,10 296,40 266,70 266,55 261,55" fill="rgb(255,255,255)" fill-opacity="1.0" stroke="rgb(0,0,0)" stroke-width="2"  />
			<g>
				<title>OrfB_Zn_ribbon (PF07282)
"Putative transposase DNA-binding domain"</title>
				<polygon class="PF07282" points="288,36 292,40 288,44" stroke-linejoin="round" width="6" height="24" fill="rgb(188,84,136)" stroke="rgb(150,67,108)" stroke-width="1" opacity="0.75" />
			</g>
		</g>
		<g>
			<title> (ctg4_11)</title>
			<polygon class=" (ctg4_11)" points="296,25 315,25 315,10 345,40 315,70 315,55 296,55" fill="rgb(255,255,255)" fill-opacity="1.0" stroke="rgb(0,0,0)" stroke-width="2"  />
			<g>
				<title>CP_ATPgrasp_2 (PF14403)
"Circularly permuted ATP-grasp type 2"</title>
				<polygon class="PF14403" points="305,28 329,28 341,40 329,52 305,52" stroke-linejoin="round" width="37" height="24" fill="rgb(80,222,92)" stroke="rgb(64,177,73)" stroke-width="1" opacity="0.75" />
			</g>
		</g>
		<g>
			<title> (ctg4_12)</title>
			<polygon class=" (ctg4_12)" points="348,25 351,25 351,10 381,40 351,70 351,55 348,55" fill="rgb(255,255,255)" fill-opacity="1.0" stroke="rgb(0,0,0)" stroke-width="2"  />
			<g>
				<title>Alpha-E (PF04168)
"A predicted alpha-helical domain with a conserved ER motif."</title>
				<polygon class="PF04168" points="348,28 365,28 377,40 365,52 348,52" stroke-linejoin="round" width="30" height="24" fill="rgb(190,83,80)" stroke="rgb(152,66,64)" stroke-width="1" opacity="0.75" />
			</g>
		</g>
		<g>
			<title> (ctg4_13)</title>
			<polygon class=" (ctg4_13)" points="381,10 409,40 381,70" fill="rgb(255,255,255)" fill-opacity="1.0" stroke="rgb(0,0,0)" stroke-width="2"  />
			<g>
				<title>Bact_transglu_N (PF08379)
"Bacterial transglutaminase-like N-terminal region"</title>
				<rect class="PF08379" x="381" y="28" stroke-linejoin="round" width="7" height="24" fill="rgb(224,108,64)" stroke="rgb(179,86,51)" stroke-width="1" opacity="0.75" />
			</g>
			<g>
				<title>Transglut_core (PF01841)
"Transglutaminase-like superfamily"</title>
				<polygon class="PF01841" points="393,28 393,28 403,38 403,42 393,52 393,52" stroke-linejoin="round" width="10" height="24" fill="rgb(208,223,79)" stroke="rgb(166,178,63)" stroke-width="1" opacity="0.75" />
			</g>
		</g>
		<g>
			<title> (ctg4_14)</title>
			<polygon class=" (ctg4_14)" points="411,10 422,40 411,70" fill="rgb(255,255,255)" fill-opacity="1.0" stroke="rgb(0,0,0)" stroke-width="2"  />
		</g>
	</g>
</svg>
