<svg version="1.1" baseProfile="full" xmlns="http://www.w3.org/2000/svg" width="674.3" height="80">
	<g>
		<line x1="10" y1="40.0" x2="664.3" y2="40.0" style="stroke:rgb(70,70,70); stroke-width:3 "/>
		<g>
			<title> (ctg84_1)</title>
			<polygon class=" (ctg84_1)" points="15,40 41,10 41,70" fill="rgb(255,255,255)" fill-opacity="1.0" stroke="rgb(0,0,0)" stroke-width="2"  />
			<g>
				<title>ABC_tran (PF00005)
"ABC transporter"</title>
				<polygon class="PF00005" points="23,35 29,28 38,28 38,52 29,52 23,45" stroke-linejoin="round" width="15" height="24" fill="rgb(129,201,63)" stroke="rgb(103,160,50)" stroke-width="1" opacity="0.75" />
			</g>
		</g>
		<g>
			<title> (ctg84_2)</title>
			<polygon class=" (ctg84_2)" points="42,40 63,10 63,70" fill="rgb(255,255,255)" fill-opacity="1.0" stroke="rgb(0,0,0)" stroke-width="2"  />
			<g>
				<title>2OG-FeII_Oxy_3 (PF13640)
"2OG-Fe(II) oxygenase superfamily"</title>
				<polygon class="PF13640" points="46,40 54,28 54,28 54,52 54,52" stroke-linejoin="round" width="9" height="24" fill="rgb(163,67,223)" stroke="rgb(130,53,178)" stroke-width="1" opacity="0.75" />
			</g>
		</g>
		<g>
			<title> (ctg84_3)</title>
			<polygon class=" (ctg84_3)" points="66,40 91,10 91,70" fill="rgb(255,255,255)" fill-opacity="1.0" stroke="rgb(0,0,0)" stroke-width="2"  />
		</g>
		<g>
			<title> (ctg84_4)</title>
			<polygon class=" (ctg84_4)" points="129,25 122,25 122,10 92,40 122,70 122,55 129,55" fill="rgb(255,255,255)" fill-opacity="1.0" stroke="rgb(0,0,0)" stroke-width="2"  />
			<g>
				<title>AAA_21 (PF13304)
"AAA domain, putative AbiEii toxin, Type IV TA system"</title>
				<polygon class="PF13304" points="96,40 108,28 126,28 126,52 108,52 96,40" stroke-linejoin="round" width="30" height="24" fill="rgb(215,121,101)" stroke="rgb(172,96,80)" stroke-width="1" opacity="0.75" />
			</g>
		</g>
		<g>
			<title> (ctg84_5)</title>
			<polygon class=" (ctg84_5)" points="136,25 187,25 187,10 217,40 187,70 187,55 136,55" fill="rgb(255,255,255)" fill-opacity="1.0" stroke="rgb(0,0,0)" stroke-width="2"  />
			<g>
				<title>tRNA_bind (PF01588)
"Putative tRNA binding domain"</title>
				<rect class="PF01588" x="140" y="28" stroke-linejoin="round" width="10" height="24" fill="rgb(192,51,118)" stroke="rgb(153,40,94)" stroke-width="1" opacity="0.75" />
			</g>
			<g>
				<title>B3_4 (PF03483)
"B3/4 domain"</title>
				<rect class="PF03483" x="157" y="28" stroke-linejoin="round" width="17" height="24" fill="rgb(97,63,226)" stroke="rgb(77,50,180)" stroke-width="1" opacity="0.75" />
			</g>
			<g>
				<title>B5 (PF03484)
"tRNA synthetase B5 domain"</title>
				<rect class="PF03484" x="177" y="28" stroke-linejoin="round" width="7" height="24" fill="rgb(94,91,186)" stroke="rgb(75,72,148)" stroke-width="1" opacity="0.75" />
			</g>
			<g>
				<title>tRNA_synthFbeta (PF17759)
"Phenylalanyl tRNA synthetase beta chain CLM domain"</title>
				<polygon class="PF17759" points="185,28 200,28 205,33 205,47 200,52 185,52" stroke-linejoin="round" width="20" height="24" fill="rgb(209,87,97)" stroke="rgb(167,69,77)" stroke-width="1" opacity="0.75" />
			</g>
			<g>
				<title>FDX-ACB (PF03147)
"Ferredoxin-fold anticodon binding domain"</title>
				<polygon class="PF03147" points="207,35 212,40 207,45" stroke-linejoin="round" width="9" height="24" fill="rgb(152,84,215)" stroke="rgb(121,67,172)" stroke-width="1" opacity="0.75" />
			</g>
		</g>
		<g>
			<title> (ctg84_6)</title>
			<polygon class=" (ctg84_6)" points="226,10 249,40 226,70" fill="rgb(255,255,255)" fill-opacity="1.0" stroke="rgb(0,0,0)" stroke-width="2"  />
			<g>
				<title>Pirin (PF02678)
"Pirin"</title>
				<polygon class="PF02678" points="226,28 236,28 237,30 237,50 236,52 226,52" stroke-linejoin="round" width="11" height="24" fill="rgb(139,213,61)" stroke="rgb(111,170,48)" stroke-width="1" opacity="0.75" />
			</g>
			<g>
				<title>Pirin_C_2 (PF17954)
"Quercetinase C-terminal cupin domain"</title>
				<polygon class="PF17954" points="240,34 245,40 240,46" stroke-linejoin="round" width="8" height="24" fill="rgb(224,140,102)" stroke="rgb(179,112,81)" stroke-width="1" opacity="0.75" />
			</g>
		</g>
		<g>
			<title> (ctg84_7)</title>
			<polygon class=" (ctg84_7)" points="256,40 264,10 264,70" fill="rgb(255,255,255)" fill-opacity="1.0" stroke="rgb(0,0,0)" stroke-width="2"  />
		</g>
		<g>
			<title> (ctg84_8)</title>
			<polygon class=" (ctg84_8)" points="275,10 289,40 275,70" fill="rgb(255,255,255)" fill-opacity="1.0" stroke="rgb(0,0,0)" stroke-width="2"  />
		</g>
		<g>
			<title> (ctg84_9)</title>
			<polygon class=" (ctg84_9)" points="330,25 329,25 329,10 299,40 329,70 329,55 330,55" fill="rgb(255,255,255)" fill-opacity="1.0" stroke="rgb(0,0,0)" stroke-width="2"  />
			<g>
				<title>SQS_PSY (PF00494)
"Squalene/phytoene synthase"</title>
				<polygon class="PF00494" points="303,40 315,28 326,28 326,52 315,52" stroke-linejoin="round" width="26" height="24" fill="rgb(178,91,49)" stroke="rgb(142,72,39)" stroke-width="1" opacity="0.75" />
			</g>
		</g>
		<g>
			<title> (ctg84_10)</title>
			<polygon class=" (ctg84_10)" points="381,25 364,25 364,10 334,40 364,70 364,55 381,55" fill="rgb(255,255,255)" fill-opacity="1.0" stroke="rgb(0,0,0)" stroke-width="2"  />
			<g>
				<title>Amino_oxidase (PF01593)
"Flavin containing amine oxidoreductase"</title>
				<polygon class="PF01593" points="338,40 350,28 380,28 380,52 350,52" stroke-linejoin="round" width="44" height="24" fill="rgb(184,74,52)" stroke="rgb(147,59,41)" stroke-width="1" opacity="0.75" />
			</g>
		</g>
		<g>
			<title> (ctg84_11)</title>
			<polygon class=" (ctg84_11)" points="397,25 459,25 459,10 489,40 459,70 459,55 397,55" fill="rgb(255,255,255)" fill-opacity="1.0" stroke="rgb(0,0,0)" stroke-width="2"  />
			<g>
				<title>Cation_ATPase_N (PF00690)
"Cation transporter/ATPase, N-terminus"</title>
				<rect class="PF00690" x="398" y="28" stroke-linejoin="round" width="6" height="24" fill="rgb(174,102,225)" stroke="rgb(139,81,180)" stroke-width="1" opacity="0.75" />
			</g>
			<g>
				<title>E1-E2_ATPase (PF00122)
"E1-E2 ATPase"</title>
				<rect class="PF00122" x="410" y="28" stroke-linejoin="round" width="19" height="24" fill="rgb(149,204,70)" stroke="rgb(119,163,56)" stroke-width="1" opacity="0.75" />
			</g>
			<g>
				<title>Cation_ATPase (PF13246)
"Cation transport ATPase (P-type)"</title>
				<rect class="PF13246" x="437" y="28" stroke-linejoin="round" width="9" height="24" fill="rgb(200,58,79)" stroke="rgb(160,46,63)" stroke-width="1" opacity="0.75" />
			</g>
			<g>
				<title>Cation_ATPase_C (PF00689)
"Cation transporting ATPase, C-terminus"</title>
				<polygon class="PF00689" points="471,28 473,28 485,40 473,52 471,52" stroke-linejoin="round" width="17" height="24" fill="rgb(76,203,161)" stroke="rgb(60,162,128)" stroke-width="1" opacity="0.75" />
			</g>
		</g>
		<g>
			<title> (ctg84_12)</title>
			<polygon class=" (ctg84_12)" points="490,25 520,25 520,10 550,40 520,70 520,55 490,55" fill="rgb(255,255,255)" fill-opacity="1.0" stroke="rgb(0,0,0)" stroke-width="2"  />
			<g>
				<title>CitMHS (PF03600)
"Citrate transporter"</title>
				<polygon class="PF03600" points="491,28 533,28 543,38 543,42 533,52 491,52" stroke-linejoin="round" width="52" height="24" fill="rgb(75,203,220)" stroke="rgb(60,162,176)" stroke-width="1" opacity="0.75" />
			</g>
		</g>
		<g>
			<title> (ctg84_13)</title>
			<polygon class=" (ctg84_13)" points="552,40 569,10 569,70" fill="rgb(255,255,255)" fill-opacity="1.0" stroke="rgb(0,0,0)" stroke-width="2"  />
			<g>
				<title>TPR_12 (PF13424)
"Tetratricopeptide repeat"</title>
				<polygon class="PF13424" points="557,37 562,28 564,28 564,52 562,52 557,43" stroke-linejoin="round" width="7" height="24" fill="rgb(147,215,101)" stroke="rgb(117,172,80)" stroke-width="1" opacity="0.75" />
			</g>
		</g>
		<g>
			<title> (ctg84_14)</title>
			<polygon class=" (ctg84_14)" points="575,40 601,10 601,70" fill="rgb(255,255,255)" fill-opacity="1.0" stroke="rgb(0,0,0)" stroke-width="2"  />
			<g>
				<title>SBP_bac_3 (PF00497)
"Bacterial extracellular solute-binding proteins, family 3"</title>
				<polygon class="PF00497" points="579,40 589,28 597,28 597,52 589,52" stroke-linejoin="round" width="22" height="24" fill="rgb(186,76,141)" stroke="rgb(148,60,112)" stroke-width="1" opacity="0.75" />
			</g>
		</g>
	</g>
</svg>
