<svg version="1.1" baseProfile="full" xmlns="http://www.w3.org/2000/svg" width="142.5" height="80">
	<g>
		<line x1="10" y1="40.0" x2="132.5" y2="40.0" style="stroke:rgb(70,70,70); stroke-width:3 "/>
		<g>
			<title> (ctg71_1)</title>
			<polygon class=" (ctg71_1)" points="10,40 17,10 17,70" fill="rgb(255,255,255)" fill-opacity="1.0" stroke="rgb(0,0,0)" stroke-width="2"  />
			<g>
				<title>NHase_alpha (PF02979)
"Nitrile hydratase, alpha chain"</title>
				<polygon class="PF02979" points="13,40 16,28 16,28 16,52 16,52" stroke-linejoin="round" width="6" height="24" fill="rgb(204,148,70)" stroke="rgb(163,118,56)" stroke-width="1" opacity="0.75" />
			</g>
		</g>
		<g>
			<title> (ctg71_2)</title>
			<polygon class=" (ctg71_2)" points="68,25 50,25 50,10 20,40 50,70 50,55 68,55" fill="rgb(255,255,255)" fill-opacity="1.0" stroke="rgb(0,0,0)" stroke-width="2"  />
		</g>
		<g>
			<title> (ctg71_3)</title>
			<polygon class=" (ctg71_3)" points="90,40 96,10 96,70" fill="rgb(255,255,255)" fill-opacity="1.0" stroke="rgb(0,0,0)" stroke-width="2"  />
		</g>
		<g>
			<title> (ctg71_4)</title>
			<polygon class=" (ctg71_4)" points="97,40 102,10 102,70" fill="rgb(255,255,255)" fill-opacity="1.0" stroke="rgb(0,0,0)" stroke-width="2"  />
		</g>
		<g>
			<title> (ctg71_5)</title>
			<polygon class=" (ctg71_5)" points="102,40 115,10 115,70" fill="rgb(255,255,255)" fill-opacity="1.0" stroke="rgb(0,0,0)" stroke-width="2"  />
			<g>
				<title>DDE_Tnp_1 (PF01609)
"Transposase DDE domain"</title>
				<polygon class="PF01609" points="105,40 111,28 115,28 115,52 111,52" stroke-linejoin="round" width="13" height="24" fill="rgb(229,102,99)" stroke="rgb(183,81,79)" stroke-width="1" opacity="0.75" />
			</g>
		</g>
		<g>
			<title> (ctg71_6)</title>
			<polygon class=" (ctg71_6)" points="116,40 124,10 124,70" fill="rgb(255,255,255)" fill-opacity="1.0" stroke="rgb(0,0,0)" stroke-width="2"  />
		</g>
	</g>
</svg>
