<svg version="1.1" baseProfile="full" xmlns="http://www.w3.org/2000/svg" width="212.23333333333332" height="80">
	<g>
		<line x1="10" y1="40.0" x2="202.23333333333332" y2="40.0" style="stroke:rgb(70,70,70); stroke-width:3 "/>
		<g>
			<title> (ctg187_1)</title>
			<polygon class=" (ctg187_1)" points="14,10 19,40 14,70" fill="rgb(255,255,255)" fill-opacity="1.0" stroke="rgb(0,0,0)" stroke-width="2"  />
			<g>
				<title>DUF5840 (PF19158)
"Family of unknown function (DUF5840)"</title>
				<polygon class="PF19158" points="14,28 16,40 14,52" stroke-linejoin="round" width="5" height="24" fill="rgb(187,88,114)" stroke="rgb(149,70,91)" stroke-width="1" opacity="0.75" />
			</g>
		</g>
		<g>
			<title> (ctg187_2)</title>
			<polygon class=" (ctg187_2)" points="23,40 33,10 33,70" fill="rgb(255,255,255)" fill-opacity="1.0" stroke="rgb(0,0,0)" stroke-width="2"  />
		</g>
		<g>
			<title> (ctg187_3)</title>
			<polygon class=" (ctg187_3)" points="38,40 46,10 46,70" fill="rgb(255,255,255)" fill-opacity="1.0" stroke="rgb(0,0,0)" stroke-width="2"  />
			<g>
				<title>Y1_Tnp (PF01797)
"Transposase IS200 like"</title>
				<polygon class="PF01797" points="41,40 44,28 45,28 45,52 44,52" stroke-linejoin="round" width="7" height="24" fill="rgb(198,164,60)" stroke="rgb(158,131,47)" stroke-width="1" opacity="0.75" />
			</g>
		</g>
		<g>
			<title> (ctg187_4)</title>
			<polygon class=" (ctg187_4)" points="48,10 66,40 48,70" fill="rgb(255,255,255)" fill-opacity="1.0" stroke="rgb(0,0,0)" stroke-width="2"  />
			<g>
				<title>Uma2 (PF05685)
"Putative restriction endonuclease"</title>
				<polygon class="PF05685" points="49,28 55,28 63,40 55,52 49,52" stroke-linejoin="round" width="17" height="24" fill="rgb(123,107,219)" stroke="rgb(98,85,175)" stroke-width="1" opacity="0.75" />
			</g>
		</g>
		<g>
			<title> (ctg187_5)</title>
			<polygon class=" (ctg187_5)" points="67,10 86,40 67,70" fill="rgb(255,255,255)" fill-opacity="1.0" stroke="rgb(0,0,0)" stroke-width="2"  />
			<g>
				<title>Uma2 (PF05685)
"Putative restriction endonuclease"</title>
				<polygon class="PF05685" points="68,28 75,28 82,40 75,52 68,52" stroke-linejoin="round" width="17" height="24" fill="rgb(123,107,219)" stroke="rgb(98,85,175)" stroke-width="1" opacity="0.75" />
			</g>
		</g>
		<g>
			<title> (ctg187_6)</title>
			<polygon class=" (ctg187_6)" points="87,10 108,40 87,70" fill="rgb(255,255,255)" fill-opacity="1.0" stroke="rgb(0,0,0)" stroke-width="2"  />
			<g>
				<title>Uma2 (PF05685)
"Putative restriction endonuclease"</title>
				<polygon class="PF05685" points="89,28 96,28 105,40 96,52 89,52" stroke-linejoin="round" width="17" height="24" fill="rgb(123,107,219)" stroke="rgb(98,85,175)" stroke-width="1" opacity="0.75" />
			</g>
		</g>
		<g>
			<title> (ctg187_7)</title>
			<polygon class=" (ctg187_7)" points="109,10 116,40 109,70" fill="rgb(255,255,255)" fill-opacity="1.0" stroke="rgb(0,0,0)" stroke-width="2"  />
		</g>
		<g>
			<title> (ctg187_8)</title>
			<polygon class=" (ctg187_8)" points="116,10 120,40 116,70" fill="rgb(255,255,255)" fill-opacity="1.0" stroke="rgb(0,0,0)" stroke-width="2"  />
		</g>
		<g>
			<title> (ctg187_9)</title>
			<polygon class=" (ctg187_9)" points="126,10 133,40 126,70" fill="rgb(255,255,255)" fill-opacity="1.0" stroke="rgb(0,0,0)" stroke-width="2"  />
		</g>
		<g>
			<title> (ctg187_10)</title>
			<polygon class=" (ctg187_10)" points="134,10 143,40 134,70" fill="rgb(255,255,255)" fill-opacity="1.0" stroke="rgb(0,0,0)" stroke-width="2"  />
			<g>
				<title>YafQ_toxin (PF15738)
"Bacterial toxin of type II toxin-antitoxin system, YafQ"</title>
				<polygon class="PF15738" points="134,28 136,28 140,40 136,52 134,52" stroke-linejoin="round" width="9" height="24" fill="rgb(58,224,128)" stroke="rgb(46,179,102)" stroke-width="1" opacity="0.75" />
			</g>
		</g>
		<g>
			<title> (ctg187_11)</title>
			<polygon class=" (ctg187_11)" points="146,25 168,25 168,10 198,40 168,70 168,55 146,55" fill="rgb(255,255,255)" fill-opacity="1.0" stroke="rgb(0,0,0)" stroke-width="2"  />
			<g>
				<title>Peptidase_S8 (PF00082)
"Subtilase family"</title>
				<rect class="PF00082" x="148" y="28" stroke-linejoin="round" width="27" height="24" fill="rgb(193,159,94)" stroke="rgb(154,127,75)" stroke-width="1" opacity="0.75" />
			</g>
			<g>
				<title>PatG_D (PF18047)
"PatG Domain"</title>
				<polygon class="PF18047" points="183,30 193,40 183,50" stroke-linejoin="round" width="11" height="24" fill="rgb(91,195,69)" stroke="rgb(72,156,55)" stroke-width="1" opacity="0.75" />
			</g>
		</g>
	</g>
</svg>
