<svg version="1.1" baseProfile="full" xmlns="http://www.w3.org/2000/svg" width="1886.9333333333334" height="80">
	<g>
		<line x1="10" y1="40.0" x2="1876.9333333333334" y2="40.0" style="stroke:rgb(70,70,70); stroke-width:3 "/>
		<g>
			<title> (ctg95_10)</title>
			<polygon class=" (ctg95_10)" points="18,40 39,10 39,70" fill="rgb(255,255,255)" fill-opacity="1.0" stroke="rgb(0,0,0)" stroke-width="2"  />
			<g>
				<title>Uma2 (PF05685)
"Putative restriction endonuclease"</title>
				<polygon class="PF05685" points="22,40 31,28 37,28 37,52 31,52" stroke-linejoin="round" width="18" height="24" fill="rgb(123,107,219)" stroke="rgb(98,85,175)" stroke-width="1" opacity="0.75" />
			</g>
		</g>
		<g>
			<title> (ctg95_11)</title>
			<polygon class=" (ctg95_11)" points="43,25 52,25 52,10 82,40 52,70 52,55 43,55" fill="rgb(255,255,255)" fill-opacity="1.0" stroke="rgb(0,0,0)" stroke-width="2"  />
			<g>
				<title>DAO (PF01266)
"FAD dependent oxidoreductase"</title>
				<polygon class="PF01266" points="43,28 66,28 78,40 66,52 43,52" stroke-linejoin="round" width="36" height="24" fill="rgb(123,179,59)" stroke="rgb(98,143,47)" stroke-width="1" opacity="0.75" />
			</g>
		</g>
		<g>
			<title> (ctg95_12)</title>
			<polygon class=" (ctg95_12)" points="83,40 92,10 92,70" fill="rgb(255,255,255)" fill-opacity="1.0" stroke="rgb(0,0,0)" stroke-width="2"  />
		</g>
		<g>
			<title> (ctg95_13)</title>
			<polygon class=" (ctg95_13)" points="107,25 125,25 125,10 155,40 125,70 125,55 107,55" fill="rgb(255,255,255)" fill-opacity="1.0" stroke="rgb(0,0,0)" stroke-width="2"  />
			<g>
				<title>tRNA-synt_1e (PF01406)
"tRNA synthetases class I (C) catalytic domain"</title>
				<rect class="PF01406" x="108" y="28" stroke-linejoin="round" width="30" height="24" fill="rgb(131,218,83)" stroke="rgb(104,174,66)" stroke-width="1" opacity="0.75" />
			</g>
			<g>
				<title>DALR_2 (PF09190)
"DALR domain"</title>
				<polygon class="PF09190" points="142,32 149,39 149,41 142,48" stroke-linejoin="round" width="7" height="24" fill="rgb(70,57,193)" stroke="rgb(56,45,154)" stroke-width="1" opacity="0.75" />
			</g>
		</g>
		<g>
			<title> (ctg95_14)</title>
			<polygon class=" (ctg95_14)" points="205,25 184,25 184,10 154,40 184,70 184,55 205,55" fill="rgb(255,255,255)" fill-opacity="1.0" stroke="rgb(0,0,0)" stroke-width="2"  />
			<g>
				<title>OpuAC (PF04069)
"Substrate binding domain of ABC-type glycine betaine transport system"</title>
				<polygon class="PF04069" points="158,40 170,28 180,28 180,52 170,52" stroke-linejoin="round" width="26" height="24" fill="rgb(81,218,80)" stroke="rgb(64,174,64)" stroke-width="1" opacity="0.75" />
			</g>
			<g>
				<title>BPD_transp_1 (PF00528)
"Binding-protein-dependent transport system inner membrane component"</title>
				<rect class="PF00528" x="184" y="28" stroke-linejoin="round" width="17" height="24" fill="rgb(77,208,225)" stroke="rgb(61,166,180)" stroke-width="1" opacity="0.75" />
			</g>
		</g>
		<g>
			<title> (ctg95_15)</title>
			<polygon class=" (ctg95_15)" points="209,25 212,25 212,10 242,40 212,70 212,55 209,55" fill="rgb(255,255,255)" fill-opacity="1.0" stroke="rgb(0,0,0)" stroke-width="2"  />
			<g>
				<title>CHAD (PF05235)
"CHAD domain"</title>
				<polygon class="PF05235" points="210,28 226,28 234,36 234,44 226,52 210,52" stroke-linejoin="round" width="24" height="24" fill="rgb(93,208,142)" stroke="rgb(74,166,113)" stroke-width="1" opacity="0.75" />
			</g>
		</g>
		<g>
			<title> (ctg95_16)</title>
			<polygon class=" (ctg95_16)" points="243,25 260,25 260,10 290,40 260,70 260,55 243,55" fill="rgb(255,255,255)" fill-opacity="1.0" stroke="rgb(0,0,0)" stroke-width="2"  />
			<g>
				<title>OMPdecase (PF00215)
"Orotidine 5'-phosphate decarboxylase / HUMPS family"</title>
				<rect class="PF00215" x="244" y="28" stroke-linejoin="round" width="16" height="24" fill="rgb(127,77,227)" stroke="rgb(101,61,181)" stroke-width="1" opacity="0.75" />
			</g>
			<g>
				<title>Pribosyltran (PF00156)
"Phosphoribosyl transferase domain"</title>
				<polygon class="PF00156" points="274,28 274,28 286,40 286,40 274,52 274,52" stroke-linejoin="round" width="12" height="24" fill="rgb(210,210,74)" stroke="rgb(168,168,59)" stroke-width="1" opacity="0.75" />
			</g>
		</g>
		<g>
			<title> (ctg95_17)</title>
			<polygon class=" (ctg95_17)" points="301,40 310,10 310,70" fill="rgb(255,255,255)" fill-opacity="1.0" stroke="rgb(0,0,0)" stroke-width="2"  />
			<g>
				<title>DUF1816 (PF08846)
"Domain of unknown function (DUF1816)"</title>
				<polygon class="PF08846" points="304,40 308,28 309,28 309,52 308,52" stroke-linejoin="round" width="6" height="24" fill="rgb(196,184,64)" stroke="rgb(156,147,51)" stroke-width="1" opacity="0.75" />
			</g>
		</g>
		<g>
			<title> (ctg95_18)</title>
			<polygon class=" (ctg95_18)" points="314,40 342,10 342,70" fill="rgb(255,255,255)" fill-opacity="1.0" stroke="rgb(0,0,0)" stroke-width="2"  />
			<g>
				<title>SpoU_methylase (PF00588)
"SpoU rRNA Methylase family"</title>
				<polygon class="PF00588" points="318,40 329,29 329,51" stroke-linejoin="round" width="14" height="24" fill="rgb(84,205,178)" stroke="rgb(67,164,142)" stroke-width="1" opacity="0.75" />
			</g>
			<g>
				<title>SpoU_sub_bind (PF08032)
"RNA 2'-O ribose methyltransferase substrate binding"</title>
				<rect class="PF08032" x="331" y="28" stroke-linejoin="round" width="7" height="24" fill="rgb(99,204,143)" stroke="rgb(79,163,114)" stroke-width="1" opacity="0.75" />
			</g>
		</g>
		<g>
			<title> (ctg95_19)</title>
			<polygon class=" (ctg95_19)" points="345,40 358,10 358,70" fill="rgb(255,255,255)" fill-opacity="1.0" stroke="rgb(0,0,0)" stroke-width="2"  />
			<g>
				<title>Ribonuclease_3 (PF00636)
"Ribonuclease III domain"</title>
				<polygon class="PF00636" points="348,40 354,28 355,28 355,52 354,52" stroke-linejoin="round" width="9" height="24" fill="rgb(129,202,92)" stroke="rgb(103,161,73)" stroke-width="1" opacity="0.75" />
			</g>
		</g>
		<g>
			<title> (ctg95_20)</title>
			<polygon class=" (ctg95_20)" points="359,40 370,10 370,70" fill="rgb(255,255,255)" fill-opacity="1.0" stroke="rgb(0,0,0)" stroke-width="2"  />
			<g>
				<title>STAS (PF01740)
"STAS domain"</title>
				<polygon class="PF01740" points="362,40 367,28 369,28 369,52 367,52" stroke-linejoin="round" width="10" height="24" fill="rgb(219,58,116)" stroke="rgb(175,46,92)" stroke-width="1" opacity="0.75" />
			</g>
		</g>
		<g>
			<title> (ctg95_21)</title>
			<polygon class=" (ctg95_21)" points="411,25 403,25 403,10 373,40 403,70 403,55 411,55" fill="rgb(255,255,255)" fill-opacity="1.0" stroke="rgb(0,0,0)" stroke-width="2"  />
			<g>
				<title>GATase (PF00117)
"Glutamine amidotransferase class-I"</title>
				<polygon class="PF00117" points="377,40 389,28 391,28 391,52 389,52" stroke-linejoin="round" width="17" height="24" fill="rgb(159,201,96)" stroke="rgb(127,160,76)" stroke-width="1" opacity="0.75" />
			</g>
			<g>
				<title>CPSase_sm_chain (PF00988)
"Carbamoyl-phosphate synthase small chain, CPSase domain"</title>
				<rect class="PF00988" x="397" y="28" stroke-linejoin="round" width="12" height="24" fill="rgb(183,185,63)" stroke="rgb(146,148,50)" stroke-width="1" opacity="0.75" />
			</g>
		</g>
		<g>
			<title> (ctg95_22)</title>
			<polygon class=" (ctg95_22)" points="418,10 447,40 418,70" fill="rgb(255,255,255)" fill-opacity="1.0" stroke="rgb(0,0,0)" stroke-width="2"  />
		</g>
		<g>
			<title> (ctg95_23)</title>
			<polygon class=" (ctg95_23)" points="456,25 517,25 517,10 547,40 517,70 517,55 456,55" fill="rgb(255,255,255)" fill-opacity="1.0" stroke="rgb(0,0,0)" stroke-width="2"  />
			<g>
				<title>AAA_35 (PF14516)
"AAA-like domain"</title>
				<rect class="PF14516" x="457" y="28" stroke-linejoin="round" width="34" height="24" fill="rgb(134,192,86)" stroke="rgb(107,153,68)" stroke-width="1" opacity="0.75" />
			</g>
			<g>
				<title>Peripla_BP_6 (PF13458)
"Periplasmic binding protein"</title>
				<polygon class="PF13458" points="510,28 530,28 542,40 530,52 510,52" stroke-linejoin="round" width="34" height="24" fill="rgb(94,183,81)" stroke="rgb(75,146,64)" stroke-width="1" opacity="0.75" />
			</g>
		</g>
		<g>
			<title> (ctg95_24)</title>
			<polygon class=" (ctg95_24)" points="595,25 577,25 577,10 547,40 577,70 577,55 595,55" fill="rgb(255,255,255)" fill-opacity="1.0" stroke="rgb(0,0,0)" stroke-width="2"  />
			<g>
				<title>AAA_35 (PF14516)
"AAA-like domain"</title>
				<polygon class="PF14516" points="551,40 563,28 580,28 580,52 563,52" stroke-linejoin="round" width="33" height="24" fill="rgb(134,192,86)" stroke="rgb(107,153,68)" stroke-width="1" opacity="0.75" />
			</g>
			<g>
				<title>EAD4 (PF19959)
"Effector-associated domain 4"</title>
				<rect class="PF19959" x="582" y="28" stroke-linejoin="round" width="11" height="24" fill="rgb(103,71,187)" stroke="rgb(82,56,149)" stroke-width="1" opacity="0.75" />
			</g>
		</g>
		<g>
			<title> (ctg95_25)</title>
			<polygon class=" (ctg95_25)" points="619,25 620,25 620,10 650,40 620,70 620,55 619,55" fill="rgb(255,255,255)" fill-opacity="1.0" stroke="rgb(0,0,0)" stroke-width="2"  />
			<g>
				<title>Glyoxalase (PF00903)
"Glyoxalase/Bleomycin resistance protein/Dioxygenase superfamily"</title>
				<polygon class="PF00903" points="634,29 645,40 634,51" stroke-linejoin="round" width="12" height="24" fill="rgb(50,162,189)" stroke="rgb(40,129,151)" stroke-width="1" opacity="0.75" />
			</g>
		</g>
		<g>
			<title> (ctg95_26)</title>
			<polygon class=" (ctg95_26)" points="651,10 673,40 651,70" fill="rgb(255,255,255)" fill-opacity="1.0" stroke="rgb(0,0,0)" stroke-width="2"  />
			<g>
				<title>Nitroreductase (PF00881)
"Nitroreductase family"</title>
				<polygon class="PF00881" points="651,28 660,28 668,39 668,41 660,52 651,52" stroke-linejoin="round" width="17" height="24" fill="rgb(79,118,187)" stroke="rgb(63,94,149)" stroke-width="1" opacity="0.75" />
			</g>
		</g>
		<g>
			<title> (ctg95_27)</title>
			<polygon class=" (ctg95_27)" points="676,25 772,25 772,10 802,40 772,70 772,55 676,55" fill="rgb(255,255,255)" fill-opacity="1.0" stroke="rgb(0,0,0)" stroke-width="2"  />
			<g>
				<title>AMP-binding (PF00501)
"AMP-binding enzyme"</title>
				<rect class="PF00501" x="678" y="28" stroke-linejoin="round" width="44" height="24" fill="rgb(60,217,223)" stroke="rgb(48,173,178)" stroke-width="1" opacity="0.75" />
			</g>
			<g>
				<title>Acyl-CoA_dh_N (PF02771)
"Acyl-CoA dehydrogenase, N-terminal domain"</title>
				<rect class="PF02771" x="735" y="28" stroke-linejoin="round" width="11" height="24" fill="rgb(105,135,218)" stroke="rgb(84,108,174)" stroke-width="1" opacity="0.75" />
			</g>
			<g>
				<title>Acyl-CoA_dh_M (PF02770)
"Acyl-CoA dehydrogenase, middle domain"</title>
				<rect class="PF02770" x="746" y="28" stroke-linejoin="round" width="9" height="24" fill="rgb(225,186,97)" stroke="rgb(180,148,77)" stroke-width="1" opacity="0.75" />
			</g>
			<g>
				<title>Acyl-CoA_dh_1 (PF00441)
"Acyl-CoA dehydrogenase, C-terminal domain"</title>
				<rect class="PF00441" x="757" y="28" stroke-linejoin="round" width="15" height="24" fill="rgb(85,191,117)" stroke="rgb(68,152,93)" stroke-width="1" opacity="0.75" />
			</g>
			<g>
				<title>PP-binding (PF00550)
"Phosphopantetheine attachment site"</title>
				<polygon class="PF00550" points="792,34 798,40 798,40 792,46" stroke-linejoin="round" width="6" height="24" fill="rgb(103,191,88)" stroke="rgb(82,152,70)" stroke-width="1" opacity="0.75" />
			</g>
		</g>
		<g>
			<title> (ctg95_28)</title>
			<polygon class=" (ctg95_28)" points="809,25 960,25 960,10 990,40 960,70 960,55 809,55" fill="rgb(255,255,255)" fill-opacity="1.0" stroke="rgb(0,0,0)" stroke-width="2"  />
			<g>
				<title>ketoacyl-synt (PF00109)
"Beta-ketoacyl synthase, N-terminal domain"</title>
				<rect class="PF00109" x="811" y="28" stroke-linejoin="round" width="25" height="24" fill="rgb(112,116,228)" stroke="rgb(89,92,182)" stroke-width="1" opacity="0.75" />
			</g>
			<g>
				<title>Ketoacyl-synt_C (PF02801)
"Beta-ketoacyl synthase, C-terminal domain"</title>
				<rect class="PF02801" x="837" y="28" stroke-linejoin="round" width="11" height="24" fill="rgb(215,78,102)" stroke="rgb(172,62,81)" stroke-width="1" opacity="0.75" />
			</g>
			<g>
				<title>KAsynt_C_assoc (PF16197)
"Ketoacyl-synthetase C-terminal extension"</title>
				<rect class="PF16197" x="849" y="28" stroke-linejoin="round" width="11" height="24" fill="rgb(240,150,172)" stroke="rgb(192,120,137)" stroke-width="1" opacity="0.75" />
			</g>
			<g>
				<title>Acyl_transf_1 (PF00698)
"Acyl transferase domain"</title>
				<rect class="PF00698" x="864" y="28" stroke-linejoin="round" width="31" height="24" fill="rgb(59,176,209)" stroke="rgb(47,140,167)" stroke-width="1" opacity="0.75" />
			</g>
			<g>
				<title>PS-DH (PF14765)
"Polyketide synthase dehydratase"</title>
				<rect class="PF14765" x="900" y="28" stroke-linejoin="round" width="27" height="24" fill="rgb(173,56,182)" stroke="rgb(138,44,145)" stroke-width="1" opacity="0.75" />
			</g>
			<g>
				<title>KR (PF08659)
"KR domain"</title>
				<rect class="PF08659" x="950" y="28" stroke-linejoin="round" width="17" height="24" fill="rgb(66,209,188)" stroke="rgb(52,167,150)" stroke-width="1" opacity="0.75" />
			</g>
			<g>
				<title>PP-binding (PF00550)
"Phosphopantetheine attachment site"</title>
				<polygon class="PF00550" points="978,32 984,38 984,42 978,48" stroke-linejoin="round" width="6" height="24" fill="rgb(103,191,88)" stroke="rgb(82,152,70)" stroke-width="1" opacity="0.75" />
			</g>
		</g>
		<g>
			<title> (ctg95_29)</title>
			<polygon class=" (ctg95_29)" points="992,25 1094,25 1094,10 1124,40 1094,70 1094,55 992,55" fill="rgb(255,255,255)" fill-opacity="1.0" stroke="rgb(0,0,0)" stroke-width="2"  />
			<g>
				<title>ketoacyl-synt (PF00109)
"Beta-ketoacyl synthase, N-terminal domain"</title>
				<rect class="PF00109" x="995" y="28" stroke-linejoin="round" width="25" height="24" fill="rgb(112,116,228)" stroke="rgb(89,92,182)" stroke-width="1" opacity="0.75" />
			</g>
			<g>
				<title>Ketoacyl-synt_C (PF02801)
"Beta-ketoacyl synthase, C-terminal domain"</title>
				<rect class="PF02801" x="1021" y="28" stroke-linejoin="round" width="11" height="24" fill="rgb(215,78,102)" stroke="rgb(172,62,81)" stroke-width="1" opacity="0.75" />
			</g>
			<g>
				<title>KAsynt_C_assoc (PF16197)
"Ketoacyl-synthetase C-terminal extension"</title>
				<rect class="PF16197" x="1033" y="28" stroke-linejoin="round" width="11" height="24" fill="rgb(240,150,172)" stroke="rgb(192,120,137)" stroke-width="1" opacity="0.75" />
			</g>
			<g>
				<title>Acyl_transf_1 (PF00698)
"Acyl transferase domain"</title>
				<rect class="PF00698" x="1048" y="28" stroke-linejoin="round" width="31" height="24" fill="rgb(59,176,209)" stroke="rgb(47,140,167)" stroke-width="1" opacity="0.75" />
			</g>
			<g>
				<title>PP-binding (PF00550)
"Phosphopantetheine attachment site"</title>
				<rect class="PF00550" x="1088" y="28" stroke-linejoin="round" width="6" height="24" fill="rgb(103,191,88)" stroke="rgb(82,152,70)" stroke-width="1" opacity="0.75" />
			</g>
			<g>
				<title>Thioesterase (PF00975)
"Thioesterase domain"</title>
				<polygon class="PF00975" points="1100,28 1107,28 1119,40 1107,52 1100,52" stroke-linejoin="round" width="22" height="24" fill="rgb(207,80,138)" stroke="rgb(165,63,110)" stroke-width="1" opacity="0.75" />
			</g>
		</g>
		<g>
			<title> (ctg95_30)</title>
			<polygon class=" (ctg95_30)" points="1125,25 1139,25 1139,10 1169,40 1139,70 1139,55 1125,55" fill="rgb(255,255,255)" fill-opacity="1.0" stroke="rgb(0,0,0)" stroke-width="2"  />
			<g>
				<title>FMO-like (PF00743)
"Flavin-binding monooxygenase-like"</title>
				<polygon class="PF00743" points="1125,28 1152,28 1164,40 1152,52 1125,52" stroke-linejoin="round" width="43" height="24" fill="rgb(203,74,151)" stroke="rgb(162,59,120)" stroke-width="1" opacity="0.75" />
			</g>
		</g>
		<g>
			<title> (ctg95_31)</title>
			<polygon class=" (ctg95_31)" points="1171,25 1180,25 1180,10 1210,40 1180,70 1180,55 1171,55" fill="rgb(255,255,255)" fill-opacity="1.0" stroke="rgb(0,0,0)" stroke-width="2"  />
			<g>
				<title>FAE1_CUT1_RppA (PF08392)
"FAE1/Type III polyketide synthase-like protein"</title>
				<rect class="PF08392" x="1179" y="28" stroke-linejoin="round" width="11" height="24" fill="rgb(70,220,135)" stroke="rgb(56,176,108)" stroke-width="1" opacity="0.75" />
			</g>
			<g>
				<title>Chal_sti_synt_C (PF02797)
"Chalcone and stilbene synthases, C-terminal domain"</title>
				<polygon class="PF02797" points="1196,31 1205,40 1196,49" stroke-linejoin="round" width="14" height="24" fill="rgb(139,212,63)" stroke="rgb(111,169,50)" stroke-width="1" opacity="0.75" />
			</g>
		</g>
		<g>
			<title> (ctg95_32)</title>
			<polygon class=" (ctg95_32)" points="1210,10 1230,40 1210,70" fill="rgb(255,255,255)" fill-opacity="1.0" stroke="rgb(0,0,0)" stroke-width="2"  />
			<g>
				<title>ICMT (PF04140)
"Isoprenylcysteine carboxyl methyltransferase (ICMT) family"</title>
				<polygon class="PF04140" points="1217,28 1218,28 1226,40 1226,40 1218,52 1217,52" stroke-linejoin="round" width="9" height="24" fill="rgb(100,223,104)" stroke="rgb(80,178,83)" stroke-width="1" opacity="0.75" />
			</g>
		</g>
		<g>
			<title> (ctg95_33)</title>
			<polygon class=" (ctg95_33)" points="1233,25 1257,25 1257,10 1287,40 1257,70 1257,55 1233,55" fill="rgb(255,255,255)" fill-opacity="1.0" stroke="rgb(0,0,0)" stroke-width="2"  />
			<g>
				<title>FAD_binding_4 (PF01565)
"FAD binding domain"</title>
				<rect class="PF01565" x="1238" y="28" stroke-linejoin="round" width="14" height="24" fill="rgb(226,88,136)" stroke="rgb(180,70,108)" stroke-width="1" opacity="0.75" />
			</g>
		</g>
		<g>
			<title> (ctg95_34)</title>
			<polygon class=" (ctg95_34)" points="1289,25 1302,25 1302,10 1332,40 1302,70 1302,55 1289,55" fill="rgb(255,255,255)" fill-opacity="1.0" stroke="rgb(0,0,0)" stroke-width="2"  />
			<g>
				<title>MFS_2 (PF13347)
"MFS/sugar transport protein"</title>
				<polygon class="PF13347" points="1290,28 1316,28 1328,40 1316,52 1290,52" stroke-linejoin="round" width="40" height="24" fill="rgb(68,198,83)" stroke="rgb(54,158,66)" stroke-width="1" opacity="0.75" />
			</g>
		</g>
		<g>
			<title> (ctg95_35)</title>
			<polygon class=" (ctg95_35)" points="1334,25 1349,25 1349,10 1379,40 1349,70 1349,55 1334,55" fill="rgb(255,255,255)" fill-opacity="1.0" stroke="rgb(0,0,0)" stroke-width="2"  />
			<g>
				<title>HlyD_3 (PF13437)
"HlyD family secretion protein"</title>
				<polygon class="PF13437" points="1360,28 1362,28 1370,36 1370,44 1362,52 1360,52" stroke-linejoin="round" width="10" height="24" fill="rgb(82,200,102)" stroke="rgb(65,160,81)" stroke-width="1" opacity="0.75" />
			</g>
		</g>
		<g>
			<title> (ctg95_36)</title>
			<polygon class=" (ctg95_36)" points="1381,25 1454,25 1454,10 1484,40 1454,70 1454,55 1381,55" fill="rgb(255,255,255)" fill-opacity="1.0" stroke="rgb(0,0,0)" stroke-width="2"  />
			<g>
				<title>ACR_tran (PF00873)
"AcrB/AcrD/AcrF family"</title>
				<polygon class="PF00873" points="1381,28 1468,28 1480,40 1468,52 1381,52" stroke-linejoin="round" width="101" height="24" fill="rgb(63,191,60)" stroke="rgb(50,152,48)" stroke-width="1" opacity="0.75" />
			</g>
		</g>
		<g>
			<title> (ctg95_37)</title>
			<polygon class=" (ctg95_37)" points="1499,10 1525,40 1499,70" fill="rgb(255,255,255)" fill-opacity="1.0" stroke="rgb(0,0,0)" stroke-width="2"  />
			<g>
				<title>Pentapeptide (PF00805)
"Pentapeptide repeats (8 copies)"</title>
				<rect class="PF00805" x="1506" y="28" stroke-linejoin="round" width="3" height="24" fill="rgb(186,52,164)" stroke="rgb(148,41,131)" stroke-width="1" opacity="0.75" />
			</g>
			<g>
				<title>Pentapeptide (PF00805)
"Pentapeptide repeats (8 copies)"</title>
				<polygon class="PF00805" points="1515,34 1518,37 1518,43 1515,46" stroke-linejoin="round" width="3" height="24" fill="rgb(186,52,164)" stroke="rgb(148,41,131)" stroke-width="1" opacity="0.75" />
			</g>
			<g>
				<title>Pentapeptide (PF00805)
"Pentapeptide repeats (8 copies)"</title>
				<polygon class="PF00805" points="1519,38 1521,40 1519,42" stroke-linejoin="round" width="3" height="24" fill="rgb(186,52,164)" stroke="rgb(148,41,131)" stroke-width="1" opacity="0.75" />
			</g>
		</g>
		<g>
			<title> (ctg95_38)</title>
			<polygon class=" (ctg95_38)" points="1526,40 1543,10 1543,70" fill="rgb(255,255,255)" fill-opacity="1.0" stroke="rgb(0,0,0)" stroke-width="2"  />
		</g>
		<g>
			<title> (ctg95_39)</title>
			<polygon class=" (ctg95_39)" points="1550,40 1561,10 1561,70" fill="rgb(255,255,255)" fill-opacity="1.0" stroke="rgb(0,0,0)" stroke-width="2"  />
			<g>
				<title>NdhM (PF10664)
"Cyanobacterial and plastid NDH-1 subunit M"</title>
				<polygon class="PF10664" points="1553,40 1557,28 1560,28 1560,52 1557,52" stroke-linejoin="round" width="10" height="24" fill="rgb(57,176,203)" stroke="rgb(45,140,162)" stroke-width="1" opacity="0.75" />
			</g>
		</g>
		<g>
			<title> (ctg95_40)</title>
			<polygon class=" (ctg95_40)" points="1571,10 1580,40 1571,70" fill="rgb(255,255,255)" fill-opacity="1.0" stroke="rgb(0,0,0)" stroke-width="2"  />
			<g>
				<title>Ribosomal_S15 (PF00312)
"Ribosomal protein S15"</title>
				<polygon class="PF00312" points="1571,28 1572,28 1576,40 1572,52 1571,52" stroke-linejoin="round" width="8" height="24" fill="rgb(176,72,186)" stroke="rgb(140,57,148)" stroke-width="1" opacity="0.75" />
			</g>
		</g>
		<g>
			<title> (ctg95_41)</title>
			<polygon class=" (ctg95_41)" points="1581,10 1596,40 1581,70" fill="rgb(255,255,255)" fill-opacity="1.0" stroke="rgb(0,0,0)" stroke-width="2"  />
			<g>
				<title>DUF3464 (PF11947)
"Photosynthesis affected mutant 68"</title>
				<polygon class="PF11947" points="1581,28 1586,28 1593,40 1586,52 1581,52" stroke-linejoin="round" width="13" height="24" fill="rgb(199,90,182)" stroke="rgb(159,72,145)" stroke-width="1" opacity="0.75" />
			</g>
		</g>
		<g>
			<title> (ctg95_42)</title>
			<polygon class=" (ctg95_42)" points="1598,25 1603,25 1603,10 1633,40 1603,70 1603,55 1598,55" fill="rgb(255,255,255)" fill-opacity="1.0" stroke="rgb(0,0,0)" stroke-width="2"  />
			<g>
				<title>DAHP_snth_FXD (PF18152)
"DAHP synthase ferredoxin-like domain"</title>
				<rect class="PF18152" x="1598" y="28" stroke-linejoin="round" width="6" height="24" fill="rgb(80,206,228)" stroke="rgb(64,164,182)" stroke-width="1" opacity="0.75" />
			</g>
			<g>
				<title>DAHP_synth_1 (PF00793)
"DAHP synthetase I family"</title>
				<polygon class="PF00793" points="1606,28 1616,28 1628,40 1616,52 1606,52" stroke-linejoin="round" width="25" height="24" fill="rgb(223,103,208)" stroke="rgb(178,82,166)" stroke-width="1" opacity="0.75" />
			</g>
		</g>
		<g>
			<title> (ctg95_43)</title>
			<polygon class=" (ctg95_43)" points="1635,10 1656,40 1635,70" fill="rgb(255,255,255)" fill-opacity="1.0" stroke="rgb(0,0,0)" stroke-width="2"  />
			<g>
				<title>Uma2 (PF05685)
"Putative restriction endonuclease"</title>
				<polygon class="PF05685" points="1637,28 1644,28 1653,40 1653,40 1644,52 1637,52" stroke-linejoin="round" width="16" height="24" fill="rgb(123,107,219)" stroke="rgb(98,85,175)" stroke-width="1" opacity="0.75" />
			</g>
		</g>
		<g>
			<title> (ctg95_44)</title>
			<polygon class=" (ctg95_44)" points="1658,10 1676,40 1658,70" fill="rgb(255,255,255)" fill-opacity="1.0" stroke="rgb(0,0,0)" stroke-width="2"  />
			<g>
				<title>Uma2 (PF05685)
"Putative restriction endonuclease"</title>
				<polygon class="PF05685" points="1660,28 1665,28 1673,40 1665,52 1660,52" stroke-linejoin="round" width="16" height="24" fill="rgb(123,107,219)" stroke="rgb(98,85,175)" stroke-width="1" opacity="0.75" />
			</g>
		</g>
		<g>
			<title> (ctg95_45)</title>
			<polygon class=" (ctg95_45)" points="1685,25 1700,25 1700,10 1730,40 1700,70 1700,55 1685,55" fill="rgb(255,255,255)" fill-opacity="1.0" stroke="rgb(0,0,0)" stroke-width="2"  />
			<g>
				<title>TIR_2 (PF13676)
"TIR domain"</title>
				<rect class="PF13676" x="1685" y="28" stroke-linejoin="round" width="12" height="24" fill="rgb(87,220,58)" stroke="rgb(69,176,46)" stroke-width="1" opacity="0.75" />
			</g>
			<g>
				<title>FGE-sulfatase (PF03781)
"Sulfatase-modifying factor enzyme 1"</title>
				<polygon class="PF03781" points="1704,28 1714,28 1726,40 1714,52 1704,52" stroke-linejoin="round" width="25" height="24" fill="rgb(206,81,170)" stroke="rgb(164,64,136)" stroke-width="1" opacity="0.75" />
			</g>
		</g>
		<g>
			<title> (ctg95_46)</title>
			<polygon class=" (ctg95_46)" points="1799,25 1770,25 1770,10 1740,40 1770,70 1770,55 1799,55" fill="rgb(255,255,255)" fill-opacity="1.0" stroke="rgb(0,0,0)" stroke-width="2"  />
			<g>
				<title>tRNA-synt_2 (PF00152)
"tRNA synthetases class II (D, K and N)"</title>
				<polygon class="PF00152" points="1744,40 1756,28 1787,28 1787,52 1756,52" stroke-linejoin="round" width="44" height="24" fill="rgb(90,71,190)" stroke="rgb(72,56,152)" stroke-width="1" opacity="0.75" />
			</g>
			<g>
				<title>tRNA_anti-codon (PF01336)
"OB-fold nucleic acid binding domain"</title>
				<rect class="PF01336" x="1789" y="28" stroke-linejoin="round" width="8" height="24" fill="rgb(215,103,173)" stroke="rgb(172,82,138)" stroke-width="1" opacity="0.75" />
			</g>
		</g>
		<g>
			<title> (ctg95_47)</title>
			<polygon class=" (ctg95_47)" points="1811,10 1837,40 1811,70" fill="rgb(255,255,255)" fill-opacity="1.0" stroke="rgb(0,0,0)" stroke-width="2"  />
			<g>
				<title>HpcH_HpaI (PF03328)
"HpcH/HpaI aldolase/citrate lyase family"</title>
				<polygon class="PF03328" points="1816,28 1823,28 1828,35 1828,45 1823,52 1816,52" stroke-linejoin="round" width="12" height="24" fill="rgb(81,183,94)" stroke="rgb(64,146,75)" stroke-width="1" opacity="0.75" />
			</g>
		</g>
		<g>
			<title> (ctg95_48)</title>
			<polygon class=" (ctg95_48)" points="1845,10 1851,40 1845,70" fill="rgb(255,255,255)" fill-opacity="1.0" stroke="rgb(0,0,0)" stroke-width="2"  />
		</g>
		<g>
			<title> (ctg95_49)</title>
			<polygon class=" (ctg95_49)" points="1848,40 1860,10 1860,70" fill="rgb(255,255,255)" fill-opacity="1.0" stroke="rgb(0,0,0)" stroke-width="2"  />
		</g>
	</g>
</svg>
