<svg version="1.1" baseProfile="full" xmlns="http://www.w3.org/2000/svg" width="1188.4666666666667" height="80">
	<g>
		<line x1="10" y1="40.0" x2="1178.4666666666667" y2="40.0" style="stroke:rgb(70,70,70); stroke-width:3 "/>
		<g>
			<title> (ctg385_8)</title>
			<polygon class=" (ctg385_8)" points="41,10 54,40 41,70" fill="rgb(255,255,255)" fill-opacity="1.0" stroke="rgb(0,0,0)" stroke-width="2"  />
		</g>
		<g>
			<title> (ctg385_9)</title>
			<polygon class=" (ctg385_9)" points="55,40 71,10 71,70" fill="rgb(255,255,255)" fill-opacity="1.0" stroke="rgb(0,0,0)" stroke-width="2"  />
			<g>
				<title>DrsE (PF02635)
"DsrE/DsrF-like family"</title>
				<polygon class="PF02635" points="58,40 64,28 66,28 66,52 64,52" stroke-linejoin="round" width="11" height="24" fill="rgb(60,184,153)" stroke="rgb(48,147,122)" stroke-width="1" opacity="0.75" />
			</g>
		</g>
		<g>
			<title> (ctg385_10)</title>
			<polygon class=" (ctg385_10)" points="95,25 123,25 123,10 153,40 123,70 123,55 95,55" fill="rgb(255,255,255)" fill-opacity="1.0" stroke="rgb(0,0,0)" stroke-width="2"  />
			<g>
				<title>KdpA (PF03814)
"Potassium-transporting ATPase A subunit"</title>
				<polygon class="PF03814" points="95,28 136,28 148,40 136,52 95,52" stroke-linejoin="round" width="56" height="24" fill="rgb(220,180,109)" stroke="rgb(176,144,87)" stroke-width="1" opacity="0.75" />
			</g>
		</g>
		<g>
			<title> (ctg385_11)</title>
			<polygon class=" (ctg385_11)" points="157,40 176,10 176,70" fill="rgb(255,255,255)" fill-opacity="1.0" stroke="rgb(0,0,0)" stroke-width="2"  />
		</g>
		<g>
			<title> (ctg385_12)</title>
			<polygon class=" (ctg385_12)" points="195,10 224,40 195,70" fill="rgb(255,255,255)" fill-opacity="1.0" stroke="rgb(0,0,0)" stroke-width="2"  />
			<g>
				<title>Hydrolase (PF00702)
"haloacid dehalogenase-like hydrolase"</title>
				<polygon class="PF00702" points="195,28 208,28 209,29 209,51 208,52 195,52" stroke-linejoin="round" width="14" height="24" fill="rgb(68,220,102)" stroke="rgb(54,176,81)" stroke-width="1" opacity="0.75" />
			</g>
		</g>
		<g>
			<title> (ctg385_13)</title>
			<polygon class=" (ctg385_13)" points="225,25 235,25 235,10 265,40 235,70 235,55 225,55" fill="rgb(255,255,255)" fill-opacity="1.0" stroke="rgb(0,0,0)" stroke-width="2"  />
			<g>
				<title>RE_HindVP (PF09519)
"HindVP restriction endonuclease"</title>
				<rect class="PF09519" x="227" y="28" stroke-linejoin="round" width="7" height="24" fill="rgb(178,61,136)" stroke="rgb(142,48,108)" stroke-width="1" opacity="0.75" />
			</g>
			<g>
				<title>DNA_methylase (PF00145)
"C-5 cytosine-specific DNA methylase"</title>
				<polygon class="PF00145" points="234,28 249,28 254,33 254,47 249,52 234,52" stroke-linejoin="round" width="20" height="24" fill="rgb(154,197,70)" stroke="rgb(123,157,56)" stroke-width="1" opacity="0.75" />
			</g>
		</g>
		<g>
			<title> (ctg385_14)</title>
			<polygon class=" (ctg385_14)" points="280,10 301,40 280,70" fill="rgb(255,255,255)" fill-opacity="1.0" stroke="rgb(0,0,0)" stroke-width="2"  />
			<g>
				<title>KdpC (PF02669)
"K+-transporting ATPase, c chain"</title>
				<polygon class="PF02669" points="280,28 289,28 297,40 289,52 280,52" stroke-linejoin="round" width="20" height="24" fill="rgb(219,108,136)" stroke="rgb(175,86,108)" stroke-width="1" opacity="0.75" />
			</g>
		</g>
		<g>
			<title> (ctg385_15)</title>
			<polygon class=" (ctg385_15)" points="309,40 331,10 331,70" fill="rgb(255,255,255)" fill-opacity="1.0" stroke="rgb(0,0,0)" stroke-width="2"  />
			<g>
				<title>DUF218 (PF02698)
"DUF218 domain"</title>
				<polygon class="PF02698" points="313,40 322,28 326,28 326,52 322,52 313,40" stroke-linejoin="round" width="13" height="24" fill="rgb(60,150,205)" stroke="rgb(48,120,164)" stroke-width="1" opacity="0.75" />
			</g>
		</g>
		<g>
			<title> (ctg385_16)</title>
			<polygon class=" (ctg385_16)" points="421,25 362,25 362,10 332,40 362,70 362,55 421,55" fill="rgb(255,255,255)" fill-opacity="1.0" stroke="rgb(0,0,0)" stroke-width="2"  />
			<g>
				<title>DNA_gyraseA_C (PF03989)
"DNA gyrase C-terminal domain, beta-propeller"</title>
				<polygon class="PF03989" points="337,39 341,35 341,45 337,41" stroke-linejoin="round" width="4" height="24" fill="rgb(52,134,190)" stroke="rgb(41,107,152)" stroke-width="1" opacity="0.75" />
			</g>
			<g>
				<title>DNA_gyraseA_C (PF03989)
"DNA gyrase C-terminal domain, beta-propeller"</title>
				<polygon class="PF03989" points="342,34 346,30 346,50 342,46" stroke-linejoin="round" width="4" height="24" fill="rgb(52,134,190)" stroke="rgb(41,107,152)" stroke-width="1" opacity="0.75" />
			</g>
			<g>
				<title>DNA_gyraseA_C (PF03989)
"DNA gyrase C-terminal domain, beta-propeller"</title>
				<polygon class="PF03989" points="347,29 348,28 351,28 351,52 348,52 347,51" stroke-linejoin="round" width="4" height="24" fill="rgb(52,134,190)" stroke="rgb(41,107,152)" stroke-width="1" opacity="0.75" />
			</g>
			<g>
				<title>DNA_topoisoIV (PF00521)
"DNA gyrase/topoisomerase IV, subunit A"</title>
				<rect class="PF00521" x="373" y="28" stroke-linejoin="round" width="44" height="24" fill="rgb(196,204,77)" stroke="rgb(156,163,61)" stroke-width="1" opacity="0.75" />
			</g>
		</g>
		<g>
			<title> (ctg385_17)</title>
			<polygon class=" (ctg385_17)" points="424,10 437,40 424,70" fill="rgb(255,255,255)" fill-opacity="1.0" stroke="rgb(0,0,0)" stroke-width="2"  />
			<g>
				<title>Response_reg (PF00072)
"Response regulator receiver domain"</title>
				<polygon class="PF00072" points="424,28 428,28 434,40 428,52 424,52" stroke-linejoin="round" width="12" height="24" fill="rgb(100,107,203)" stroke="rgb(80,85,162)" stroke-width="1" opacity="0.75" />
			</g>
		</g>
		<g>
			<title> (ctg385_18)</title>
			<polygon class=" (ctg385_18)" points="440,40 463,10 463,70" fill="rgb(255,255,255)" fill-opacity="1.0" stroke="rgb(0,0,0)" stroke-width="2"  />
			<g>
				<title>Peptidase_M15 (PF01427)
"D-ala-D-ala dipeptidase"</title>
				<polygon class="PF01427" points="444,40 453,28 460,28 460,52 453,52" stroke-linejoin="round" width="20" height="24" fill="rgb(224,66,206)" stroke="rgb(179,52,164)" stroke-width="1" opacity="0.75" />
			</g>
		</g>
		<g>
			<title> (ctg385_19)</title>
			<polygon class=" (ctg385_19)" points="519,25 496,25 496,10 466,40 496,70 496,55 519,55" fill="rgb(255,255,255)" fill-opacity="1.0" stroke="rgb(0,0,0)" stroke-width="2"  />
			<g>
				<title>PAPS_reduct (PF01507)
"Phosphoadenosine phosphosulfate reductase family"</title>
				<rect class="PF01507" x="496" y="28" stroke-linejoin="round" width="19" height="24" fill="rgb(87,190,105)" stroke="rgb(69,152,83)" stroke-width="1" opacity="0.75" />
			</g>
		</g>
		<g>
			<title> (ctg385_20)</title>
			<polygon class=" (ctg385_20)" points="525,25 536,25 536,10 566,40 536,70 536,55 525,55" fill="rgb(255,255,255)" fill-opacity="1.0" stroke="rgb(0,0,0)" stroke-width="2"  />
			<g>
				<title>DndB (PF14072)
"DNA-sulfur modification-associated"</title>
				<polygon class="PF14072" points="529,28 550,28 562,40 550,52 529,52" stroke-linejoin="round" width="35" height="24" fill="rgb(96,58,198)" stroke="rgb(76,46,158)" stroke-width="1" opacity="0.75" />
			</g>
		</g>
		<g>
			<title> (ctg385_21)</title>
			<polygon class=" (ctg385_21)" points="572,40 596,10 596,70" fill="rgb(255,255,255)" fill-opacity="1.0" stroke="rgb(0,0,0)" stroke-width="2"  />
			<g>
				<title>adh_short_C2 (PF13561)
"Enoyl-(Acyl carrier protein) reductase"</title>
				<polygon class="PF13561" points="576,40 586,28 594,28 594,52 586,52" stroke-linejoin="round" width="22" height="24" fill="rgb(73,205,127)" stroke="rgb(58,164,101)" stroke-width="1" opacity="0.75" />
			</g>
		</g>
		<g>
			<title> (ctg385_22)</title>
			<polygon class=" (ctg385_22)" points="598,40 624,10 624,70" fill="rgb(255,255,255)" fill-opacity="1.0" stroke="rgb(0,0,0)" stroke-width="2"  />
			<g>
				<title>Methyltransf_11 (PF08241)
"Methyltransferase domain"</title>
				<polygon class="PF08241" points="608,33 613,28 617,28 617,52 613,52 608,47" stroke-linejoin="round" width="9" height="24" fill="rgb(106,219,159)" stroke="rgb(84,175,127)" stroke-width="1" opacity="0.75" />
			</g>
		</g>
		<g>
			<title> (ctg385_23)</title>
			<polygon class=" (ctg385_23)" points="651,40 668,10 668,70" fill="rgb(255,255,255)" fill-opacity="1.0" stroke="rgb(0,0,0)" stroke-width="2"  />
		</g>
		<g>
			<title> (ctg385_24)</title>
			<polygon class=" (ctg385_24)" points="817,25 706,25 706,10 676,40 706,70 706,55 817,55" fill="rgb(255,255,255)" fill-opacity="1.0" stroke="rgb(0,0,0)" stroke-width="2"  />
			<g>
				<title>Thioesterase (PF00975)
"Thioesterase domain"</title>
				<polygon class="PF00975" points="680,40 692,28 702,28 702,52 692,52" stroke-linejoin="round" width="26" height="24" fill="rgb(207,80,138)" stroke="rgb(165,63,110)" stroke-width="1" opacity="0.75" />
			</g>
			<g>
				<title>PP-binding (PF00550)
"Phosphopantetheine attachment site"</title>
				<rect class="PF00550" x="705" y="28" stroke-linejoin="round" width="6" height="24" fill="rgb(103,191,88)" stroke="rgb(82,152,70)" stroke-width="1" opacity="0.75" />
			</g>
			<g>
				<title>AMP-binding_C (PF13193)
"AMP-binding enzyme C-terminal domain"</title>
				<rect class="PF13193" x="714" y="28" stroke-linejoin="round" width="7" height="24" fill="rgb(182,50,118)" stroke="rgb(145,39,94)" stroke-width="1" opacity="0.75" />
			</g>
			<g>
				<title>AMP-binding (PF00501)
"AMP-binding enzyme"</title>
				<rect class="PF00501" x="722" y="28" stroke-linejoin="round" width="41" height="24" fill="rgb(60,217,223)" stroke="rgb(48,173,178)" stroke-width="1" opacity="0.75" />
			</g>
			<g>
				<title>Condensation (PF00668)
"Condensation domain"</title>
				<rect class="PF00668" x="765" y="28" stroke-linejoin="round" width="44" height="24" fill="rgb(224,184,98)" stroke="rgb(179,147,78)" stroke-width="1" opacity="0.75" />
			</g>
			<g>
				<title>TubC_N (PF18563)
"TubC N-terminal docking domain"</title>
				<rect class="PF18563" x="812" y="28" stroke-linejoin="round" width="5" height="24" fill="rgb(95,217,77)" stroke="rgb(75,173,61)" stroke-width="1" opacity="0.75" />
			</g>
		</g>
		<g>
			<title> (ctg385_25)</title>
			<polygon class=" (ctg385_25)" points="1178,25 854,25 854,10 824,40 854,70 854,55 1178,55" fill="rgb(255,255,255)" fill-opacity="1.0" stroke="rgb(0,0,0)" stroke-width="2"  />
			<g>
				<title>PP-binding (PF00550)
"Phosphopantetheine attachment site"</title>
				<polygon class="PF00550" points="828,40 832,36 832,44" stroke-linejoin="round" width="6" height="24" fill="rgb(103,191,88)" stroke="rgb(82,152,70)" stroke-width="1" opacity="0.75" />
			</g>
			<g>
				<title>Methyltransf_12 (PF08242)
"Methyltransferase domain"</title>
				<rect class="PF08242" x="864" y="28" stroke-linejoin="round" width="10" height="24" fill="rgb(187,59,115)" stroke="rgb(149,47,92)" stroke-width="1" opacity="0.75" />
			</g>
			<g>
				<title>AMP-binding (PF00501)
"AMP-binding enzyme"</title>
				<rect class="PF00501" x="887" y="28" stroke-linejoin="round" width="40" height="24" fill="rgb(60,217,223)" stroke="rgb(48,173,178)" stroke-width="1" opacity="0.75" />
			</g>
			<g>
				<title>Condensation (PF00668)
"Condensation domain"</title>
				<rect class="PF00668" x="929" y="28" stroke-linejoin="round" width="44" height="24" fill="rgb(224,184,98)" stroke="rgb(179,147,78)" stroke-width="1" opacity="0.75" />
			</g>
			<g>
				<title>PP-binding (PF00550)
"Phosphopantetheine attachment site"</title>
				<rect class="PF00550" x="976" y="28" stroke-linejoin="round" width="6" height="24" fill="rgb(103,191,88)" stroke="rgb(82,152,70)" stroke-width="1" opacity="0.75" />
			</g>
			<g>
				<title>AMP-binding_C (PF13193)
"AMP-binding enzyme C-terminal domain"</title>
				<rect class="PF13193" x="985" y="28" stroke-linejoin="round" width="7" height="24" fill="rgb(182,50,118)" stroke="rgb(145,39,94)" stroke-width="1" opacity="0.75" />
			</g>
			<g>
				<title>AMP-binding (PF00501)
"AMP-binding enzyme"</title>
				<rect class="PF00501" x="993" y="28" stroke-linejoin="round" width="41" height="24" fill="rgb(60,217,223)" stroke="rgb(48,173,178)" stroke-width="1" opacity="0.75" />
			</g>
			<g>
				<title>Condensation (PF00668)
"Condensation domain"</title>
				<rect class="PF00668" x="1036" y="28" stroke-linejoin="round" width="44" height="24" fill="rgb(224,184,98)" stroke="rgb(179,147,78)" stroke-width="1" opacity="0.75" />
			</g>
			<g>
				<title>PP-binding (PF00550)
"Phosphopantetheine attachment site"</title>
				<rect class="PF00550" x="1083" y="28" stroke-linejoin="round" width="6" height="24" fill="rgb(103,191,88)" stroke="rgb(82,152,70)" stroke-width="1" opacity="0.75" />
			</g>
			<g>
				<title>AMP-binding_C (PF13193)
"AMP-binding enzyme C-terminal domain"</title>
				<rect class="PF13193" x="1092" y="28" stroke-linejoin="round" width="7" height="24" fill="rgb(182,50,118)" stroke="rgb(145,39,94)" stroke-width="1" opacity="0.75" />
			</g>
			<g>
				<title>AMP-binding (PF00501)
"AMP-binding enzyme"</title>
				<rect class="PF00501" x="1101" y="28" stroke-linejoin="round" width="40" height="24" fill="rgb(60,217,223)" stroke="rgb(48,173,178)" stroke-width="1" opacity="0.75" />
			</g>
			<g>
				<title>Condensation (PF00668)
"Condensation domain"</title>
				<rect class="PF00668" x="1143" y="28" stroke-linejoin="round" width="34" height="24" fill="rgb(224,184,98)" stroke="rgb(179,147,78)" stroke-width="1" opacity="0.75" />
			</g>
		</g>
	</g>
</svg>
