<svg version="1.1" baseProfile="full" xmlns="http://www.w3.org/2000/svg" width="741.7333333333333" height="80">
	<g>
		<line x1="10" y1="40.0" x2="731.7333333333333" y2="40.0" style="stroke:rgb(70,70,70); stroke-width:3 "/>
		<g>
			<title> (ctg70_1)</title>
			<polygon class=" (ctg70_1)" points="10,40 21,10 21,70" fill="rgb(255,255,255)" fill-opacity="1.0" stroke="rgb(0,0,0)" stroke-width="2"  />
			<g>
				<title>Condensation (PF00668)
"Condensation domain"</title>
				<polygon class="PF00668" points="13,40 14,37 14,43" stroke-linejoin="round" width="4" height="24" fill="rgb(224,184,98)" stroke="rgb(179,147,78)" stroke-width="1" opacity="0.75" />
			</g>
			<g>
				<title>TubC_N (PF18563)
"TubC N-terminal docking domain"</title>
				<polygon class="PF18563" points="16,32 18,28 21,28 21,52 18,52 16,48" stroke-linejoin="round" width="5" height="24" fill="rgb(95,217,77)" stroke="rgb(75,173,61)" stroke-width="1" opacity="0.75" />
			</g>
		</g>
		<g>
			<title> (ctg70_2)</title>
			<polygon class=" (ctg70_2)" points="27,10 30,40 27,70" fill="rgb(255,255,255)" fill-opacity="1.0" stroke="rgb(0,0,0)" stroke-width="2"  />
		</g>
		<g>
			<title> (ctg70_3)</title>
			<polygon class=" (ctg70_3)" points="175,25 63,25 63,10 33,40 63,70 63,55 175,55" fill="rgb(255,255,255)" fill-opacity="1.0" stroke="rgb(0,0,0)" stroke-width="2"  />
			<g>
				<title>PP-binding (PF00550)
"Phosphopantetheine attachment site"</title>
				<polygon class="PF00550" points="37,40 42,35 42,45" stroke-linejoin="round" width="6" height="24" fill="rgb(103,191,88)" stroke="rgb(82,152,70)" stroke-width="1" opacity="0.75" />
			</g>
			<g>
				<title>KR (PF08659)
"KR domain"</title>
				<rect class="PF08659" x="56" y="28" stroke-linejoin="round" width="19" height="24" fill="rgb(66,209,188)" stroke="rgb(52,167,150)" stroke-width="1" opacity="0.75" />
			</g>
			<g>
				<title>AMP-binding (PF00501)
"AMP-binding enzyme"</title>
				<rect class="PF00501" x="112" y="28" stroke-linejoin="round" width="44" height="24" fill="rgb(60,217,223)" stroke="rgb(48,173,178)" stroke-width="1" opacity="0.75" />
			</g>
		</g>
		<g>
			<title> (ctg70_4)</title>
			<polygon class=" (ctg70_4)" points="196,10 201,40 196,70" fill="rgb(255,255,255)" fill-opacity="1.0" stroke="rgb(0,0,0)" stroke-width="2"  />
		</g>
		<g>
			<title> (ctg70_5)</title>
			<polygon class=" (ctg70_5)" points="210,10 236,40 210,70" fill="rgb(255,255,255)" fill-opacity="1.0" stroke="rgb(0,0,0)" stroke-width="2"  />
			<g>
				<title>SWIM (PF04434)
"SWIM zinc finger"</title>
				<polygon class="PF04434" points="220,28 222,28 224,31 224,49 222,52 220,52" stroke-linejoin="round" width="4" height="24" fill="rgb(76,197,68)" stroke="rgb(60,157,54)" stroke-width="1" opacity="0.75" />
			</g>
		</g>
		<g>
			<title> (ctg70_6)</title>
			<polygon class=" (ctg70_6)" points="325,25 270,25 270,10 240,40 270,70 270,55 325,55" fill="rgb(255,255,255)" fill-opacity="1.0" stroke="rgb(0,0,0)" stroke-width="2"  />
			<g>
				<title>Toprim_C_rpt (PF13368)
"Topoisomerase C-terminal repeat"</title>
				<polygon class="PF13368" points="244,40 247,37 247,43" stroke-linejoin="round" width="5" height="24" fill="rgb(146,209,96)" stroke="rgb(116,167,76)" stroke-width="1" opacity="0.75" />
			</g>
			<g>
				<title>Toprim_C_rpt (PF13368)
"Topoisomerase C-terminal repeat"</title>
				<polygon class="PF13368" points="249,35 254,30 254,50 249,45" stroke-linejoin="round" width="5" height="24" fill="rgb(146,209,96)" stroke="rgb(116,167,76)" stroke-width="1" opacity="0.75" />
			</g>
			<g>
				<title>Toprim_C_rpt (PF13368)
"Topoisomerase C-terminal repeat"</title>
				<polygon class="PF13368" points="255,29 256,28 261,28 261,52 256,52 255,51" stroke-linejoin="round" width="6" height="24" fill="rgb(146,209,96)" stroke="rgb(116,167,76)" stroke-width="1" opacity="0.75" />
			</g>
			<g>
				<title>Topoisom_bac (PF01131)
"DNA topoisomerase"</title>
				<rect class="PF01131" x="270" y="28" stroke-linejoin="round" width="43" height="24" fill="rgb(136,196,98)" stroke="rgb(108,156,78)" stroke-width="1" opacity="0.75" />
			</g>
			<g>
				<title>Toprim (PF01751)
"Toprim domain"</title>
				<rect class="PF01751" x="315" y="28" stroke-linejoin="round" width="9" height="24" fill="rgb(95,212,145)" stroke="rgb(76,169,116)" stroke-width="1" opacity="0.75" />
			</g>
		</g>
		<g>
			<title> (ctg70_7)</title>
			<polygon class=" (ctg70_7)" points="334,40 341,10 341,70" fill="rgb(255,255,255)" fill-opacity="1.0" stroke="rgb(0,0,0)" stroke-width="2"  />
		</g>
		<g>
			<title> (ctg70_8)</title>
			<polygon class=" (ctg70_8)" points="362,10 383,40 362,70" fill="rgb(255,255,255)" fill-opacity="1.0" stroke="rgb(0,0,0)" stroke-width="2"  />
			<g>
				<title>DUF938 (PF06080)
"Protein of unknown function (DUF938)"</title>
				<polygon class="PF06080" points="363,28 371,28 379,40 371,52 363,52" stroke-linejoin="round" width="19" height="24" fill="rgb(90,218,195)" stroke="rgb(72,174,156)" stroke-width="1" opacity="0.75" />
			</g>
		</g>
		<g>
			<title> (ctg70_9)</title>
			<polygon class=" (ctg70_9)" points="429,25 423,25 423,10 393,40 423,70 423,55 429,55" fill="rgb(255,255,255)" fill-opacity="1.0" stroke="rgb(0,0,0)" stroke-width="2"  />
			<g>
				<title>Sulfotransfer_3 (PF13469)
"Sulfotransferase family"</title>
				<polygon class="PF13469" points="397,40 409,28 422,28 422,52 409,52 397,40" stroke-linejoin="round" width="25" height="24" fill="rgb(59,182,84)" stroke="rgb(47,145,67)" stroke-width="1" opacity="0.75" />
			</g>
		</g>
		<g>
			<title> (ctg70_10)</title>
			<polygon class=" (ctg70_10)" points="475,25 459,25 459,10 429,40 459,70 459,55 475,55" fill="rgb(255,255,255)" fill-opacity="1.0" stroke="rgb(0,0,0)" stroke-width="2"  />
			<g>
				<title>Aminotran_3 (PF00202)
"Aminotransferase class-III"</title>
				<polygon class="PF00202" points="433,40 445,28 472,28 472,52 445,52" stroke-linejoin="round" width="40" height="24" fill="rgb(49,163,189)" stroke="rgb(39,130,151)" stroke-width="1" opacity="0.75" />
			</g>
		</g>
		<g>
			<title> (ctg70_11)</title>
			<polygon class=" (ctg70_11)" points="490,40 497,10 497,70" fill="rgb(255,255,255)" fill-opacity="1.0" stroke="rgb(0,0,0)" stroke-width="2"  />
			<g>
				<title>PSI_PsaE (PF02427)
"Photosystem I reaction centre subunit IV / PsaE"</title>
				<polygon class="PF02427" points="493,40 496,28 496,28 496,52 496,52" stroke-linejoin="round" width="6" height="24" fill="rgb(194,90,211)" stroke="rgb(155,72,168)" stroke-width="1" opacity="0.75" />
			</g>
		</g>
		<g>
			<title> (ctg70_12)</title>
			<polygon class=" (ctg70_12)" points="500,40 516,10 516,70" fill="rgb(255,255,255)" fill-opacity="1.0" stroke="rgb(0,0,0)" stroke-width="2"  />
			<g>
				<title>DUF6391 (PF19928)
"Domain of unknown function (DUF6391)"</title>
				<polygon class="PF19928" points="503,40 510,28 516,28 516,52 510,52" stroke-linejoin="round" width="14" height="24" fill="rgb(206,140,69)" stroke="rgb(164,112,55)" stroke-width="1" opacity="0.75" />
			</g>
		</g>
		<g>
			<title> (ctg70_13)</title>
			<polygon class=" (ctg70_13)" points="519,10 524,40 519,70" fill="rgb(255,255,255)" fill-opacity="1.0" stroke="rgb(0,0,0)" stroke-width="2"  />
		</g>
		<g>
			<title> (ctg70_14)</title>
			<polygon class=" (ctg70_14)" points="527,40 550,10 550,70" fill="rgb(255,255,255)" fill-opacity="1.0" stroke="rgb(0,0,0)" stroke-width="2"  />
			<g>
				<title>Methyltrans_RNA (PF04452)
"RNA methyltransferase"</title>
				<polygon class="PF04452" points="531,40 540,28 548,28 548,52 540,52" stroke-linejoin="round" width="21" height="24" fill="rgb(106,123,214)" stroke="rgb(84,98,171)" stroke-width="1" opacity="0.75" />
			</g>
		</g>
		<g>
			<title> (ctg70_15)</title>
			<polygon class=" (ctg70_15)" points="566,10 571,40 566,70" fill="rgb(255,255,255)" fill-opacity="1.0" stroke="rgb(0,0,0)" stroke-width="2"  />
		</g>
		<g>
			<title> (ctg70_16)</title>
			<polygon class=" (ctg70_16)" points="582,25 616,25 616,10 646,40 616,70 616,55 582,55" fill="rgb(255,255,255)" fill-opacity="1.0" stroke="rgb(0,0,0)" stroke-width="2"  />
			<g>
				<title>AAA_23 (PF13476)
"AAA domain"</title>
				<rect class="PF13476" x="582" y="28" stroke-linejoin="round" width="28" height="24" fill="rgb(57,185,214)" stroke="rgb(45,147,171)" stroke-width="1" opacity="0.75" />
			</g>
		</g>
		<g>
			<title> (ctg70_17)</title>
			<polygon class=" (ctg70_17)" points="647,10 660,40 647,70" fill="rgb(255,255,255)" fill-opacity="1.0" stroke="rgb(0,0,0)" stroke-width="2"  />
		</g>
		<g>
			<title> (ctg70_18)</title>
			<polygon class=" (ctg70_18)" points="662,40 670,10 670,70" fill="rgb(255,255,255)" fill-opacity="1.0" stroke="rgb(0,0,0)" stroke-width="2"  />
		</g>
		<g>
			<title> (ctg70_19)</title>
			<polygon class=" (ctg70_19)" points="670,40 692,10 692,70" fill="rgb(255,255,255)" fill-opacity="1.0" stroke="rgb(0,0,0)" stroke-width="2"  />
		</g>
		<g>
			<title> (ctg70_20)</title>
			<polygon class=" (ctg70_20)" points="696,40 709,10 709,70" fill="rgb(255,255,255)" fill-opacity="1.0" stroke="rgb(0,0,0)" stroke-width="2"  />
			<g>
				<title>Mo-nitro_C (PF06967)
"Mo-dependent nitrogenase C-terminus"</title>
				<polygon class="PF06967" points="699,40 704,28 704,28 704,52 704,52" stroke-linejoin="round" width="8" height="24" fill="rgb(145,105,228)" stroke="rgb(116,84,182)" stroke-width="1" opacity="0.75" />
			</g>
		</g>
		<g>
			<title> (ctg70_21)</title>
			<polygon class=" (ctg70_21)" points="725,40 731,10 731,70" fill="rgb(255,255,255)" fill-opacity="1.0" stroke="rgb(0,0,0)" stroke-width="2"  />
		</g>
	</g>
</svg>
