<svg version="1.1" baseProfile="full" xmlns="http://www.w3.org/2000/svg" width="1169.7333333333333" height="80">
	<g>
		<line x1="10" y1="40.0" x2="1159.7333333333333" y2="40.0" style="stroke:rgb(70,70,70); stroke-width:3 "/>
		<g>
			<title> (ctg68_1)</title>
			<polygon class=" (ctg68_1)" points="279,25 40,25 40,10 10,40 40,70 40,55 279,55" fill="rgb(255,255,255)" fill-opacity="1.0" stroke="rgb(0,0,0)" stroke-width="2"  />
			<g>
				<title>AMP-binding (PF00501)
"AMP-binding enzyme"</title>
				<polygon class="PF00501" points="14,40 17,37 17,43" stroke-linejoin="round" width="7" height="24" fill="rgb(60,217,223)" stroke="rgb(48,173,178)" stroke-width="1" opacity="0.75" />
			</g>
			<g>
				<title>Condensation (PF00668)
"Condensation domain"</title>
				<polygon class="PF00668" points="19,35 26,28 63,28 63,52 26,52 19,45" stroke-linejoin="round" width="44" height="24" fill="rgb(224,184,98)" stroke="rgb(179,147,78)" stroke-width="1" opacity="0.75" />
			</g>
			<g>
				<title>PP-binding (PF00550)
"Phosphopantetheine attachment site"</title>
				<rect class="PF00550" x="66" y="28" stroke-linejoin="round" width="6" height="24" fill="rgb(103,191,88)" stroke="rgb(82,152,70)" stroke-width="1" opacity="0.75" />
			</g>
			<g>
				<title>AMP-binding_C (PF13193)
"AMP-binding enzyme C-terminal domain"</title>
				<rect class="PF13193" x="75" y="28" stroke-linejoin="round" width="7" height="24" fill="rgb(182,50,118)" stroke="rgb(145,39,94)" stroke-width="1" opacity="0.75" />
			</g>
			<g>
				<title>AMP-binding (PF00501)
"AMP-binding enzyme"</title>
				<rect class="PF00501" x="83" y="28" stroke-linejoin="round" width="40" height="24" fill="rgb(60,217,223)" stroke="rgb(48,173,178)" stroke-width="1" opacity="0.75" />
			</g>
			<g>
				<title>Condensation (PF00668)
"Condensation domain"</title>
				<rect class="PF00668" x="126" y="28" stroke-linejoin="round" width="44" height="24" fill="rgb(224,184,98)" stroke="rgb(179,147,78)" stroke-width="1" opacity="0.75" />
			</g>
			<g>
				<title>PP-binding (PF00550)
"Phosphopantetheine attachment site"</title>
				<rect class="PF00550" x="172" y="28" stroke-linejoin="round" width="6" height="24" fill="rgb(103,191,88)" stroke="rgb(82,152,70)" stroke-width="1" opacity="0.75" />
			</g>
			<g>
				<title>AMP-binding_C (PF13193)
"AMP-binding enzyme C-terminal domain"</title>
				<rect class="PF13193" x="181" y="28" stroke-linejoin="round" width="8" height="24" fill="rgb(182,50,118)" stroke="rgb(145,39,94)" stroke-width="1" opacity="0.75" />
			</g>
			<g>
				<title>AMP-binding (PF00501)
"AMP-binding enzyme"</title>
				<rect class="PF00501" x="191" y="28" stroke-linejoin="round" width="41" height="24" fill="rgb(60,217,223)" stroke="rgb(48,173,178)" stroke-width="1" opacity="0.75" />
			</g>
			<g>
				<title>Condensation (PF00668)
"Condensation domain"</title>
				<rect class="PF00668" x="234" y="28" stroke-linejoin="round" width="44" height="24" fill="rgb(224,184,98)" stroke="rgb(179,147,78)" stroke-width="1" opacity="0.75" />
			</g>
		</g>
		<g>
			<title> (ctg68_2)</title>
			<polygon class=" (ctg68_2)" points="492,25 309,25 309,10 279,40 309,70 309,55 492,55" fill="rgb(255,255,255)" fill-opacity="1.0" stroke="rgb(0,0,0)" stroke-width="2"  />
			<g>
				<title>PP-binding (PF00550)
"Phosphopantetheine attachment site"</title>
				<polygon class="PF00550" points="283,40 287,36 287,44" stroke-linejoin="round" width="6" height="24" fill="rgb(103,191,88)" stroke="rgb(82,152,70)" stroke-width="1" opacity="0.75" />
			</g>
			<g>
				<title>AMP-binding_C (PF13193)
"AMP-binding enzyme C-terminal domain"</title>
				<polygon class="PF13193" points="290,33 295,28 297,28 297,52 295,52 290,47" stroke-linejoin="round" width="7" height="24" fill="rgb(182,50,118)" stroke="rgb(145,39,94)" stroke-width="1" opacity="0.75" />
			</g>
			<g>
				<title>AMP-binding (PF00501)
"AMP-binding enzyme"</title>
				<rect class="PF00501" x="298" y="28" stroke-linejoin="round" width="43" height="24" fill="rgb(60,217,223)" stroke="rgb(48,173,178)" stroke-width="1" opacity="0.75" />
			</g>
			<g>
				<title>Condensation (PF00668)
"Condensation domain"</title>
				<rect class="PF00668" x="344" y="28" stroke-linejoin="round" width="45" height="24" fill="rgb(224,184,98)" stroke="rgb(179,147,78)" stroke-width="1" opacity="0.75" />
			</g>
			<g>
				<title>Sulfotransfer_3 (PF13469)
"Sulfotransferase family"</title>
				<rect class="PF13469" x="398" y="28" stroke-linejoin="round" width="21" height="24" fill="rgb(59,182,84)" stroke="rgb(47,145,67)" stroke-width="1" opacity="0.75" />
			</g>
			<g>
				<title>PP-binding (PF00550)
"Phosphopantetheine attachment site"</title>
				<rect class="PF00550" x="425" y="28" stroke-linejoin="round" width="6" height="24" fill="rgb(103,191,88)" stroke="rgb(82,152,70)" stroke-width="1" opacity="0.75" />
			</g>
		</g>
		<g>
			<title> (ctg68_3)</title>
			<polygon class=" (ctg68_3)" points="495,40 516,10 516,70" fill="rgb(255,255,255)" fill-opacity="1.0" stroke="rgb(0,0,0)" stroke-width="2"  />
			<g>
				<title>Sulfotransfer_2 (PF03567)
"Sulfotransferase family"</title>
				<polygon class="PF03567" points="499,40 508,28 513,28 513,52 508,52" stroke-linejoin="round" width="18" height="24" fill="rgb(192,80,119)" stroke="rgb(153,64,95)" stroke-width="1" opacity="0.75" />
			</g>
		</g>
		<g>
			<title> (ctg68_4)</title>
			<polygon class=" (ctg68_4)" points="533,25 572,25 572,10 602,40 572,70 572,55 533,55" fill="rgb(255,255,255)" fill-opacity="1.0" stroke="rgb(0,0,0)" stroke-width="2"  />
			<g>
				<title>ABC_membrane_2 (PF06472)
"ABC transporter transmembrane region 2"</title>
				<rect class="PF06472" x="537" y="28" stroke-linejoin="round" width="25" height="24" fill="rgb(120,179,45)" stroke="rgb(96,143,36)" stroke-width="1" opacity="0.75" />
			</g>
			<g>
				<title>ABC_tran (PF00005)
"ABC transporter"</title>
				<rect class="PF00005" x="572" y="28" stroke-linejoin="round" width="13" height="24" fill="rgb(129,201,63)" stroke="rgb(103,160,50)" stroke-width="1" opacity="0.75" />
			</g>
		</g>
		<g>
			<title> (ctg68_5)</title>
			<polygon class=" (ctg68_5)" points="604,25 613,25 613,10 643,40 613,70 613,55 604,55" fill="rgb(255,255,255)" fill-opacity="1.0" stroke="rgb(0,0,0)" stroke-width="2"  />
			<g>
				<title>DUF6014 (PF19477)
"Family of unknown function (DUF6014)"</title>
				<polygon class="PF19477" points="604,28 626,28 638,40 626,52 604,52" stroke-linejoin="round" width="38" height="24" fill="rgb(198,112,85)" stroke="rgb(158,89,68)" stroke-width="1" opacity="0.75" />
			</g>
		</g>
		<g>
			<title> (ctg68_6)</title>
			<polygon class=" (ctg68_6)" points="655,25 692,25 692,10 722,40 692,70 692,55 655,55" fill="rgb(255,255,255)" fill-opacity="1.0" stroke="rgb(0,0,0)" stroke-width="2"  />
			<g>
				<title>Laminin_G_3 (PF13385)
"Concanavalin A-like lectin/glucanases superfamily"</title>
				<rect class="PF13385" x="656" y="28" stroke-linejoin="round" width="15" height="24" fill="rgb(93,162,213)" stroke="rgb(74,129,170)" stroke-width="1" opacity="0.75" />
			</g>
			<g>
				<title>DUF2235 (PF09994)
"Uncharacterized alpha/beta hydrolase domain (DUF2235)"</title>
				<polygon class="PF09994" points="686,28 706,28 713,35 713,45 706,52 686,52" stroke-linejoin="round" width="27" height="24" fill="rgb(67,224,147)" stroke="rgb(53,179,117)" stroke-width="1" opacity="0.75" />
			</g>
		</g>
		<g>
			<title> (ctg68_7)</title>
			<polygon class=" (ctg68_7)" points="724,10 738,40 724,70" fill="rgb(255,255,255)" fill-opacity="1.0" stroke="rgb(0,0,0)" stroke-width="2"  />
		</g>
		<g>
			<title> (ctg68_8)</title>
			<polygon class=" (ctg68_8)" points="742,25 767,25 767,10 797,40 767,70 767,55 742,55" fill="rgb(255,255,255)" fill-opacity="1.0" stroke="rgb(0,0,0)" stroke-width="2"  />
			<g>
				<title>GUN4 (PF05419)
"GUN4-like"</title>
				<polygon class="PF05419" points="779,28 781,28 792,39 792,41 781,52 779,52" stroke-linejoin="round" width="13" height="24" fill="rgb(207,86,195)" stroke="rgb(165,68,156)" stroke-width="1" opacity="0.75" />
			</g>
		</g>
		<g>
			<title> (ctg68_9)</title>
			<polygon class=" (ctg68_9)" points="853,25 836,25 836,10 806,40 836,70 836,55 853,55" fill="rgb(255,255,255)" fill-opacity="1.0" stroke="rgb(0,0,0)" stroke-width="2"  />
			<g>
				<title>6PGD (PF00393)
"6-phosphogluconate dehydrogenase, C-terminal domain"</title>
				<polygon class="PF00393" points="810,40 822,28 835,28 835,52 822,52" stroke-linejoin="round" width="29" height="24" fill="rgb(57,119,210)" stroke="rgb(45,95,168)" stroke-width="1" opacity="0.75" />
			</g>
			<g>
				<title>NAD_binding_2 (PF03446)
"NAD binding domain of 6-phosphogluconate dehydrogenase"</title>
				<rect class="PF03446" x="835" y="28" stroke-linejoin="round" width="17" height="24" fill="rgb(205,164,98)" stroke="rgb(164,131,78)" stroke-width="1" opacity="0.75" />
			</g>
		</g>
		<g>
			<title> (ctg68_10)</title>
			<polygon class=" (ctg68_10)" points="870,10 896,40 870,70" fill="rgb(255,255,255)" fill-opacity="1.0" stroke="rgb(0,0,0)" stroke-width="2"  />
			<g>
				<title>Lactamase_B_3 (PF13483)
"Beta-lactamase superfamily domain"</title>
				<polygon class="PF13483" points="870,28 882,28 890,38 890,42 882,52 870,52" stroke-linejoin="round" width="20" height="24" fill="rgb(89,224,69)" stroke="rgb(71,179,55)" stroke-width="1" opacity="0.75" />
			</g>
		</g>
		<g>
			<title> (ctg68_11)</title>
			<polygon class=" (ctg68_11)" points="904,25 905,25 905,10 935,40 905,70 905,55 904,55" fill="rgb(255,255,255)" fill-opacity="1.0" stroke="rgb(0,0,0)" stroke-width="2"  />
			<g>
				<title>N6_N4_Mtase (PF01555)
"DNA methylase"</title>
				<polygon class="PF01555" points="908,28 919,28 931,40 931,40 919,52 908,52" stroke-linejoin="round" width="23" height="24" fill="rgb(54,198,162)" stroke="rgb(43,158,129)" stroke-width="1" opacity="0.75" />
			</g>
		</g>
		<g>
			<title> (ctg68_12)</title>
			<polygon class=" (ctg68_12)" points="978,25 973,25 973,10 943,40 973,70 973,55 978,55" fill="rgb(255,255,255)" fill-opacity="1.0" stroke="rgb(0,0,0)" stroke-width="2"  />
			<g>
				<title>Glycos_transf_1 (PF00534)
"Glycosyl transferases group 1"</title>
				<polygon class="PF00534" points="947,40 959,28 961,28 961,52 959,52" stroke-linejoin="round" width="16" height="24" fill="rgb(228,92,150)" stroke="rgb(182,73,119)" stroke-width="1" opacity="0.75" />
			</g>
			<g>
				<title>Glyco_transf_4 (PF13439)
"Glycosyltransferase Family 4"</title>
				<rect class="PF13439" x="961" y="28" stroke-linejoin="round" width="15" height="24" fill="rgb(162,57,186)" stroke="rgb(129,45,148)" stroke-width="1" opacity="0.75" />
			</g>
		</g>
		<g>
			<title> (ctg68_13)</title>
			<polygon class=" (ctg68_13)" points="1021,25 1014,25 1014,10 984,40 1014,70 1014,55 1021,55" fill="rgb(255,255,255)" fill-opacity="1.0" stroke="rgb(0,0,0)" stroke-width="2"  />
			<g>
				<title>Glycos_transf_1 (PF00534)
"Glycosyl transferases group 1"</title>
				<polygon class="PF00534" points="988,40 1000,28 1002,28 1002,52 1000,52" stroke-linejoin="round" width="16" height="24" fill="rgb(228,92,150)" stroke="rgb(182,73,119)" stroke-width="1" opacity="0.75" />
			</g>
			<g>
				<title>Glyco_transf_4 (PF13439)
"Glycosyltransferase Family 4"</title>
				<rect class="PF13439" x="1003" y="28" stroke-linejoin="round" width="16" height="24" fill="rgb(162,57,186)" stroke="rgb(129,45,148)" stroke-width="1" opacity="0.75" />
			</g>
		</g>
		<g>
			<title> (ctg68_14)</title>
			<polygon class=" (ctg68_14)" points="1035,25 1041,25 1041,10 1071,40 1041,70 1041,55 1035,55" fill="rgb(255,255,255)" fill-opacity="1.0" stroke="rgb(0,0,0)" stroke-width="2"  />
			<g>
				<title>WD40 (PF00400)
"WD domain, G-beta repeat"</title>
				<rect class="PF00400" x="1035" y="28" stroke-linejoin="round" width="3" height="24" fill="rgb(190,108,62)" stroke="rgb(152,86,49)" stroke-width="1" opacity="0.75" />
			</g>
			<g>
				<title>WD40 (PF00400)
"WD domain, G-beta repeat"</title>
				<rect class="PF00400" x="1045" y="28" stroke-linejoin="round" width="3" height="24" fill="rgb(190,108,62)" stroke="rgb(152,86,49)" stroke-width="1" opacity="0.75" />
			</g>
			<g>
				<title>WD40 (PF00400)
"WD domain, G-beta repeat"</title>
				<rect class="PF00400" x="1049" y="28" stroke-linejoin="round" width="3" height="24" fill="rgb(190,108,62)" stroke="rgb(152,86,49)" stroke-width="1" opacity="0.75" />
			</g>
			<g>
				<title>WD40 (PF00400)
"WD domain, G-beta repeat"</title>
				<polygon class="PF00400" points="1053,28 1055,28 1057,30 1057,50 1055,52 1053,52" stroke-linejoin="round" width="4" height="24" fill="rgb(190,108,62)" stroke="rgb(152,86,49)" stroke-width="1" opacity="0.75" />
			</g>
			<g>
				<title>WD40 (PF00400)
"WD domain, G-beta repeat"</title>
				<polygon class="PF00400" points="1058,31 1062,35 1062,45 1058,49" stroke-linejoin="round" width="4" height="24" fill="rgb(190,108,62)" stroke="rgb(152,86,49)" stroke-width="1" opacity="0.75" />
			</g>
			<g>
				<title>WD40 (PF00400)
"WD domain, G-beta repeat"</title>
				<polygon class="PF00400" points="1062,35 1065,38 1065,42 1062,45" stroke-linejoin="round" width="3" height="24" fill="rgb(190,108,62)" stroke="rgb(152,86,49)" stroke-width="1" opacity="0.75" />
			</g>
			<g>
				<title>WD40 (PF00400)
"WD domain, G-beta repeat"</title>
				<polygon class="PF00400" points="1066,39 1067,40 1066,41" stroke-linejoin="round" width="3" height="24" fill="rgb(190,108,62)" stroke="rgb(152,86,49)" stroke-width="1" opacity="0.75" />
			</g>
		</g>
		<g>
			<title> (ctg68_15)</title>
			<polygon class=" (ctg68_15)" points="1129,25 1115,25 1115,10 1085,40 1115,70 1115,55 1129,55" fill="rgb(255,255,255)" fill-opacity="1.0" stroke="rgb(0,0,0)" stroke-width="2"  />
			<g>
				<title>AAA_35 (PF14516)
"AAA-like domain"</title>
				<polygon class="PF14516" points="1089,40 1101,28 1118,28 1118,52 1101,52" stroke-linejoin="round" width="33" height="24" fill="rgb(134,192,86)" stroke="rgb(107,153,68)" stroke-width="1" opacity="0.75" />
			</g>
		</g>
		<g>
			<title> (ctg68_16)</title>
			<polygon class=" (ctg68_16)" points="1133,10 1139,40 1133,70" fill="rgb(255,255,255)" fill-opacity="1.0" stroke="rgb(0,0,0)" stroke-width="2"  />
		</g>
	</g>
</svg>
