<svg version="1.1" baseProfile="full" xmlns="http://www.w3.org/2000/svg" width="421.1333333333333" height="80">
	<g>
		<line x1="10" y1="40.0" x2="411.1333333333333" y2="40.0" style="stroke:rgb(70,70,70); stroke-width:3 "/>
		<g>
			<title> (ctg45_16)</title>
			<polygon class=" (ctg45_16)" points="102,25 94,25 94,10 64,40 94,70 94,55 102,55" fill="rgb(255,255,255)" fill-opacity="1.0" stroke="rgb(0,0,0)" stroke-width="2"  />
			<g>
				<title>Aminotran_5 (PF00266)
"Aminotransferase class-V"</title>
				<polygon class="PF00266" points="68,40 80,28 101,28 101,52 80,52 68,40" stroke-linejoin="round" width="33" height="24" fill="rgb(214,54,122)" stroke="rgb(171,43,97)" stroke-width="1" opacity="0.75" />
			</g>
		</g>
		<g>
			<title> (ctg45_17)</title>
			<polygon class=" (ctg45_17)" points="111,40 140,10 140,70" fill="rgb(255,255,255)" fill-opacity="1.0" stroke="rgb(0,0,0)" stroke-width="2"  />
			<g>
				<title>IGPS (PF00218)
"Indole-3-glycerol phosphate synthase"</title>
				<polygon class="PF00218" points="115,40 127,28 136,28 136,52 127,52" stroke-linejoin="round" width="25" height="24" fill="rgb(183,89,153)" stroke="rgb(146,71,122)" stroke-width="1" opacity="0.75" />
			</g>
		</g>
		<g>
			<title> (ctg45_18)</title>
			<polygon class=" (ctg45_18)" points="146,40 153,10 153,70" fill="rgb(255,255,255)" fill-opacity="1.0" stroke="rgb(0,0,0)" stroke-width="2"  />
		</g>
		<g>
			<title> (ctg45_19)</title>
			<polygon class=" (ctg45_19)" points="163,10 183,40 163,70" fill="rgb(255,255,255)" fill-opacity="1.0" stroke="rgb(0,0,0)" stroke-width="2"  />
		</g>
		<g>
			<title> (ctg45_20)</title>
			<polygon class=" (ctg45_20)" points="183,10 192,40 183,70" fill="rgb(255,255,255)" fill-opacity="1.0" stroke="rgb(0,0,0)" stroke-width="2"  />
			<g>
				<title>DUF3288 (PF11691)
"Protein of unknown function (DUF3288)"</title>
				<polygon class="PF11691" points="183,28 185,28 189,40 185,52 183,52" stroke-linejoin="round" width="8" height="24" fill="rgb(101,212,216)" stroke="rgb(80,169,172)" stroke-width="1" opacity="0.75" />
			</g>
		</g>
		<g>
			<title> (ctg45_21)</title>
			<polygon class=" (ctg45_21)" points="191,10 197,40 191,70" fill="rgb(255,255,255)" fill-opacity="1.0" stroke="rgb(0,0,0)" stroke-width="2"  />
		</g>
		<g>
			<title> (ctg45_22)</title>
			<polygon class=" (ctg45_22)" points="231,25 228,25 228,10 198,40 228,70 228,55 231,55" fill="rgb(255,255,255)" fill-opacity="1.0" stroke="rgb(0,0,0)" stroke-width="2"  />
			<g>
				<title>Glycos_transf_1 (PF00534)
"Glycosyl transferases group 1"</title>
				<polygon class="PF00534" points="203,39 214,28 216,28 216,52 214,52 203,41" stroke-linejoin="round" width="13" height="24" fill="rgb(228,92,150)" stroke="rgb(182,73,119)" stroke-width="1" opacity="0.75" />
			</g>
		</g>
		<g>
			<title> (ctg45_23)</title>
			<polygon class=" (ctg45_23)" points="235,10 238,40 235,70" fill="rgb(255,255,255)" fill-opacity="1.0" stroke="rgb(0,0,0)" stroke-width="2"  />
		</g>
		<g>
			<title> (ctg45_24)</title>
			<polygon class=" (ctg45_24)" points="240,10 247,40 240,70" fill="rgb(255,255,255)" fill-opacity="1.0" stroke="rgb(0,0,0)" stroke-width="2"  />
			<g>
				<title>zf-ISL3 (PF14690)
"zinc-finger of transposase IS204/IS1001/IS1096/IS1165"</title>
				<polygon class="PF14690" points="243,35 244,40 243,45" stroke-linejoin="round" width="3" height="24" fill="rgb(94,212,144)" stroke="rgb(75,169,115)" stroke-width="1" opacity="0.75" />
			</g>
		</g>
		<g>
			<title> (ctg45_25)</title>
			<polygon class=" (ctg45_25)" points="266,40 272,10 272,70" fill="rgb(255,255,255)" fill-opacity="1.0" stroke="rgb(0,0,0)" stroke-width="2"  />
		</g>
		<g>
			<title> (ctg45_26)</title>
			<polygon class=" (ctg45_26)" points="286,10 294,40 286,70" fill="rgb(255,255,255)" fill-opacity="1.0" stroke="rgb(0,0,0)" stroke-width="2"  />
		</g>
		<g>
			<title> (ctg45_27)</title>
			<polygon class=" (ctg45_27)" points="296,10 302,40 296,70" fill="rgb(255,255,255)" fill-opacity="1.0" stroke="rgb(0,0,0)" stroke-width="2"  />
		</g>
		<g>
			<title> (ctg45_28)</title>
			<polygon class=" (ctg45_28)" points="302,40 312,10 312,70" fill="rgb(255,255,255)" fill-opacity="1.0" stroke="rgb(0,0,0)" stroke-width="2"  />
		</g>
		<g>
			<title> (ctg45_29)</title>
			<polygon class=" (ctg45_29)" points="316,10 344,40 316,70" fill="rgb(255,255,255)" fill-opacity="1.0" stroke="rgb(0,0,0)" stroke-width="2"  />
		</g>
		<g>
			<title> (ctg45_30)</title>
			<polygon class=" (ctg45_30)" points="343,10 349,40 343,70" fill="rgb(255,255,255)" fill-opacity="1.0" stroke="rgb(0,0,0)" stroke-width="2"  />
		</g>
		<g>
			<title> (ctg45_31)</title>
			<polygon class=" (ctg45_31)" points="351,40 377,10 377,70" fill="rgb(255,255,255)" fill-opacity="1.0" stroke="rgb(0,0,0)" stroke-width="2"  />
			<g>
				<title>Trp_syntA (PF00290)
"Tryptophan synthase alpha chain"</title>
				<polygon class="PF00290" points="355,40 366,28 376,28 376,52 366,52" stroke-linejoin="round" width="25" height="24" fill="rgb(101,209,118)" stroke="rgb(80,167,94)" stroke-width="1" opacity="0.75" />
			</g>
		</g>
		<g>
			<title> (ctg45_32)</title>
			<polygon class=" (ctg45_32)" points="386,10 407,40 386,70" fill="rgb(255,255,255)" fill-opacity="1.0" stroke="rgb(0,0,0)" stroke-width="2"  />
			<g>
				<title>Glycos_transf_2 (PF00535)
"Glycosyl transferase family 2"</title>
				<polygon class="PF00535" points="386,28 395,28 401,36 401,44 395,52 386,52" stroke-linejoin="round" width="15" height="24" fill="rgb(224,122,96)" stroke="rgb(179,97,76)" stroke-width="1" opacity="0.75" />
			</g>
		</g>
		<g>
			<title> (ctg45_33)</title>
			<polygon class=" (ctg45_33)" points="407,40 410,10 410,70" fill="rgb(255,255,255)" fill-opacity="1.0" stroke="rgb(0,0,0)" stroke-width="2"  />
		</g>
	</g>
</svg>
