<svg version="1.1" baseProfile="full" xmlns="http://www.w3.org/2000/svg" width="600.4333333333333" height="80">
	<g>
		<line x1="10" y1="40.0" x2="590.4333333333333" y2="40.0" style="stroke:rgb(70,70,70); stroke-width:3 "/>
		<g>
			<title> (ctg129_1)</title>
			<polygon class=" (ctg129_1)" points="10,10 31,40 10,70" fill="rgb(255,255,255)" fill-opacity="1.0" stroke="rgb(0,0,0)" stroke-width="2"  />
			<g>
				<title>Uma2 (PF05685)
"Putative restriction endonuclease"</title>
				<polygon class="PF05685" points="11,28 19,28 27,40 19,52 11,52" stroke-linejoin="round" width="17" height="24" fill="rgb(123,107,219)" stroke="rgb(98,85,175)" stroke-width="1" opacity="0.75" />
			</g>
		</g>
		<g>
			<title> (ctg129_2)</title>
			<polygon class=" (ctg129_2)" points="32,10 46,40 32,70" fill="rgb(255,255,255)" fill-opacity="1.0" stroke="rgb(0,0,0)" stroke-width="2"  />
			<g>
				<title>DUF29 (PF01724)
"Domain of unknown function DUF29"</title>
				<polygon class="PF01724" points="33,28 37,28 43,40 37,52 33,52" stroke-linejoin="round" width="13" height="24" fill="rgb(104,61,184)" stroke="rgb(83,48,147)" stroke-width="1" opacity="0.75" />
			</g>
		</g>
		<g>
			<title> (ctg129_3)</title>
			<polygon class=" (ctg129_3)" points="48,10 67,40 48,70" fill="rgb(255,255,255)" fill-opacity="1.0" stroke="rgb(0,0,0)" stroke-width="2"  />
			<g>
				<title>Uma2 (PF05685)
"Putative restriction endonuclease"</title>
				<polygon class="PF05685" points="49,28 55,28 63,40 55,52 49,52" stroke-linejoin="round" width="17" height="24" fill="rgb(123,107,219)" stroke="rgb(98,85,175)" stroke-width="1" opacity="0.75" />
			</g>
		</g>
		<g>
			<title> (ctg129_4)</title>
			<polygon class=" (ctg129_4)" points="68,25 102,25 102,10 132,40 102,70 102,55 68,55" fill="rgb(255,255,255)" fill-opacity="1.0" stroke="rgb(0,0,0)" stroke-width="2"  />
			<g>
				<title>Peptidase_S8 (PF00082)
"Subtilase family"</title>
				<rect class="PF00082" x="69" y="28" stroke-linejoin="round" width="27" height="24" fill="rgb(193,159,94)" stroke="rgb(154,127,75)" stroke-width="1" opacity="0.75" />
			</g>
			<g>
				<title>PatG_D (PF18047)
"PatG Domain"</title>
				<rect class="PF18047" x="105" y="28" stroke-linejoin="round" width="11" height="24" fill="rgb(91,195,69)" stroke="rgb(72,156,55)" stroke-width="1" opacity="0.75" />
			</g>
			<g>
				<title>PatG_C (PF18065)
"PatG C-terminal"</title>
				<polygon class="PF18065" points="120,32 128,40 120,48" stroke-linejoin="round" width="11" height="24" fill="rgb(93,82,184)" stroke="rgb(74,65,147)" stroke-width="1" opacity="0.75" />
			</g>
		</g>
		<g>
			<title> (ctg129_5)</title>
			<polygon class=" (ctg129_5)" points="136,10 144,40 136,70" fill="rgb(255,255,255)" fill-opacity="1.0" stroke="rgb(0,0,0)" stroke-width="2"  />
		</g>
		<g>
			<title> (ctg129_6)</title>
			<polygon class=" (ctg129_6)" points="146,10 153,40 146,70" fill="rgb(255,255,255)" fill-opacity="1.0" stroke="rgb(0,0,0)" stroke-width="2"  />
		</g>
		<g>
			<title> (ctg129_7)</title>
			<polygon class=" (ctg129_7)" points="154,40 180,10 180,70" fill="rgb(255,255,255)" fill-opacity="1.0" stroke="rgb(0,0,0)" stroke-width="2"  />
			<g>
				<title>Uma2 (PF05685)
"Putative restriction endonuclease"</title>
				<polygon class="PF05685" points="159,39 169,28 177,28 177,52 169,52 159,41" stroke-linejoin="round" width="18" height="24" fill="rgb(123,107,219)" stroke="rgb(98,85,175)" stroke-width="1" opacity="0.75" />
			</g>
		</g>
		<g>
			<title> (ctg129_8)</title>
			<polygon class=" (ctg129_8)" points="182,25 247,25 247,10 277,40 247,70 247,55 182,55" fill="rgb(255,255,255)" fill-opacity="1.0" stroke="rgb(0,0,0)" stroke-width="2"  />
			<g>
				<title>Peptidase_S8 (PF00082)
"Subtilase family"</title>
				<rect class="PF00082" x="184" y="28" stroke-linejoin="round" width="29" height="24" fill="rgb(193,159,94)" stroke="rgb(154,127,75)" stroke-width="1" opacity="0.75" />
			</g>
			<g>
				<title>Pkinase (PF00069)
"Protein kinase domain"</title>
				<rect class="PF00069" x="220" y="28" stroke-linejoin="round" width="23" height="24" fill="rgb(104,187,65)" stroke="rgb(83,149,51)" stroke-width="1" opacity="0.75" />
			</g>
			<g>
				<title>PatG_D (PF18047)
"PatG Domain"</title>
				<rect class="PF18047" x="250" y="28" stroke-linejoin="round" width="11" height="24" fill="rgb(91,195,69)" stroke="rgb(72,156,55)" stroke-width="1" opacity="0.75" />
			</g>
			<g>
				<title>PatG_C (PF18065)
"PatG C-terminal"</title>
				<polygon class="PF18065" points="265,32 273,40 265,48" stroke-linejoin="round" width="11" height="24" fill="rgb(93,82,184)" stroke="rgb(74,65,147)" stroke-width="1" opacity="0.75" />
			</g>
		</g>
		<g>
			<title> (ctg129_9)</title>
			<polygon class=" (ctg129_9)" points="280,40 287,10 287,70" fill="rgb(255,255,255)" fill-opacity="1.0" stroke="rgb(0,0,0)" stroke-width="2"  />
		</g>
		<g>
			<title> (ctg129_10)</title>
			<polygon class=" (ctg129_10)" points="303,10 323,40 303,70" fill="rgb(255,255,255)" fill-opacity="1.0" stroke="rgb(0,0,0)" stroke-width="2"  />
			<g>
				<title>Ribosomal_S30AE (PF02482)
"Sigma 54 modulation protein / S30EA ribosomal protein"</title>
				<polygon class="PF02482" points="303,28 311,28 312,29 312,51 311,52 303,52" stroke-linejoin="round" width="9" height="24" fill="rgb(104,228,126)" stroke="rgb(83,182,100)" stroke-width="1" opacity="0.75" />
			</g>
			<g>
				<title>Ribosom_S30AE_C (PF16321)
"Sigma 54 modulation/S30EA ribosomal protein C terminus"</title>
				<polygon class="PF16321" points="315,34 319,40 315,46" stroke-linejoin="round" width="5" height="24" fill="rgb(200,98,224)" stroke="rgb(160,78,179)" stroke-width="1" opacity="0.75" />
			</g>
		</g>
		<g>
			<title> (ctg129_11)</title>
			<polygon class=" (ctg129_11)" points="325,40 338,10 338,70" fill="rgb(255,255,255)" fill-opacity="1.0" stroke="rgb(0,0,0)" stroke-width="2"  />
			<g>
				<title>HSP20 (PF00011)
"Hsp20/alpha crystallin family"</title>
				<polygon class="PF00011" points="328,40 333,28 334,28 334,52 333,52" stroke-linejoin="round" width="9" height="24" fill="rgb(148,223,75)" stroke="rgb(118,178,60)" stroke-width="1" opacity="0.75" />
			</g>
		</g>
		<g>
			<title> (ctg129_12)</title>
			<polygon class=" (ctg129_12)" points="347,40 368,10 368,70" fill="rgb(255,255,255)" fill-opacity="1.0" stroke="rgb(0,0,0)" stroke-width="2"  />
			<g>
				<title>Sua5_yciO_yrdC (PF01300)
"Telomere recombination"</title>
				<polygon class="PF01300" points="351,40 360,28 366,28 366,52 360,52" stroke-linejoin="round" width="18" height="24" fill="rgb(183,139,65)" stroke="rgb(146,111,51)" stroke-width="1" opacity="0.75" />
			</g>
		</g>
		<g>
			<title> (ctg129_13)</title>
			<polygon class=" (ctg129_13)" points="371,25 380,25 380,10 410,40 380,70 380,55 371,55" fill="rgb(255,255,255)" fill-opacity="1.0" stroke="rgb(0,0,0)" stroke-width="2"  />
			<g>
				<title>DUF111 (PF01969)
"Protein of unknown function DUF111"</title>
				<polygon class="PF01969" points="371,28 394,28 406,40 394,52 371,52" stroke-linejoin="round" width="37" height="24" fill="rgb(171,97,208)" stroke="rgb(136,77,166)" stroke-width="1" opacity="0.75" />
			</g>
		</g>
		<g>
			<title> (ctg129_14)</title>
			<polygon class=" (ctg129_14)" points="414,40 424,10 424,70" fill="rgb(255,255,255)" fill-opacity="1.0" stroke="rgb(0,0,0)" stroke-width="2"  />
			<g>
				<title>DUF433 (PF04255)
"Protein of unknown function (DUF433)"</title>
				<polygon class="PF04255" points="418,37 421,28 422,28 422,52 421,52 418,43" stroke-linejoin="round" width="4" height="24" fill="rgb(205,68,213)" stroke="rgb(164,54,170)" stroke-width="1" opacity="0.75" />
			</g>
		</g>
		<g>
			<title> (ctg129_15)</title>
			<polygon class=" (ctg129_15)" points="470,25 461,25 461,10 431,40 461,70 461,55 470,55" fill="rgb(255,255,255)" fill-opacity="1.0" stroke="rgb(0,0,0)" stroke-width="2"  />
		</g>
		<g>
			<title> (ctg129_16)</title>
			<polygon class=" (ctg129_16)" points="479,10 493,40 479,70" fill="rgb(255,255,255)" fill-opacity="1.0" stroke="rgb(0,0,0)" stroke-width="2"  />
			<g>
				<title>DUF29 (PF01724)
"Domain of unknown function DUF29"</title>
				<polygon class="PF01724" points="480,28 484,28 489,40 484,52 480,52" stroke-linejoin="round" width="11" height="24" fill="rgb(104,61,184)" stroke="rgb(83,48,147)" stroke-width="1" opacity="0.75" />
			</g>
		</g>
		<g>
			<title> (ctg129_17)</title>
			<polygon class=" (ctg129_17)" points="498,10 514,40 498,70" fill="rgb(255,255,255)" fill-opacity="1.0" stroke="rgb(0,0,0)" stroke-width="2"  />
		</g>
		<g>
			<title> (ctg129_18)</title>
			<polygon class=" (ctg129_18)" points="523,10 544,40 523,70" fill="rgb(255,255,255)" fill-opacity="1.0" stroke="rgb(0,0,0)" stroke-width="2"  />
		</g>
		<g>
			<title> (ctg129_19)</title>
			<polygon class=" (ctg129_19)" points="546,40 552,10 552,70" fill="rgb(255,255,255)" fill-opacity="1.0" stroke="rgb(0,0,0)" stroke-width="2"  />
		</g>
		<g>
			<title> (ctg129_20)</title>
			<polygon class=" (ctg129_20)" points="556,40 563,10 563,70" fill="rgb(255,255,255)" fill-opacity="1.0" stroke="rgb(0,0,0)" stroke-width="2"  />
		</g>
		<g>
			<title> (ctg129_21)</title>
			<polygon class=" (ctg129_21)" points="564,40 583,10 583,70" fill="rgb(255,255,255)" fill-opacity="1.0" stroke="rgb(0,0,0)" stroke-width="2"  />
			<g>
				<title>Uma2 (PF05685)
"Putative restriction endonuclease"</title>
				<polygon class="PF05685" points="568,40 576,28 581,28 581,52 576,52" stroke-linejoin="round" width="16" height="24" fill="rgb(123,107,219)" stroke="rgb(98,85,175)" stroke-width="1" opacity="0.75" />
			</g>
		</g>
		<g>
			<title> (ctg129_22)</title>
			<polygon class=" (ctg129_22)" points="587,40 590,10 590,70" fill="rgb(255,255,255)" fill-opacity="1.0" stroke="rgb(0,0,0)" stroke-width="2"  />
		</g>
	</g>
</svg>
