<svg version="1.1" baseProfile="full" xmlns="http://www.w3.org/2000/svg" width="607.5666666666667" height="80">
	<g>
		<line x1="10" y1="40.0" x2="597.5666666666667" y2="40.0" style="stroke:rgb(70,70,70); stroke-width:3 "/>
		<g>
			<title> (ctg6_15)</title>
			<polygon class=" (ctg6_15)" points="46,25 47,25 47,10 77,40 47,70 47,55 46,55" fill="rgb(255,255,255)" fill-opacity="1.0" stroke="rgb(0,0,0)" stroke-width="2"  />
			<g>
				<title>Response_reg (PF00072)
"Response regulator receiver domain"</title>
				<rect class="PF00072" x="47" y="28" stroke-linejoin="round" width="11" height="24" fill="rgb(100,107,203)" stroke="rgb(80,85,162)" stroke-width="1" opacity="0.75" />
			</g>
			<g>
				<title>GGDEF (PF00990)
"Diguanylate cyclase, GGDEF domain"</title>
				<polygon class="PF00990" points="60,28 60,28 72,40 60,52 60,52" stroke-linejoin="round" width="15" height="24" fill="rgb(62,170,199)" stroke="rgb(49,135,159)" stroke-width="1" opacity="0.75" />
			</g>
		</g>
		<g>
			<title> (ctg6_16)</title>
			<polygon class=" (ctg6_16)" points="77,10 103,40 77,70" fill="rgb(255,255,255)" fill-opacity="1.0" stroke="rgb(0,0,0)" stroke-width="2"  />
			<g>
				<title>SBP_bac_3 (PF00497)
"Bacterial extracellular solute-binding proteins, family 3"</title>
				<polygon class="PF00497" points="80,28 89,28 99,40 89,52 80,52" stroke-linejoin="round" width="22" height="24" fill="rgb(186,76,141)" stroke="rgb(148,60,112)" stroke-width="1" opacity="0.75" />
			</g>
		</g>
		<g>
			<title> (ctg6_17)</title>
			<polygon class=" (ctg6_17)" points="109,10 126,40 109,70" fill="rgb(255,255,255)" fill-opacity="1.0" stroke="rgb(0,0,0)" stroke-width="2"  />
			<g>
				<title>TPR_12 (PF13424)
"Tetratricopeptide repeat"</title>
				<polygon class="PF13424" points="114,28 116,28 121,36 121,44 116,52 114,52" stroke-linejoin="round" width="7" height="24" fill="rgb(147,215,101)" stroke="rgb(117,172,80)" stroke-width="1" opacity="0.75" />
			</g>
		</g>
		<g>
			<title> (ctg6_18)</title>
			<polygon class=" (ctg6_18)" points="189,25 159,25 159,10 129,40 159,70 159,55 189,55" fill="rgb(255,255,255)" fill-opacity="1.0" stroke="rgb(0,0,0)" stroke-width="2"  />
			<g>
				<title>CitMHS (PF03600)
"Citrate transporter"</title>
				<polygon class="PF03600" points="134,39 145,28 186,28 186,52 145,52 134,41" stroke-linejoin="round" width="52" height="24" fill="rgb(75,203,220)" stroke="rgb(60,162,176)" stroke-width="1" opacity="0.75" />
			</g>
		</g>
		<g>
			<title> (ctg6_19)</title>
			<polygon class=" (ctg6_19)" points="281,25 219,25 219,10 189,40 219,70 219,55 281,55" fill="rgb(255,255,255)" fill-opacity="1.0" stroke="rgb(0,0,0)" stroke-width="2"  />
			<g>
				<title>Cation_ATPase_C (PF00689)
"Cation transporting ATPase, C-terminus"</title>
				<polygon class="PF00689" points="193,40 205,28 206,28 206,52 205,52" stroke-linejoin="round" width="17" height="24" fill="rgb(76,203,161)" stroke="rgb(60,162,128)" stroke-width="1" opacity="0.75" />
			</g>
			<g>
				<title>Hydrolase (PF00702)
"haloacid dehalogenase-like hydrolase"</title>
				<rect class="PF00702" x="214" y="28" stroke-linejoin="round" width="32" height="24" fill="rgb(68,220,102)" stroke="rgb(54,176,81)" stroke-width="1" opacity="0.75" />
			</g>
			<g>
				<title>E1-E2_ATPase (PF00122)
"E1-E2 ATPase"</title>
				<rect class="PF00122" x="249" y="28" stroke-linejoin="round" width="19" height="24" fill="rgb(149,204,70)" stroke="rgb(119,163,56)" stroke-width="1" opacity="0.75" />
			</g>
			<g>
				<title>Cation_ATPase_N (PF00690)
"Cation transporter/ATPase, N-terminus"</title>
				<rect class="PF00690" x="273" y="28" stroke-linejoin="round" width="6" height="24" fill="rgb(174,102,225)" stroke="rgb(139,81,180)" stroke-width="1" opacity="0.75" />
			</g>
		</g>
		<g>
			<title> (ctg6_20)</title>
			<polygon class=" (ctg6_20)" points="292,25 309,25 309,10 339,40 309,70 309,55 292,55" fill="rgb(255,255,255)" fill-opacity="1.0" stroke="rgb(0,0,0)" stroke-width="2"  />
			<g>
				<title>Amino_oxidase (PF01593)
"Flavin containing amine oxidoreductase"</title>
				<polygon class="PF01593" points="293,28 323,28 335,40 323,52 293,52" stroke-linejoin="round" width="44" height="24" fill="rgb(184,74,52)" stroke="rgb(147,59,41)" stroke-width="1" opacity="0.75" />
			</g>
		</g>
		<g>
			<title> (ctg6_21)</title>
			<polygon class=" (ctg6_21)" points="343,25 344,25 344,10 374,40 344,70 344,55 343,55" fill="rgb(255,255,255)" fill-opacity="1.0" stroke="rgb(0,0,0)" stroke-width="2"  />
			<g>
				<title>SQS_PSY (PF00494)
"Squalene/phytoene synthase"</title>
				<polygon class="PF00494" points="345,28 357,28 369,40 357,52 345,52" stroke-linejoin="round" width="26" height="24" fill="rgb(178,91,49)" stroke="rgb(142,72,39)" stroke-width="1" opacity="0.75" />
			</g>
		</g>
		<g>
			<title> (ctg6_22)</title>
			<polygon class=" (ctg6_22)" points="384,40 399,10 399,70" fill="rgb(255,255,255)" fill-opacity="1.0" stroke="rgb(0,0,0)" stroke-width="2"  />
		</g>
		<g>
			<title> (ctg6_23)</title>
			<polygon class=" (ctg6_23)" points="419,40 442,10 442,70" fill="rgb(255,255,255)" fill-opacity="1.0" stroke="rgb(0,0,0)" stroke-width="2"  />
			<g>
				<title>Pirin_C_2 (PF17954)
"Quercetinase C-terminal cupin domain"</title>
				<polygon class="PF17954" points="423,40 427,35 427,45" stroke-linejoin="round" width="8" height="24" fill="rgb(224,140,102)" stroke="rgb(179,112,81)" stroke-width="1" opacity="0.75" />
			</g>
			<g>
				<title>Pirin (PF02678)
"Pirin"</title>
				<polygon class="PF02678" points="430,31 432,28 441,28 441,52 432,52 430,49" stroke-linejoin="round" width="11" height="24" fill="rgb(139,213,61)" stroke="rgb(111,170,48)" stroke-width="1" opacity="0.75" />
			</g>
		</g>
		<g>
			<title> (ctg6_24)</title>
			<polygon class=" (ctg6_24)" points="447,40 461,10 461,70" fill="rgb(255,255,255)" fill-opacity="1.0" stroke="rgb(0,0,0)" stroke-width="2"  />
		</g>
		<g>
			<title> (ctg6_25)</title>
			<polygon class=" (ctg6_25)" points="516,25 492,25 492,10 462,40 492,70 492,55 516,55" fill="rgb(255,255,255)" fill-opacity="1.0" stroke="rgb(0,0,0)" stroke-width="2"  />
			<g>
				<title>Metallophos (PF00149)
"Calcineurin-like phosphoesterase"</title>
				<polygon class="PF00149" points="473,33 478,28 503,28 503,52 478,52 473,47" stroke-linejoin="round" width="30" height="24" fill="rgb(181,197,58)" stroke="rgb(144,157,46)" stroke-width="1" opacity="0.75" />
			</g>
		</g>
		<g>
			<title> (ctg6_26)</title>
			<polygon class=" (ctg6_26)" points="578,25 550,25 550,10 520,40 550,70 550,55 578,55" fill="rgb(255,255,255)" fill-opacity="1.0" stroke="rgb(0,0,0)" stroke-width="2"  />
			<g>
				<title>ABC_tran (PF00005)
"ABC transporter"</title>
				<polygon class="PF00005" points="527,37 536,28 541,28 541,52 536,52 527,43" stroke-linejoin="round" width="14" height="24" fill="rgb(129,201,63)" stroke="rgb(103,160,50)" stroke-width="1" opacity="0.75" />
			</g>
			<g>
				<title>ABC_membrane (PF00664)
"ABC transporter transmembrane region"</title>
				<rect class="PF00664" x="549" y="28" stroke-linejoin="round" width="27" height="24" fill="rgb(149,226,73)" stroke="rgb(119,180,58)" stroke-width="1" opacity="0.75" />
			</g>
		</g>
		<g>
			<title> (ctg6_27)</title>
			<polygon class=" (ctg6_27)" points="583,40 587,10 587,70" fill="rgb(255,255,255)" fill-opacity="1.0" stroke="rgb(0,0,0)" stroke-width="2"  />
		</g>
	</g>
</svg>
