<svg version="1.1" baseProfile="full" xmlns="http://www.w3.org/2000/svg" width="409.1333333333333" height="80">
	<g>
		<line x1="10" y1="40.0" x2="399.1333333333333" y2="40.0" style="stroke:rgb(70,70,70); stroke-width:3 "/>
		<g>
			<title> (ctg99_14)</title>
			<polygon class=" (ctg99_14)" points="10,40 26,10 26,70" fill="rgb(255,255,255)" fill-opacity="1.0" stroke="rgb(0,0,0)" stroke-width="2"  />
		</g>
		<g>
			<title> (ctg99_15)</title>
			<polygon class=" (ctg99_15)" points="38,10 65,40 38,70" fill="rgb(255,255,255)" fill-opacity="1.0" stroke="rgb(0,0,0)" stroke-width="2"  />
		</g>
		<g>
			<title> (ctg99_16)</title>
			<polygon class=" (ctg99_16)" points="70,40 92,10 92,70" fill="rgb(255,255,255)" fill-opacity="1.0" stroke="rgb(0,0,0)" stroke-width="2"  />
			<g>
				<title>DALR_1 (PF05746)
"DALR anticodon binding domain"</title>
				<polygon class="PF05746" points="74,40 81,31 81,49" stroke-linejoin="round" width="10" height="24" fill="rgb(90,223,221)" stroke="rgb(72,178,176)" stroke-width="1" opacity="0.75" />
			</g>
		</g>
		<g>
			<title> (ctg99_17)</title>
			<polygon class=" (ctg99_17)" points="93,40 99,10 99,70" fill="rgb(255,255,255)" fill-opacity="1.0" stroke="rgb(0,0,0)" stroke-width="2"  />
		</g>
		<g>
			<title> (ctg99_18)</title>
			<polygon class=" (ctg99_18)" points="105,25 145,25 145,10 175,40 145,70 145,55 105,55" fill="rgb(255,255,255)" fill-opacity="1.0" stroke="rgb(0,0,0)" stroke-width="2"  />
			<g>
				<title>Pentapeptide (PF00805)
"Pentapeptide repeats (8 copies)"</title>
				<rect class="PF00805" x="106" y="28" stroke-linejoin="round" width="4" height="24" fill="rgb(186,52,164)" stroke="rgb(148,41,131)" stroke-width="1" opacity="0.75" />
			</g>
			<g>
				<title>Pentapeptide (PF00805)
"Pentapeptide repeats (8 copies)"</title>
				<rect class="PF00805" x="132" y="28" stroke-linejoin="round" width="3" height="24" fill="rgb(186,52,164)" stroke="rgb(148,41,131)" stroke-width="1" opacity="0.75" />
			</g>
			<g>
				<title>Pentapeptide (PF00805)
"Pentapeptide repeats (8 copies)"</title>
				<rect class="PF00805" x="139" y="28" stroke-linejoin="round" width="3" height="24" fill="rgb(186,52,164)" stroke="rgb(148,41,131)" stroke-width="1" opacity="0.75" />
			</g>
		</g>
		<g>
			<title> (ctg99_19)</title>
			<polygon class=" (ctg99_19)" points="179,40 207,10 207,70" fill="rgb(255,255,255)" fill-opacity="1.0" stroke="rgb(0,0,0)" stroke-width="2"  />
			<g>
				<title>Transglut_core (PF01841)
"Transglutaminase-like superfamily"</title>
				<polygon class="PF01841" points="184,39 194,29 194,51 184,41" stroke-linejoin="round" width="10" height="24" fill="rgb(208,223,79)" stroke="rgb(166,178,63)" stroke-width="1" opacity="0.75" />
			</g>
			<g>
				<title>Bact_transglu_N (PF08379)
"Bacterial transglutaminase-like N-terminal region"</title>
				<rect class="PF08379" x="199" y="28" stroke-linejoin="round" width="7" height="24" fill="rgb(224,108,64)" stroke="rgb(179,86,51)" stroke-width="1" opacity="0.75" />
			</g>
		</g>
		<g>
			<title> (ctg99_20)</title>
			<polygon class=" (ctg99_20)" points="241,25 238,25 238,10 208,40 238,70 238,55 241,55" fill="rgb(255,255,255)" fill-opacity="1.0" stroke="rgb(0,0,0)" stroke-width="2"  />
			<g>
				<title>Alpha-E (PF04168)
"A predicted alpha-helical domain with a conserved ER motif."</title>
				<polygon class="PF04168" points="212,40 224,28 240,28 240,52 224,52" stroke-linejoin="round" width="30" height="24" fill="rgb(190,83,80)" stroke="rgb(152,66,64)" stroke-width="1" opacity="0.75" />
			</g>
		</g>
		<g>
			<title> (ctg99_21)</title>
			<polygon class=" (ctg99_21)" points="291,25 274,25 274,10 244,40 274,70 274,55 291,55" fill="rgb(255,255,255)" fill-opacity="1.0" stroke="rgb(0,0,0)" stroke-width="2"  />
			<g>
				<title>CP_ATPgrasp_2 (PF14403)
"Circularly permuted ATP-grasp type 2"</title>
				<polygon class="PF14403" points="248,40 260,28 283,28 283,52 260,52" stroke-linejoin="round" width="37" height="24" fill="rgb(80,222,92)" stroke="rgb(64,177,73)" stroke-width="1" opacity="0.75" />
			</g>
		</g>
		<g>
			<title> (ctg99_22)</title>
			<polygon class=" (ctg99_22)" points="315,10 322,40 315,70" fill="rgb(255,255,255)" fill-opacity="1.0" stroke="rgb(0,0,0)" stroke-width="2"  />
			<g>
				<title>Cytochrome_B (PF00033)
"Cytochrome b/b6/petB"</title>
				<polygon class="PF00033" points="315,28 315,28 319,40 315,52 315,52" stroke-linejoin="round" width="6" height="24" fill="rgb(209,58,124)" stroke="rgb(167,46,99)" stroke-width="1" opacity="0.75" />
			</g>
		</g>
		<g>
			<title> (ctg99_23)</title>
			<polygon class=" (ctg99_23)" points="324,10 340,40 324,70" fill="rgb(255,255,255)" fill-opacity="1.0" stroke="rgb(0,0,0)" stroke-width="2"  />
			<g>
				<title>Cytochrom_B_C (PF00032)
"Cytochrome b(C-terminal)/b6/petD"</title>
				<polygon class="PF00032" points="330,28 330,28 336,40 330,52 330,52" stroke-linejoin="round" width="9" height="24" fill="rgb(183,105,214)" stroke="rgb(146,84,171)" stroke-width="1" opacity="0.75" />
			</g>
		</g>
		<g>
			<title> (ctg99_24)</title>
			<polygon class=" (ctg99_24)" points="343,40 370,10 370,70" fill="rgb(255,255,255)" fill-opacity="1.0" stroke="rgb(0,0,0)" stroke-width="2"  />
			<g>
				<title>SQS_PSY (PF00494)
"Squalene/phytoene synthase"</title>
				<polygon class="PF00494" points="349,38 358,28 368,28 368,52 358,52 349,42" stroke-linejoin="round" width="19" height="24" fill="rgb(178,91,49)" stroke="rgb(142,72,39)" stroke-width="1" opacity="0.75" />
			</g>
		</g>
		<g>
			<title> (ctg99_25)</title>
			<polygon class=" (ctg99_25)" points="370,40 375,10 375,70" fill="rgb(255,255,255)" fill-opacity="1.0" stroke="rgb(0,0,0)" stroke-width="2"  />
		</g>
		<g>
			<title> (ctg99_26)</title>
			<polygon class=" (ctg99_26)" points="379,40 383,10 383,70" fill="rgb(255,255,255)" fill-opacity="1.0" stroke="rgb(0,0,0)" stroke-width="2"  />
		</g>
	</g>
</svg>
