<svg version="1.1" baseProfile="full" xmlns="http://www.w3.org/2000/svg" width="864.6333333333333" height="80">
	<g>
		<line x1="10" y1="40.0" x2="854.6333333333333" y2="40.0" style="stroke:rgb(70,70,70); stroke-width:3 "/>
		<g>
			<title> (ctg64_1)</title>
			<polygon class=" (ctg64_1)" points="20,40 44,10 44,70" fill="rgb(255,255,255)" fill-opacity="1.0" stroke="rgb(0,0,0)" stroke-width="2"  />
			<g>
				<title>Glutaredoxin (PF00462)
"Glutaredoxin"</title>
				<polygon class="PF00462" points="24,40 26,38 26,42" stroke-linejoin="round" width="5" height="24" fill="rgb(77,192,167)" stroke="rgb(61,153,133)" stroke-width="1" opacity="0.75" />
			</g>
			<g>
				<title>Redoxin (PF08534)
"Redoxin"</title>
				<polygon class="PF08534" points="28,35 34,28 43,28 43,52 34,52 28,45" stroke-linejoin="round" width="15" height="24" fill="rgb(145,195,92)" stroke="rgb(116,156,73)" stroke-width="1" opacity="0.75" />
			</g>
		</g>
		<g>
			<title> (ctg64_2)</title>
			<polygon class=" (ctg64_2)" points="59,10 88,40 59,70" fill="rgb(255,255,255)" fill-opacity="1.0" stroke="rgb(0,0,0)" stroke-width="2"  />
			<g>
				<title>BacA (PF02673)
"Bacitracin resistance protein BacA"</title>
				<polygon class="PF02673" points="61,28 72,28 84,40 72,52 61,52" stroke-linejoin="round" width="25" height="24" fill="rgb(78,220,196)" stroke="rgb(62,176,156)" stroke-width="1" opacity="0.75" />
			</g>
		</g>
		<g>
			<title> (ctg64_3)</title>
			<polygon class=" (ctg64_3)" points="89,40 102,10 102,70" fill="rgb(255,255,255)" fill-opacity="1.0" stroke="rgb(0,0,0)" stroke-width="2"  />
		</g>
		<g>
			<title> (ctg64_4)</title>
			<polygon class=" (ctg64_4)" points="111,25 120,25 120,10 150,40 120,70 120,55 111,55" fill="rgb(255,255,255)" fill-opacity="1.0" stroke="rgb(0,0,0)" stroke-width="2"  />
			<g>
				<title>APH (PF01636)
"Phosphotransferase enzyme family"</title>
				<polygon class="PF01636" points="117,28 133,28 138,33 138,47 133,52 117,52" stroke-linejoin="round" width="21" height="24" fill="rgb(106,220,228)" stroke="rgb(84,176,182)" stroke-width="1" opacity="0.75" />
			</g>
		</g>
		<g>
			<title> (ctg64_5)</title>
			<polygon class=" (ctg64_5)" points="151,25 157,25 157,10 187,40 157,70 157,55 151,55" fill="rgb(255,255,255)" fill-opacity="1.0" stroke="rgb(0,0,0)" stroke-width="2"  />
			<g>
				<title>HopA1 (PF17914)
"HopA1 effector protein family"</title>
				<polygon class="PF17914" points="168,28 171,28 183,40 171,52 168,52" stroke-linejoin="round" width="17" height="24" fill="rgb(77,79,213)" stroke="rgb(61,63,170)" stroke-width="1" opacity="0.75" />
			</g>
		</g>
		<g>
			<title> (ctg64_6)</title>
			<polygon class=" (ctg64_6)" points="193,40 202,10 202,70" fill="rgb(255,255,255)" fill-opacity="1.0" stroke="rgb(0,0,0)" stroke-width="2"  />
		</g>
		<g>
			<title> (ctg64_7)</title>
			<polygon class=" (ctg64_7)" points="201,40 213,10 213,70" fill="rgb(255,255,255)" fill-opacity="1.0" stroke="rgb(0,0,0)" stroke-width="2"  />
		</g>
		<g>
			<title> (ctg64_8)</title>
			<polygon class=" (ctg64_8)" points="228,10 233,40 228,70" fill="rgb(255,255,255)" fill-opacity="1.0" stroke="rgb(0,0,0)" stroke-width="2"  />
		</g>
		<g>
			<title> (ctg64_9)</title>
			<polygon class=" (ctg64_9)" points="237,40 261,10 261,70" fill="rgb(255,255,255)" fill-opacity="1.0" stroke="rgb(0,0,0)" stroke-width="2"  />
			<g>
				<title>Rotamase (PF00639)
"PPIC-type PPIASE domain"</title>
				<polygon class="PF00639" points="241,40 249,30 249,50 241,40" stroke-linejoin="round" width="8" height="24" fill="rgb(179,171,54)" stroke="rgb(143,136,43)" stroke-width="1" opacity="0.75" />
			</g>
		</g>
		<g>
			<title> (ctg64_10)</title>
			<polygon class=" (ctg64_10)" points="319,25 293,25 293,10 263,40 293,70 293,55 319,55" fill="rgb(255,255,255)" fill-opacity="1.0" stroke="rgb(0,0,0)" stroke-width="2"  />
			<g>
				<title>HlyD_3 (PF13437)
"HlyD family secretion protein"</title>
				<polygon class="PF13437" points="267,40 277,30 277,50" stroke-linejoin="round" width="11" height="24" fill="rgb(82,200,102)" stroke="rgb(65,160,81)" stroke-width="1" opacity="0.75" />
			</g>
			<g>
				<title>Biotin_lipoyl_2 (PF13533)
"Biotin-lipoyl like"</title>
				<rect class="PF13533" x="303" y="28" stroke-linejoin="round" width="6" height="24" fill="rgb(229,122,112)" stroke="rgb(183,97,89)" stroke-width="1" opacity="0.75" />
			</g>
		</g>
		<g>
			<title> (ctg64_11)</title>
			<polygon class=" (ctg64_11)" points="412,25 351,25 351,10 321,40 351,70 351,55 412,55" fill="rgb(255,255,255)" fill-opacity="1.0" stroke="rgb(0,0,0)" stroke-width="2"  />
			<g>
				<title>ABC_tran (PF00005)
"ABC transporter"</title>
				<polygon class="PF00005" points="328,37 337,28 342,28 342,52 337,52 328,43" stroke-linejoin="round" width="14" height="24" fill="rgb(129,201,63)" stroke="rgb(103,160,50)" stroke-width="1" opacity="0.75" />
			</g>
			<g>
				<title>ABC_membrane (PF00664)
"ABC transporter transmembrane region"</title>
				<rect class="PF00664" x="349" y="28" stroke-linejoin="round" width="27" height="24" fill="rgb(149,226,73)" stroke="rgb(119,180,58)" stroke-width="1" opacity="0.75" />
			</g>
			<g>
				<title>Peptidase_C39 (PF03412)
"Peptidase C39 family"</title>
				<rect class="PF03412" x="379" y="28" stroke-linejoin="round" width="12" height="24" fill="rgb(214,226,77)" stroke="rgb(171,180,61)" stroke-width="1" opacity="0.75" />
			</g>
		</g>
		<g>
			<title> (ctg64_12)</title>
			<polygon class=" (ctg64_12)" points="413,40 432,10 432,70" fill="rgb(255,255,255)" fill-opacity="1.0" stroke="rgb(0,0,0)" stroke-width="2"  />
			<g>
				<title>HTH_33 (PF13592)
"Winged helix-turn helix"</title>
				<polygon class="PF13592" points="417,40 420,35 420,45" stroke-linejoin="round" width="5" height="24" fill="rgb(178,60,202)" stroke="rgb(142,47,161)" stroke-width="1" opacity="0.75" />
			</g>
			<g>
				<title>HTH_23 (PF13384)
"Homeodomain-like domain"</title>
				<polygon class="PF13384" points="424,29 425,28 428,28 428,52 425,52 424,51" stroke-linejoin="round" width="4" height="24" fill="rgb(77,216,116)" stroke="rgb(61,172,92)" stroke-width="1" opacity="0.75" />
			</g>
		</g>
		<g>
			<title> (ctg64_13)</title>
			<polygon class=" (ctg64_13)" points="439,40 443,10 443,70" fill="rgb(255,255,255)" fill-opacity="1.0" stroke="rgb(0,0,0)" stroke-width="2"  />
		</g>
		<g>
			<title> (ctg64_14)</title>
			<polygon class=" (ctg64_14)" points="449,40 456,10 456,70" fill="rgb(255,255,255)" fill-opacity="1.0" stroke="rgb(0,0,0)" stroke-width="2"  />
			<g>
				<title>Rotamase (PF00639)
"PPIC-type PPIASE domain"</title>
				<polygon class="PF00639" points="452,40 455,28 456,28 456,52 455,52" stroke-linejoin="round" width="6" height="24" fill="rgb(179,171,54)" stroke="rgb(143,136,43)" stroke-width="1" opacity="0.75" />
			</g>
		</g>
		<g>
			<title> (ctg64_15)</title>
			<polygon class=" (ctg64_15)" points="457,40 485,10 485,70" fill="rgb(255,255,255)" fill-opacity="1.0" stroke="rgb(0,0,0)" stroke-width="2"  />
			<g>
				<title>Abhydrolase_1 (PF00561)
"alpha/beta hydrolase fold"</title>
				<polygon class="PF00561" points="467,34 472,28 481,28 481,52 472,52 467,46" stroke-linejoin="round" width="14" height="24" fill="rgb(86,180,151)" stroke="rgb(68,144,120)" stroke-width="1" opacity="0.75" />
			</g>
		</g>
		<g>
			<title> (ctg64_16)</title>
			<polygon class=" (ctg64_16)" points="485,40 492,10 492,70" fill="rgb(255,255,255)" fill-opacity="1.0" stroke="rgb(0,0,0)" stroke-width="2"  />
		</g>
		<g>
			<title> (ctg64_17)</title>
			<polygon class=" (ctg64_17)" points="537,25 523,25 523,10 493,40 523,70 523,55 537,55" fill="rgb(255,255,255)" fill-opacity="1.0" stroke="rgb(0,0,0)" stroke-width="2"  />
			<g>
				<title>ClpB_D2-small (PF10431)
"C-terminal, D2-small domain, of ClpB protein"</title>
				<polygon class="PF10431" points="497,40 503,34 503,46" stroke-linejoin="round" width="8" height="24" fill="rgb(190,198,67)" stroke="rgb(152,158,53)" stroke-width="1" opacity="0.75" />
			</g>
			<g>
				<title>AAA_2 (PF07724)
"AAA domain (Cdc48 subfamily)"</title>
				<polygon class="PF07724" points="504,33 509,28 524,28 524,52 509,52 504,47" stroke-linejoin="round" width="20" height="24" fill="rgb(132,215,72)" stroke="rgb(105,172,57)" stroke-width="1" opacity="0.75" />
			</g>
			<g>
				<title>zf-C4_ClpX (PF06689)
"ClpX C4-type zinc finger"</title>
				<rect class="PF06689" x="533" y="28" stroke-linejoin="round" width="3" height="24" fill="rgb(218,113,96)" stroke="rgb(174,90,76)" stroke-width="1" opacity="0.75" />
			</g>
		</g>
		<g>
			<title> (ctg64_18)</title>
			<polygon class=" (ctg64_18)" points="537,40 557,10 557,70" fill="rgb(255,255,255)" fill-opacity="1.0" stroke="rgb(0,0,0)" stroke-width="2"  />
			<g>
				<title>CLP_protease (PF00574)
"Clp protease"</title>
				<polygon class="PF00574" points="541,40 549,28 556,28 556,52 549,52" stroke-linejoin="round" width="18" height="24" fill="rgb(196,111,59)" stroke="rgb(156,88,47)" stroke-width="1" opacity="0.75" />
			</g>
		</g>
		<g>
			<title> (ctg64_19)</title>
			<polygon class=" (ctg64_19)" points="620,25 604,25 604,10 574,40 604,70 604,55 620,55" fill="rgb(255,255,255)" fill-opacity="1.0" stroke="rgb(0,0,0)" stroke-width="2"  />
			<g>
				<title>Trigger_C (PF05698)
"Bacterial trigger factor protein (TF) C-terminus"</title>
				<polygon class="PF05698" points="578,40 590,28 593,28 593,52 590,52" stroke-linejoin="round" width="16" height="24" fill="rgb(173,55,194)" stroke="rgb(138,44,155)" stroke-width="1" opacity="0.75" />
			</g>
			<g>
				<title>FKBP_C (PF00254)
"FKBP-type peptidyl-prolyl cis-trans isomerase"</title>
				<rect class="PF00254" x="595" y="28" stroke-linejoin="round" width="8" height="24" fill="rgb(137,65,200)" stroke="rgb(109,51,160)" stroke-width="1" opacity="0.75" />
			</g>
			<g>
				<title>Trigger_N (PF05697)
"Bacterial trigger factor protein (TF)"</title>
				<rect class="PF05697" x="605" y="28" stroke-linejoin="round" width="14" height="24" fill="rgb(181,113,81)" stroke="rgb(144,90,64)" stroke-width="1" opacity="0.75" />
			</g>
		</g>
		<g>
			<title> (ctg64_20)</title>
			<polygon class=" (ctg64_20)" points="631,25 635,25 635,10 665,40 635,70 635,55 631,55" fill="rgb(255,255,255)" fill-opacity="1.0" stroke="rgb(0,0,0)" stroke-width="2"  />
			<g>
				<title>Semialdhyde_dh (PF01118)
"Semialdehyde dehydrogenase, NAD binding domain"</title>
				<rect class="PF01118" x="631" y="28" stroke-linejoin="round" width="11" height="24" fill="rgb(191,106,221)" stroke="rgb(152,84,176)" stroke-width="1" opacity="0.75" />
			</g>
			<g>
				<title>Semialdhyde_dhC (PF02774)
"Semialdehyde dehydrogenase, dimerisation domain"</title>
				<polygon class="PF02774" points="644,28 649,28 661,40 649,52 644,52" stroke-linejoin="round" width="18" height="24" fill="rgb(57,188,185)" stroke="rgb(45,150,147)" stroke-width="1" opacity="0.75" />
			</g>
		</g>
		<g>
			<title> (ctg64_21)</title>
			<polygon class=" (ctg64_21)" points="675,10 704,40 675,70" fill="rgb(255,255,255)" fill-opacity="1.0" stroke="rgb(0,0,0)" stroke-width="2"  />
			<g>
				<title>DHDPS (PF00701)
"Dihydrodipicolinate synthetase family"</title>
				<polygon class="PF00701" points="675,28 688,28 700,40 688,52 675,52" stroke-linejoin="round" width="28" height="24" fill="rgb(80,204,82)" stroke="rgb(64,163,65)" stroke-width="1" opacity="0.75" />
			</g>
		</g>
		<g>
			<title> (ctg64_22)</title>
			<polygon class=" (ctg64_22)" points="713,25 741,25 741,10 771,40 741,70 741,55 713,55" fill="rgb(255,255,255)" fill-opacity="1.0" stroke="rgb(0,0,0)" stroke-width="2"  />
			<g>
				<title>Lactamase_B (PF00753)
"Metallo-beta-lactamase superfamily"</title>
				<rect class="PF00753" x="715" y="28" stroke-linejoin="round" width="24" height="24" fill="rgb(206,198,96)" stroke="rgb(164,158,76)" stroke-width="1" opacity="0.75" />
			</g>
			<g>
				<title>RMMBL (PF07521)
"Zn-dependent metallo-hydrolase RNA specificity domain"</title>
				<rect class="PF07521" x="749" y="28" stroke-linejoin="round" width="5" height="24" fill="rgb(75,144,204)" stroke="rgb(60,115,163)" stroke-width="1" opacity="0.75" />
			</g>
			<g>
				<title>RNase_J_C (PF17770)
"Ribonuclease J C-terminal domain"</title>
				<polygon class="PF17770" points="758,31 767,40 758,49" stroke-linejoin="round" width="10" height="24" fill="rgb(205,78,145)" stroke="rgb(164,62,116)" stroke-width="1" opacity="0.75" />
			</g>
		</g>
		<g>
			<title> (ctg64_23)</title>
			<polygon class=" (ctg64_23)" points="777,10 802,40 777,70" fill="rgb(255,255,255)" fill-opacity="1.0" stroke="rgb(0,0,0)" stroke-width="2"  />
			<g>
				<title>AIRC (PF00731)
"AIR carboxylase"</title>
				<polygon class="PF00731" points="789,29 798,40 789,51" stroke-linejoin="round" width="13" height="24" fill="rgb(73,174,200)" stroke="rgb(58,139,160)" stroke-width="1" opacity="0.75" />
			</g>
		</g>
	</g>
</svg>
