<svg version="1.1" baseProfile="full" xmlns="http://www.w3.org/2000/svg" width="495.26666666666665" height="80">
	<g>
		<line x1="10" y1="40.0" x2="485.26666666666665" y2="40.0" style="stroke:rgb(70,70,70); stroke-width:3 "/>
		<g>
			<title> (ctg134_1)</title>
			<polygon class=" (ctg134_1)" points="10,10 17,40 10,70" fill="rgb(255,255,255)" fill-opacity="1.0" stroke="rgb(0,0,0)" stroke-width="2"  />
		</g>
		<g>
			<title> (ctg134_2)</title>
			<polygon class=" (ctg134_2)" points="18,10 27,40 18,70" fill="rgb(255,255,255)" fill-opacity="1.0" stroke="rgb(0,0,0)" stroke-width="2"  />
			<g>
				<title>Ribosomal_S15 (PF00312)
"Ribosomal protein S15"</title>
				<polygon class="PF00312" points="18,28 19,28 23,40 19,52 18,52" stroke-linejoin="round" width="8" height="24" fill="rgb(176,72,186)" stroke="rgb(140,57,148)" stroke-width="1" opacity="0.75" />
			</g>
		</g>
		<g>
			<title> (ctg134_3)</title>
			<polygon class=" (ctg134_3)" points="27,10 42,40 27,70" fill="rgb(255,255,255)" fill-opacity="1.0" stroke="rgb(0,0,0)" stroke-width="2"  />
			<g>
				<title>DUF3464 (PF11947)
"Photosynthesis affected mutant 68"</title>
				<polygon class="PF11947" points="27,28 32,28 39,40 32,52 27,52" stroke-linejoin="round" width="13" height="24" fill="rgb(199,90,182)" stroke="rgb(159,72,145)" stroke-width="1" opacity="0.75" />
			</g>
		</g>
		<g>
			<title> (ctg134_4)</title>
			<polygon class=" (ctg134_4)" points="45,25 50,25 50,10 80,40 50,70 50,55 45,55" fill="rgb(255,255,255)" fill-opacity="1.0" stroke="rgb(0,0,0)" stroke-width="2"  />
			<g>
				<title>DAHP_snth_FXD (PF18152)
"DAHP synthase ferredoxin-like domain"</title>
				<rect class="PF18152" x="45" y="28" stroke-linejoin="round" width="6" height="24" fill="rgb(80,206,228)" stroke="rgb(64,164,182)" stroke-width="1" opacity="0.75" />
			</g>
			<g>
				<title>DAHP_synth_1 (PF00793)
"DAHP synthetase I family"</title>
				<polygon class="PF00793" points="53,28 63,28 75,40 63,52 53,52" stroke-linejoin="round" width="25" height="24" fill="rgb(223,103,208)" stroke="rgb(178,82,166)" stroke-width="1" opacity="0.75" />
			</g>
		</g>
		<g>
			<title> (ctg134_5)</title>
			<polygon class=" (ctg134_5)" points="82,10 103,40 82,70" fill="rgb(255,255,255)" fill-opacity="1.0" stroke="rgb(0,0,0)" stroke-width="2"  />
			<g>
				<title>Uma2 (PF05685)
"Putative restriction endonuclease"</title>
				<polygon class="PF05685" points="84,28 91,28 100,40 100,40 91,52 84,52" stroke-linejoin="round" width="16" height="24" fill="rgb(123,107,219)" stroke="rgb(98,85,175)" stroke-width="1" opacity="0.75" />
			</g>
		</g>
		<g>
			<title> (ctg134_6)</title>
			<polygon class=" (ctg134_6)" points="104,10 125,40 104,70" fill="rgb(255,255,255)" fill-opacity="1.0" stroke="rgb(0,0,0)" stroke-width="2"  />
			<g>
				<title>Uma2 (PF05685)
"Putative restriction endonuclease"</title>
				<polygon class="PF05685" points="106,28 113,28 122,40 122,40 113,52 106,52" stroke-linejoin="round" width="16" height="24" fill="rgb(123,107,219)" stroke="rgb(98,85,175)" stroke-width="1" opacity="0.75" />
			</g>
		</g>
		<g>
			<title> (ctg134_7)</title>
			<polygon class=" (ctg134_7)" points="139,25 154,25 154,10 184,40 154,70 154,55 139,55" fill="rgb(255,255,255)" fill-opacity="1.0" stroke="rgb(0,0,0)" stroke-width="2"  />
			<g>
				<title>TIR_2 (PF13676)
"TIR domain"</title>
				<rect class="PF13676" x="139" y="28" stroke-linejoin="round" width="13" height="24" fill="rgb(87,220,58)" stroke="rgb(69,176,46)" stroke-width="1" opacity="0.75" />
			</g>
			<g>
				<title>FGE-sulfatase (PF03781)
"Sulfatase-modifying factor enzyme 1"</title>
				<polygon class="PF03781" points="158,28 168,28 180,40 168,52 158,52" stroke-linejoin="round" width="25" height="24" fill="rgb(206,81,170)" stroke="rgb(164,64,136)" stroke-width="1" opacity="0.75" />
			</g>
		</g>
		<g>
			<title> (ctg134_8)</title>
			<polygon class=" (ctg134_8)" points="246,25 217,25 217,10 187,40 217,70 217,55 246,55" fill="rgb(255,255,255)" fill-opacity="1.0" stroke="rgb(0,0,0)" stroke-width="2"  />
			<g>
				<title>tRNA-synt_2 (PF00152)
"tRNA synthetases class II (D, K and N)"</title>
				<polygon class="PF00152" points="191,40 203,28 234,28 234,52 203,52" stroke-linejoin="round" width="44" height="24" fill="rgb(90,71,190)" stroke="rgb(72,56,152)" stroke-width="1" opacity="0.75" />
			</g>
			<g>
				<title>tRNA_anti-codon (PF01336)
"OB-fold nucleic acid binding domain"</title>
				<rect class="PF01336" x="236" y="28" stroke-linejoin="round" width="8" height="24" fill="rgb(215,103,173)" stroke="rgb(172,82,138)" stroke-width="1" opacity="0.75" />
			</g>
		</g>
		<g>
			<title> (ctg134_9)</title>
			<polygon class=" (ctg134_9)" points="254,10 280,40 254,70" fill="rgb(255,255,255)" fill-opacity="1.0" stroke="rgb(0,0,0)" stroke-width="2"  />
			<g>
				<title>HpcH_HpaI (PF03328)
"HpcH/HpaI aldolase/citrate lyase family"</title>
				<polygon class="PF03328" points="259,28 266,28 272,36 272,44 266,52 259,52" stroke-linejoin="round" width="13" height="24" fill="rgb(81,183,94)" stroke="rgb(64,146,75)" stroke-width="1" opacity="0.75" />
			</g>
		</g>
		<g>
			<title> (ctg134_10)</title>
			<polygon class=" (ctg134_10)" points="312,40 336,10 336,70" fill="rgb(255,255,255)" fill-opacity="1.0" stroke="rgb(0,0,0)" stroke-width="2"  />
			<g>
				<title>adh_short_C2 (PF13561)
"Enoyl-(Acyl carrier protein) reductase"</title>
				<polygon class="PF13561" points="316,40 326,28 334,28 334,52 326,52" stroke-linejoin="round" width="22" height="24" fill="rgb(73,205,127)" stroke="rgb(58,164,101)" stroke-width="1" opacity="0.75" />
			</g>
		</g>
		<g>
			<title> (ctg134_11)</title>
			<polygon class=" (ctg134_11)" points="338,40 364,10 364,70" fill="rgb(255,255,255)" fill-opacity="1.0" stroke="rgb(0,0,0)" stroke-width="2"  />
			<g>
				<title>Methyltransf_11 (PF08241)
"Methyltransferase domain"</title>
				<polygon class="PF08241" points="348,33 353,28 357,28 357,52 353,52 348,47" stroke-linejoin="round" width="9" height="24" fill="rgb(106,219,159)" stroke="rgb(84,175,127)" stroke-width="1" opacity="0.75" />
			</g>
		</g>
		<g>
			<title> (ctg134_12)</title>
			<polygon class=" (ctg134_12)" points="397,10 402,40 397,70" fill="rgb(255,255,255)" fill-opacity="1.0" stroke="rgb(0,0,0)" stroke-width="2"  />
			<g>
				<title>Inhibitor_I10 (PF12559)
"Serine endopeptidase inhibitors"</title>
				<polygon class="PF12559" points="397,28 399,40 397,52" stroke-linejoin="round" width="5" height="24" fill="rgb(179,147,51)" stroke="rgb(143,117,40)" stroke-width="1" opacity="0.75" />
			</g>
		</g>
		<g>
			<title> (ctg134_13)</title>
			<polygon class=" (ctg134_13)" points="407,40 423,10 423,70" fill="rgb(255,255,255)" fill-opacity="1.0" stroke="rgb(0,0,0)" stroke-width="2"  />
		</g>
		<g>
			<title> (ctg134_14)</title>
			<polygon class=" (ctg134_14)" points="484,25 462,25 462,10 432,40 462,70 462,55 484,55" fill="rgb(255,255,255)" fill-opacity="1.0" stroke="rgb(0,0,0)" stroke-width="2"  />
			<g>
				<title>Thioesterase (PF00975)
"Thioesterase domain"</title>
				<polygon class="PF00975" points="436,40 448,28 458,28 458,52 448,52" stroke-linejoin="round" width="26" height="24" fill="rgb(207,80,138)" stroke="rgb(165,63,110)" stroke-width="1" opacity="0.75" />
			</g>
			<g>
				<title>PP-binding (PF00550)
"Phosphopantetheine attachment site"</title>
				<rect class="PF00550" x="461" y="28" stroke-linejoin="round" width="6" height="24" fill="rgb(103,191,88)" stroke="rgb(82,152,70)" stroke-width="1" opacity="0.75" />
			</g>
			<g>
				<title>AMP-binding_C (PF13193)
"AMP-binding enzyme C-terminal domain"</title>
				<rect class="PF13193" x="470" y="28" stroke-linejoin="round" width="7" height="24" fill="rgb(182,50,118)" stroke="rgb(145,39,94)" stroke-width="1" opacity="0.75" />
			</g>
			<g>
				<title>AMP-binding (PF00501)
"AMP-binding enzyme"</title>
				<rect class="PF00501" x="478" y="28" stroke-linejoin="round" width="5" height="24" fill="rgb(60,217,223)" stroke="rgb(48,173,178)" stroke-width="1" opacity="0.75" />
			</g>
		</g>
	</g>
</svg>
