<svg version="1.1" baseProfile="full" xmlns="http://www.w3.org/2000/svg" width="131.53333333333333" height="80">
	<g>
		<line x1="10" y1="40.0" x2="121.53333333333333" y2="40.0" style="stroke:rgb(70,70,70); stroke-width:3 "/>
		<g>
			<title> (DUI70_RS10785)
lasso peptide albusnodin</title>
			<polygon class=" (DUI70_RS10785)
lasso peptide albusnodin" points="10,10 14,40 10,70" fill="rgb(255,255,255)" fill-opacity="1.0" stroke="rgb(0,0,0)" stroke-width="2"  />
		</g>
		<g>
			<title> (DUI70_RS10790)
asparagine synthetase B family protein</title>
			<polygon class=" (DUI70_RS10790)
asparagine synthetase B family protein" points="17,25 47,25 47,10 77,40 47,70 47,55 17,55" fill="rgb(255,255,255)" fill-opacity="1.0" stroke="rgb(0,0,0)" stroke-width="2"  />
			<g>
				<title>Asn_synthase (PF00733)
"Asparagine synthase"</title>
				<polygon class="PF00733" points="36,28 61,28 73,40 61,52 36,52" stroke-linejoin="round" width="39" height="24" fill="rgb(97,201,176)" stroke="rgb(77,160,140)" stroke-width="1" opacity="0.75" />
			</g>
		</g>
		<g>
			<title> (DUI70_RS10795)
lasso peptide biosynthesis B2 protein</title>
			<polygon class=" (DUI70_RS10795)
lasso peptide biosynthesis B2 protein" points="77,10 101,40 77,70" fill="rgb(255,255,255)" fill-opacity="1.0" stroke="rgb(0,0,0)" stroke-width="2"  />
			<g>
				<title>Transglut_core3 (PF13471)
"Transglutaminase-like superfamily"</title>
				<polygon class="PF13471" points="89,30 97,40 89,50" stroke-linejoin="round" width="11" height="24" fill="rgb(63,111,179)" stroke="rgb(50,88,143)" stroke-width="1" opacity="0.75" />
			</g>
		</g>
		<g>
			<title> (DUI70_RS10800)
GNAT family N-acetyltransferase</title>
			<polygon class=" (DUI70_RS10800)
GNAT family N-acetyltransferase" points="102,10 121,40 102,70" fill="rgb(255,255,255)" fill-opacity="1.0" stroke="rgb(0,0,0)" stroke-width="2"  />
			<g>
				<title>Acetyltransf_3 (PF13302)
"Acetyltransferase (GNAT) domain"</title>
				<polygon class="PF13302" points="102,28 110,28 115,36 115,44 110,52 102,52" stroke-linejoin="round" width="13" height="24" fill="rgb(105,146,215)" stroke="rgb(84,116,172)" stroke-width="1" opacity="0.75" />
			</g>
		</g>
	</g>
</svg>
