<svg version="1.1" baseProfile="full" xmlns="http://www.w3.org/2000/svg" width="282.23333333333335" height="80">
	<g>
		<line x1="10" y1="40.0" x2="272.23333333333335" y2="40.0" style="stroke:rgb(70,70,70); stroke-width:3 "/>
		<g>
			<title> (A3Q35_RS17320)
DUF1861 family protein</title>
			<polygon class=" (A3Q35_RS17320)
DUF1861 family protein" points="10,10 18,40 10,70" fill="rgb(255,255,255)" fill-opacity="1.0" stroke="rgb(0,0,0)" stroke-width="2"  />
			<g>
				<title>DUF1861 (PF08950)
"Protein of unknown function (DUF1861)"</title>
				<polygon class="PF08950" points="10,28 11,28 15,40 11,52 10,52" stroke-linejoin="round" width="8" height="24" fill="rgb(70,221,153)" stroke="rgb(56,176,122)" stroke-width="1" opacity="0.75" />
			</g>
		</g>
		<g>
			<title> (A3Q35_RS17325)
hypothetical protein</title>
			<polygon class=" (A3Q35_RS17325)
hypothetical protein" points="29,10 58,40 29,70" fill="rgb(255,255,255)" fill-opacity="1.0" stroke="rgb(0,0,0)" stroke-width="2"  />
			<g>
				<title>HTH_36 (PF13730)
"Helix-turn-helix domain"</title>
				<rect class="PF13730" x="35" y="28" stroke-linejoin="round" width="4" height="24" fill="rgb(149,101,210)" stroke="rgb(119,80,168)" stroke-width="1" opacity="0.75" />
			</g>
		</g>
		<g>
			<title> (A3Q35_RS17330)
DUF3967 domain-containing protein</title>
			<polygon class=" (A3Q35_RS17330)
DUF3967 domain-containing protein" points="65,10 85,40 65,70" fill="rgb(255,255,255)" fill-opacity="1.0" stroke="rgb(0,0,0)" stroke-width="2"  />
			<g>
				<title>MerR_1 (PF13411)
"MerR HTH family regulatory protein"</title>
				<rect class="PF13411" x="67" y="28" stroke-linejoin="round" width="6" height="24" fill="rgb(100,202,107)" stroke="rgb(80,161,85)" stroke-width="1" opacity="0.75" />
			</g>
			<g>
				<title>DUF3967 (PF13152)
"Protein of unknown function (DUF3967)"</title>
				<polygon class="PF13152" points="81,39 81,40 81,41" stroke-linejoin="round" width="3" height="24" fill="rgb(209,71,206)" stroke="rgb(167,56,164)" stroke-width="1" opacity="0.75" />
			</g>
		</g>
		<g>
			<title> (A3Q35_RS17335)
pallidocin</title>
			<polygon class=" (A3Q35_RS17335)
pallidocin" points="102,10 108,40 102,70" fill="rgb(255,255,255)" fill-opacity="1.0" stroke="rgb(0,0,0)" stroke-width="2"  />
		</g>
		<g>
			<title>sunS (A3Q35_RS17340)
pallidocin S-glycosyltransferase</title>
			<polygon class="sunS (A3Q35_RS17340)
pallidocin S-glycosyltransferase" points="111,25 124,25 124,10 154,40 124,70 124,55 111,55" fill="rgb(255,255,255)" fill-opacity="1.0" stroke="rgb(0,0,0)" stroke-width="2"  />
			<g>
				<title>Glycos_transf_2 (PF00535)
"Glycosyl transferase family 2"</title>
				<rect class="PF00535" x="117" y="28" stroke-linejoin="round" width="13" height="24" fill="rgb(224,122,96)" stroke="rgb(179,97,76)" stroke-width="1" opacity="0.75" />
			</g>
		</g>
		<g>
			<title> (A3Q35_RS17345)
pallidocin leader peptidase/ABC transporter</title>
			<polygon class=" (A3Q35_RS17345)
pallidocin leader peptidase/ABC transporter" points="156,25 197,25 197,10 227,40 197,70 197,55 156,55" fill="rgb(255,255,255)" fill-opacity="1.0" stroke="rgb(0,0,0)" stroke-width="2"  />
			<g>
				<title>Peptidase_C39 (PF03412)
"Peptidase C39 family"</title>
				<rect class="PF03412" x="157" y="28" stroke-linejoin="round" width="13" height="24" fill="rgb(214,226,77)" stroke="rgb(171,180,61)" stroke-width="1" opacity="0.75" />
			</g>
			<g>
				<title>ABC_membrane (PF00664)
"ABC transporter transmembrane region"</title>
				<rect class="PF00664" x="173" y="28" stroke-linejoin="round" width="27" height="24" fill="rgb(149,226,73)" stroke="rgb(119,180,58)" stroke-width="1" opacity="0.75" />
			</g>
			<g>
				<title>ABC_tran (PF00005)
"ABC transporter"</title>
				<polygon class="PF00005" points="207,28 211,28 221,38 221,42 211,52 207,52" stroke-linejoin="round" width="14" height="24" fill="rgb(129,201,63)" stroke="rgb(103,160,50)" stroke-width="1" opacity="0.75" />
			</g>
		</g>
		<g>
			<title> (A3Q35_RS17350)
thioredoxin family protein</title>
			<polygon class=" (A3Q35_RS17350)
thioredoxin family protein" points="227,10 240,40 227,70" fill="rgb(255,255,255)" fill-opacity="1.0" stroke="rgb(0,0,0)" stroke-width="2"  />
			<g>
				<title>Thioredoxin (PF00085)
"Thioredoxin"</title>
				<polygon class="PF00085" points="230,28 231,28 237,40 231,52 230,52" stroke-linejoin="round" width="10" height="24" fill="rgb(220,109,180)" stroke="rgb(176,87,144)" stroke-width="1" opacity="0.75" />
			</g>
		</g>
		<g>
			<title> (A3Q35_RS17355)
disulfide bond formation protein B</title>
			<polygon class=" (A3Q35_RS17355)
disulfide bond formation protein B" points="247,10 262,40 247,70" fill="rgb(255,255,255)" fill-opacity="1.0" stroke="rgb(0,0,0)" stroke-width="2"  />
			<g>
				<title>DsbB (PF02600)
"Disulfide bond formation protein DsbB"</title>
				<polygon class="PF02600" points="247,28 252,28 258,40 252,52 247,52" stroke-linejoin="round" width="12" height="24" fill="rgb(80,174,206)" stroke="rgb(64,139,164)" stroke-width="1" opacity="0.75" />
			</g>
		</g>
		<g>
			<title> (A3Q35_RS17360)
transposase</title>
			<polygon class=" (A3Q35_RS17360)
transposase" points="265,10 271,40 265,70" fill="rgb(255,255,255)" fill-opacity="1.0" stroke="rgb(0,0,0)" stroke-width="2"  />
			<g>
				<title>HTH_Tnp_1 (PF01527)
"Transposase"</title>
				<polygon class="PF01527" points="265,28 265,28 268,40 265,52 265,52" stroke-linejoin="round" width="6" height="24" fill="rgb(85,212,107)" stroke="rgb(68,169,85)" stroke-width="1" opacity="0.75" />
			</g>
		</g>
	</g>
</svg>
