<svg version="1.1" baseProfile="full" xmlns="http://www.w3.org/2000/svg" width="399.8666666666667" height="80">
	<g>
		<line x1="10" y1="40.0" x2="389.8666666666667" y2="40.0" style="stroke:rgb(70,70,70); stroke-width:3 "/>
		<g>
			<title> (Ccel_3258)
conserved hypothetical protein</title>
			<polygon class=" (Ccel_3258)
conserved hypothetical protein" points="45,25 40,25 40,10 10,40 40,70 40,55 45,55" fill="rgb(255,255,255)" fill-opacity="1.0" stroke="rgb(0,0,0)" stroke-width="2"  />
		</g>
		<g>
			<title> (Ccel_3259)
aminotransferase class-III</title>
			<polygon class=" (Ccel_3259)
aminotransferase class-III" points="90,25 77,25 77,10 47,40 77,70 77,55 90,55" fill="rgb(255,255,255)" fill-opacity="1.0" stroke="rgb(0,0,0)" stroke-width="2"  />
			<g>
				<title>Aminotran_3 (PF00202)
"Aminotransferase class-III"</title>
				<polygon class="PF00202" points="51,40 63,28 89,28 89,52 63,52" stroke-linejoin="round" width="42" height="24" fill="rgb(49,163,189)" stroke="rgb(39,130,151)" stroke-width="1" opacity="0.75" />
			</g>
		</g>
		<g>
			<title> (Ccel_3260)
protein of unknown function DUF98</title>
			<polygon class=" (Ccel_3260)
protein of unknown function DUF98" points="92,40 111,10 111,70" fill="rgb(255,255,255)" fill-opacity="1.0" stroke="rgb(0,0,0)" stroke-width="2"  />
			<g>
				<title>DUF98 (PF01947)
"p-hydroxybenzoic acid synthase"</title>
				<polygon class="PF01947" points="96,40 104,28 107,28 107,52 104,52" stroke-linejoin="round" width="15" height="24" fill="rgb(200,80,201)" stroke="rgb(160,64,160)" stroke-width="1" opacity="0.75" />
			</g>
		</g>
		<g>
			<title> (Ccel_3261)
ABC-2 type transporter</title>
			<polygon class=" (Ccel_3261)
ABC-2 type transporter" points="122,40 147,10 147,70" fill="rgb(255,255,255)" fill-opacity="1.0" stroke="rgb(0,0,0)" stroke-width="2"  />
			<g>
				<title>ABC2_membrane (PF01061)
"ABC-2 type transporter"</title>
				<polygon class="PF01061" points="126,40 136,28 146,28 146,52 136,52" stroke-linejoin="round" width="21" height="24" fill="rgb(139,217,106)" stroke="rgb(111,173,84)" stroke-width="1" opacity="0.75" />
			</g>
		</g>
		<g>
			<title> (Ccel_3262)
ABC transporter related</title>
			<polygon class=" (Ccel_3262)
ABC transporter related" points="178,25 176,25 176,10 146,40 176,70 176,55 178,55" fill="rgb(255,255,255)" fill-opacity="1.0" stroke="rgb(0,0,0)" stroke-width="2"  />
			<g>
				<title>ABC_tran (PF00005)
"ABC transporter"</title>
				<polygon class="PF00005" points="161,29 162,28 175,28 175,52 162,52 161,51" stroke-linejoin="round" width="14" height="24" fill="rgb(129,201,63)" stroke="rgb(103,160,50)" stroke-width="1" opacity="0.75" />
			</g>
		</g>
		<g>
			<title> (Ccel_3263)
transcription activator effector binding</title>
			<polygon class=" (Ccel_3263)
transcription activator effector binding" points="179,40 194,10 194,70" fill="rgb(255,255,255)" fill-opacity="1.0" stroke="rgb(0,0,0)" stroke-width="2"  />
			<g>
				<title>GyrI-like (PF06445)
"GyrI-like small molecule binding domain"</title>
				<polygon class="PF06445" points="182,40 188,28 193,28 193,52 188,52" stroke-linejoin="round" width="14" height="24" fill="rgb(61,183,118)" stroke="rgb(48,146,94)" stroke-width="1" opacity="0.75" />
			</g>
		</g>
		<g>
			<title> (Ccel_3264)
transcriptional regulator, AraC family</title>
			<polygon class=" (Ccel_3264)
transcriptional regulator, AraC family" points="194,40 222,10 222,70" fill="rgb(255,255,255)" fill-opacity="1.0" stroke="rgb(0,0,0)" stroke-width="2"  />
			<g>
				<title>Cass2 (PF14526)
"Integron-associated effector binding protein"</title>
				<polygon class="PF14526" points="198,40 209,29 209,51" stroke-linejoin="round" width="15" height="24" fill="rgb(57,73,185)" stroke="rgb(45,58,148)" stroke-width="1" opacity="0.75" />
			</g>
			<g>
				<title>HTH_18 (PF12833)
"Helix-turn-helix domain"</title>
				<rect class="PF12833" x="212" y="28" stroke-linejoin="round" width="7" height="24" fill="rgb(216,58,224)" stroke="rgb(172,46,179)" stroke-width="1" opacity="0.75" />
			</g>
		</g>
		<g>
			<title> (Ccel_3265)
excinuclease ABC, A subunit</title>
			<polygon class=" (Ccel_3265)
excinuclease ABC, A subunit" points="326,25 257,25 257,10 227,40 257,70 257,55 326,55" fill="rgb(255,255,255)" fill-opacity="1.0" stroke="rgb(0,0,0)" stroke-width="2"  />
			<g>
				<title>ABC_tran (PF00005)
"ABC transporter"</title>
				<polygon class="PF00005" points="236,35 243,28 251,28 251,52 243,52 236,45" stroke-linejoin="round" width="15" height="24" fill="rgb(129,201,63)" stroke="rgb(103,160,50)" stroke-width="1" opacity="0.75" />
			</g>
			<g>
				<title>UvrA_DNA-bind (PF17755)
"UvrA DNA-binding domain"</title>
				<rect class="PF17755" x="282" y="28" stroke-linejoin="round" width="11" height="24" fill="rgb(175,198,76)" stroke="rgb(140,158,60)" stroke-width="1" opacity="0.75" />
			</g>
			<g>
				<title>UvrA_inter (PF17760)
"UvrA interaction domain"</title>
				<rect class="PF17760" x="298" y="28" stroke-linejoin="round" width="11" height="24" fill="rgb(59,119,208)" stroke="rgb(47,95,166)" stroke-width="1" opacity="0.75" />
			</g>
		</g>
		<g>
			<title> (Ccel_3266)
transposase IS200-family protein</title>
			<polygon class=" (Ccel_3266)
transposase IS200-family protein" points="347,40 362,10 362,70" fill="rgb(255,255,255)" fill-opacity="1.0" stroke="rgb(0,0,0)" stroke-width="2"  />
			<g>
				<title>Y1_Tnp (PF01797)
"Transposase IS200 like"</title>
				<polygon class="PF01797" points="350,40 356,28 360,28 360,52 356,52" stroke-linejoin="round" width="11" height="24" fill="rgb(198,164,60)" stroke="rgb(158,131,47)" stroke-width="1" opacity="0.75" />
			</g>
		</g>
		<g>
			<title> (Ccel_3267)
hypothetical protein</title>
			<polygon class=" (Ccel_3267)
hypothetical protein" points="368,40 373,10 373,70" fill="rgb(255,255,255)" fill-opacity="1.0" stroke="rgb(0,0,0)" stroke-width="2"  />
		</g>
		<g>
			<title> (Ccel_3268)
hypothetical protein</title>
			<polygon class=" (Ccel_3268)
hypothetical protein" points="383,40 388,10 388,70" fill="rgb(255,255,255)" fill-opacity="1.0" stroke="rgb(0,0,0)" stroke-width="2"  />
		</g>
	</g>
</svg>
