<svg version="1.1" baseProfile="full" xmlns="http://www.w3.org/2000/svg" width="2216.6666666666665" height="80">
	<g>
		<line x1="10" y1="40.0" x2="2206.6666666666665" y2="40.0" style="stroke:rgb(70,70,70); stroke-width:3 "/>
		<g>
			<title>
magnesium and cobalt transport protein</title>
			<polygon class="
magnesium and cobalt transport protein" points="13,25 22,25 22,10 52,40 22,70 22,55 13,55" fill="rgb(255,255,255)" fill-opacity="1.0" stroke="rgb(0,0,0)" stroke-width="2"  />
			<g>
				<title>CorA (PF01544)
"CorA-like Mg2+ transporter protein"</title>
				<polygon class="PF01544" points="21,28 35,28 47,40 35,52 21,52" stroke-linejoin="round" width="30" height="24" fill="rgb(65,141,201)" stroke="rgb(52,112,160)" stroke-width="1" opacity="0.75" />
			</g>
		</g>
		<g>
			<title>
hypothetical protein</title>
			<polygon class="
hypothetical protein" points="62,40 88,10 88,70" fill="rgb(255,255,255)" fill-opacity="1.0" stroke="rgb(0,0,0)" stroke-width="2"  />
		</g>
		<g>
			<title>
hypothetical protein</title>
			<polygon class="
hypothetical protein" points="175,25 148,25 148,10 118,40 148,70 148,55 175,55" fill="rgb(255,255,255)" fill-opacity="1.0" stroke="rgb(0,0,0)" stroke-width="2"  />
		</g>
		<g>
			<title>
hypothetical protein</title>
			<polygon class="
hypothetical protein" points="180,10 202,40 180,70" fill="rgb(255,255,255)" fill-opacity="1.0" stroke="rgb(0,0,0)" stroke-width="2"  />
			<g>
				<title>DUF6338 (PF19865)
"Family of unknown function (DUF6338)"</title>
				<polygon class="PF19865" points="180,28 190,28 198,40 190,52 180,52" stroke-linejoin="round" width="20" height="24" fill="rgb(129,228,107)" stroke="rgb(103,182,85)" stroke-width="1" opacity="0.75" />
			</g>
		</g>
		<g>
			<title>
hypothetical protein</title>
			<polygon class="
hypothetical protein" points="212,10 217,40 212,70" fill="rgb(255,255,255)" fill-opacity="1.0" stroke="rgb(0,0,0)" stroke-width="2"  />
		</g>
		<g>
			<title>
peptidase C14 caspase catalytic subunit P20</title>
			<polygon class="
peptidase C14 caspase catalytic subunit P20" points="217,25 220,25 220,10 250,40 220,70 220,55 217,55" fill="rgb(255,255,255)" fill-opacity="1.0" stroke="rgb(0,0,0)" stroke-width="2"  />
			<g>
				<title>Peptidase_C14 (PF00656)
"Caspase domain"</title>
				<polygon class="PF00656" points="217,28 234,28 240,34 240,46 234,52 217,52" stroke-linejoin="round" width="23" height="24" fill="rgb(57,105,184)" stroke="rgb(45,84,147)" stroke-width="1" opacity="0.75" />
			</g>
		</g>
		<g>
			<title>
hypothetical protein</title>
			<polygon class="
hypothetical protein" points="251,10 267,40 251,70" fill="rgb(255,255,255)" fill-opacity="1.0" stroke="rgb(0,0,0)" stroke-width="2"  />
		</g>
		<g>
			<title>
hypothetical protein</title>
			<polygon class="
hypothetical protein" points="301,25 299,25 299,10 269,40 299,70 299,55 301,55" fill="rgb(255,255,255)" fill-opacity="1.0" stroke="rgb(0,0,0)" stroke-width="2"  />
			<g>
				<title>TIR_2 (PF13676)
"TIR domain"</title>
				<polygon class="PF13676" points="285,28 285,28 299,28 299,52 285,52 285,52" stroke-linejoin="round" width="14" height="24" fill="rgb(87,220,58)" stroke="rgb(69,176,46)" stroke-width="1" opacity="0.75" />
			</g>
		</g>
		<g>
			<title>
peptidase</title>
			<polygon class="
peptidase" points="310,25 327,25 327,10 357,40 327,70 327,55 310,55" fill="rgb(255,255,255)" fill-opacity="1.0" stroke="rgb(0,0,0)" stroke-width="2"  />
			<g>
				<title>Peptidase_M20 (PF01546)
"Peptidase family M20/M25/M40"</title>
				<polygon class="PF01546" points="318,28 340,28 352,40 340,52 318,52" stroke-linejoin="round" width="37" height="24" fill="rgb(88,213,108)" stroke="rgb(70,170,86)" stroke-width="1" opacity="0.75" />
			</g>
		</g>
		<g>
			<title>
hypothetical protein</title>
			<polygon class="
hypothetical protein" points="399,25 387,25 387,10 357,40 387,70 387,55 399,55" fill="rgb(255,255,255)" fill-opacity="1.0" stroke="rgb(0,0,0)" stroke-width="2"  />
			<g>
				<title>PGM1_C (PF18105)
"PGM1 C-terminal domain"</title>
				<polygon class="PF18105" points="361,40 362,39 362,41" stroke-linejoin="round" width="5" height="24" fill="rgb(71,184,96)" stroke="rgb(56,147,76)" stroke-width="1" opacity="0.75" />
			</g>
			<g>
				<title>PreAtp-grasp (PF18604)
"Pre ATP-grasp domain"</title>
				<rect class="PF18604" x="386" y="28" stroke-linejoin="round" width="9" height="24" fill="rgb(148,214,94)" stroke="rgb(118,171,75)" stroke-width="1" opacity="0.75" />
			</g>
		</g>
		<g>
			<title>
inner membrane amino-acid ABC transporter permease protein</title>
			<polygon class="
inner membrane amino-acid ABC transporter permease protein" points="402,40 431,10 431,70" fill="rgb(255,255,255)" fill-opacity="1.0" stroke="rgb(0,0,0)" stroke-width="2"  />
			<g>
				<title>BPD_transp_1 (PF00528)
"Binding-protein-dependent transport system inner membrane component"</title>
				<polygon class="PF00528" points="406,40 418,28 423,28 423,52 418,52" stroke-linejoin="round" width="19" height="24" fill="rgb(77,208,225)" stroke="rgb(61,166,180)" stroke-width="1" opacity="0.75" />
			</g>
		</g>
		<g>
			<title>
AtrA protein</title>
			<polygon class="
AtrA protein" points="463,25 462,25 462,10 432,40 462,70 462,55 463,55" fill="rgb(255,255,255)" fill-opacity="1.0" stroke="rgb(0,0,0)" stroke-width="2"  />
			<g>
				<title>SBP_bac_3 (PF00497)
"Bacterial extracellular solute-binding proteins, family 3"</title>
				<polygon class="PF00497" points="436,40 448,28 457,28 457,52 448,52" stroke-linejoin="round" width="24" height="24" fill="rgb(186,76,141)" stroke="rgb(148,60,112)" stroke-width="1" opacity="0.75" />
			</g>
		</g>
		<g>
			<title>
short-chain dehydrogenase/reductase SDR</title>
			<polygon class="
short-chain dehydrogenase/reductase SDR" points="471,40 496,10 496,70" fill="rgb(255,255,255)" fill-opacity="1.0" stroke="rgb(0,0,0)" stroke-width="2"  />
			<g>
				<title>adh_short_C2 (PF13561)
"Enoyl-(Acyl carrier protein) reductase"</title>
				<polygon class="PF13561" points="475,40 485,28 494,28 494,52 485,52" stroke-linejoin="round" width="22" height="24" fill="rgb(73,205,127)" stroke="rgb(58,164,101)" stroke-width="1" opacity="0.75" />
			</g>
		</g>
		<g>
			<title>
major facilitator superfamily transporter</title>
			<polygon class="
major facilitator superfamily transporter" points="541,25 527,25 527,10 497,40 527,70 527,55 541,55" fill="rgb(255,255,255)" fill-opacity="1.0" stroke="rgb(0,0,0)" stroke-width="2"  />
			<g>
				<title>MFS_1 (PF07690)
"Major Facilitator Superfamily"</title>
				<rect class="PF07690" x="514" y="28" stroke-linejoin="round" width="23" height="24" fill="rgb(193,224,74)" stroke="rgb(154,179,59)" stroke-width="1" opacity="0.75" />
			</g>
		</g>
		<g>
			<title>
carboxylase</title>
			<polygon class="
carboxylase" points="583,25 570,25 570,10 540,40 570,70 570,55 583,55" fill="rgb(255,255,255)" fill-opacity="1.0" stroke="rgb(0,0,0)" stroke-width="2"  />
			<g>
				<title>LAL_C2 (PF18603)
"L-amino acid ligase C-terminal domain 2"</title>
				<polygon class="PF18603" points="544,40 547,37 547,43" stroke-linejoin="round" width="7" height="24" fill="rgb(90,215,56)" stroke="rgb(72,172,44)" stroke-width="1" opacity="0.75" />
			</g>
			<g>
				<title>ATP-grasp_4 (PF13535)
"ATP-grasp domain"</title>
				<polygon class="PF13535" points="551,33 556,28 566,28 566,52 556,52 551,47" stroke-linejoin="round" width="15" height="24" fill="rgb(197,156,74)" stroke="rgb(157,124,59)" stroke-width="1" opacity="0.75" />
			</g>
			<g>
				<title>ATPgrasp_N (PF18130)
"ATP-grasp N-terminal domain"</title>
				<rect class="PF18130" x="572" y="28" stroke-linejoin="round" width="7" height="24" fill="rgb(80,117,197)" stroke="rgb(64,93,157)" stroke-width="1" opacity="0.75" />
			</g>
		</g>
		<g>
			<title>
ornithine--oxo-acid transaminase</title>
			<polygon class="
ornithine--oxo-acid transaminase" points="632,25 622,25 622,10 592,40 622,70 622,55 632,55" fill="rgb(255,255,255)" fill-opacity="1.0" stroke="rgb(0,0,0)" stroke-width="2"  />
			<g>
				<title>Aminotran_3 (PF00202)
"Aminotransferase class-III"</title>
				<polygon class="PF00202" points="596,40 608,28 630,28 630,52 608,52" stroke-linejoin="round" width="38" height="24" fill="rgb(49,163,189)" stroke="rgb(39,130,151)" stroke-width="1" opacity="0.75" />
			</g>
		</g>
		<g>
			<title>
sulfate adenylyltransferase subunit 1</title>
			<polygon class="
sulfate adenylyltransferase subunit 1" points="680,25 666,25 666,10 636,40 666,70 666,55 680,55" fill="rgb(255,255,255)" fill-opacity="1.0" stroke="rgb(0,0,0)" stroke-width="2"  />
			<g>
				<title>GTP_EFTU (PF00009)
"Elongation factor Tu GTP binding domain"</title>
				<polygon class="PF00009" points="649,31 652,28 677,28 677,52 652,52 649,49" stroke-linejoin="round" width="28" height="24" fill="rgb(196,118,83)" stroke="rgb(156,94,66)" stroke-width="1" opacity="0.75" />
			</g>
		</g>
		<g>
			<title>
sulfate adenylyltransferase subunit 2</title>
			<polygon class="
sulfate adenylyltransferase subunit 2" points="712,25 710,25 710,10 680,40 710,70 710,55 712,55" fill="rgb(255,255,255)" fill-opacity="1.0" stroke="rgb(0,0,0)" stroke-width="2"  />
			<g>
				<title>PAPS_reduct (PF01507)
"Phosphoadenosine phosphosulfate reductase family"</title>
				<polygon class="PF01507" points="684,40 696,28 706,28 706,52 696,52 684,40" stroke-linejoin="round" width="22" height="24" fill="rgb(87,190,105)" stroke="rgb(69,152,83)" stroke-width="1" opacity="0.75" />
			</g>
		</g>
		<g>
			<title>
adenylsulfate kinase</title>
			<polygon class="
adenylsulfate kinase" points="712,40 730,10 730,70" fill="rgb(255,255,255)" fill-opacity="1.0" stroke="rgb(0,0,0)" stroke-width="2"  />
			<g>
				<title>APS_kinase (PF01583)
"Adenylylsulphate kinase"</title>
				<polygon class="PF01583" points="716,40 724,28 728,28 728,52 724,52" stroke-linejoin="round" width="15" height="24" fill="rgb(48,131,188)" stroke="rgb(38,104,150)" stroke-width="1" opacity="0.75" />
			</g>
		</g>
		<g>
			<title>
AmCP-L-glutamate kinase</title>
			<polygon class="
AmCP-L-glutamate kinase" points="731,40 760,10 760,70" fill="rgb(255,255,255)" fill-opacity="1.0" stroke="rgb(0,0,0)" stroke-width="2"  />
			<g>
				<title>AA_kinase (PF00696)
"Amino acid kinase family"</title>
				<polygon class="PF00696" points="735,40 747,28 758,28 758,52 747,52" stroke-linejoin="round" width="24" height="24" fill="rgb(148,78,224)" stroke="rgb(118,62,179)" stroke-width="1" opacity="0.75" />
			</g>
		</g>
		<g>
			<title>
N-acetyl-gamma-glutamyl-phosphate reductase</title>
			<polygon class="
N-acetyl-gamma-glutamyl-phosphate reductase" points="795,25 791,25 791,10 761,40 791,70 791,55 795,55" fill="rgb(255,255,255)" fill-opacity="1.0" stroke="rgb(0,0,0)" stroke-width="2"  />
			<g>
				<title>Semialdhyde_dh (PF01118)
"Semialdehyde dehydrogenase, NAD binding domain"</title>
				<rect class="PF01118" x="781" y="28" stroke-linejoin="round" width="13" height="24" fill="rgb(191,106,221)" stroke="rgb(152,84,176)" stroke-width="1" opacity="0.75" />
			</g>
		</g>
		<g>
			<title>
lysine biosynthesis protein LysW</title>
			<polygon class="
lysine biosynthesis protein LysW" points="796,40 801,10 801,70" fill="rgb(255,255,255)" fill-opacity="1.0" stroke="rgb(0,0,0)" stroke-width="2"  />
		</g>
		<g>
			<title>
transketolase</title>
			<polygon class="
transketolase" points="833,25 832,25 832,10 802,40 832,70 832,55 833,55" fill="rgb(255,255,255)" fill-opacity="1.0" stroke="rgb(0,0,0)" stroke-width="2"  />
			<g>
				<title>Transketolase_C (PF02780)
"Transketolase, C-terminal domain"</title>
				<polygon class="PF02780" points="806,40 815,31 815,49" stroke-linejoin="round" width="12" height="24" fill="rgb(76,206,101)" stroke="rgb(60,164,80)" stroke-width="1" opacity="0.75" />
			</g>
			<g>
				<title>Transket_pyr (PF02779)
"Transketolase, pyrimidine binding domain"</title>
				<polygon class="PF02779" points="817,29 818,28 833,28 833,52 818,52 817,51" stroke-linejoin="round" width="16" height="24" fill="rgb(189,186,84)" stroke="rgb(151,148,67)" stroke-width="1" opacity="0.75" />
			</g>
		</g>
		<g>
			<title>
transketolase</title>
			<polygon class="
transketolase" points="834,40 862,10 862,70" fill="rgb(255,255,255)" fill-opacity="1.0" stroke="rgb(0,0,0)" stroke-width="2"  />
			<g>
				<title>Transketolase_N (PF00456)
"Transketolase, thiamine diphosphate binding domain"</title>
				<polygon class="PF00456" points="838,40 849,28 860,28 860,52 849,52" stroke-linejoin="round" width="26" height="24" fill="rgb(74,202,214)" stroke="rgb(59,161,171)" stroke-width="1" opacity="0.75" />
			</g>
		</g>
		<g>
			<title>
glutamine--scyllo-inositol transaminase</title>
			<polygon class="
glutamine--scyllo-inositol transaminase" points="905,25 892,25 892,10 862,40 892,70 892,55 905,55" fill="rgb(255,255,255)" fill-opacity="1.0" stroke="rgb(0,0,0)" stroke-width="2"  />
			<g>
				<title>DegT_DnrJ_EryC1 (PF01041)
"DegT/DnrJ/EryC1/StrS aminotransferase family"</title>
				<polygon class="PF01041" points="868,38 878,28 902,28 902,52 878,52 868,42" stroke-linejoin="round" width="34" height="24" fill="rgb(59,139,191)" stroke="rgb(47,111,152)" stroke-width="1" opacity="0.75" />
			</g>
		</g>
		<g>
			<title>
hypothetical protein</title>
			<polygon class="
hypothetical protein" points="941,25 936,25 936,10 906,40 936,70 936,55 941,55" fill="rgb(255,255,255)" fill-opacity="1.0" stroke="rgb(0,0,0)" stroke-width="2"  />
			<g>
				<title>BtrH_N (PF14399)
"Butirosin biosynthesis protein H, N-terminal"</title>
				<rect class="PF14399" x="926" y="28" stroke-linejoin="round" width="13" height="24" fill="rgb(159,218,73)" stroke="rgb(127,174,58)" stroke-width="1" opacity="0.75" />
			</g>
		</g>
		<g>
			<title>
hypothetical protein</title>
			<polygon class="
hypothetical protein" points="942,40 961,10 961,70" fill="rgb(255,255,255)" fill-opacity="1.0" stroke="rgb(0,0,0)" stroke-width="2"  />
		</g>
		<g>
			<title>
hypothetical protein</title>
			<polygon class="
hypothetical protein" points="970,40 994,10 994,70" fill="rgb(255,255,255)" fill-opacity="1.0" stroke="rgb(0,0,0)" stroke-width="2"  />
			<g>
				<title>Sulfotransfer_5 (PF19798)
"Sulfotransferase domain"</title>
				<polygon class="PF19798" points="974,40 984,28 993,28 993,52 984,52" stroke-linejoin="round" width="23" height="24" fill="rgb(55,186,187)" stroke="rgb(44,148,149)" stroke-width="1" opacity="0.75" />
			</g>
		</g>
		<g>
			<title>
lysine biosynthesis enzyme LysX</title>
			<polygon class="
lysine biosynthesis enzyme LysX" points="1004,10 1033,40 1004,70" fill="rgb(255,255,255)" fill-opacity="1.0" stroke="rgb(0,0,0)" stroke-width="2"  />
			<g>
				<title>RimK (PF08443)
"RimK-like ATP-grasp domain"</title>
				<polygon class="PF08443" points="1013,28 1017,28 1029,40 1017,52 1013,52" stroke-linejoin="round" width="19" height="24" fill="rgb(192,59,192)" stroke="rgb(153,47,153)" stroke-width="1" opacity="0.75" />
			</g>
		</g>
		<g>
			<title>
N-acetyl-ornithine/N-acetyl-lysine deacetylase</title>
			<polygon class="
N-acetyl-ornithine/N-acetyl-lysine deacetylase" points="1033,25 1040,25 1040,10 1070,40 1040,70 1040,55 1033,55" fill="rgb(255,255,255)" fill-opacity="1.0" stroke="rgb(0,0,0)" stroke-width="2"  />
			<g>
				<title>Peptidase_M20 (PF01546)
"Peptidase family M20/M25/M40"</title>
				<polygon class="PF01546" points="1040,28 1054,28 1066,40 1054,52 1040,52" stroke-linejoin="round" width="27" height="24" fill="rgb(88,213,108)" stroke="rgb(70,170,86)" stroke-width="1" opacity="0.75" />
			</g>
		</g>
		<g>
			<title>
non-ribosomal peptide synthetase</title>
			<polygon class="
non-ribosomal peptide synthetase" points="1070,25 1178,25 1178,10 1208,40 1178,70 1178,55 1070,55" fill="rgb(255,255,255)" fill-opacity="1.0" stroke="rgb(0,0,0)" stroke-width="2"  />
			<g>
				<title>Condensation (PF00668)
"Condensation domain"</title>
				<rect class="PF00668" x="1074" y="28" stroke-linejoin="round" width="45" height="24" fill="rgb(224,184,98)" stroke="rgb(179,147,78)" stroke-width="1" opacity="0.75" />
			</g>
			<g>
				<title>AMP-binding (PF00501)
"AMP-binding enzyme"</title>
				<rect class="PF00501" x="1121" y="28" stroke-linejoin="round" width="39" height="24" fill="rgb(60,217,223)" stroke="rgb(48,173,178)" stroke-width="1" opacity="0.75" />
			</g>
			<g>
				<title>PP-binding (PF00550)
"Phosphopantetheine attachment site"</title>
				<rect class="PF00550" x="1171" y="28" stroke-linejoin="round" width="6" height="24" fill="rgb(103,191,88)" stroke="rgb(82,152,70)" stroke-width="1" opacity="0.75" />
			</g>
			<g>
				<title>Thioesterase (PF00975)
"Thioesterase domain"</title>
				<polygon class="PF00975" points="1183,28 1192,28 1204,40 1192,52 1183,52" stroke-linejoin="round" width="24" height="24" fill="rgb(207,80,138)" stroke="rgb(165,63,110)" stroke-width="1" opacity="0.75" />
			</g>
		</g>
		<g>
			<title>
dehydrogenase</title>
			<polygon class="
dehydrogenase" points="1209,25 1217,25 1217,10 1247,40 1217,70 1217,55 1209,55" fill="rgb(255,255,255)" fill-opacity="1.0" stroke="rgb(0,0,0)" stroke-width="2"  />
			<g>
				<title>Acyl-CoA_dh_N (PF02771)
"Acyl-CoA dehydrogenase, N-terminal domain"</title>
				<rect class="PF02771" x="1209" y="28" stroke-linejoin="round" width="11" height="24" fill="rgb(105,135,218)" stroke="rgb(84,108,174)" stroke-width="1" opacity="0.75" />
			</g>
			<g>
				<title>Acyl-CoA_dh_M (PF02770)
"Acyl-CoA dehydrogenase, middle domain"</title>
				<rect class="PF02770" x="1221" y="28" stroke-linejoin="round" width="9" height="24" fill="rgb(225,186,97)" stroke="rgb(180,148,77)" stroke-width="1" opacity="0.75" />
			</g>
			<g>
				<title>Acyl-CoA_dh_1 (PF00441)
"Acyl-CoA dehydrogenase, C-terminal domain"</title>
				<polygon class="PF00441" points="1232,29 1243,40 1232,51" stroke-linejoin="round" width="14" height="24" fill="rgb(85,191,117)" stroke="rgb(68,152,93)" stroke-width="1" opacity="0.75" />
			</g>
		</g>
		<g>
			<title>
dehydrogenase</title>
			<polygon class="
dehydrogenase" points="1247,25 1254,25 1254,10 1284,40 1254,70 1254,55 1247,55" fill="rgb(255,255,255)" fill-opacity="1.0" stroke="rgb(0,0,0)" stroke-width="2"  />
			<g>
				<title>Acyl-CoA_dh_1 (PF00441)
"Acyl-CoA dehydrogenase, C-terminal domain"</title>
				<polygon class="PF00441" points="1266,28 1268,28 1280,40 1280,40 1268,52 1266,52" stroke-linejoin="round" width="14" height="24" fill="rgb(85,191,117)" stroke="rgb(68,152,93)" stroke-width="1" opacity="0.75" />
			</g>
		</g>
		<g>
			<title>
LuxR family transcriptional regulator</title>
			<polygon class="
LuxR family transcriptional regulator" points="1287,40 1310,10 1310,70" fill="rgb(255,255,255)" fill-opacity="1.0" stroke="rgb(0,0,0)" stroke-width="2"  />
			<g>
				<title>GerE (PF00196)
"Bacterial regulatory proteins, luxR family"</title>
				<polygon class="PF00196" points="1291,40 1294,36 1294,44" stroke-linejoin="round" width="5" height="24" fill="rgb(219,94,82)" stroke="rgb(175,75,65)" stroke-width="1" opacity="0.75" />
			</g>
			<g>
				<title>Response_reg (PF00072)
"Response regulator receiver domain"</title>
				<polygon class="PF00072" points="1299,30 1301,28 1310,28 1310,52 1301,52 1299,50" stroke-linejoin="round" width="11" height="24" fill="rgb(100,107,203)" stroke="rgb(80,85,162)" stroke-width="1" opacity="0.75" />
			</g>
		</g>
		<g>
			<title>
hypothetical protein</title>
			<polygon class="
hypothetical protein" points="1318,10 1322,40 1318,70" fill="rgb(255,255,255)" fill-opacity="1.0" stroke="rgb(0,0,0)" stroke-width="2"  />
		</g>
		<g>
			<title>
scyllo-inosamine-4-phosphate amidinotransferase</title>
			<polygon class="
scyllo-inosamine-4-phosphate amidinotransferase" points="1354,25 1358,25 1358,10 1388,40 1358,70 1358,55 1354,55" fill="rgb(255,255,255)" fill-opacity="1.0" stroke="rgb(0,0,0)" stroke-width="2"  />
		</g>
		<g>
			<title>
hypothetical protein</title>
			<polygon class="
hypothetical protein" points="1465,25 1423,25 1423,10 1393,40 1423,70 1423,55 1465,55" fill="rgb(255,255,255)" fill-opacity="1.0" stroke="rgb(0,0,0)" stroke-width="2"  />
			<g>
				<title>DUF1996 (PF09362)
"Domain of unknown function (DUF1996)"</title>
				<rect class="PF09362" x="1417" y="28" stroke-linejoin="round" width="22" height="24" fill="rgb(109,223,219)" stroke="rgb(87,178,175)" stroke-width="1" opacity="0.75" />
			</g>
		</g>
		<g>
			<title>
hypothetical protein</title>
			<polygon class="
hypothetical protein" points="1514,25 1501,25 1501,10 1471,40 1501,70 1501,55 1514,55" fill="rgb(255,255,255)" fill-opacity="1.0" stroke="rgb(0,0,0)" stroke-width="2"  />
		</g>
		<g>
			<title>
hypothetical protein</title>
			<polygon class="
hypothetical protein" points="1521,40 1534,10 1534,70" fill="rgb(255,255,255)" fill-opacity="1.0" stroke="rgb(0,0,0)" stroke-width="2"  />
			<g>
				<title>DUF6336 (PF19862)
"Family of unknown function (DUF6336)"</title>
				<polygon class="PF19862" points="1524,40 1529,28 1533,28 1533,52 1529,52" stroke-linejoin="round" width="12" height="24" fill="rgb(142,196,52)" stroke="rgb(113,156,41)" stroke-width="1" opacity="0.75" />
			</g>
		</g>
		<g>
			<title>
hypothetical protein</title>
			<polygon class="
hypothetical protein" points="1537,10 1558,40 1537,70" fill="rgb(255,255,255)" fill-opacity="1.0" stroke="rgb(0,0,0)" stroke-width="2"  />
			<g>
				<title>MDMPI_N (PF11716)
"Mycothiol maleylpyruvate isomerase N-terminal domain"</title>
				<polygon class="PF11716" points="1537,28 1546,28 1551,35 1551,45 1546,52 1537,52" stroke-linejoin="round" width="14" height="24" fill="rgb(214,107,221)" stroke="rgb(171,85,176)" stroke-width="1" opacity="0.75" />
			</g>
		</g>
		<g>
			<title>
NAD-dependent epimerase/dehydratase</title>
			<polygon class="
NAD-dependent epimerase/dehydratase" points="1591,25 1590,25 1590,10 1560,40 1590,70 1590,55 1591,55" fill="rgb(255,255,255)" fill-opacity="1.0" stroke="rgb(0,0,0)" stroke-width="2"  />
			<g>
				<title>Epimerase (PF01370)
"NAD dependent epimerase/dehydratase family"</title>
				<polygon class="PF01370" points="1569,35 1576,28 1590,28 1590,52 1576,52 1569,45" stroke-linejoin="round" width="21" height="24" fill="rgb(98,102,214)" stroke="rgb(78,81,171)" stroke-width="1" opacity="0.75" />
			</g>
		</g>
		<g>
			<title>
ABC transporter protein</title>
			<polygon class="
ABC transporter protein" points="1600,10 1626,40 1600,70" fill="rgb(255,255,255)" fill-opacity="1.0" stroke="rgb(0,0,0)" stroke-width="2"  />
			<g>
				<title>ABC_tran (PF00005)
"ABC transporter"</title>
				<polygon class="PF00005" points="1602,28 1611,28 1616,33 1616,47 1611,52 1602,52" stroke-linejoin="round" width="14" height="24" fill="rgb(129,201,63)" stroke="rgb(103,160,50)" stroke-width="1" opacity="0.75" />
			</g>
		</g>
		<g>
			<title>
Fe3+-citrate ABC transporter substrate-binding protein</title>
			<polygon class="
Fe3+-citrate ABC transporter substrate-binding protein" points="1630,25 1633,25 1633,10 1663,40 1633,70 1633,55 1630,55" fill="rgb(255,255,255)" fill-opacity="1.0" stroke="rgb(0,0,0)" stroke-width="2"  />
			<g>
				<title>Peripla_BP_2 (PF01497)
"Periplasmic binding protein"</title>
				<polygon class="PF01497" points="1636,28 1646,28 1658,40 1646,52 1636,52" stroke-linejoin="round" width="24" height="24" fill="rgb(183,226,104)" stroke="rgb(146,180,83)" stroke-width="1" opacity="0.75" />
			</g>
		</g>
		<g>
			<title>
ferric hydroxamate ABC transporter permease component</title>
			<polygon class="
ferric hydroxamate ABC transporter permease component" points="1663,25 1702,25 1702,10 1732,40 1702,70 1702,55 1663,55" fill="rgb(255,255,255)" fill-opacity="1.0" stroke="rgb(0,0,0)" stroke-width="2"  />
			<g>
				<title>FecCD (PF01032)
"FecCD transport family"</title>
				<rect class="PF01032" x="1665" y="28" stroke-linejoin="round" width="32" height="24" fill="rgb(210,177,70)" stroke="rgb(168,141,56)" stroke-width="1" opacity="0.75" />
			</g>
			<g>
				<title>FecCD (PF01032)
"FecCD transport family"</title>
				<polygon class="PF01032" points="1700,28 1715,28 1727,40 1715,52 1700,52" stroke-linejoin="round" width="31" height="24" fill="rgb(210,177,70)" stroke="rgb(168,141,56)" stroke-width="1" opacity="0.75" />
			</g>
		</g>
		<g>
			<title>
hypothetical protein</title>
			<polygon class="
hypothetical protein" points="1783,25 1763,25 1763,10 1733,40 1763,70 1763,55 1783,55" fill="rgb(255,255,255)" fill-opacity="1.0" stroke="rgb(0,0,0)" stroke-width="2"  />
			<g>
				<title>MFS_1 (PF07690)
"Major Facilitator Superfamily"</title>
				<polygon class="PF07690" points="1742,35 1749,28 1781,28 1781,52 1749,52 1742,45" stroke-linejoin="round" width="39" height="24" fill="rgb(193,224,74)" stroke="rgb(154,179,59)" stroke-width="1" opacity="0.75" />
			</g>
		</g>
		<g>
			<title>
siderophore synthetase component, ligase</title>
			<polygon class="
siderophore synthetase component, ligase" points="1789,25 1819,25 1819,10 1849,40 1819,70 1819,55 1789,55" fill="rgb(255,255,255)" fill-opacity="1.0" stroke="rgb(0,0,0)" stroke-width="2"  />
			<g>
				<title>IucA_IucC (PF04183)
"IucA / IucC family"</title>
				<rect class="PF04183" x="1803" y="28" stroke-linejoin="round" width="25" height="24" fill="rgb(221,104,121)" stroke="rgb(176,83,96)" stroke-width="1" opacity="0.75" />
			</g>
			<g>
				<title>FhuF (PF06276)
"Ferric iron reductase FhuF-like transporter"</title>
				<polygon class="PF06276" points="1831,28 1833,28 1845,40 1833,52 1831,52" stroke-linejoin="round" width="16" height="24" fill="rgb(76,151,221)" stroke="rgb(60,120,176)" stroke-width="1" opacity="0.75" />
			</g>
		</g>
		<g>
			<title>
pyridoxal-dependent decarboxylase</title>
			<polygon class="
pyridoxal-dependent decarboxylase" points="1850,25 1871,25 1871,10 1901,40 1871,70 1871,55 1850,55" fill="rgb(255,255,255)" fill-opacity="1.0" stroke="rgb(0,0,0)" stroke-width="2"  />
			<g>
				<title>Pyridoxal_deC (PF00282)
"Pyridoxal-dependent decarboxylase conserved domain"</title>
				<polygon class="PF00282" points="1856,28 1885,28 1892,35 1892,45 1885,52 1856,52" stroke-linejoin="round" width="36" height="24" fill="rgb(100,218,166)" stroke="rgb(80,174,132)" stroke-width="1" opacity="0.75" />
			</g>
		</g>
		<g>
			<title>
siderophore synthetase component</title>
			<polygon class="
siderophore synthetase component" points="1901,25 1930,25 1930,10 1960,40 1930,70 1930,55 1901,55" fill="rgb(255,255,255)" fill-opacity="1.0" stroke="rgb(0,0,0)" stroke-width="2"  />
			<g>
				<title>IucA_IucC (PF04183)
"IucA / IucC family"</title>
				<rect class="PF04183" x="1916" y="28" stroke-linejoin="round" width="23" height="24" fill="rgb(221,104,121)" stroke="rgb(176,83,96)" stroke-width="1" opacity="0.75" />
			</g>
			<g>
				<title>FhuF (PF06276)
"Ferric iron reductase FhuF-like transporter"</title>
				<polygon class="PF06276" points="1941,28 1944,28 1956,40 1944,52 1941,52" stroke-linejoin="round" width="16" height="24" fill="rgb(76,151,221)" stroke="rgb(60,120,176)" stroke-width="1" opacity="0.75" />
			</g>
		</g>
		<g>
			<title>
acetyltransferase</title>
			<polygon class="
acetyltransferase" points="1961,10 1980,40 1961,70" fill="rgb(255,255,255)" fill-opacity="1.0" stroke="rgb(0,0,0)" stroke-width="2"  />
			<g>
				<title>Acetyltransf_8 (PF13523)
"Acetyltransferase (GNAT) domain"</title>
				<polygon class="PF13523" points="1964,28 1969,28 1977,40 1969,52 1964,52" stroke-linejoin="round" width="14" height="24" fill="rgb(106,224,203)" stroke="rgb(84,179,162)" stroke-width="1" opacity="0.75" />
			</g>
		</g>
		<g>
			<title>
siderophore biosynthesis protein, monooxygenase</title>
			<polygon class="
siderophore biosynthesis protein, monooxygenase" points="1980,25 1994,25 1994,10 2024,40 1994,70 1994,55 1980,55" fill="rgb(255,255,255)" fill-opacity="1.0" stroke="rgb(0,0,0)" stroke-width="2"  />
			<g>
				<title>K_oxygenase (PF13434)
"L-lysine 6-monooxygenase (NADPH-requiring)"</title>
				<polygon class="PF13434" points="1980,28 2007,28 2013,34 2013,46 2007,52 1980,52" stroke-linejoin="round" width="33" height="24" fill="rgb(81,213,119)" stroke="rgb(64,170,95)" stroke-width="1" opacity="0.75" />
			</g>
		</g>
		<g>
			<title>
phosphoribosyltransferase</title>
			<polygon class="
phosphoribosyltransferase" points="2029,10 2050,40 2029,70" fill="rgb(255,255,255)" fill-opacity="1.0" stroke="rgb(0,0,0)" stroke-width="2"  />
			<g>
				<title>Pribosyltran (PF00156)
"Phosphoribosyl transferase domain"</title>
				<polygon class="PF00156" points="2029,28 2038,28 2046,40 2038,52 2029,52" stroke-linejoin="round" width="19" height="24" fill="rgb(210,210,74)" stroke="rgb(168,168,59)" stroke-width="1" opacity="0.75" />
			</g>
		</g>
		<g>
			<title>
cytochrome c oxidase subunit 1</title>
			<polygon class="
cytochrome c oxidase subunit 1" points="2110,25 2082,25 2082,10 2052,40 2082,70 2082,55 2110,55" fill="rgb(255,255,255)" fill-opacity="1.0" stroke="rgb(0,0,0)" stroke-width="2"  />
			<g>
				<title>COX1 (PF00115)
"Cytochrome C and Quinol oxidase polypeptide I"</title>
				<polygon class="PF00115" points="2062,34 2068,28 2106,28 2106,52 2068,52 2062,46" stroke-linejoin="round" width="44" height="24" fill="rgb(64,128,197)" stroke="rgb(51,102,157)" stroke-width="1" opacity="0.75" />
			</g>
		</g>
		<g>
			<title>
hypothetical protein</title>
			<polygon class="
hypothetical protein" points="2116,40 2137,10 2137,70" fill="rgb(255,255,255)" fill-opacity="1.0" stroke="rgb(0,0,0)" stroke-width="2"  />
			<g>
				<title>NAD_binding_10 (PF13460)
"NAD(P)H-binding"</title>
				<polygon class="PF13460" points="2120,40 2129,28 2136,28 2136,52 2129,52" stroke-linejoin="round" width="19" height="24" fill="rgb(188,201,78)" stroke="rgb(150,160,62)" stroke-width="1" opacity="0.75" />
			</g>
		</g>
		<g>
			<title>
transcriptional regulator</title>
			<polygon class="
transcriptional regulator" points="2138,25 2142,25 2142,10 2172,40 2142,70 2142,55 2138,55" fill="rgb(255,255,255)" fill-opacity="1.0" stroke="rgb(0,0,0)" stroke-width="2"  />
			<g>
				<title>HTH_18 (PF12833)
"Helix-turn-helix domain"</title>
				<polygon class="PF12833" points="2162,34 2168,40 2162,46" stroke-linejoin="round" width="7" height="24" fill="rgb(216,58,224)" stroke="rgb(172,46,179)" stroke-width="1" opacity="0.75" />
			</g>
		</g>
		<g>
			<title>
glutaminase</title>
			<polygon class="
glutaminase" points="2203,25 2202,25 2202,10 2172,40 2202,70 2202,55 2203,55" fill="rgb(255,255,255)" fill-opacity="1.0" stroke="rgb(0,0,0)" stroke-width="2"  />
			<g>
				<title>Glutaminase (PF04960)
"Glutaminase"</title>
				<polygon class="PF04960" points="2176,40 2188,28 2200,28 2200,52 2188,52" stroke-linejoin="round" width="28" height="24" fill="rgb(96,137,229)" stroke="rgb(76,109,183)" stroke-width="1" opacity="0.75" />
			</g>
		</g>
	</g>
</svg>
