<svg version="1.1" baseProfile="full" xmlns="http://www.w3.org/2000/svg" width="902.6" height="80">
	<g>
		<line x1="10" y1="40.0" x2="892.6" y2="40.0" style="stroke:rgb(70,70,70); stroke-width:3 "/>
		<g>
			<title>
phosphoglucomutase</title>
			<polygon class="
phosphoglucomutase" points="12,25 36,25 36,10 66,40 36,70 36,55 12,55" fill="rgb(255,255,255)" fill-opacity="1.0" stroke="rgb(0,0,0)" stroke-width="2"  />
			<g>
				<title>PGM_PMM_I (PF02878)
"Phosphoglucomutase/phosphomannomutase, alpha/beta/alpha domain I"</title>
				<rect class="PF02878" x="15" y="28" stroke-linejoin="round" width="14" height="24" fill="rgb(217,133,102)" stroke="rgb(173,106,81)" stroke-width="1" opacity="0.75" />
			</g>
			<g>
				<title>PGM_PMM_II (PF02879)
"Phosphoglucomutase/phosphomannomutase, alpha/beta/alpha domain II"</title>
				<rect class="PF02879" x="32" y="28" stroke-linejoin="round" width="10" height="24" fill="rgb(192,221,60)" stroke="rgb(153,176,48)" stroke-width="1" opacity="0.75" />
			</g>
			<g>
				<title>PGM_PMM_III (PF02880)
"Phosphoglucomutase/phosphomannomutase, alpha/beta/alpha domain III"</title>
				<polygon class="PF02880" points="44,28 50,28 56,34 56,46 50,52 44,52" stroke-linejoin="round" width="12" height="24" fill="rgb(67,204,90)" stroke="rgb(53,163,72)" stroke-width="1" opacity="0.75" />
			</g>
			<g>
				<title>PGM_PMM_IV (PF00408)
"Phosphoglucomutase/phosphomannomutase, C-terminal domain"</title>
				<polygon class="PF00408" points="57,35 62,40 57,45" stroke-linejoin="round" width="8" height="24" fill="rgb(74,205,143)" stroke="rgb(59,164,114)" stroke-width="1" opacity="0.75" />
			</g>
		</g>
		<g>
			<title>
hypothetical protein</title>
			<polygon class="
hypothetical protein" points="109,25 97,25 97,10 67,40 97,70 97,55 109,55" fill="rgb(255,255,255)" fill-opacity="1.0" stroke="rgb(0,0,0)" stroke-width="2"  />
			<g>
				<title>DUF6357 (PF19884)
"Family of unknown function (DUF6357)"</title>
				<polygon class="PF19884" points="71,40 83,28 108,28 108,52 83,52" stroke-linejoin="round" width="41" height="24" fill="rgb(213,89,102)" stroke="rgb(170,71,81)" stroke-width="1" opacity="0.75" />
			</g>
		</g>
		<g>
			<title>dhbG
aryl carrier for 2,3-dihydroxybenzoate</title>
			<polygon class="dhbG
aryl carrier for 2,3-dihydroxybenzoate" points="116,40 124,10 124,70" fill="rgb(255,255,255)" fill-opacity="1.0" stroke="rgb(0,0,0)" stroke-width="2"  />
			<g>
				<title>PP-binding (PF00550)
"Phosphopantetheine attachment site"</title>
				<polygon class="PF00550" points="119,40 122,28 122,28 122,52 122,52" stroke-linejoin="round" width="6" height="24" fill="rgb(103,191,88)" stroke="rgb(82,152,70)" stroke-width="1" opacity="0.75" />
			</g>
		</g>
		<g>
			<title>dhbB
isochorismatase</title>
			<polygon class="dhbB
isochorismatase" points="123,40 144,10 144,70" fill="rgb(255,255,255)" fill-opacity="1.0" stroke="rgb(0,0,0)" stroke-width="2"  />
			<g>
				<title>Isochorismatase (PF00857)
"Isochorismatase family"</title>
				<polygon class="PF00857" points="127,40 135,28 140,28 140,52 135,52" stroke-linejoin="round" width="17" height="24" fill="rgb(144,224,70)" stroke="rgb(115,179,56)" stroke-width="1" opacity="0.75" />
			</g>
		</g>
		<g>
			<title>dhbE
2,3-dihydroxybenzoate-AMP ligase</title>
			<polygon class="dhbE
2,3-dihydroxybenzoate-AMP ligase" points="201,25 177,25 177,10 147,40 177,70 177,55 201,55" fill="rgb(255,255,255)" fill-opacity="1.0" stroke="rgb(0,0,0)" stroke-width="2"  />
			<g>
				<title>AMP-binding_C (PF13193)
"AMP-binding enzyme C-terminal domain"</title>
				<polygon class="PF13193" points="151,40 156,35 156,45" stroke-linejoin="round" width="7" height="24" fill="rgb(182,50,118)" stroke="rgb(145,39,94)" stroke-width="1" opacity="0.75" />
			</g>
			<g>
				<title>AMP-binding (PF00501)
"AMP-binding enzyme"</title>
				<polygon class="PF00501" points="157,34 163,28 197,28 197,52 163,52 157,46" stroke-linejoin="round" width="40" height="24" fill="rgb(60,217,223)" stroke="rgb(48,173,178)" stroke-width="1" opacity="0.75" />
			</g>
		</g>
		<g>
			<title>dhbC
isochorismate synthase</title>
			<polygon class="dhbC
isochorismate synthase" points="241,25 231,25 231,10 201,40 231,70 231,55 241,55" fill="rgb(255,255,255)" fill-opacity="1.0" stroke="rgb(0,0,0)" stroke-width="2"  />
			<g>
				<title>Chorismate_bind (PF00425)
"chorismate binding enzyme"</title>
				<polygon class="PF00425" points="205,40 217,28 227,28 227,52 217,52" stroke-linejoin="round" width="25" height="24" fill="rgb(188,116,88)" stroke="rgb(150,92,70)" stroke-width="1" opacity="0.75" />
			</g>
		</g>
		<g>
			<title>dhbA
2,3-dihydro-2,3-dihydroxybenzoate dehydrogenase</title>
			<polygon class="dhbA
2,3-dihydro-2,3-dihydroxybenzoate dehydrogenase" points="245,40 272,10 272,70" fill="rgb(255,255,255)" fill-opacity="1.0" stroke="rgb(0,0,0)" stroke-width="2"  />
			<g>
				<title>adh_short_C2 (PF13561)
"Enoyl-(Acyl carrier protein) reductase"</title>
				<polygon class="PF13561" points="249,40 260,28 270,28 270,52 260,52" stroke-linejoin="round" width="25" height="24" fill="rgb(73,205,127)" stroke="rgb(58,164,101)" stroke-width="1" opacity="0.75" />
			</g>
		</g>
		<g>
			<title>griA
siderophore uptake membrane transporter</title>
			<polygon class="griA
siderophore uptake membrane transporter" points="278,25 326,25 326,10 356,40 326,70 326,55 278,55" fill="rgb(255,255,255)" fill-opacity="1.0" stroke="rgb(0,0,0)" stroke-width="2"  />
			<g>
				<title>FecCD (PF01032)
"FecCD transport family"</title>
				<rect class="PF01032" x="285" y="28" stroke-linejoin="round" width="31" height="24" fill="rgb(210,177,70)" stroke="rgb(168,141,56)" stroke-width="1" opacity="0.75" />
			</g>
			<g>
				<title>FecCD (PF01032)
"FecCD transport family"</title>
				<polygon class="PF01032" points="324,28 339,28 351,40 339,52 324,52" stroke-linejoin="round" width="30" height="24" fill="rgb(210,177,70)" stroke="rgb(168,141,56)" stroke-width="1" opacity="0.75" />
			</g>
		</g>
		<g>
			<title>griB
griseobactin esterase</title>
			<polygon class="griB
griseobactin esterase" points="360,25 372,25 372,10 402,40 372,70 372,55 360,55" fill="rgb(255,255,255)" fill-opacity="1.0" stroke="rgb(0,0,0)" stroke-width="2"  />
			<g>
				<title>DUF3327 (PF11806)
"Domain of unknown function (DUF3327)"</title>
				<rect class="PF11806" x="367" y="28" stroke-linejoin="round" width="12" height="24" fill="rgb(49,154,189)" stroke="rgb(39,123,151)" stroke-width="1" opacity="0.75" />
			</g>
			<g>
				<title>Esterase (PF00756)
"Putative esterase"</title>
				<polygon class="PF00756" points="380,28 386,28 398,40 386,52 380,52" stroke-linejoin="round" width="21" height="24" fill="rgb(217,132,77)" stroke="rgb(173,105,61)" stroke-width="1" opacity="0.75" />
			</g>
		</g>
		<g>
			<title>griC
MFS griseobactin exporter</title>
			<polygon class="griC
MFS griseobactin exporter" points="454,25 440,25 440,10 410,40 440,70 440,55 454,55" fill="rgb(255,255,255)" fill-opacity="1.0" stroke="rgb(0,0,0)" stroke-width="2"  />
			<g>
				<title>MFS_1 (PF07690)
"Major Facilitator Superfamily"</title>
				<polygon class="PF07690" points="414,40 426,28 451,28 451,52 426,52" stroke-linejoin="round" width="39" height="24" fill="rgb(193,224,74)" stroke="rgb(154,179,59)" stroke-width="1" opacity="0.75" />
			</g>
		</g>
		<g>
			<title>griD
MbtH-like protein</title>
			<polygon class="griD
MbtH-like protein" points="454,40 460,10 460,70" fill="rgb(255,255,255)" fill-opacity="1.0" stroke="rgb(0,0,0)" stroke-width="2"  />
			<g>
				<title>MbtH (PF03621)
"MbtH-like protein"</title>
				<polygon class="PF03621" points="457,40 460,28 460,28 460,52 460,52" stroke-linejoin="round" width="5" height="24" fill="rgb(212,165,97)" stroke="rgb(169,132,77)" stroke-width="1" opacity="0.75" />
			</g>
		</g>
		<g>
			<title>griE
nonribosomal peptide synthetase NRPS</title>
			<polygon class="griE
nonribosomal peptide synthetase NRPS" points="707,25 491,25 491,10 461,40 491,70 491,55 707,55" fill="rgb(255,255,255)" fill-opacity="1.0" stroke="rgb(0,0,0)" stroke-width="2"  />
			<g>
				<title>Thioesterase (PF00975)
"Thioesterase domain"</title>
				<polygon class="PF00975" points="465,40 477,28 485,28 485,52 477,52" stroke-linejoin="round" width="24" height="24" fill="rgb(207,80,138)" stroke="rgb(165,63,110)" stroke-width="1" opacity="0.75" />
			</g>
			<g>
				<title>PP-binding (PF00550)
"Phosphopantetheine attachment site"</title>
				<rect class="PF00550" x="488" y="28" stroke-linejoin="round" width="6" height="24" fill="rgb(103,191,88)" stroke="rgb(82,152,70)" stroke-width="1" opacity="0.75" />
			</g>
			<g>
				<title>AMP-binding_C (PF13193)
"AMP-binding enzyme C-terminal domain"</title>
				<rect class="PF13193" x="497" y="28" stroke-linejoin="round" width="7" height="24" fill="rgb(182,50,118)" stroke="rgb(145,39,94)" stroke-width="1" opacity="0.75" />
			</g>
			<g>
				<title>AMP-binding (PF00501)
"AMP-binding enzyme"</title>
				<rect class="PF00501" x="505" y="28" stroke-linejoin="round" width="40" height="24" fill="rgb(60,217,223)" stroke="rgb(48,173,178)" stroke-width="1" opacity="0.75" />
			</g>
			<g>
				<title>Condensation (PF00668)
"Condensation domain"</title>
				<rect class="PF00668" x="549" y="28" stroke-linejoin="round" width="45" height="24" fill="rgb(224,184,98)" stroke="rgb(179,147,78)" stroke-width="1" opacity="0.75" />
			</g>
			<g>
				<title>PP-binding (PF00550)
"Phosphopantetheine attachment site"</title>
				<rect class="PF00550" x="596" y="28" stroke-linejoin="round" width="6" height="24" fill="rgb(103,191,88)" stroke="rgb(82,152,70)" stroke-width="1" opacity="0.75" />
			</g>
			<g>
				<title>AMP-binding_C (PF13193)
"AMP-binding enzyme C-terminal domain"</title>
				<rect class="PF13193" x="605" y="28" stroke-linejoin="round" width="7" height="24" fill="rgb(182,50,118)" stroke="rgb(145,39,94)" stroke-width="1" opacity="0.75" />
			</g>
			<g>
				<title>AMP-binding (PF00501)
"AMP-binding enzyme"</title>
				<rect class="PF00501" x="614" y="28" stroke-linejoin="round" width="45" height="24" fill="rgb(60,217,223)" stroke="rgb(48,173,178)" stroke-width="1" opacity="0.75" />
			</g>
			<g>
				<title>Condensation (PF00668)
"Condensation domain"</title>
				<rect class="PF00668" x="661" y="28" stroke-linejoin="round" width="44" height="24" fill="rgb(224,184,98)" stroke="rgb(179,147,78)" stroke-width="1" opacity="0.75" />
			</g>
		</g>
		<g>
			<title>griF
amidohydrolase</title>
			<polygon class="griF
amidohydrolase" points="712,25 721,25 721,10 751,40 721,70 721,55 712,55" fill="rgb(255,255,255)" fill-opacity="1.0" stroke="rgb(0,0,0)" stroke-width="2"  />
			<g>
				<title>M20_dimer (PF07687)
"Peptidase dimerisation domain"</title>
				<polygon class="PF07687" points="730,28 735,28 740,33 740,47 735,52 730,52" stroke-linejoin="round" width="10" height="24" fill="rgb(218,154,97)" stroke="rgb(174,123,77)" stroke-width="1" opacity="0.75" />
			</g>
		</g>
		<g>
			<title>griG
griseobactin-binding lipoprotein</title>
			<polygon class="griG
griseobactin-binding lipoprotein" points="787,25 784,25 784,10 754,40 784,70 784,55 787,55" fill="rgb(255,255,255)" fill-opacity="1.0" stroke="rgb(0,0,0)" stroke-width="2"  />
			<g>
				<title>Peripla_BP_2 (PF01497)
"Periplasmic binding protein"</title>
				<polygon class="PF01497" points="758,40 770,28 779,28 779,52 770,52" stroke-linejoin="round" width="23" height="24" fill="rgb(183,226,104)" stroke="rgb(146,180,83)" stroke-width="1" opacity="0.75" />
			</g>
		</g>
		<g>
			<title>griH
ATPase of griseobactin uptake ABC transporter</title>
			<polygon class="griH
ATPase of griseobactin uptake ABC transporter" points="793,10 819,40 793,70" fill="rgb(255,255,255)" fill-opacity="1.0" stroke="rgb(0,0,0)" stroke-width="2"  />
			<g>
				<title>ABC_tran (PF00005)
"ABC transporter"</title>
				<polygon class="PF00005" points="794,28 805,28 808,32 808,48 805,52 794,52" stroke-linejoin="round" width="14" height="24" fill="rgb(129,201,63)" stroke="rgb(103,160,50)" stroke-width="1" opacity="0.75" />
			</g>
		</g>
		<g>
			<title>
lysine arginine ornithine transport system kinase</title>
			<polygon class="
lysine arginine ornithine transport system kinase" points="857,25 853,25 853,10 823,40 853,70 853,55 857,55" fill="rgb(255,255,255)" fill-opacity="1.0" stroke="rgb(0,0,0)" stroke-width="2"  />
			<g>
				<title>MeaB (PF03308)
"Methylmalonyl Co-A mutase-associated GTPase MeaB"</title>
				<polygon class="PF03308" points="827,40 839,28 854,28 854,52 839,52 827,40" stroke-linejoin="round" width="27" height="24" fill="rgb(200,208,71)" stroke="rgb(160,166,56)" stroke-width="1" opacity="0.75" />
			</g>
		</g>
		<g>
			<title>
methylmalonyl-CoA mutase, large subunit</title>
			<polygon class="
methylmalonyl-CoA mutase, large subunit" points="892,25 887,25 887,10 857,40 887,70 887,55 892,55" fill="rgb(255,255,255)" fill-opacity="1.0" stroke="rgb(0,0,0)" stroke-width="2"  />
			<g>
				<title>B12-binding (PF02310)
"B12 binding domain"</title>
				<polygon class="PF02310" points="861,40 869,32 869,48" stroke-linejoin="round" width="11" height="24" fill="rgb(145,190,60)" stroke="rgb(115,152,48)" stroke-width="1" opacity="0.75" />
			</g>
			<g>
				<title>MM_CoA_mutase (PF01642)
"Methylmalonyl-CoA mutase"</title>
				<rect class="PF01642" x="874" y="28" stroke-linejoin="round" width="17" height="24" fill="rgb(67,86,223)" stroke="rgb(53,68,178)" stroke-width="1" opacity="0.75" />
			</g>
		</g>
	</g>
</svg>
