<svg version="1.1" baseProfile="full" xmlns="http://www.w3.org/2000/svg" width="2196.266666666667" height="80">
	<g>
		<line x1="10" y1="40.0" x2="2186.266666666667" y2="40.0" style="stroke:rgb(70,70,70); stroke-width:3 "/>
		<g>
			<title> (PSEEN3038)
putative polyamine ABC transporter, periplasmic polyamine-binding protein</title>
			<polygon class=" (PSEEN3038)
putative polyamine ABC transporter, periplasmic polyamine-binding protein" points="10,25 14,25 14,10 44,40 14,70 14,55 10,55" fill="rgb(255,255,255)" fill-opacity="1.0" stroke="rgb(0,0,0)" stroke-width="2"  />
			<g>
				<title>SBP_bac_8 (PF13416)
"Bacterial extracellular solute-binding protein"</title>
				<polygon class="PF13416" points="14,28 27,28 39,40 27,52 14,52" stroke-linejoin="round" width="27" height="24" fill="rgb(66,211,58)" stroke="rgb(52,168,46)" stroke-width="1" opacity="0.75" />
			</g>
		</g>
		<g>
			<title> (PSEEN3039)
putative polyamine ABC transporter, permease protein</title>
			<polygon class=" (PSEEN3039)
putative polyamine ABC transporter, permease protein" points="44,25 44,25 44,10 74,40 44,70 44,55 44,55" fill="rgb(255,255,255)" fill-opacity="1.0" stroke="rgb(0,0,0)" stroke-width="2"  />
			<g>
				<title>BPD_transp_1 (PF00528)
"Binding-protein-dependent transport system inner membrane component"</title>
				<polygon class="PF00528" points="52,28 58,28 70,40 58,52 52,52" stroke-linejoin="round" width="21" height="24" fill="rgb(77,208,225)" stroke="rgb(61,166,180)" stroke-width="1" opacity="0.75" />
			</g>
		</g>
		<g>
			<title> (PSEEN3040)
putative polyamine ABC transporter, permease protein</title>
			<polygon class=" (PSEEN3040)
putative polyamine ABC transporter, permease protein" points="74,10 101,40 74,70" fill="rgb(255,255,255)" fill-opacity="1.0" stroke="rgb(0,0,0)" stroke-width="2"  />
			<g>
				<title>BPD_transp_1 (PF00528)
"Binding-protein-dependent transport system inner membrane component"</title>
				<polygon class="PF00528" points="82,28 85,28 96,40 85,52 82,52" stroke-linejoin="round" width="18" height="24" fill="rgb(77,208,225)" stroke="rgb(61,166,180)" stroke-width="1" opacity="0.75" />
			</g>
		</g>
		<g>
			<title> (PSEEN3041)
putative polyamine ABC transporter, ATP binding protein</title>
			<polygon class=" (PSEEN3041)
putative polyamine ABC transporter, ATP binding protein" points="102,25 109,25 109,10 139,40 109,70 109,55 102,55" fill="rgb(255,255,255)" fill-opacity="1.0" stroke="rgb(0,0,0)" stroke-width="2"  />
			<g>
				<title>ABC_tran (PF00005)
"ABC transporter"</title>
				<rect class="PF00005" x="105" y="28" stroke-linejoin="round" width="14" height="24" fill="rgb(129,201,63)" stroke="rgb(103,160,50)" stroke-width="1" opacity="0.75" />
			</g>
			<g>
				<title>TOBE_2 (PF08402)
"TOBE domain"</title>
				<polygon class="PF08402" points="130,36 134,40 130,44" stroke-linejoin="round" width="8" height="24" fill="rgb(70,123,193)" stroke="rgb(56,98,154)" stroke-width="1" opacity="0.75" />
			</g>
		</g>
		<g>
			<title>macB (PSEEN3042)
macrolide ABC efflux protein MacB</title>
			<polygon class="macB (PSEEN3042)
macrolide ABC efflux protein MacB" points="209,25 173,25 173,10 143,40 173,70 173,55 209,55" fill="rgb(255,255,255)" fill-opacity="1.0" stroke="rgb(0,0,0)" stroke-width="2"  />
			<g>
				<title>FtsX (PF02687)
"FtsX-like permease family"</title>
				<polygon class="PF02687" points="147,40 151,36 151,44" stroke-linejoin="round" width="8" height="24" fill="rgb(126,55,214)" stroke="rgb(100,44,171)" stroke-width="1" opacity="0.75" />
			</g>
			<g>
				<title>MacB_PCD (PF12704)
"MacB-like periplasmic core domain"</title>
				<polygon class="PF12704" points="158,29 159,28 180,28 180,52 159,52 158,51" stroke-linejoin="round" width="22" height="24" fill="rgb(79,76,190)" stroke="rgb(63,60,152)" stroke-width="1" opacity="0.75" />
			</g>
			<g>
				<title>ABC_tran (PF00005)
"ABC transporter"</title>
				<rect class="PF00005" x="190" y="28" stroke-linejoin="round" width="14" height="24" fill="rgb(129,201,63)" stroke="rgb(103,160,50)" stroke-width="1" opacity="0.75" />
			</g>
		</g>
		<g>
			<title>macA (PSEEN3043)
macrolide efflux protein MacA</title>
			<polygon class="macA (PSEEN3043)
macrolide efflux protein MacA" points="248,25 240,25 240,10 210,40 240,70 240,55 248,55" fill="rgb(255,255,255)" fill-opacity="1.0" stroke="rgb(0,0,0)" stroke-width="2"  />
			<g>
				<title>HlyD_D23 (PF16576)
"Barrel-sandwich domain of CusB or HlyD membrane-fusion"</title>
				<polygon class="PF16576" points="222,32 226,28 243,28 243,52 226,52 222,48" stroke-linejoin="round" width="21" height="24" fill="rgb(70,190,92)" stroke="rgb(56,152,73)" stroke-width="1" opacity="0.75" />
			</g>
		</g>
		<g>
			<title> (PSEEN3044)
putative non-ribosomal peptide synthetase, terminal component</title>
			<polygon class=" (PSEEN3044)
putative non-ribosomal peptide synthetase, terminal component" points="734,25 281,25 281,10 251,40 281,70 281,55 734,55" fill="rgb(255,255,255)" fill-opacity="1.0" stroke="rgb(0,0,0)" stroke-width="2"  />
			<g>
				<title>Thioesterase (PF00975)
"Thioesterase domain"</title>
				<polygon class="PF00975" points="255,40 267,28 277,28 277,52 267,52" stroke-linejoin="round" width="25" height="24" fill="rgb(207,80,138)" stroke="rgb(165,63,110)" stroke-width="1" opacity="0.75" />
			</g>
			<g>
				<title>Thioesterase (PF00975)
"Thioesterase domain"</title>
				<rect class="PF00975" x="280" y="28" stroke-linejoin="round" width="26" height="24" fill="rgb(207,80,138)" stroke="rgb(165,63,110)" stroke-width="1" opacity="0.75" />
			</g>
			<g>
				<title>PP-binding (PF00550)
"Phosphopantetheine attachment site"</title>
				<rect class="PF00550" x="308" y="28" stroke-linejoin="round" width="6" height="24" fill="rgb(103,191,88)" stroke="rgb(82,152,70)" stroke-width="1" opacity="0.75" />
			</g>
			<g>
				<title>AMP-binding_C (PF13193)
"AMP-binding enzyme C-terminal domain"</title>
				<rect class="PF13193" x="318" y="28" stroke-linejoin="round" width="7" height="24" fill="rgb(182,50,118)" stroke="rgb(145,39,94)" stroke-width="1" opacity="0.75" />
			</g>
			<g>
				<title>AMP-binding (PF00501)
"AMP-binding enzyme"</title>
				<rect class="PF00501" x="326" y="28" stroke-linejoin="round" width="39" height="24" fill="rgb(60,217,223)" stroke="rgb(48,173,178)" stroke-width="1" opacity="0.75" />
			</g>
			<g>
				<title>Condensation (PF00668)
"Condensation domain"</title>
				<rect class="PF00668" x="367" y="28" stroke-linejoin="round" width="42" height="24" fill="rgb(224,184,98)" stroke="rgb(179,147,78)" stroke-width="1" opacity="0.75" />
			</g>
			<g>
				<title>PP-binding (PF00550)
"Phosphopantetheine attachment site"</title>
				<rect class="PF00550" x="415" y="28" stroke-linejoin="round" width="6" height="24" fill="rgb(103,191,88)" stroke="rgb(82,152,70)" stroke-width="1" opacity="0.75" />
			</g>
			<g>
				<title>AMP-binding_C (PF13193)
"AMP-binding enzyme C-terminal domain"</title>
				<rect class="PF13193" x="424" y="28" stroke-linejoin="round" width="6" height="24" fill="rgb(182,50,118)" stroke="rgb(145,39,94)" stroke-width="1" opacity="0.75" />
			</g>
			<g>
				<title>AMP-binding (PF00501)
"AMP-binding enzyme"</title>
				<rect class="PF00501" x="431" y="28" stroke-linejoin="round" width="39" height="24" fill="rgb(60,217,223)" stroke="rgb(48,173,178)" stroke-width="1" opacity="0.75" />
			</g>
			<g>
				<title>Condensation (PF00668)
"Condensation domain"</title>
				<rect class="PF00668" x="473" y="28" stroke-linejoin="round" width="44" height="24" fill="rgb(224,184,98)" stroke="rgb(179,147,78)" stroke-width="1" opacity="0.75" />
			</g>
			<g>
				<title>PP-binding (PF00550)
"Phosphopantetheine attachment site"</title>
				<rect class="PF00550" x="519" y="28" stroke-linejoin="round" width="6" height="24" fill="rgb(103,191,88)" stroke="rgb(82,152,70)" stroke-width="1" opacity="0.75" />
			</g>
			<g>
				<title>AMP-binding_C (PF13193)
"AMP-binding enzyme C-terminal domain"</title>
				<rect class="PF13193" x="528" y="28" stroke-linejoin="round" width="7" height="24" fill="rgb(182,50,118)" stroke="rgb(145,39,94)" stroke-width="1" opacity="0.75" />
			</g>
			<g>
				<title>AMP-binding (PF00501)
"AMP-binding enzyme"</title>
				<rect class="PF00501" x="536" y="28" stroke-linejoin="round" width="38" height="24" fill="rgb(60,217,223)" stroke="rgb(48,173,178)" stroke-width="1" opacity="0.75" />
			</g>
			<g>
				<title>Condensation (PF00668)
"Condensation domain"</title>
				<rect class="PF00668" x="577" y="28" stroke-linejoin="round" width="44" height="24" fill="rgb(224,184,98)" stroke="rgb(179,147,78)" stroke-width="1" opacity="0.75" />
			</g>
			<g>
				<title>PP-binding (PF00550)
"Phosphopantetheine attachment site"</title>
				<rect class="PF00550" x="623" y="28" stroke-linejoin="round" width="6" height="24" fill="rgb(103,191,88)" stroke="rgb(82,152,70)" stroke-width="1" opacity="0.75" />
			</g>
			<g>
				<title>AMP-binding_C (PF13193)
"AMP-binding enzyme C-terminal domain"</title>
				<rect class="PF13193" x="632" y="28" stroke-linejoin="round" width="7" height="24" fill="rgb(182,50,118)" stroke="rgb(145,39,94)" stroke-width="1" opacity="0.75" />
			</g>
			<g>
				<title>AMP-binding (PF00501)
"AMP-binding enzyme"</title>
				<rect class="PF00501" x="640" y="28" stroke-linejoin="round" width="38" height="24" fill="rgb(60,217,223)" stroke="rgb(48,173,178)" stroke-width="1" opacity="0.75" />
			</g>
			<g>
				<title>Condensation (PF00668)
"Condensation domain"</title>
				<rect class="PF00668" x="681" y="28" stroke-linejoin="round" width="42" height="24" fill="rgb(224,184,98)" stroke="rgb(179,147,78)" stroke-width="1" opacity="0.75" />
			</g>
			<g>
				<title>TubC_N (PF18563)
"TubC N-terminal docking domain"</title>
				<rect class="PF18563" x="729" y="28" stroke-linejoin="round" width="5" height="24" fill="rgb(95,217,77)" stroke="rgb(75,173,61)" stroke-width="1" opacity="0.75" />
			</g>
		</g>
		<g>
			<title> (PSEEN3045)
putative non ribosomal peptide synthetase</title>
			<polygon class=" (PSEEN3045)
putative non ribosomal peptide synthetase" points="1583,25 764,25 764,10 734,40 764,70 764,55 1583,55" fill="rgb(255,255,255)" fill-opacity="1.0" stroke="rgb(0,0,0)" stroke-width="2"  />
			<g>
				<title>PP-binding (PF00550)
"Phosphopantetheine attachment site"</title>
				<polygon class="PF00550" points="738,40 740,38 740,42" stroke-linejoin="round" width="6" height="24" fill="rgb(103,191,88)" stroke="rgb(82,152,70)" stroke-width="1" opacity="0.75" />
			</g>
			<g>
				<title>AMP-binding_C (PF13193)
"AMP-binding enzyme C-terminal domain"</title>
				<polygon class="PF13193" points="743,35 749,29 749,51 743,45" stroke-linejoin="round" width="6" height="24" fill="rgb(182,50,118)" stroke="rgb(145,39,94)" stroke-width="1" opacity="0.75" />
			</g>
			<g>
				<title>AMP-binding (PF00501)
"AMP-binding enzyme"</title>
				<rect class="PF00501" x="751" y="28" stroke-linejoin="round" width="39" height="24" fill="rgb(60,217,223)" stroke="rgb(48,173,178)" stroke-width="1" opacity="0.75" />
			</g>
			<g>
				<title>Condensation (PF00668)
"Condensation domain"</title>
				<rect class="PF00668" x="792" y="28" stroke-linejoin="round" width="42" height="24" fill="rgb(224,184,98)" stroke="rgb(179,147,78)" stroke-width="1" opacity="0.75" />
			</g>
			<g>
				<title>PP-binding (PF00550)
"Phosphopantetheine attachment site"</title>
				<rect class="PF00550" x="840" y="28" stroke-linejoin="round" width="6" height="24" fill="rgb(103,191,88)" stroke="rgb(82,152,70)" stroke-width="1" opacity="0.75" />
			</g>
			<g>
				<title>AMP-binding_C (PF13193)
"AMP-binding enzyme C-terminal domain"</title>
				<rect class="PF13193" x="848" y="28" stroke-linejoin="round" width="7" height="24" fill="rgb(182,50,118)" stroke="rgb(145,39,94)" stroke-width="1" opacity="0.75" />
			</g>
			<g>
				<title>AMP-binding (PF00501)
"AMP-binding enzyme"</title>
				<rect class="PF00501" x="856" y="28" stroke-linejoin="round" width="39" height="24" fill="rgb(60,217,223)" stroke="rgb(48,173,178)" stroke-width="1" opacity="0.75" />
			</g>
			<g>
				<title>Condensation (PF00668)
"Condensation domain"</title>
				<rect class="PF00668" x="898" y="28" stroke-linejoin="round" width="42" height="24" fill="rgb(224,184,98)" stroke="rgb(179,147,78)" stroke-width="1" opacity="0.75" />
			</g>
			<g>
				<title>PP-binding (PF00550)
"Phosphopantetheine attachment site"</title>
				<rect class="PF00550" x="945" y="28" stroke-linejoin="round" width="6" height="24" fill="rgb(103,191,88)" stroke="rgb(82,152,70)" stroke-width="1" opacity="0.75" />
			</g>
			<g>
				<title>AMP-binding (PF00501)
"AMP-binding enzyme"</title>
				<rect class="PF00501" x="961" y="28" stroke-linejoin="round" width="38" height="24" fill="rgb(60,217,223)" stroke="rgb(48,173,178)" stroke-width="1" opacity="0.75" />
			</g>
			<g>
				<title>Condensation (PF00668)
"Condensation domain"</title>
				<rect class="PF00668" x="1002" y="28" stroke-linejoin="round" width="43" height="24" fill="rgb(224,184,98)" stroke="rgb(179,147,78)" stroke-width="1" opacity="0.75" />
			</g>
			<g>
				<title>PP-binding (PF00550)
"Phosphopantetheine attachment site"</title>
				<rect class="PF00550" x="1051" y="28" stroke-linejoin="round" width="6" height="24" fill="rgb(103,191,88)" stroke="rgb(82,152,70)" stroke-width="1" opacity="0.75" />
			</g>
			<g>
				<title>AMP-binding_C (PF13193)
"AMP-binding enzyme C-terminal domain"</title>
				<rect class="PF13193" x="1060" y="28" stroke-linejoin="round" width="7" height="24" fill="rgb(182,50,118)" stroke="rgb(145,39,94)" stroke-width="1" opacity="0.75" />
			</g>
			<g>
				<title>AMP-binding (PF00501)
"AMP-binding enzyme"</title>
				<rect class="PF00501" x="1068" y="28" stroke-linejoin="round" width="38" height="24" fill="rgb(60,217,223)" stroke="rgb(48,173,178)" stroke-width="1" opacity="0.75" />
			</g>
			<g>
				<title>Condensation (PF00668)
"Condensation domain"</title>
				<rect class="PF00668" x="1109" y="28" stroke-linejoin="round" width="42" height="24" fill="rgb(224,184,98)" stroke="rgb(179,147,78)" stroke-width="1" opacity="0.75" />
			</g>
			<g>
				<title>PP-binding (PF00550)
"Phosphopantetheine attachment site"</title>
				<rect class="PF00550" x="1156" y="28" stroke-linejoin="round" width="6" height="24" fill="rgb(103,191,88)" stroke="rgb(82,152,70)" stroke-width="1" opacity="0.75" />
			</g>
			<g>
				<title>AMP-binding_C (PF13193)
"AMP-binding enzyme C-terminal domain"</title>
				<rect class="PF13193" x="1165" y="28" stroke-linejoin="round" width="7" height="24" fill="rgb(182,50,118)" stroke="rgb(145,39,94)" stroke-width="1" opacity="0.75" />
			</g>
			<g>
				<title>AMP-binding (PF00501)
"AMP-binding enzyme"</title>
				<rect class="PF00501" x="1173" y="28" stroke-linejoin="round" width="39" height="24" fill="rgb(60,217,223)" stroke="rgb(48,173,178)" stroke-width="1" opacity="0.75" />
			</g>
			<g>
				<title>Condensation (PF00668)
"Condensation domain"</title>
				<rect class="PF00668" x="1214" y="28" stroke-linejoin="round" width="42" height="24" fill="rgb(224,184,98)" stroke="rgb(179,147,78)" stroke-width="1" opacity="0.75" />
			</g>
			<g>
				<title>PP-binding (PF00550)
"Phosphopantetheine attachment site"</title>
				<rect class="PF00550" x="1261" y="28" stroke-linejoin="round" width="6" height="24" fill="rgb(103,191,88)" stroke="rgb(82,152,70)" stroke-width="1" opacity="0.75" />
			</g>
			<g>
				<title>AMP-binding (PF00501)
"AMP-binding enzyme"</title>
				<rect class="PF00501" x="1278" y="28" stroke-linejoin="round" width="38" height="24" fill="rgb(60,217,223)" stroke="rgb(48,173,178)" stroke-width="1" opacity="0.75" />
			</g>
			<g>
				<title>Condensation (PF00668)
"Condensation domain"</title>
				<rect class="PF00668" x="1318" y="28" stroke-linejoin="round" width="43" height="24" fill="rgb(224,184,98)" stroke="rgb(179,147,78)" stroke-width="1" opacity="0.75" />
			</g>
			<g>
				<title>PP-binding (PF00550)
"Phosphopantetheine attachment site"</title>
				<rect class="PF00550" x="1367" y="28" stroke-linejoin="round" width="6" height="24" fill="rgb(103,191,88)" stroke="rgb(82,152,70)" stroke-width="1" opacity="0.75" />
			</g>
			<g>
				<title>AMP-binding_C (PF13193)
"AMP-binding enzyme C-terminal domain"</title>
				<rect class="PF13193" x="1376" y="28" stroke-linejoin="round" width="7" height="24" fill="rgb(182,50,118)" stroke="rgb(145,39,94)" stroke-width="1" opacity="0.75" />
			</g>
			<g>
				<title>AMP-binding (PF00501)
"AMP-binding enzyme"</title>
				<rect class="PF00501" x="1384" y="28" stroke-linejoin="round" width="38" height="24" fill="rgb(60,217,223)" stroke="rgb(48,173,178)" stroke-width="1" opacity="0.75" />
			</g>
			<g>
				<title>Condensation (PF00668)
"Condensation domain"</title>
				<rect class="PF00668" x="1425" y="28" stroke-linejoin="round" width="41" height="24" fill="rgb(224,184,98)" stroke="rgb(179,147,78)" stroke-width="1" opacity="0.75" />
			</g>
			<g>
				<title>PP-binding (PF00550)
"Phosphopantetheine attachment site"</title>
				<rect class="PF00550" x="1471" y="28" stroke-linejoin="round" width="6" height="24" fill="rgb(103,191,88)" stroke="rgb(82,152,70)" stroke-width="1" opacity="0.75" />
			</g>
			<g>
				<title>AMP-binding_C (PF13193)
"AMP-binding enzyme C-terminal domain"</title>
				<rect class="PF13193" x="1480" y="28" stroke-linejoin="round" width="7" height="24" fill="rgb(182,50,118)" stroke="rgb(145,39,94)" stroke-width="1" opacity="0.75" />
			</g>
			<g>
				<title>AMP-binding (PF00501)
"AMP-binding enzyme"</title>
				<rect class="PF00501" x="1488" y="28" stroke-linejoin="round" width="39" height="24" fill="rgb(60,217,223)" stroke="rgb(48,173,178)" stroke-width="1" opacity="0.75" />
			</g>
			<g>
				<title>Condensation (PF00668)
"Condensation domain"</title>
				<rect class="PF00668" x="1530" y="28" stroke-linejoin="round" width="43" height="24" fill="rgb(224,184,98)" stroke="rgb(179,147,78)" stroke-width="1" opacity="0.75" />
			</g>
		</g>
		<g>
			<title> (PSEEN3046)
putative transcriptional regulator, LysR family</title>
			<polygon class=" (PSEEN3046)
putative transcriptional regulator, LysR family" points="1593,40 1622,10 1622,70" fill="rgb(255,255,255)" fill-opacity="1.0" stroke="rgb(0,0,0)" stroke-width="2"  />
			<g>
				<title>LysR_substrate (PF03466)
"LysR substrate binding domain"</title>
				<polygon class="PF03466" points="1597,40 1609,28 1612,28 1612,52 1609,52" stroke-linejoin="round" width="19" height="24" fill="rgb(55,136,195)" stroke="rgb(44,108,156)" stroke-width="1" opacity="0.75" />
			</g>
			<g>
				<title>HTH_1 (PF00126)
"Bacterial regulatory helix-turn-helix protein, lysR family"</title>
				<rect class="PF00126" x="1615" y="28" stroke-linejoin="round" width="5" height="24" fill="rgb(125,227,79)" stroke="rgb(99,181,63)" stroke-width="1" opacity="0.75" />
			</g>
		</g>
		<g>
			<title> (PSEEN3047)
hypothetical protein</title>
			<polygon class=" (PSEEN3047)
hypothetical protein" points="1628,25 1639,25 1639,10 1669,40 1639,70 1639,55 1628,55" fill="rgb(255,255,255)" fill-opacity="1.0" stroke="rgb(0,0,0)" stroke-width="2"  />
			<g>
				<title>Patatin (PF01734)
"Patatin-like phospholipase"</title>
				<polygon class="PF01734" points="1632,28 1653,28 1658,33 1658,47 1653,52 1632,52" stroke-linejoin="round" width="26" height="24" fill="rgb(200,132,98)" stroke="rgb(160,105,78)" stroke-width="1" opacity="0.75" />
			</g>
		</g>
		<g>
			<title>pobA (PSEEN3048)
p-hydroxybenzoate hydroxylase (4-hydroxybenzoate 3-monooxygenase)</title>
			<polygon class="pobA (PSEEN3048)
p-hydroxybenzoate hydroxylase (4-hydroxybenzoate 3-monooxygenase)" points="1711,25 1702,25 1702,10 1672,40 1702,70 1702,55 1711,55" fill="rgb(255,255,255)" fill-opacity="1.0" stroke="rgb(0,0,0)" stroke-width="2"  />
			<g>
				<title>FAD_binding_3 (PF01494)
"FAD binding domain"</title>
				<polygon class="PF01494" points="1677,39 1688,28 1711,28 1711,52 1688,52 1677,41" stroke-linejoin="round" width="34" height="24" fill="rgb(182,175,59)" stroke="rgb(145,140,47)" stroke-width="1" opacity="0.75" />
			</g>
		</g>
		<g>
			<title>pobR (PSEEN3049)
transcriptional regulator PobR</title>
			<polygon class="pobR (PSEEN3049)
transcriptional regulator PobR" points="1717,10 1746,40 1717,70" fill="rgb(255,255,255)" fill-opacity="1.0" stroke="rgb(0,0,0)" stroke-width="2"  />
			<g>
				<title>AraC_binding (PF02311)
"AraC-like ligand binding domain"</title>
				<polygon class="PF02311" points="1719,28 1730,28 1732,30 1732,50 1730,52 1719,52" stroke-linejoin="round" width="13" height="24" fill="rgb(81,203,213)" stroke="rgb(64,162,170)" stroke-width="1" opacity="0.75" />
			</g>
			<g>
				<title>HTH_18 (PF12833)
"Helix-turn-helix domain"</title>
				<polygon class="PF12833" points="1737,35 1742,40 1737,45" stroke-linejoin="round" width="7" height="24" fill="rgb(216,58,224)" stroke="rgb(172,46,179)" stroke-width="1" opacity="0.75" />
			</g>
		</g>
		<g>
			<title> (PSEEN3050)
conserved hypothetical protein; TPR domain protein</title>
			<polygon class=" (PSEEN3050)
conserved hypothetical protein; TPR domain protein" points="1749,25 1754,25 1754,10 1784,40 1754,70 1754,55 1749,55" fill="rgb(255,255,255)" fill-opacity="1.0" stroke="rgb(0,0,0)" stroke-width="2"  />
			<g>
				<title>TPR_19 (PF14559)
"Tetratricopeptide repeat"</title>
				<polygon class="PF14559" points="1774,35 1779,40 1774,45" stroke-linejoin="round" width="6" height="24" fill="rgb(182,60,145)" stroke="rgb(145,48,115)" stroke-width="1" opacity="0.75" />
			</g>
		</g>
		<g>
			<title> (PSEEN3051)
putative sensory box histidine kinase/response regulator (hybrid)</title>
			<polygon class=" (PSEEN3051)
putative sensory box histidine kinase/response regulator (hybrid)" points="1851,25 1815,25 1815,10 1785,40 1815,70 1815,55 1851,55" fill="rgb(255,255,255)" fill-opacity="1.0" stroke="rgb(0,0,0)" stroke-width="2"  />
			<g>
				<title>Response_reg (PF00072)
"Response regulator receiver domain"</title>
				<polygon class="PF00072" points="1789,40 1796,33 1796,47" stroke-linejoin="round" width="11" height="24" fill="rgb(100,107,203)" stroke="rgb(80,85,162)" stroke-width="1" opacity="0.75" />
			</g>
			<g>
				<title>HATPase_c (PF02518)
"Histidine kinase-, DNA gyrase B-, and HSP90-like ATPase"</title>
				<polygon class="PF02518" points="1798,31 1801,28 1810,28 1810,52 1801,52 1798,49" stroke-linejoin="round" width="12" height="24" fill="rgb(80,94,225)" stroke="rgb(64,75,180)" stroke-width="1" opacity="0.75" />
			</g>
			<g>
				<title>HisKA (PF00512)
"His Kinase A (phospho-acceptor) domain"</title>
				<rect class="PF00512" x="1815" y="28" stroke-linejoin="round" width="6" height="24" fill="rgb(193,125,62)" stroke="rgb(154,100,49)" stroke-width="1" opacity="0.75" />
			</g>
			<g>
				<title>PAS_3 (PF08447)
"PAS fold"</title>
				<rect class="PF08447" x="1825" y="28" stroke-linejoin="round" width="7" height="24" fill="rgb(222,97,193)" stroke="rgb(177,77,154)" stroke-width="1" opacity="0.75" />
			</g>
		</g>
		<g>
			<title>ccd (PSEEN3052)
Cytosine deaminase</title>
			<polygon class="ccd (PSEEN3052)
Cytosine deaminase" points="1853,40 1867,10 1867,70" fill="rgb(255,255,255)" fill-opacity="1.0" stroke="rgb(0,0,0)" stroke-width="2"  />
			<g>
				<title>dCMP_cyt_deam_1 (PF00383)
"Cytidine and deoxycytidylate deaminase zinc-binding region"</title>
				<polygon class="PF00383" points="1857,38 1862,28 1866,28 1866,52 1862,52 1857,42" stroke-linejoin="round" width="9" height="24" fill="rgb(91,149,216)" stroke="rgb(72,119,172)" stroke-width="1" opacity="0.75" />
			</g>
		</g>
		<g>
			<title> (PSEEN3053)
conserved hypothetical protein; ThiJ/PfpI family protein</title>
			<polygon class=" (PSEEN3053)
conserved hypothetical protein; ThiJ/PfpI family protein" points="1873,10 1896,40 1873,70" fill="rgb(255,255,255)" fill-opacity="1.0" stroke="rgb(0,0,0)" stroke-width="2"  />
			<g>
				<title>DJ-1_PfpI (PF01965)
"DJ-1/PfpI family"</title>
				<polygon class="PF01965" points="1875,28 1883,28 1892,40 1883,52 1875,52" stroke-linejoin="round" width="20" height="24" fill="rgb(66,224,145)" stroke="rgb(52,179,116)" stroke-width="1" opacity="0.75" />
			</g>
		</g>
		<g>
			<title>hpd (PSEEN3054)
4-hydroxyphenylpyruvate dioxygenase (4HPPD) (HPD) (HPPDase)</title>
			<polygon class="hpd (PSEEN3054)
4-hydroxyphenylpyruvate dioxygenase (4HPPD) (HPD) (HPPDase)" points="1934,25 1929,25 1929,10 1899,40 1929,70 1929,55 1934,55" fill="rgb(255,255,255)" fill-opacity="1.0" stroke="rgb(0,0,0)" stroke-width="2"  />
			<g>
				<title>Glyoxalase (PF00903)
"Glyoxalase/Bleomycin resistance protein/Dioxygenase superfamily"</title>
				<polygon class="PF00903" points="1906,37 1915,28 1918,28 1918,52 1915,52 1906,43" stroke-linejoin="round" width="12" height="24" fill="rgb(50,162,189)" stroke="rgb(40,129,151)" stroke-width="1" opacity="0.75" />
			</g>
			<g>
				<title>Glyoxalase_5 (PF14696)
"Hydroxyphenylpyruvate dioxygenase, HPPD, N-terminal"</title>
				<rect class="PF14696" x="1920" y="28" stroke-linejoin="round" width="13" height="24" fill="rgb(50,199,116)" stroke="rgb(40,159,92)" stroke-width="1" opacity="0.75" />
			</g>
		</g>
		<g>
			<title> (PSEEN3055)
conserved hypothetical protein</title>
			<polygon class=" (PSEEN3055)
conserved hypothetical protein" points="1936,40 1944,10 1944,70" fill="rgb(255,255,255)" fill-opacity="1.0" stroke="rgb(0,0,0)" stroke-width="2"  />
		</g>
		<g>
			<title> (PSEEN3057)
putative phosphodiesterase (EAL domain)</title>
			<polygon class=" (PSEEN3057)
putative phosphodiesterase (EAL domain)" points="1947,25 1968,25 1968,10 1998,40 1968,70 1968,55 1947,55" fill="rgb(255,255,255)" fill-opacity="1.0" stroke="rgb(0,0,0)" stroke-width="2"  />
			<g>
				<title>CSS-motif (PF12792)
"CSS motif domain associated with EAL"</title>
				<rect class="PF12792" x="1949" y="28" stroke-linejoin="round" width="19" height="24" fill="rgb(126,95,216)" stroke="rgb(100,76,172)" stroke-width="1" opacity="0.75" />
			</g>
			<g>
				<title>EAL (PF00563)
"EAL domain"</title>
				<polygon class="PF00563" points="1971,28 1982,28 1994,40 1994,40 1982,52 1971,52" stroke-linejoin="round" width="23" height="24" fill="rgb(204,100,120)" stroke="rgb(163,80,96)" stroke-width="1" opacity="0.75" />
			</g>
		</g>
		<g>
			<title>rarD-2 (PSEEN3058)
chloramphenicol-sensitive protein rarD</title>
			<polygon class="rarD-2 (PSEEN3058)
chloramphenicol-sensitive protein rarD" points="1999,10 2028,40 1999,70" fill="rgb(255,255,255)" fill-opacity="1.0" stroke="rgb(0,0,0)" stroke-width="2"  />
			<g>
				<title>EamA (PF00892)
"EamA-like transporter family"</title>
				<rect class="PF00892" x="1999" y="28" stroke-linejoin="round" width="13" height="24" fill="rgb(105,217,77)" stroke="rgb(84,173,61)" stroke-width="1" opacity="0.75" />
			</g>
		</g>
		<g>
			<title> (PSEEN3059)
conserved hypothetical protein; putative CBS domain; putative membrane protein, TerC/CorC family</title>
			<polygon class=" (PSEEN3059)
conserved hypothetical protein; putative CBS domain; putative membrane protein, TerC/CorC family" points="2080,25 2058,25 2058,10 2028,40 2058,70 2058,55 2080,55" fill="rgb(255,255,255)" fill-opacity="1.0" stroke="rgb(0,0,0)" stroke-width="2"  />
			<g>
				<title>CorC_HlyC (PF03471)
"Transporter associated domain"</title>
				<polygon class="PF03471" points="2032,40 2035,37 2035,43" stroke-linejoin="round" width="7" height="24" fill="rgb(60,114,228)" stroke="rgb(47,91,182)" stroke-width="1" opacity="0.75" />
			</g>
			<g>
				<title>CBS (PF00571)
"CBS domain"</title>
				<polygon class="PF00571" points="2038,34 2043,29 2043,51 2038,46" stroke-linejoin="round" width="5" height="24" fill="rgb(220,56,105)" stroke="rgb(176,44,84)" stroke-width="1" opacity="0.75" />
			</g>
			<g>
				<title>TerC (PF03741)
"Integral membrane protein TerC family"</title>
				<rect class="PF03741" x="2060" y="28" stroke-linejoin="round" width="19" height="24" fill="rgb(221,113,97)" stroke="rgb(176,90,77)" stroke-width="1" opacity="0.75" />
			</g>
		</g>
		<g>
			<title> (PSEEN3060)
putative peptidase, U32 family</title>
			<polygon class=" (PSEEN3060)
putative peptidase, U32 family" points="2093,25 2129,25 2129,10 2159,40 2129,70 2129,55 2093,55" fill="rgb(255,255,255)" fill-opacity="1.0" stroke="rgb(0,0,0)" stroke-width="2"  />
			<g>
				<title>Peptidase_U32 (PF01136)
"Peptidase family U32"</title>
				<rect class="PF01136" x="2100" y="28" stroke-linejoin="round" width="22" height="24" fill="rgb(181,49,59)" stroke="rgb(144,39,47)" stroke-width="1" opacity="0.75" />
			</g>
			<g>
				<title>DUF3656 (PF12392)
"Collagenase"</title>
				<rect class="PF12392" x="2132" y="28" stroke-linejoin="round" width="11" height="24" fill="rgb(210,64,129)" stroke="rgb(168,51,103)" stroke-width="1" opacity="0.75" />
			</g>
		</g>
		<g>
			<title>nfxB (PSEEN3061)
transcriptional regulator NfxB</title>
			<polygon class="nfxB (PSEEN3061)
transcriptional regulator NfxB" points="2167,10 2185,40 2167,70" fill="rgb(255,255,255)" fill-opacity="1.0" stroke="rgb(0,0,0)" stroke-width="2"  />
		</g>
	</g>
</svg>
