<svg version="1.1" baseProfile="full" xmlns="http://www.w3.org/2000/svg" width="895.5" height="80">
	<g>
		<line x1="10" y1="40.0" x2="885.5" y2="40.0" style="stroke:rgb(70,70,70); stroke-width:3 "/>
		<g>
			<title> (AFUA_6G09630)
C6 finger domain protein GliZ</title>
			<polygon class=" (AFUA_6G09630)
C6 finger domain protein GliZ" points="10,25 29,25 29,10 59,40 29,70 29,55 10,55" fill="rgb(255,255,255)" fill-opacity="1.0" stroke="rgb(0,0,0)" stroke-width="2"  />
			<g>
				<title>Zn_clus (PF00172)
"Fungal Zn(2)-Cys(6) binuclear cluster domain"</title>
				<rect class="PF00172" x="14" y="28" stroke-linejoin="round" width="3" height="24" fill="rgb(121,178,76)" stroke="rgb(96,142,60)" stroke-width="1" opacity="0.75" />
			</g>
		</g>
		<g>
			<title> (AFUA_6G09640)
aminotransferase GliI</title>
			<polygon class=" (AFUA_6G09640)
aminotransferase GliI" points="129,25 112,25 112,10 82,40 112,70 112,55 129,55" fill="rgb(255,255,255)" fill-opacity="1.0" stroke="rgb(0,0,0)" stroke-width="2"  />
			<g>
				<title>Aminotran_1_2 (PF00155)
"Aminotransferase class I and II"</title>
				<polygon class="PF00155" points="87,39 98,28 124,28 124,52 98,52 87,41" stroke-linejoin="round" width="37" height="24" fill="rgb(89,113,198)" stroke="rgb(71,90,158)" stroke-width="1" opacity="0.75" />
			</g>
		</g>
		<g>
			<title> (AFUA_6G09650)
membrane dipeptidase GliJ</title>
			<polygon class=" (AFUA_6G09650)
membrane dipeptidase GliJ" points="141,25 155,25 155,10 185,40 155,70 155,55 141,55" fill="rgb(255,255,255)" fill-opacity="1.0" stroke="rgb(0,0,0)" stroke-width="2"  />
			<g>
				<title>Peptidase_M19 (PF01244)
"Membrane dipeptidase (Peptidase family M19)"</title>
				<polygon class="PF01244" points="142,28 168,28 175,35 175,45 168,52 142,52" stroke-linejoin="round" width="33" height="24" fill="rgb(178,227,92)" stroke="rgb(142,181,73)" stroke-width="1" opacity="0.75" />
			</g>
		</g>
		<g>
			<title> (AFUA_6G09660)
nonribosomal peptide synthase GliP</title>
			<polygon class=" (AFUA_6G09660)
nonribosomal peptide synthase GliP" points="413,25 227,25 227,10 197,40 227,70 227,55 413,55" fill="rgb(255,255,255)" fill-opacity="1.0" stroke="rgb(0,0,0)" stroke-width="2"  />
			<g>
				<title>PP-binding (PF00550)
"Phosphopantetheine attachment site"</title>
				<polygon class="PF00550" points="201,40 206,35 206,45" stroke-linejoin="round" width="6" height="24" fill="rgb(103,191,88)" stroke="rgb(82,152,70)" stroke-width="1" opacity="0.75" />
			</g>
			<g>
				<title>Condensation (PF00668)
"Condensation domain"</title>
				<polygon class="PF00668" points="209,32 213,28 249,28 249,52 213,52 209,48" stroke-linejoin="round" width="40" height="24" fill="rgb(224,184,98)" stroke="rgb(179,147,78)" stroke-width="1" opacity="0.75" />
			</g>
			<g>
				<title>PP-binding (PF00550)
"Phosphopantetheine attachment site"</title>
				<rect class="PF00550" x="252" y="28" stroke-linejoin="round" width="7" height="24" fill="rgb(103,191,88)" stroke="rgb(82,152,70)" stroke-width="1" opacity="0.75" />
			</g>
			<g>
				<title>AMP-binding (PF00501)
"AMP-binding enzyme"</title>
				<rect class="PF00501" x="270" y="28" stroke-linejoin="round" width="37" height="24" fill="rgb(60,217,223)" stroke="rgb(48,173,178)" stroke-width="1" opacity="0.75" />
			</g>
			<g>
				<title>Condensation (PF00668)
"Condensation domain"</title>
				<rect class="PF00668" x="320" y="28" stroke-linejoin="round" width="31" height="24" fill="rgb(224,184,98)" stroke="rgb(179,147,78)" stroke-width="1" opacity="0.75" />
			</g>
			<g>
				<title>PP-binding (PF00550)
"Phosphopantetheine attachment site"</title>
				<rect class="PF00550" x="354" y="28" stroke-linejoin="round" width="6" height="24" fill="rgb(103,191,88)" stroke="rgb(82,152,70)" stroke-width="1" opacity="0.75" />
			</g>
			<g>
				<title>AMP-binding (PF00501)
"AMP-binding enzyme"</title>
				<rect class="PF00501" x="372" y="28" stroke-linejoin="round" width="39" height="24" fill="rgb(60,217,223)" stroke="rgb(48,173,178)" stroke-width="1" opacity="0.75" />
			</g>
		</g>
		<g>
			<title> (AFUA_6G09670)
cytochrome P450 oxidoreductase GliC</title>
			<polygon class=" (AFUA_6G09670)
cytochrome P450 oxidoreductase GliC" points="428,25 459,25 459,10 489,40 459,70 459,55 428,55" fill="rgb(255,255,255)" fill-opacity="1.0" stroke="rgb(0,0,0)" stroke-width="2"  />
			<g>
				<title>p450 (PF00067)
"Cytochrome P450"</title>
				<polygon class="PF00067" points="433,28 473,28 478,33 478,47 473,52 433,52" stroke-linejoin="round" width="45" height="24" fill="rgb(85,216,107)" stroke="rgb(68,172,85)" stroke-width="1" opacity="0.75" />
			</g>
		</g>
		<g>
			<title> (AFUA_6G09680)
O-methyltransferase GliM</title>
			<polygon class=" (AFUA_6G09680)
O-methyltransferase GliM" points="544,25 529,25 529,10 499,40 529,70 529,55 544,55" fill="rgb(255,255,255)" fill-opacity="1.0" stroke="rgb(0,0,0)" stroke-width="2"  />
			<g>
				<title>Methyltransf_2 (PF00891)
"O-methyltransferase domain"</title>
				<polygon class="PF00891" points="503,40 515,28 523,28 523,52 515,52" stroke-linejoin="round" width="21" height="24" fill="rgb(50,51,190)" stroke="rgb(39,40,152)" stroke-width="1" opacity="0.75" />
			</g>
		</g>
		<g>
			<title> (AFUA_6G09690)
glutathione S-transferase GliG</title>
			<polygon class=" (AFUA_6G09690)
glutathione S-transferase GliG" points="556,40 583,10 583,70" fill="rgb(255,255,255)" fill-opacity="1.0" stroke="rgb(0,0,0)" stroke-width="2"  />
			<g>
				<title>GST_C (PF00043)
"Glutathione S-transferase, C-terminal domain"</title>
				<polygon class="PF00043" points="562,38 571,28 571,28 571,52 571,52 562,42" stroke-linejoin="round" width="9" height="24" fill="rgb(102,108,211)" stroke="rgb(81,86,168)" stroke-width="1" opacity="0.75" />
			</g>
			<g>
				<title>GST_N_2 (PF13409)
"Glutathione S-transferase, N-terminal domain"</title>
				<rect class="PF13409" x="574" y="28" stroke-linejoin="round" width="6" height="24" fill="rgb(52,193,170)" stroke="rgb(41,154,136)" stroke-width="1" opacity="0.75" />
			</g>
		</g>
		<g>
			<title> (AFUA_6G09700)
gliotoxin biosynthesis protein GliK</title>
			<polygon class=" (AFUA_6G09700)
gliotoxin biosynthesis protein GliK" points="592,10 621,40 592,70" fill="rgb(255,255,255)" fill-opacity="1.0" stroke="rgb(0,0,0)" stroke-width="2"  />
		</g>
		<g>
			<title> (AFUA_6G09710)
MFS gliotoxin efflux transporter GliA</title>
			<polygon class=" (AFUA_6G09710)
MFS gliotoxin efflux transporter GliA" points="641,25 665,25 665,10 695,40 665,70 665,55 641,55" fill="rgb(255,255,255)" fill-opacity="1.0" stroke="rgb(0,0,0)" stroke-width="2"  />
			<g>
				<title>MFS_1 (PF07690)
"Major Facilitator Superfamily"</title>
				<polygon class="PF07690" points="645,28 679,28 685,34 685,46 679,52 645,52" stroke-linejoin="round" width="40" height="24" fill="rgb(193,224,74)" stroke="rgb(154,179,59)" stroke-width="1" opacity="0.75" />
			</g>
		</g>
		<g>
			<title> (AFUA_6G09720)
methyltransferase GliN</title>
			<polygon class=" (AFUA_6G09720)
methyltransferase GliN" points="740,25 738,25 738,10 708,40 738,70 738,55 740,55" fill="rgb(255,255,255)" fill-opacity="1.0" stroke="rgb(0,0,0)" stroke-width="2"  />
			<g>
				<title>Methyltransf_23 (PF13489)
"Methyltransferase domain"</title>
				<polygon class="PF13489" points="719,33 724,28 737,28 737,52 724,52 719,47" stroke-linejoin="round" width="18" height="24" fill="rgb(188,189,66)" stroke="rgb(150,151,52)" stroke-width="1" opacity="0.75" />
			</g>
		</g>
		<g>
			<title> (AFUA_6G09730)
cytochrome P450 oxidoreductase GliF</title>
			<polygon class=" (AFUA_6G09730)
cytochrome P450 oxidoreductase GliF" points="808,25 786,25 786,10 756,40 786,70 786,55 808,55" fill="rgb(255,255,255)" fill-opacity="1.0" stroke="rgb(0,0,0)" stroke-width="2"  />
			<g>
				<title>p450 (PF00067)
"Cytochrome P450"</title>
				<polygon class="PF00067" points="760,40 772,28 794,28 794,52 772,52" stroke-linejoin="round" width="36" height="24" fill="rgb(85,216,107)" stroke="rgb(68,172,85)" stroke-width="1" opacity="0.75" />
			</g>
		</g>
		<g>
			<title> (AFUA_6G09740)
thioredoxin reductase GliT</title>
			<polygon class=" (AFUA_6G09740)
thioredoxin reductase GliT" points="818,25 823,25 823,10 853,40 823,70 823,55 818,55" fill="rgb(255,255,255)" fill-opacity="1.0" stroke="rgb(0,0,0)" stroke-width="2"  />
			<g>
				<title>Pyr_redox_2 (PF07992)
"Pyridine nucleotide-disulphide oxidoreductase"</title>
				<polygon class="PF07992" points="819,28 837,28 848,39 848,41 837,52 819,52" stroke-linejoin="round" width="29" height="24" fill="rgb(83,223,167)" stroke="rgb(66,178,133)" stroke-width="1" opacity="0.75" />
			</g>
		</g>
		<g>
			<title> (AFUA_6G09745)
GliH</title>
			<polygon class=" (AFUA_6G09745)
GliH" points="864,10 884,40 864,70" fill="rgb(255,255,255)" fill-opacity="1.0" stroke="rgb(0,0,0)" stroke-width="2"  />
			<g>
				<title>DUF1857 (PF08982)
"Domain of unknown function (DUF1857)"</title>
				<polygon class="PF08982" points="865,28 872,28 880,39 880,41 872,52 865,52" stroke-linejoin="round" width="15" height="24" fill="rgb(65,163,199)" stroke="rgb(52,130,159)" stroke-width="1" opacity="0.75" />
			</g>
		</g>
	</g>
</svg>
