<svg version="1.1" baseProfile="full" xmlns="http://www.w3.org/2000/svg" width="1036.7" height="80">
	<g>
		<line x1="10" y1="40.0" x2="1026.7" y2="40.0" style="stroke:rgb(70,70,70); stroke-width:3 "/>
		<g>
			<title> (BTH_II2238)
OpgC protein, putative</title>
			<polygon class=" (BTH_II2238)
OpgC protein, putative" points="54,25 48,25 48,10 18,40 48,70 48,55 54,55" fill="rgb(255,255,255)" fill-opacity="1.0" stroke="rgb(0,0,0)" stroke-width="2"  />
			<g>
				<title>OpgC_C (PF10129)
"OpgC protein"</title>
				<polygon class="PF10129" points="22,40 34,28 53,28 53,52 34,52" stroke-linejoin="round" width="35" height="24" fill="rgb(65,222,148)" stroke="rgb(52,177,118)" stroke-width="1" opacity="0.75" />
			</g>
		</g>
		<g>
			<title>rarD (BTH_II2239)
rarD protein</title>
			<polygon class="rarD (BTH_II2239)
rarD protein" points="70,40 99,10 99,70" fill="rgb(255,255,255)" fill-opacity="1.0" stroke="rgb(0,0,0)" stroke-width="2"  />
		</g>
		<g>
			<title> (BTH_II2240)
acylphosphatase</title>
			<polygon class=" (BTH_II2240)
acylphosphatase" points="100,40 115,10 115,70" fill="rgb(255,255,255)" fill-opacity="1.0" stroke="rgb(0,0,0)" stroke-width="2"  />
			<g>
				<title>Acylphosphatase (PF00708)
"Acylphosphatase"</title>
				<polygon class="PF00708" points="103,40 108,30 108,50" stroke-linejoin="round" width="8" height="24" fill="rgb(79,219,111)" stroke="rgb(63,175,88)" stroke-width="1" opacity="0.75" />
			</g>
		</g>
		<g>
			<title> (BTH_II2241)
dihydroflavonol-4-reductase family protein</title>
			<polygon class=" (BTH_II2241)
dihydroflavonol-4-reductase family protein" points="115,25 118,25 118,10 148,40 118,70 118,55 115,55" fill="rgb(255,255,255)" fill-opacity="1.0" stroke="rgb(0,0,0)" stroke-width="2"  />
			<g>
				<title>Epimerase (PF01370)
"NAD dependent epimerase/dehydratase family"</title>
				<polygon class="PF01370" points="116,28 132,28 138,34 138,46 132,52 116,52" stroke-linejoin="round" width="22" height="24" fill="rgb(98,102,214)" stroke="rgb(78,81,171)" stroke-width="1" opacity="0.75" />
			</g>
		</g>
		<g>
			<title> (BTH_II2242)
glycosyl transferase, group 2 family protein</title>
			<polygon class=" (BTH_II2242)
glycosyl transferase, group 2 family protein" points="245,25 236,25 236,10 206,40 236,70 236,55 245,55" fill="rgb(255,255,255)" fill-opacity="1.0" stroke="rgb(0,0,0)" stroke-width="2"  />
			<g>
				<title>Glyco_tranf_2_3 (PF13641)
"Glycosyltransferase like family 2"</title>
				<polygon class="PF13641" points="216,34 222,28 240,28 240,52 222,52 216,46" stroke-linejoin="round" width="24" height="24" fill="rgb(140,74,190)" stroke="rgb(111,59,152)" stroke-width="1" opacity="0.75" />
			</g>
		</g>
		<g>
			<title>ispH-2 (BTH_II2243)
4-hydroxy-3-methylbut-2-enyl diphosphate reductase</title>
			<polygon class="ispH-2 (BTH_II2243)
4-hydroxy-3-methylbut-2-enyl diphosphate reductase" points="258,25 259,25 259,10 289,40 259,70 259,55 258,55" fill="rgb(255,255,255)" fill-opacity="1.0" stroke="rgb(0,0,0)" stroke-width="2"  />
			<g>
				<title>LYTB (PF02401)
"LytB protein"</title>
				<polygon class="PF02401" points="258,28 273,28 285,40 285,40 273,52 258,52" stroke-linejoin="round" width="27" height="24" fill="rgb(155,62,193)" stroke="rgb(124,49,154)" stroke-width="1" opacity="0.75" />
			</g>
		</g>
		<g>
			<title> (BTH_II2244)
radical SAM domain protein</title>
			<polygon class=" (BTH_II2244)
radical SAM domain protein" points="292,25 299,25 299,10 329,40 299,70 299,55 292,55" fill="rgb(255,255,255)" fill-opacity="1.0" stroke="rgb(0,0,0)" stroke-width="2"  />
			<g>
				<title>Radical_SAM (PF04055)
"Radical SAM superfamily"</title>
				<rect class="PF04055" x="293" y="28" stroke-linejoin="round" width="15" height="24" fill="rgb(149,56,222)" stroke="rgb(119,44,177)" stroke-width="1" opacity="0.75" />
			</g>
			<g>
				<title>DUF3463 (PF11946)
"Domain of unknown function (DUF3463)"</title>
				<polygon class="PF11946" points="310,28 312,28 323,39 323,41 312,52 310,52" stroke-linejoin="round" width="13" height="24" fill="rgb(193,51,57)" stroke="rgb(154,40,45)" stroke-width="1" opacity="0.75" />
			</g>
		</g>
		<g>
			<title> (BTH_II2245)
conserved hypothetical protein</title>
			<polygon class=" (BTH_II2245)
conserved hypothetical protein" points="347,10 358,40 347,70" fill="rgb(255,255,255)" fill-opacity="1.0" stroke="rgb(0,0,0)" stroke-width="2"  />
			<g>
				<title>DOPA_dioxygen (PF08883)
"Dopa 4,5-dioxygenase family"</title>
				<polygon class="PF08883" points="348,28 350,28 355,40 350,52 348,52" stroke-linejoin="round" width="10" height="24" fill="rgb(127,73,201)" stroke="rgb(101,58,160)" stroke-width="1" opacity="0.75" />
			</g>
		</g>
		<g>
			<title> (BTH_II2246)
ISBm1, transposase orfB, degenerate</title>
			<polygon class=" (BTH_II2246)
ISBm1, transposase orfB, degenerate" points="366,10 386,40 366,70" fill="rgb(255,255,255)" fill-opacity="1.0" stroke="rgb(0,0,0)" stroke-width="2"  />
			<g>
				<title>DDE_Tnp_1_2 (PF13586)
"Transposase DDE domain"</title>
				<polygon class="PF13586" points="377,32 382,40 377,48" stroke-linejoin="round" width="8" height="24" fill="rgb(94,207,193)" stroke="rgb(75,165,154)" stroke-width="1" opacity="0.75" />
			</g>
		</g>
		<g>
			<title> (BTH_II2247)
transcriptional regulator, LysR family</title>
			<polygon class=" (BTH_II2247)
transcriptional regulator, LysR family" points="403,25 403,25 403,10 433,40 403,70 403,55 403,55" fill="rgb(255,255,255)" fill-opacity="1.0" stroke="rgb(0,0,0)" stroke-width="2"  />
			<g>
				<title>HTH_1 (PF00126)
"Bacterial regulatory helix-turn-helix protein, lysR family"</title>
				<rect class="PF00126" x="403" y="28" stroke-linejoin="round" width="5" height="24" fill="rgb(125,227,79)" stroke="rgb(99,181,63)" stroke-width="1" opacity="0.75" />
			</g>
			<g>
				<title>LysR_substrate (PF03466)
"LysR substrate binding domain"</title>
				<polygon class="PF03466" points="412,28 417,28 429,40 417,52 412,52" stroke-linejoin="round" width="20" height="24" fill="rgb(55,136,195)" stroke="rgb(44,108,156)" stroke-width="1" opacity="0.75" />
			</g>
		</g>
		<g>
			<title> (BTH_II2248)
conserved hypothetical protein</title>
			<polygon class=" (BTH_II2248)
conserved hypothetical protein" points="444,10 468,40 444,70" fill="rgb(255,255,255)" fill-opacity="1.0" stroke="rgb(0,0,0)" stroke-width="2"  />
		</g>
		<g>
			<title> (BTH_II2249)
glutamate-1-semialdehyde aminotransferase</title>
			<polygon class=" (BTH_II2249)
glutamate-1-semialdehyde aminotransferase" points="467,25 492,25 492,10 522,40 492,70 492,55 467,55" fill="rgb(255,255,255)" fill-opacity="1.0" stroke="rgb(0,0,0)" stroke-width="2"  />
			<g>
				<title>Aminotran_3 (PF00202)
"Aminotransferase class-III"</title>
				<polygon class="PF00202" points="482,28 506,28 518,40 506,52 482,52" stroke-linejoin="round" width="39" height="24" fill="rgb(49,163,189)" stroke="rgb(39,130,151)" stroke-width="1" opacity="0.75" />
			</g>
		</g>
		<g>
			<title> (BTH_II2250)
conserved hypothetical protein</title>
			<polygon class=" (BTH_II2250)
conserved hypothetical protein" points="533,10 547,40 533,70" fill="rgb(255,255,255)" fill-opacity="1.0" stroke="rgb(0,0,0)" stroke-width="2"  />
		</g>
		<g>
			<title> (BTH_II2251)
Uncharacterized small protein</title>
			<polygon class=" (BTH_II2251)
Uncharacterized small protein" points="553,40 559,10 559,70" fill="rgb(255,255,255)" fill-opacity="1.0" stroke="rgb(0,0,0)" stroke-width="2"  />
			<g>
				<title>Sel_put (PF04328)
"Selenoprotein, putative"</title>
				<polygon class="PF04328" points="556,40 559,28 559,28 559,52 559,52" stroke-linejoin="round" width="6" height="24" fill="rgb(114,219,96)" stroke="rgb(91,175,76)" stroke-width="1" opacity="0.75" />
			</g>
		</g>
		<g>
			<title>cstA (BTH_II2252)
carbon starvation protein A</title>
			<polygon class="cstA (BTH_II2252)
carbon starvation protein A" points="630,25 591,25 591,10 561,40 591,70 591,55 630,55" fill="rgb(255,255,255)" fill-opacity="1.0" stroke="rgb(0,0,0)" stroke-width="2"  />
			<g>
				<title>CstA_5TM (PF13722)
"5TM C-terminal transporter carbon starvation CstA"</title>
				<polygon class="PF13722" points="571,34 577,28 583,28 583,52 577,52 571,46" stroke-linejoin="round" width="12" height="24" fill="rgb(224,155,111)" stroke="rgb(179,124,88)" stroke-width="1" opacity="0.75" />
			</g>
			<g>
				<title>CstA (PF02554)
"Carbon starvation protein CstA"</title>
				<rect class="PF02554" x="589" y="28" stroke-linejoin="round" width="37" height="24" fill="rgb(153,59,192)" stroke="rgb(122,47,153)" stroke-width="1" opacity="0.75" />
			</g>
		</g>
		<g>
			<title> (BTH_II2253)
cytochrome p460</title>
			<polygon class=" (BTH_II2253)
cytochrome p460" points="638,40 655,10 655,70" fill="rgb(255,255,255)" fill-opacity="1.0" stroke="rgb(0,0,0)" stroke-width="2"  />
			<g>
				<title>Cytochrome_P460 (PF16694)
"Cytochrome P460"</title>
				<polygon class="PF16694" points="641,40 648,28 650,28 650,52 648,52" stroke-linejoin="round" width="12" height="24" fill="rgb(61,220,181)" stroke="rgb(48,176,144)" stroke-width="1" opacity="0.75" />
			</g>
		</g>
		<g>
			<title> (BTH_II2254)
epoxide hydrolase</title>
			<polygon class=" (BTH_II2254)
epoxide hydrolase" points="690,25 686,25 686,10 656,40 686,70 686,55 690,55" fill="rgb(255,255,255)" fill-opacity="1.0" stroke="rgb(0,0,0)" stroke-width="2"  />
			<g>
				<title>Abhydrolase_1 (PF00561)
"alpha/beta hydrolase fold"</title>
				<polygon class="PF00561" points="668,32 672,28 682,28 682,52 672,52 668,48" stroke-linejoin="round" width="14" height="24" fill="rgb(86,180,151)" stroke="rgb(68,144,120)" stroke-width="1" opacity="0.75" />
			</g>
		</g>
		<g>
			<title> (BTH_II2255)
MlrC C-terminus family</title>
			<polygon class=" (BTH_II2255)
MlrC C-terminus family" points="749,25 727,25 727,10 697,40 727,70 727,55 749,55" fill="rgb(255,255,255)" fill-opacity="1.0" stroke="rgb(0,0,0)" stroke-width="2"  />
			<g>
				<title>MlrC_C (PF07171)
"MlrC C-terminus"</title>
				<polygon class="PF07171" points="701,40 713,28 716,28 716,52 713,52" stroke-linejoin="round" width="17" height="24" fill="rgb(192,174,73)" stroke="rgb(153,139,58)" stroke-width="1" opacity="0.75" />
			</g>
			<g>
				<title>DUF1485 (PF07364)
"Metallopeptidase family M81"</title>
				<rect class="PF07364" x="718" y="28" stroke-linejoin="round" width="28" height="24" fill="rgb(101,127,217)" stroke="rgb(80,101,173)" stroke-width="1" opacity="0.75" />
			</g>
		</g>
		<g>
			<title> (BTH_II2256)
transcriptional regulator, LysR family, putative</title>
			<polygon class=" (BTH_II2256)
transcriptional regulator, LysR family, putative" points="752,25 755,25 755,10 785,40 755,70 755,55 752,55" fill="rgb(255,255,255)" fill-opacity="1.0" stroke="rgb(0,0,0)" stroke-width="2"  />
			<g>
				<title>HTH_1 (PF00126)
"Bacterial regulatory helix-turn-helix protein, lysR family"</title>
				<rect class="PF00126" x="752" y="28" stroke-linejoin="round" width="5" height="24" fill="rgb(125,227,79)" stroke="rgb(99,181,63)" stroke-width="1" opacity="0.75" />
			</g>
			<g>
				<title>LysR_substrate (PF03466)
"LysR substrate binding domain"</title>
				<polygon class="PF03466" points="760,28 769,28 781,40 781,40 769,52 760,52" stroke-linejoin="round" width="21" height="24" fill="rgb(55,136,195)" stroke="rgb(44,108,156)" stroke-width="1" opacity="0.75" />
			</g>
		</g>
		<g>
			<title> (BTH_II2257)
glyoxalase family protein superfamily</title>
			<polygon class=" (BTH_II2257)
glyoxalase family protein superfamily" points="785,40 791,10 791,70" fill="rgb(255,255,255)" fill-opacity="1.0" stroke="rgb(0,0,0)" stroke-width="2"  />
		</g>
		<g>
			<title> (BTH_II2258)
GtrA-like protein family</title>
			<polygon class=" (BTH_II2258)
GtrA-like protein family" points="796,40 808,10 808,70" fill="rgb(255,255,255)" fill-opacity="1.0" stroke="rgb(0,0,0)" stroke-width="2"  />
			<g>
				<title>GtrA (PF04138)
"GtrA-like protein"</title>
				<polygon class="PF04138" points="799,40 804,28 807,28 807,52 804,52" stroke-linejoin="round" width="11" height="24" fill="rgb(72,221,86)" stroke="rgb(57,176,68)" stroke-width="1" opacity="0.75" />
			</g>
		</g>
		<g>
			<title> (BTH_II2259)
Generic methyltransferase</title>
			<polygon class=" (BTH_II2259)
Generic methyltransferase" points="809,40 833,10 833,70" fill="rgb(255,255,255)" fill-opacity="1.0" stroke="rgb(0,0,0)" stroke-width="2"  />
			<g>
				<title>Methyltransf_23 (PF13489)
"Methyltransferase domain"</title>
				<polygon class="PF13489" points="816,36 823,28 832,28 832,52 823,52 816,44" stroke-linejoin="round" width="16" height="24" fill="rgb(188,189,66)" stroke="rgb(150,151,52)" stroke-width="1" opacity="0.75" />
			</g>
		</g>
		<g>
			<title> (BTH_II2260)
Bactoprenol glucosyl transferase</title>
			<polygon class=" (BTH_II2260)
Bactoprenol glucosyl transferase" points="869,25 864,25 864,10 834,40 864,70 864,55 869,55" fill="rgb(255,255,255)" fill-opacity="1.0" stroke="rgb(0,0,0)" stroke-width="2"  />
			<g>
				<title>Glycos_transf_2 (PF00535)
"Glycosyl transferase family 2"</title>
				<rect class="PF00535" x="851" y="28" stroke-linejoin="round" width="16" height="24" fill="rgb(224,122,96)" stroke="rgb(179,97,76)" stroke-width="1" opacity="0.75" />
			</g>
		</g>
		<g>
			<title> (BTH_II2261)
membrane protein, putative</title>
			<polygon class=" (BTH_II2261)
membrane protein, putative" points="916,25 899,25 899,10 869,40 899,70 899,55 916,55" fill="rgb(255,255,255)" fill-opacity="1.0" stroke="rgb(0,0,0)" stroke-width="2"  />
			<g>
				<title>GT87 (PF09594)
"Glycosyltransferase family 87"</title>
				<polygon class="PF09594" points="882,31 885,28 904,28 904,52 885,52 882,49" stroke-linejoin="round" width="22" height="24" fill="rgb(110,68,183)" stroke="rgb(87,54,146)" stroke-width="1" opacity="0.75" />
			</g>
		</g>
		<g>
			<title> (BTH_II2262)
membrane protein, putative</title>
			<polygon class=" (BTH_II2262)
membrane protein, putative" points="958,25 947,25 947,10 917,40 947,70 947,55 958,55" fill="rgb(255,255,255)" fill-opacity="1.0" stroke="rgb(0,0,0)" stroke-width="2"  />
			<g>
				<title>GT87 (PF09594)
"Glycosyltransferase family 87"</title>
				<polygon class="PF09594" points="925,36 933,28 948,28 948,52 933,52 925,44" stroke-linejoin="round" width="23" height="24" fill="rgb(110,68,183)" stroke="rgb(87,54,146)" stroke-width="1" opacity="0.75" />
			</g>
		</g>
		<g>
			<title> (BTH_II2263)
PilA-related protein</title>
			<polygon class=" (BTH_II2263)
PilA-related protein" points="995,10 1000,40 995,70" fill="rgb(255,255,255)" fill-opacity="1.0" stroke="rgb(0,0,0)" stroke-width="2"  />
			<g>
				<title>Flp_Fap (PF04964)
"Flp/Fap pilin component"</title>
				<polygon class="PF04964" points="996,32 997,40 996,48" stroke-linejoin="round" width="4" height="24" fill="rgb(90,199,208)" stroke="rgb(72,159,166)" stroke-width="1" opacity="0.75" />
			</g>
		</g>
		<g>
			<title> (BTH_II2264)
Flp/Fap pilin component superfamily</title>
			<polygon class=" (BTH_II2264)
Flp/Fap pilin component superfamily" points="1004,10 1011,40 1004,70" fill="rgb(255,255,255)" fill-opacity="1.0" stroke="rgb(0,0,0)" stroke-width="2"  />
			<g>
				<title>Flp_Fap (PF04964)
"Flp/Fap pilin component"</title>
				<polygon class="PF04964" points="1006,31 1008,40 1006,49" stroke-linejoin="round" width="4" height="24" fill="rgb(90,199,208)" stroke="rgb(72,159,166)" stroke-width="1" opacity="0.75" />
			</g>
		</g>
	</g>
</svg>
