<svg version="1.1" baseProfile="full" xmlns="http://www.w3.org/2000/svg" width="4271.966666666666" height="80">
	<g>
		<line x1="10" y1="40.0" x2="4261.966666666666" y2="40.0" style="stroke:rgb(70,70,70); stroke-width:3 "/>
		<g>
			<title>
hypothetical protein</title>
			<polygon class="
hypothetical protein" points="42,25 40,25 40,10 10,40 40,70 40,55 42,55" fill="rgb(255,255,255)" fill-opacity="1.0" stroke="rgb(0,0,0)" stroke-width="2"  />
			<g>
				<title>DUF2252 (PF10009)
"Uncharacterized protein conserved in bacteria (DUF2252)"</title>
				<polygon class="PF10009" points="14,40 26,28 36,28 36,52 26,52" stroke-linejoin="round" width="26" height="24" fill="rgb(161,58,189)" stroke="rgb(128,46,151)" stroke-width="1" opacity="0.75" />
			</g>
		</g>
		<g>
			<title>
putative integral membrane protein</title>
			<polygon class="
putative integral membrane protein" points="74,25 72,25 72,10 42,40 72,70 72,55 74,55" fill="rgb(255,255,255)" fill-opacity="1.0" stroke="rgb(0,0,0)" stroke-width="2"  />
			<g>
				<title>DUF389 (PF04087)
"Domain of unknown function (DUF389)"</title>
				<polygon class="PF04087" points="46,40 58,28 59,28 59,52 58,52" stroke-linejoin="round" width="14" height="24" fill="rgb(155,211,104)" stroke="rgb(124,168,83)" stroke-width="1" opacity="0.75" />
			</g>
		</g>
		<g>
			<title>
hypothetical protein</title>
			<polygon class="
hypothetical protein" points="79,10 88,40 79,70" fill="rgb(255,255,255)" fill-opacity="1.0" stroke="rgb(0,0,0)" stroke-width="2"  />
			<g>
				<title>DUF6011 (PF19474)
"Family of unknown function (DUF6011)"</title>
				<polygon class="PF19474" points="83,32 85,40 83,48" stroke-linejoin="round" width="3" height="24" fill="rgb(99,108,212)" stroke="rgb(79,86,169)" stroke-width="1" opacity="0.75" />
			</g>
		</g>
		<g>
			<title>
putative acyl-coA thioesterase II</title>
			<polygon class="
putative acyl-coA thioesterase II" points="90,40 119,10 119,70" fill="rgb(255,255,255)" fill-opacity="1.0" stroke="rgb(0,0,0)" stroke-width="2"  />
			<g>
				<title>4HBT_3 (PF13622)
"Thioesterase-like superfamily"</title>
				<polygon class="PF13622" points="94,40 106,28 115,28 115,52 106,52" stroke-linejoin="round" width="25" height="24" fill="rgb(136,87,203)" stroke="rgb(108,69,162)" stroke-width="1" opacity="0.75" />
			</g>
		</g>
		<g>
			<title>
putative ATP-dependent helicase</title>
			<polygon class="
putative ATP-dependent helicase" points="205,25 150,25 150,10 120,40 150,70 150,55 205,55" fill="rgb(255,255,255)" fill-opacity="1.0" stroke="rgb(0,0,0)" stroke-width="2"  />
			<g>
				<title>DUF3516 (PF12029)
"Domain of unknown function (DUF3516)"</title>
				<polygon class="PF12029" points="124,40 136,28 166,28 166,52 136,52" stroke-linejoin="round" width="46" height="24" fill="rgb(138,216,72)" stroke="rgb(110,172,57)" stroke-width="1" opacity="0.75" />
			</g>
			<g>
				<title>Helicase_C (PF00271)
"Helicase conserved C-terminal domain"</title>
				<rect class="PF00271" x="167" y="28" stroke-linejoin="round" width="14" height="24" fill="rgb(104,224,158)" stroke="rgb(83,179,126)" stroke-width="1" opacity="0.75" />
			</g>
			<g>
				<title>DEAD (PF00270)
"DEAD/DEAH box helicase"</title>
				<rect class="PF00270" x="185" y="28" stroke-linejoin="round" width="15" height="24" fill="rgb(195,100,62)" stroke="rgb(156,80,49)" stroke-width="1" opacity="0.75" />
			</g>
		</g>
		<g>
			<title>
putative integral membrane protein</title>
			<polygon class="
putative integral membrane protein" points="208,10 234,40 208,70" fill="rgb(255,255,255)" fill-opacity="1.0" stroke="rgb(0,0,0)" stroke-width="2"  />
			<g>
				<title>YdjM (PF04307)
"LexA-binding, inner membrane-associated putative hydrolase"</title>
				<polygon class="PF04307" points="208,28 220,28 230,40 220,52 208,52" stroke-linejoin="round" width="25" height="24" fill="rgb(140,223,68)" stroke="rgb(112,178,54)" stroke-width="1" opacity="0.75" />
			</g>
		</g>
		<g>
			<title>
putative DNA ligase</title>
			<polygon class="
putative DNA ligase" points="238,25 259,25 259,10 289,40 259,70 259,55 238,55" fill="rgb(255,255,255)" fill-opacity="1.0" stroke="rgb(0,0,0)" stroke-width="2"  />
			<g>
				<title>DNA_ligase_A_N (PF04675)
"DNA ligase N terminus"</title>
				<rect class="PF04675" x="243" y="28" stroke-linejoin="round" width="8" height="24" fill="rgb(204,57,111)" stroke="rgb(163,45,88)" stroke-width="1" opacity="0.75" />
			</g>
			<g>
				<title>DNA_ligase_A_M (PF01068)
"ATP dependent DNA ligase domain"</title>
				<polygon class="PF01068" points="256,28 272,28 275,31 275,49 272,52 256,52" stroke-linejoin="round" width="19" height="24" fill="rgb(164,187,87)" stroke="rgb(131,149,69)" stroke-width="1" opacity="0.75" />
			</g>
			<g>
				<title>DNA_ligase_A_C (PF04679)
"ATP dependent DNA ligase C terminal region"</title>
				<polygon class="PF04679" points="278,34 284,40 278,46" stroke-linejoin="round" width="9" height="24" fill="rgb(220,176,61)" stroke="rgb(176,140,48)" stroke-width="1" opacity="0.75" />
			</g>
		</g>
		<g>
			<title>
hypothetical protein</title>
			<polygon class="
hypothetical protein" points="338,25 321,25 321,10 291,40 321,70 321,55 338,55" fill="rgb(255,255,255)" fill-opacity="1.0" stroke="rgb(0,0,0)" stroke-width="2"  />
			<g>
				<title>Pyr_redox_2 (PF07992)
"Pyridine nucleotide-disulphide oxidoreductase"</title>
				<polygon class="PF07992" points="303,32 307,28 335,28 335,52 307,52 303,48" stroke-linejoin="round" width="32" height="24" fill="rgb(83,223,167)" stroke="rgb(66,178,133)" stroke-width="1" opacity="0.75" />
			</g>
		</g>
		<g>
			<title>
hypothetical protein</title>
			<polygon class="
hypothetical protein" points="374,25 370,25 370,10 340,40 370,70 370,55 374,55" fill="rgb(255,255,255)" fill-opacity="1.0" stroke="rgb(0,0,0)" stroke-width="2"  />
			<g>
				<title>APH (PF01636)
"Phosphotransferase enzyme family"</title>
				<polygon class="PF01636" points="344,40 356,28 369,28 369,52 356,52 344,40" stroke-linejoin="round" width="25" height="24" fill="rgb(106,220,228)" stroke="rgb(84,176,182)" stroke-width="1" opacity="0.75" />
			</g>
		</g>
		<g>
			<title>
spermine synthase</title>
			<polygon class="
spermine synthase" points="384,25 404,25 404,10 434,40 404,70 404,55 384,55" fill="rgb(255,255,255)" fill-opacity="1.0" stroke="rgb(0,0,0)" stroke-width="2"  />
		</g>
		<g>
			<title>
putative ABC transporter</title>
			<polygon class="
putative ABC transporter" points="497,25 468,25 468,10 438,40 468,70 468,55 497,55" fill="rgb(255,255,255)" fill-opacity="1.0" stroke="rgb(0,0,0)" stroke-width="2"  />
			<g>
				<title>ABC_tran (PF00005)
"ABC transporter"</title>
				<polygon class="PF00005" points="445,37 454,28 459,28 459,52 454,52 445,43" stroke-linejoin="round" width="14" height="24" fill="rgb(129,201,63)" stroke="rgb(103,160,50)" stroke-width="1" opacity="0.75" />
			</g>
			<g>
				<title>ABC_membrane (PF00664)
"ABC transporter transmembrane region"</title>
				<rect class="PF00664" x="466" y="28" stroke-linejoin="round" width="27" height="24" fill="rgb(149,226,73)" stroke="rgb(119,180,58)" stroke-width="1" opacity="0.75" />
			</g>
		</g>
		<g>
			<title>
putative ABC transporter</title>
			<polygon class="
putative ABC transporter" points="560,25 528,25 528,10 498,40 528,70 528,55 560,55" fill="rgb(255,255,255)" fill-opacity="1.0" stroke="rgb(0,0,0)" stroke-width="2"  />
			<g>
				<title>ABC_tran (PF00005)
"ABC transporter"</title>
				<polygon class="PF00005" points="509,33 514,28 521,28 521,52 514,52 509,47" stroke-linejoin="round" width="12" height="24" fill="rgb(129,201,63)" stroke="rgb(103,160,50)" stroke-width="1" opacity="0.75" />
			</g>
			<g>
				<title>ABC_membrane (PF00664)
"ABC transporter transmembrane region"</title>
				<rect class="PF00664" x="530" y="28" stroke-linejoin="round" width="26" height="24" fill="rgb(149,226,73)" stroke="rgb(119,180,58)" stroke-width="1" opacity="0.75" />
			</g>
		</g>
		<g>
			<title>
putative oxidoreductase</title>
			<polygon class="
putative oxidoreductase" points="614,25 595,25 595,10 565,40 595,70 595,55 614,55" fill="rgb(255,255,255)" fill-opacity="1.0" stroke="rgb(0,0,0)" stroke-width="2"  />
			<g>
				<title>GFO_IDH_MocA (PF01408)
"Oxidoreductase family, NAD-binding Rossmann fold"</title>
				<rect class="PF01408" x="592" y="28" stroke-linejoin="round" width="12" height="24" fill="rgb(76,117,190)" stroke="rgb(60,93,152)" stroke-width="1" opacity="0.75" />
			</g>
		</g>
		<g>
			<title>
putative oxidoreductase</title>
			<polygon class="
putative oxidoreductase" points="722,25 654,25 654,10 624,40 654,70 654,55 722,55" fill="rgb(255,255,255)" fill-opacity="1.0" stroke="rgb(0,0,0)" stroke-width="2"  />
			<g>
				<title>Fer4_17 (PF13534)
"4Fe-4S dicluster domain"</title>
				<rect class="PF13534" x="658" y="28" stroke-linejoin="round" width="7" height="24" fill="rgb(92,229,73)" stroke="rgb(73,183,58)" stroke-width="1" opacity="0.75" />
			</g>
			<g>
				<title>FAD-oxidase_C (PF02913)
"FAD linked oxidases, C-terminal domain"</title>
				<rect class="PF02913" x="667" y="28" stroke-linejoin="round" width="25" height="24" fill="rgb(111,69,188)" stroke="rgb(88,55,150)" stroke-width="1" opacity="0.75" />
			</g>
			<g>
				<title>FAD_binding_4 (PF01565)
"FAD binding domain"</title>
				<rect class="PF01565" x="701" y="28" stroke-linejoin="round" width="13" height="24" fill="rgb(226,88,136)" stroke="rgb(180,70,108)" stroke-width="1" opacity="0.75" />
			</g>
		</g>
		<g>
			<title>dptR3
possible regulator</title>
			<polygon class="dptR3
possible regulator" points="724,40 740,10 740,70" fill="rgb(255,255,255)" fill-opacity="1.0" stroke="rgb(0,0,0)" stroke-width="2"  />
			<g>
				<title>MarR (PF01047)
"MarR family"</title>
				<polygon class="PF01047" points="729,36 734,28 734,28 734,52 734,52 729,44" stroke-linejoin="round" width="5" height="24" fill="rgb(60,185,86)" stroke="rgb(48,148,68)" stroke-width="1" opacity="0.75" />
			</g>
		</g>
		<g>
			<title>
putative ABC transporter</title>
			<polygon class="
putative ABC transporter" points="744,25 774,25 774,10 804,40 774,70 774,55 744,55" fill="rgb(255,255,255)" fill-opacity="1.0" stroke="rgb(0,0,0)" stroke-width="2"  />
			<g>
				<title>ABC_membrane (PF00664)
"ABC transporter transmembrane region"</title>
				<rect class="PF00664" x="747" y="28" stroke-linejoin="round" width="27" height="24" fill="rgb(149,226,73)" stroke="rgb(119,180,58)" stroke-width="1" opacity="0.75" />
			</g>
			<g>
				<title>ABC_tran (PF00005)
"ABC transporter"</title>
				<polygon class="PF00005" points="781,28 788,28 795,35 795,45 788,52 781,52" stroke-linejoin="round" width="14" height="24" fill="rgb(129,201,63)" stroke="rgb(103,160,50)" stroke-width="1" opacity="0.75" />
			</g>
		</g>
		<g>
			<title>
hypothetical protein</title>
			<polygon class="
hypothetical protein" points="808,10 828,40 808,70" fill="rgb(255,255,255)" fill-opacity="1.0" stroke="rgb(0,0,0)" stroke-width="2"  />
		</g>
		<g>
			<title>
hypothetical protein</title>
			<polygon class="
hypothetical protein" points="843,10 871,40 843,70" fill="rgb(255,255,255)" fill-opacity="1.0" stroke="rgb(0,0,0)" stroke-width="2"  />
			<g>
				<title>YceG (PF02618)
"YceG-like family"</title>
				<polygon class="PF02618" points="846,28 855,28 867,40 855,52 846,52" stroke-linejoin="round" width="24" height="24" fill="rgb(187,101,52)" stroke="rgb(149,80,41)" stroke-width="1" opacity="0.75" />
			</g>
		</g>
		<g>
			<title>
putative oxidoreductase</title>
			<polygon class="
putative oxidoreductase" points="911,25 903,25 903,10 873,40 903,70 903,55 911,55" fill="rgb(255,255,255)" fill-opacity="1.0" stroke="rgb(0,0,0)" stroke-width="2"  />
			<g>
				<title>Pyr_redox_3 (PF13738)
"Pyridine nucleotide-disulphide oxidoreductase"</title>
				<polygon class="PF13738" points="887,30 889,28 909,28 909,52 889,52 887,50" stroke-linejoin="round" width="22" height="24" fill="rgb(213,91,84)" stroke="rgb(170,72,67)" stroke-width="1" opacity="0.75" />
			</g>
		</g>
		<g>
			<title>
putative alkane sulfonate monooxygenase</title>
			<polygon class="
putative alkane sulfonate monooxygenase" points="912,40 921,10 921,70" fill="rgb(255,255,255)" fill-opacity="1.0" stroke="rgb(0,0,0)" stroke-width="2"  />
		</g>
		<g>
			<title>
hypothetical protein</title>
			<polygon class="
hypothetical protein" points="968,25 957,25 957,10 927,40 957,70 957,55 968,55" fill="rgb(255,255,255)" fill-opacity="1.0" stroke="rgb(0,0,0)" stroke-width="2"  />
			<g>
				<title>SpoIIE (PF07228)
"Stage II sporulation protein E (SpoIIE)"</title>
				<polygon class="PF07228" points="931,40 943,28 947,28 947,52 943,52" stroke-linejoin="round" width="18" height="24" fill="rgb(85,195,217)" stroke="rgb(68,155,173)" stroke-width="1" opacity="0.75" />
			</g>
		</g>
		<g>
			<title>
hypothetical protein</title>
			<polygon class="
hypothetical protein" points="1008,40 1030,10 1030,70" fill="rgb(255,255,255)" fill-opacity="1.0" stroke="rgb(0,0,0)" stroke-width="2"  />
			<g>
				<title>DUF6221 (PF19730)
"Family of unknown function (DUF6221)"</title>
				<polygon class="PF19730" points="1012,40 1020,29 1020,51" stroke-linejoin="round" width="12" height="24" fill="rgb(101,192,57)" stroke="rgb(80,153,45)" stroke-width="1" opacity="0.75" />
			</g>
		</g>
		<g>
			<title>
hypothetical protein</title>
			<polygon class="
hypothetical protein" points="1039,10 1066,40 1039,70" fill="rgb(255,255,255)" fill-opacity="1.0" stroke="rgb(0,0,0)" stroke-width="2"  />
		</g>
		<g>
			<title>
putative ABC transporter periplasmic component</title>
			<polygon class="
putative ABC transporter periplasmic component" points="1106,25 1104,25 1104,10 1074,40 1104,70 1104,55 1106,55" fill="rgb(255,255,255)" fill-opacity="1.0" stroke="rgb(0,0,0)" stroke-width="2"  />
			<g>
				<title>Peripla_BP_2 (PF01497)
"Periplasmic binding protein"</title>
				<polygon class="PF01497" points="1078,40 1090,28 1101,28 1101,52 1090,52" stroke-linejoin="round" width="25" height="24" fill="rgb(183,226,104)" stroke="rgb(146,180,83)" stroke-width="1" opacity="0.75" />
			</g>
		</g>
		<g>
			<title>
putative ABC transporter ATP-binding protein</title>
			<polygon class="
putative ABC transporter ATP-binding protein" points="1107,40 1132,10 1132,70" fill="rgb(255,255,255)" fill-opacity="1.0" stroke="rgb(0,0,0)" stroke-width="2"  />
			<g>
				<title>ABC_tran (PF00005)
"ABC transporter"</title>
				<polygon class="PF00005" points="1115,35 1121,28 1129,28 1129,52 1121,52 1115,45" stroke-linejoin="round" width="14" height="24" fill="rgb(129,201,63)" stroke="rgb(103,160,50)" stroke-width="1" opacity="0.75" />
			</g>
		</g>
		<g>
			<title>
putative ABC transporter permease</title>
			<polygon class="
putative ABC transporter permease" points="1168,25 1162,25 1162,10 1132,40 1162,70 1162,55 1168,55" fill="rgb(255,255,255)" fill-opacity="1.0" stroke="rgb(0,0,0)" stroke-width="2"  />
			<g>
				<title>FecCD (PF01032)
"FecCD transport family"</title>
				<polygon class="PF01032" points="1136,40 1148,28 1165,28 1165,52 1148,52" stroke-linejoin="round" width="33" height="24" fill="rgb(210,177,70)" stroke="rgb(168,141,56)" stroke-width="1" opacity="0.75" />
			</g>
		</g>
		<g>
			<title>
unknown</title>
			<polygon class="
unknown" points="1213,25 1202,25 1202,10 1172,40 1202,70 1202,55 1213,55" fill="rgb(255,255,255)" fill-opacity="1.0" stroke="rgb(0,0,0)" stroke-width="2"  />
			<g>
				<title>MFS_1 (PF07690)
"Major Facilitator Superfamily"</title>
				<polygon class="PF07690" points="1184,32 1188,28 1210,28 1210,52 1188,52 1184,48" stroke-linejoin="round" width="26" height="24" fill="rgb(193,224,74)" stroke="rgb(154,179,59)" stroke-width="1" opacity="0.75" />
			</g>
		</g>
		<g>
			<title>
unknown</title>
			<polygon class="
unknown" points="1214,40 1241,10 1241,70" fill="rgb(255,255,255)" fill-opacity="1.0" stroke="rgb(0,0,0)" stroke-width="2"  />
			<g>
				<title>DUF364 (PF04016)
"Putative heavy-metal chelation"</title>
				<polygon class="PF04016" points="1218,40 1227,30 1227,50" stroke-linejoin="round" width="11" height="24" fill="rgb(96,86,186)" stroke="rgb(76,68,148)" stroke-width="1" opacity="0.75" />
			</g>
		</g>
		<g>
			<title>
putative cysteine synthase</title>
			<polygon class="
putative cysteine synthase" points="1275,25 1272,25 1272,10 1242,40 1272,70 1272,55 1275,55" fill="rgb(255,255,255)" fill-opacity="1.0" stroke="rgb(0,0,0)" stroke-width="2"  />
			<g>
				<title>PALP (PF00291)
"Pyridoxal-phosphate dependent enzyme"</title>
				<polygon class="PF00291" points="1247,39 1258,28 1273,28 1273,52 1258,52 1247,41" stroke-linejoin="round" width="26" height="24" fill="rgb(180,55,145)" stroke="rgb(144,44,116)" stroke-width="1" opacity="0.75" />
			</g>
		</g>
		<g>
			<title>
hypothetical protein</title>
			<polygon class="
hypothetical protein" points="1284,25 1284,25 1284,10 1314,40 1284,70 1284,55 1284,55" fill="rgb(255,255,255)" fill-opacity="1.0" stroke="rgb(0,0,0)" stroke-width="2"  />
			<g>
				<title>GHMP_kinases_N (PF00288)
"GHMP kinases N terminal domain"</title>
				<rect class="PF00288" x="1291" y="28" stroke-linejoin="round" width="4" height="24" fill="rgb(190,54,91)" stroke="rgb(152,43,72)" stroke-width="1" opacity="0.75" />
			</g>
		</g>
		<g>
			<title>
unknown</title>
			<polygon class="
unknown" points="1325,10 1350,40 1325,70" fill="rgb(255,255,255)" fill-opacity="1.0" stroke="rgb(0,0,0)" stroke-width="2"  />
			<g>
				<title>TauD (PF02668)
"Taurine catabolism dioxygenase TauD, TfdA family"</title>
				<polygon class="PF02668" points="1326,28 1336,28 1346,40 1336,52 1326,52" stroke-linejoin="round" width="23" height="24" fill="rgb(180,79,217)" stroke="rgb(144,63,173)" stroke-width="1" opacity="0.75" />
			</g>
		</g>
		<g>
			<title>
putative ABC transporter ATP-binding protein</title>
			<polygon class="
putative ABC transporter ATP-binding protein" points="1356,40 1380,10 1380,70" fill="rgb(255,255,255)" fill-opacity="1.0" stroke="rgb(0,0,0)" stroke-width="2"  />
			<g>
				<title>ABC_tran (PF00005)
"ABC transporter"</title>
				<polygon class="PF00005" points="1363,36 1370,28 1377,28 1377,52 1370,52 1363,44" stroke-linejoin="round" width="14" height="24" fill="rgb(129,201,63)" stroke="rgb(103,160,50)" stroke-width="1" opacity="0.75" />
			</g>
		</g>
		<g>
			<title>
putative ABC transporter permease</title>
			<polygon class="
putative ABC transporter permease" points="1381,25 1383,25 1383,10 1413,40 1383,70 1383,55 1381,55" fill="rgb(255,255,255)" fill-opacity="1.0" stroke="rgb(0,0,0)" stroke-width="2"  />
			<g>
				<title>ABC-3 (PF00950)
"ABC 3 transport family"</title>
				<polygon class="PF00950" points="1381,28 1396,28 1406,38 1406,42 1396,52 1381,52" stroke-linejoin="round" width="25" height="24" fill="rgb(190,102,215)" stroke="rgb(152,81,172)" stroke-width="1" opacity="0.75" />
			</g>
		</g>
		<g>
			<title>
putative lipoprotein</title>
			<polygon class="
putative lipoprotein" points="1413,25 1422,25 1422,10 1452,40 1422,70 1422,55 1413,55" fill="rgb(255,255,255)" fill-opacity="1.0" stroke="rgb(0,0,0)" stroke-width="2"  />
		</g>
		<g>
			<title>
putative ABC transporter periplasmic component</title>
			<polygon class="
putative ABC transporter periplasmic component" points="1453,25 1455,25 1455,10 1485,40 1455,70 1455,55 1453,55" fill="rgb(255,255,255)" fill-opacity="1.0" stroke="rgb(0,0,0)" stroke-width="2"  />
			<g>
				<title>ZnuA (PF01297)
"Zinc-uptake complex component A periplasmic"</title>
				<polygon class="PF01297" points="1457,28 1468,28 1480,40 1468,52 1457,52" stroke-linejoin="round" width="27" height="24" fill="rgb(78,178,130)" stroke="rgb(62,142,104)" stroke-width="1" opacity="0.75" />
			</g>
		</g>
		<g>
			<title>
putative secreted protein</title>
			<polygon class="
putative secreted protein" points="1488,25 1498,25 1498,10 1528,40 1498,70 1498,55 1488,55" fill="rgb(255,255,255)" fill-opacity="1.0" stroke="rgb(0,0,0)" stroke-width="2"  />
		</g>
		<g>
			<title>dptP
hypothetical protein</title>
			<polygon class="dptP
hypothetical protein" points="1537,40 1557,10 1557,70" fill="rgb(255,255,255)" fill-opacity="1.0" stroke="rgb(0,0,0)" stroke-width="2"  />
			<g>
				<title>SNARE_assoc (PF09335)
"SNARE associated Golgi protein"</title>
				<polygon class="PF09335" points="1541,40 1549,28 1553,28 1553,52 1549,52 1541,40" stroke-linejoin="round" width="12" height="24" fill="rgb(145,188,82)" stroke="rgb(116,150,65)" stroke-width="1" opacity="0.75" />
			</g>
		</g>
		<g>
			<title>dptM
putative ABC transporter ATP-binding protein</title>
			<polygon class="dptM
putative ABC transporter ATP-binding protein" points="1583,25 1585,25 1585,10 1615,40 1585,70 1585,55 1583,55" fill="rgb(255,255,255)" fill-opacity="1.0" stroke="rgb(0,0,0)" stroke-width="2"  />
			<g>
				<title>ABC_tran (PF00005)
"ABC transporter"</title>
				<polygon class="PF00005" points="1585,28 1598,28 1599,29 1599,51 1598,52 1585,52" stroke-linejoin="round" width="14" height="24" fill="rgb(129,201,63)" stroke="rgb(103,160,50)" stroke-width="1" opacity="0.75" />
			</g>
		</g>
		<g>
			<title>dptN
putative ABC transporter permease</title>
			<polygon class="dptN
putative ABC transporter permease" points="1615,10 1644,40 1615,70" fill="rgb(255,255,255)" fill-opacity="1.0" stroke="rgb(0,0,0)" stroke-width="2"  />
			<g>
				<title>ABC2_membrane (PF01061)
"ABC-2 type transporter"</title>
				<polygon class="PF01061" points="1617,28 1627,28 1638,39 1638,41 1627,52 1617,52" stroke-linejoin="round" width="21" height="24" fill="rgb(139,217,106)" stroke="rgb(111,173,84)" stroke-width="1" opacity="0.75" />
			</g>
		</g>
		<g>
			<title>dptE
acyl-CoA ligase</title>
			<polygon class="dptE
acyl-CoA ligase" points="1657,25 1686,25 1686,10 1716,40 1686,70 1686,55 1657,55" fill="rgb(255,255,255)" fill-opacity="1.0" stroke="rgb(0,0,0)" stroke-width="2"  />
			<g>
				<title>AMP-binding (PF00501)
"AMP-binding enzyme"</title>
				<polygon class="PF00501" points="1658,28 1700,28 1702,30 1702,50 1700,52 1658,52" stroke-linejoin="round" width="44" height="24" fill="rgb(60,217,223)" stroke="rgb(48,173,178)" stroke-width="1" opacity="0.75" />
			</g>
		</g>
		<g>
			<title>dptF
probable acyl carrier protein</title>
			<polygon class="dptF
probable acyl carrier protein" points="1719,10 1728,40 1719,70" fill="rgb(255,255,255)" fill-opacity="1.0" stroke="rgb(0,0,0)" stroke-width="2"  />
			<g>
				<title>PP-binding (PF00550)
"Phosphopantetheine attachment site"</title>
				<polygon class="PF00550" points="1720,28 1720,28 1724,40 1720,52 1720,52" stroke-linejoin="round" width="6" height="24" fill="rgb(103,191,88)" stroke="rgb(82,152,70)" stroke-width="1" opacity="0.75" />
			</g>
		</g>
		<g>
			<title>dptA
peptide synthetase 1</title>
			<polygon class="dptA
peptide synthetase 1" points="1728,25 2281,25 2281,10 2311,40 2281,70 2281,55 1728,55" fill="rgb(255,255,255)" fill-opacity="1.0" stroke="rgb(0,0,0)" stroke-width="2"  />
			<g>
				<title>Condensation (PF00668)
"Condensation domain"</title>
				<rect class="PF00668" x="1728" y="28" stroke-linejoin="round" width="44" height="24" fill="rgb(224,184,98)" stroke="rgb(179,147,78)" stroke-width="1" opacity="0.75" />
			</g>
			<g>
				<title>AMP-binding (PF00501)
"AMP-binding enzyme"</title>
				<rect class="PF00501" x="1774" y="28" stroke-linejoin="round" width="38" height="24" fill="rgb(60,217,223)" stroke="rgb(48,173,178)" stroke-width="1" opacity="0.75" />
			</g>
			<g>
				<title>AMP-binding_C (PF13193)
"AMP-binding enzyme C-terminal domain"</title>
				<rect class="PF13193" x="1813" y="28" stroke-linejoin="round" width="7" height="24" fill="rgb(182,50,118)" stroke="rgb(145,39,94)" stroke-width="1" opacity="0.75" />
			</g>
			<g>
				<title>PP-binding (PF00550)
"Phosphopantetheine attachment site"</title>
				<rect class="PF00550" x="1823" y="28" stroke-linejoin="round" width="6" height="24" fill="rgb(103,191,88)" stroke="rgb(82,152,70)" stroke-width="1" opacity="0.75" />
			</g>
			<g>
				<title>Condensation (PF00668)
"Condensation domain"</title>
				<rect class="PF00668" x="1831" y="28" stroke-linejoin="round" width="44" height="24" fill="rgb(224,184,98)" stroke="rgb(179,147,78)" stroke-width="1" opacity="0.75" />
			</g>
			<g>
				<title>AMP-binding (PF00501)
"AMP-binding enzyme"</title>
				<rect class="PF00501" x="1878" y="28" stroke-linejoin="round" width="40" height="24" fill="rgb(60,217,223)" stroke="rgb(48,173,178)" stroke-width="1" opacity="0.75" />
			</g>
			<g>
				<title>AMP-binding_C (PF13193)
"AMP-binding enzyme C-terminal domain"</title>
				<rect class="PF13193" x="1919" y="28" stroke-linejoin="round" width="7" height="24" fill="rgb(182,50,118)" stroke="rgb(145,39,94)" stroke-width="1" opacity="0.75" />
			</g>
			<g>
				<title>PP-binding (PF00550)
"Phosphopantetheine attachment site"</title>
				<rect class="PF00550" x="1929" y="28" stroke-linejoin="round" width="6" height="24" fill="rgb(103,191,88)" stroke="rgb(82,152,70)" stroke-width="1" opacity="0.75" />
			</g>
			<g>
				<title>Condensation (PF00668)
"Condensation domain"</title>
				<rect class="PF00668" x="1939" y="28" stroke-linejoin="round" width="37" height="24" fill="rgb(224,184,98)" stroke="rgb(179,147,78)" stroke-width="1" opacity="0.75" />
			</g>
			<g>
				<title>Condensation (PF00668)
"Condensation domain"</title>
				<rect class="PF00668" x="1990" y="28" stroke-linejoin="round" width="43" height="24" fill="rgb(224,184,98)" stroke="rgb(179,147,78)" stroke-width="1" opacity="0.75" />
			</g>
			<g>
				<title>AMP-binding (PF00501)
"AMP-binding enzyme"</title>
				<rect class="PF00501" x="2036" y="28" stroke-linejoin="round" width="40" height="24" fill="rgb(60,217,223)" stroke="rgb(48,173,178)" stroke-width="1" opacity="0.75" />
			</g>
			<g>
				<title>AMP-binding_C (PF13193)
"AMP-binding enzyme C-terminal domain"</title>
				<rect class="PF13193" x="2077" y="28" stroke-linejoin="round" width="7" height="24" fill="rgb(182,50,118)" stroke="rgb(145,39,94)" stroke-width="1" opacity="0.75" />
			</g>
			<g>
				<title>PP-binding (PF00550)
"Phosphopantetheine attachment site"</title>
				<rect class="PF00550" x="2087" y="28" stroke-linejoin="round" width="6" height="24" fill="rgb(103,191,88)" stroke="rgb(82,152,70)" stroke-width="1" opacity="0.75" />
			</g>
			<g>
				<title>Condensation (PF00668)
"Condensation domain"</title>
				<rect class="PF00668" x="2095" y="28" stroke-linejoin="round" width="45" height="24" fill="rgb(224,184,98)" stroke="rgb(179,147,78)" stroke-width="1" opacity="0.75" />
			</g>
			<g>
				<title>AMP-binding (PF00501)
"AMP-binding enzyme"</title>
				<rect class="PF00501" x="2142" y="28" stroke-linejoin="round" width="40" height="24" fill="rgb(60,217,223)" stroke="rgb(48,173,178)" stroke-width="1" opacity="0.75" />
			</g>
			<g>
				<title>AMP-binding_C (PF13193)
"AMP-binding enzyme C-terminal domain"</title>
				<rect class="PF13193" x="2184" y="28" stroke-linejoin="round" width="7" height="24" fill="rgb(182,50,118)" stroke="rgb(145,39,94)" stroke-width="1" opacity="0.75" />
			</g>
			<g>
				<title>PP-binding (PF00550)
"Phosphopantetheine attachment site"</title>
				<rect class="PF00550" x="2194" y="28" stroke-linejoin="round" width="6" height="24" fill="rgb(103,191,88)" stroke="rgb(82,152,70)" stroke-width="1" opacity="0.75" />
			</g>
			<g>
				<title>Condensation (PF00668)
"Condensation domain"</title>
				<rect class="PF00668" x="2202" y="28" stroke-linejoin="round" width="45" height="24" fill="rgb(224,184,98)" stroke="rgb(179,147,78)" stroke-width="1" opacity="0.75" />
			</g>
			<g>
				<title>AMP-binding (PF00501)
"AMP-binding enzyme"</title>
				<rect class="PF00501" x="2250" y="28" stroke-linejoin="round" width="39" height="24" fill="rgb(60,217,223)" stroke="rgb(48,173,178)" stroke-width="1" opacity="0.75" />
			</g>
			<g>
				<title>AMP-binding_C (PF13193)
"AMP-binding enzyme C-terminal domain"</title>
				<polygon class="PF13193" points="2290,28 2294,28 2297,31 2297,49 2294,52 2290,52" stroke-linejoin="round" width="7" height="24" fill="rgb(182,50,118)" stroke="rgb(145,39,94)" stroke-width="1" opacity="0.75" />
			</g>
			<g>
				<title>PP-binding (PF00550)
"Phosphopantetheine attachment site"</title>
				<polygon class="PF00550" points="2300,34 2306,40 2306,40 2300,46" stroke-linejoin="round" width="6" height="24" fill="rgb(103,191,88)" stroke="rgb(82,152,70)" stroke-width="1" opacity="0.75" />
			</g>
		</g>
		<g>
			<title>dptBC
peptide synthetase 2</title>
			<polygon class="dptBC
peptide synthetase 2" points="2311,25 3014,25 3014,10 3044,40 3014,70 3014,55 2311,55" fill="rgb(255,255,255)" fill-opacity="1.0" stroke="rgb(0,0,0)" stroke-width="2"  />
			<g>
				<title>Condensation (PF00668)
"Condensation domain"</title>
				<rect class="PF00668" x="2311" y="28" stroke-linejoin="round" width="43" height="24" fill="rgb(224,184,98)" stroke="rgb(179,147,78)" stroke-width="1" opacity="0.75" />
			</g>
			<g>
				<title>AMP-binding (PF00501)
"AMP-binding enzyme"</title>
				<rect class="PF00501" x="2357" y="28" stroke-linejoin="round" width="40" height="24" fill="rgb(60,217,223)" stroke="rgb(48,173,178)" stroke-width="1" opacity="0.75" />
			</g>
			<g>
				<title>AMP-binding_C (PF13193)
"AMP-binding enzyme C-terminal domain"</title>
				<rect class="PF13193" x="2398" y="28" stroke-linejoin="round" width="7" height="24" fill="rgb(182,50,118)" stroke="rgb(145,39,94)" stroke-width="1" opacity="0.75" />
			</g>
			<g>
				<title>PP-binding (PF00550)
"Phosphopantetheine attachment site"</title>
				<rect class="PF00550" x="2408" y="28" stroke-linejoin="round" width="6" height="24" fill="rgb(103,191,88)" stroke="rgb(82,152,70)" stroke-width="1" opacity="0.75" />
			</g>
			<g>
				<title>Condensation (PF00668)
"Condensation domain"</title>
				<rect class="PF00668" x="2416" y="28" stroke-linejoin="round" width="45" height="24" fill="rgb(224,184,98)" stroke="rgb(179,147,78)" stroke-width="1" opacity="0.75" />
			</g>
			<g>
				<title>AMP-binding (PF00501)
"AMP-binding enzyme"</title>
				<rect class="PF00501" x="2464" y="28" stroke-linejoin="round" width="40" height="24" fill="rgb(60,217,223)" stroke="rgb(48,173,178)" stroke-width="1" opacity="0.75" />
			</g>
			<g>
				<title>AMP-binding_C (PF13193)
"AMP-binding enzyme C-terminal domain"</title>
				<rect class="PF13193" x="2505" y="28" stroke-linejoin="round" width="7" height="24" fill="rgb(182,50,118)" stroke="rgb(145,39,94)" stroke-width="1" opacity="0.75" />
			</g>
			<g>
				<title>PP-binding (PF00550)
"Phosphopantetheine attachment site"</title>
				<rect class="PF00550" x="2515" y="28" stroke-linejoin="round" width="6" height="24" fill="rgb(103,191,88)" stroke="rgb(82,152,70)" stroke-width="1" opacity="0.75" />
			</g>
			<g>
				<title>Condensation (PF00668)
"Condensation domain"</title>
				<rect class="PF00668" x="2523" y="28" stroke-linejoin="round" width="45" height="24" fill="rgb(224,184,98)" stroke="rgb(179,147,78)" stroke-width="1" opacity="0.75" />
			</g>
			<g>
				<title>AMP-binding (PF00501)
"AMP-binding enzyme"</title>
				<rect class="PF00501" x="2570" y="28" stroke-linejoin="round" width="39" height="24" fill="rgb(60,217,223)" stroke="rgb(48,173,178)" stroke-width="1" opacity="0.75" />
			</g>
			<g>
				<title>AMP-binding_C (PF13193)
"AMP-binding enzyme C-terminal domain"</title>
				<rect class="PF13193" x="2610" y="28" stroke-linejoin="round" width="7" height="24" fill="rgb(182,50,118)" stroke="rgb(145,39,94)" stroke-width="1" opacity="0.75" />
			</g>
			<g>
				<title>PP-binding (PF00550)
"Phosphopantetheine attachment site"</title>
				<rect class="PF00550" x="2620" y="28" stroke-linejoin="round" width="6" height="24" fill="rgb(103,191,88)" stroke="rgb(82,152,70)" stroke-width="1" opacity="0.75" />
			</g>
			<g>
				<title>Condensation (PF00668)
"Condensation domain"</title>
				<rect class="PF00668" x="2631" y="28" stroke-linejoin="round" width="45" height="24" fill="rgb(224,184,98)" stroke="rgb(179,147,78)" stroke-width="1" opacity="0.75" />
			</g>
			<g>
				<title>Condensation (PF00668)
"Condensation domain"</title>
				<rect class="PF00668" x="2678" y="28" stroke-linejoin="round" width="43" height="24" fill="rgb(224,184,98)" stroke="rgb(179,147,78)" stroke-width="1" opacity="0.75" />
			</g>
			<g>
				<title>AMP-binding (PF00501)
"AMP-binding enzyme"</title>
				<rect class="PF00501" x="2723" y="28" stroke-linejoin="round" width="40" height="24" fill="rgb(60,217,223)" stroke="rgb(48,173,178)" stroke-width="1" opacity="0.75" />
			</g>
			<g>
				<title>AMP-binding_C (PF13193)
"AMP-binding enzyme C-terminal domain"</title>
				<rect class="PF13193" x="2764" y="28" stroke-linejoin="round" width="7" height="24" fill="rgb(182,50,118)" stroke="rgb(145,39,94)" stroke-width="1" opacity="0.75" />
			</g>
			<g>
				<title>PP-binding (PF00550)
"Phosphopantetheine attachment site"</title>
				<rect class="PF00550" x="2774" y="28" stroke-linejoin="round" width="6" height="24" fill="rgb(103,191,88)" stroke="rgb(82,152,70)" stroke-width="1" opacity="0.75" />
			</g>
			<g>
				<title>Condensation (PF00668)
"Condensation domain"</title>
				<rect class="PF00668" x="2783" y="28" stroke-linejoin="round" width="45" height="24" fill="rgb(224,184,98)" stroke="rgb(179,147,78)" stroke-width="1" opacity="0.75" />
			</g>
			<g>
				<title>AMP-binding (PF00501)
"AMP-binding enzyme"</title>
				<rect class="PF00501" x="2830" y="28" stroke-linejoin="round" width="39" height="24" fill="rgb(60,217,223)" stroke="rgb(48,173,178)" stroke-width="1" opacity="0.75" />
			</g>
			<g>
				<title>AMP-binding_C (PF13193)
"AMP-binding enzyme C-terminal domain"</title>
				<rect class="PF13193" x="2870" y="28" stroke-linejoin="round" width="7" height="24" fill="rgb(182,50,118)" stroke="rgb(145,39,94)" stroke-width="1" opacity="0.75" />
			</g>
			<g>
				<title>PP-binding (PF00550)
"Phosphopantetheine attachment site"</title>
				<rect class="PF00550" x="2880" y="28" stroke-linejoin="round" width="6" height="24" fill="rgb(103,191,88)" stroke="rgb(82,152,70)" stroke-width="1" opacity="0.75" />
			</g>
			<g>
				<title>Condensation (PF00668)
"Condensation domain"</title>
				<rect class="PF00668" x="2889" y="28" stroke-linejoin="round" width="45" height="24" fill="rgb(224,184,98)" stroke="rgb(179,147,78)" stroke-width="1" opacity="0.75" />
			</g>
			<g>
				<title>AMP-binding (PF00501)
"AMP-binding enzyme"</title>
				<rect class="PF00501" x="2936" y="28" stroke-linejoin="round" width="39" height="24" fill="rgb(60,217,223)" stroke="rgb(48,173,178)" stroke-width="1" opacity="0.75" />
			</g>
			<g>
				<title>AMP-binding_C (PF13193)
"AMP-binding enzyme C-terminal domain"</title>
				<rect class="PF13193" x="2976" y="28" stroke-linejoin="round" width="7" height="24" fill="rgb(182,50,118)" stroke="rgb(145,39,94)" stroke-width="1" opacity="0.75" />
			</g>
			<g>
				<title>PP-binding (PF00550)
"Phosphopantetheine attachment site"</title>
				<rect class="PF00550" x="2986" y="28" stroke-linejoin="round" width="6" height="24" fill="rgb(103,191,88)" stroke="rgb(82,152,70)" stroke-width="1" opacity="0.75" />
			</g>
			<g>
				<title>Condensation (PF00668)
"Condensation domain"</title>
				<polygon class="PF00668" points="2997,28 3028,28 3040,40 3028,52 2997,52" stroke-linejoin="round" width="45" height="24" fill="rgb(224,184,98)" stroke="rgb(179,147,78)" stroke-width="1" opacity="0.75" />
			</g>
		</g>
		<g>
			<title>dptD
peptide synthetase 3</title>
			<polygon class="dptD
peptide synthetase 3" points="3045,25 3253,25 3253,10 3283,40 3253,70 3253,55 3045,55" fill="rgb(255,255,255)" fill-opacity="1.0" stroke="rgb(0,0,0)" stroke-width="2"  />
			<g>
				<title>Condensation (PF00668)
"Condensation domain"</title>
				<rect class="PF00668" x="3045" y="28" stroke-linejoin="round" width="44" height="24" fill="rgb(224,184,98)" stroke="rgb(179,147,78)" stroke-width="1" opacity="0.75" />
			</g>
			<g>
				<title>AMP-binding (PF00501)
"AMP-binding enzyme"</title>
				<rect class="PF00501" x="3091" y="28" stroke-linejoin="round" width="39" height="24" fill="rgb(60,217,223)" stroke="rgb(48,173,178)" stroke-width="1" opacity="0.75" />
			</g>
			<g>
				<title>AMP-binding_C (PF13193)
"AMP-binding enzyme C-terminal domain"</title>
				<rect class="PF13193" x="3132" y="28" stroke-linejoin="round" width="7" height="24" fill="rgb(182,50,118)" stroke="rgb(145,39,94)" stroke-width="1" opacity="0.75" />
			</g>
			<g>
				<title>PP-binding (PF00550)
"Phosphopantetheine attachment site"</title>
				<rect class="PF00550" x="3142" y="28" stroke-linejoin="round" width="6" height="24" fill="rgb(103,191,88)" stroke="rgb(82,152,70)" stroke-width="1" opacity="0.75" />
			</g>
			<g>
				<title>Condensation (PF00668)
"Condensation domain"</title>
				<rect class="PF00668" x="3150" y="28" stroke-linejoin="round" width="46" height="24" fill="rgb(224,184,98)" stroke="rgb(179,147,78)" stroke-width="1" opacity="0.75" />
			</g>
			<g>
				<title>AMP-binding (PF00501)
"AMP-binding enzyme"</title>
				<rect class="PF00501" x="3198" y="28" stroke-linejoin="round" width="39" height="24" fill="rgb(60,217,223)" stroke="rgb(48,173,178)" stroke-width="1" opacity="0.75" />
			</g>
			<g>
				<title>AMP-binding_C (PF13193)
"AMP-binding enzyme C-terminal domain"</title>
				<rect class="PF13193" x="3239" y="28" stroke-linejoin="round" width="7" height="24" fill="rgb(182,50,118)" stroke="rgb(145,39,94)" stroke-width="1" opacity="0.75" />
			</g>
			<g>
				<title>PP-binding (PF00550)
"Phosphopantetheine attachment site"</title>
				<rect class="PF00550" x="3249" y="28" stroke-linejoin="round" width="6" height="24" fill="rgb(103,191,88)" stroke="rgb(82,152,70)" stroke-width="1" opacity="0.75" />
			</g>
			<g>
				<title>Thioesterase (PF00975)
"Thioesterase domain"</title>
				<polygon class="PF00975" points="3258,28 3266,28 3278,40 3266,52 3258,52" stroke-linejoin="round" width="24" height="24" fill="rgb(207,80,138)" stroke="rgb(165,63,110)" stroke-width="1" opacity="0.75" />
			</g>
		</g>
		<g>
			<title>dptG
putative esterase</title>
			<polygon class="dptG
putative esterase" points="3286,10 3293,40 3286,70" fill="rgb(255,255,255)" fill-opacity="1.0" stroke="rgb(0,0,0)" stroke-width="2"  />
			<g>
				<title>MbtH (PF03621)
"MbtH-like protein"</title>
				<polygon class="PF03621" points="3286,28 3287,28 3290,40 3287,52 3286,52" stroke-linejoin="round" width="5" height="24" fill="rgb(212,165,97)" stroke="rgb(169,132,77)" stroke-width="1" opacity="0.75" />
			</g>
		</g>
		<g>
			<title>dptH
putative hydrolase</title>
			<polygon class="dptH
putative hydrolase" points="3294,10 3321,40 3294,70" fill="rgb(255,255,255)" fill-opacity="1.0" stroke="rgb(0,0,0)" stroke-width="2"  />
			<g>
				<title>Abhydrolase_6 (PF12697)
"Alpha/beta hydrolase family"</title>
				<polygon class="PF12697" points="3296,28 3305,28 3317,40 3305,52 3296,52" stroke-linejoin="round" width="23" height="24" fill="rgb(113,71,219)" stroke="rgb(90,56,175)" stroke-width="1" opacity="0.75" />
			</g>
		</g>
		<g>
			<title>dptI
hypothetical protein</title>
			<polygon class="dptI
hypothetical protein" points="3324,25 3326,25 3326,10 3356,40 3326,70 3326,55 3324,55" fill="rgb(255,255,255)" fill-opacity="1.0" stroke="rgb(0,0,0)" stroke-width="2"  />
			<g>
				<title>Methyltransf_23 (PF13489)
"Methyltransferase domain"</title>
				<polygon class="PF13489" points="3329,28 3340,28 3346,34 3346,46 3340,52 3329,52" stroke-linejoin="round" width="17" height="24" fill="rgb(188,189,66)" stroke="rgb(150,151,52)" stroke-width="1" opacity="0.75" />
			</g>
		</g>
		<g>
			<title>dptJ
putative oxidoreductase</title>
			<polygon class="dptJ
putative oxidoreductase" points="3357,10 3381,40 3357,70" fill="rgb(255,255,255)" fill-opacity="1.0" stroke="rgb(0,0,0)" stroke-width="2"  />
			<g>
				<title>Trp_dioxygenase (PF03301)
"Tryptophan 2,3-dioxygenase"</title>
				<polygon class="PF03301" points="3357,28 3368,28 3374,36 3374,44 3368,52 3357,52" stroke-linejoin="round" width="17" height="24" fill="rgb(50,195,197)" stroke="rgb(40,155,157)" stroke-width="1" opacity="0.75" />
			</g>
		</g>
		<g>
			<title>
probable phosphatase</title>
			<polygon class="
probable phosphatase" points="3440,10 3461,40 3440,70" fill="rgb(255,255,255)" fill-opacity="1.0" stroke="rgb(0,0,0)" stroke-width="2"  />
			<g>
				<title>HAD_2 (PF13419)
"Haloacid dehalogenase-like hydrolase"</title>
				<polygon class="PF13419" points="3440,28 3449,28 3457,39 3457,41 3449,52 3440,52" stroke-linejoin="round" width="17" height="24" fill="rgb(60,223,188)" stroke="rgb(48,178,150)" stroke-width="1" opacity="0.75" />
			</g>
		</g>
		<g>
			<title>
putative neutral metalloprotease</title>
			<polygon class="
putative neutral metalloprotease" points="3561,25 3496,25 3496,10 3466,40 3496,70 3496,55 3561,55" fill="rgb(255,255,255)" fill-opacity="1.0" stroke="rgb(0,0,0)" stroke-width="2"  />
			<g>
				<title>Peptidase_M4_C (PF02868)
"Thermolysin metallopeptidase, alpha-helical domain"</title>
				<rect class="PF02868" x="3500" y="28" stroke-linejoin="round" width="15" height="24" fill="rgb(184,92,211)" stroke="rgb(147,73,168)" stroke-width="1" opacity="0.75" />
			</g>
			<g>
				<title>Peptidase_M4 (PF01447)
"Thermolysin metallopeptidase, catalytic domain"</title>
				<rect class="PF01447" x="3515" y="28" stroke-linejoin="round" width="16" height="24" fill="rgb(71,102,203)" stroke="rgb(56,81,162)" stroke-width="1" opacity="0.75" />
			</g>
		</g>
		<g>
			<title>dptR1
probable regulatory protein</title>
			<polygon class="dptR1
probable regulatory protein" points="3566,25 3570,25 3570,10 3600,40 3570,70 3570,55 3566,55" fill="rgb(255,255,255)" fill-opacity="1.0" stroke="rgb(0,0,0)" stroke-width="2"  />
		</g>
		<g>
			<title>dptR2
probable transcriptional regulator</title>
			<polygon class="dptR2
probable transcriptional regulator" points="3638,25 3631,25 3631,10 3601,40 3631,70 3631,55 3638,55" fill="rgb(255,255,255)" fill-opacity="1.0" stroke="rgb(0,0,0)" stroke-width="2"  />
			<g>
				<title>Peripla_BP_3 (PF13377)
"Periplasmic binding protein-like domain"</title>
				<polygon class="PF13377" points="3605,40 3617,28 3618,28 3618,52 3617,52" stroke-linejoin="round" width="16" height="24" fill="rgb(101,208,189)" stroke="rgb(80,166,151)" stroke-width="1" opacity="0.75" />
			</g>
			<g>
				<title>HTH_DeoR (PF08220)
"DeoR-like helix-turn-helix domain"</title>
				<rect class="PF08220" x="3632" y="28" stroke-linejoin="round" width="5" height="24" fill="rgb(194,214,67)" stroke="rgb(155,171,53)" stroke-width="1" opacity="0.75" />
			</g>
		</g>
		<g>
			<title>
putative solute-binding lipoprotein</title>
			<polygon class="
putative solute-binding lipoprotein" points="3648,25 3663,25 3663,10 3693,40 3663,70 3663,55 3648,55" fill="rgb(255,255,255)" fill-opacity="1.0" stroke="rgb(0,0,0)" stroke-width="2"  />
			<g>
				<title>SBP_bac_1 (PF01547)
"Bacterial extracellular solute-binding protein"</title>
				<polygon class="PF01547" points="3653,28 3676,28 3682,34 3682,46 3676,52 3653,52" stroke-linejoin="round" width="29" height="24" fill="rgb(195,119,75)" stroke="rgb(156,95,60)" stroke-width="1" opacity="0.75" />
			</g>
		</g>
		<g>
			<title>
putative ABC transporter permease</title>
			<polygon class="
putative ABC transporter permease" points="3697,10 3723,40 3697,70" fill="rgb(255,255,255)" fill-opacity="1.0" stroke="rgb(0,0,0)" stroke-width="2"  />
			<g>
				<title>BPD_transp_1 (PF00528)
"Binding-protein-dependent transport system inner membrane component"</title>
				<polygon class="PF00528" points="3703,28 3708,28 3719,40 3708,52 3703,52" stroke-linejoin="round" width="20" height="24" fill="rgb(77,208,225)" stroke="rgb(61,166,180)" stroke-width="1" opacity="0.75" />
			</g>
		</g>
		<g>
			<title>
putative ABC transporter permease</title>
			<polygon class="
putative ABC transporter permease" points="3728,10 3754,40 3728,70" fill="rgb(255,255,255)" fill-opacity="1.0" stroke="rgb(0,0,0)" stroke-width="2"  />
			<g>
				<title>BPD_transp_1 (PF00528)
"Binding-protein-dependent transport system inner membrane component"</title>
				<polygon class="PF00528" points="3735,28 3739,28 3750,40 3739,52 3735,52" stroke-linejoin="round" width="18" height="24" fill="rgb(77,208,225)" stroke="rgb(61,166,180)" stroke-width="1" opacity="0.75" />
			</g>
		</g>
		<g>
			<title>
putative dehydrogenase</title>
			<polygon class="
putative dehydrogenase" points="3757,25 3759,25 3759,10 3789,40 3759,70 3759,55 3757,55" fill="rgb(255,255,255)" fill-opacity="1.0" stroke="rgb(0,0,0)" stroke-width="2"  />
			<g>
				<title>2-Hacid_dh_C (PF02826)
"D-isomer specific 2-hydroxyacid dehydrogenase, NAD binding domain"</title>
				<polygon class="PF02826" points="3767,28 3773,28 3784,39 3784,41 3773,52 3767,52" stroke-linejoin="round" width="17" height="24" fill="rgb(192,197,93)" stroke="rgb(153,157,74)" stroke-width="1" opacity="0.75" />
			</g>
		</g>
		<g>
			<title>
unknown</title>
			<polygon class="
unknown" points="3791,25 3828,25 3828,10 3858,40 3828,70 3828,55 3791,55" fill="rgb(255,255,255)" fill-opacity="1.0" stroke="rgb(0,0,0)" stroke-width="2"  />
		</g>
		<g>
			<title>
hypothetical protein</title>
			<polygon class="
hypothetical protein" points="3858,10 3887,40 3858,70" fill="rgb(255,255,255)" fill-opacity="1.0" stroke="rgb(0,0,0)" stroke-width="2"  />
			<g>
				<title>Polysacc_lyase (PF14099)
"Polysaccharide lyase"</title>
				<polygon class="PF14099" points="3865,28 3871,28 3883,40 3871,52 3865,52" stroke-linejoin="round" width="21" height="24" fill="rgb(194,179,93)" stroke="rgb(155,143,74)" stroke-width="1" opacity="0.75" />
			</g>
		</g>
		<g>
			<title>
unknown</title>
			<polygon class="
unknown" points="3922,25 3919,25 3919,10 3889,40 3919,70 3919,55 3922,55" fill="rgb(255,255,255)" fill-opacity="1.0" stroke="rgb(0,0,0)" stroke-width="2"  />
		</g>
		<g>
			<title>
unknown</title>
			<polygon class="
unknown" points="3932,10 3952,40 3932,70" fill="rgb(255,255,255)" fill-opacity="1.0" stroke="rgb(0,0,0)" stroke-width="2"  />
		</g>
		<g>
			<title>
probable hydrolase</title>
			<polygon class="
probable hydrolase" points="3952,25 3961,25 3961,10 3991,40 3961,70 3961,55 3952,55" fill="rgb(255,255,255)" fill-opacity="1.0" stroke="rgb(0,0,0)" stroke-width="2"  />
			<g>
				<title>Ricin_B_lectin (PF00652)
"Ricin-type beta-trefoil lectin domain"</title>
				<polygon class="PF00652" points="3978,32 3986,40 3978,48" stroke-linejoin="round" width="12" height="24" fill="rgb(109,123,228)" stroke="rgb(87,98,182)" stroke-width="1" opacity="0.75" />
			</g>
		</g>
		<g>
			<title>
hypothetical protein</title>
			<polygon class="
hypothetical protein" points="3995,25 4075,25 4075,10 4105,40 4075,70 4075,55 3995,55" fill="rgb(255,255,255)" fill-opacity="1.0" stroke="rgb(0,0,0)" stroke-width="2"  />
			<g>
				<title>Beta_helix (PF13229)
"Right handed beta helix region"</title>
				<rect class="PF13229" x="4010" y="28" stroke-linejoin="round" width="14" height="24" fill="rgb(197,72,157)" stroke="rgb(157,57,125)" stroke-width="1" opacity="0.75" />
			</g>
			<g>
				<title>Beta_helix (PF13229)
"Right handed beta helix region"</title>
				<rect class="PF13229" x="4035" y="28" stroke-linejoin="round" width="12" height="24" fill="rgb(197,72,157)" stroke="rgb(157,57,125)" stroke-width="1" opacity="0.75" />
			</g>
			<g>
				<title>AAA (PF00004)
"ATPase family associated with various cellular activities (AAA)"</title>
				<rect class="PF00004" x="4054" y="28" stroke-linejoin="round" width="13" height="24" fill="rgb(57,194,204)" stroke="rgb(45,155,163)" stroke-width="1" opacity="0.75" />
			</g>
			<g>
				<title>AAA_lid_6 (PF17866)
"AAA lid domain"</title>
				<rect class="PF17866" x="4070" y="28" stroke-linejoin="round" width="5" height="24" fill="rgb(196,89,162)" stroke="rgb(156,71,129)" stroke-width="1" opacity="0.75" />
			</g>
			<g>
				<title>AAA (PF00004)
"ATPase family associated with various cellular activities (AAA)"</title>
				<polygon class="PF00004" points="4082,28 4089,28 4095,34 4095,46 4089,52 4082,52" stroke-linejoin="round" width="13" height="24" fill="rgb(57,194,204)" stroke="rgb(45,155,163)" stroke-width="1" opacity="0.75" />
			</g>
			<g>
				<title>AAA_lid_6 (PF17866)
"AAA lid domain"</title>
				<polygon class="PF17866" points="4098,37 4101,40 4098,43" stroke-linejoin="round" width="5" height="24" fill="rgb(196,89,162)" stroke="rgb(156,71,129)" stroke-width="1" opacity="0.75" />
			</g>
		</g>
		<g>
			<title>
hypothetical protein</title>
			<polygon class="
hypothetical protein" points="4105,25 4117,25 4117,10 4147,40 4117,70 4117,55 4105,55" fill="rgb(255,255,255)" fill-opacity="1.0" stroke="rgb(0,0,0)" stroke-width="2"  />
			<g>
				<title>Peptidase_S8 (PF00082)
"Subtilase family"</title>
				<polygon class="PF00082" points="4114,28 4131,28 4139,36 4139,44 4131,52 4114,52" stroke-linejoin="round" width="25" height="24" fill="rgb(193,159,94)" stroke="rgb(154,127,75)" stroke-width="1" opacity="0.75" />
			</g>
		</g>
		<g>
			<title>
putative ATP/GTP membrane protein</title>
			<polygon class="
putative ATP/GTP membrane protein" points="4261,25 4179,25 4179,10 4149,40 4179,70 4179,55 4261,55" fill="rgb(255,255,255)" fill-opacity="1.0" stroke="rgb(0,0,0)" stroke-width="2"  />
			<g>
				<title>FtsK_SpoIIIE (PF01580)
"FtsK/SpoIIIE family"</title>
				<polygon class="PF01580" points="4161,32 4165,28 4172,28 4172,52 4165,52 4161,48" stroke-linejoin="round" width="11" height="24" fill="rgb(89,224,173)" stroke="rgb(71,179,138)" stroke-width="1" opacity="0.75" />
			</g>
			<g>
				<title>FtsK_SpoIIIE (PF01580)
"FtsK/SpoIIIE family"</title>
				<rect class="PF01580" x="4177" y="28" stroke-linejoin="round" width="25" height="24" fill="rgb(89,224,173)" stroke="rgb(71,179,138)" stroke-width="1" opacity="0.75" />
			</g>
			<g>
				<title>FtsK_SpoIIIE (PF01580)
"FtsK/SpoIIIE family"</title>
				<rect class="PF01580" x="4223" y="28" stroke-linejoin="round" width="13" height="24" fill="rgb(89,224,173)" stroke="rgb(71,179,138)" stroke-width="1" opacity="0.75" />
			</g>
		</g>
	</g>
</svg>
