<svg version="1.1" baseProfile="full" xmlns="http://www.w3.org/2000/svg" width="577.1333333333333" height="80">
	<g>
		<line x1="10" y1="40.0" x2="567.1333333333333" y2="40.0" style="stroke:rgb(70,70,70); stroke-width:3 "/>
		<g>
			<title> (SAOUHSC_00071)
lipoprotein, SirC, putative</title>
			<polygon class=" (SAOUHSC_00071)
lipoprotein, SirC, putative" points="40,25 40,25 40,10 10,40 40,70 40,55 40,55" fill="rgb(255,255,255)" fill-opacity="1.0" stroke="rgb(0,0,0)" stroke-width="2"  />
			<g>
				<title>FecCD (PF01032)
"FecCD transport family"</title>
				<polygon class="PF01032" points="14,40 26,28 39,28 39,52 26,52" stroke-linejoin="round" width="29" height="24" fill="rgb(210,177,70)" stroke="rgb(168,141,56)" stroke-width="1" opacity="0.75" />
			</g>
		</g>
		<g>
			<title> (SAOUHSC_00072)
lipoprotein, SirB, putative</title>
			<polygon class=" (SAOUHSC_00072)
lipoprotein, SirB, putative" points="76,25 73,25 73,10 43,40 73,70 73,55 76,55" fill="rgb(255,255,255)" fill-opacity="1.0" stroke="rgb(0,0,0)" stroke-width="2"  />
			<g>
				<title>FecCD (PF01032)
"FecCD transport family"</title>
				<polygon class="PF01032" points="47,40 59,28 74,28 74,52 59,52" stroke-linejoin="round" width="31" height="24" fill="rgb(210,177,70)" stroke="rgb(168,141,56)" stroke-width="1" opacity="0.75" />
			</g>
		</g>
		<g>
			<title> (SAOUHSC_00074)
periplasmic binding protein, putative</title>
			<polygon class=" (SAOUHSC_00074)
periplasmic binding protein, putative" points="109,25 106,25 106,10 76,40 106,70 106,55 109,55" fill="rgb(255,255,255)" fill-opacity="1.0" stroke="rgb(0,0,0)" stroke-width="2"  />
			<g>
				<title>Peripla_BP_2 (PF01497)
"Periplasmic binding protein"</title>
				<polygon class="PF01497" points="80,40 92,28 103,28 103,52 92,52" stroke-linejoin="round" width="24" height="24" fill="rgb(183,226,104)" stroke="rgb(146,180,83)" stroke-width="1" opacity="0.75" />
			</g>
		</g>
		<g>
			<title> (SAOUHSC_00075)
conserved hypothetical protein</title>
			<polygon class=" (SAOUHSC_00075)
conserved hypothetical protein" points="122,10 150,40 122,70" fill="rgb(255,255,255)" fill-opacity="1.0" stroke="rgb(0,0,0)" stroke-width="2"  />
			<g>
				<title>PALP (PF00291)
"Pyridoxal-phosphate dependent enzyme"</title>
				<polygon class="PF00291" points="122,28 134,28 146,40 134,52 122,52" stroke-linejoin="round" width="25" height="24" fill="rgb(180,55,145)" stroke="rgb(144,44,116)" stroke-width="1" opacity="0.75" />
			</g>
		</g>
		<g>
			<title> (SAOUHSC_00076)
ornithine cyclodeaminase, putative</title>
			<polygon class=" (SAOUHSC_00076)
ornithine cyclodeaminase, putative" points="150,25 153,25 153,10 183,40 153,70 153,55 150,55" fill="rgb(255,255,255)" fill-opacity="1.0" stroke="rgb(0,0,0)" stroke-width="2"  />
			<g>
				<title>OCD_Mu_crystall (PF02423)
"Ornithine cyclodeaminase/mu-crystallin family"</title>
				<polygon class="PF02423" points="150,28 167,28 179,40 167,52 150,52" stroke-linejoin="round" width="32" height="24" fill="rgb(221,120,93)" stroke="rgb(176,96,74)" stroke-width="1" opacity="0.75" />
			</g>
		</g>
		<g>
			<title> (SAOUHSC_00077)
conserved hypothetical protein</title>
			<polygon class=" (SAOUHSC_00077)
conserved hypothetical protein" points="184,25 212,25 212,10 242,40 212,70 212,55 184,55" fill="rgb(255,255,255)" fill-opacity="1.0" stroke="rgb(0,0,0)" stroke-width="2"  />
			<g>
				<title>IucA_IucC (PF04183)
"IucA / IucC family"</title>
				<rect class="PF04183" x="197" y="28" stroke-linejoin="round" width="24" height="24" fill="rgb(221,104,121)" stroke="rgb(176,83,96)" stroke-width="1" opacity="0.75" />
			</g>
			<g>
				<title>FhuF (PF06276)
"Ferric iron reductase FhuF-like transporter"</title>
				<polygon class="PF06276" points="223,28 226,28 238,40 226,52 223,52" stroke-linejoin="round" width="16" height="24" fill="rgb(76,151,221)" stroke="rgb(60,120,176)" stroke-width="1" opacity="0.75" />
			</g>
		</g>
		<g>
			<title> (SAOUHSC_00078)
conserved hypothetical protein</title>
			<polygon class=" (SAOUHSC_00078)
conserved hypothetical protein" points="242,25 253,25 253,10 283,40 253,70 253,55 242,55" fill="rgb(255,255,255)" fill-opacity="1.0" stroke="rgb(0,0,0)" stroke-width="2"  />
			<g>
				<title>MFS_1 (PF07690)
"Major Facilitator Superfamily"</title>
				<rect class="PF07690" x="243" y="28" stroke-linejoin="round" width="23" height="24" fill="rgb(193,224,74)" stroke="rgb(154,179,59)" stroke-width="1" opacity="0.75" />
			</g>
		</g>
		<g>
			<title> (SAOUHSC_00079)
conserved hypothetical protein</title>
			<polygon class=" (SAOUHSC_00079)
conserved hypothetical protein" points="284,25 311,25 311,10 341,40 311,70 311,55 284,55" fill="rgb(255,255,255)" fill-opacity="1.0" stroke="rgb(0,0,0)" stroke-width="2"  />
			<g>
				<title>IucA_IucC (PF04183)
"IucA / IucC family"</title>
				<rect class="PF04183" x="297" y="28" stroke-linejoin="round" width="23" height="24" fill="rgb(221,104,121)" stroke="rgb(176,83,96)" stroke-width="1" opacity="0.75" />
			</g>
			<g>
				<title>FhuF (PF06276)
"Ferric iron reductase FhuF-like transporter"</title>
				<polygon class="PF06276" points="323,28 325,28 337,40 325,52 323,52" stroke-linejoin="round" width="16" height="24" fill="rgb(76,151,221)" stroke="rgb(60,120,176)" stroke-width="1" opacity="0.75" />
			</g>
		</g>
		<g>
			<title> (SAOUHSC_00080)
conserved hypothetical protein</title>
			<polygon class=" (SAOUHSC_00080)
conserved hypothetical protein" points="339,25 370,25 370,10 400,40 370,70 370,55 339,55" fill="rgb(255,255,255)" fill-opacity="1.0" stroke="rgb(0,0,0)" stroke-width="2"  />
			<g>
				<title>IucA_IucC (PF04183)
"IucA / IucC family"</title>
				<rect class="PF04183" x="354" y="28" stroke-linejoin="round" width="24" height="24" fill="rgb(221,104,121)" stroke="rgb(176,83,96)" stroke-width="1" opacity="0.75" />
			</g>
			<g>
				<title>FhuF (PF06276)
"Ferric iron reductase FhuF-like transporter"</title>
				<polygon class="PF06276" points="381,28 384,28 396,40 384,52 381,52" stroke-linejoin="round" width="17" height="24" fill="rgb(76,151,221)" stroke="rgb(60,120,176)" stroke-width="1" opacity="0.75" />
			</g>
		</g>
		<g>
			<title> (SAOUHSC_00081)
conserved hypothetical protein</title>
			<polygon class=" (SAOUHSC_00081)
conserved hypothetical protein" points="400,10 425,40 400,70" fill="rgb(255,255,255)" fill-opacity="1.0" stroke="rgb(0,0,0)" stroke-width="2"  />
			<g>
				<title>HpcH_HpaI (PF03328)
"HpcH/HpaI aldolase/citrate lyase family"</title>
				<polygon class="PF03328" points="401,28 412,28 421,40 412,52 401,52" stroke-linejoin="round" width="22" height="24" fill="rgb(81,183,94)" stroke="rgb(64,146,75)" stroke-width="1" opacity="0.75" />
			</g>
		</g>
		<g>
			<title> (SAOUHSC_00082)
conserved hypothetical protein</title>
			<polygon class=" (SAOUHSC_00082)
conserved hypothetical protein" points="425,25 435,25 435,10 465,40 435,70 435,55 425,55" fill="rgb(255,255,255)" fill-opacity="1.0" stroke="rgb(0,0,0)" stroke-width="2"  />
			<g>
				<title>Orn_Arg_deC_N (PF02784)
"Pyridoxal-dependent decarboxylase, pyridoxal binding domain"</title>
				<polygon class="PF02784" points="427,28 448,28 451,31 451,49 448,52 427,52" stroke-linejoin="round" width="24" height="24" fill="rgb(106,204,212)" stroke="rgb(84,163,169)" stroke-width="1" opacity="0.75" />
			</g>
		</g>
		<g>
			<title> (SAOUHSC_00083)
conserved hypothetical protein</title>
			<polygon class=" (SAOUHSC_00083)
conserved hypothetical protein" points="466,10 491,40 466,70" fill="rgb(255,255,255)" fill-opacity="1.0" stroke="rgb(0,0,0)" stroke-width="2"  />
			<g>
				<title>ParBc (PF02195)
"ParB-like nuclease domain"</title>
				<rect class="PF02195" x="466" y="28" stroke-linejoin="round" width="7" height="24" fill="rgb(55,214,209)" stroke="rgb(44,171,167)" stroke-width="1" opacity="0.75" />
			</g>
		</g>
		<g>
			<title> (SAOUHSC_A00084)
hypothetical protein</title>
			<polygon class=" (SAOUHSC_A00084)
hypothetical protein" points="489,40 495,10 495,70" fill="rgb(255,255,255)" fill-opacity="1.0" stroke="rgb(0,0,0)" stroke-width="2"  />
		</g>
		<g>
			<title> (SAOUHSC_00084)
conserved hypothetical protein</title>
			<polygon class=" (SAOUHSC_00084)
conserved hypothetical protein" points="498,10 511,40 498,70" fill="rgb(255,255,255)" fill-opacity="1.0" stroke="rgb(0,0,0)" stroke-width="2"  />
		</g>
		<g>
			<title> (SAOUHSC_00085)
conserved hypothetical protein</title>
			<polygon class=" (SAOUHSC_00085)
conserved hypothetical protein" points="513,10 533,40 513,70" fill="rgb(255,255,255)" fill-opacity="1.0" stroke="rgb(0,0,0)" stroke-width="2"  />
		</g>
		<g>
			<title> (SAOUHSC_00086)
3-ketoacyl-acyl carrier protein reductase, putative</title>
			<polygon class=" (SAOUHSC_00086)
3-ketoacyl-acyl carrier protein reductase, putative" points="541,10 566,40 541,70" fill="rgb(255,255,255)" fill-opacity="1.0" stroke="rgb(0,0,0)" stroke-width="2"  />
			<g>
				<title>adh_short_C2 (PF13561)
"Enoyl-(Acyl carrier protein) reductase"</title>
				<polygon class="PF13561" points="542,28 553,28 562,40 553,52 542,52" stroke-linejoin="round" width="24" height="24" fill="rgb(73,205,127)" stroke="rgb(58,164,101)" stroke-width="1" opacity="0.75" />
			</g>
		</g>
	</g>
</svg>
