<svg version="1.1" baseProfile="full" xmlns="http://www.w3.org/2000/svg" width="1393.8333333333333" height="80">
	<g>
		<line x1="10" y1="40.0" x2="1383.8333333333333" y2="40.0" style="stroke:rgb(70,70,70); stroke-width:3 "/>
		<g>
			<title> (OO60_RS14030)
3-dehydroquinate dehydratase</title>
			<polygon class=" (OO60_RS14030)
3-dehydroquinate dehydratase" points="10,40 25,10 25,70" fill="rgb(255,255,255)" fill-opacity="1.0" stroke="rgb(0,0,0)" stroke-width="2"  />
			<g>
				<title>DHquinase_II (PF01220)
"Dehydroquinase class II"</title>
				<polygon class="PF01220" points="13,40 19,28 24,28 24,52 19,52" stroke-linejoin="round" width="13" height="24" fill="rgb(130,67,203)" stroke="rgb(103,53,162)" stroke-width="1" opacity="0.75" />
			</g>
		</g>
		<g>
			<title> (OO60_RS14035)
cytochrome P450</title>
			<polygon class=" (OO60_RS14035)
cytochrome P450" points="33,25 45,25 45,10 75,40 45,70 45,55 33,55" fill="rgb(255,255,255)" fill-opacity="1.0" stroke="rgb(0,0,0)" stroke-width="2"  />
			<g>
				<title>p450 (PF00067)
"Cytochrome P450"</title>
				<polygon class="PF00067" points="38,28 58,28 70,40 58,52 38,52" stroke-linejoin="round" width="36" height="24" fill="rgb(85,216,107)" stroke="rgb(68,172,85)" stroke-width="1" opacity="0.75" />
			</g>
		</g>
		<g>
			<title> (OO60_RS14040)
transketolase</title>
			<polygon class=" (OO60_RS14040)
transketolase" points="107,25 107,25 107,10 77,40 107,70 107,55 107,55" fill="rgb(255,255,255)" fill-opacity="1.0" stroke="rgb(0,0,0)" stroke-width="2"  />
			<g>
				<title>Transket_pyr (PF02779)
"Transketolase, pyrimidine binding domain"</title>
				<polygon class="PF02779" points="90,31 93,28 106,28 106,52 93,52 90,49" stroke-linejoin="round" width="16" height="24" fill="rgb(189,186,84)" stroke="rgb(151,148,67)" stroke-width="1" opacity="0.75" />
			</g>
		</g>
		<g>
			<title> (OO60_RS14045)
transketolase</title>
			<polygon class=" (OO60_RS14045)
transketolase" points="107,40 130,10 130,70" fill="rgb(255,255,255)" fill-opacity="1.0" stroke="rgb(0,0,0)" stroke-width="2"  />
			<g>
				<title>Transketolase_N (PF00456)
"Transketolase, thiamine diphosphate binding domain"</title>
				<polygon class="PF00456" points="111,40 120,28 127,28 127,52 120,52" stroke-linejoin="round" width="20" height="24" fill="rgb(74,202,214)" stroke="rgb(59,161,171)" stroke-width="1" opacity="0.75" />
			</g>
		</g>
		<g>
			<title> (OO60_RS14050)
cytochrome P450</title>
			<polygon class=" (OO60_RS14050)
cytochrome P450" points="137,25 149,25 149,10 179,40 149,70 149,55 137,55" fill="rgb(255,255,255)" fill-opacity="1.0" stroke="rgb(0,0,0)" stroke-width="2"  />
			<g>
				<title>p450 (PF00067)
"Cytochrome P450"</title>
				<polygon class="PF00067" points="157,28 163,28 165,30 165,50 163,52 157,52" stroke-linejoin="round" width="8" height="24" fill="rgb(85,216,107)" stroke="rgb(68,172,85)" stroke-width="1" opacity="0.75" />
			</g>
			<g>
				<title>p450 (PF00067)
"Cytochrome P450"</title>
				<polygon class="PF00067" points="165,30 175,40 165,50" stroke-linejoin="round" width="12" height="24" fill="rgb(85,216,107)" stroke="rgb(68,172,85)" stroke-width="1" opacity="0.75" />
			</g>
		</g>
		<g>
			<title> (OO60_RS14055)
thioesterase</title>
			<polygon class=" (OO60_RS14055)
thioesterase" points="181,10 205,40 181,70" fill="rgb(255,255,255)" fill-opacity="1.0" stroke="rgb(0,0,0)" stroke-width="2"  />
			<g>
				<title>Thioesterase (PF00975)
"Thioesterase domain"</title>
				<polygon class="PF00975" points="182,28 192,28 201,40 192,52 182,52" stroke-linejoin="round" width="22" height="24" fill="rgb(207,80,138)" stroke="rgb(165,63,110)" stroke-width="1" opacity="0.75" />
			</g>
		</g>
		<g>
			<title> (OO60_RS14060)
acyltransferase</title>
			<polygon class=" (OO60_RS14060)
acyltransferase" points="206,25 216,25 216,10 246,40 216,70 216,55 206,55" fill="rgb(255,255,255)" fill-opacity="1.0" stroke="rgb(0,0,0)" stroke-width="2"  />
			<g>
				<title>PapA_C (PF16911)
"Phthiocerol/phthiodiolone dimycocerosyl transferase C-terminus"</title>
				<polygon class="PF16911" points="233,32 241,40 233,48" stroke-linejoin="round" width="11" height="24" fill="rgb(219,98,127)" stroke="rgb(175,78,101)" stroke-width="1" opacity="0.75" />
			</g>
		</g>
		<g>
			<title> (OO60_RS14065)
bifunctional 3-(3-hydroxy-phenyl)propionate/3-hydroxycinnamic acid hydroxylase</title>
			<polygon class=" (OO60_RS14065)
bifunctional 3-(3-hydroxy-phenyl)propionate/3-hydroxycinnamic acid hydroxylase" points="246,25 264,25 264,10 294,40 264,70 264,55 246,55" fill="rgb(255,255,255)" fill-opacity="1.0" stroke="rgb(0,0,0)" stroke-width="2"  />
			<g>
				<title>FAD_binding_3 (PF01494)
"FAD binding domain"</title>
				<polygon class="PF01494" points="246,28 278,28 280,30 280,50 278,52 246,52" stroke-linejoin="round" width="34" height="24" fill="rgb(182,175,59)" stroke="rgb(145,140,47)" stroke-width="1" opacity="0.75" />
			</g>
		</g>
		<g>
			<title> (OO60_RS14070)
CoA transferase</title>
			<polygon class=" (OO60_RS14070)
CoA transferase" points="328,25 324,25 324,10 294,40 324,70 324,55 328,55" fill="rgb(255,255,255)" fill-opacity="1.0" stroke="rgb(0,0,0)" stroke-width="2"  />
			<g>
				<title>CoA_transf_3 (PF02515)
"CoA-transferase family III"</title>
				<polygon class="PF02515" points="298,40 310,28 327,28 327,52 310,52" stroke-linejoin="round" width="33" height="24" fill="rgb(226,102,90)" stroke="rgb(180,81,72)" stroke-width="1" opacity="0.75" />
			</g>
		</g>
		<g>
			<title> (OO60_RS14075)
cobalamin B12-binding domain-containing protein</title>
			<polygon class=" (OO60_RS14075)
cobalamin B12-binding domain-containing protein" points="329,40 342,10 342,70" fill="rgb(255,255,255)" fill-opacity="1.0" stroke="rgb(0,0,0)" stroke-width="2"  />
			<g>
				<title>B12-binding (PF02310)
"B12 binding domain"</title>
				<polygon class="PF02310" points="332,40 337,28 341,28 341,52 337,52" stroke-linejoin="round" width="11" height="24" fill="rgb(145,190,60)" stroke="rgb(115,152,48)" stroke-width="1" opacity="0.75" />
			</g>
		</g>
		<g>
			<title> (OO60_RS14080)
methylmalonyl-CoA mutase</title>
			<polygon class=" (OO60_RS14080)
methylmalonyl-CoA mutase" points="394,25 372,25 372,10 342,40 372,70 372,55 394,55" fill="rgb(255,255,255)" fill-opacity="1.0" stroke="rgb(0,0,0)" stroke-width="2"  />
			<g>
				<title>MM_CoA_mutase (PF01642)
"Methylmalonyl-CoA mutase"</title>
				<polygon class="PF01642" points="346,40 358,28 393,28 393,52 358,52" stroke-linejoin="round" width="51" height="24" fill="rgb(67,86,223)" stroke="rgb(53,68,178)" stroke-width="1" opacity="0.75" />
			</g>
		</g>
		<g>
			<title> (OO60_RS14085)
ABC transporter ATP-binding protein</title>
			<polygon class=" (OO60_RS14085)
ABC transporter ATP-binding protein" points="456,25 427,25 427,10 397,40 427,70 427,55 456,55" fill="rgb(255,255,255)" fill-opacity="1.0" stroke="rgb(0,0,0)" stroke-width="2"  />
			<g>
				<title>ABC_tran (PF00005)
"ABC transporter"</title>
				<polygon class="PF00005" points="405,36 413,28 419,28 419,52 413,52 405,44" stroke-linejoin="round" width="14" height="24" fill="rgb(129,201,63)" stroke="rgb(103,160,50)" stroke-width="1" opacity="0.75" />
			</g>
			<g>
				<title>ABC_membrane (PF00664)
"ABC transporter transmembrane region"</title>
				<rect class="PF00664" x="426" y="28" stroke-linejoin="round" width="27" height="24" fill="rgb(149,226,73)" stroke="rgb(119,180,58)" stroke-width="1" opacity="0.75" />
			</g>
		</g>
		<g>
			<title> (OO60_RS14090)
ABC transporter ATP-binding protein</title>
			<polygon class=" (OO60_RS14090)
ABC transporter ATP-binding protein" points="515,25 486,25 486,10 456,40 486,70 486,55 515,55" fill="rgb(255,255,255)" fill-opacity="1.0" stroke="rgb(0,0,0)" stroke-width="2"  />
			<g>
				<title>ABC_tran (PF00005)
"ABC transporter"</title>
				<polygon class="PF00005" points="463,37 472,28 477,28 477,52 472,52 463,43" stroke-linejoin="round" width="14" height="24" fill="rgb(129,201,63)" stroke="rgb(103,160,50)" stroke-width="1" opacity="0.75" />
			</g>
			<g>
				<title>ABC_membrane (PF00664)
"ABC transporter transmembrane region"</title>
				<rect class="PF00664" x="485" y="28" stroke-linejoin="round" width="27" height="24" fill="rgb(149,226,73)" stroke="rgb(119,180,58)" stroke-width="1" opacity="0.75" />
			</g>
		</g>
		<g>
			<title> (OO60_RS14095)
multicopper oxidase domain-containing protein</title>
			<polygon class=" (OO60_RS14095)
multicopper oxidase domain-containing protein" points="527,25 559,25 559,10 589,40 559,70 559,55 527,55" fill="rgb(255,255,255)" fill-opacity="1.0" stroke="rgb(0,0,0)" stroke-width="2"  />
			<g>
				<title>Cu-oxidase_3 (PF07732)
"Multicopper oxidase"</title>
				<rect class="PF07732" x="532" y="28" stroke-linejoin="round" width="5" height="24" fill="rgb(80,81,179)" stroke="rgb(63,64,143)" stroke-width="1" opacity="0.75" />
			</g>
			<g>
				<title>Cu-oxidase_3 (PF07732)
"Multicopper oxidase"</title>
				<rect class="PF07732" x="541" y="28" stroke-linejoin="round" width="7" height="24" fill="rgb(80,81,179)" stroke="rgb(63,64,143)" stroke-width="1" opacity="0.75" />
			</g>
			<g>
				<title>Cu-oxidase_2 (PF07731)
"Multicopper oxidase"</title>
				<polygon class="PF07731" points="571,28 572,28 584,40 572,52 571,52" stroke-linejoin="round" width="15" height="24" fill="rgb(183,55,192)" stroke="rgb(146,44,153)" stroke-width="1" opacity="0.75" />
			</g>
		</g>
		<g>
			<title> (OO60_RS14100)
acyl-CoA carboxylase subunit beta</title>
			<polygon class=" (OO60_RS14100)
acyl-CoA carboxylase subunit beta" points="644,25 621,25 621,10 591,40 621,70 621,55 644,55" fill="rgb(255,255,255)" fill-opacity="1.0" stroke="rgb(0,0,0)" stroke-width="2"  />
			<g>
				<title>Carboxyl_trans (PF01039)
"Carboxyl transferase domain"</title>
				<polygon class="PF01039" points="595,40 607,28 639,28 639,52 607,52" stroke-linejoin="round" width="48" height="24" fill="rgb(180,136,60)" stroke="rgb(144,108,48)" stroke-width="1" opacity="0.75" />
			</g>
		</g>
		<g>
			<title> (OO60_RS14105)
cytochrome P450</title>
			<polygon class=" (OO60_RS14105)
cytochrome P450" points="690,25 678,25 678,10 648,40 678,70 678,55 690,55" fill="rgb(255,255,255)" fill-opacity="1.0" stroke="rgb(0,0,0)" stroke-width="2"  />
			<g>
				<title>p450 (PF00067)
"Cytochrome P450"</title>
				<polygon class="PF00067" points="652,40 661,31 661,49" stroke-linejoin="round" width="13" height="24" fill="rgb(85,216,107)" stroke="rgb(68,172,85)" stroke-width="1" opacity="0.75" />
			</g>
		</g>
		<g>
			<title> (OO60_RS14110)
cytochrome P450</title>
			<polygon class=" (OO60_RS14110)
cytochrome P450" points="734,25 726,25 726,10 696,40 726,70 726,55 734,55" fill="rgb(255,255,255)" fill-opacity="1.0" stroke="rgb(0,0,0)" stroke-width="2"  />
			<g>
				<title>p450 (PF00067)
"Cytochrome P450"</title>
				<polygon class="PF00067" points="700,40 712,28 734,28 734,52 712,52" stroke-linejoin="round" width="38" height="24" fill="rgb(85,216,107)" stroke="rgb(68,172,85)" stroke-width="1" opacity="0.75" />
			</g>
		</g>
		<g>
			<title> (OO60_RS14115)
NDP-hexose 2,3-dehydratase</title>
			<polygon class=" (OO60_RS14115)
NDP-hexose 2,3-dehydratase" points="743,25 760,25 760,10 790,40 760,70 760,55 743,55" fill="rgb(255,255,255)" fill-opacity="1.0" stroke="rgb(0,0,0)" stroke-width="2"  />
			<g>
				<title>Hexose_dehydrat (PF03559)
"NDP-hexose 2,3-dehydratase"</title>
				<rect class="PF03559" x="746" y="28" stroke-linejoin="round" width="20" height="24" fill="rgb(74,201,66)" stroke="rgb(59,160,52)" stroke-width="1" opacity="0.75" />
			</g>
			<g>
				<title>Hexose_dehydrat (PF03559)
"NDP-hexose 2,3-dehydratase"</title>
				<polygon class="PF03559" points="770,28 774,28 786,40 774,52 770,52" stroke-linejoin="round" width="20" height="24" fill="rgb(74,201,66)" stroke="rgb(59,160,52)" stroke-width="1" opacity="0.75" />
			</g>
		</g>
		<g>
			<title> (OO60_RS14120)
DUF1205 domain-containing protein</title>
			<polygon class=" (OO60_RS14120)
DUF1205 domain-containing protein" points="792,25 800,25 800,10 830,40 800,70 800,55 792,55" fill="rgb(255,255,255)" fill-opacity="1.0" stroke="rgb(0,0,0)" stroke-width="2"  />
			<g>
				<title>DUF1205 (PF06722)
"Protein of unknown function (DUF1205)"</title>
				<polygon class="PF06722" points="809,28 814,28 818,32 818,48 814,52 809,52" stroke-linejoin="round" width="9" height="24" fill="rgb(200,129,88)" stroke="rgb(160,103,70)" stroke-width="1" opacity="0.75" />
			</g>
		</g>
		<g>
			<title> (OO60_RS14125)
stationary phase survival protein SurE</title>
			<polygon class=" (OO60_RS14125)
stationary phase survival protein SurE" points="831,25 833,25 833,10 863,40 833,70 833,55 831,55" fill="rgb(255,255,255)" fill-opacity="1.0" stroke="rgb(0,0,0)" stroke-width="2"  />
			<g>
				<title>SurE (PF01975)
"Survival protein SurE"</title>
				<polygon class="PF01975" points="834,28 847,28 857,38 857,42 847,52 834,52" stroke-linejoin="round" width="23" height="24" fill="rgb(55,201,204)" stroke="rgb(44,160,163)" stroke-width="1" opacity="0.75" />
			</g>
		</g>
		<g>
			<title> (OO60_RS14130)
NDP-hexose 3-O-methyltransferase</title>
			<polygon class=" (OO60_RS14130)
NDP-hexose 3-O-methyltransferase" points="866,40 891,10 891,70" fill="rgb(255,255,255)" fill-opacity="1.0" stroke="rgb(0,0,0)" stroke-width="2"  />
			<g>
				<title>TylF (PF05711)
"Macrocin-O-methyltransferase (TylF)"</title>
				<polygon class="PF05711" points="870,40 880,28 886,28 886,52 880,52" stroke-linejoin="round" width="19" height="24" fill="rgb(175,228,98)" stroke="rgb(139,182,78)" stroke-width="1" opacity="0.75" />
			</g>
		</g>
		<g>
			<title> (OO60_RS14135)
aldo/keto reductase</title>
			<polygon class=" (OO60_RS14135)
aldo/keto reductase" points="927,25 922,25 922,10 892,40 922,70 922,55 927,55" fill="rgb(255,255,255)" fill-opacity="1.0" stroke="rgb(0,0,0)" stroke-width="2"  />
			<g>
				<title>Aldo_ket_red (PF00248)
"Aldo/keto reductase family"</title>
				<polygon class="PF00248" points="896,40 908,28 922,28 922,52 908,52" stroke-linejoin="round" width="29" height="24" fill="rgb(225,205,58)" stroke="rgb(180,164,46)" stroke-width="1" opacity="0.75" />
			</g>
		</g>
		<g>
			<title> (OO60_RS14140)
NAD-dependent epimerase/dehydratase family protein</title>
			<polygon class=" (OO60_RS14140)
NAD-dependent epimerase/dehydratase family protein" points="928,40 953,10 953,70" fill="rgb(255,255,255)" fill-opacity="1.0" stroke="rgb(0,0,0)" stroke-width="2"  />
			<g>
				<title>Epimerase (PF01370)
"NAD dependent epimerase/dehydratase family"</title>
				<polygon class="PF01370" points="935,36 942,28 951,28 951,52 942,52 935,44" stroke-linejoin="round" width="16" height="24" fill="rgb(98,102,214)" stroke="rgb(78,81,171)" stroke-width="1" opacity="0.75" />
			</g>
		</g>
		<g>
			<title> (OO60_RS14145)
hypothetical protein</title>
			<polygon class=" (OO60_RS14145)
hypothetical protein" points="1059,25 984,25 984,10 954,40 984,70 984,55 1059,55" fill="rgb(255,255,255)" fill-opacity="1.0" stroke="rgb(0,0,0)" stroke-width="2"  />
			<g>
				<title>Peptidase_S41 (PF03572)
"Peptidase family S41"</title>
				<polygon class="PF03572" points="958,40 970,28 973,28 973,52 970,52 958,40" stroke-linejoin="round" width="15" height="24" fill="rgb(178,89,184)" stroke="rgb(142,71,147)" stroke-width="1" opacity="0.75" />
			</g>
			<g>
				<title>Tricorn_PDZ (PF14685)
"Tricorn protease PDZ domain"</title>
				<rect class="PF14685" x="977" y="28" stroke-linejoin="round" width="8" height="24" fill="rgb(77,138,195)" stroke="rgb(61,110,156)" stroke-width="1" opacity="0.75" />
			</g>
			<g>
				<title>Tricorn_C1 (PF14684)
"Tricorn protease C1 domain"</title>
				<rect class="PF14684" x="987" y="28" stroke-linejoin="round" width="6" height="24" fill="rgb(97,105,199)" stroke="rgb(77,83,159)" stroke-width="1" opacity="0.75" />
			</g>
		</g>
		<g>
			<title> (OO60_RS14150)
cytochrome P450</title>
			<polygon class=" (OO60_RS14150)
cytochrome P450" points="1066,25 1075,25 1075,10 1105,40 1075,70 1075,55 1066,55" fill="rgb(255,255,255)" fill-opacity="1.0" stroke="rgb(0,0,0)" stroke-width="2"  />
			<g>
				<title>p450 (PF00067)
"Cytochrome P450"</title>
				<polygon class="PF00067" points="1084,28 1089,28 1092,31 1092,49 1089,52 1084,52" stroke-linejoin="round" width="8" height="24" fill="rgb(85,216,107)" stroke="rgb(68,172,85)" stroke-width="1" opacity="0.75" />
			</g>
			<g>
				<title>p450 (PF00067)
"Cytochrome P450"</title>
				<polygon class="PF00067" points="1093,32 1101,40 1093,48" stroke-linejoin="round" width="10" height="24" fill="rgb(85,216,107)" stroke="rgb(68,172,85)" stroke-width="1" opacity="0.75" />
			</g>
		</g>
		<g>
			<title> (OO60_RS14155)
ROK family protein</title>
			<polygon class=" (OO60_RS14155)
ROK family protein" points="1106,40 1135,10 1135,70" fill="rgb(255,255,255)" fill-opacity="1.0" stroke="rgb(0,0,0)" stroke-width="2"  />
			<g>
				<title>ROK (PF00480)
"ROK family"</title>
				<polygon class="PF00480" points="1110,40 1122,28 1134,28 1134,52 1122,52" stroke-linejoin="round" width="28" height="24" fill="rgb(205,99,210)" stroke="rgb(163,79,168)" stroke-width="1" opacity="0.75" />
			</g>
		</g>
		<g>
			<title> (OO60_RS14160)
HAD-IA family hydrolase</title>
			<polygon class=" (OO60_RS14160)
HAD-IA family hydrolase" points="1135,40 1158,10 1158,70" fill="rgb(255,255,255)" fill-opacity="1.0" stroke="rgb(0,0,0)" stroke-width="2"  />
			<g>
				<title>HAD_2 (PF13419)
"Haloacid dehalogenase-like hydrolase"</title>
				<polygon class="PF13419" points="1139,40 1148,28 1155,28 1155,52 1148,52" stroke-linejoin="round" width="17" height="24" fill="rgb(60,223,188)" stroke="rgb(48,178,150)" stroke-width="1" opacity="0.75" />
			</g>
		</g>
		<g>
			<title> (OO60_RS14165)
Gfo/Idh/MocA family oxidoreductase</title>
			<polygon class=" (OO60_RS14165)
Gfo/Idh/MocA family oxidoreductase" points="1194,25 1189,25 1189,10 1159,40 1189,70 1189,55 1194,55" fill="rgb(255,255,255)" fill-opacity="1.0" stroke="rgb(0,0,0)" stroke-width="2"  />
			<g>
				<title>GFO_IDH_MocA_C (PF02894)
"Oxidoreductase family, C-terminal alpha/beta domain"</title>
				<polygon class="PF02894" points="1163,40 1175,28 1180,28 1180,52 1175,52" stroke-linejoin="round" width="21" height="24" fill="rgb(195,223,82)" stroke="rgb(155,178,65)" stroke-width="1" opacity="0.75" />
			</g>
			<g>
				<title>GFO_IDH_MocA (PF01408)
"Oxidoreductase family, NAD-binding Rossmann fold"</title>
				<rect class="PF01408" x="1182" y="28" stroke-linejoin="round" width="11" height="24" fill="rgb(76,117,190)" stroke="rgb(60,93,152)" stroke-width="1" opacity="0.75" />
			</g>
		</g>
		<g>
			<title> (OO60_RS14170)
DegT/DnrJ/EryC1/StrS family aminotransferase</title>
			<polygon class=" (OO60_RS14170)
DegT/DnrJ/EryC1/StrS family aminotransferase" points="1235,25 1227,25 1227,10 1197,40 1227,70 1227,55 1235,55" fill="rgb(255,255,255)" fill-opacity="1.0" stroke="rgb(0,0,0)" stroke-width="2"  />
			<g>
				<title>DegT_DnrJ_EryC1 (PF01041)
"DegT/DnrJ/EryC1/StrS aminotransferase family"</title>
				<polygon class="PF01041" points="1201,40 1213,28 1233,28 1233,52 1213,52" stroke-linejoin="round" width="36" height="24" fill="rgb(59,139,191)" stroke="rgb(47,111,152)" stroke-width="1" opacity="0.75" />
			</g>
		</g>
		<g>
			<title> (OO60_RS14175)
shikimate dehydrogenase</title>
			<polygon class=" (OO60_RS14175)
shikimate dehydrogenase" points="1278,25 1277,25 1277,10 1247,40 1277,70 1277,55 1278,55" fill="rgb(255,255,255)" fill-opacity="1.0" stroke="rgb(0,0,0)" stroke-width="2"  />
		</g>
		<g>
			<title> (OO60_RS14180)
phospho-2-dehydro-3-deoxyheptonate aldolase</title>
			<polygon class=" (OO60_RS14180)
phospho-2-dehydro-3-deoxyheptonate aldolase" points="1314,25 1303,25 1303,10 1273,40 1303,70 1303,55 1314,55" fill="rgb(255,255,255)" fill-opacity="1.0" stroke="rgb(0,0,0)" stroke-width="2"  />
			<g>
				<title>DAHP_synth_2 (PF01474)
"Class-II DAHP synthetase family"</title>
				<polygon class="PF01474" points="1277,40 1289,28 1295,28 1295,52 1289,52" stroke-linejoin="round" width="21" height="24" fill="rgb(126,217,84)" stroke="rgb(100,173,67)" stroke-width="1" opacity="0.75" />
			</g>
			<g>
				<title>DAHP_synth_2 (PF01474)
"Class-II DAHP synthetase family"</title>
				<rect class="PF01474" x="1295" y="28" stroke-linejoin="round" width="16" height="24" fill="rgb(126,217,84)" stroke="rgb(100,173,67)" stroke-width="1" opacity="0.75" />
			</g>
		</g>
		<g>
			<title> (OO60_RS14185)
3-dehydroquinate synthase</title>
			<polygon class=" (OO60_RS14185)
3-dehydroquinate synthase" points="1350,25 1345,25 1345,10 1315,40 1345,70 1345,55 1350,55" fill="rgb(255,255,255)" fill-opacity="1.0" stroke="rgb(0,0,0)" stroke-width="2"  />
			<g>
				<title>DHQ_synthase (PF01761)
"3-dehydroquinate synthase"</title>
				<polygon class="PF01761" points="1319,40 1331,28 1343,28 1343,52 1331,52 1319,40" stroke-linejoin="round" width="24" height="24" fill="rgb(150,62,180)" stroke="rgb(120,49,144)" stroke-width="1" opacity="0.75" />
			</g>
		</g>
		<g>
			<title> (OO60_RS14190)
hypothetical protein</title>
			<polygon class=" (OO60_RS14190)
hypothetical protein" points="1350,40 1356,10 1356,70" fill="rgb(255,255,255)" fill-opacity="1.0" stroke="rgb(0,0,0)" stroke-width="2"  />
		</g>
		<g>
			<title> (OO60_RS14195)
N-acetyltransferase/amide synthase</title>
			<polygon class=" (OO60_RS14195)
N-acetyltransferase/amide synthase" points="1357,40 1382,10 1382,70" fill="rgb(255,255,255)" fill-opacity="1.0" stroke="rgb(0,0,0)" stroke-width="2"  />
			<g>
				<title>Acetyltransf_2 (PF00797)
"N-acetyltransferase"</title>
				<polygon class="PF00797" points="1361,40 1371,28 1380,28 1380,52 1371,52" stroke-linejoin="round" width="23" height="24" fill="rgb(68,124,226)" stroke="rgb(54,99,180)" stroke-width="1" opacity="0.75" />
			</g>
		</g>
	</g>
</svg>
