<svg version="1.1" baseProfile="full" xmlns="http://www.w3.org/2000/svg" width="720.0333333333333" height="80">
	<g>
		<line x1="10" y1="40.0" x2="710.0333333333333" y2="40.0" style="stroke:rgb(70,70,70); stroke-width:3 "/>
		<g>
			<title> (g150.t1)</title>
			<polygon class=" (g150.t1)" points="23,40 31,10 31,70" fill="rgb(255,255,255)" fill-opacity="1.0" stroke="rgb(0,0,0)" stroke-width="2"  />
		</g>
		<g>
			<title> (g151.t1)</title>
			<polygon class=" (g151.t1)" points="40,40 58,10 58,70" fill="rgb(255,255,255)" fill-opacity="1.0" stroke="rgb(0,0,0)" stroke-width="2"  />
		</g>
		<g>
			<title> (g152.t1)</title>
			<polygon class=" (g152.t1)" points="103,25 98,25 98,10 68,40 98,70 98,55 103,55" fill="rgb(255,255,255)" fill-opacity="1.0" stroke="rgb(0,0,0)" stroke-width="2"  />
			<g>
				<title>GMC_oxred_C (PF05199)
"GMC oxidoreductase"</title>
				<polygon class="PF05199" points="82,30 84,28 94,28 94,52 84,52 82,50" stroke-linejoin="round" width="12" height="24" fill="rgb(186,52,106)" stroke="rgb(148,41,84)" stroke-width="1" opacity="0.75" />
			</g>
		</g>
		<g>
			<title> (g153.t1)</title>
			<polygon class=" (g153.t1)" points="146,25 137,25 137,10 107,40 137,70 137,55 146,55" fill="rgb(255,255,255)" fill-opacity="1.0" stroke="rgb(0,0,0)" stroke-width="2"  />
			<g>
				<title>GMC_oxred_N (PF00732)
"GMC oxidoreductase"</title>
				<polygon class="PF00732" points="118,33 123,28 142,28 142,52 123,52 118,47" stroke-linejoin="round" width="24" height="24" fill="rgb(180,89,214)" stroke="rgb(143,71,171)" stroke-width="1" opacity="0.75" />
			</g>
		</g>
		<g>
			<title> (g154.t1)</title>
			<polygon class=" (g154.t1)" points="159,40 169,10 169,70" fill="rgb(255,255,255)" fill-opacity="1.0" stroke="rgb(0,0,0)" stroke-width="2"  />
		</g>
		<g>
			<title> (g155.t1)</title>
			<polygon class=" (g155.t1)" points="175,10 182,40 175,70" fill="rgb(255,255,255)" fill-opacity="1.0" stroke="rgb(0,0,0)" stroke-width="2"  />
		</g>
		<g>
			<title> (g156.t1)</title>
			<polygon class=" (g156.t1)" points="268,25 227,25 227,10 197,40 227,70 227,55 268,55" fill="rgb(255,255,255)" fill-opacity="1.0" stroke="rgb(0,0,0)" stroke-width="2"  />
		</g>
		<g>
			<title> (g157.t1)</title>
			<polygon class=" (g157.t1)" points="271,10 289,40 271,70" fill="rgb(255,255,255)" fill-opacity="1.0" stroke="rgb(0,0,0)" stroke-width="2"  />
		</g>
		<g>
			<title> (g158.t1)</title>
			<polygon class=" (g158.t1)" points="386,25 320,25 320,10 290,40 320,70 320,55 386,55" fill="rgb(255,255,255)" fill-opacity="1.0" stroke="rgb(0,0,0)" stroke-width="2"  />
			<g>
				<title>Methyltransf_3 (PF01596)
"O-methyltransferase"</title>
				<rect class="PF01596" x="332" y="28" stroke-linejoin="round" width="20" height="24" fill="rgb(168,187,48)" stroke="rgb(134,149,38)" stroke-width="1" opacity="0.75" />
			</g>
			<g>
				<title>DHQ_synthase (PF01761)
"3-dehydroquinate synthase"</title>
				<rect class="PF01761" x="366" y="28" stroke-linejoin="round" width="20" height="24" fill="rgb(150,62,180)" stroke="rgb(120,49,144)" stroke-width="1" opacity="0.75" />
			</g>
		</g>
		<g>
			<title> (g159.t1)</title>
			<polygon class=" (g159.t1)" points="389,10 400,40 389,70" fill="rgb(255,255,255)" fill-opacity="1.0" stroke="rgb(0,0,0)" stroke-width="2"  />
		</g>
		<g>
			<title> (g160.t1)</title>
			<polygon class=" (g160.t1)" points="407,40 424,10 424,70" fill="rgb(255,255,255)" fill-opacity="1.0" stroke="rgb(0,0,0)" stroke-width="2"  />
		</g>
		<g>
			<title> (g161.t1)</title>
			<polygon class=" (g161.t1)" points="428,10 436,40 428,70" fill="rgb(255,255,255)" fill-opacity="1.0" stroke="rgb(0,0,0)" stroke-width="2"  />
		</g>
		<g>
			<title> (g162.t1)</title>
			<polygon class=" (g162.t1)" points="448,10 459,40 448,70" fill="rgb(255,255,255)" fill-opacity="1.0" stroke="rgb(0,0,0)" stroke-width="2"  />
		</g>
		<g>
			<title> (g163.t1)</title>
			<polygon class=" (g163.t1)" points="479,10 500,40 479,70" fill="rgb(255,255,255)" fill-opacity="1.0" stroke="rgb(0,0,0)" stroke-width="2"  />
		</g>
		<g>
			<title> (g164.t1)</title>
			<polygon class=" (g164.t1)" points="517,10 527,40 517,70" fill="rgb(255,255,255)" fill-opacity="1.0" stroke="rgb(0,0,0)" stroke-width="2"  />
		</g>
		<g>
			<title> (g165.t1)</title>
			<polygon class=" (g165.t1)" points="535,40 544,10 544,70" fill="rgb(255,255,255)" fill-opacity="1.0" stroke="rgb(0,0,0)" stroke-width="2"  />
		</g>
		<g>
			<title> (g166.t1)</title>
			<polygon class=" (g166.t1)" points="552,10 581,40 552,70" fill="rgb(255,255,255)" fill-opacity="1.0" stroke="rgb(0,0,0)" stroke-width="2"  />
		</g>
		<g>
			<title> (g167.t1)</title>
			<polygon class=" (g167.t1)" points="591,10 603,40 591,70" fill="rgb(255,255,255)" fill-opacity="1.0" stroke="rgb(0,0,0)" stroke-width="2"  />
		</g>
		<g>
			<title> (g168.t1)</title>
			<polygon class=" (g168.t1)" points="612,40 619,10 619,70" fill="rgb(255,255,255)" fill-opacity="1.0" stroke="rgb(0,0,0)" stroke-width="2"  />
		</g>
		<g>
			<title> (g169.t1)</title>
			<polygon class=" (g169.t1)" points="633,10 647,40 633,70" fill="rgb(255,255,255)" fill-opacity="1.0" stroke="rgb(0,0,0)" stroke-width="2"  />
		</g>
		<g>
			<title> (g170.t1)</title>
			<polygon class=" (g170.t1)" points="655,40 672,10 672,70" fill="rgb(255,255,255)" fill-opacity="1.0" stroke="rgb(0,0,0)" stroke-width="2"  />
		</g>
		<g>
			<title> (g171.t1)</title>
			<polygon class=" (g171.t1)" points="688,40 702,10 702,70" fill="rgb(255,255,255)" fill-opacity="1.0" stroke="rgb(0,0,0)" stroke-width="2"  />
		</g>
	</g>
</svg>
