<svg version="1.1" baseProfile="full" xmlns="http://www.w3.org/2000/svg" width="410.1666666666667" height="80">
	<g>
		<line x1="10" y1="40.0" x2="400.1666666666667" y2="40.0" style="stroke:rgb(70,70,70); stroke-width:3 "/>
		<g>
			<title> (AQI70_RS14560)
helix-turn-helix domain-containing protein</title>
			<polygon class=" (AQI70_RS14560)
helix-turn-helix domain-containing protein" points="10,10 23,40 10,70" fill="rgb(255,255,255)" fill-opacity="1.0" stroke="rgb(0,0,0)" stroke-width="2"  />
			<g>
				<title>HTH_18 (PF12833)
"Helix-turn-helix domain"</title>
				<polygon class="PF12833" points="15,28 20,40 15,52" stroke-linejoin="round" width="8" height="24" fill="rgb(216,58,224)" stroke="rgb(172,46,179)" stroke-width="1" opacity="0.75" />
			</g>
		</g>
		<g>
			<title> (AQI70_RS14565)
serine hydrolase</title>
			<polygon class=" (AQI70_RS14565)
serine hydrolase" points="66,25 55,25 55,10 25,40 55,70 55,55 66,55" fill="rgb(255,255,255)" fill-opacity="1.0" stroke="rgb(0,0,0)" stroke-width="2"  />
			<g>
				<title>Beta-lactamase (PF00144)
"Beta-lactamase"</title>
				<polygon class="PF00144" points="29,40 41,28 64,28 64,52 41,52" stroke-linejoin="round" width="38" height="24" fill="rgb(92,159,200)" stroke="rgb(73,127,160)" stroke-width="1" opacity="0.75" />
			</g>
		</g>
		<g>
			<title> (AQI70_RS14570)
hypothetical protein</title>
			<polygon class=" (AQI70_RS14570)
hypothetical protein" points="73,40 89,10 89,70" fill="rgb(255,255,255)" fill-opacity="1.0" stroke="rgb(0,0,0)" stroke-width="2"  />
		</g>
		<g>
			<title> (AQI70_RS37415)
SagB/ThcOx family dehydrogenase</title>
			<polygon class=" (AQI70_RS37415)
SagB/ThcOx family dehydrogenase" points="139,25 123,25 123,10 93,40 123,70 123,55 139,55" fill="rgb(255,255,255)" fill-opacity="1.0" stroke="rgb(0,0,0)" stroke-width="2"  />
			<g>
				<title>Nitroreductase (PF00881)
"Nitroreductase family"</title>
				<polygon class="PF00881" points="97,40 109,28 112,28 112,52 109,52" stroke-linejoin="round" width="18" height="24" fill="rgb(79,118,187)" stroke="rgb(63,94,149)" stroke-width="1" opacity="0.75" />
			</g>
		</g>
		<g>
			<title> (AQI70_RS14580)
hypothetical protein</title>
			<polygon class=" (AQI70_RS14580)
hypothetical protein" points="176,25 170,25 170,10 140,40 170,70 170,55 176,55" fill="rgb(255,255,255)" fill-opacity="1.0" stroke="rgb(0,0,0)" stroke-width="2"  />
		</g>
		<g>
			<title> (AQI70_RS14585)
hypothetical protein</title>
			<polygon class=" (AQI70_RS14585)
hypothetical protein" points="176,40 204,10 204,70" fill="rgb(255,255,255)" fill-opacity="1.0" stroke="rgb(0,0,0)" stroke-width="2"  />
		</g>
		<g>
			<title> (AQI70_RS14590)
hypothetical protein</title>
			<polygon class=" (AQI70_RS14590)
hypothetical protein" points="205,40 231,10 231,70" fill="rgb(255,255,255)" fill-opacity="1.0" stroke="rgb(0,0,0)" stroke-width="2"  />
			<g>
				<title>DUF5944 (PF19369)
"Family of unknown function (DUF5944)"</title>
				<polygon class="PF19369" points="209,40 219,28 230,28 230,52 219,52" stroke-linejoin="round" width="24" height="24" fill="rgb(83,115,191)" stroke="rgb(66,91,152)" stroke-width="1" opacity="0.75" />
			</g>
		</g>
		<g>
			<title> (AQI70_RS14595)
cytochrome P450</title>
			<polygon class=" (AQI70_RS14595)
cytochrome P450" points="278,25 261,25 261,10 231,40 261,70 261,55 278,55" fill="rgb(255,255,255)" fill-opacity="1.0" stroke="rgb(0,0,0)" stroke-width="2"  />
			<g>
				<title>p450 (PF00067)
"Cytochrome P450"</title>
				<polygon class="PF00067" points="235,40 247,28 273,28 273,52 247,52" stroke-linejoin="round" width="41" height="24" fill="rgb(85,216,107)" stroke="rgb(68,172,85)" stroke-width="1" opacity="0.75" />
			</g>
		</g>
		<g>
			<title> (AQI70_RS14600)
hypothetical protein</title>
			<polygon class=" (AQI70_RS14600)
hypothetical protein" points="357,25 340,25 340,10 310,40 340,70 340,55 357,55" fill="rgb(255,255,255)" fill-opacity="1.0" stroke="rgb(0,0,0)" stroke-width="2"  />
			<g>
				<title>YcaO (PF02624)
"YcaO cyclodehydratase, ATP-ad Mg2+-binding"</title>
				<polygon class="PF02624" points="314,40 326,28 346,28 346,52 326,52" stroke-linejoin="round" width="33" height="24" fill="rgb(76,84,185)" stroke="rgb(60,67,148)" stroke-width="1" opacity="0.75" />
			</g>
		</g>
		<g>
			<title> (AQI70_RS38515)
YM-216391 family RiPP peptide</title>
			<polygon class=" (AQI70_RS38515)
YM-216391 family RiPP peptide" points="359,40 363,10 363,70" fill="rgb(255,255,255)" fill-opacity="1.0" stroke="rgb(0,0,0)" stroke-width="2"  />
		</g>
		<g>
			<title> (AQI70_RS14605)
hypothetical protein</title>
			<polygon class=" (AQI70_RS14605)
hypothetical protein" points="399,25 397,25 397,10 367,40 397,70 397,55 399,55" fill="rgb(255,255,255)" fill-opacity="1.0" stroke="rgb(0,0,0)" stroke-width="2"  />
			<g>
				<title>Cupin_4 (PF08007)
"Cupin superfamily protein"</title>
				<polygon class="PF08007" points="371,40 383,28 387,28 387,52 383,52" stroke-linejoin="round" width="19" height="24" fill="rgb(100,90,217)" stroke="rgb(80,72,173)" stroke-width="1" opacity="0.75" />
			</g>
		</g>
	</g>
</svg>
