<svg version="1.1" baseProfile="full" xmlns="http://www.w3.org/2000/svg" width="1053.3666666666666" height="80">
	<g>
		<line x1="10" y1="40.0" x2="1043.3666666666666" y2="40.0" style="stroke:rgb(70,70,70); stroke-width:3 "/>
		<g>
			<title>nodW
cytochrome P450 oxygenase</title>
			<polygon class="nodW
cytochrome P450 oxygenase" points="126,25 96,25 96,10 66,40 96,70 96,55 126,55" fill="rgb(255,255,255)" fill-opacity="1.0" stroke="rgb(0,0,0)" stroke-width="2"  />
			<g>
				<title>p450 (PF00067)
"Cytochrome P450"</title>
				<polygon class="PF00067" points="75,35 82,28 116,28 116,52 82,52 75,45" stroke-linejoin="round" width="41" height="24" fill="rgb(85,216,107)" stroke="rgb(68,172,85)" stroke-width="1" opacity="0.75" />
			</g>
		</g>
		<g>
			<title>nodR
cytochrome P450 oxygenase</title>
			<polygon class="nodR
cytochrome P450 oxygenase" points="155,25 185,25 185,10 215,40 185,70 185,55 155,55" fill="rgb(255,255,255)" fill-opacity="1.0" stroke="rgb(0,0,0)" stroke-width="2"  />
			<g>
				<title>p450 (PF00067)
"Cytochrome P450"</title>
				<polygon class="PF00067" points="173,28 199,28 205,34 205,46 199,52 173,52" stroke-linejoin="round" width="32" height="24" fill="rgb(85,216,107)" stroke="rgb(68,172,85)" stroke-width="1" opacity="0.75" />
			</g>
		</g>
		<g>
			<title>nodX
cytochrome P450 oxygenase</title>
			<polygon class="nodX
cytochrome P450 oxygenase" points="296,25 259,25 259,10 229,40 259,70 259,55 296,55" fill="rgb(255,255,255)" fill-opacity="1.0" stroke="rgb(0,0,0)" stroke-width="2"  />
			<g>
				<title>CoA_transf_3 (PF02515)
"CoA-transferase family III"</title>
				<rect class="PF02515" x="247" y="28" stroke-linejoin="round" width="21" height="24" fill="rgb(226,102,90)" stroke="rgb(180,81,72)" stroke-width="1" opacity="0.75" />
			</g>
		</g>
		<g>
			<title>nodM
FAD-dependent oxygenase</title>
			<polygon class="nodM
FAD-dependent oxygenase" points="319,25 341,25 341,10 371,40 341,70 341,55 319,55" fill="rgb(255,255,255)" fill-opacity="1.0" stroke="rgb(0,0,0)" stroke-width="2"  />
			<g>
				<title>FAD_binding_3 (PF01494)
"FAD binding domain"</title>
				<rect class="PF01494" x="319" y="28" stroke-linejoin="round" width="18" height="24" fill="rgb(182,175,59)" stroke="rgb(145,140,47)" stroke-width="1" opacity="0.75" />
			</g>
			<g>
				<title>FAD_binding_3 (PF01494)
"FAD binding domain"</title>
				<polygon class="PF01494" points="341,28 355,28 356,29 356,51 355,52 341,52" stroke-linejoin="round" width="15" height="24" fill="rgb(182,175,59)" stroke="rgb(145,140,47)" stroke-width="1" opacity="0.75" />
			</g>
		</g>
		<g>
			<title>nodB
indole diterpene cyclase</title>
			<polygon class="nodB
indole diterpene cyclase" points="377,40 403,10 403,70" fill="rgb(255,255,255)" fill-opacity="1.0" stroke="rgb(0,0,0)" stroke-width="2"  />
		</g>
		<g>
			<title>nodO
FAD-dependent oxygenase</title>
			<polygon class="nodO
FAD-dependent oxygenase" points="431,25 451,25 451,10 481,40 451,70 451,55 431,55" fill="rgb(255,255,255)" fill-opacity="1.0" stroke="rgb(0,0,0)" stroke-width="2"  />
			<g>
				<title>FAD_binding_4 (PF01565)
"FAD binding domain"</title>
				<rect class="PF01565" x="434" y="28" stroke-linejoin="round" width="13" height="24" fill="rgb(226,88,136)" stroke="rgb(180,70,108)" stroke-width="1" opacity="0.75" />
			</g>
		</g>
		<g>
			<title>nodJ
cytochrome P450 oxygenase</title>
			<polygon class="nodJ
cytochrome P450 oxygenase" points="553,25 527,25 527,10 497,40 527,70 527,55 553,55" fill="rgb(255,255,255)" fill-opacity="1.0" stroke="rgb(0,0,0)" stroke-width="2"  />
			<g>
				<title>p450 (PF00067)
"Cytochrome P450"</title>
				<polygon class="PF00067" points="504,37 513,28 549,28 549,52 513,52 504,43" stroke-linejoin="round" width="45" height="24" fill="rgb(85,216,107)" stroke="rgb(68,172,85)" stroke-width="1" opacity="0.75" />
			</g>
		</g>
		<g>
			<title>nodC
geranylgeranyl transferase</title>
			<polygon class="nodC
geranylgeranyl transferase" points="581,25 588,25 588,10 618,40 588,70 588,55 581,55" fill="rgb(255,255,255)" fill-opacity="1.0" stroke="rgb(0,0,0)" stroke-width="2"  />
			<g>
				<title>polyprenyl_synt (PF00348)
"Polyprenyl synthetase"</title>
				<polygon class="PF00348" points="585,28 602,28 609,35 609,45 602,52 585,52" stroke-linejoin="round" width="24" height="24" fill="rgb(61,206,65)" stroke="rgb(48,164,52)" stroke-width="1" opacity="0.75" />
			</g>
		</g>
		<g>
			<title>nodY1
FAD-dependent oxygenase</title>
			<polygon class="nodY1
FAD-dependent oxygenase" points="684,25 667,25 667,10 637,40 667,70 667,55 684,55" fill="rgb(255,255,255)" fill-opacity="1.0" stroke="rgb(0,0,0)" stroke-width="2"  />
			<g>
				<title>FAD_binding_3 (PF01494)
"FAD binding domain"</title>
				<rect class="PF01494" x="657" y="28" stroke-linejoin="round" width="26" height="24" fill="rgb(182,175,59)" stroke="rgb(145,140,47)" stroke-width="1" opacity="0.75" />
			</g>
		</g>
		<g>
			<title>nodD2
prenyl transferase</title>
			<polygon class="nodD2
prenyl transferase" points="724,25 739,25 739,10 769,40 739,70 739,55 724,55" fill="rgb(255,255,255)" fill-opacity="1.0" stroke="rgb(0,0,0)" stroke-width="2"  />
			<g>
				<title>Trp_DMAT (PF11991)
"Tryptophan dimethylallyltransferase"</title>
				<polygon class="PF11991" points="726,28 753,28 762,37 762,43 753,52 726,52" stroke-linejoin="round" width="36" height="24" fill="rgb(197,197,93)" stroke="rgb(157,157,74)" stroke-width="1" opacity="0.75" />
			</g>
		</g>
		<g>
			<title>nodD1
indole diterpene biosynthesis protein</title>
			<polygon class="nodD1
indole diterpene biosynthesis protein" points="806,25 820,25 820,10 850,40 820,70 820,55 806,55" fill="rgb(255,255,255)" fill-opacity="1.0" stroke="rgb(0,0,0)" stroke-width="2"  />
			<g>
				<title>Trp_DMAT (PF11991)
"Tryptophan dimethylallyltransferase"</title>
				<polygon class="PF11991" points="808,28 834,28 844,38 844,42 834,52 808,52" stroke-linejoin="round" width="36" height="24" fill="rgb(197,197,93)" stroke="rgb(157,157,74)" stroke-width="1" opacity="0.75" />
			</g>
		</g>
		<g>
			<title>nodY2
FAD-dependent oxygenase</title>
			<polygon class="nodY2
FAD-dependent oxygenase" points="893,25 915,25 915,10 945,40 915,70 915,55 893,55" fill="rgb(255,255,255)" fill-opacity="1.0" stroke="rgb(0,0,0)" stroke-width="2"  />
			<g>
				<title>FAD_binding_2 (PF00890)
"FAD binding domain"</title>
				<rect class="PF00890" x="895" y="28" stroke-linejoin="round" width="3" height="24" fill="rgb(63,199,116)" stroke="rgb(50,159,92)" stroke-width="1" opacity="0.75" />
			</g>
			<g>
				<title>FAD_binding_3 (PF01494)
"FAD binding domain"</title>
				<polygon class="PF01494" points="902,28 928,28 932,32 932,48 928,52 902,52" stroke-linejoin="round" width="30" height="24" fill="rgb(182,175,59)" stroke="rgb(145,140,47)" stroke-width="1" opacity="0.75" />
			</g>
		</g>
		<g>
			<title>nodZ
cytochrome P450 oxygenase</title>
			<polygon class="nodZ
cytochrome P450 oxygenase" points="970,25 1001,25 1001,10 1031,40 1001,70 1001,55 970,55" fill="rgb(255,255,255)" fill-opacity="1.0" stroke="rgb(0,0,0)" stroke-width="2"  />
			<g>
				<title>p450 (PF00067)
"Cytochrome P450"</title>
				<polygon class="PF00067" points="998,28 1015,28 1018,31 1018,49 1015,52 998,52" stroke-linejoin="round" width="20" height="24" fill="rgb(85,216,107)" stroke="rgb(68,172,85)" stroke-width="1" opacity="0.75" />
			</g>
		</g>
	</g>
</svg>
