<svg version="1.1" baseProfile="full" xmlns="http://www.w3.org/2000/svg" width="2216.266666666667" height="80">
	<g>
		<line x1="10" y1="40.0" x2="2206.266666666667" y2="40.0" style="stroke:rgb(70,70,70); stroke-width:3 "/>
		<g>
			<title> (XBJ1_0746)
Insertion element iso-IS1N protein insA</title>
			<polygon class=" (XBJ1_0746)
Insertion element iso-IS1N protein insA" points="16,40 25,10 25,70" fill="rgb(255,255,255)" fill-opacity="1.0" stroke="rgb(0,0,0)" stroke-width="2"  />
			<g>
				<title>HTH_Tnp_IS1 (PF12759)
"InsA C-terminal domain"</title>
				<polygon class="PF12759" points="19,40 20,37 20,43" stroke-linejoin="round" width="4" height="24" fill="rgb(223,170,108)" stroke="rgb(178,136,86)" stroke-width="1" opacity="0.75" />
			</g>
		</g>
		<g>
			<title> (XBJ1_0747)
PA-I galactophilic lectin (PA-IL) (Galactose-binding lectin)</title>
			<polygon class=" (XBJ1_0747)
PA-I galactophilic lectin (PA-IL) (Galactose-binding lectin)" points="30,40 42,10 42,70" fill="rgb(255,255,255)" fill-opacity="1.0" stroke="rgb(0,0,0)" stroke-width="2"  />
			<g>
				<title>PA-IL (PF07828)
"PA-IL-like protein"</title>
				<polygon class="PF07828" points="33,40 38,28 42,28 42,52 38,52" stroke-linejoin="round" width="11" height="24" fill="rgb(77,183,197)" stroke="rgb(61,146,157)" stroke-width="1" opacity="0.75" />
			</g>
		</g>
		<g>
			<title> (XBJ1_0748)
Insertion element iso-IS1N protein insA</title>
			<polygon class=" (XBJ1_0748)
Insertion element iso-IS1N protein insA" points="53,10 62,40 53,70" fill="rgb(255,255,255)" fill-opacity="1.0" stroke="rgb(0,0,0)" stroke-width="2"  />
			<g>
				<title>Zn_Tnp_IS1 (PF03811)
"InsA N-terminal domain"</title>
				<polygon class="PF03811" points="53,28 55,28 56,31 56,49 55,52 53,52" stroke-linejoin="round" width="3" height="24" fill="rgb(124,89,198)" stroke="rgb(99,71,158)" stroke-width="1" opacity="0.75" />
			</g>
			<g>
				<title>HTH_Tnp_IS1 (PF12759)
"InsA C-terminal domain"</title>
				<polygon class="PF12759" points="57,34 59,40 57,46" stroke-linejoin="round" width="4" height="24" fill="rgb(223,170,108)" stroke="rgb(178,136,86)" stroke-width="1" opacity="0.75" />
			</g>
		</g>
		<g>
			<title> (XBJ1_0749)
Insertion element iso-IS1n protein insB (fragment)</title>
			<polygon class=" (XBJ1_0749)
Insertion element iso-IS1n protein insB (fragment)" points="66,10 76,40 66,70" fill="rgb(255,255,255)" fill-opacity="1.0" stroke="rgb(0,0,0)" stroke-width="2"  />
			<g>
				<title>DDE_Tnp_IS1 (PF03400)
"IS1 transposase"</title>
				<polygon class="PF03400" points="66,28 68,28 72,40 68,52 66,52" stroke-linejoin="round" width="9" height="24" fill="rgb(61,68,205)" stroke="rgb(48,54,164)" stroke-width="1" opacity="0.75" />
			</g>
		</g>
		<g>
			<title> (XBJ1_0750)
hypothetical protein</title>
			<polygon class=" (XBJ1_0750)
hypothetical protein" points="79,10 85,40 79,70" fill="rgb(255,255,255)" fill-opacity="1.0" stroke="rgb(0,0,0)" stroke-width="2"  />
			<g>
				<title>DUF6402 (PF19940)
"Family of unknown function (DUF6402)"</title>
				<polygon class="PF19940" points="79,28 79,28 82,40 79,52 79,52" stroke-linejoin="round" width="5" height="24" fill="rgb(86,213,74)" stroke="rgb(68,170,59)" stroke-width="1" opacity="0.75" />
			</g>
		</g>
		<g>
			<title> (XBJ1_0751)
transposase</title>
			<polygon class=" (XBJ1_0751)
transposase" points="89,25 92,25 92,10 122,40 92,70 92,55 89,55" fill="rgb(255,255,255)" fill-opacity="1.0" stroke="rgb(0,0,0)" stroke-width="2"  />
			<g>
				<title>DEDD_Tnp_IS110 (PF01548)
"Transposase"</title>
				<rect class="PF01548" x="89" y="28" stroke-linejoin="round" width="14" height="24" fill="rgb(59,200,207)" stroke="rgb(47,160,165)" stroke-width="1" opacity="0.75" />
			</g>
			<g>
				<title>Transposase_20 (PF02371)
"Transposase IS116/IS110/IS902 family"</title>
				<polygon class="PF02371" points="109,31 117,39 117,41 109,49" stroke-linejoin="round" width="8" height="24" fill="rgb(104,204,65)" stroke="rgb(83,163,52)" stroke-width="1" opacity="0.75" />
			</g>
		</g>
		<g>
			<title> (XBJ1_0752)
hypothetical protein</title>
			<polygon class=" (XBJ1_0752)
hypothetical protein" points="127,10 131,40 127,70" fill="rgb(255,255,255)" fill-opacity="1.0" stroke="rgb(0,0,0)" stroke-width="2"  />
		</g>
		<g>
			<title> (XBJ1_0753)
transposase</title>
			<polygon class=" (XBJ1_0753)
transposase" points="178,25 173,25 173,10 143,40 173,70 173,55 178,55" fill="rgb(255,255,255)" fill-opacity="1.0" stroke="rgb(0,0,0)" stroke-width="2"  />
			<g>
				<title>DDE_3 (PF13358)
"DDE superfamily endonuclease"</title>
				<polygon class="PF13358" points="147,40 159,28 160,28 160,52 159,52" stroke-linejoin="round" width="14" height="24" fill="rgb(50,81,198)" stroke="rgb(40,64,158)" stroke-width="1" opacity="0.75" />
			</g>
			<g>
				<title>HTH_33 (PF13592)
"Winged helix-turn helix"</title>
				<rect class="PF13592" x="162" y="28" stroke-linejoin="round" width="5" height="24" fill="rgb(178,60,202)" stroke="rgb(142,47,161)" stroke-width="1" opacity="0.75" />
			</g>
			<g>
				<title>HTH_29 (PF13551)
"Winged helix-turn helix"</title>
				<rect class="PF13551" x="169" y="28" stroke-linejoin="round" width="5" height="24" fill="rgb(163,71,225)" stroke="rgb(130,56,180)" stroke-width="1" opacity="0.75" />
			</g>
		</g>
		<g>
			<title> (XBJ1_0754)
Integrase protein for prophage CP-933I (fragment)</title>
			<polygon class=" (XBJ1_0754)
Integrase protein for prophage CP-933I (fragment)" points="192,10 201,40 192,70" fill="rgb(255,255,255)" fill-opacity="1.0" stroke="rgb(0,0,0)" stroke-width="2"  />
			<g>
				<title>Arm-DNA-bind_3 (PF13356)
"Arm DNA-binding domain"</title>
				<polygon class="PF13356" points="192,28 193,28 195,31 195,49 193,52 192,52" stroke-linejoin="round" width="3" height="24" fill="rgb(47,183,132)" stroke="rgb(37,146,105)" stroke-width="1" opacity="0.75" />
			</g>
		</g>
		<g>
			<title> (XBJ1_0755)
hypothetical protein</title>
			<polygon class=" (XBJ1_0755)
hypothetical protein" points="205,10 212,40 205,70" fill="rgb(255,255,255)" fill-opacity="1.0" stroke="rgb(0,0,0)" stroke-width="2"  />
		</g>
		<g>
			<title> (XBJ1_0756)
hypothetical protein</title>
			<polygon class=" (XBJ1_0756)
hypothetical protein" points="215,10 242,40 215,70" fill="rgb(255,255,255)" fill-opacity="1.0" stroke="rgb(0,0,0)" stroke-width="2"  />
			<g>
				<title>DUF1983 (PF09327)
"Domain of unknown function (DUF1983)"</title>
				<rect class="PF09327" x="215" y="28" stroke-linejoin="round" width="5" height="24" fill="rgb(69,86,187)" stroke="rgb(55,68,149)" stroke-width="1" opacity="0.75" />
			</g>
			<g>
				<title>DUF3672 (PF12421)
"Fibronectin type III protein"</title>
				<polygon class="PF12421" points="224,28 226,28 237,39 237,41 226,52 224,52" stroke-linejoin="round" width="13" height="24" fill="rgb(116,184,91)" stroke="rgb(92,147,72)" stroke-width="1" opacity="0.75" />
			</g>
		</g>
		<g>
			<title> (XBJ1_0757)
hypothetical protein</title>
			<polygon class=" (XBJ1_0757)
hypothetical protein" points="245,40 252,10 252,70" fill="rgb(255,255,255)" fill-opacity="1.0" stroke="rgb(0,0,0)" stroke-width="2"  />
		</g>
		<g>
			<title> (XBJ1_0758)
transposase</title>
			<polygon class=" (XBJ1_0758)
transposase" points="253,25 258,25 258,10 288,40 258,70 258,55 253,55" fill="rgb(255,255,255)" fill-opacity="1.0" stroke="rgb(0,0,0)" stroke-width="2"  />
			<g>
				<title>HTH_29 (PF13551)
"Winged helix-turn helix"</title>
				<rect class="PF13551" x="256" y="28" stroke-linejoin="round" width="5" height="24" fill="rgb(163,71,225)" stroke="rgb(130,56,180)" stroke-width="1" opacity="0.75" />
			</g>
			<g>
				<title>HTH_33 (PF13592)
"Winged helix-turn helix"</title>
				<rect class="PF13592" x="262" y="28" stroke-linejoin="round" width="5" height="24" fill="rgb(178,60,202)" stroke="rgb(142,47,161)" stroke-width="1" opacity="0.75" />
			</g>
			<g>
				<title>DDE_3 (PF13358)
"DDE superfamily endonuclease"</title>
				<polygon class="PF13358" points="269,28 271,28 283,40 283,40 271,52 269,52" stroke-linejoin="round" width="14" height="24" fill="rgb(50,81,198)" stroke="rgb(40,64,158)" stroke-width="1" opacity="0.75" />
			</g>
		</g>
		<g>
			<title> (XBJ1_0759)
hypothetical protein</title>
			<polygon class=" (XBJ1_0759)
hypothetical protein" points="286,40 296,10 296,70" fill="rgb(255,255,255)" fill-opacity="1.0" stroke="rgb(0,0,0)" stroke-width="2"  />
		</g>
		<g>
			<title>intS (XBJ1_0760)
CPS-53 (KpLE1) prophage; Sf6-like integrase</title>
			<polygon class="intS (XBJ1_0760)
CPS-53 (KpLE1) prophage; Sf6-like integrase" points="342,25 332,25 332,10 302,40 332,70 332,55 342,55" fill="rgb(255,255,255)" fill-opacity="1.0" stroke="rgb(0,0,0)" stroke-width="2"  />
			<g>
				<title>Phage_integrase (PF00589)
"Phage integrase family"</title>
				<polygon class="PF00589" points="306,40 318,28 321,28 321,52 318,52" stroke-linejoin="round" width="16" height="24" fill="rgb(91,96,195)" stroke="rgb(72,76,156)" stroke-width="1" opacity="0.75" />
			</g>
			<g>
				<title>Arm-DNA-bind_3 (PF13356)
"Arm DNA-binding domain"</title>
				<rect class="PF13356" x="333" y="28" stroke-linejoin="round" width="8" height="24" fill="rgb(47,183,132)" stroke="rgb(37,146,105)" stroke-width="1" opacity="0.75" />
			</g>
		</g>
		<g>
			<title>yccK (XBJ1_0761)
putative anaerobic sulfite reductase gamma subunit</title>
			<polygon class="yccK (XBJ1_0761)
putative anaerobic sulfite reductase gamma subunit" points="357,10 368,40 357,70" fill="rgb(255,255,255)" fill-opacity="1.0" stroke="rgb(0,0,0)" stroke-width="2"  />
			<g>
				<title>DsrC (PF04358)
"DsrC like protein"</title>
				<polygon class="PF04358" points="357,28 360,28 364,40 360,52 357,52" stroke-linejoin="round" width="10" height="24" fill="rgb(218,80,84)" stroke="rgb(174,64,67)" stroke-width="1" opacity="0.75" />
			</g>
		</g>
		<g>
			<title>yccX (XBJ1_0762)
putative acylphosphatase</title>
			<polygon class="yccX (XBJ1_0762)
putative acylphosphatase" points="369,40 378,10 378,70" fill="rgb(255,255,255)" fill-opacity="1.0" stroke="rgb(0,0,0)" stroke-width="2"  />
			<g>
				<title>Acylphosphatase (PF00708)
"Acylphosphatase"</title>
				<polygon class="PF00708" points="372,40 376,28 377,28 377,52 376,52" stroke-linejoin="round" width="8" height="24" fill="rgb(79,219,111)" stroke="rgb(63,175,88)" stroke-width="1" opacity="0.75" />
			</g>
		</g>
		<g>
			<title> (XBJ1_0763)
hypothetical protein</title>
			<polygon class=" (XBJ1_0763)
hypothetical protein" points="381,10 385,40 381,70" fill="rgb(255,255,255)" fill-opacity="1.0" stroke="rgb(0,0,0)" stroke-width="2"  />
		</g>
		<g>
			<title> (XBJ1_0764)
conserved hypothetical protein</title>
			<polygon class=" (XBJ1_0764)
conserved hypothetical protein" points="386,10 396,40 386,70" fill="rgb(255,255,255)" fill-opacity="1.0" stroke="rgb(0,0,0)" stroke-width="2"  />
			<g>
				<title>YccV-like (PF08755)
"Hemimethylated DNA-binding protein YccV like"</title>
				<polygon class="PF08755" points="386,28 388,28 393,40 388,52 386,52" stroke-linejoin="round" width="9" height="24" fill="rgb(123,85,224)" stroke="rgb(98,67,179)" stroke-width="1" opacity="0.75" />
			</g>
		</g>
		<g>
			<title> (XBJ1_0765)
putative NAD(P)-binding enzyme (fragment)</title>
			<polygon class=" (XBJ1_0765)
putative NAD(P)-binding enzyme (fragment)" points="402,40 406,10 406,70" fill="rgb(255,255,255)" fill-opacity="1.0" stroke="rgb(0,0,0)" stroke-width="2"  />
		</g>
		<g>
			<title>helD (XBJ1_0766)
DNA helicase IV</title>
			<polygon class="helD (XBJ1_0766)
DNA helicase IV" points="473,25 435,25 435,10 405,40 435,70 435,55 473,55" fill="rgb(255,255,255)" fill-opacity="1.0" stroke="rgb(0,0,0)" stroke-width="2"  />
			<g>
				<title>UvrD_C (PF13361)
"UvrD-like helicase C-terminal domain"</title>
				<polygon class="PF13361" points="409,40 418,31 418,49" stroke-linejoin="round" width="11" height="24" fill="rgb(211,102,116)" stroke="rgb(168,81,92)" stroke-width="1" opacity="0.75" />
			</g>
			<g>
				<title>UvrD-helicase (PF00580)
"UvrD/REP helicase N-terminal domain"</title>
				<rect class="PF00580" x="424" y="28" stroke-linejoin="round" width="29" height="24" fill="rgb(91,222,150)" stroke="rgb(72,177,120)" stroke-width="1" opacity="0.75" />
			</g>
			<g>
				<title>Helicase_IV_N (PF12462)
"DNA helicase IV / RNA helicase N terminal"</title>
				<rect class="PF12462" x="457" y="28" stroke-linejoin="round" width="16" height="24" fill="rgb(163,77,182)" stroke="rgb(130,61,145)" stroke-width="1" opacity="0.75" />
			</g>
		</g>
		<g>
			<title>yccS (XBJ1_0767)
putative efflux transport protein (PET family)</title>
			<polygon class="yccS (XBJ1_0767)
putative efflux transport protein (PET family)" points="476,25 518,25 518,10 548,40 518,70 518,55 476,55" fill="rgb(255,255,255)" fill-opacity="1.0" stroke="rgb(0,0,0)" stroke-width="2"  />
			<g>
				<title>FUSC-like (PF12805)
"FUSC-like inner membrane protein yccS"</title>
				<rect class="PF12805" x="482" y="28" stroke-linejoin="round" width="28" height="24" fill="rgb(228,66,214)" stroke="rgb(182,52,171)" stroke-width="1" opacity="0.75" />
			</g>
			<g>
				<title>FUSC_2 (PF13515)
"Fusaric acid resistance protein-like"</title>
				<rect class="PF13515" x="517" y="28" stroke-linejoin="round" width="12" height="24" fill="rgb(69,195,150)" stroke="rgb(55,156,120)" stroke-width="1" opacity="0.75" />
			</g>
		</g>
		<g>
			<title> (XBJ1_0768)
transposase</title>
			<polygon class=" (XBJ1_0768)
transposase" points="552,10 581,40 552,70" fill="rgb(255,255,255)" fill-opacity="1.0" stroke="rgb(0,0,0)" stroke-width="2"  />
			<g>
				<title>HTH_29 (PF13551)
"Winged helix-turn helix"</title>
				<rect class="PF13551" x="555" y="28" stroke-linejoin="round" width="5" height="24" fill="rgb(163,71,225)" stroke="rgb(130,56,180)" stroke-width="1" opacity="0.75" />
			</g>
			<g>
				<title>HTH_33 (PF13592)
"Winged helix-turn helix"</title>
				<polygon class="PF13592" points="561,28 565,28 566,29 566,51 565,52 561,52" stroke-linejoin="round" width="5" height="24" fill="rgb(178,60,202)" stroke="rgb(142,47,161)" stroke-width="1" opacity="0.75" />
			</g>
			<g>
				<title>DDE_3 (PF13358)
"DDE superfamily endonuclease"</title>
				<polygon class="PF13358" points="568,31 577,40 568,49" stroke-linejoin="round" width="11" height="24" fill="rgb(50,81,198)" stroke="rgb(40,64,158)" stroke-width="1" opacity="0.75" />
			</g>
		</g>
		<g>
			<title> (XBJ1_0769)
hypothetical protein</title>
			<polygon class=" (XBJ1_0769)
hypothetical protein" points="582,10 593,40 582,70" fill="rgb(255,255,255)" fill-opacity="1.0" stroke="rgb(0,0,0)" stroke-width="2"  />
		</g>
		<g>
			<title> (XBJ1_0770)
transposase</title>
			<polygon class=" (XBJ1_0770)
transposase" points="594,10 605,40 594,70" fill="rgb(255,255,255)" fill-opacity="1.0" stroke="rgb(0,0,0)" stroke-width="2"  />
			<g>
				<title>TnpB_IS66 (PF05717)
"IS66 Orf2 like protein"</title>
				<polygon class="PF05717" points="594,28 597,28 602,40 597,52 594,52" stroke-linejoin="round" width="10" height="24" fill="rgb(64,191,138)" stroke="rgb(51,152,110)" stroke-width="1" opacity="0.75" />
			</g>
		</g>
		<g>
			<title> (XBJ1_0771)
transposase</title>
			<polygon class=" (XBJ1_0771)
transposase" points="608,25 628,25 628,10 658,40 628,70 628,55 608,55" fill="rgb(255,255,255)" fill-opacity="1.0" stroke="rgb(0,0,0)" stroke-width="2"  />
			<g>
				<title>LZ_Tnp_IS66 (PF13007)
"Transposase C of IS166 homeodomain"</title>
				<rect class="PF13007" x="610" y="28" stroke-linejoin="round" width="6" height="24" fill="rgb(68,66,227)" stroke="rgb(54,52,181)" stroke-width="1" opacity="0.75" />
			</g>
			<g>
				<title>zf-IS66 (PF13005)
"zinc-finger binding domain of transposase IS66"</title>
				<rect class="PF13005" x="618" y="28" stroke-linejoin="round" width="4" height="24" fill="rgb(85,193,127)" stroke="rgb(68,154,101)" stroke-width="1" opacity="0.75" />
			</g>
			<g>
				<title>DDE_Tnp_IS66 (PF03050)
"Transposase IS66 family"</title>
				<polygon class="PF03050" points="624,28 641,28 652,39 652,41 641,52 624,52" stroke-linejoin="round" width="28" height="24" fill="rgb(189,225,106)" stroke="rgb(151,180,84)" stroke-width="1" opacity="0.75" />
			</g>
			<g>
				<title>DDE_Tnp_IS66_C (PF13817)
"IS66 C-terminal element"</title>
				<polygon class="PF13817" points="653,40 653,40 653,40" stroke-linejoin="round" width="3" height="24" fill="rgb(179,66,173)" stroke="rgb(143,52,138)" stroke-width="1" opacity="0.75" />
			</g>
		</g>
		<g>
			<title> (XBJ1_0772)
transposase (fragment)</title>
			<polygon class=" (XBJ1_0772)
transposase (fragment)" points="661,10 669,40 661,70" fill="rgb(255,255,255)" fill-opacity="1.0" stroke="rgb(0,0,0)" stroke-width="2"  />
			<g>
				<title>DDE_Tnp_IS66 (PF03050)
"Transposase IS66 family"</title>
				<polygon class="PF03050" points="661,28 662,28 664,33 664,47 662,52 661,52" stroke-linejoin="round" width="3" height="24" fill="rgb(189,225,106)" stroke="rgb(151,180,84)" stroke-width="1" opacity="0.75" />
			</g>
			<g>
				<title>DDE_Tnp_IS66_C (PF13817)
"IS66 C-terminal element"</title>
				<polygon class="PF13817" points="664,33 666,40 664,47" stroke-linejoin="round" width="3" height="24" fill="rgb(179,66,173)" stroke="rgb(143,52,138)" stroke-width="1" opacity="0.75" />
			</g>
		</g>
		<g>
			<title> (XBJ1_0773)
conserved hypothetical protein</title>
			<polygon class=" (XBJ1_0773)
conserved hypothetical protein" points="669,10 676,40 669,70" fill="rgb(255,255,255)" fill-opacity="1.0" stroke="rgb(0,0,0)" stroke-width="2"  />
			<g>
				<title>DDE_3 (PF13358)
"DDE superfamily endonuclease"</title>
				<polygon class="PF13358" points="669,28 669,28 672,36 672,44 669,52 669,52" stroke-linejoin="round" width="3" height="24" fill="rgb(50,81,198)" stroke="rgb(40,64,158)" stroke-width="1" opacity="0.75" />
			</g>
		</g>
		<g>
			<title> (XBJ1_0774)
putative Phenylalanine racemase (ATP-hydrolyzing)</title>
			<polygon class=" (XBJ1_0774)
putative Phenylalanine racemase (ATP-hydrolyzing)" points="1070,25 706,25 706,10 676,40 706,70 706,55 1070,55" fill="rgb(255,255,255)" fill-opacity="1.0" stroke="rgb(0,0,0)" stroke-width="2"  />
			<g>
				<title>Thioesterase (PF00975)
"Thioesterase domain"</title>
				<polygon class="PF00975" points="685,35 692,28 699,28 699,52 692,52 685,45" stroke-linejoin="round" width="14" height="24" fill="rgb(207,80,138)" stroke="rgb(165,63,110)" stroke-width="1" opacity="0.75" />
			</g>
			<g>
				<title>PP-binding (PF00550)
"Phosphopantetheine attachment site"</title>
				<rect class="PF00550" x="702" y="28" stroke-linejoin="round" width="6" height="24" fill="rgb(103,191,88)" stroke="rgb(82,152,70)" stroke-width="1" opacity="0.75" />
			</g>
			<g>
				<title>AMP-binding_C (PF13193)
"AMP-binding enzyme C-terminal domain"</title>
				<rect class="PF13193" x="711" y="28" stroke-linejoin="round" width="7" height="24" fill="rgb(182,50,118)" stroke="rgb(145,39,94)" stroke-width="1" opacity="0.75" />
			</g>
			<g>
				<title>AMP-binding (PF00501)
"AMP-binding enzyme"</title>
				<rect class="PF00501" x="719" y="28" stroke-linejoin="round" width="41" height="24" fill="rgb(60,217,223)" stroke="rgb(48,173,178)" stroke-width="1" opacity="0.75" />
			</g>
			<g>
				<title>Condensation (PF00668)
"Condensation domain"</title>
				<rect class="PF00668" x="762" y="28" stroke-linejoin="round" width="44" height="24" fill="rgb(224,184,98)" stroke="rgb(179,147,78)" stroke-width="1" opacity="0.75" />
			</g>
			<g>
				<title>PP-binding (PF00550)
"Phosphopantetheine attachment site"</title>
				<rect class="PF00550" x="808" y="28" stroke-linejoin="round" width="6" height="24" fill="rgb(103,191,88)" stroke="rgb(82,152,70)" stroke-width="1" opacity="0.75" />
			</g>
			<g>
				<title>AMP-binding_C (PF13193)
"AMP-binding enzyme C-terminal domain"</title>
				<rect class="PF13193" x="817" y="28" stroke-linejoin="round" width="7" height="24" fill="rgb(182,50,118)" stroke="rgb(145,39,94)" stroke-width="1" opacity="0.75" />
			</g>
			<g>
				<title>AMP-binding (PF00501)
"AMP-binding enzyme"</title>
				<rect class="PF00501" x="825" y="28" stroke-linejoin="round" width="40" height="24" fill="rgb(60,217,223)" stroke="rgb(48,173,178)" stroke-width="1" opacity="0.75" />
			</g>
			<g>
				<title>Condensation (PF00668)
"Condensation domain"</title>
				<rect class="PF00668" x="867" y="28" stroke-linejoin="round" width="44" height="24" fill="rgb(224,184,98)" stroke="rgb(179,147,78)" stroke-width="1" opacity="0.75" />
			</g>
			<g>
				<title>Condensation (PF00668)
"Condensation domain"</title>
				<rect class="PF00668" x="914" y="28" stroke-linejoin="round" width="41" height="24" fill="rgb(224,184,98)" stroke="rgb(179,147,78)" stroke-width="1" opacity="0.75" />
			</g>
			<g>
				<title>PP-binding (PF00550)
"Phosphopantetheine attachment site"</title>
				<rect class="PF00550" x="957" y="28" stroke-linejoin="round" width="6" height="24" fill="rgb(103,191,88)" stroke="rgb(82,152,70)" stroke-width="1" opacity="0.75" />
			</g>
			<g>
				<title>AMP-binding_C (PF13193)
"AMP-binding enzyme C-terminal domain"</title>
				<rect class="PF13193" x="966" y="28" stroke-linejoin="round" width="7" height="24" fill="rgb(182,50,118)" stroke="rgb(145,39,94)" stroke-width="1" opacity="0.75" />
			</g>
			<g>
				<title>AMP-binding (PF00501)
"AMP-binding enzyme"</title>
				<rect class="PF00501" x="974" y="28" stroke-linejoin="round" width="40" height="24" fill="rgb(60,217,223)" stroke="rgb(48,173,178)" stroke-width="1" opacity="0.75" />
			</g>
			<g>
				<title>Condensation (PF00668)
"Condensation domain"</title>
				<rect class="PF00668" x="1016" y="28" stroke-linejoin="round" width="44" height="24" fill="rgb(224,184,98)" stroke="rgb(179,147,78)" stroke-width="1" opacity="0.75" />
			</g>
		</g>
		<g>
			<title> (XBJ1_0775)
putative Ornithine racemase</title>
			<polygon class=" (XBJ1_0775)
putative Ornithine racemase" points="1538,25 1100,25 1100,10 1070,40 1100,70 1100,55 1538,55" fill="rgb(255,255,255)" fill-opacity="1.0" stroke="rgb(0,0,0)" stroke-width="2"  />
			<g>
				<title>Condensation (PF00668)
"Condensation domain"</title>
				<polygon class="PF00668" points="1074,40 1086,28 1116,28 1116,52 1086,52 1074,40" stroke-linejoin="round" width="42" height="24" fill="rgb(224,184,98)" stroke="rgb(179,147,78)" stroke-width="1" opacity="0.75" />
			</g>
			<g>
				<title>PP-binding (PF00550)
"Phosphopantetheine attachment site"</title>
				<rect class="PF00550" x="1117" y="28" stroke-linejoin="round" width="6" height="24" fill="rgb(103,191,88)" stroke="rgb(82,152,70)" stroke-width="1" opacity="0.75" />
			</g>
			<g>
				<title>AMP-binding_C (PF13193)
"AMP-binding enzyme C-terminal domain"</title>
				<rect class="PF13193" x="1126" y="28" stroke-linejoin="round" width="7" height="24" fill="rgb(182,50,118)" stroke="rgb(145,39,94)" stroke-width="1" opacity="0.75" />
			</g>
			<g>
				<title>AMP-binding (PF00501)
"AMP-binding enzyme"</title>
				<rect class="PF00501" x="1134" y="28" stroke-linejoin="round" width="40" height="24" fill="rgb(60,217,223)" stroke="rgb(48,173,178)" stroke-width="1" opacity="0.75" />
			</g>
			<g>
				<title>Condensation (PF00668)
"Condensation domain"</title>
				<rect class="PF00668" x="1176" y="28" stroke-linejoin="round" width="44" height="24" fill="rgb(224,184,98)" stroke="rgb(179,147,78)" stroke-width="1" opacity="0.75" />
			</g>
			<g>
				<title>PP-binding (PF00550)
"Phosphopantetheine attachment site"</title>
				<rect class="PF00550" x="1222" y="28" stroke-linejoin="round" width="6" height="24" fill="rgb(103,191,88)" stroke="rgb(82,152,70)" stroke-width="1" opacity="0.75" />
			</g>
			<g>
				<title>AMP-binding_C (PF13193)
"AMP-binding enzyme C-terminal domain"</title>
				<rect class="PF13193" x="1231" y="28" stroke-linejoin="round" width="7" height="24" fill="rgb(182,50,118)" stroke="rgb(145,39,94)" stroke-width="1" opacity="0.75" />
			</g>
			<g>
				<title>AMP-binding (PF00501)
"AMP-binding enzyme"</title>
				<rect class="PF00501" x="1239" y="28" stroke-linejoin="round" width="40" height="24" fill="rgb(60,217,223)" stroke="rgb(48,173,178)" stroke-width="1" opacity="0.75" />
			</g>
			<g>
				<title>Condensation (PF00668)
"Condensation domain"</title>
				<rect class="PF00668" x="1281" y="28" stroke-linejoin="round" width="44" height="24" fill="rgb(224,184,98)" stroke="rgb(179,147,78)" stroke-width="1" opacity="0.75" />
			</g>
			<g>
				<title>PP-binding (PF00550)
"Phosphopantetheine attachment site"</title>
				<rect class="PF00550" x="1326" y="28" stroke-linejoin="round" width="6" height="24" fill="rgb(103,191,88)" stroke="rgb(82,152,70)" stroke-width="1" opacity="0.75" />
			</g>
			<g>
				<title>AMP-binding_C (PF13193)
"AMP-binding enzyme C-terminal domain"</title>
				<rect class="PF13193" x="1335" y="28" stroke-linejoin="round" width="7" height="24" fill="rgb(182,50,118)" stroke="rgb(145,39,94)" stroke-width="1" opacity="0.75" />
			</g>
			<g>
				<title>AMP-binding (PF00501)
"AMP-binding enzyme"</title>
				<rect class="PF00501" x="1343" y="28" stroke-linejoin="round" width="41" height="24" fill="rgb(60,217,223)" stroke="rgb(48,173,178)" stroke-width="1" opacity="0.75" />
			</g>
			<g>
				<title>Condensation (PF00668)
"Condensation domain"</title>
				<rect class="PF00668" x="1387" y="28" stroke-linejoin="round" width="44" height="24" fill="rgb(224,184,98)" stroke="rgb(179,147,78)" stroke-width="1" opacity="0.75" />
			</g>
			<g>
				<title>PP-binding (PF00550)
"Phosphopantetheine attachment site"</title>
				<rect class="PF00550" x="1432" y="28" stroke-linejoin="round" width="6" height="24" fill="rgb(103,191,88)" stroke="rgb(82,152,70)" stroke-width="1" opacity="0.75" />
			</g>
			<g>
				<title>AMP-binding_C (PF13193)
"AMP-binding enzyme C-terminal domain"</title>
				<rect class="PF13193" x="1441" y="28" stroke-linejoin="round" width="7" height="24" fill="rgb(182,50,118)" stroke="rgb(145,39,94)" stroke-width="1" opacity="0.75" />
			</g>
			<g>
				<title>AMP-binding (PF00501)
"AMP-binding enzyme"</title>
				<rect class="PF00501" x="1449" y="28" stroke-linejoin="round" width="42" height="24" fill="rgb(60,217,223)" stroke="rgb(48,173,178)" stroke-width="1" opacity="0.75" />
			</g>
			<g>
				<title>Condensation (PF00668)
"Condensation domain"</title>
				<rect class="PF00668" x="1493" y="28" stroke-linejoin="round" width="43" height="24" fill="rgb(224,184,98)" stroke="rgb(179,147,78)" stroke-width="1" opacity="0.75" />
			</g>
		</g>
		<g>
			<title> (XBJ1_0776)
conserved hypothetical protein</title>
			<polygon class=" (XBJ1_0776)
conserved hypothetical protein" points="1569,40 1589,10 1589,70" fill="rgb(255,255,255)" fill-opacity="1.0" stroke="rgb(0,0,0)" stroke-width="2"  />
			<g>
				<title>TfoX_C (PF04994)
"TfoX C-terminal domain"</title>
				<polygon class="PF04994" points="1573,40 1578,33 1578,47" stroke-linejoin="round" width="8" height="24" fill="rgb(112,212,84)" stroke="rgb(89,169,67)" stroke-width="1" opacity="0.75" />
			</g>
			<g>
				<title>TfoX_N (PF04993)
"TfoX N-terminal domain"</title>
				<polygon class="PF04993" points="1579,31 1581,28 1588,28 1588,52 1581,52 1579,49" stroke-linejoin="round" width="9" height="24" fill="rgb(80,46,184)" stroke="rgb(64,36,147)" stroke-width="1" opacity="0.75" />
			</g>
		</g>
		<g>
			<title> (XBJ1_0777)
Cell division inhibitor SulA</title>
			<polygon class=" (XBJ1_0777)
Cell division inhibitor SulA" points="1597,10 1616,40 1597,70" fill="rgb(255,255,255)" fill-opacity="1.0" stroke="rgb(0,0,0)" stroke-width="2"  />
			<g>
				<title>SulA (PF03846)
"Cell division inhibitor SulA"</title>
				<polygon class="PF03846" points="1600,28 1605,28 1611,37 1611,43 1605,52 1600,52" stroke-linejoin="round" width="11" height="24" fill="rgb(184,85,46)" stroke="rgb(147,68,36)" stroke-width="1" opacity="0.75" />
			</g>
		</g>
		<g>
			<title>ompA (XBJ1_0778)
outer membrane protein 3a (II*;G;d)</title>
			<polygon class="ompA (XBJ1_0778)
outer membrane protein 3a (II*;G;d)" points="1629,25 1636,25 1636,10 1666,40 1636,70 1636,55 1629,55" fill="rgb(255,255,255)" fill-opacity="1.0" stroke="rgb(0,0,0)" stroke-width="2"  />
			<g>
				<title>OmpA_membrane (PF01389)
"OmpA-like transmembrane domain"</title>
				<rect class="PF01389" x="1631" y="28" stroke-linejoin="round" width="19" height="24" fill="rgb(63,70,194)" stroke="rgb(50,55,155)" stroke-width="1" opacity="0.75" />
			</g>
			<g>
				<title>OmpA (PF00691)
"OmpA family"</title>
				<polygon class="PF00691" points="1653,31 1662,40 1662,40 1653,49" stroke-linejoin="round" width="9" height="24" fill="rgb(121,200,70)" stroke="rgb(96,160,56)" stroke-width="1" opacity="0.75" />
			</g>
		</g>
		<g>
			<title> (XBJ1_0779)
putative cytoplasmic protein</title>
			<polygon class=" (XBJ1_0779)
putative cytoplasmic protein" points="1669,40 1684,10 1684,70" fill="rgb(255,255,255)" fill-opacity="1.0" stroke="rgb(0,0,0)" stroke-width="2"  />
			<g>
				<title>MatP_C (PF17414)
"MatP C-terminal ribbon-helix-helix domain"</title>
				<polygon class="PF17414" points="1672,40 1674,36 1674,44" stroke-linejoin="round" width="5" height="24" fill="rgb(187,196,65)" stroke="rgb(149,156,52)" stroke-width="1" opacity="0.75" />
			</g>
			<g>
				<title>MatP (PF06303)
"MatP N-terminal domain"</title>
				<polygon class="PF06303" points="1675,34 1678,28 1683,28 1683,52 1678,52 1675,46" stroke-linejoin="round" width="8" height="24" fill="rgb(194,76,199)" stroke="rgb(155,60,159)" stroke-width="1" opacity="0.75" />
			</g>
		</g>
		<g>
			<title>ycbZ (XBJ1_0780)
putative ATP-dependent protease</title>
			<polygon class="ycbZ (XBJ1_0780)
putative ATP-dependent protease" points="1691,25 1718,25 1718,10 1748,40 1718,70 1718,55 1691,55" fill="rgb(255,255,255)" fill-opacity="1.0" stroke="rgb(0,0,0)" stroke-width="2"  />
			<g>
				<title>AAA_32 (PF13654)
"AAA domain"</title>
				<rect class="PF13654" x="1702" y="28" stroke-linejoin="round" width="20" height="24" fill="rgb(96,115,197)" stroke="rgb(76,92,157)" stroke-width="1" opacity="0.75" />
			</g>
			<g>
				<title>Lon_C (PF05362)
"Lon protease (S16) C-terminal proteolytic domain"</title>
				<polygon class="PF05362" points="1733,29 1744,40 1744,40 1733,51" stroke-linejoin="round" width="11" height="24" fill="rgb(172,181,60)" stroke="rgb(137,144,47)" stroke-width="1" opacity="0.75" />
			</g>
		</g>
		<g>
			<title>fabA (XBJ1_0781)
beta-hydroxydecanoyl thioester dehydrase (trans-2-decenoyl-ACP isomerase)</title>
			<polygon class="fabA (XBJ1_0781)
beta-hydroxydecanoyl thioester dehydrase (trans-2-decenoyl-ACP isomerase)" points="1751,10 1768,40 1751,70" fill="rgb(255,255,255)" fill-opacity="1.0" stroke="rgb(0,0,0)" stroke-width="2"  />
			<g>
				<title>FabA (PF07977)
"FabA-like domain"</title>
				<polygon class="PF07977" points="1753,28 1757,28 1764,40 1757,52 1753,52" stroke-linejoin="round" width="13" height="24" fill="rgb(66,205,188)" stroke="rgb(52,164,150)" stroke-width="1" opacity="0.75" />
			</g>
		</g>
		<g>
			<title>rmf (XBJ1_0782)
ribosome modulation factor</title>
			<polygon class="rmf (XBJ1_0782)
ribosome modulation factor" points="1772,40 1777,10 1777,70" fill="rgb(255,255,255)" fill-opacity="1.0" stroke="rgb(0,0,0)" stroke-width="2"  />
			<g>
				<title>RMF (PF04957)
"Ribosome modulation factor"</title>
				<polygon class="PF04957" points="1775,40 1777,28 1777,28 1777,52 1777,52" stroke-linejoin="round" width="5" height="24" fill="rgb(122,81,181)" stroke="rgb(97,64,144)" stroke-width="1" opacity="0.75" />
			</g>
		</g>
		<g>
			<title> (XBJ1_0783)
conserved hypothetical protein; putative exported protein</title>
			<polygon class=" (XBJ1_0783)
conserved hypothetical protein; putative exported protein" points="1782,40 1802,10 1802,70" fill="rgb(255,255,255)" fill-opacity="1.0" stroke="rgb(0,0,0)" stroke-width="2"  />
			<g>
				<title>ABC_trans_aux (PF03886)
"ABC-type transport auxiliary lipoprotein component"</title>
				<polygon class="PF03886" points="1786,40 1794,28 1797,28 1797,52 1794,52" stroke-linejoin="round" width="15" height="24" fill="rgb(99,207,73)" stroke="rgb(79,165,58)" stroke-width="1" opacity="0.75" />
			</g>
		</g>
		<g>
			<title>pqiB (XBJ1_0784)
paraquat-inducible protein B</title>
			<polygon class="pqiB (XBJ1_0784)
paraquat-inducible protein B" points="1857,25 1832,25 1832,10 1802,40 1832,70 1832,55 1857,55" fill="rgb(255,255,255)" fill-opacity="1.0" stroke="rgb(0,0,0)" stroke-width="2"  />
			<g>
				<title>MlaD (PF02470)
"MlaD protein"</title>
				<polygon class="PF02470" points="1817,29 1818,28 1827,28 1827,52 1818,52 1817,51" stroke-linejoin="round" width="10" height="24" fill="rgb(219,201,73)" stroke="rgb(175,160,58)" stroke-width="1" opacity="0.75" />
			</g>
			<g>
				<title>MlaD (PF02470)
"MlaD protein"</title>
				<rect class="PF02470" x="1831" y="28" stroke-linejoin="round" width="9" height="24" fill="rgb(219,201,73)" stroke="rgb(175,160,58)" stroke-width="1" opacity="0.75" />
			</g>
			<g>
				<title>MlaD (PF02470)
"MlaD protein"</title>
				<rect class="PF02470" x="1843" y="28" stroke-linejoin="round" width="9" height="24" fill="rgb(219,201,73)" stroke="rgb(175,160,58)" stroke-width="1" opacity="0.75" />
			</g>
		</g>
		<g>
			<title>pqiA (XBJ1_0785)
paraquat-inducible protein A, membrane</title>
			<polygon class="pqiA (XBJ1_0785)
paraquat-inducible protein A, membrane" points="1899,25 1887,25 1887,10 1857,40 1887,70 1887,55 1899,55" fill="rgb(255,255,255)" fill-opacity="1.0" stroke="rgb(0,0,0)" stroke-width="2"  />
			<g>
				<title>PqiA (PF04403)
"Paraquat-inducible protein A"</title>
				<polygon class="PF04403" points="1861,40 1873,28 1873,28 1873,52 1873,52" stroke-linejoin="round" width="15" height="24" fill="rgb(179,84,137)" stroke="rgb(143,67,109)" stroke-width="1" opacity="0.75" />
			</g>
			<g>
				<title>PqiA (PF04403)
"Paraquat-inducible protein A"</title>
				<rect class="PF04403" x="1879" y="28" stroke-linejoin="round" width="15" height="24" fill="rgb(179,84,137)" stroke="rgb(143,67,109)" stroke-width="1" opacity="0.75" />
			</g>
		</g>
		<g>
			<title>uup (XBJ1_0786)
putative transport protein (ABC superfamily, atp_bind)</title>
			<polygon class="uup (XBJ1_0786)
putative transport protein (ABC superfamily, atp_bind)" points="1968,25 1935,25 1935,10 1905,40 1935,70 1935,55 1968,55" fill="rgb(255,255,255)" fill-opacity="1.0" stroke="rgb(0,0,0)" stroke-width="2"  />
			<g>
				<title>ABC_tran_CTD (PF16326)
"ABC transporter C-terminal domain"</title>
				<polygon class="PF16326" points="1909,40 1911,38 1911,42" stroke-linejoin="round" width="6" height="24" fill="rgb(180,67,143)" stroke="rgb(144,53,114)" stroke-width="1" opacity="0.75" />
			</g>
			<g>
				<title>ABC_tran (PF00005)
"ABC transporter"</title>
				<polygon class="PF00005" points="1921,28 1921,28 1934,28 1934,52 1921,52 1921,52" stroke-linejoin="round" width="13" height="24" fill="rgb(129,201,63)" stroke="rgb(103,160,50)" stroke-width="1" opacity="0.75" />
			</g>
			<g>
				<title>ABC_tran_Xtn (PF12848)
"ABC transporter"</title>
				<rect class="PF12848" x="1937" y="28" stroke-linejoin="round" width="8" height="24" fill="rgb(54,177,199)" stroke="rgb(43,141,159)" stroke-width="1" opacity="0.75" />
			</g>
			<g>
				<title>ABC_tran (PF00005)
"ABC transporter"</title>
				<rect class="PF00005" x="1950" y="28" stroke-linejoin="round" width="16" height="24" fill="rgb(129,201,63)" stroke="rgb(103,160,50)" stroke-width="1" opacity="0.75" />
			</g>
		</g>
		<g>
			<title>ycbY (XBJ1_0787)
putative methyltransferase with S-adenosyl-L-methionine-dependent methyltransferase domain</title>
			<polygon class="ycbY (XBJ1_0787)
putative methyltransferase with S-adenosyl-L-methionine-dependent methyltransferase domain" points="2039,25 1999,25 1999,10 1969,40 1999,70 1999,55 2039,55" fill="rgb(255,255,255)" fill-opacity="1.0" stroke="rgb(0,0,0)" stroke-width="2"  />
			<g>
				<title>Methyltrans_SAM (PF10672)
"S-adenosylmethionine-dependent methyltransferase"</title>
				<polygon class="PF10672" points="1973,40 1985,28 1996,28 1996,52 1985,52" stroke-linejoin="round" width="25" height="24" fill="rgb(206,85,142)" stroke="rgb(164,68,113)" stroke-width="1" opacity="0.75" />
			</g>
			<g>
				<title>UPF0020 (PF01170)
"Putative RNA methylase family UPF0020"</title>
				<rect class="PF01170" x="2002" y="28" stroke-linejoin="round" width="21" height="24" fill="rgb(89,182,69)" stroke="rgb(71,145,55)" stroke-width="1" opacity="0.75" />
			</g>
			<g>
				<title>THUMP (PF02926)
"THUMP domain"</title>
				<rect class="PF02926" x="2024" y="28" stroke-linejoin="round" width="14" height="24" fill="rgb(52,209,163)" stroke="rgb(41,167,130)" stroke-width="1" opacity="0.75" />
			</g>
		</g>
		<g>
			<title>ycbX (XBJ1_0788)
putative 2Fe-2S protein with ferredoxin-like NADP-linked domain and 2Fe-2S ferredoxin-like domain</title>
			<polygon class="ycbX (XBJ1_0788)
putative 2Fe-2S protein with ferredoxin-like NADP-linked domain and 2Fe-2S ferredoxin-like domain" points="2043,25 2050,25 2050,10 2080,40 2050,70 2050,55 2043,55" fill="rgb(255,255,255)" fill-opacity="1.0" stroke="rgb(0,0,0)" stroke-width="2"  />
			<g>
				<title>MOSC_N (PF03476)
"MOSC N-terminal beta barrel domain"</title>
				<rect class="PF03476" x="2043" y="28" stroke-linejoin="round" width="11" height="24" fill="rgb(209,103,209)" stroke="rgb(167,82,167)" stroke-width="1" opacity="0.75" />
			</g>
			<g>
				<title>MOSC (PF03473)
"MOSC domain"</title>
				<polygon class="PF03473" points="2056,28 2063,28 2068,33 2068,47 2063,52 2056,52" stroke-linejoin="round" width="12" height="24" fill="rgb(96,194,162)" stroke="rgb(76,155,129)" stroke-width="1" opacity="0.75" />
			</g>
			<g>
				<title>Fer2 (PF00111)
"2Fe-2S iron-sulfur cluster binding domain"</title>
				<polygon class="PF00111" points="2070,35 2075,40 2070,45" stroke-linejoin="round" width="8" height="24" fill="rgb(60,59,191)" stroke="rgb(48,47,152)" stroke-width="1" opacity="0.75" />
			</g>
		</g>
		<g>
			<title> (XBJ1_0789)
conserved hypothetical protein</title>
			<polygon class=" (XBJ1_0789)
conserved hypothetical protein" points="2089,40 2107,10 2107,70" fill="rgb(255,255,255)" fill-opacity="1.0" stroke="rgb(0,0,0)" stroke-width="2"  />
			<g>
				<title>ZapC (PF07126)
"Cell-division protein ZapC"</title>
				<polygon class="PF07126" points="2093,40 2100,28 2107,28 2107,52 2100,52" stroke-linejoin="round" width="17" height="24" fill="rgb(104,143,210)" stroke="rgb(83,114,168)" stroke-width="1" opacity="0.75" />
			</g>
		</g>
		<g>
			<title>pyrD (XBJ1_0790)
dihydro-orotate oxidase, FMN-linked</title>
			<polygon class="pyrD (XBJ1_0790)
dihydro-orotate oxidase, FMN-linked" points="2145,25 2142,25 2142,10 2112,40 2142,70 2142,55 2145,55" fill="rgb(255,255,255)" fill-opacity="1.0" stroke="rgb(0,0,0)" stroke-width="2"  />
			<g>
				<title>DHO_dh (PF01180)
"Dihydroorotate dehydrogenase"</title>
				<polygon class="PF01180" points="2116,40 2128,28 2141,28 2141,52 2128,52" stroke-linejoin="round" width="29" height="24" fill="rgb(127,188,80)" stroke="rgb(101,150,64)" stroke-width="1" opacity="0.75" />
			</g>
		</g>
	</g>
</svg>
