<svg version="1.1" baseProfile="full" xmlns="http://www.w3.org/2000/svg" width="845.4333333333333" height="80">
	<g>
		<line x1="10" y1="40.0" x2="835.4333333333333" y2="40.0" style="stroke:rgb(70,70,70); stroke-width:3 "/>
		<g>
			<title> (BMY97_RS07420)
aminotransferase class I/II-fold pyridoxal phosphate-dependent enzyme</title>
			<polygon class=" (BMY97_RS07420)
aminotransferase class I/II-fold pyridoxal phosphate-dependent enzyme" points="43,25 40,25 40,10 10,40 40,70 40,55 43,55" fill="rgb(255,255,255)" fill-opacity="1.0" stroke="rgb(0,0,0)" stroke-width="2"  />
			<g>
				<title>Aminotran_1_2 (PF00155)
"Aminotransferase class I and II"</title>
				<polygon class="PF00155" points="14,40 26,28 42,28 42,52 26,52" stroke-linejoin="round" width="31" height="24" fill="rgb(89,113,198)" stroke="rgb(71,90,158)" stroke-width="1" opacity="0.75" />
			</g>
		</g>
		<g>
			<title> (BMY97_RS07425)
ester cyclase</title>
			<polygon class=" (BMY97_RS07425)
ester cyclase" points="43,40 58,10 58,70" fill="rgb(255,255,255)" fill-opacity="1.0" stroke="rgb(0,0,0)" stroke-width="2"  />
			<g>
				<title>SnoaL (PF07366)
"SnoaL-like polyketide cyclase"</title>
				<polygon class="PF07366" points="46,40 52,28 56,28 56,52 52,52" stroke-linejoin="round" width="12" height="24" fill="rgb(206,89,111)" stroke="rgb(164,71,88)" stroke-width="1" opacity="0.75" />
			</g>
		</g>
		<g>
			<title> (BMY97_RS07430)
acyl-CoA dehydrogenase</title>
			<polygon class=" (BMY97_RS07430)
acyl-CoA dehydrogenase" points="104,25 89,25 89,10 59,40 89,70 89,55 104,55" fill="rgb(255,255,255)" fill-opacity="1.0" stroke="rgb(0,0,0)" stroke-width="2"  />
			<g>
				<title>Acyl-CoA_dh_2 (PF08028)
"Acyl-CoA dehydrogenase, C-terminal domain"</title>
				<polygon class="PF08028" points="63,40 74,29 74,51" stroke-linejoin="round" width="12" height="24" fill="rgb(106,185,56)" stroke="rgb(84,148,44)" stroke-width="1" opacity="0.75" />
			</g>
			<g>
				<title>Acyl-CoA_dh_N (PF02771)
"Acyl-CoA dehydrogenase, N-terminal domain"</title>
				<rect class="PF02771" x="88" y="28" stroke-linejoin="round" width="10" height="24" fill="rgb(105,135,218)" stroke="rgb(84,108,174)" stroke-width="1" opacity="0.75" />
			</g>
		</g>
		<g>
			<title> (BMY97_RS07435)
SAM-dependent methyltransferase</title>
			<polygon class=" (BMY97_RS07435)
SAM-dependent methyltransferase" points="135,25 131,25 131,10 101,40 131,70 131,55 135,55" fill="rgb(255,255,255)" fill-opacity="1.0" stroke="rgb(0,0,0)" stroke-width="2"  />
		</g>
		<g>
			<title> (BMY97_RS07440)
DUF2867 domain-containing protein</title>
			<polygon class=" (BMY97_RS07440)
DUF2867 domain-containing protein" points="129,40 147,10 147,70" fill="rgb(255,255,255)" fill-opacity="1.0" stroke="rgb(0,0,0)" stroke-width="2"  />
		</g>
		<g>
			<title> (BMY97_RS07445)
alpha/beta hydrolase</title>
			<polygon class=" (BMY97_RS07445)
alpha/beta hydrolase" points="187,25 179,25 179,10 149,40 179,70 179,55 187,55" fill="rgb(255,255,255)" fill-opacity="1.0" stroke="rgb(0,0,0)" stroke-width="2"  />
			<g>
				<title>Abhydrolase_6 (PF12697)
"Alpha/beta hydrolase family"</title>
				<polygon class="PF12697" points="153,40 165,28 176,28 176,52 165,52" stroke-linejoin="round" width="26" height="24" fill="rgb(113,71,219)" stroke="rgb(90,56,175)" stroke-width="1" opacity="0.75" />
			</g>
		</g>
		<g>
			<title> (BMY97_RS07450)
thiocillin/thiostrepton family thiazolyl peptide</title>
			<polygon class=" (BMY97_RS07450)
thiocillin/thiostrepton family thiazolyl peptide" points="202,10 208,40 202,70" fill="rgb(255,255,255)" fill-opacity="1.0" stroke="rgb(0,0,0)" stroke-width="2"  />
		</g>
		<g>
			<title> (BMY97_RS07455)
alpha/beta hydrolase</title>
			<polygon class=" (BMY97_RS07455)
alpha/beta hydrolase" points="213,10 239,40 213,70" fill="rgb(255,255,255)" fill-opacity="1.0" stroke="rgb(0,0,0)" stroke-width="2"  />
			<g>
				<title>Abhydrolase_6 (PF12697)
"Alpha/beta hydrolase family"</title>
				<polygon class="PF12697" points="213,28 225,28 234,39 234,41 225,52 213,52" stroke-linejoin="round" width="21" height="24" fill="rgb(113,71,219)" stroke="rgb(90,56,175)" stroke-width="1" opacity="0.75" />
			</g>
		</g>
		<g>
			<title> (BMY97_RS07460)
hypothetical protein</title>
			<polygon class=" (BMY97_RS07460)
hypothetical protein" points="239,25 297,25 297,10 327,40 297,70 297,55 239,55" fill="rgb(255,255,255)" fill-opacity="1.0" stroke="rgb(0,0,0)" stroke-width="2"  />
			<g>
				<title>Lant_dehydr_N (PF04738)
"Lantibiotic dehydratase, N terminus"</title>
				<polygon class="PF04738" points="253,28 311,28 317,34 317,46 311,52 253,52" stroke-linejoin="round" width="64" height="24" fill="rgb(219,60,229)" stroke="rgb(175,47,183)" stroke-width="1" opacity="0.75" />
			</g>
		</g>
		<g>
			<title> (BMY97_RS07465)
hypothetical protein</title>
			<polygon class=" (BMY97_RS07465)
hypothetical protein" points="327,25 330,25 330,10 360,40 330,70 330,55 327,55" fill="rgb(255,255,255)" fill-opacity="1.0" stroke="rgb(0,0,0)" stroke-width="2"  />
			<g>
				<title>Lant_dehydr_C (PF14028)
"Lantibiotic biosynthesis dehydratase C-term"</title>
				<polygon class="PF14028" points="327,28 344,28 356,40 344,52 327,52" stroke-linejoin="round" width="30" height="24" fill="rgb(107,223,113)" stroke="rgb(85,178,90)" stroke-width="1" opacity="0.75" />
			</g>
		</g>
		<g>
			<title> (BMY97_RS07470)
hypothetical protein</title>
			<polygon class=" (BMY97_RS07470)
hypothetical protein" points="360,25 367,25 367,10 397,40 367,70 367,55 360,55" fill="rgb(255,255,255)" fill-opacity="1.0" stroke="rgb(0,0,0)" stroke-width="2"  />
			<g>
				<title>Lant_dehydr_C (PF14028)
"Lantibiotic biosynthesis dehydratase C-term"</title>
				<polygon class="PF14028" points="361,28 380,28 392,40 380,52 361,52" stroke-linejoin="round" width="33" height="24" fill="rgb(107,223,113)" stroke="rgb(85,178,90)" stroke-width="1" opacity="0.75" />
			</g>
		</g>
		<g>
			<title> (BMY97_RS07475)
hypothetical protein</title>
			<polygon class=" (BMY97_RS07475)
hypothetical protein" points="397,25 421,25 421,10 451,40 421,70 421,55 397,55" fill="rgb(255,255,255)" fill-opacity="1.0" stroke="rgb(0,0,0)" stroke-width="2"  />
		</g>
		<g>
			<title> (BMY97_RS07480)
hypothetical protein</title>
			<polygon class=" (BMY97_RS07480)
hypothetical protein" points="451,25 475,25 475,10 505,40 475,70 475,55 451,55" fill="rgb(255,255,255)" fill-opacity="1.0" stroke="rgb(0,0,0)" stroke-width="2"  />
		</g>
		<g>
			<title> (BMY97_RS07485)
hypothetical protein</title>
			<polygon class=" (BMY97_RS07485)
hypothetical protein" points="525,25 540,25 540,10 570,40 540,70 540,55 525,55" fill="rgb(255,255,255)" fill-opacity="1.0" stroke="rgb(0,0,0)" stroke-width="2"  />
			<g>
				<title>YcaO (PF02624)
"YcaO cyclodehydratase, ATP-ad Mg2+-binding"</title>
				<polygon class="PF02624" points="531,28 553,28 565,40 565,40 553,52 531,52" stroke-linejoin="round" width="34" height="24" fill="rgb(76,84,185)" stroke="rgb(60,67,148)" stroke-width="1" opacity="0.75" />
			</g>
		</g>
		<g>
			<title> (BMY97_RS07490)
cytochrome P450</title>
			<polygon class=" (BMY97_RS07490)
cytochrome P450" points="570,25 584,25 584,10 614,40 584,70 584,55 570,55" fill="rgb(255,255,255)" fill-opacity="1.0" stroke="rgb(0,0,0)" stroke-width="2"  />
		</g>
		<g>
			<title> (BMY97_RS07495)
acyl--CoA ligase</title>
			<polygon class=" (BMY97_RS07495)
acyl--CoA ligase" points="613,25 626,25 626,10 656,40 626,70 626,55 613,55" fill="rgb(255,255,255)" fill-opacity="1.0" stroke="rgb(0,0,0)" stroke-width="2"  />
			<g>
				<title>AMP-binding (PF00501)
"AMP-binding enzyme"</title>
				<polygon class="PF00501" points="622,28 639,28 647,36 647,44 639,52 622,52" stroke-linejoin="round" width="25" height="24" fill="rgb(60,217,223)" stroke="rgb(48,173,178)" stroke-width="1" opacity="0.75" />
			</g>
		</g>
		<g>
			<title> (BMY97_RS07500)
cytochrome P450</title>
			<polygon class=" (BMY97_RS07500)
cytochrome P450" points="656,25 665,25 665,10 695,40 665,70 665,55 656,55" fill="rgb(255,255,255)" fill-opacity="1.0" stroke="rgb(0,0,0)" stroke-width="2"  />
		</g>
		<g>
			<title> (BMY97_RS45835)
hypothetical protein</title>
			<polygon class=" (BMY97_RS45835)
hypothetical protein" points="738,25 765,25 765,10 795,40 765,70 765,55 738,55" fill="rgb(255,255,255)" fill-opacity="1.0" stroke="rgb(0,0,0)" stroke-width="2"  />
			<g>
				<title>Putative_PNPOx (PF01243)
"Pyridoxamine 5'-phosphate oxidase"</title>
				<polygon class="PF01243" points="778,28 778,28 786,36 786,44 778,52 778,52" stroke-linejoin="round" width="8" height="24" fill="rgb(177,193,67)" stroke="rgb(141,154,53)" stroke-width="1" opacity="0.75" />
			</g>
		</g>
		<g>
			<title> (BMY97_RS07515)
hypothetical protein</title>
			<polygon class=" (BMY97_RS07515)
hypothetical protein" points="795,25 804,25 804,10 834,40 804,70 804,55 795,55" fill="rgb(255,255,255)" fill-opacity="1.0" stroke="rgb(0,0,0)" stroke-width="2"  />
			<g>
				<title>YcaO (PF02624)
"YcaO cyclodehydratase, ATP-ad Mg2+-binding"</title>
				<polygon class="PF02624" points="801,28 818,28 830,40 818,52 801,52" stroke-linejoin="round" width="31" height="24" fill="rgb(76,84,185)" stroke="rgb(60,67,148)" stroke-width="1" opacity="0.75" />
			</g>
		</g>
	</g>
</svg>
