<svg version="1.1" baseProfile="full" xmlns="http://www.w3.org/2000/svg" width="1144.2666666666667" height="80">
	<g>
		<line x1="10" y1="40.0" x2="1134.2666666666667" y2="40.0" style="stroke:rgb(70,70,70); stroke-width:3 "/>
		<g>
			<title>orf1
serine/threonine protein kinase</title>
			<polygon class="orf1
serine/threonine protein kinase" points="60,25 43,25 43,10 13,40 43,70 43,55 60,55" fill="rgb(255,255,255)" fill-opacity="1.0" stroke="rgb(0,0,0)" stroke-width="2"  />
			<g>
				<title>Pkinase (PF00069)
"Protein kinase domain"</title>
				<rect class="PF00069" x="32" y="28" stroke-linejoin="round" width="26" height="24" fill="rgb(104,187,65)" stroke="rgb(83,149,51)" stroke-width="1" opacity="0.75" />
			</g>
		</g>
		<g>
			<title>pcyQ
ABC transporter ATP-binding protein</title>
			<polygon class="pcyQ
ABC transporter ATP-binding protein" points="67,10 94,40 67,70" fill="rgb(255,255,255)" fill-opacity="1.0" stroke="rgb(0,0,0)" stroke-width="2"  />
			<g>
				<title>ABC_tran (PF00005)
"ABC transporter"</title>
				<polygon class="PF00005" points="70,28 78,28 84,34 84,46 78,52 70,52" stroke-linejoin="round" width="14" height="24" fill="rgb(129,201,63)" stroke="rgb(103,160,50)" stroke-width="1" opacity="0.75" />
			</g>
		</g>
		<g>
			<title>pcyR
ABC transporter permease</title>
			<polygon class="pcyR
ABC transporter permease" points="95,10 121,40 95,70" fill="rgb(255,255,255)" fill-opacity="1.0" stroke="rgb(0,0,0)" stroke-width="2"  />
			<g>
				<title>BPD_transp_1 (PF00528)
"Binding-protein-dependent transport system inner membrane component"</title>
				<polygon class="PF00528" points="102,28 107,28 117,40 107,52 102,52" stroke-linejoin="round" width="18" height="24" fill="rgb(77,208,225)" stroke="rgb(61,166,180)" stroke-width="1" opacity="0.75" />
			</g>
		</g>
		<g>
			<title>pcyS
ABC transporter transmembrane unit</title>
			<polygon class="pcyS
ABC transporter transmembrane unit" points="121,25 125,25 125,10 155,40 125,70 125,55 121,55" fill="rgb(255,255,255)" fill-opacity="1.0" stroke="rgb(0,0,0)" stroke-width="2"  />
			<g>
				<title>NMT1 (PF09084)
"NMT1/THI5 like"</title>
				<polygon class="PF09084" points="127,28 139,28 147,36 147,44 139,52 127,52" stroke-linejoin="round" width="20" height="24" fill="rgb(196,85,209)" stroke="rgb(156,68,167)" stroke-width="1" opacity="0.75" />
			</g>
		</g>
		<g>
			<title>pcyT
pentapeptide repeat protein</title>
			<polygon class="pcyT
pentapeptide repeat protein" points="156,10 177,40 156,70" fill="rgb(255,255,255)" fill-opacity="1.0" stroke="rgb(0,0,0)" stroke-width="2"  />
			<g>
				<title>Pentapeptide_4 (PF13599)
"Pentapeptide repeats (9 copies)"</title>
				<rect class="PF13599" x="157" y="28" stroke-linejoin="round" width="7" height="24" fill="rgb(228,182,106)" stroke="rgb(182,145,84)" stroke-width="1" opacity="0.75" />
			</g>
			<g>
				<title>Pentapeptide_4 (PF13599)
"Pentapeptide repeats (9 copies)"</title>
				<polygon class="PF13599" points="165,28 165,28 172,38 172,42 165,52 165,52" stroke-linejoin="round" width="7" height="24" fill="rgb(228,182,106)" stroke="rgb(182,145,84)" stroke-width="1" opacity="0.75" />
			</g>
		</g>
		<g>
			<title>pcyP
hypothetical protein</title>
			<polygon class="pcyP
hypothetical protein" points="179,40 203,10 203,70" fill="rgb(255,255,255)" fill-opacity="1.0" stroke="rgb(0,0,0)" stroke-width="2"  />
			<g>
				<title>DUF6209 (PF19714)
"Family of unknown function (DUF6209)"</title>
				<polygon class="PF19714" points="189,32 193,28 202,28 202,52 193,52 189,48" stroke-linejoin="round" width="13" height="24" fill="rgb(203,214,95)" stroke="rgb(162,171,76)" stroke-width="1" opacity="0.75" />
			</g>
		</g>
		<g>
			<title>pcyO
glycoside hydrolase family 31</title>
			<polygon class="pcyO
glycoside hydrolase family 31" points="299,25 234,25 234,10 204,40 234,70 234,55 299,55" fill="rgb(255,255,255)" fill-opacity="1.0" stroke="rgb(0,0,0)" stroke-width="2"  />
			<g>
				<title>DUF5110 (PF17137)
"Domain of unknown function (DUF5110)"</title>
				<polygon class="PF17137" points="209,39 216,32 216,48 209,41" stroke-linejoin="round" width="7" height="24" fill="rgb(58,211,220)" stroke="rgb(46,168,176)" stroke-width="1" opacity="0.75" />
			</g>
			<g>
				<title>Glyco_hydro_31 (PF01055)
"Glycosyl hydrolases family 31"</title>
				<polygon class="PF01055" points="218,30 220,28 270,28 270,52 220,52 218,50" stroke-linejoin="round" width="52" height="24" fill="rgb(102,121,211)" stroke="rgb(81,96,168)" stroke-width="1" opacity="0.75" />
			</g>
			<g>
				<title>Gal_mutarotas_2 (PF13802)
"Galactose mutarotase-like"</title>
				<rect class="PF13802" x="273" y="28" stroke-linejoin="round" width="8" height="24" fill="rgb(87,158,184)" stroke="rgb(69,126,147)" stroke-width="1" opacity="0.75" />
			</g>
			<g>
				<title>DUF4968 (PF16338)
"Domain of unknown function (DUF4968)"</title>
				<rect class="PF16338" x="284" y="28" stroke-linejoin="round" width="9" height="24" fill="rgb(213,60,112)" stroke="rgb(170,48,89)" stroke-width="1" opacity="0.75" />
			</g>
		</g>
		<g>
			<title>pcyN
transcriptional activator TipA</title>
			<polygon class="pcyN
transcriptional activator TipA" points="310,40 335,10 335,70" fill="rgb(255,255,255)" fill-opacity="1.0" stroke="rgb(0,0,0)" stroke-width="2"  />
			<g>
				<title>TipAS (PF07739)
"TipAS antibiotic-recognition domain"</title>
				<polygon class="PF07739" points="314,40 321,32 321,48" stroke-linejoin="round" width="11" height="24" fill="rgb(94,74,206)" stroke="rgb(75,59,164)" stroke-width="1" opacity="0.75" />
			</g>
			<g>
				<title>MerR_1 (PF13411)
"MerR HTH family regulatory protein"</title>
				<rect class="PF13411" x="328" y="28" stroke-linejoin="round" width="6" height="24" fill="rgb(100,202,107)" stroke="rgb(80,161,85)" stroke-width="1" opacity="0.75" />
			</g>
		</g>
		<g>
			<title>pcyM
hypothetical protein</title>
			<polygon class="pcyM
hypothetical protein" points="338,40 350,10 350,70" fill="rgb(255,255,255)" fill-opacity="1.0" stroke="rgb(0,0,0)" stroke-width="2"  />
		</g>
		<g>
			<title>pcyL
cyclase/dehydrase</title>
			<polygon class="pcyL
cyclase/dehydrase" points="355,40 378,10 378,70" fill="rgb(255,255,255)" fill-opacity="1.0" stroke="rgb(0,0,0)" stroke-width="2"  />
			<g>
				<title>Polyketide_cyc2 (PF10604)
"Polyketide cyclase / dehydrase and lipid transport"</title>
				<polygon class="PF10604" points="359,40 369,28 369,28 369,52 369,52" stroke-linejoin="round" width="13" height="24" fill="rgb(105,204,74)" stroke="rgb(84,163,59)" stroke-width="1" opacity="0.75" />
			</g>
			<g>
				<title>MIase (PF02426)
"Muconolactone delta-isomerase"</title>
				<rect class="PF02426" x="370" y="28" stroke-linejoin="round" width="8" height="24" fill="rgb(214,164,56)" stroke="rgb(171,131,44)" stroke-width="1" opacity="0.75" />
			</g>
		</g>
		<g>
			<title>pcyK
muconolactone delta-isomerase</title>
			<polygon class="pcyK
muconolactone delta-isomerase" points="380,40 390,10 390,70" fill="rgb(255,255,255)" fill-opacity="1.0" stroke="rgb(0,0,0)" stroke-width="2"  />
			<g>
				<title>MIase (PF02426)
"Muconolactone delta-isomerase"</title>
				<polygon class="PF02426" points="383,40 387,28 389,28 389,52 387,52" stroke-linejoin="round" width="8" height="24" fill="rgb(214,164,56)" stroke="rgb(171,131,44)" stroke-width="1" opacity="0.75" />
			</g>
		</g>
		<g>
			<title>pcyJ
AMP-dependent synthetase and ligase/heterocyclase</title>
			<polygon class="pcyJ
AMP-dependent synthetase and ligase/heterocyclase" points="459,25 420,25 420,10 390,40 420,70 420,55 459,55" fill="rgb(255,255,255)" fill-opacity="1.0" stroke="rgb(0,0,0)" stroke-width="2"  />
			<g>
				<title>AMP-binding_C (PF13193)
"AMP-binding enzyme C-terminal domain"</title>
				<polygon class="PF13193" points="394,40 399,35 399,45" stroke-linejoin="round" width="7" height="24" fill="rgb(182,50,118)" stroke="rgb(145,39,94)" stroke-width="1" opacity="0.75" />
			</g>
			<g>
				<title>AMP-binding (PF00501)
"AMP-binding enzyme"</title>
				<polygon class="PF00501" points="401,33 406,28 441,28 441,52 406,52 401,47" stroke-linejoin="round" width="40" height="24" fill="rgb(60,217,223)" stroke="rgb(48,173,178)" stroke-width="1" opacity="0.75" />
			</g>
			<g>
				<title>Polyketide_cyc (PF03364)
"Polyketide cyclase / dehydrase and lipid transport"</title>
				<rect class="PF03364" x="445" y="28" stroke-linejoin="round" width="12" height="24" fill="rgb(221,94,106)" stroke="rgb(176,75,84)" stroke-width="1" opacity="0.75" />
			</g>
		</g>
		<g>
			<title>pcyA
metal-dependent hydrolase</title>
			<polygon class="pcyA
metal-dependent hydrolase" points="465,25 472,25 472,10 502,40 472,70 472,55 465,55" fill="rgb(255,255,255)" fill-opacity="1.0" stroke="rgb(0,0,0)" stroke-width="2"  />
			<g>
				<title>FrsA-like (PF06500)
"Esterase FrsA-like"</title>
				<polygon class="PF06500" points="470,28 486,28 492,34 492,46 486,52 470,52" stroke-linejoin="round" width="22" height="24" fill="rgb(65,96,200)" stroke="rgb(51,76,160)" stroke-width="1" opacity="0.75" />
			</g>
		</g>
		<g>
			<title>pcyB
second ring cyclase/aromatase</title>
			<polygon class="pcyB
second ring cyclase/aromatase" points="505,10 533,40 505,70" fill="rgb(255,255,255)" fill-opacity="1.0" stroke="rgb(0,0,0)" stroke-width="2"  />
			<g>
				<title>Cyclase (PF04199)
"Putative cyclase"</title>
				<polygon class="PF04199" points="506,28 517,28 525,36 525,44 517,52 506,52" stroke-linejoin="round" width="19" height="24" fill="rgb(140,47,181)" stroke="rgb(112,37,144)" stroke-width="1" opacity="0.75" />
			</g>
		</g>
		<g>
			<title>pcyC
first ring cyclase/aromatase</title>
			<polygon class="pcyC
first ring cyclase/aromatase" points="534,25 536,25 536,10 566,40 536,70 536,55 534,55" fill="rgb(255,255,255)" fill-opacity="1.0" stroke="rgb(0,0,0)" stroke-width="2"  />
			<g>
				<title>Polyketide_cyc (PF03364)
"Polyketide cyclase / dehydrase and lipid transport"</title>
				<rect class="PF03364" x="535" y="28" stroke-linejoin="round" width="12" height="24" fill="rgb(221,94,106)" stroke="rgb(176,75,84)" stroke-width="1" opacity="0.75" />
			</g>
			<g>
				<title>Polyketide_cyc2 (PF10604)
"Polyketide cyclase / dehydrase and lipid transport"</title>
				<polygon class="PF10604" points="550,29 561,40 550,51" stroke-linejoin="round" width="15" height="24" fill="rgb(105,204,74)" stroke="rgb(84,163,59)" stroke-width="1" opacity="0.75" />
			</g>
		</g>
		<g>
			<title>pcyD
ketoacyl reductase</title>
			<polygon class="pcyD
ketoacyl reductase" points="567,10 593,40 567,70" fill="rgb(255,255,255)" fill-opacity="1.0" stroke="rgb(0,0,0)" stroke-width="2"  />
			<g>
				<title>adh_short_C2 (PF13561)
"Enoyl-(Acyl carrier protein) reductase"</title>
				<polygon class="PF13561" points="568,28 578,28 589,40 578,52 568,52" stroke-linejoin="round" width="24" height="24" fill="rgb(73,205,127)" stroke="rgb(58,164,101)" stroke-width="1" opacity="0.75" />
			</g>
		</g>
		<g>
			<title>pcyE
beta-ketoacyl synthase alpha</title>
			<polygon class="pcyE
beta-ketoacyl synthase alpha" points="595,25 607,25 607,10 637,40 607,70 607,55 595,55" fill="rgb(255,255,255)" fill-opacity="1.0" stroke="rgb(0,0,0)" stroke-width="2"  />
			<g>
				<title>ketoacyl-synt (PF00109)
"Beta-ketoacyl synthase, N-terminal domain"</title>
				<rect class="PF00109" x="595" y="28" stroke-linejoin="round" width="25" height="24" fill="rgb(112,116,228)" stroke="rgb(89,92,182)" stroke-width="1" opacity="0.75" />
			</g>
			<g>
				<title>Ketoacyl-synt_C (PF02801)
"Beta-ketoacyl synthase, C-terminal domain"</title>
				<polygon class="PF02801" points="621,28 621,28 632,39 632,41 621,52 621,52" stroke-linejoin="round" width="11" height="24" fill="rgb(215,78,102)" stroke="rgb(172,62,81)" stroke-width="1" opacity="0.75" />
			</g>
		</g>
		<g>
			<title>pcyF
beta-ketoacyl synthase beta</title>
			<polygon class="pcyF
beta-ketoacyl synthase beta" points="638,25 649,25 649,10 679,40 649,70 649,55 638,55" fill="rgb(255,255,255)" fill-opacity="1.0" stroke="rgb(0,0,0)" stroke-width="2"  />
			<g>
				<title>ketoacyl-synt (PF00109)
"Beta-ketoacyl synthase, N-terminal domain"</title>
				<rect class="PF00109" x="638" y="28" stroke-linejoin="round" width="24" height="24" fill="rgb(112,116,228)" stroke="rgb(89,92,182)" stroke-width="1" opacity="0.75" />
			</g>
			<g>
				<title>Ketoacyl-synt_C (PF02801)
"Beta-ketoacyl synthase, C-terminal domain"</title>
				<polygon class="PF02801" points="663,28 663,28 674,39 674,41 663,52 663,52" stroke-linejoin="round" width="11" height="24" fill="rgb(215,78,102)" stroke="rgb(172,62,81)" stroke-width="1" opacity="0.75" />
			</g>
		</g>
		<g>
			<title>pcyG
acyl carrier protein</title>
			<polygon class="pcyG
acyl carrier protein" points="681,10 688,40 681,70" fill="rgb(255,255,255)" fill-opacity="1.0" stroke="rgb(0,0,0)" stroke-width="2"  />
			<g>
				<title>PP-binding (PF00550)
"Phosphopantetheine attachment site"</title>
				<polygon class="PF00550" points="681,28 682,28 685,40 682,52 681,52" stroke-linejoin="round" width="6" height="24" fill="rgb(103,191,88)" stroke="rgb(82,152,70)" stroke-width="1" opacity="0.75" />
			</g>
		</g>
		<g>
			<title>pcyH
holo-acyl-carrier-protein synthase</title>
			<polygon class="pcyH
holo-acyl-carrier-protein synthase" points="690,10 702,40 690,70" fill="rgb(255,255,255)" fill-opacity="1.0" stroke="rgb(0,0,0)" stroke-width="2"  />
			<g>
				<title>ACPS (PF01648)
"4'-phosphopantetheinyl transferase superfamily"</title>
				<polygon class="PF01648" points="690,28 693,28 699,40 693,52 690,52" stroke-linejoin="round" width="11" height="24" fill="rgb(85,184,135)" stroke="rgb(68,147,108)" stroke-width="1" opacity="0.75" />
			</g>
		</g>
		<g>
			<title>pcyI
hypothetical protein</title>
			<polygon class="pcyI
hypothetical protein" points="705,10 713,40 705,70" fill="rgb(255,255,255)" fill-opacity="1.0" stroke="rgb(0,0,0)" stroke-width="2"  />
		</g>
		<g>
			<title>orf2
putative hydrolase</title>
			<polygon class="orf2
putative hydrolase" points="746,25 743,25 743,10 713,40 743,70 743,55 746,55" fill="rgb(255,255,255)" fill-opacity="1.0" stroke="rgb(0,0,0)" stroke-width="2"  />
			<g>
				<title>Lactamase_B (PF00753)
"Metallo-beta-lactamase superfamily"</title>
				<polygon class="PF00753" points="720,37 729,28 738,28 738,52 729,52 720,43" stroke-linejoin="round" width="18" height="24" fill="rgb(206,198,96)" stroke="rgb(164,158,76)" stroke-width="1" opacity="0.75" />
			</g>
		</g>
		<g>
			<title>orf3
nucleoside diphosphate kinase regulator</title>
			<polygon class="orf3
nucleoside diphosphate kinase regulator" points="747,40 760,10 760,70" fill="rgb(255,255,255)" fill-opacity="1.0" stroke="rgb(0,0,0)" stroke-width="2"  />
			<g>
				<title>GreA_GreB (PF01272)
"Transcription elongation factor, GreA/GreB, C-term"</title>
				<polygon class="PF01272" points="750,40 755,29 755,51" stroke-linejoin="round" width="7" height="24" fill="rgb(196,189,58)" stroke="rgb(156,151,46)" stroke-width="1" opacity="0.75" />
			</g>
			<g>
				<title>Rnk_N (PF14760)
"Rnk N-terminus"</title>
				<polygon class="PF14760" points="756,27 756,28 760,28 760,52 756,52 756,53" stroke-linejoin="round" width="4" height="24" fill="rgb(171,51,191)" stroke="rgb(136,40,152)" stroke-width="1" opacity="0.75" />
			</g>
		</g>
		<g>
			<title>orf4
hypothetical protein</title>
			<polygon class="orf4
hypothetical protein" points="766,40 789,10 789,70" fill="rgb(255,255,255)" fill-opacity="1.0" stroke="rgb(0,0,0)" stroke-width="2"  />
		</g>
		<g>
			<title>orf5
hypothetical protein</title>
			<polygon class="orf5
hypothetical protein" points="826,25 822,25 822,10 792,40 822,70 822,55 826,55" fill="rgb(255,255,255)" fill-opacity="1.0" stroke="rgb(0,0,0)" stroke-width="2"  />
		</g>
		<g>
			<title>orf6
serine/threonine protein kinase Pkn6</title>
			<polygon class="orf6
serine/threonine protein kinase Pkn6" points="901,25 859,25 859,10 829,40 859,70 859,55 901,55" fill="rgb(255,255,255)" fill-opacity="1.0" stroke="rgb(0,0,0)" stroke-width="2"  />
			<g>
				<title>Pkinase (PF00069)
"Protein kinase domain"</title>
				<rect class="PF00069" x="873" y="28" stroke-linejoin="round" width="27" height="24" fill="rgb(104,187,65)" stroke="rgb(83,149,51)" stroke-width="1" opacity="0.75" />
			</g>
		</g>
		<g>
			<title>orf7
hypothetical protein</title>
			<polygon class="orf7
hypothetical protein" points="910,40 922,10 922,70" fill="rgb(255,255,255)" fill-opacity="1.0" stroke="rgb(0,0,0)" stroke-width="2"  />
		</g>
		<g>
			<title>orf8
glutamate synthase small subunit</title>
			<polygon class="orf8
glutamate synthase small subunit" points="970,25 952,25 952,10 922,40 952,70 952,55 970,55" fill="rgb(255,255,255)" fill-opacity="1.0" stroke="rgb(0,0,0)" stroke-width="2"  />
			<g>
				<title>Pyr_redox_2 (PF07992)
"Pyridine nucleotide-disulphide oxidoreductase"</title>
				<polygon class="PF07992" points="926,40 933,33 933,47" stroke-linejoin="round" width="9" height="24" fill="rgb(83,223,167)" stroke="rgb(66,178,133)" stroke-width="1" opacity="0.75" />
			</g>
			<g>
				<title>Pyr_redox_2 (PF07992)
"Pyridine nucleotide-disulphide oxidoreductase"</title>
				<polygon class="PF07992" points="938,28 938,28 956,28 956,52 938,52 938,52" stroke-linejoin="round" width="18" height="24" fill="rgb(83,223,167)" stroke="rgb(66,178,133)" stroke-width="1" opacity="0.75" />
			</g>
			<g>
				<title>Fer4_20 (PF14691)
"Dihydroprymidine dehydrogenase domain II, 4Fe-4S cluster"</title>
				<rect class="PF14691" x="957" y="28" stroke-linejoin="round" width="10" height="24" fill="rgb(180,85,207)" stroke="rgb(144,67,165)" stroke-width="1" opacity="0.75" />
			</g>
		</g>
		<g>
			<title>orf9
glutamate synthase large subunit</title>
			<polygon class="orf9
glutamate synthase large subunit" points="1123,25 1001,25 1001,10 971,40 1001,70 1001,55 1123,55" fill="rgb(255,255,255)" fill-opacity="1.0" stroke="rgb(0,0,0)" stroke-width="2"  />
			<g>
				<title>GXGXG (PF01493)
"GXGXG motif"</title>
				<polygon class="PF01493" points="978,37 987,28 996,28 996,52 987,52 978,43" stroke-linejoin="round" width="18" height="24" fill="rgb(197,218,88)" stroke="rgb(157,174,70)" stroke-width="1" opacity="0.75" />
			</g>
			<g>
				<title>Glu_synthase (PF01645)
"Conserved region in glutamate synthase"</title>
				<rect class="PF01645" x="1004" y="28" stroke-linejoin="round" width="37" height="24" fill="rgb(97,123,226)" stroke="rgb(77,98,180)" stroke-width="1" opacity="0.75" />
			</g>
			<g>
				<title>Glu_syn_central (PF04898)
"Glutamate synthase central domain"</title>
				<rect class="PF04898" x="1048" y="28" stroke-linejoin="round" width="28" height="24" fill="rgb(119,210,66)" stroke="rgb(95,168,52)" stroke-width="1" opacity="0.75" />
			</g>
			<g>
				<title>GATase_2 (PF00310)
"Glutamine amidotransferases class-II"</title>
				<rect class="PF00310" x="1079" y="28" stroke-linejoin="round" width="42" height="24" fill="rgb(195,63,68)" stroke="rgb(156,50,54)" stroke-width="1" opacity="0.75" />
			</g>
		</g>
	</g>
</svg>
