<svg version="1.1" baseProfile="full" xmlns="http://www.w3.org/2000/svg" width="1300.8333333333333" height="80">
	<g>
		<line x1="10" y1="40.0" x2="1290.8333333333333" y2="40.0" style="stroke:rgb(70,70,70); stroke-width:3 "/>
		<g>
			<title> (PISL3812_02618)
hypothetical protein</title>
			<polygon class=" (PISL3812_02618)
hypothetical protein" points="10,25 29,25 29,10 59,40 29,70 29,55 10,55" fill="rgb(255,255,255)" fill-opacity="1.0" stroke="rgb(0,0,0)" stroke-width="2"  />
			<g>
				<title>FAD_binding_3 (PF01494)
"FAD binding domain"</title>
				<rect class="PF01494" x="10" y="28" stroke-linejoin="round" width="4" height="24" fill="rgb(182,175,59)" stroke="rgb(145,140,47)" stroke-width="1" opacity="0.75" />
			</g>
			<g>
				<title>FAD_binding_3 (PF01494)
"FAD binding domain"</title>
				<polygon class="PF01494" points="21,28 43,28 46,31 46,49 43,52 21,52" stroke-linejoin="round" width="25" height="24" fill="rgb(182,175,59)" stroke="rgb(145,140,47)" stroke-width="1" opacity="0.75" />
			</g>
		</g>
		<g>
			<title> (PISL3812_02619)
nonribosomal peptide synthase, putative</title>
			<polygon class=" (PISL3812_02619)
nonribosomal peptide synthase, putative" points="663,25 125,25 125,10 95,40 125,70 125,55 663,55" fill="rgb(255,255,255)" fill-opacity="1.0" stroke="rgb(0,0,0)" stroke-width="2"  />
			<g>
				<title>Condensation (PF00668)
"Condensation domain"</title>
				<polygon class="PF00668" points="105,34 111,28 139,28 139,52 111,52 105,46" stroke-linejoin="round" width="34" height="24" fill="rgb(224,184,98)" stroke="rgb(179,147,78)" stroke-width="1" opacity="0.75" />
			</g>
			<g>
				<title>PP-binding (PF00550)
"Phosphopantetheine attachment site"</title>
				<rect class="PF00550" x="144" y="28" stroke-linejoin="round" width="6" height="24" fill="rgb(103,191,88)" stroke="rgb(82,152,70)" stroke-width="1" opacity="0.75" />
			</g>
			<g>
				<title>AMP-binding (PF00501)
"AMP-binding enzyme"</title>
				<rect class="PF00501" x="165" y="28" stroke-linejoin="round" width="40" height="24" fill="rgb(60,217,223)" stroke="rgb(48,173,178)" stroke-width="1" opacity="0.75" />
			</g>
			<g>
				<title>Condensation (PF00668)
"Condensation domain"</title>
				<rect class="PF00668" x="208" y="28" stroke-linejoin="round" width="42" height="24" fill="rgb(224,184,98)" stroke="rgb(179,147,78)" stroke-width="1" opacity="0.75" />
			</g>
			<g>
				<title>PP-binding (PF00550)
"Phosphopantetheine attachment site"</title>
				<rect class="PF00550" x="256" y="28" stroke-linejoin="round" width="6" height="24" fill="rgb(103,191,88)" stroke="rgb(82,152,70)" stroke-width="1" opacity="0.75" />
			</g>
			<g>
				<title>AMP-binding (PF00501)
"AMP-binding enzyme"</title>
				<rect class="PF00501" x="276" y="28" stroke-linejoin="round" width="8" height="24" fill="rgb(60,217,223)" stroke="rgb(48,173,178)" stroke-width="1" opacity="0.75" />
			</g>
			<g>
				<title>AMP-binding (PF00501)
"AMP-binding enzyme"</title>
				<rect class="PF00501" x="284" y="28" stroke-linejoin="round" width="27" height="24" fill="rgb(60,217,223)" stroke="rgb(48,173,178)" stroke-width="1" opacity="0.75" />
			</g>
			<g>
				<title>Condensation (PF00668)
"Condensation domain"</title>
				<rect class="PF00668" x="314" y="28" stroke-linejoin="round" width="40" height="24" fill="rgb(224,184,98)" stroke="rgb(179,147,78)" stroke-width="1" opacity="0.75" />
			</g>
			<g>
				<title>AMP-binding (PF00501)
"AMP-binding enzyme"</title>
				<rect class="PF00501" x="377" y="28" stroke-linejoin="round" width="40" height="24" fill="rgb(60,217,223)" stroke="rgb(48,173,178)" stroke-width="1" opacity="0.75" />
			</g>
			<g>
				<title>Condensation (PF00668)
"Condensation domain"</title>
				<rect class="PF00668" x="419" y="28" stroke-linejoin="round" width="42" height="24" fill="rgb(224,184,98)" stroke="rgb(179,147,78)" stroke-width="1" opacity="0.75" />
			</g>
			<g>
				<title>PP-binding (PF00550)
"Phosphopantetheine attachment site"</title>
				<rect class="PF00550" x="466" y="28" stroke-linejoin="round" width="6" height="24" fill="rgb(103,191,88)" stroke="rgb(82,152,70)" stroke-width="1" opacity="0.75" />
			</g>
			<g>
				<title>AMP-binding (PF00501)
"AMP-binding enzyme"</title>
				<rect class="PF00501" x="486" y="28" stroke-linejoin="round" width="39" height="24" fill="rgb(60,217,223)" stroke="rgb(48,173,178)" stroke-width="1" opacity="0.75" />
			</g>
			<g>
				<title>Condensation (PF00668)
"Condensation domain"</title>
				<rect class="PF00668" x="528" y="28" stroke-linejoin="round" width="42" height="24" fill="rgb(224,184,98)" stroke="rgb(179,147,78)" stroke-width="1" opacity="0.75" />
			</g>
			<g>
				<title>PP-binding (PF00550)
"Phosphopantetheine attachment site"</title>
				<rect class="PF00550" x="575" y="28" stroke-linejoin="round" width="6" height="24" fill="rgb(103,191,88)" stroke="rgb(82,152,70)" stroke-width="1" opacity="0.75" />
			</g>
			<g>
				<title>AMP-binding (PF00501)
"AMP-binding enzyme"</title>
				<rect class="PF00501" x="601" y="28" stroke-linejoin="round" width="40" height="24" fill="rgb(60,217,223)" stroke="rgb(48,173,178)" stroke-width="1" opacity="0.75" />
			</g>
		</g>
		<g>
			<title> (PISL3812_02620)
hypothetical protein</title>
			<polygon class=" (PISL3812_02620)
hypothetical protein" points="703,25 712,25 712,10 742,40 712,70 712,55 703,55" fill="rgb(255,255,255)" fill-opacity="1.0" stroke="rgb(0,0,0)" stroke-width="2"  />
			<g>
				<title>UstYa (PF11807)
"Mycotoxin biosynthesis protein UstYa"</title>
				<polygon class="PF11807" points="706,28 725,28 730,33 730,47 725,52 706,52" stroke-linejoin="round" width="24" height="24" fill="rgb(215,82,196)" stroke="rgb(172,65,156)" stroke-width="1" opacity="0.75" />
			</g>
		</g>
		<g>
			<title> (PISL3812_02621)
hypothetical protein</title>
			<polygon class=" (PISL3812_02621)
hypothetical protein" points="899,25 790,25 790,10 760,40 790,70 790,55 899,55" fill="rgb(255,255,255)" fill-opacity="1.0" stroke="rgb(0,0,0)" stroke-width="2"  />
			<g>
				<title>UstYa (PF11807)
"Mycotoxin biosynthesis protein UstYa"</title>
				<rect class="PF11807" x="807" y="28" stroke-linejoin="round" width="19" height="24" fill="rgb(215,82,196)" stroke="rgb(172,65,156)" stroke-width="1" opacity="0.75" />
			</g>
			<g>
				<title>Lyase_aromatic (PF00221)
"Aromatic amino acid lyase"</title>
				<rect class="PF00221" x="847" y="28" stroke-linejoin="round" width="48" height="24" fill="rgb(182,133,62)" stroke="rgb(145,106,49)" stroke-width="1" opacity="0.75" />
			</g>
		</g>
		<g>
			<title> (PISL3812_02622)
hypothetical protein</title>
			<polygon class=" (PISL3812_02622)
hypothetical protein" points="950,25 965,25 965,10 995,40 965,70 965,55 950,55" fill="rgb(255,255,255)" fill-opacity="1.0" stroke="rgb(0,0,0)" stroke-width="2"  />
		</g>
		<g>
			<title> (PISL3812_02623)
hypothetical protein</title>
			<polygon class=" (PISL3812_02623)
hypothetical protein" points="1006,40 1034,10 1034,70" fill="rgb(255,255,255)" fill-opacity="1.0" stroke="rgb(0,0,0)" stroke-width="2"  />
			<g>
				<title>UstYa (PF11807)
"Mycotoxin biosynthesis protein UstYa"</title>
				<polygon class="PF11807" points="1011,39 1021,28 1031,28 1031,52 1021,52 1011,41" stroke-linejoin="round" width="20" height="24" fill="rgb(215,82,196)" stroke="rgb(172,65,156)" stroke-width="1" opacity="0.75" />
			</g>
		</g>
		<g>
			<title> (PISL3812_02624)
hypothetical protein</title>
			<polygon class=" (PISL3812_02624)
hypothetical protein" points="1062,25 1187,25 1187,10 1217,40 1187,70 1187,55 1062,55" fill="rgb(255,255,255)" fill-opacity="1.0" stroke="rgb(0,0,0)" stroke-width="2"  />
			<g>
				<title>ABC_membrane (PF00664)
"ABC transporter transmembrane region"</title>
				<rect class="PF00664" x="1091" y="28" stroke-linejoin="round" width="28" height="24" fill="rgb(149,226,73)" stroke="rgb(119,180,58)" stroke-width="1" opacity="0.75" />
			</g>
			<g>
				<title>ABC_tran (PF00005)
"ABC transporter"</title>
				<rect class="PF00005" x="1127" y="28" stroke-linejoin="round" width="14" height="24" fill="rgb(129,201,63)" stroke="rgb(103,160,50)" stroke-width="1" opacity="0.75" />
			</g>
			<g>
				<title>ABC_membrane (PF00664)
"ABC transporter transmembrane region"</title>
				<rect class="PF00664" x="1157" y="28" stroke-linejoin="round" width="29" height="24" fill="rgb(149,226,73)" stroke="rgb(119,180,58)" stroke-width="1" opacity="0.75" />
			</g>
			<g>
				<title>ABC_tran (PF00005)
"ABC transporter"</title>
				<polygon class="PF00005" points="1193,28 1201,28 1208,35 1208,45 1201,52 1193,52" stroke-linejoin="round" width="15" height="24" fill="rgb(129,201,63)" stroke="rgb(103,160,50)" stroke-width="1" opacity="0.75" />
			</g>
		</g>
		<g>
			<title> (PISL3812_02625)
NADPH-dependent 1-acyldihydroxyacetone phosphate reductase</title>
			<polygon class=" (PISL3812_02625)
NADPH-dependent 1-acyldihydroxyacetone phosphate reductase" points="1290,25 1290,25 1290,10 1260,40 1290,70 1290,55 1290,55" fill="rgb(255,255,255)" fill-opacity="1.0" stroke="rgb(0,0,0)" stroke-width="2"  />
			<g>
				<title>adh_short (PF00106)
"short chain dehydrogenase"</title>
				<polygon class="PF00106" points="1271,33 1276,28 1289,28 1289,52 1276,52 1271,47" stroke-linejoin="round" width="18" height="24" fill="rgb(182,219,73)" stroke="rgb(145,175,58)" stroke-width="1" opacity="0.75" />
			</g>
		</g>
	</g>
</svg>
