<svg version="1.1" baseProfile="full" xmlns="http://www.w3.org/2000/svg" width="1039.2" height="80">
	<g>
		<line x1="10" y1="40.0" x2="1029.2" y2="40.0" style="stroke:rgb(70,70,70); stroke-width:3 "/>
		<g>
			<title>
DNA polymerase III subunit delta'</title>
			<polygon class="
DNA polymerase III subunit delta'" points="132,25 142,25 142,10 172,40 142,70 142,55 132,55" fill="rgb(255,255,255)" fill-opacity="1.0" stroke="rgb(0,0,0)" stroke-width="2"  />
			<g>
				<title>DNA_pol3_delta2 (PF13177)
"DNA polymerase III, delta subunit"</title>
				<rect class="PF13177" x="135" y="28" stroke-linejoin="round" width="15" height="24" fill="rgb(188,69,141)" stroke="rgb(150,55,112)" stroke-width="1" opacity="0.75" />
			</g>
		</g>
		<g>
			<title>
protease</title>
			<polygon class="
protease" points="177,25 200,25 200,10 230,40 200,70 200,55 177,55" fill="rgb(255,255,255)" fill-opacity="1.0" stroke="rgb(0,0,0)" stroke-width="2"  />
			<g>
				<title>Abhydrolase_1 (PF00561)
"alpha/beta hydrolase fold"</title>
				<polygon class="PF00561" points="188,28 213,28 225,40 213,52 188,52" stroke-linejoin="round" width="39" height="24" fill="rgb(86,180,151)" stroke="rgb(68,144,120)" stroke-width="1" opacity="0.75" />
			</g>
		</g>
		<g>
			<title>tvaA
thioviridamide precursor peptide</title>
			<polygon class="tvaA
thioviridamide precursor peptide" points="258,10 265,40 258,70" fill="rgb(255,255,255)" fill-opacity="1.0" stroke="rgb(0,0,0)" stroke-width="2"  />
		</g>
		<g>
			<title>tvaB
putative SARP family regulator</title>
			<polygon class="tvaB
putative SARP family regulator" points="282,10 309,40 282,70" fill="rgb(255,255,255)" fill-opacity="1.0" stroke="rgb(0,0,0)" stroke-width="2"  />
			<g>
				<title>Trans_reg_C (PF00486)
"Transcriptional regulatory protein, C terminal"</title>
				<rect class="PF00486" x="286" y="28" stroke-linejoin="round" width="7" height="24" fill="rgb(204,153,57)" stroke="rgb(163,122,45)" stroke-width="1" opacity="0.75" />
			</g>
			<g>
				<title>BTAD (PF03704)
"Bacterial transcriptional activator domain"</title>
				<polygon class="PF03704" points="294,28 294,28 305,40 294,52 294,52" stroke-linejoin="round" width="14" height="24" fill="rgb(217,89,196)" stroke="rgb(173,71,156)" stroke-width="1" opacity="0.75" />
			</g>
		</g>
		<g>
			<title>tvaC
hypothetical protein</title>
			<polygon class="tvaC
hypothetical protein" points="318,25 325,25 325,10 355,40 325,70 325,55 318,55" fill="rgb(255,255,255)" fill-opacity="1.0" stroke="rgb(0,0,0)" stroke-width="2"  />
			<g>
				<title>APH (PF01636)
"Phosphotransferase enzyme family"</title>
				<polygon class="PF01636" points="328,28 339,28 349,38 349,42 339,52 328,52" stroke-linejoin="round" width="21" height="24" fill="rgb(106,220,228)" stroke="rgb(84,176,182)" stroke-width="1" opacity="0.75" />
			</g>
		</g>
		<g>
			<title>tvaD
hypothetical protein</title>
			<polygon class="tvaD
hypothetical protein" points="356,25 358,25 358,10 388,40 358,70 358,55 356,55" fill="rgb(255,255,255)" fill-opacity="1.0" stroke="rgb(0,0,0)" stroke-width="2"  />
			<g>
				<title>HopA1 (PF17914)
"HopA1 effector protein family"</title>
				<polygon class="PF17914" points="371,28 372,28 384,40 372,52 371,52" stroke-linejoin="round" width="17" height="24" fill="rgb(77,79,213)" stroke="rgb(61,63,170)" stroke-width="1" opacity="0.75" />
			</g>
		</g>
		<g>
			<title>tvaE
hypothetical protein</title>
			<polygon class="tvaE
hypothetical protein" points="389,25 389,25 389,10 419,40 389,70 389,55 389,55" fill="rgb(255,255,255)" fill-opacity="1.0" stroke="rgb(0,0,0)" stroke-width="2"  />
			<g>
				<title>APH (PF01636)
"Phosphotransferase enzyme family"</title>
				<polygon class="PF01636" points="390,28 403,28 414,39 414,41 403,52 390,52" stroke-linejoin="round" width="24" height="24" fill="rgb(106,220,228)" stroke="rgb(84,176,182)" stroke-width="1" opacity="0.75" />
			</g>
		</g>
		<g>
			<title>tvaF
putative flavoprotein decarboxylase</title>
			<polygon class="tvaF
putative flavoprotein decarboxylase" points="419,10 438,40 419,70" fill="rgb(255,255,255)" fill-opacity="1.0" stroke="rgb(0,0,0)" stroke-width="2"  />
			<g>
				<title>Flavoprotein (PF02441)
"Flavoprotein"</title>
				<polygon class="PF02441" points="420,28 427,28 435,40 427,52 420,52" stroke-linejoin="round" width="17" height="24" fill="rgb(199,95,88)" stroke="rgb(159,76,70)" stroke-width="1" opacity="0.75" />
			</g>
		</g>
		<g>
			<title>tvaG
putative methyltransferase</title>
			<polygon class="tvaG
putative methyltransferase" points="440,25 449,25 449,10 479,40 449,70 449,55 440,55" fill="rgb(255,255,255)" fill-opacity="1.0" stroke="rgb(0,0,0)" stroke-width="2"  />
			<g>
				<title>PrmA (PF06325)
"Ribosomal protein L11 methyltransferase (PrmA)"</title>
				<rect class="PF06325" x="451" y="28" stroke-linejoin="round" width="11" height="24" fill="rgb(165,213,101)" stroke="rgb(132,170,80)" stroke-width="1" opacity="0.75" />
			</g>
		</g>
		<g>
			<title>tvaH
hypothetical protein</title>
			<polygon class="tvaH
hypothetical protein" points="480,25 495,25 495,10 525,40 495,70 495,55 480,55" fill="rgb(255,255,255)" fill-opacity="1.0" stroke="rgb(0,0,0)" stroke-width="2"  />
			<g>
				<title>YcaO (PF02624)
"YcaO cyclodehydratase, ATP-ad Mg2+-binding"</title>
				<polygon class="PF02624" points="486,28 509,28 520,39 520,41 509,52 486,52" stroke-linejoin="round" width="34" height="24" fill="rgb(76,84,185)" stroke="rgb(60,67,148)" stroke-width="1" opacity="0.75" />
			</g>
		</g>
		<g>
			<title>tvaI
TfuA-like core domain-containing protein</title>
			<polygon class="tvaI
TfuA-like core domain-containing protein" points="525,10 546,40 525,70" fill="rgb(255,255,255)" fill-opacity="1.0" stroke="rgb(0,0,0)" stroke-width="2"  />
			<g>
				<title>TfuA (PF07812)
"TfuA-like protein"</title>
				<polygon class="PF07812" points="530,28 534,28 541,38 541,42 534,52 530,52" stroke-linejoin="round" width="11" height="24" fill="rgb(196,226,76)" stroke="rgb(156,180,60)" stroke-width="1" opacity="0.75" />
			</g>
		</g>
		<g>
			<title>tvaJ
putative phytanoyl-CoA dioxygenase family protein</title>
			<polygon class="tvaJ
putative phytanoyl-CoA dioxygenase family protein" points="547,10 575,40 547,70" fill="rgb(255,255,255)" fill-opacity="1.0" stroke="rgb(0,0,0)" stroke-width="2"  />
			<g>
				<title>PhyH (PF05721)
"Phytanoyl-CoA dioxygenase (PhyH)"</title>
				<polygon class="PF05721" points="549,28 559,28 566,35 566,45 559,52 549,52" stroke-linejoin="round" width="17" height="24" fill="rgb(72,132,214)" stroke="rgb(57,105,171)" stroke-width="1" opacity="0.75" />
			</g>
		</g>
		<g>
			<title>tvaK
putative protease</title>
			<polygon class="tvaK
putative protease" points="575,10 597,40 575,70" fill="rgb(255,255,255)" fill-opacity="1.0" stroke="rgb(0,0,0)" stroke-width="2"  />
			<g>
				<title>Peptidase_C1 (PF00112)
"Papain family cysteine protease"</title>
				<polygon class="PF00112" points="580,28 584,28 593,40 584,52 580,52" stroke-linejoin="round" width="14" height="24" fill="rgb(78,125,201)" stroke="rgb(62,99,160)" stroke-width="1" opacity="0.75" />
			</g>
		</g>
		<g>
			<title>tvaL
hypothetical protein</title>
			<polygon class="tvaL
hypothetical protein" points="597,10 625,40 597,70" fill="rgb(255,255,255)" fill-opacity="1.0" stroke="rgb(0,0,0)" stroke-width="2"  />
		</g>
		<g>
			<title>tvaM
putative regulatory protein</title>
			<polygon class="tvaM
putative regulatory protein" points="628,40 644,10 644,70" fill="rgb(255,255,255)" fill-opacity="1.0" stroke="rgb(0,0,0)" stroke-width="2"  />
			<g>
				<title>HATPase_c_2 (PF13581)
"Histidine kinase-like ATPase domain"</title>
				<polygon class="PF13581" points="631,40 637,28 639,28 639,52 637,52" stroke-linejoin="round" width="11" height="24" fill="rgb(86,179,88)" stroke="rgb(68,143,70)" stroke-width="1" opacity="0.75" />
			</g>
		</g>
		<g>
			<title>tvaN
putative LuxR family transcriptional regulator</title>
			<polygon class="tvaN
putative LuxR family transcriptional regulator" points="651,25 721,25 721,10 751,40 721,70 721,55 651,55" fill="rgb(255,255,255)" fill-opacity="1.0" stroke="rgb(0,0,0)" stroke-width="2"  />
			<g>
				<title>GerE (PF00196)
"Bacterial regulatory proteins, luxR family"</title>
				<polygon class="PF00196" points="744,37 747,40 744,43" stroke-linejoin="round" width="5" height="24" fill="rgb(219,94,82)" stroke="rgb(175,75,65)" stroke-width="1" opacity="0.75" />
			</g>
		</g>
		<g>
			<title>tvaO
hypothetical protein</title>
			<polygon class="tvaO
hypothetical protein" points="763,10 772,40 763,70" fill="rgb(255,255,255)" fill-opacity="1.0" stroke="rgb(0,0,0)" stroke-width="2"  />
		</g>
		<g>
			<title>
putative AfsR family transcriptional regulator</title>
			<polygon class="
putative AfsR family transcriptional regulator" points="788,25 867,25 867,10 897,40 867,70 867,55 788,55" fill="rgb(255,255,255)" fill-opacity="1.0" stroke="rgb(0,0,0)" stroke-width="2"  />
			<g>
				<title>Trans_reg_C (PF00486)
"Transcriptional regulatory protein, C terminal"</title>
				<rect class="PF00486" x="790" y="28" stroke-linejoin="round" width="7" height="24" fill="rgb(204,153,57)" stroke="rgb(163,122,45)" stroke-width="1" opacity="0.75" />
			</g>
			<g>
				<title>BTAD (PF03704)
"Bacterial transcriptional activator domain"</title>
				<rect class="PF03704" x="798" y="28" stroke-linejoin="round" width="14" height="24" fill="rgb(217,89,196)" stroke="rgb(173,71,156)" stroke-width="1" opacity="0.75" />
			</g>
			<g>
				<title>NB-ARC (PF00931)
"NB-ARC domain"</title>
				<rect class="PF00931" x="826" y="28" stroke-linejoin="round" width="20" height="24" fill="rgb(165,94,211)" stroke="rgb(132,75,168)" stroke-width="1" opacity="0.75" />
			</g>
			<g>
				<title>TPR_10 (PF13374)
"Tetratricopeptide repeat"</title>
				<rect class="PF13374" x="872" y="28" stroke-linejoin="round" width="3" height="24" fill="rgb(211,98,167)" stroke="rgb(168,78,133)" stroke-width="1" opacity="0.75" />
			</g>
		</g>
		<g>
			<title>
DNA polymerase I</title>
			<polygon class="
DNA polymerase I" points="954,25 928,25 928,10 898,40 928,70 928,55 954,55" fill="rgb(255,255,255)" fill-opacity="1.0" stroke="rgb(0,0,0)" stroke-width="2"  />
			<g>
				<title>DNA_pol_A (PF00476)
"DNA polymerase family A"</title>
				<polygon class="PF00476" points="902,40 914,28 933,28 933,52 914,52" stroke-linejoin="round" width="34" height="24" fill="rgb(170,75,203)" stroke="rgb(136,60,162)" stroke-width="1" opacity="0.75" />
			</g>
		</g>
	</g>
</svg>
