<svg version="1.1" baseProfile="full" xmlns="http://www.w3.org/2000/svg" width="543.8" height="80">
	<g>
		<line x1="10" y1="40.0" x2="533.8" y2="40.0" style="stroke:rgb(70,70,70); stroke-width:3 "/>
		<g>
			<title> (DT87_23830)
multidrug MFS transporter</title>
			<polygon class=" (DT87_23830)
multidrug MFS transporter" points="10,25 31,25 31,10 61,40 31,70 31,55 10,55" fill="rgb(255,255,255)" fill-opacity="1.0" stroke="rgb(0,0,0)" stroke-width="2"  />
			<g>
				<title>MFS_1 (PF07690)
"Major Facilitator Superfamily"</title>
				<polygon class="PF07690" points="11,28 45,28 50,33 50,47 45,52 11,52" stroke-linejoin="round" width="39" height="24" fill="rgb(193,224,74)" stroke="rgb(154,179,59)" stroke-width="1" opacity="0.75" />
			</g>
		</g>
		<g>
			<title> (DT87_23840)
hypothetical protein</title>
			<polygon class=" (DT87_23840)
hypothetical protein" points="175,25 190,25 190,10 220,40 190,70 190,55 175,55" fill="rgb(255,255,255)" fill-opacity="1.0" stroke="rgb(0,0,0)" stroke-width="2"  />
			<g>
				<title>Chorismate_bind (PF00425)
"chorismate binding enzyme"</title>
				<polygon class="PF00425" points="192,28 204,28 216,40 204,52 192,52" stroke-linejoin="round" width="25" height="24" fill="rgb(188,116,88)" stroke="rgb(150,92,70)" stroke-width="1" opacity="0.75" />
			</g>
		</g>
		<g>
			<title> (DT87_23845)
3-oxoacyl-ACP synthase</title>
			<polygon class=" (DT87_23845)
3-oxoacyl-ACP synthase" points="220,25 225,25 225,10 255,40 225,70 225,55 220,55" fill="rgb(255,255,255)" fill-opacity="1.0" stroke="rgb(0,0,0)" stroke-width="2"  />
			<g>
				<title>ACP_syn_III (PF08545)
"3-Oxoacyl-[acyl-carrier-protein (ACP)] synthase III"</title>
				<rect class="PF08545" x="230" y="28" stroke-linejoin="round" width="7" height="24" fill="rgb(189,102,84)" stroke="rgb(151,81,67)" stroke-width="1" opacity="0.75" />
			</g>
			<g>
				<title>ACP_syn_III_C (PF08541)
"3-Oxoacyl-[acyl-carrier-protein (ACP)] synthase III C terminal"</title>
				<polygon class="PF08541" points="244,34 250,40 244,46" stroke-linejoin="round" width="9" height="24" fill="rgb(146,207,81)" stroke="rgb(116,165,64)" stroke-width="1" opacity="0.75" />
			</g>
		</g>
		<g>
			<title> (DT87_23850)
Triostin synthetase I</title>
			<polygon class=" (DT87_23850)
Triostin synthetase I" points="255,25 280,25 280,10 310,40 280,70 280,55 255,55" fill="rgb(255,255,255)" fill-opacity="1.0" stroke="rgb(0,0,0)" stroke-width="2"  />
			<g>
				<title>AMP-binding (PF00501)
"AMP-binding enzyme"</title>
				<polygon class="PF00501" points="258,28 294,28 299,33 299,47 294,52 258,52" stroke-linejoin="round" width="41" height="24" fill="rgb(60,217,223)" stroke="rgb(48,173,178)" stroke-width="1" opacity="0.75" />
			</g>
			<g>
				<title>AMP-binding_C (PF13193)
"AMP-binding enzyme C-terminal domain"</title>
				<polygon class="PF13193" points="300,34 306,40 300,46" stroke-linejoin="round" width="7" height="24" fill="rgb(182,50,118)" stroke="rgb(145,39,94)" stroke-width="1" opacity="0.75" />
			</g>
		</g>
		<g>
			<title> (DT87_23855)
hypothetical protein</title>
			<polygon class=" (DT87_23855)
hypothetical protein" points="311,10 323,40 311,70" fill="rgb(255,255,255)" fill-opacity="1.0" stroke="rgb(0,0,0)" stroke-width="2"  />
			<g>
				<title>PP-binding (PF00550)
"Phosphopantetheine attachment site"</title>
				<polygon class="PF00550" points="315,28 315,28 320,40 315,52 315,52" stroke-linejoin="round" width="6" height="24" fill="rgb(103,191,88)" stroke="rgb(82,152,70)" stroke-width="1" opacity="0.75" />
			</g>
		</g>
		<g>
			<title> (DT87_23860)
amidohydrolase</title>
			<polygon class=" (DT87_23860)
amidohydrolase" points="323,25 345,25 345,10 375,40 345,70 345,55 323,55" fill="rgb(255,255,255)" fill-opacity="1.0" stroke="rgb(0,0,0)" stroke-width="2"  />
			<g>
				<title>Amidohydro_1 (PF01979)
"Amidohydrolase family"</title>
				<polygon class="PF01979" points="331,28 358,28 369,39 369,41 358,52 331,52" stroke-linejoin="round" width="38" height="24" fill="rgb(210,93,184)" stroke="rgb(168,74,147)" stroke-width="1" opacity="0.75" />
			</g>
		</g>
		<g>
			<title> (DT87_23865)
phospho-2-dehydro-3-deoxyheptonate aldolase</title>
			<polygon class=" (DT87_23865)
phospho-2-dehydro-3-deoxyheptonate aldolase" points="377,25 388,25 388,10 418,40 388,70 388,55 377,55" fill="rgb(255,255,255)" fill-opacity="1.0" stroke="rgb(0,0,0)" stroke-width="2"  />
			<g>
				<title>DAHP_synth_2 (PF01474)
"Class-II DAHP synthetase family"</title>
				<rect class="PF01474" x="379" y="28" stroke-linejoin="round" width="17" height="24" fill="rgb(126,217,84)" stroke="rgb(100,173,67)" stroke-width="1" opacity="0.75" />
			</g>
			<g>
				<title>DAHP_synth_2 (PF01474)
"Class-II DAHP synthetase family"</title>
				<polygon class="PF01474" points="395,28 401,28 413,40 401,52 395,52" stroke-linejoin="round" width="21" height="24" fill="rgb(126,217,84)" stroke="rgb(100,173,67)" stroke-width="1" opacity="0.75" />
			</g>
		</g>
		<g>
			<title> (DT87_23870)
2,3-dihydroxybenzoate-2,3-dehydrogenase</title>
			<polygon class=" (DT87_23870)
2,3-dihydroxybenzoate-2,3-dehydrogenase" points="419,10 444,40 419,70" fill="rgb(255,255,255)" fill-opacity="1.0" stroke="rgb(0,0,0)" stroke-width="2"  />
			<g>
				<title>adh_short (PF00106)
"short chain dehydrogenase"</title>
				<polygon class="PF00106" points="419,28 430,28 438,37 438,43 430,52 419,52" stroke-linejoin="round" width="19" height="24" fill="rgb(182,219,73)" stroke="rgb(145,175,58)" stroke-width="1" opacity="0.75" />
			</g>
		</g>
		<g>
			<title> (DT87_23875)
isochorismatase</title>
			<polygon class=" (DT87_23875)
isochorismatase" points="446,10 467,40 446,70" fill="rgb(255,255,255)" fill-opacity="1.0" stroke="rgb(0,0,0)" stroke-width="2"  />
			<g>
				<title>Isochorismatase (PF00857)
"Isochorismatase family"</title>
				<polygon class="PF00857" points="449,28 455,28 463,40 455,52 449,52" stroke-linejoin="round" width="17" height="24" fill="rgb(144,224,70)" stroke="rgb(115,179,56)" stroke-width="1" opacity="0.75" />
			</g>
		</g>
		<g>
			<title> (DT87_23880)
anthranilate synthase</title>
			<polygon class=" (DT87_23880)
anthranilate synthase" points="468,25 503,25 503,10 533,40 503,70 503,55 468,55" fill="rgb(255,255,255)" fill-opacity="1.0" stroke="rgb(0,0,0)" stroke-width="2"  />
			<g>
				<title>Chorismate_bind (PF00425)
"chorismate binding enzyme"</title>
				<rect class="PF00425" x="480" y="28" stroke-linejoin="round" width="26" height="24" fill="rgb(188,116,88)" stroke="rgb(150,92,70)" stroke-width="1" opacity="0.75" />
			</g>
			<g>
				<title>GATase (PF00117)
"Glutamine amidotransferase class-I"</title>
				<polygon class="PF00117" points="514,28 517,28 529,40 517,52 514,52" stroke-linejoin="round" width="18" height="24" fill="rgb(159,201,96)" stroke="rgb(127,160,76)" stroke-width="1" opacity="0.75" />
			</g>
		</g>
	</g>
</svg>
