<svg version="1.1" baseProfile="full" xmlns="http://www.w3.org/2000/svg" width="1308.6333333333334" height="80">
	<g>
		<line x1="10" y1="40.0" x2="1298.6333333333334" y2="40.0" style="stroke:rgb(70,70,70); stroke-width:3 "/>
		<g>
			<title>
hypothetical protein</title>
			<polygon class="
hypothetical protein" points="10,25 23,25 23,10 53,40 23,70 23,55 10,55" fill="rgb(255,255,255)" fill-opacity="1.0" stroke="rgb(0,0,0)" stroke-width="2"  />
			<g>
				<title>Glyco_hydro_125 (PF06824)
"Metal-independent alpha-mannosidase (GH125)"</title>
				<polygon class="PF06824" points="12,28 37,28 49,40 37,52 12,52" stroke-linejoin="round" width="39" height="24" fill="rgb(131,64,189)" stroke="rgb(104,51,151)" stroke-width="1" opacity="0.75" />
			</g>
		</g>
		<g>
			<title>
major facilitator superfamily protein</title>
			<polygon class="
major facilitator superfamily protein" points="107,25 83,25 83,10 53,40 83,70 83,55 107,55" fill="rgb(255,255,255)" fill-opacity="1.0" stroke="rgb(0,0,0)" stroke-width="2"  />
			<g>
				<title>MFS_1 (PF07690)
"Major Facilitator Superfamily"</title>
				<polygon class="PF07690" points="66,31 69,28 105,28 105,52 69,52 66,49" stroke-linejoin="round" width="39" height="24" fill="rgb(193,224,74)" stroke="rgb(154,179,59)" stroke-width="1" opacity="0.75" />
			</g>
		</g>
		<g>
			<title>
transcriptional regulatory protein</title>
			<polygon class="
transcriptional regulatory protein" points="109,25 120,25 120,10 150,40 120,70 120,55 109,55" fill="rgb(255,255,255)" fill-opacity="1.0" stroke="rgb(0,0,0)" stroke-width="2"  />
			<g>
				<title>HTH_AsnC-type (PF13404)
"AsnC-type helix-turn-helix domain"</title>
				<rect class="PF13404" x="117" y="28" stroke-linejoin="round" width="4" height="24" fill="rgb(190,195,86)" stroke="rgb(152,156,68)" stroke-width="1" opacity="0.75" />
			</g>
			<g>
				<title>AsnC_trans_reg (PF01037)
"Lrp/AsnC ligand binding domain"</title>
				<rect class="PF01037" x="124" y="28" stroke-linejoin="round" width="7" height="24" fill="rgb(134,72,182)" stroke="rgb(107,57,145)" stroke-width="1" opacity="0.75" />
			</g>
			<g>
				<title>HTH_AsnC-type (PF13404)
"AsnC-type helix-turn-helix domain"</title>
				<polygon class="PF13404" points="135,29 138,32 138,48 135,51" stroke-linejoin="round" width="3" height="24" fill="rgb(190,195,86)" stroke="rgb(152,156,68)" stroke-width="1" opacity="0.75" />
			</g>
			<g>
				<title>AsnC_trans_reg (PF01037)
"Lrp/AsnC ligand binding domain"</title>
				<polygon class="PF01037" points="141,35 146,40 141,45" stroke-linejoin="round" width="7" height="24" fill="rgb(134,72,182)" stroke="rgb(107,57,145)" stroke-width="1" opacity="0.75" />
			</g>
		</g>
		<g>
			<title>
aromatase</title>
			<polygon class="
aromatase" points="153,25 154,25 154,10 184,40 154,70 154,55 153,55" fill="rgb(255,255,255)" fill-opacity="1.0" stroke="rgb(0,0,0)" stroke-width="2"  />
			<g>
				<title>Polyketide_cyc2 (PF10604)
"Polyketide cyclase / dehydrase and lipid transport"</title>
				<rect class="PF10604" x="153" y="28" stroke-linejoin="round" width="14" height="24" fill="rgb(105,204,74)" stroke="rgb(84,163,59)" stroke-width="1" opacity="0.75" />
			</g>
		</g>
		<g>
			<title>
acyl carrier protein</title>
			<polygon class="
acyl carrier protein" points="187,40 196,10 196,70" fill="rgb(255,255,255)" fill-opacity="1.0" stroke="rgb(0,0,0)" stroke-width="2"  />
			<g>
				<title>PP-binding (PF00550)
"Phosphopantetheine attachment site"</title>
				<polygon class="PF00550" points="190,40 194,28 194,28 194,52 194,52" stroke-linejoin="round" width="7" height="24" fill="rgb(103,191,88)" stroke="rgb(82,152,70)" stroke-width="1" opacity="0.75" />
			</g>
		</g>
		<g>
			<title>
ketosynthase</title>
			<polygon class="
ketosynthase" points="241,25 231,25 231,10 201,40 231,70 231,55 241,55" fill="rgb(255,255,255)" fill-opacity="1.0" stroke="rgb(0,0,0)" stroke-width="2"  />
			<g>
				<title>Ketoacyl-synt_C (PF02801)
"Beta-ketoacyl synthase, C-terminal domain"</title>
				<polygon class="PF02801" points="205,40 216,29 216,51 205,40" stroke-linejoin="round" width="11" height="24" fill="rgb(215,78,102)" stroke="rgb(172,62,81)" stroke-width="1" opacity="0.75" />
			</g>
			<g>
				<title>ketoacyl-synt (PF00109)
"Beta-ketoacyl synthase, N-terminal domain"</title>
				<polygon class="PF00109" points="217,28 217,28 241,28 241,52 217,52 217,52" stroke-linejoin="round" width="24" height="24" fill="rgb(112,116,228)" stroke="rgb(89,92,182)" stroke-width="1" opacity="0.75" />
			</g>
		</g>
		<g>
			<title>
ketosynthase</title>
			<polygon class="
ketosynthase" points="284,25 272,25 272,10 242,40 272,70 272,55 284,55" fill="rgb(255,255,255)" fill-opacity="1.0" stroke="rgb(0,0,0)" stroke-width="2"  />
			<g>
				<title>Ketoacyl-synt_C (PF02801)
"Beta-ketoacyl synthase, C-terminal domain"</title>
				<polygon class="PF02801" points="246,40 257,29 257,51 246,40" stroke-linejoin="round" width="11" height="24" fill="rgb(215,78,102)" stroke="rgb(172,62,81)" stroke-width="1" opacity="0.75" />
			</g>
			<g>
				<title>ketoacyl-synt (PF00109)
"Beta-ketoacyl synthase, N-terminal domain"</title>
				<rect class="PF00109" x="259" y="28" stroke-linejoin="round" width="25" height="24" fill="rgb(112,116,228)" stroke="rgb(89,92,182)" stroke-width="1" opacity="0.75" />
			</g>
		</g>
		<g>
			<title>
acyl transferase</title>
			<polygon class="
acyl transferase" points="321,25 315,25 315,10 285,40 315,70 315,55 321,55" fill="rgb(255,255,255)" fill-opacity="1.0" stroke="rgb(0,0,0)" stroke-width="2"  />
			<g>
				<title>Acyl_transf_1 (PF00698)
"Acyl transferase domain"</title>
				<polygon class="PF00698" points="292,37 301,28 320,28 320,52 301,52 292,43" stroke-linejoin="round" width="28" height="24" fill="rgb(59,176,209)" stroke="rgb(47,140,167)" stroke-width="1" opacity="0.75" />
			</g>
		</g>
		<g>
			<title>
3-oxoacyl-ACP synthase III</title>
			<polygon class="
3-oxoacyl-ACP synthase III" points="331,25 335,25 335,10 365,40 335,70 335,55 331,55" fill="rgb(255,255,255)" fill-opacity="1.0" stroke="rgb(0,0,0)" stroke-width="2"  />
			<g>
				<title>ACP_syn_III_C (PF08541)
"3-Oxoacyl-[acyl-carrier-protein (ACP)] synthase III C terminal"</title>
				<polygon class="PF08541" points="355,34 361,40 355,46" stroke-linejoin="round" width="9" height="24" fill="rgb(146,207,81)" stroke="rgb(116,165,64)" stroke-width="1" opacity="0.75" />
			</g>
		</g>
		<g>
			<title>
ABC-transporter (substrate binding)</title>
			<polygon class="
ABC-transporter (substrate binding)" points="398,25 396,25 396,10 366,40 396,70 396,55 398,55" fill="rgb(255,255,255)" fill-opacity="1.0" stroke="rgb(0,0,0)" stroke-width="2"  />
			<g>
				<title>SBP_bac_3 (PF00497)
"Bacterial extracellular solute-binding proteins, family 3"</title>
				<polygon class="PF00497" points="370,40 382,28 389,28 389,52 382,52" stroke-linejoin="round" width="22" height="24" fill="rgb(186,76,141)" stroke="rgb(148,60,112)" stroke-width="1" opacity="0.75" />
			</g>
		</g>
		<g>
			<title>
ABC-transporter (ATP-binding)</title>
			<polygon class="
ABC-transporter (ATP-binding)" points="404,40 429,10 429,70" fill="rgb(255,255,255)" fill-opacity="1.0" stroke="rgb(0,0,0)" stroke-width="2"  />
			<g>
				<title>ABC_tran (PF00005)
"ABC transporter"</title>
				<polygon class="PF00005" points="411,36 418,28 426,28 426,52 418,52 411,44" stroke-linejoin="round" width="15" height="24" fill="rgb(129,201,63)" stroke="rgb(103,160,50)" stroke-width="1" opacity="0.75" />
			</g>
		</g>
		<g>
			<title>
ABC-transporter transmembrane</title>
			<polygon class="
ABC-transporter transmembrane" points="460,25 459,25 459,10 429,40 459,70 459,55 460,55" fill="rgb(255,255,255)" fill-opacity="1.0" stroke="rgb(0,0,0)" stroke-width="2"  />
			<g>
				<title>BPD_transp_1 (PF00528)
"Binding-protein-dependent transport system inner membrane component"</title>
				<polygon class="PF00528" points="433,40 445,28 449,28 449,52 445,52" stroke-linejoin="round" width="20" height="24" fill="rgb(77,208,225)" stroke="rgb(61,166,180)" stroke-width="1" opacity="0.75" />
			</g>
		</g>
		<g>
			<title>
luciferase-like monooxygenase</title>
			<polygon class="
luciferase-like monooxygenase" points="496,25 491,25 491,10 461,40 491,70 491,55 496,55" fill="rgb(255,255,255)" fill-opacity="1.0" stroke="rgb(0,0,0)" stroke-width="2"  />
			<g>
				<title>Bac_luciferase (PF00296)
"Luciferase-like monooxygenase"</title>
				<polygon class="PF00296" points="465,40 477,28 495,28 495,52 477,52" stroke-linejoin="round" width="31" height="24" fill="rgb(180,112,78)" stroke="rgb(144,89,62)" stroke-width="1" opacity="0.75" />
			</g>
		</g>
		<g>
			<title>
flavin reductase</title>
			<polygon class="
flavin reductase" points="499,40 515,10 515,70" fill="rgb(255,255,255)" fill-opacity="1.0" stroke="rgb(0,0,0)" stroke-width="2"  />
			<g>
				<title>Flavin_Reduct (PF01613)
"Flavin reductase like domain"</title>
				<polygon class="PF01613" points="502,40 509,28 513,28 513,52 509,52" stroke-linejoin="round" width="14" height="24" fill="rgb(107,197,222)" stroke="rgb(85,157,177)" stroke-width="1" opacity="0.75" />
			</g>
		</g>
		<g>
			<title>
phosphotransferase</title>
			<polygon class="
phosphotransferase" points="554,25 547,25 547,10 517,40 547,70 547,55 554,55" fill="rgb(255,255,255)" fill-opacity="1.0" stroke="rgb(0,0,0)" stroke-width="2"  />
			<g>
				<title>APH (PF01636)
"Phosphotransferase enzyme family"</title>
				<polygon class="PF01636" points="523,38 533,28 548,28 548,52 533,52 523,42" stroke-linejoin="round" width="25" height="24" fill="rgb(106,220,228)" stroke="rgb(84,176,182)" stroke-width="1" opacity="0.75" />
			</g>
		</g>
		<g>
			<title>
SARP family regulator</title>
			<polygon class="
SARP family regulator" points="555,40 582,10 582,70" fill="rgb(255,255,255)" fill-opacity="1.0" stroke="rgb(0,0,0)" stroke-width="2"  />
			<g>
				<title>BTAD (PF03704)
"Bacterial transcriptional activator domain"</title>
				<polygon class="PF03704" points="559,40 570,28 571,28 571,52 570,52" stroke-linejoin="round" width="14" height="24" fill="rgb(217,89,196)" stroke="rgb(173,71,156)" stroke-width="1" opacity="0.75" />
			</g>
			<g>
				<title>Trans_reg_C (PF00486)
"Transcriptional regulatory protein, C terminal"</title>
				<rect class="PF00486" x="572" y="28" stroke-linejoin="round" width="8" height="24" fill="rgb(204,153,57)" stroke="rgb(163,122,45)" stroke-width="1" opacity="0.75" />
			</g>
		</g>
		<g>
			<title>
second ring cyclase</title>
			<polygon class="
second ring cyclase" points="589,25 589,25 589,10 619,40 589,70 589,55 589,55" fill="rgb(255,255,255)" fill-opacity="1.0" stroke="rgb(0,0,0)" stroke-width="2"  />
			<g>
				<title>Lactamase_B (PF00753)
"Metallo-beta-lactamase superfamily"</title>
				<polygon class="PF00753" points="591,28 602,28 609,35 609,45 602,52 591,52" stroke-linejoin="round" width="18" height="24" fill="rgb(206,198,96)" stroke="rgb(164,158,76)" stroke-width="1" opacity="0.75" />
			</g>
		</g>
		<g>
			<title>
3-oxoacyl-ACP reductase</title>
			<polygon class="
3-oxoacyl-ACP reductase" points="624,10 647,40 624,70" fill="rgb(255,255,255)" fill-opacity="1.0" stroke="rgb(0,0,0)" stroke-width="2"  />
			<g>
				<title>adh_short_C2 (PF13561)
"Enoyl-(Acyl carrier protein) reductase"</title>
				<polygon class="PF13561" points="625,28 634,28 644,40 634,52 625,52" stroke-linejoin="round" width="22" height="24" fill="rgb(73,205,127)" stroke="rgb(58,164,101)" stroke-width="1" opacity="0.75" />
			</g>
		</g>
		<g>
			<title>
Anthrone monooxygenase</title>
			<polygon class="
Anthrone monooxygenase" points="650,40 660,10 660,70" fill="rgb(255,255,255)" fill-opacity="1.0" stroke="rgb(0,0,0)" stroke-width="2"  />
			<g>
				<title>ABM (PF03992)
"Antibiotic biosynthesis monooxygenase"</title>
				<polygon class="PF03992" points="653,40 657,28 659,28 659,52 657,52" stroke-linejoin="round" width="7" height="24" fill="rgb(193,84,127)" stroke="rgb(154,67,101)" stroke-width="1" opacity="0.75" />
			</g>
		</g>
		<g>
			<title>
NADH:flavin oxidoreductase</title>
			<polygon class="
NADH:flavin oxidoreductase" points="697,25 691,25 691,10 661,40 691,70 691,55 697,55" fill="rgb(255,255,255)" fill-opacity="1.0" stroke="rgb(0,0,0)" stroke-width="2"  />
			<g>
				<title>Oxidored_FMN (PF00724)
"NADH:flavin oxidoreductase / NADH oxidase family"</title>
				<polygon class="PF00724" points="665,40 677,28 696,28 696,52 677,52" stroke-linejoin="round" width="32" height="24" fill="rgb(157,188,65)" stroke="rgb(125,150,52)" stroke-width="1" opacity="0.75" />
			</g>
		</g>
		<g>
			<title>
aromatase</title>
			<polygon class="
aromatase" points="697,40 713,10 713,70" fill="rgb(255,255,255)" fill-opacity="1.0" stroke="rgb(0,0,0)" stroke-width="2"  />
			<g>
				<title>SnoaL_4 (PF13577)
"SnoaL-like domain"</title>
				<polygon class="PF13577" points="700,40 707,28 711,28 711,52 707,52" stroke-linejoin="round" width="12" height="24" fill="rgb(68,223,209)" stroke="rgb(54,178,167)" stroke-width="1" opacity="0.75" />
			</g>
		</g>
		<g>
			<title>
SARP regulatory protein</title>
			<polygon class="
SARP regulatory protein" points="718,40 745,10 745,70" fill="rgb(255,255,255)" fill-opacity="1.0" stroke="rgb(0,0,0)" stroke-width="2"  />
			<g>
				<title>BTAD (PF03704)
"Bacterial transcriptional activator domain"</title>
				<polygon class="PF03704" points="722,40 733,28 734,28 734,52 733,52" stroke-linejoin="round" width="14" height="24" fill="rgb(217,89,196)" stroke="rgb(173,71,156)" stroke-width="1" opacity="0.75" />
			</g>
			<g>
				<title>Trans_reg_C (PF00486)
"Transcriptional regulatory protein, C terminal"</title>
				<rect class="PF00486" x="735" y="28" stroke-linejoin="round" width="7" height="24" fill="rgb(204,153,57)" stroke="rgb(163,122,45)" stroke-width="1" opacity="0.75" />
			</g>
		</g>
		<g>
			<title>
LAL-family regulator</title>
			<polygon class="
LAL-family regulator" points="859,25 781,25 781,10 751,40 781,70 781,55 859,55" fill="rgb(255,255,255)" fill-opacity="1.0" stroke="rgb(0,0,0)" stroke-width="2"  />
			<g>
				<title>TPR_MalT (PF17874)
"MalT-like TPR region"</title>
				<polygon class="PF17874" points="755,40 767,28 771,28 771,52 767,52" stroke-linejoin="round" width="17" height="24" fill="rgb(63,189,171)" stroke="rgb(50,151,136)" stroke-width="1" opacity="0.75" />
			</g>
			<g>
				<title>NB-ARC (PF00931)
"NB-ARC domain"</title>
				<rect class="PF00931" x="806" y="28" stroke-linejoin="round" width="21" height="24" fill="rgb(165,94,211)" stroke="rgb(132,75,168)" stroke-width="1" opacity="0.75" />
			</g>
			<g>
				<title>BTAD (PF03704)
"Bacterial transcriptional activator domain"</title>
				<rect class="PF03704" x="833" y="28" stroke-linejoin="round" width="14" height="24" fill="rgb(217,89,196)" stroke="rgb(173,71,156)" stroke-width="1" opacity="0.75" />
			</g>
			<g>
				<title>Trans_reg_C (PF00486)
"Transcriptional regulatory protein, C terminal"</title>
				<rect class="PF00486" x="848" y="28" stroke-linejoin="round" width="7" height="24" fill="rgb(204,153,57)" stroke="rgb(163,122,45)" stroke-width="1" opacity="0.75" />
			</g>
		</g>
		<g>
			<title>
luciferase-like monooxygenase</title>
			<polygon class="
luciferase-like monooxygenase" points="899,25 895,25 895,10 865,40 895,70 895,55 899,55" fill="rgb(255,255,255)" fill-opacity="1.0" stroke="rgb(0,0,0)" stroke-width="2"  />
			<g>
				<title>Bac_luciferase (PF00296)
"Luciferase-like monooxygenase"</title>
				<polygon class="PF00296" points="869,40 881,28 899,28 899,52 881,52 869,40" stroke-linejoin="round" width="30" height="24" fill="rgb(180,112,78)" stroke="rgb(144,89,62)" stroke-width="1" opacity="0.75" />
			</g>
		</g>
		<g>
			<title>
MarR family transcriptional regulator</title>
			<polygon class="
MarR family transcriptional regulator" points="906,40 921,10 921,70" fill="rgb(255,255,255)" fill-opacity="1.0" stroke="rgb(0,0,0)" stroke-width="2"  />
			<g>
				<title>MarR_2 (PF12802)
"MarR family"</title>
				<polygon class="PF12802" points="911,36 915,28 917,28 917,52 915,52 911,44" stroke-linejoin="round" width="6" height="24" fill="rgb(46,89,185)" stroke="rgb(36,71,148)" stroke-width="1" opacity="0.75" />
			</g>
		</g>
		<g>
			<title>
drug resistance transporter</title>
			<polygon class="
drug resistance transporter" points="931,25 952,25 952,10 982,40 952,70 952,55 931,55" fill="rgb(255,255,255)" fill-opacity="1.0" stroke="rgb(0,0,0)" stroke-width="2"  />
			<g>
				<title>MFS_1 (PF07690)
"Major Facilitator Superfamily"</title>
				<polygon class="PF07690" points="935,28 966,28 974,36 974,44 966,52 935,52" stroke-linejoin="round" width="39" height="24" fill="rgb(193,224,74)" stroke="rgb(154,179,59)" stroke-width="1" opacity="0.75" />
			</g>
		</g>
		<g>
			<title>
putative NADPH:quinone reductase</title>
			<polygon class="
putative NADPH:quinone reductase" points="992,25 992,25 992,10 1022,40 992,70 992,55 992,55" fill="rgb(255,255,255)" fill-opacity="1.0" stroke="rgb(0,0,0)" stroke-width="2"  />
			<g>
				<title>ADH_zinc_N (PF00107)
"Zinc-binding dehydrogenase"</title>
				<polygon class="PF00107" points="1006,28 1006,28 1016,38 1016,42 1006,52 1006,52" stroke-linejoin="round" width="10" height="24" fill="rgb(81,108,215)" stroke="rgb(64,86,172)" stroke-width="1" opacity="0.75" />
			</g>
		</g>
		<g>
			<title>
putative NADPH:quinone oxidoreductase</title>
			<polygon class="
putative NADPH:quinone oxidoreductase" points="1025,25 1027,25 1027,10 1057,40 1027,70 1027,55 1025,55" fill="rgb(255,255,255)" fill-opacity="1.0" stroke="rgb(0,0,0)" stroke-width="2"  />
			<g>
				<title>ADH_zinc_N (PF00107)
"Zinc-binding dehydrogenase"</title>
				<polygon class="PF00107" points="1040,28 1041,28 1053,40 1053,40 1041,52 1040,52" stroke-linejoin="round" width="13" height="24" fill="rgb(81,108,215)" stroke="rgb(64,86,172)" stroke-width="1" opacity="0.75" />
			</g>
		</g>
		<g>
			<title>
FAD-dependent oxidoreductase</title>
			<polygon class="
FAD-dependent oxidoreductase" points="1058,25 1083,25 1083,10 1113,40 1083,70 1083,55 1058,55" fill="rgb(255,255,255)" fill-opacity="1.0" stroke="rgb(0,0,0)" stroke-width="2"  />
			<g>
				<title>FAD_binding_3 (PF01494)
"FAD binding domain"</title>
				<rect class="PF01494" x="1060" y="28" stroke-linejoin="round" width="35" height="24" fill="rgb(182,175,59)" stroke="rgb(145,140,47)" stroke-width="1" opacity="0.75" />
			</g>
		</g>
		<g>
			<title>
C9-keto reductase</title>
			<polygon class="
C9-keto reductase" points="1118,10 1146,40 1118,70" fill="rgb(255,255,255)" fill-opacity="1.0" stroke="rgb(0,0,0)" stroke-width="2"  />
			<g>
				<title>adh_short (PF00106)
"short chain dehydrogenase"</title>
				<polygon class="PF00106" points="1120,28 1130,28 1139,37 1139,43 1130,52 1120,52" stroke-linejoin="round" width="19" height="24" fill="rgb(182,219,73)" stroke="rgb(145,175,58)" stroke-width="1" opacity="0.75" />
			</g>
		</g>
		<g>
			<title>
amidohydrolase</title>
			<polygon class="
amidohydrolase" points="1150,25 1162,25 1162,10 1192,40 1162,70 1162,55 1150,55" fill="rgb(255,255,255)" fill-opacity="1.0" stroke="rgb(0,0,0)" stroke-width="2"  />
			<g>
				<title>Amidohydro_1 (PF01979)
"Amidohydrolase family"</title>
				<polygon class="PF01979" points="1155,28 1176,28 1188,40 1188,40 1176,52 1155,52" stroke-linejoin="round" width="33" height="24" fill="rgb(210,93,184)" stroke="rgb(168,74,147)" stroke-width="1" opacity="0.75" />
			</g>
		</g>
		<g>
			<title>
cupin</title>
			<polygon class="
cupin" points="1199,40 1217,10 1217,70" fill="rgb(255,255,255)" fill-opacity="1.0" stroke="rgb(0,0,0)" stroke-width="2"  />
			<g>
				<title>Cupin_2 (PF07883)
"Cupin domain"</title>
				<polygon class="PF07883" points="1203,38 1209,28 1210,28 1210,52 1209,52 1203,42" stroke-linejoin="round" width="7" height="24" fill="rgb(211,192,74)" stroke="rgb(168,153,59)" stroke-width="1" opacity="0.75" />
			</g>
		</g>
		<g>
			<title>
citrate/H+ symporter</title>
			<polygon class="
citrate/H+ symporter" points="1262,25 1249,25 1249,10 1219,40 1249,70 1249,55 1262,55" fill="rgb(255,255,255)" fill-opacity="1.0" stroke="rgb(0,0,0)" stroke-width="2"  />
			<g>
				<title>CitMHS (PF03600)
"Citrate transporter"</title>
				<polygon class="PF03600" points="1224,39 1235,28 1260,28 1260,52 1235,52 1224,41" stroke-linejoin="round" width="36" height="24" fill="rgb(75,203,220)" stroke="rgb(60,162,176)" stroke-width="1" opacity="0.75" />
			</g>
		</g>
		<g>
			<title>
transcriptional regulator</title>
			<polygon class="
transcriptional regulator" points="1274,10 1297,40 1274,70" fill="rgb(255,255,255)" fill-opacity="1.0" stroke="rgb(0,0,0)" stroke-width="2"  />
			<g>
				<title>GntR (PF00392)
"Bacterial regulatory proteins, gntR family"</title>
				<rect class="PF00392" x="1275" y="28" stroke-linejoin="round" width="6" height="24" fill="rgb(160,85,194)" stroke="rgb(127,68,155)" stroke-width="1" opacity="0.75" />
			</g>
			<g>
				<title>FCD (PF07729)
"FCD domain"</title>
				<polygon class="PF07729" points="1284,28 1284,28 1293,40 1284,52 1284,52" stroke-linejoin="round" width="12" height="24" fill="rgb(74,75,215)" stroke="rgb(59,60,172)" stroke-width="1" opacity="0.75" />
			</g>
		</g>
	</g>
</svg>
