<svg version="1.1" baseProfile="full" xmlns="http://www.w3.org/2000/svg" width="1311.5" height="80">
	<g>
		<line x1="10" y1="40.0" x2="1301.5" y2="40.0" style="stroke:rgb(70,70,70); stroke-width:3 "/>
		<g>
			<title>chdP
ChdP</title>
			<polygon class="chdP
ChdP" points="112,25 125,25 125,10 155,40 125,70 125,55 112,55" fill="rgb(255,255,255)" fill-opacity="1.0" stroke="rgb(0,0,0)" stroke-width="2"  />
			<g>
				<title>ketoacyl-synt (PF00109)
"Beta-ketoacyl synthase, N-terminal domain"</title>
				<rect class="PF00109" x="112" y="28" stroke-linejoin="round" width="24" height="24" fill="rgb(112,116,228)" stroke="rgb(89,92,182)" stroke-width="1" opacity="0.75" />
			</g>
			<g>
				<title>Ketoacyl-synt_C (PF02801)
"Beta-ketoacyl synthase, C-terminal domain"</title>
				<polygon class="PF02801" points="138,28 139,28 149,38 149,42 139,52 138,52" stroke-linejoin="round" width="11" height="24" fill="rgb(215,78,102)" stroke="rgb(172,62,81)" stroke-width="1" opacity="0.75" />
			</g>
		</g>
		<g>
			<title>chdK
ChdK</title>
			<polygon class="chdK
ChdK" points="155,25 166,25 166,10 196,40 166,70 166,55 155,55" fill="rgb(255,255,255)" fill-opacity="1.0" stroke="rgb(0,0,0)" stroke-width="2"  />
			<g>
				<title>ketoacyl-synt (PF00109)
"Beta-ketoacyl synthase, N-terminal domain"</title>
				<rect class="PF00109" x="156" y="28" stroke-linejoin="round" width="23" height="24" fill="rgb(112,116,228)" stroke="rgb(89,92,182)" stroke-width="1" opacity="0.75" />
			</g>
			<g>
				<title>Ketoacyl-synt_C (PF02801)
"Beta-ketoacyl synthase, C-terminal domain"</title>
				<polygon class="PF02801" points="181,29 192,40 192,40 181,51" stroke-linejoin="round" width="11" height="24" fill="rgb(215,78,102)" stroke="rgb(172,62,81)" stroke-width="1" opacity="0.75" />
			</g>
		</g>
		<g>
			<title>chdS
ChdS</title>
			<polygon class="chdS
ChdS" points="198,10 206,40 198,70" fill="rgb(255,255,255)" fill-opacity="1.0" stroke="rgb(0,0,0)" stroke-width="2"  />
			<g>
				<title>PP-binding (PF00550)
"Phosphopantetheine attachment site"</title>
				<polygon class="PF00550" points="198,28 199,28 203,40 199,52 198,52" stroke-linejoin="round" width="7" height="24" fill="rgb(103,191,88)" stroke="rgb(82,152,70)" stroke-width="1" opacity="0.75" />
			</g>
		</g>
		<g>
			<title>chdQI
ChdQI</title>
			<polygon class="chdQI
ChdQI" points="238,25 238,25 238,10 208,40 238,70 238,55 238,55" fill="rgb(255,255,255)" fill-opacity="1.0" stroke="rgb(0,0,0)" stroke-width="2"  />
			<g>
				<title>Polyketide_cyc2 (PF10604)
"Polyketide cyclase / dehydrase and lipid transport"</title>
				<polygon class="PF10604" points="223,29 224,28 237,28 237,52 224,52 223,51" stroke-linejoin="round" width="14" height="24" fill="rgb(105,204,74)" stroke="rgb(84,163,59)" stroke-width="1" opacity="0.75" />
			</g>
		</g>
		<g>
			<title>chdMII
ChdMII</title>
			<polygon class="chdMII
ChdMII" points="275,25 271,25 271,10 241,40 271,70 271,55 275,55" fill="rgb(255,255,255)" fill-opacity="1.0" stroke="rgb(0,0,0)" stroke-width="2"  />
			<g>
				<title>Methyltransf_2 (PF00891)
"O-methyltransferase domain"</title>
				<polygon class="PF00891" points="245,40 257,28 263,28 263,52 257,52" stroke-linejoin="round" width="20" height="24" fill="rgb(50,51,190)" stroke="rgb(39,40,152)" stroke-width="1" opacity="0.75" />
			</g>
			<g>
				<title>Dimerisation2 (PF16864)
"Dimerisation domain"</title>
				<rect class="PF16864" x="265" y="28" stroke-linejoin="round" width="8" height="24" fill="rgb(84,199,85)" stroke="rgb(67,159,68)" stroke-width="1" opacity="0.75" />
			</g>
		</g>
		<g>
			<title>chdGIV
ChdGIV</title>
			<polygon class="chdGIV
ChdGIV" points="281,25 291,25 291,10 321,40 291,70 291,55 281,55" fill="rgb(255,255,255)" fill-opacity="1.0" stroke="rgb(0,0,0)" stroke-width="2"  />
			<g>
				<title>DUF1205 (PF06722)
"Protein of unknown function (DUF1205)"</title>
				<polygon class="PF06722" points="299,28 304,28 308,32 308,48 304,52 299,52" stroke-linejoin="round" width="9" height="24" fill="rgb(200,129,88)" stroke="rgb(160,103,70)" stroke-width="1" opacity="0.75" />
			</g>
		</g>
		<g>
			<title>chdTn
ChdTn</title>
			<polygon class="chdTn
ChdTn" points="329,25 349,25 349,10 379,40 349,70 349,55 329,55" fill="rgb(255,255,255)" fill-opacity="1.0" stroke="rgb(0,0,0)" stroke-width="2"  />
			<g>
				<title>Nterm_IS4 (PF13006)
"Insertion element 4 transposase N-terminal"</title>
				<rect class="PF13006" x="330" y="28" stroke-linejoin="round" width="9" height="24" fill="rgb(148,213,91)" stroke="rgb(118,170,72)" stroke-width="1" opacity="0.75" />
			</g>
			<g>
				<title>DDE_Tnp_1 (PF01609)
"Transposase DDE domain"</title>
				<polygon class="PF01609" points="342,28 363,28 366,31 366,49 363,52 342,52" stroke-linejoin="round" width="24" height="24" fill="rgb(229,102,99)" stroke="rgb(183,81,79)" stroke-width="1" opacity="0.75" />
			</g>
		</g>
		<g>
			<title>chdR
ChdR</title>
			<polygon class="chdR
ChdR" points="432,25 414,25 414,10 384,40 414,70 414,55 432,55" fill="rgb(255,255,255)" fill-opacity="1.0" stroke="rgb(0,0,0)" stroke-width="2"  />
			<g>
				<title>MFS_1 (PF07690)
"Major Facilitator Superfamily"</title>
				<polygon class="PF07690" points="390,38 400,28 429,28 429,52 400,52 390,42" stroke-linejoin="round" width="39" height="24" fill="rgb(193,224,74)" stroke="rgb(154,179,59)" stroke-width="1" opacity="0.75" />
			</g>
		</g>
		<g>
			<title>chdA
ChdA</title>
			<polygon class="chdA
ChdA" points="437,10 456,40 437,70" fill="rgb(255,255,255)" fill-opacity="1.0" stroke="rgb(0,0,0)" stroke-width="2"  />
			<g>
				<title>TetR_N (PF00440)
"Bacterial regulatory proteins, tetR family"</title>
				<rect class="PF00440" x="437" y="28" stroke-linejoin="round" width="4" height="24" fill="rgb(73,212,190)" stroke="rgb(58,169,152)" stroke-width="1" opacity="0.75" />
			</g>
			<g>
				<title>TetR_C_1 (PF02909)
"Tetracyclin repressor-like, C-terminal domain"</title>
				<polygon class="PF02909" points="443,28 444,28 452,40 452,40 444,52 443,52" stroke-linejoin="round" width="9" height="24" fill="rgb(151,203,75)" stroke="rgb(120,162,60)" stroke-width="1" opacity="0.75" />
			</g>
		</g>
		<g>
			<title>chdN
ChdN</title>
			<polygon class="chdN
ChdN" points="501,25 487,25 487,10 457,40 487,70 487,55 501,55" fill="rgb(255,255,255)" fill-opacity="1.0" stroke="rgb(0,0,0)" stroke-width="2"  />
			<g>
				<title>Aminotran_1_2 (PF00155)
"Aminotransferase class I and II"</title>
				<polygon class="PF00155" points="461,40 473,28 494,28 494,52 473,52" stroke-linejoin="round" width="36" height="24" fill="rgb(89,113,198)" stroke="rgb(71,90,158)" stroke-width="1" opacity="0.75" />
			</g>
		</g>
		<g>
			<title>chdOI
ChdOI</title>
			<polygon class="chdOI
ChdOI" points="506,25 516,25 516,10 546,40 516,70 516,55 506,55" fill="rgb(255,255,255)" fill-opacity="1.0" stroke="rgb(0,0,0)" stroke-width="2"  />
			<g>
				<title>FAD_binding_3 (PF01494)
"FAD binding domain"</title>
				<polygon class="PF01494" points="506,28 530,28 539,37 539,43 530,52 506,52" stroke-linejoin="round" width="33" height="24" fill="rgb(182,175,59)" stroke="rgb(145,140,47)" stroke-width="1" opacity="0.75" />
			</g>
		</g>
		<g>
			<title>chdMI
ChdMI</title>
			<polygon class="chdMI
ChdMI" points="581,25 577,25 577,10 547,40 577,70 577,55 581,55" fill="rgb(255,255,255)" fill-opacity="1.0" stroke="rgb(0,0,0)" stroke-width="2"  />
			<g>
				<title>Methyltransf_2 (PF00891)
"O-methyltransferase domain"</title>
				<polygon class="PF00891" points="551,40 563,28 569,28 569,52 563,52" stroke-linejoin="round" width="20" height="24" fill="rgb(50,51,190)" stroke="rgb(39,40,152)" stroke-width="1" opacity="0.75" />
			</g>
		</g>
		<g>
			<title>chdOIII
ChdOIII</title>
			<polygon class="chdOIII
ChdOIII" points="583,40 592,10 592,70" fill="rgb(255,255,255)" fill-opacity="1.0" stroke="rgb(0,0,0)" stroke-width="2"  />
		</g>
		<g>
			<title>chdL
ChdL</title>
			<polygon class="chdL
ChdL" points="647,25 613,25 613,10 583,40 613,70 613,55 647,55" fill="rgb(255,255,255)" fill-opacity="1.0" stroke="rgb(0,0,0)" stroke-width="2"  />
			<g>
				<title>ABM (PF03992)
"Antibiotic biosynthesis monooxygenase"</title>
				<polygon class="PF03992" points="587,40 592,35 592,45" stroke-linejoin="round" width="7" height="24" fill="rgb(193,84,127)" stroke="rgb(154,67,101)" stroke-width="1" opacity="0.75" />
			</g>
			<g>
				<title>AMP-binding_C (PF13193)
"AMP-binding enzyme C-terminal domain"</title>
				<polygon class="PF13193" points="595,32 599,28 602,28 602,52 599,52 595,48" stroke-linejoin="round" width="7" height="24" fill="rgb(182,50,118)" stroke="rgb(145,39,94)" stroke-width="1" opacity="0.75" />
			</g>
			<g>
				<title>AMP-binding (PF00501)
"AMP-binding enzyme"</title>
				<rect class="PF00501" x="603" y="28" stroke-linejoin="round" width="40" height="24" fill="rgb(60,217,223)" stroke="rgb(48,173,178)" stroke-width="1" opacity="0.75" />
			</g>
		</g>
		<g>
			<title>chdX
ChdX</title>
			<polygon class="chdX
ChdX" points="649,40 664,10 664,70" fill="rgb(255,255,255)" fill-opacity="1.0" stroke="rgb(0,0,0)" stroke-width="2"  />
			<g>
				<title>SnoaL_4 (PF13577)
"SnoaL-like domain"</title>
				<polygon class="PF13577" points="652,40 658,28 662,28 662,52 658,52" stroke-linejoin="round" width="12" height="24" fill="rgb(68,223,209)" stroke="rgb(54,178,167)" stroke-width="1" opacity="0.75" />
			</g>
		</g>
		<g>
			<title>chdT
ChdT</title>
			<polygon class="chdT
ChdT" points="669,10 695,40 669,70" fill="rgb(255,255,255)" fill-opacity="1.0" stroke="rgb(0,0,0)" stroke-width="2"  />
			<g>
				<title>adh_short (PF00106)
"short chain dehydrogenase"</title>
				<polygon class="PF00106" points="669,28 681,28 688,37 688,43 681,52 669,52" stroke-linejoin="round" width="19" height="24" fill="rgb(182,219,73)" stroke="rgb(145,175,58)" stroke-width="1" opacity="0.75" />
			</g>
		</g>
		<g>
			<title>chdQII
ChdQII</title>
			<polygon class="chdQII
ChdQII" points="696,25 697,25 697,10 727,40 697,70 697,55 696,55" fill="rgb(255,255,255)" fill-opacity="1.0" stroke="rgb(0,0,0)" stroke-width="2"  />
			<g>
				<title>Polyketide_cyc2 (PF10604)
"Polyketide cyclase / dehydrase and lipid transport"</title>
				<rect class="PF10604" x="696" y="28" stroke-linejoin="round" width="14" height="24" fill="rgb(105,204,74)" stroke="rgb(84,163,59)" stroke-width="1" opacity="0.75" />
			</g>
			<g>
				<title>Polyketide_cyc2 (PF10604)
"Polyketide cyclase / dehydrase and lipid transport"</title>
				<polygon class="PF10604" points="711,28 711,28 723,40 711,52 711,52" stroke-linejoin="round" width="15" height="24" fill="rgb(105,204,74)" stroke="rgb(84,163,59)" stroke-width="1" opacity="0.75" />
			</g>
		</g>
		<g>
			<title>chdOII
ChdOII</title>
			<polygon class="chdOII
ChdOII" points="728,25 740,25 740,10 770,40 740,70 740,55 728,55" fill="rgb(255,255,255)" fill-opacity="1.0" stroke="rgb(0,0,0)" stroke-width="2"  />
			<g>
				<title>FAD_binding_3 (PF01494)
"FAD binding domain"</title>
				<rect class="PF01494" x="728" y="28" stroke-linejoin="round" width="22" height="24" fill="rgb(182,175,59)" stroke="rgb(145,140,47)" stroke-width="1" opacity="0.75" />
			</g>
		</g>
	</g>
</svg>
