<svg version="1.1" baseProfile="full" xmlns="http://www.w3.org/2000/svg" width="1287.5" height="80">
	<g>
		<line x1="10" y1="40.0" x2="1277.5" y2="40.0" style="stroke:rgb(70,70,70); stroke-width:3 "/>
		<g>
			<title> (B033_RS0101505)
glucose-1-phosphate thymidylyltransferase</title>
			<polygon class=" (B033_RS0101505)
glucose-1-phosphate thymidylyltransferase" points="10,10 39,40 10,70" fill="rgb(255,255,255)" fill-opacity="1.0" stroke="rgb(0,0,0)" stroke-width="2"  />
			<g>
				<title>NTP_transferase (PF00483)
"Nucleotidyl transferase"</title>
				<polygon class="PF00483" points="10,28 23,28 33,38 33,42 23,52 10,52" stroke-linejoin="round" width="23" height="24" fill="rgb(198,101,87)" stroke="rgb(158,80,69)" stroke-width="1" opacity="0.75" />
			</g>
		</g>
		<g>
			<title> (B033_RS27985)
dTDP-4-keto-6-deoxy-D-glucose epimerase</title>
			<polygon class=" (B033_RS27985)
dTDP-4-keto-6-deoxy-D-glucose epimerase" points="40,10 61,40 40,70" fill="rgb(255,255,255)" fill-opacity="1.0" stroke="rgb(0,0,0)" stroke-width="2"  />
			<g>
				<title>dTDP_sugar_isom (PF00908)
"dTDP-4-dehydrorhamnose 3,5-epimerase"</title>
				<polygon class="PF00908" points="40,28 49,28 57,39 57,41 49,52 40,52" stroke-linejoin="round" width="17" height="24" fill="rgb(184,89,121)" stroke="rgb(147,71,96)" stroke-width="1" opacity="0.75" />
			</g>
		</g>
		<g>
			<title> (B033_RS0101515)
winged helix-turn-helix transcriptional regulator</title>
			<polygon class=" (B033_RS0101515)
winged helix-turn-helix transcriptional regulator" points="60,40 77,10 77,70" fill="rgb(255,255,255)" fill-opacity="1.0" stroke="rgb(0,0,0)" stroke-width="2"  />
			<g>
				<title>MarR_2 (PF12802)
"MarR family"</title>
				<polygon class="PF12802" points="65,36 70,28 72,28 72,52 70,52 65,44" stroke-linejoin="round" width="7" height="24" fill="rgb(46,89,185)" stroke="rgb(36,71,148)" stroke-width="1" opacity="0.75" />
			</g>
		</g>
		<g>
			<title> (B033_RS0101520)
ABC transporter</title>
			<polygon class=" (B033_RS0101520)
ABC transporter" points="82,25 83,25 83,10 113,40 83,70 83,55 82,55" fill="rgb(255,255,255)" fill-opacity="1.0" stroke="rgb(0,0,0)" stroke-width="2"  />
			<g>
				<title>ABC_tran (PF00005)
"ABC transporter"</title>
				<polygon class="PF00005" points="84,28 97,28 98,29 98,51 97,52 84,52" stroke-linejoin="round" width="14" height="24" fill="rgb(129,201,63)" stroke="rgb(103,160,50)" stroke-width="1" opacity="0.75" />
			</g>
		</g>
		<g>
			<title> (B033_RS0101525)
ABC transporter permease</title>
			<polygon class=" (B033_RS0101525)
ABC transporter permease" points="114,10 141,40 114,70" fill="rgb(255,255,255)" fill-opacity="1.0" stroke="rgb(0,0,0)" stroke-width="2"  />
			<g>
				<title>ABC2_membrane (PF01061)
"ABC-2 type transporter"</title>
				<polygon class="PF01061" points="116,28 125,28 137,40 137,40 125,52 116,52" stroke-linejoin="round" width="21" height="24" fill="rgb(139,217,106)" stroke="rgb(111,173,84)" stroke-width="1" opacity="0.75" />
			</g>
		</g>
		<g>
			<title> (B033_RS0101530)
class I SAM-dependent methyltransferase</title>
			<polygon class=" (B033_RS0101530)
class I SAM-dependent methyltransferase" points="146,40 170,10 170,70" fill="rgb(255,255,255)" fill-opacity="1.0" stroke="rgb(0,0,0)" stroke-width="2"  />
			<g>
				<title>Methyltransf_25 (PF13649)
"Methyltransferase domain"</title>
				<polygon class="PF13649" points="156,33 160,28 165,28 165,52 160,52 156,47" stroke-linejoin="round" width="9" height="24" fill="rgb(227,135,74)" stroke="rgb(181,108,59)" stroke-width="1" opacity="0.75" />
			</g>
		</g>
		<g>
			<title> (B033_RS0101535)
DegT/DnrJ/EryC1/StrS family aminotransferase</title>
			<polygon class=" (B033_RS0101535)
DegT/DnrJ/EryC1/StrS family aminotransferase" points="209,25 201,25 201,10 171,40 201,70 201,55 209,55" fill="rgb(255,255,255)" fill-opacity="1.0" stroke="rgb(0,0,0)" stroke-width="2"  />
			<g>
				<title>DegT_DnrJ_EryC1 (PF01041)
"DegT/DnrJ/EryC1/StrS aminotransferase family"</title>
				<polygon class="PF01041" points="175,40 187,28 208,28 208,52 187,52" stroke-linejoin="round" width="36" height="24" fill="rgb(59,139,191)" stroke="rgb(47,111,152)" stroke-width="1" opacity="0.75" />
			</g>
		</g>
		<g>
			<title> (B033_RS27990)
lipopolysaccharide biosynthesis protein RfbH</title>
			<polygon class=" (B033_RS27990)
lipopolysaccharide biosynthesis protein RfbH" points="254,25 239,25 239,10 209,40 239,70 239,55 254,55" fill="rgb(255,255,255)" fill-opacity="1.0" stroke="rgb(0,0,0)" stroke-width="2"  />
			<g>
				<title>DegT_DnrJ_EryC1 (PF01041)
"DegT/DnrJ/EryC1/StrS aminotransferase family"</title>
				<polygon class="PF01041" points="213,40 225,28 249,28 249,52 225,52" stroke-linejoin="round" width="38" height="24" fill="rgb(59,139,191)" stroke="rgb(47,111,152)" stroke-width="1" opacity="0.75" />
			</g>
		</g>
		<g>
			<title> (B033_RS0101545)
hypothetical protein</title>
			<polygon class=" (B033_RS0101545)
hypothetical protein" points="294,25 284,25 284,10 254,40 284,70 284,55 294,55" fill="rgb(255,255,255)" fill-opacity="1.0" stroke="rgb(0,0,0)" stroke-width="2"  />
		</g>
		<g>
			<title> (B033_RS27995)
hypothetical protein</title>
			<polygon class=" (B033_RS27995)
hypothetical protein" points="335,25 327,25 327,10 297,40 327,70 327,55 335,55" fill="rgb(255,255,255)" fill-opacity="1.0" stroke="rgb(0,0,0)" stroke-width="2"  />
			<g>
				<title>MycE_N (PF17843)
"MycE methyltransferase N-terminal"</title>
				<rect class="PF17843" x="323" y="28" stroke-linejoin="round" width="11" height="24" fill="rgb(83,185,170)" stroke="rgb(66,148,136)" stroke-width="1" opacity="0.75" />
			</g>
		</g>
		<g>
			<title> (B033_RS0101555)
activator-dependent family glycosyltransferase</title>
			<polygon class=" (B033_RS0101555)
activator-dependent family glycosyltransferase" points="344,25 355,25 355,10 385,40 355,70 355,55 344,55" fill="rgb(255,255,255)" fill-opacity="1.0" stroke="rgb(0,0,0)" stroke-width="2"  />
			<g>
				<title>DUF1205 (PF06722)
"Protein of unknown function (DUF1205)"</title>
				<polygon class="PF06722" points="363,28 368,28 372,32 372,48 368,52 363,52" stroke-linejoin="round" width="9" height="24" fill="rgb(200,129,88)" stroke="rgb(160,103,70)" stroke-width="1" opacity="0.75" />
			</g>
		</g>
		<g>
			<title> (B033_RS28000)
M20/M25/M40 family metallo-hydrolase</title>
			<polygon class=" (B033_RS28000)
M20/M25/M40 family metallo-hydrolase" points="385,25 404,25 404,10 434,40 404,70 404,55 385,55" fill="rgb(255,255,255)" fill-opacity="1.0" stroke="rgb(0,0,0)" stroke-width="2"  />
			<g>
				<title>Peptidase_M20 (PF01546)
"Peptidase family M20/M25/M40"</title>
				<polygon class="PF01546" points="392,28 417,28 429,40 417,52 392,52" stroke-linejoin="round" width="38" height="24" fill="rgb(88,213,108)" stroke="rgb(70,170,86)" stroke-width="1" opacity="0.75" />
			</g>
		</g>
		<g>
			<title> (B033_RS0101565)
hypothetical protein</title>
			<polygon class=" (B033_RS0101565)
hypothetical protein" points="432,40 443,10 443,70" fill="rgb(255,255,255)" fill-opacity="1.0" stroke="rgb(0,0,0)" stroke-width="2"  />
		</g>
		<g>
			<title> (B033_RS28005)
cytochrome P450</title>
			<polygon class=" (B033_RS28005)
cytochrome P450" points="487,25 476,25 476,10 446,40 476,70 476,55 487,55" fill="rgb(255,255,255)" fill-opacity="1.0" stroke="rgb(0,0,0)" stroke-width="2"  />
			<g>
				<title>p450 (PF00067)
"Cytochrome P450"</title>
				<polygon class="PF00067" points="450,40 462,28 468,28 468,52 462,52" stroke-linejoin="round" width="20" height="24" fill="rgb(85,216,107)" stroke="rgb(68,172,85)" stroke-width="1" opacity="0.75" />
			</g>
		</g>
		<g>
			<title> (B033_RS0101575)
PIG-L family deacetylase</title>
			<polygon class=" (B033_RS0101575)
PIG-L family deacetylase" points="492,10 516,40 492,70" fill="rgb(255,255,255)" fill-opacity="1.0" stroke="rgb(0,0,0)" stroke-width="2"  />
			<g>
				<title>PIG-L (PF02585)
"GlcNAc-PI de-N-acetylase"</title>
				<polygon class="PF02585" points="493,28 503,28 506,32 506,48 503,52 493,52" stroke-linejoin="round" width="13" height="24" fill="rgb(97,215,95)" stroke="rgb(77,172,76)" stroke-width="1" opacity="0.75" />
			</g>
		</g>
		<g>
			<title> (B033_RS28010)
DUF1205 domain-containing protein</title>
			<polygon class=" (B033_RS28010)
DUF1205 domain-containing protein" points="555,25 547,25 547,10 517,40 547,70 547,55 555,55" fill="rgb(255,255,255)" fill-opacity="1.0" stroke="rgb(0,0,0)" stroke-width="2"  />
			<g>
				<title>DUF1205 (PF06722)
"Protein of unknown function (DUF1205)"</title>
				<polygon class="PF06722" points="528,33 533,28 537,28 537,52 533,52 528,47" stroke-linejoin="round" width="9" height="24" fill="rgb(200,129,88)" stroke="rgb(160,103,70)" stroke-width="1" opacity="0.75" />
			</g>
		</g>
		<g>
			<title> (B033_RS0101585)
aldo/keto reductase</title>
			<polygon class=" (B033_RS0101585)
aldo/keto reductase" points="588,25 586,25 586,10 556,40 586,70 586,55 588,55" fill="rgb(255,255,255)" fill-opacity="1.0" stroke="rgb(0,0,0)" stroke-width="2"  />
			<g>
				<title>Aldo_ket_red (PF00248)
"Aldo/keto reductase family"</title>
				<polygon class="PF00248" points="560,40 572,28 587,28 587,52 572,52" stroke-linejoin="round" width="29" height="24" fill="rgb(225,205,58)" stroke="rgb(180,164,46)" stroke-width="1" opacity="0.75" />
			</g>
		</g>
		<g>
			<title> (B033_RS30560)
hypothetical protein</title>
			<polygon class=" (B033_RS30560)
hypothetical protein" points="587,10 607,40 587,70" fill="rgb(255,255,255)" fill-opacity="1.0" stroke="rgb(0,0,0)" stroke-width="2"  />
			<g>
				<title>Dimerisation2 (PF16864)
"Dimerisation domain"</title>
				<polygon class="PF16864" points="599,33 604,40 599,47" stroke-linejoin="round" width="8" height="24" fill="rgb(84,199,85)" stroke="rgb(67,159,68)" stroke-width="1" opacity="0.75" />
			</g>
		</g>
		<g>
			<title> (B033_RS0101590)
hypothetical protein</title>
			<polygon class=" (B033_RS0101590)
hypothetical protein" points="608,10 632,40 608,70" fill="rgb(255,255,255)" fill-opacity="1.0" stroke="rgb(0,0,0)" stroke-width="2"  />
			<g>
				<title>Methyltransf_2 (PF00891)
"O-methyltransferase domain"</title>
				<polygon class="PF00891" points="609,28 618,28 628,40 618,52 609,52" stroke-linejoin="round" width="21" height="24" fill="rgb(50,51,190)" stroke="rgb(39,40,152)" stroke-width="1" opacity="0.75" />
			</g>
		</g>
		<g>
			<title> (B033_RS28015)
hypothetical protein</title>
			<polygon class=" (B033_RS28015)
hypothetical protein" points="634,25 658,25 658,10 688,40 658,70 658,55 634,55" fill="rgb(255,255,255)" fill-opacity="1.0" stroke="rgb(0,0,0)" stroke-width="2"  />
			<g>
				<title>FAD_binding_3 (PF01494)
"FAD binding domain"</title>
				<rect class="PF01494" x="634" y="28" stroke-linejoin="round" width="35" height="24" fill="rgb(182,175,59)" stroke="rgb(145,140,47)" stroke-width="1" opacity="0.75" />
			</g>
		</g>
		<g>
			<title> (B033_RS28020)
AfsR/SARP family transcriptional regulator</title>
			<polygon class=" (B033_RS28020)
AfsR/SARP family transcriptional regulator" points="690,40 717,10 717,70" fill="rgb(255,255,255)" fill-opacity="1.0" stroke="rgb(0,0,0)" stroke-width="2"  />
			<g>
				<title>BTAD (PF03704)
"Bacterial transcriptional activator domain"</title>
				<polygon class="PF03704" points="694,40 705,28 706,28 706,52 705,52" stroke-linejoin="round" width="15" height="24" fill="rgb(217,89,196)" stroke="rgb(173,71,156)" stroke-width="1" opacity="0.75" />
			</g>
			<g>
				<title>Trans_reg_C (PF00486)
"Transcriptional regulatory protein, C terminal"</title>
				<rect class="PF00486" x="708" y="28" stroke-linejoin="round" width="7" height="24" fill="rgb(204,153,57)" stroke="rgb(163,122,45)" stroke-width="1" opacity="0.75" />
			</g>
		</g>
		<g>
			<title> (B033_RS28025)
TcmI family type II polyketide cyclase</title>
			<polygon class=" (B033_RS28025)
TcmI family type II polyketide cyclase" points="726,10 736,40 726,70" fill="rgb(255,255,255)" fill-opacity="1.0" stroke="rgb(0,0,0)" stroke-width="2"  />
			<g>
				<title>Cyclase_polyket (PF04673)
"Polyketide synthesis cyclase"</title>
				<polygon class="PF04673" points="726,28 729,28 733,40 729,52 726,52" stroke-linejoin="round" width="9" height="24" fill="rgb(49,187,78)" stroke="rgb(39,149,62)" stroke-width="1" opacity="0.75" />
			</g>
		</g>
		<g>
			<title> (B033_RS0101610)
hypothetical protein</title>
			<polygon class=" (B033_RS0101610)
hypothetical protein" points="737,10 750,40 737,70" fill="rgb(255,255,255)" fill-opacity="1.0" stroke="rgb(0,0,0)" stroke-width="2"  />
			<g>
				<title>Cupin_2 (PF07883)
"Cupin domain"</title>
				<polygon class="PF07883" points="741,28 741,28 747,40 741,52 741,52" stroke-linejoin="round" width="7" height="24" fill="rgb(211,192,74)" stroke="rgb(168,153,59)" stroke-width="1" opacity="0.75" />
			</g>
		</g>
		<g>
			<title> (B033_RS0101615)
polyketide cyclase</title>
			<polygon class=" (B033_RS0101615)
polyketide cyclase" points="751,10 767,40 751,70" fill="rgb(255,255,255)" fill-opacity="1.0" stroke="rgb(0,0,0)" stroke-width="2"  />
			<g>
				<title>Polyketide_cyc2 (PF10604)
"Polyketide cyclase / dehydrase and lipid transport"</title>
				<polygon class="PF10604" points="751,28 757,28 763,40 757,52 751,52" stroke-linejoin="round" width="14" height="24" fill="rgb(105,204,74)" stroke="rgb(84,163,59)" stroke-width="1" opacity="0.75" />
			</g>
		</g>
		<g>
			<title> (B033_RS28030)
antibiotic biosynthesis monooxygenase</title>
			<polygon class=" (B033_RS28030)
antibiotic biosynthesis monooxygenase" points="768,10 778,40 768,70" fill="rgb(255,255,255)" fill-opacity="1.0" stroke="rgb(0,0,0)" stroke-width="2"  />
			<g>
				<title>ABM (PF03992)
"Antibiotic biosynthesis monooxygenase"</title>
				<polygon class="PF03992" points="769,28 770,28 775,39 775,41 770,52 769,52" stroke-linejoin="round" width="6" height="24" fill="rgb(193,84,127)" stroke="rgb(154,67,101)" stroke-width="1" opacity="0.75" />
			</g>
		</g>
		<g>
			<title> (B033_RS30565)
hypothetical protein</title>
			<polygon class=" (B033_RS30565)
hypothetical protein" points="780,40 799,10 799,70" fill="rgb(255,255,255)" fill-opacity="1.0" stroke="rgb(0,0,0)" stroke-width="2"  />
			<g>
				<title>Biotin_carb_C (PF02785)
"Biotin carboxylase C-terminal domain"</title>
				<polygon class="PF02785" points="784,40 790,31 790,49" stroke-linejoin="round" width="7" height="24" fill="rgb(82,186,211)" stroke="rgb(65,148,168)" stroke-width="1" opacity="0.75" />
			</g>
		</g>
		<g>
			<title> (B033_RS0101630)
hypothetical protein</title>
			<polygon class=" (B033_RS0101630)
hypothetical protein" points="787,40 799,10 799,70" fill="rgb(255,255,255)" fill-opacity="1.0" stroke="rgb(0,0,0)" stroke-width="2"  />
		</g>
		<g>
			<title> (B033_RS28035)
AfsR/SARP family transcriptional regulator</title>
			<polygon class=" (B033_RS28035)
AfsR/SARP family transcriptional regulator" points="822,25 828,25 828,10 858,40 828,70 828,55 822,55" fill="rgb(255,255,255)" fill-opacity="1.0" stroke="rgb(0,0,0)" stroke-width="2"  />
			<g>
				<title>Trans_reg_C (PF00486)
"Transcriptional regulatory protein, C terminal"</title>
				<rect class="PF00486" x="831" y="28" stroke-linejoin="round" width="8" height="24" fill="rgb(204,153,57)" stroke="rgb(163,122,45)" stroke-width="1" opacity="0.75" />
			</g>
			<g>
				<title>BTAD (PF03704)
"Bacterial transcriptional activator domain"</title>
				<polygon class="PF03704" points="840,28 842,28 854,40 854,40 842,52 840,52" stroke-linejoin="round" width="14" height="24" fill="rgb(217,89,196)" stroke="rgb(173,71,156)" stroke-width="1" opacity="0.75" />
			</g>
		</g>
		<g>
			<title> (B033_RS0101640)
class I SAM-dependent methyltransferase</title>
			<polygon class=" (B033_RS0101640)
class I SAM-dependent methyltransferase" points="860,10 888,40 860,70" fill="rgb(255,255,255)" fill-opacity="1.0" stroke="rgb(0,0,0)" stroke-width="2"  />
			<g>
				<title>Methyltransf_31 (PF13847)
"Methyltransferase domain"</title>
				<polygon class="PF13847" points="864,28 872,28 883,39 883,41 872,52 864,52" stroke-linejoin="round" width="19" height="24" fill="rgb(214,74,181)" stroke="rgb(171,59,144)" stroke-width="1" opacity="0.75" />
			</g>
		</g>
		<g>
			<title> (B033_RS0101645)
nuclear transport factor 2 family protein</title>
			<polygon class=" (B033_RS0101645)
nuclear transport factor 2 family protein" points="893,40 911,10 911,70" fill="rgb(255,255,255)" fill-opacity="1.0" stroke="rgb(0,0,0)" stroke-width="2"  />
			<g>
				<title>SnoaL_2 (PF12680)
"SnoaL-like domain"</title>
				<polygon class="PF12680" points="896,40 903,28 904,28 904,52 903,52" stroke-linejoin="round" width="9" height="24" fill="rgb(184,69,155)" stroke="rgb(147,55,124)" stroke-width="1" opacity="0.75" />
			</g>
		</g>
		<g>
			<title> (B033_RS0101650)
DUF1772 domain-containing protein</title>
			<polygon class=" (B033_RS0101650)
DUF1772 domain-containing protein" points="909,40 924,10 924,70" fill="rgb(255,255,255)" fill-opacity="1.0" stroke="rgb(0,0,0)" stroke-width="2"  />
		</g>
		<g>
			<title> (B033_RS0101655)
cytochrome P450</title>
			<polygon class=" (B033_RS0101655)
cytochrome P450" points="931,25 942,25 942,10 972,40 942,70 942,55 931,55" fill="rgb(255,255,255)" fill-opacity="1.0" stroke="rgb(0,0,0)" stroke-width="2"  />
			<g>
				<title>p450 (PF00067)
"Cytochrome P450"</title>
				<polygon class="PF00067" points="958,30 968,40 958,50" stroke-linejoin="round" width="11" height="24" fill="rgb(85,216,107)" stroke="rgb(68,172,85)" stroke-width="1" opacity="0.75" />
			</g>
		</g>
		<g>
			<title> (B033_RS0101660)
beta-ACP synthase</title>
			<polygon class=" (B033_RS0101660)
beta-ACP synthase" points="982,25 994,25 994,10 1024,40 994,70 994,55 982,55" fill="rgb(255,255,255)" fill-opacity="1.0" stroke="rgb(0,0,0)" stroke-width="2"  />
			<g>
				<title>ketoacyl-synt (PF00109)
"Beta-ketoacyl synthase, N-terminal domain"</title>
				<rect class="PF00109" x="982" y="28" stroke-linejoin="round" width="25" height="24" fill="rgb(112,116,228)" stroke="rgb(89,92,182)" stroke-width="1" opacity="0.75" />
			</g>
			<g>
				<title>Ketoacyl-synt_C (PF02801)
"Beta-ketoacyl synthase, C-terminal domain"</title>
				<polygon class="PF02801" points="1008,28 1008,28 1019,39 1019,41 1008,52 1008,52" stroke-linejoin="round" width="11" height="24" fill="rgb(215,78,102)" stroke="rgb(172,62,81)" stroke-width="1" opacity="0.75" />
			</g>
		</g>
		<g>
			<title> (B033_RS0101665)
beta-ketoacyl synthase</title>
			<polygon class=" (B033_RS0101665)
beta-ketoacyl synthase" points="1025,25 1035,25 1035,10 1065,40 1035,70 1035,55 1025,55" fill="rgb(255,255,255)" fill-opacity="1.0" stroke="rgb(0,0,0)" stroke-width="2"  />
			<g>
				<title>ketoacyl-synt (PF00109)
"Beta-ketoacyl synthase, N-terminal domain"</title>
				<rect class="PF00109" x="1025" y="28" stroke-linejoin="round" width="24" height="24" fill="rgb(112,116,228)" stroke="rgb(89,92,182)" stroke-width="1" opacity="0.75" />
			</g>
			<g>
				<title>Ketoacyl-synt_C (PF02801)
"Beta-ketoacyl synthase, C-terminal domain"</title>
				<polygon class="PF02801" points="1050,29 1061,40 1061,40 1050,51" stroke-linejoin="round" width="11" height="24" fill="rgb(215,78,102)" stroke="rgb(172,62,81)" stroke-width="1" opacity="0.75" />
			</g>
		</g>
		<g>
			<title> (B033_RS0101670)
SDR family oxidoreductase</title>
			<polygon class=" (B033_RS0101670)
SDR family oxidoreductase" points="1068,10 1092,40 1068,70" fill="rgb(255,255,255)" fill-opacity="1.0" stroke="rgb(0,0,0)" stroke-width="2"  />
			<g>
				<title>adh_short_C2 (PF13561)
"Enoyl-(Acyl carrier protein) reductase"</title>
				<polygon class="PF13561" points="1069,28 1079,28 1088,40 1079,52 1069,52" stroke-linejoin="round" width="22" height="24" fill="rgb(73,205,127)" stroke="rgb(58,164,101)" stroke-width="1" opacity="0.75" />
			</g>
		</g>
		<g>
			<title> (B033_RS28040)
NDP-hexose 2,3-dehydratase</title>
			<polygon class=" (B033_RS28040)
NDP-hexose 2,3-dehydratase" points="1095,25 1110,25 1110,10 1140,40 1110,70 1110,55 1095,55" fill="rgb(255,255,255)" fill-opacity="1.0" stroke="rgb(0,0,0)" stroke-width="2"  />
			<g>
				<title>Hexose_dehydrat (PF03559)
"NDP-hexose 2,3-dehydratase"</title>
				<rect class="PF03559" x="1095" y="28" stroke-linejoin="round" width="20" height="24" fill="rgb(74,201,66)" stroke="rgb(59,160,52)" stroke-width="1" opacity="0.75" />
			</g>
			<g>
				<title>Hexose_dehydrat (PF03559)
"NDP-hexose 2,3-dehydratase"</title>
				<polygon class="PF03559" points="1118,28 1124,28 1136,40 1124,52 1118,52" stroke-linejoin="round" width="20" height="24" fill="rgb(74,201,66)" stroke="rgb(59,160,52)" stroke-width="1" opacity="0.75" />
			</g>
		</g>
		<g>
			<title> (B033_RS28045)
Gfo/Idh/MocA family oxidoreductase</title>
			<polygon class=" (B033_RS28045)
Gfo/Idh/MocA family oxidoreductase" points="1140,25 1143,25 1143,10 1173,40 1143,70 1143,55 1140,55" fill="rgb(255,255,255)" fill-opacity="1.0" stroke="rgb(0,0,0)" stroke-width="2"  />
			<g>
				<title>GFO_IDH_MocA (PF01408)
"Oxidoreductase family, NAD-binding Rossmann fold"</title>
				<rect class="PF01408" x="1140" y="28" stroke-linejoin="round" width="11" height="24" fill="rgb(76,117,190)" stroke="rgb(60,93,152)" stroke-width="1" opacity="0.75" />
			</g>
		</g>
		<g>
			<title> (B033_RS0101685)
acyl carrier protein</title>
			<polygon class=" (B033_RS0101685)
acyl carrier protein" points="1176,10 1184,40 1176,70" fill="rgb(255,255,255)" fill-opacity="1.0" stroke="rgb(0,0,0)" stroke-width="2"  />
			<g>
				<title>PP-binding (PF00550)
"Phosphopantetheine attachment site"</title>
				<polygon class="PF00550" points="1177,28 1177,28 1181,40 1177,52 1177,52" stroke-linejoin="round" width="6" height="24" fill="rgb(103,191,88)" stroke="rgb(82,152,70)" stroke-width="1" opacity="0.75" />
			</g>
		</g>
		<g>
			<title> (B033_RS0101690)
antibiotic biosynthesis monooxygenase</title>
			<polygon class=" (B033_RS0101690)
antibiotic biosynthesis monooxygenase" points="1185,10 1195,40 1185,70" fill="rgb(255,255,255)" fill-opacity="1.0" stroke="rgb(0,0,0)" stroke-width="2"  />
			<g>
				<title>ABM (PF03992)
"Antibiotic biosynthesis monooxygenase"</title>
				<polygon class="PF03992" points="1185,28 1188,28 1192,39 1192,41 1188,52 1185,52" stroke-linejoin="round" width="7" height="24" fill="rgb(193,84,127)" stroke="rgb(154,67,101)" stroke-width="1" opacity="0.75" />
			</g>
		</g>
		<g>
			<title> (B033_RS28050)
dTDP-glucose 4,6-dehydratase</title>
			<polygon class=" (B033_RS28050)
dTDP-glucose 4,6-dehydratase" points="1215,25 1219,25 1219,10 1249,40 1219,70 1219,55 1215,55" fill="rgb(255,255,255)" fill-opacity="1.0" stroke="rgb(0,0,0)" stroke-width="2"  />
			<g>
				<title>GDP_Man_Dehyd (PF16363)
"GDP-mannose 4,6 dehydratase"</title>
				<polygon class="PF16363" points="1215,28 1232,28 1244,40 1232,52 1215,52" stroke-linejoin="round" width="30" height="24" fill="rgb(162,221,65)" stroke="rgb(129,176,51)" stroke-width="1" opacity="0.75" />
			</g>
		</g>
		<g>
			<title> (B033_RS0101700)
dTDP-4-dehydrorhamnose reductase</title>
			<polygon class=" (B033_RS0101700)
dTDP-4-dehydrorhamnose reductase" points="1249,10 1277,40 1249,70" fill="rgb(255,255,255)" fill-opacity="1.0" stroke="rgb(0,0,0)" stroke-width="2"  />
			<g>
				<title>RmlD_sub_bind (PF04321)
"RmlD substrate binding domain"</title>
				<polygon class="PF04321" points="1249,28 1261,28 1273,40 1261,52 1249,52" stroke-linejoin="round" width="28" height="24" fill="rgb(196,203,60)" stroke="rgb(156,162,47)" stroke-width="1" opacity="0.75" />
			</g>
		</g>
	</g>
</svg>
