<svg version="1.1" baseProfile="full" xmlns="http://www.w3.org/2000/svg" width="105.1" height="80">
	<g>
		<line x1="10" y1="40.0" x2="95.1" y2="40.0" style="stroke:rgb(70,70,70); stroke-width:3 "/>
		<g>
			<title> (SGLAU_RS30635)
lasso peptide biosynthesis PqqD family chaperone</title>
			<polygon class=" (SGLAU_RS30635)
lasso peptide biosynthesis PqqD family chaperone" points="10,10 18,40 10,70" fill="rgb(255,255,255)" fill-opacity="1.0" stroke="rgb(0,0,0)" stroke-width="2"  />
			<g>
				<title>PqqD (PF05402)
"Coenzyme PQQ synthesis protein D (PqqD)"</title>
				<polygon class="PF05402" points="11,28 11,28 15,40 11,52 11,52" stroke-linejoin="round" width="6" height="24" fill="rgb(124,62,188)" stroke="rgb(99,49,150)" stroke-width="1" opacity="0.75" />
			</g>
		</g>
		<g>
			<title> (SGLAU_RS30640)
lasso peptide biosynthesis B2 protein</title>
			<polygon class=" (SGLAU_RS30640)
lasso peptide biosynthesis B2 protein" points="19,10 33,40 19,70" fill="rgb(255,255,255)" fill-opacity="1.0" stroke="rgb(0,0,0)" stroke-width="2"  />
			<g>
				<title>Transglut_core3 (PF13471)
"Transglutaminase-like superfamily"</title>
				<polygon class="PF13471" points="21,28 24,28 30,40 24,52 21,52" stroke-linejoin="round" width="11" height="24" fill="rgb(63,111,179)" stroke="rgb(50,88,143)" stroke-width="1" opacity="0.75" />
			</g>
		</g>
		<g>
			<title> (SGLAU_RS30645)
ABC transporter ATP-binding protein</title>
			<polygon class=" (SGLAU_RS30645)
ABC transporter ATP-binding protein" points="33,25 64,25 64,10 94,40 64,70 64,55 33,55" fill="rgb(255,255,255)" fill-opacity="1.0" stroke="rgb(0,0,0)" stroke-width="2"  />
			<g>
				<title>ABC_membrane (PF00664)
"ABC transporter transmembrane region"</title>
				<rect class="PF00664" x="38" y="28" stroke-linejoin="round" width="26" height="24" fill="rgb(149,226,73)" stroke="rgb(119,180,58)" stroke-width="1" opacity="0.75" />
			</g>
			<g>
				<title>ABC_tran (PF00005)
"ABC transporter"</title>
				<polygon class="PF00005" points="71,28 78,28 85,35 85,45 78,52 71,52" stroke-linejoin="round" width="14" height="24" fill="rgb(129,201,63)" stroke="rgb(103,160,50)" stroke-width="1" opacity="0.75" />
			</g>
		</g>
	</g>
</svg>
