<svg version="1.1" baseProfile="full" xmlns="http://www.w3.org/2000/svg" width="1610.1666666666667" height="80">
	<g>
		<line x1="10" y1="40.0" x2="1600.1666666666667" y2="40.0" style="stroke:rgb(70,70,70); stroke-width:3 "/>
		<g>
			<title> (C8Q69DRAFT_423248)
methyltransferase</title>
			<polygon class=" (C8Q69DRAFT_423248)
methyltransferase" points="118,25 53,25 53,10 23,40 53,70 53,55 118,55" fill="rgb(255,255,255)" fill-opacity="1.0" stroke="rgb(0,0,0)" stroke-width="2"  />
			<g>
				<title>Methyltr_RsmB-F (PF01189)
"16S rRNA methyltransferase RsmB/F"</title>
				<rect class="PF01189" x="73" y="28" stroke-linejoin="round" width="24" height="24" fill="rgb(185,52,86)" stroke="rgb(148,41,68)" stroke-width="1" opacity="0.75" />
			</g>
		</g>
		<g>
			<title> (C8Q69DRAFT_480045)
transferase family-domain-containing protein</title>
			<polygon class=" (C8Q69DRAFT_480045)
transferase family-domain-containing protein" points="207,25 190,25 190,10 160,40 190,70 190,55 207,55" fill="rgb(255,255,255)" fill-opacity="1.0" stroke="rgb(0,0,0)" stroke-width="2"  />
			<g>
				<title>Transferase (PF02458)
"Transferase family"</title>
				<polygon class="PF02458" points="164,40 176,28 193,28 193,52 176,52" stroke-linejoin="round" width="31" height="24" fill="rgb(57,117,190)" stroke="rgb(45,93,152)" stroke-width="1" opacity="0.75" />
			</g>
		</g>
		<g>
			<title> (C8Q69DRAFT_480046)
hypothetical protein</title>
			<polygon class=" (C8Q69DRAFT_480046)
hypothetical protein" points="270,25 277,25 277,10 307,40 277,70 277,55 270,55" fill="rgb(255,255,255)" fill-opacity="1.0" stroke="rgb(0,0,0)" stroke-width="2"  />
		</g>
		<g>
			<title> (C8Q69DRAFT_515044)
hypothetical protein</title>
			<polygon class=" (C8Q69DRAFT_515044)
hypothetical protein" points="345,25 341,25 341,10 311,40 341,70 341,55 345,55" fill="rgb(255,255,255)" fill-opacity="1.0" stroke="rgb(0,0,0)" stroke-width="2"  />
		</g>
		<g>
			<title> (C8Q69DRAFT_480050)
conidial pigment biosynthesis oxidase</title>
			<polygon class=" (C8Q69DRAFT_480050)
conidial pigment biosynthesis oxidase" points="515,25 466,25 466,10 436,40 466,70 466,55 515,55" fill="rgb(255,255,255)" fill-opacity="1.0" stroke="rgb(0,0,0)" stroke-width="2"  />
			<g>
				<title>Cu-oxidase_2 (PF07731)
"Multicopper oxidase"</title>
				<rect class="PF07731" x="456" y="28" stroke-linejoin="round" width="15" height="24" fill="rgb(183,55,192)" stroke="rgb(146,44,153)" stroke-width="1" opacity="0.75" />
			</g>
			<g>
				<title>Cu-oxidase (PF00394)
"Multicopper oxidase"</title>
				<rect class="PF00394" x="478" y="28" stroke-linejoin="round" width="20" height="24" fill="rgb(172,188,74)" stroke="rgb(137,150,59)" stroke-width="1" opacity="0.75" />
			</g>
			<g>
				<title>Cu-oxidase_3 (PF07732)
"Multicopper oxidase"</title>
				<rect class="PF07732" x="501" y="28" stroke-linejoin="round" width="11" height="24" fill="rgb(80,81,179)" stroke="rgb(63,64,143)" stroke-width="1" opacity="0.75" />
			</g>
		</g>
		<g>
			<title> (C8Q69DRAFT_488617)
O-methyltransferase-domain-containing protein</title>
			<polygon class=" (C8Q69DRAFT_488617)
O-methyltransferase-domain-containing protein" points="523,25 540,25 540,10 570,40 540,70 540,55 523,55" fill="rgb(255,255,255)" fill-opacity="1.0" stroke="rgb(0,0,0)" stroke-width="2"  />
			<g>
				<title>Methyltransf_2 (PF00891)
"O-methyltransferase domain"</title>
				<polygon class="PF00891" points="541,28 553,28 563,38 563,42 553,52 541,52" stroke-linejoin="round" width="22" height="24" fill="rgb(50,51,190)" stroke="rgb(39,40,152)" stroke-width="1" opacity="0.75" />
			</g>
		</g>
		<g>
			<title> (C8Q69DRAFT_510289)
Alpha/Beta hydrolase protein</title>
			<polygon class=" (C8Q69DRAFT_510289)
Alpha/Beta hydrolase protein" points="580,25 614,25 614,10 644,40 614,70 614,55 580,55" fill="rgb(255,255,255)" fill-opacity="1.0" stroke="rgb(0,0,0)" stroke-width="2"  />
			<g>
				<title>COesterase (PF00135)
"Carboxylesterase family"</title>
				<polygon class="PF00135" points="584,28 627,28 634,35 634,45 627,52 584,52" stroke-linejoin="round" width="50" height="24" fill="rgb(204,82,64)" stroke="rgb(163,65,51)" stroke-width="1" opacity="0.75" />
			</g>
		</g>
		<g>
			<title> (C8Q69DRAFT_480056)
cyclohexanone 1,2-monooxygenase-like protein</title>
			<polygon class=" (C8Q69DRAFT_480056)
cyclohexanone 1,2-monooxygenase-like protein" points="670,25 700,25 700,10 730,40 700,70 700,55 670,55" fill="rgb(255,255,255)" fill-opacity="1.0" stroke="rgb(0,0,0)" stroke-width="2"  />
			<g>
				<title>FMO-like (PF00743)
"Flavin-binding monooxygenase-like"</title>
				<rect class="PF00743" x="670" y="28" stroke-linejoin="round" width="21" height="24" fill="rgb(203,74,151)" stroke="rgb(162,59,120)" stroke-width="1" opacity="0.75" />
			</g>
		</g>
		<g>
			<title> (C8Q69DRAFT_480057)
short chain dehydrogenase/reductase</title>
			<polygon class=" (C8Q69DRAFT_480057)
short chain dehydrogenase/reductase" points="774,25 770,25 770,10 740,40 770,70 770,55 774,55" fill="rgb(255,255,255)" fill-opacity="1.0" stroke="rgb(0,0,0)" stroke-width="2"  />
			<g>
				<title>adh_short_C2 (PF13561)
"Enoyl-(Acyl carrier protein) reductase"</title>
				<polygon class="PF13561" points="744,40 756,28 756,28 756,52 756,52 744,40" stroke-linejoin="round" width="12" height="24" fill="rgb(73,205,127)" stroke="rgb(58,164,101)" stroke-width="1" opacity="0.75" />
			</g>
			<g>
				<title>adh_short (PF00106)
"short chain dehydrogenase"</title>
				<rect class="PF00106" x="758" y="28" stroke-linejoin="round" width="14" height="24" fill="rgb(182,219,73)" stroke="rgb(145,175,58)" stroke-width="1" opacity="0.75" />
			</g>
		</g>
		<g>
			<title> (C8Q69DRAFT_488624)
putative MFS transporter</title>
			<polygon class=" (C8Q69DRAFT_488624)
putative MFS transporter" points="802,25 831,25 831,10 861,40 831,70 831,55 802,55" fill="rgb(255,255,255)" fill-opacity="1.0" stroke="rgb(0,0,0)" stroke-width="2"  />
			<g>
				<title>MFS_1 (PF07690)
"Major Facilitator Superfamily"</title>
				<polygon class="PF07690" points="806,28 845,28 846,29 846,51 845,52 806,52" stroke-linejoin="round" width="40" height="24" fill="rgb(193,224,74)" stroke="rgb(154,179,59)" stroke-width="1" opacity="0.75" />
			</g>
		</g>
		<g>
			<title> (C8Q69DRAFT_105452)
hypothetical protein</title>
			<polygon class=" (C8Q69DRAFT_105452)
hypothetical protein" points="911,25 924,25 924,10 954,40 924,70 924,55 911,55" fill="rgb(255,255,255)" fill-opacity="1.0" stroke="rgb(0,0,0)" stroke-width="2"  />
			<g>
				<title>Zn_clus (PF00172)
"Fungal Zn(2)-Cys(6) binuclear cluster domain"</title>
				<rect class="PF00172" x="912" y="28" stroke-linejoin="round" width="3" height="24" fill="rgb(121,178,76)" stroke="rgb(96,142,60)" stroke-width="1" opacity="0.75" />
			</g>
			<g>
				<title>AflR (PF08493)
"Aflatoxin regulatory protein"</title>
				<polygon class="PF08493" points="935,28 938,28 944,34 944,46 938,52 935,52" stroke-linejoin="round" width="9" height="24" fill="rgb(86,63,214)" stroke="rgb(68,50,171)" stroke-width="1" opacity="0.75" />
			</g>
		</g>
		<g>
			<title> (C8Q69DRAFT_515060)
KR domain-containing protein</title>
			<polygon class=" (C8Q69DRAFT_515060)
KR domain-containing protein" points="996,25 1214,25 1214,10 1244,40 1214,70 1214,55 996,55" fill="rgb(255,255,255)" fill-opacity="1.0" stroke="rgb(0,0,0)" stroke-width="2"  />
			<g>
				<title>ketoacyl-synt (PF00109)
"Beta-ketoacyl synthase, N-terminal domain"</title>
				<rect class="PF00109" x="996" y="28" stroke-linejoin="round" width="24" height="24" fill="rgb(112,116,228)" stroke="rgb(89,92,182)" stroke-width="1" opacity="0.75" />
			</g>
			<g>
				<title>Ketoacyl-synt_C (PF02801)
"Beta-ketoacyl synthase, C-terminal domain"</title>
				<rect class="PF02801" x="1021" y="28" stroke-linejoin="round" width="11" height="24" fill="rgb(215,78,102)" stroke="rgb(172,62,81)" stroke-width="1" opacity="0.75" />
			</g>
			<g>
				<title>KAsynt_C_assoc (PF16197)
"Ketoacyl-synthetase C-terminal extension"</title>
				<rect class="PF16197" x="1033" y="28" stroke-linejoin="round" width="11" height="24" fill="rgb(240,150,172)" stroke="rgb(192,120,137)" stroke-width="1" opacity="0.75" />
			</g>
			<g>
				<title>Acyl_transf_1 (PF00698)
"Acyl transferase domain"</title>
				<rect class="PF00698" x="1047" y="28" stroke-linejoin="round" width="31" height="24" fill="rgb(59,176,209)" stroke="rgb(47,140,167)" stroke-width="1" opacity="0.75" />
			</g>
			<g>
				<title>PS-DH (PF14765)
"Polyketide synthase dehydratase"</title>
				<rect class="PF14765" x="1083" y="28" stroke-linejoin="round" width="25" height="24" fill="rgb(173,56,182)" stroke="rgb(138,44,145)" stroke-width="1" opacity="0.75" />
			</g>
			<g>
				<title>Methyltransf_12 (PF08242)
"Methyltransferase domain"</title>
				<rect class="PF08242" x="1122" y="28" stroke-linejoin="round" width="7" height="24" fill="rgb(187,59,115)" stroke="rgb(149,47,92)" stroke-width="1" opacity="0.75" />
			</g>
			<g>
				<title>ADH_zinc_N (PF00107)
"Zinc-binding dehydrogenase"</title>
				<rect class="PF00107" x="1156" y="28" stroke-linejoin="round" width="13" height="24" fill="rgb(81,108,215)" stroke="rgb(64,86,172)" stroke-width="1" opacity="0.75" />
			</g>
			<g>
				<title>KR (PF08659)
"KR domain"</title>
				<rect class="PF08659" x="1176" y="28" stroke-linejoin="round" width="17" height="24" fill="rgb(66,209,188)" stroke="rgb(52,167,150)" stroke-width="1" opacity="0.75" />
			</g>
			<g>
				<title>PP-binding (PF00550)
"Phosphopantetheine attachment site"</title>
				<rect class="PF00550" x="1207" y="28" stroke-linejoin="round" width="6" height="24" fill="rgb(103,191,88)" stroke="rgb(82,152,70)" stroke-width="1" opacity="0.75" />
			</g>
		</g>
		<g>
			<title> (C8Q69DRAFT_480069)
putative polyketide synthase</title>
			<polygon class=" (C8Q69DRAFT_480069)
putative polyketide synthase" points="1283,25 1493,25 1493,10 1523,40 1493,70 1493,55 1283,55" fill="rgb(255,255,255)" fill-opacity="1.0" stroke="rgb(0,0,0)" stroke-width="2"  />
			<g>
				<title>SAT (PF16073)
"Starter unit:ACP transacylase in aflatoxin biosynthesis"</title>
				<rect class="PF16073" x="1283" y="28" stroke-linejoin="round" width="23" height="24" fill="rgb(77,115,183)" stroke="rgb(61,91,146)" stroke-width="1" opacity="0.75" />
			</g>
			<g>
				<title>ketoacyl-synt (PF00109)
"Beta-ketoacyl synthase, N-terminal domain"</title>
				<rect class="PF00109" x="1320" y="28" stroke-linejoin="round" width="25" height="24" fill="rgb(112,116,228)" stroke="rgb(89,92,182)" stroke-width="1" opacity="0.75" />
			</g>
			<g>
				<title>Ketoacyl-synt_C (PF02801)
"Beta-ketoacyl synthase, C-terminal domain"</title>
				<rect class="PF02801" x="1346" y="28" stroke-linejoin="round" width="12" height="24" fill="rgb(215,78,102)" stroke="rgb(172,62,81)" stroke-width="1" opacity="0.75" />
			</g>
			<g>
				<title>Acyl_transf_1 (PF00698)
"Acyl transferase domain"</title>
				<rect class="PF00698" x="1373" y="28" stroke-linejoin="round" width="31" height="24" fill="rgb(59,176,209)" stroke="rgb(47,140,167)" stroke-width="1" opacity="0.75" />
			</g>
			<g>
				<title>PS-DH (PF14765)
"Polyketide synthase dehydratase"</title>
				<rect class="PF14765" x="1414" y="28" stroke-linejoin="round" width="29" height="24" fill="rgb(173,56,182)" stroke="rgb(138,44,145)" stroke-width="1" opacity="0.75" />
			</g>
			<g>
				<title>PP-binding (PF00550)
"Phosphopantetheine attachment site"</title>
				<rect class="PF00550" x="1449" y="28" stroke-linejoin="round" width="6" height="24" fill="rgb(103,191,88)" stroke="rgb(82,152,70)" stroke-width="1" opacity="0.75" />
			</g>
			<g>
				<title>PP-binding (PF00550)
"Phosphopantetheine attachment site"</title>
				<rect class="PF00550" x="1459" y="28" stroke-linejoin="round" width="6" height="24" fill="rgb(103,191,88)" stroke="rgb(82,152,70)" stroke-width="1" opacity="0.75" />
			</g>
			<g>
				<title>PP-binding (PF00550)
"Phosphopantetheine attachment site"</title>
				<rect class="PF00550" x="1472" y="28" stroke-linejoin="round" width="6" height="24" fill="rgb(103,191,88)" stroke="rgb(82,152,70)" stroke-width="1" opacity="0.75" />
			</g>
			<g>
				<title>Thioesterase (PF00975)
"Thioesterase domain"</title>
				<rect class="PF00975" x="1486" y="28" stroke-linejoin="round" width="12" height="24" fill="rgb(207,80,138)" stroke="rgb(165,63,110)" stroke-width="1" opacity="0.75" />
			</g>
		</g>
		<g>
			<title> (C8Q69DRAFT_480071)
ribulose-5-phosphate 4-epimerase</title>
			<polygon class=" (C8Q69DRAFT_480071)
ribulose-5-phosphate 4-epimerase" points="1550,25 1553,25 1553,10 1583,40 1553,70 1553,55 1550,55" fill="rgb(255,255,255)" fill-opacity="1.0" stroke="rgb(0,0,0)" stroke-width="2"  />
			<g>
				<title>Aldolase_II (PF00596)
"Class II Aldolase and Adducin N-terminal domain"</title>
				<polygon class="PF00596" points="1555,28 1566,28 1573,35 1573,45 1566,52 1555,52" stroke-linejoin="round" width="18" height="24" fill="rgb(208,130,90)" stroke="rgb(166,104,72)" stroke-width="1" opacity="0.75" />
			</g>
		</g>
	</g>
</svg>
