<svg version="1.1" baseProfile="full" xmlns="http://www.w3.org/2000/svg" width="1566.4" height="80">
	<g>
		<line x1="10" y1="40.0" x2="1556.4" y2="40.0" style="stroke:rgb(70,70,70); stroke-width:3 "/>
		<g>
			<title>
unknown</title>
			<polygon class="
unknown" points="10,40 24,10 24,70" fill="rgb(255,255,255)" fill-opacity="1.0" stroke="rgb(0,0,0)" stroke-width="2"  />
		</g>
		<g>
			<title>orfX
unknown</title>
			<polygon class="orfX
unknown" points="13,10 29,40 13,70" fill="rgb(255,255,255)" fill-opacity="1.0" stroke="rgb(0,0,0)" stroke-width="2"  />
			<g>
				<title>SPOUT_MTase (PF02590)
"Predicted SPOUT methyltransferase"</title>
				<polygon class="PF02590" points="13,28 19,28 25,40 19,52 13,52" stroke-linejoin="round" width="15" height="24" fill="rgb(187,85,81)" stroke="rgb(149,67,64)" stroke-width="1" opacity="0.75" />
			</g>
		</g>
		<g>
			<title>
unknown</title>
			<polygon class="
unknown" points="31,40 39,10 39,70" fill="rgb(255,255,255)" fill-opacity="1.0" stroke="rgb(0,0,0)" stroke-width="2"  />
		</g>
		<g>
			<title>
unknown</title>
			<polygon class="
unknown" points="33,10 39,40 33,70" fill="rgb(255,255,255)" fill-opacity="1.0" stroke="rgb(0,0,0)" stroke-width="2"  />
		</g>
		<g>
			<title>
unknown</title>
			<polygon class="
unknown" points="48,10 59,40 48,70" fill="rgb(255,255,255)" fill-opacity="1.0" stroke="rgb(0,0,0)" stroke-width="2"  />
		</g>
		<g>
			<title>
unknown</title>
			<polygon class="
unknown" points="65,10 79,40 65,70" fill="rgb(255,255,255)" fill-opacity="1.0" stroke="rgb(0,0,0)" stroke-width="2"  />
		</g>
		<g>
			<title>
unknown</title>
			<polygon class="
unknown" points="82,10 92,40 82,70" fill="rgb(255,255,255)" fill-opacity="1.0" stroke="rgb(0,0,0)" stroke-width="2"  />
		</g>
		<g>
			<title>
unknown</title>
			<polygon class="
unknown" points="93,10 121,40 93,70" fill="rgb(255,255,255)" fill-opacity="1.0" stroke="rgb(0,0,0)" stroke-width="2"  />
		</g>
		<g>
			<title>
unknown</title>
			<polygon class="
unknown" points="138,10 156,40 138,70" fill="rgb(255,255,255)" fill-opacity="1.0" stroke="rgb(0,0,0)" stroke-width="2"  />
		</g>
		<g>
			<title>
unknown</title>
			<polygon class="
unknown" points="157,10 165,40 157,70" fill="rgb(255,255,255)" fill-opacity="1.0" stroke="rgb(0,0,0)" stroke-width="2"  />
		</g>
		<g>
			<title>
unknown</title>
			<polygon class="
unknown" points="160,40 167,10 167,70" fill="rgb(255,255,255)" fill-opacity="1.0" stroke="rgb(0,0,0)" stroke-width="2"  />
		</g>
		<g>
			<title>
unknown</title>
			<polygon class="
unknown" points="165,10 176,40 165,70" fill="rgb(255,255,255)" fill-opacity="1.0" stroke="rgb(0,0,0)" stroke-width="2"  />
		</g>
		<g>
			<title>
unknown</title>
			<polygon class="
unknown" points="177,10 204,40 177,70" fill="rgb(255,255,255)" fill-opacity="1.0" stroke="rgb(0,0,0)" stroke-width="2"  />
		</g>
		<g>
			<title>
unknown</title>
			<polygon class="
unknown" points="206,10 223,40 206,70" fill="rgb(255,255,255)" fill-opacity="1.0" stroke="rgb(0,0,0)" stroke-width="2"  />
		</g>
		<g>
			<title>
site-specific recombinase</title>
			<polygon class="
site-specific recombinase" points="238,10 259,40 238,70" fill="rgb(255,255,255)" fill-opacity="1.0" stroke="rgb(0,0,0)" stroke-width="2"  />
			<g>
				<title>Resolvase (PF00239)
"Resolvase, N terminal domain"</title>
				<polygon class="PF00239" points="238,28 247,28 253,36 253,44 247,52 238,52" stroke-linejoin="round" width="15" height="24" fill="rgb(99,177,201)" stroke="rgb(79,141,160)" stroke-width="1" opacity="0.75" />
			</g>
			<g>
				<title>Recombinase (PF07508)
"Recombinase"</title>
				<polygon class="PF07508" points="256,40 255,40 256,40" stroke-linejoin="round" width="3" height="24" fill="rgb(92,198,102)" stroke="rgb(73,158,81)" stroke-width="1" opacity="0.75" />
			</g>
		</g>
		<g>
			<title>
site-specific recombinase</title>
			<polygon class="
site-specific recombinase" points="269,10 293,40 269,70" fill="rgb(255,255,255)" fill-opacity="1.0" stroke="rgb(0,0,0)" stroke-width="2"  />
		</g>
		<g>
			<title>
unknown</title>
			<polygon class="
unknown" points="298,10 309,40 298,70" fill="rgb(255,255,255)" fill-opacity="1.0" stroke="rgb(0,0,0)" stroke-width="2"  />
			<g>
				<title>SAUGI (PF06106)
"S. aureus uracil DNA glycosylase inhibitor"</title>
				<polygon class="PF06106" points="298,28 301,28 306,40 301,52 298,52" stroke-linejoin="round" width="11" height="24" fill="rgb(179,55,77)" stroke="rgb(143,44,61)" stroke-width="1" opacity="0.75" />
			</g>
		</g>
		<g>
			<title>
unknown</title>
			<polygon class="
unknown" points="312,10 324,40 312,70" fill="rgb(255,255,255)" fill-opacity="1.0" stroke="rgb(0,0,0)" stroke-width="2"  />
			<g>
				<title>DUF960 (PF06124)
"Staphylococcal protein of unknown function (DUF960)"</title>
				<polygon class="PF06124" points="312,28 315,28 320,40 315,52 312,52" stroke-linejoin="round" width="9" height="24" fill="rgb(92,227,218)" stroke="rgb(73,181,174)" stroke-width="1" opacity="0.75" />
			</g>
		</g>
		<g>
			<title>
unknown</title>
			<polygon class="
unknown" points="329,10 337,40 329,70" fill="rgb(255,255,255)" fill-opacity="1.0" stroke="rgb(0,0,0)" stroke-width="2"  />
		</g>
		<g>
			<title>
unknown</title>
			<polygon class="
unknown" points="340,40 347,10 347,70" fill="rgb(255,255,255)" fill-opacity="1.0" stroke="rgb(0,0,0)" stroke-width="2"  />
		</g>
		<g>
			<title>cap1A
type 1 capsule synthesis gene</title>
			<polygon class="cap1A
type 1 capsule synthesis gene" points="388,10 410,40 388,70" fill="rgb(255,255,255)" fill-opacity="1.0" stroke="rgb(0,0,0)" stroke-width="2"  />
			<g>
				<title>Wzz (PF02706)
"Chain length determinant protein"</title>
				<rect class="PF02706" x="388" y="28" stroke-linejoin="round" width="9" height="24" fill="rgb(184,132,90)" stroke="rgb(147,105,72)" stroke-width="1" opacity="0.75" />
			</g>
			<g>
				<title>GNVR (PF13807)
"G-rich domain on putative tyrosine kinase"</title>
				<polygon class="PF13807" points="400,32 406,40 406,40 400,48" stroke-linejoin="round" width="6" height="24" fill="rgb(77,110,190)" stroke="rgb(61,87,152)" stroke-width="1" opacity="0.75" />
			</g>
		</g>
		<g>
			<title>cap1B
type 1 capsule synthesis gene</title>
			<polygon class="cap1B
type 1 capsule synthesis gene" points="410,10 432,40 410,70" fill="rgb(255,255,255)" fill-opacity="1.0" stroke="rgb(0,0,0)" stroke-width="2"  />
			<g>
				<title>AAA_31 (PF13614)
"AAA domain"</title>
				<polygon class="PF13614" points="414,28 420,28 429,40 429,40 420,52 414,52" stroke-linejoin="round" width="15" height="24" fill="rgb(144,187,62)" stroke="rgb(115,149,49)" stroke-width="1" opacity="0.75" />
			</g>
		</g>
		<g>
			<title>cap1C
type 1 capsule synthesis gene</title>
			<polygon class="cap1C
type 1 capsule synthesis gene" points="433,10 458,40 433,70" fill="rgb(255,255,255)" fill-opacity="1.0" stroke="rgb(0,0,0)" stroke-width="2"  />
			<g>
				<title>CpsB_CapC (PF19567)
"Capsular polysaccharide synthesis, CpsB/CapC"</title>
				<polygon class="PF19567" points="433,28 444,28 454,40 444,52 433,52" stroke-linejoin="round" width="23" height="24" fill="rgb(85,99,184)" stroke="rgb(68,79,147)" stroke-width="1" opacity="0.75" />
			</g>
		</g>
		<g>
			<title>cap1D
type 1 capsule synthesis gene</title>
			<polygon class="cap1D
type 1 capsule synthesis gene" points="460,25 490,25 490,10 520,40 490,70 490,55 460,55" fill="rgb(255,255,255)" fill-opacity="1.0" stroke="rgb(0,0,0)" stroke-width="2"  />
			<g>
				<title>CoA_binding_3 (PF13727)
"CoA-binding domain"</title>
				<rect class="PF13727" x="466" y="28" stroke-linejoin="round" width="17" height="24" fill="rgb(153,200,97)" stroke="rgb(122,160,77)" stroke-width="1" opacity="0.75" />
			</g>
			<g>
				<title>Polysacc_synt_2 (PF02719)
"Polysaccharide biosynthesis protein"</title>
				<polygon class="PF02719" points="488,28 503,28 515,40 503,52 488,52" stroke-linejoin="round" width="28" height="24" fill="rgb(103,215,129)" stroke="rgb(82,172,103)" stroke-width="1" opacity="0.75" />
			</g>
		</g>
		<g>
			<title>cap1E
type 1 capsule synthesis gene</title>
			<polygon class="cap1E
type 1 capsule synthesis gene" points="521,25 535,25 535,10 565,40 535,70 535,55 521,55" fill="rgb(255,255,255)" fill-opacity="1.0" stroke="rgb(0,0,0)" stroke-width="2"  />
			<g>
				<title>O-ag_pol_Wzy (PF14296)
"O-antigen polysaccharide polymerase Wzy"</title>
				<polygon class="PF14296" points="522,28 548,28 560,40 548,52 522,52" stroke-linejoin="round" width="42" height="24" fill="rgb(151,79,184)" stroke="rgb(120,63,147)" stroke-width="1" opacity="0.75" />
			</g>
		</g>
		<g>
			<title>cap1F
type 1 capsule synthesis gene</title>
			<polygon class="cap1F
type 1 capsule synthesis gene" points="565,25 574,25 574,10 604,40 574,70 574,55 565,55" fill="rgb(255,255,255)" fill-opacity="1.0" stroke="rgb(0,0,0)" stroke-width="2"  />
			<g>
				<title>Polysacc_synt (PF01943)
"Polysaccharide biosynthesis protein"</title>
				<polygon class="PF01943" points="565,28 588,28 591,31 591,49 588,52 565,52" stroke-linejoin="round" width="26" height="24" fill="rgb(71,213,101)" stroke="rgb(56,170,80)" stroke-width="1" opacity="0.75" />
			</g>
		</g>
		<g>
			<title>cap1G
type 1 capsule synthesis gene</title>
			<polygon class="cap1G
type 1 capsule synthesis gene" points="605,10 622,40 605,70" fill="rgb(255,255,255)" fill-opacity="1.0" stroke="rgb(0,0,0)" stroke-width="2"  />
			<g>
				<title>Hexapep_2 (PF14602)
"Hexapeptide repeat of succinyl-transferase"</title>
				<polygon class="PF14602" points="613,30 616,36 616,44 613,50" stroke-linejoin="round" width="3" height="24" fill="rgb(79,205,115)" stroke="rgb(63,164,92)" stroke-width="1" opacity="0.75" />
			</g>
		</g>
		<g>
			<title>cap1H
type 1 capsule synthesis gene</title>
			<polygon class="cap1H
type 1 capsule synthesis gene" points="622,25 627,25 627,10 657,40 627,70 627,55 622,55" fill="rgb(255,255,255)" fill-opacity="1.0" stroke="rgb(0,0,0)" stroke-width="2"  />
			<g>
				<title>Glyco_transf_4 (PF13439)
"Glycosyltransferase Family 4"</title>
				<rect class="PF13439" x="623" y="28" stroke-linejoin="round" width="16" height="24" fill="rgb(162,57,186)" stroke="rgb(129,45,148)" stroke-width="1" opacity="0.75" />
			</g>
			<g>
				<title>Glycos_transf_1 (PF00534)
"Glycosyl transferases group 1"</title>
				<polygon class="PF00534" points="639,28 641,28 653,40 641,52 639,52" stroke-linejoin="round" width="16" height="24" fill="rgb(228,92,150)" stroke="rgb(182,73,119)" stroke-width="1" opacity="0.75" />
			</g>
		</g>
		<g>
			<title>cap1I
type 1 capsule synthesis gene</title>
			<polygon class="cap1I
type 1 capsule synthesis gene" points="658,25 661,25 661,10 691,40 661,70 661,55 658,55" fill="rgb(255,255,255)" fill-opacity="1.0" stroke="rgb(0,0,0)" stroke-width="2"  />
			<g>
				<title>Epimerase (PF01370)
"NAD dependent epimerase/dehydratase family"</title>
				<polygon class="PF01370" points="658,28 675,28 683,36 683,44 675,52 658,52" stroke-linejoin="round" width="25" height="24" fill="rgb(98,102,214)" stroke="rgb(78,81,171)" stroke-width="1" opacity="0.75" />
			</g>
		</g>
		<g>
			<title>cap1J
type 1 capsule synthesis gene</title>
			<polygon class="cap1J
type 1 capsule synthesis gene" points="692,25 701,25 701,10 731,40 701,70 701,55 692,55" fill="rgb(255,255,255)" fill-opacity="1.0" stroke="rgb(0,0,0)" stroke-width="2"  />
			<g>
				<title>Glycos_transf_1 (PF00534)
"Glycosyl transferases group 1"</title>
				<polygon class="PF00534" points="710,28 714,28 726,40 726,40 714,52 710,52" stroke-linejoin="round" width="16" height="24" fill="rgb(228,92,150)" stroke="rgb(182,73,119)" stroke-width="1" opacity="0.75" />
			</g>
		</g>
		<g>
			<title>cap1K
type 1 capsule synthesis gene</title>
			<polygon class="cap1K
type 1 capsule synthesis gene" points="731,25 746,25 746,10 776,40 746,70 746,55 731,55" fill="rgb(255,255,255)" fill-opacity="1.0" stroke="rgb(0,0,0)" stroke-width="2"  />
		</g>
		<g>
			<title>cap1L
type 1 capsule synthesis gene</title>
			<polygon class="cap1L
type 1 capsule synthesis gene" points="777,25 789,25 789,10 819,40 789,70 789,55 777,55" fill="rgb(255,255,255)" fill-opacity="1.0" stroke="rgb(0,0,0)" stroke-width="2"  />
			<g>
				<title>UDPG_MGDP_dh_N (PF03721)
"UDP-glucose/GDP-mannose dehydrogenase family, NAD binding domain"</title>
				<rect class="PF03721" x="777" y="28" stroke-linejoin="round" width="17" height="24" fill="rgb(156,194,58)" stroke="rgb(124,155,46)" stroke-width="1" opacity="0.75" />
			</g>
			<g>
				<title>UDPG_MGDP_dh (PF00984)
"UDP-glucose/GDP-mannose dehydrogenase family, central domain"</title>
				<polygon class="PF00984" points="796,28 803,28 805,30 805,50 803,52 796,52" stroke-linejoin="round" width="9" height="24" fill="rgb(69,189,184)" stroke="rgb(55,151,147)" stroke-width="1" opacity="0.75" />
			</g>
			<g>
				<title>UDPG_MGDP_dh_C (PF03720)
"UDP-glucose/GDP-mannose dehydrogenase family, UDP binding domain"</title>
				<polygon class="PF03720" points="808,33 815,40 808,47" stroke-linejoin="round" width="9" height="24" fill="rgb(221,130,74)" stroke="rgb(176,103,59)" stroke-width="1" opacity="0.75" />
			</g>
		</g>
		<g>
			<title>cap1M
type 1 capsule synthesis gene</title>
			<polygon class="cap1M
type 1 capsule synthesis gene" points="820,25 828,25 828,10 858,40 828,70 828,55 820,55" fill="rgb(255,255,255)" fill-opacity="1.0" stroke="rgb(0,0,0)" stroke-width="2"  />
			<g>
				<title>Glyco_trans_4_2 (PF13477)
"Glycosyl transferase 4-like"</title>
				<rect class="PF13477" x="820" y="28" stroke-linejoin="round" width="14" height="24" fill="rgb(190,91,205)" stroke="rgb(152,72,164)" stroke-width="1" opacity="0.75" />
			</g>
			<g>
				<title>Glycos_transf_1 (PF00534)
"Glycosyl transferases group 1"</title>
				<polygon class="PF00534" points="838,28 841,28 853,40 841,52 838,52" stroke-linejoin="round" width="17" height="24" fill="rgb(228,92,150)" stroke="rgb(182,73,119)" stroke-width="1" opacity="0.75" />
			</g>
		</g>
		<g>
			<title>cap1N
type 8 capsule synthesis gene</title>
			<polygon class="cap1N
type 8 capsule synthesis gene" points="858,10 876,40 858,70" fill="rgb(255,255,255)" fill-opacity="1.0" stroke="rgb(0,0,0)" stroke-width="2"  />
			<g>
				<title>Bac_transf (PF02397)
"Bacterial sugar transferase"</title>
				<polygon class="PF02397" points="858,28 865,28 873,40 865,52 858,52" stroke-linejoin="round" width="17" height="24" fill="rgb(57,165,209)" stroke="rgb(45,131,167)" stroke-width="1" opacity="0.75" />
			</g>
		</g>
		<g>
			<title>cap1O
type 8 capsule synthesis gene</title>
			<polygon class="cap1O
type 8 capsule synthesis gene" points="877,10 905,40 877,70" fill="rgb(255,255,255)" fill-opacity="1.0" stroke="rgb(0,0,0)" stroke-width="2"  />
			<g>
				<title>Epimerase (PF01370)
"NAD dependent epimerase/dehydratase family"</title>
				<polygon class="PF01370" points="877,28 889,28 897,36 897,44 889,52 877,52" stroke-linejoin="round" width="20" height="24" fill="rgb(98,102,214)" stroke="rgb(78,81,171)" stroke-width="1" opacity="0.75" />
			</g>
		</g>
		<g>
			<title>
unknown</title>
			<polygon class="
unknown" points="980,40 986,10 986,70" fill="rgb(255,255,255)" fill-opacity="1.0" stroke="rgb(0,0,0)" stroke-width="2"  />
		</g>
		<g>
			<title>
unknown</title>
			<polygon class="
unknown" points="984,40 1000,10 1000,70" fill="rgb(255,255,255)" fill-opacity="1.0" stroke="rgb(0,0,0)" stroke-width="2"  />
			<g>
				<title>DUF6037 (PF19503)
"Family of unknown function (DUF6037)"</title>
				<polygon class="PF19503" points="987,40 994,28 1000,28 1000,52 994,52" stroke-linejoin="round" width="14" height="24" fill="rgb(199,50,167)" stroke="rgb(159,40,133)" stroke-width="1" opacity="0.75" />
			</g>
		</g>
		<g>
			<title>
trans-Golgi membrane protein p230</title>
			<polygon class="
trans-Golgi membrane protein p230" points="1012,40 1019,10 1019,70" fill="rgb(255,255,255)" fill-opacity="1.0" stroke="rgb(0,0,0)" stroke-width="2"  />
		</g>
		<g>
			<title>
trans-Golgi membrane protein p230</title>
			<polygon class="
trans-Golgi membrane protein p230" points="1020,40 1035,10 1035,70" fill="rgb(255,255,255)" fill-opacity="1.0" stroke="rgb(0,0,0)" stroke-width="2"  />
			<g>
				<title>AAA_13 (PF13166)
"AAA domain"</title>
				<polygon class="PF13166" points="1023,40 1029,28 1033,28 1033,52 1029,52" stroke-linejoin="round" width="13" height="24" fill="rgb(102,211,211)" stroke="rgb(81,168,168)" stroke-width="1" opacity="0.75" />
			</g>
		</g>
		<g>
			<title>tnp
transposase</title>
			<polygon class="tnp
transposase" points="1043,40 1060,10 1060,70" fill="rgb(255,255,255)" fill-opacity="1.0" stroke="rgb(0,0,0)" stroke-width="2"  />
			<g>
				<title>DDE_Tnp_ISL3 (PF01610)
"Transposase"</title>
				<polygon class="PF01610" points="1046,40 1053,28 1060,28 1060,52 1053,52" stroke-linejoin="round" width="15" height="24" fill="rgb(227,129,58)" stroke="rgb(181,103,46)" stroke-width="1" opacity="0.75" />
			</g>
		</g>
		<g>
			<title>
enterotoxin-like protein</title>
			<polygon class="
enterotoxin-like protein" points="1097,10 1123,40 1097,70" fill="rgb(255,255,255)" fill-opacity="1.0" stroke="rgb(0,0,0)" stroke-width="2"  />
			<g>
				<title>Stap_Strp_toxin (PF01123)
"Staphylococcal/Streptococcal toxin, OB-fold domain"</title>
				<polygon class="PF01123" points="1101,28 1109,28 1110,30 1110,50 1109,52 1101,52" stroke-linejoin="round" width="9" height="24" fill="rgb(101,197,65)" stroke="rgb(80,157,52)" stroke-width="1" opacity="0.75" />
			</g>
			<g>
				<title>Stap_Strp_tox_C (PF02876)
"Staphylococcal/Streptococcal toxin, beta-grasp domain"</title>
				<polygon class="PF02876" points="1112,32 1119,40 1112,48" stroke-linejoin="round" width="10" height="24" fill="rgb(172,186,83)" stroke="rgb(137,148,66)" stroke-width="1" opacity="0.75" />
			</g>
		</g>
		<g>
			<title>
unknown</title>
			<polygon class="
unknown" points="1133,40 1162,10 1162,70" fill="rgb(255,255,255)" fill-opacity="1.0" stroke="rgb(0,0,0)" stroke-width="2"  />
			<g>
				<title>Dus (PF01207)
"Dihydrouridine synthase (Dus)"</title>
				<polygon class="PF01207" points="1137,40 1149,28 1159,28 1159,52 1149,52" stroke-linejoin="round" width="26" height="24" fill="rgb(178,84,152)" stroke="rgb(142,67,121)" stroke-width="1" opacity="0.75" />
			</g>
		</g>
		<g>
			<title>
unknown</title>
			<polygon class="
unknown" points="1157,10 1163,40 1157,70" fill="rgb(255,255,255)" fill-opacity="1.0" stroke="rgb(0,0,0)" stroke-width="2"  />
		</g>
		<g>
			<title>
unknown</title>
			<polygon class="
unknown" points="1172,10 1178,40 1172,70" fill="rgb(255,255,255)" fill-opacity="1.0" stroke="rgb(0,0,0)" stroke-width="2"  />
			<g>
				<title>DUF6007 (PF19470)
"Family of unknown function (DUF6007)"</title>
				<polygon class="PF19470" points="1172,28 1172,28 1175,40 1172,52 1172,52" stroke-linejoin="round" width="6" height="24" fill="rgb(107,192,227)" stroke="rgb(85,153,181)" stroke-width="1" opacity="0.75" />
			</g>
		</g>
		<g>
			<title>
unknown</title>
			<polygon class="
unknown" points="1181,10 1190,40 1181,70" fill="rgb(255,255,255)" fill-opacity="1.0" stroke="rgb(0,0,0)" stroke-width="2"  />
			<g>
				<title>TfoX_N (PF04993)
"TfoX N-terminal domain"</title>
				<polygon class="PF04993" points="1182,28 1183,28 1187,40 1183,52 1182,52" stroke-linejoin="round" width="7" height="24" fill="rgb(80,46,184)" stroke="rgb(64,36,147)" stroke-width="1" opacity="0.75" />
			</g>
		</g>
		<g>
			<title>
unknown</title>
			<polygon class="
unknown" points="1197,40 1209,10 1209,70" fill="rgb(255,255,255)" fill-opacity="1.0" stroke="rgb(0,0,0)" stroke-width="2"  />
		</g>
		<g>
			<title>
unknown</title>
			<polygon class="
unknown" points="1231,10 1242,40 1231,70" fill="rgb(255,255,255)" fill-opacity="1.0" stroke="rgb(0,0,0)" stroke-width="2"  />
			<g>
				<title>Methyltransf_31 (PF13847)
"Methyltransferase domain"</title>
				<polygon class="PF13847" points="1232,28 1234,28 1238,40 1234,52 1232,52" stroke-linejoin="round" width="9" height="24" fill="rgb(214,74,181)" stroke="rgb(171,59,144)" stroke-width="1" opacity="0.75" />
			</g>
		</g>
		<g>
			<title>
unknown</title>
			<polygon class="
unknown" points="1248,10 1255,40 1248,70" fill="rgb(255,255,255)" fill-opacity="1.0" stroke="rgb(0,0,0)" stroke-width="2"  />
		</g>
		<g>
			<title>
unknown</title>
			<polygon class="
unknown" points="1260,10 1268,40 1260,70" fill="rgb(255,255,255)" fill-opacity="1.0" stroke="rgb(0,0,0)" stroke-width="2"  />
		</g>
		<g>
			<title>
h-phosphatydylinositol phosphodiesterase precursor</title>
			<polygon class="
h-phosphatydylinositol phosphodiesterase precursor" points="1283,25 1285,25 1285,10 1315,40 1285,70 1285,55 1283,55" fill="rgb(255,255,255)" fill-opacity="1.0" stroke="rgb(0,0,0)" stroke-width="2"  />
			<g>
				<title>PI-PLC-X (PF00388)
"Phosphatidylinositol-specific phospholipase C, X domain"</title>
				<polygon class="PF00388" points="1288,28 1299,28 1302,31 1302,49 1299,52 1288,52" stroke-linejoin="round" width="14" height="24" fill="rgb(181,46,66)" stroke="rgb(144,36,52)" stroke-width="1" opacity="0.75" />
			</g>
		</g>
		<g>
			<title>
unknown</title>
			<polygon class="
unknown" points="1331,10 1349,40 1331,70" fill="rgb(255,255,255)" fill-opacity="1.0" stroke="rgb(0,0,0)" stroke-width="2"  />
			<g>
				<title>DUF576 (PF04507)
"Csa1 family"</title>
				<polygon class="PF04507" points="1331,28 1338,28 1345,40 1338,52 1331,52" stroke-linejoin="round" width="17" height="24" fill="rgb(227,109,110)" stroke="rgb(181,87,88)" stroke-width="1" opacity="0.75" />
			</g>
		</g>
		<g>
			<title>
unknown</title>
			<polygon class="
unknown" points="1343,40 1353,10 1353,70" fill="rgb(255,255,255)" fill-opacity="1.0" stroke="rgb(0,0,0)" stroke-width="2"  />
		</g>
		<g>
			<title>
unknown</title>
			<polygon class="
unknown" points="1351,10 1376,40 1351,70" fill="rgb(255,255,255)" fill-opacity="1.0" stroke="rgb(0,0,0)" stroke-width="2"  />
			<g>
				<title>DUF576 (PF04507)
"Csa1 family"</title>
				<polygon class="PF04507" points="1353,28 1362,28 1372,40 1362,52 1353,52" stroke-linejoin="round" width="22" height="24" fill="rgb(227,109,110)" stroke="rgb(181,87,88)" stroke-width="1" opacity="0.75" />
			</g>
		</g>
		<g>
			<title>
unknown</title>
			<polygon class="
unknown" points="1380,25 1389,25 1389,10 1419,40 1389,70 1389,55 1380,55" fill="rgb(255,255,255)" fill-opacity="1.0" stroke="rgb(0,0,0)" stroke-width="2"  />
			<g>
				<title>HTH_18 (PF12833)
"Helix-turn-helix domain"</title>
				<polygon class="PF12833" points="1397,28 1403,28 1404,29 1404,51 1403,52 1397,52" stroke-linejoin="round" width="7" height="24" fill="rgb(216,58,224)" stroke="rgb(172,46,179)" stroke-width="1" opacity="0.75" />
			</g>
		</g>
		<g>
			<title>
unknown</title>
			<polygon class="
unknown" points="1397,40 1404,10 1404,70" fill="rgb(255,255,255)" fill-opacity="1.0" stroke="rgb(0,0,0)" stroke-width="2"  />
		</g>
		<g>
			<title>
unknown</title>
			<polygon class="
unknown" points="1424,25 1424,25 1424,10 1454,40 1424,70 1424,55 1424,55" fill="rgb(255,255,255)" fill-opacity="1.0" stroke="rgb(0,0,0)" stroke-width="2"  />
		</g>
		<g>
			<title>
unknown</title>
			<polygon class="
unknown" points="1459,25 1468,25 1468,10 1498,40 1468,70 1468,55 1459,55" fill="rgb(255,255,255)" fill-opacity="1.0" stroke="rgb(0,0,0)" stroke-width="2"  />
			<g>
				<title>Peptidase_M20 (PF01546)
"Peptidase family M20/M25/M40"</title>
				<polygon class="PF01546" points="1466,28 1482,28 1494,40 1482,52 1466,52" stroke-linejoin="round" width="31" height="24" fill="rgb(88,213,108)" stroke="rgb(70,170,86)" stroke-width="1" opacity="0.75" />
			</g>
		</g>
		<g>
			<title>
unknown</title>
			<polygon class="
unknown" points="1498,40 1511,10 1511,70" fill="rgb(255,255,255)" fill-opacity="1.0" stroke="rgb(0,0,0)" stroke-width="2"  />
		</g>
		<g>
			<title>
unknown</title>
			<polygon class="
unknown" points="1499,10 1524,40 1499,70" fill="rgb(255,255,255)" fill-opacity="1.0" stroke="rgb(0,0,0)" stroke-width="2"  />
			<g>
				<title>MFS_1 (PF07690)
"Major Facilitator Superfamily"</title>
				<polygon class="PF07690" points="1500,28 1510,28 1520,40 1510,52 1500,52" stroke-linejoin="round" width="23" height="24" fill="rgb(193,224,74)" stroke="rgb(154,179,59)" stroke-width="1" opacity="0.75" />
			</g>
		</g>
		<g>
			<title>
unknown</title>
			<polygon class="
unknown" points="1512,40 1519,10 1519,70" fill="rgb(255,255,255)" fill-opacity="1.0" stroke="rgb(0,0,0)" stroke-width="2"  />
		</g>
		<g>
			<title>
unknown</title>
			<polygon class="
unknown" points="1523,40 1550,10 1550,70" fill="rgb(255,255,255)" fill-opacity="1.0" stroke="rgb(0,0,0)" stroke-width="2"  />
			<g>
				<title>PhoU (PF01895)
"PhoU domain"</title>
				<polygon class="PF01895" points="1527,40 1532,35 1532,45" stroke-linejoin="round" width="8" height="24" fill="rgb(88,153,182)" stroke="rgb(70,122,145)" stroke-width="1" opacity="0.75" />
			</g>
		</g>
	</g>
</svg>
