<svg version="1.1" baseProfile="full" xmlns="http://www.w3.org/2000/svg" width="217.7" height="80">
	<g>
		<line x1="10" y1="40.0" x2="207.7" y2="40.0" style="stroke:rgb(70,70,70); stroke-width:3 "/>
		<g>
			<title> (bthur0011_60820)
Radical SAM domain protein</title>
			<polygon class=" (bthur0011_60820)
Radical SAM domain protein" points="22,25 28,25 28,10 58,40 28,70 28,55 22,55" fill="rgb(255,255,255)" fill-opacity="1.0" stroke="rgb(0,0,0)" stroke-width="2"  />
			<g>
				<title>Radical_SAM (PF04055)
"Radical SAM superfamily"</title>
				<rect class="PF04055" x="23" y="28" stroke-linejoin="round" width="12" height="24" fill="rgb(149,56,222)" stroke="rgb(119,44,177)" stroke-width="1" opacity="0.75" />
			</g>
		</g>
		<g>
			<title> (bthur0011_60830)
hypothetical protein</title>
			<polygon class=" (bthur0011_60830)
hypothetical protein" points="59,25 70,25 70,10 100,40 70,70 70,55 59,55" fill="rgb(255,255,255)" fill-opacity="1.0" stroke="rgb(0,0,0)" stroke-width="2"  />
			<g>
				<title>Radical_SAM (PF04055)
"Radical SAM superfamily"</title>
				<polygon class="PF04055" points="70,28 83,28 88,33 88,47 83,52 70,52" stroke-linejoin="round" width="18" height="24" fill="rgb(149,56,222)" stroke="rgb(119,44,177)" stroke-width="1" opacity="0.75" />
			</g>
		</g>
		<g>
			<title> (bthur0011_60840)
ABC transporter</title>
			<polygon class=" (bthur0011_60840)
ABC transporter" points="101,10 130,40 101,70" fill="rgb(255,255,255)" fill-opacity="1.0" stroke="rgb(0,0,0)" stroke-width="2"  />
			<g>
				<title>ABC_tran (PF00005)
"ABC transporter"</title>
				<polygon class="PF00005" points="103,28 114,28 116,30 116,50 114,52 103,52" stroke-linejoin="round" width="13" height="24" fill="rgb(129,201,63)" stroke="rgb(103,160,50)" stroke-width="1" opacity="0.75" />
			</g>
		</g>
		<g>
			<title> (bthur0011_60850)
ABC-type transport system involved in multi-copper enzyme maturation, permease component</title>
			<polygon class=" (bthur0011_60850)
ABC-type transport system involved in multi-copper enzyme maturation, permease component" points="130,10 150,40 130,70" fill="rgb(255,255,255)" fill-opacity="1.0" stroke="rgb(0,0,0)" stroke-width="2"  />
		</g>
		<g>
			<title> (bthur0011_60860)
ABC transporter</title>
			<polygon class=" (bthur0011_60860)
ABC transporter" points="154,25 177,25 177,10 207,40 177,70 177,55 154,55" fill="rgb(255,255,255)" fill-opacity="1.0" stroke="rgb(0,0,0)" stroke-width="2"  />
			<g>
				<title>ABC_membrane (PF00664)
"ABC transporter transmembrane region"</title>
				<rect class="PF00664" x="154" y="28" stroke-linejoin="round" width="27" height="24" fill="rgb(149,226,73)" stroke="rgb(119,180,58)" stroke-width="1" opacity="0.75" />
			</g>
			<g>
				<title>ABC_tran (PF00005)
"ABC transporter"</title>
				<polygon class="PF00005" points="187,28 191,28 201,38 201,42 191,52 187,52" stroke-linejoin="round" width="14" height="24" fill="rgb(129,201,63)" stroke="rgb(103,160,50)" stroke-width="1" opacity="0.75" />
			</g>
		</g>
	</g>
</svg>
