<svg version="1.1" baseProfile="full" xmlns="http://www.w3.org/2000/svg" width="210.4" height="80">
	<g>
		<line x1="10" y1="40.0" x2="200.4" y2="40.0" style="stroke:rgb(70,70,70); stroke-width:3 "/>
		<g>
			<title> (ANIA_07998)
oxidoreductase</title>
			<polygon class=" (ANIA_07998)
oxidoreductase" points="10,25 52,25 52,10 82,40 52,70 52,55 10,55" fill="rgb(255,255,255)" fill-opacity="1.0" stroke="rgb(0,0,0)" stroke-width="2"  />
			<g>
				<title>GMC_oxred_N (PF00732)
"GMC oxidoreductase"</title>
				<rect class="PF00732" x="13" y="28" stroke-linejoin="round" width="30" height="24" fill="rgb(180,89,214)" stroke="rgb(143,71,171)" stroke-width="1" opacity="0.75" />
			</g>
			<g>
				<title>GMC_oxred_C (PF05199)
"GMC oxidoreductase"</title>
				<polygon class="PF05199" points="57,28 66,28 70,32 70,48 66,52 57,52" stroke-linejoin="round" width="13" height="24" fill="rgb(186,52,106)" stroke="rgb(148,41,84)" stroke-width="1" opacity="0.75" />
			</g>
		</g>
		<g>
			<title> (ANIA_07999)
conserved hypothetical protein</title>
			<polygon class=" (ANIA_07999)
conserved hypothetical protein" points="94,40 122,10 122,70" fill="rgb(255,255,255)" fill-opacity="1.0" stroke="rgb(0,0,0)" stroke-width="2"  />
			<g>
				<title>adh_short (PF00106)
"short chain dehydrogenase"</title>
				<polygon class="PF00106" points="99,39 104,34 104,46 99,41" stroke-linejoin="round" width="5" height="24" fill="rgb(182,219,73)" stroke="rgb(145,175,58)" stroke-width="1" opacity="0.75" />
			</g>
			<g>
				<title>adh_short (PF00106)
"short chain dehydrogenase"</title>
				<polygon class="PF00106" points="106,32 109,28 121,28 121,52 109,52 106,48" stroke-linejoin="round" width="15" height="24" fill="rgb(182,219,73)" stroke="rgb(145,175,58)" stroke-width="1" opacity="0.75" />
			</g>
		</g>
	</g>
</svg>
