<svg version="1.1" baseProfile="full" xmlns="http://www.w3.org/2000/svg" width="117.16666666666667" height="80">
	<g>
		<line x1="10" y1="40.0" x2="107.16666666666667" y2="40.0" style="stroke:rgb(70,70,70); stroke-width:3 "/>
		<g>
			<title> (SCATT_RS37815)
lasso RiPP family leader peptide-containing protein</title>
			<polygon class=" (SCATT_RS37815)
lasso RiPP family leader peptide-containing protein" points="16,10 20,40 16,70" fill="rgb(255,255,255)" fill-opacity="1.0" stroke="rgb(0,0,0)" stroke-width="2"  />
		</g>
		<g>
			<title> (SCATT_RS00340)
asparagine synthase</title>
			<polygon class=" (SCATT_RS00340)
asparagine synthase" points="23,25 53,25 53,10 83,40 53,70 53,55 23,55" fill="rgb(255,255,255)" fill-opacity="1.0" stroke="rgb(0,0,0)" stroke-width="2"  />
			<g>
				<title>Asn_synthase (PF00733)
"Asparagine synthase"</title>
				<polygon class="PF00733" points="43,28 67,28 79,40 67,52 43,52" stroke-linejoin="round" width="38" height="24" fill="rgb(97,201,176)" stroke="rgb(77,160,140)" stroke-width="1" opacity="0.75" />
			</g>
		</g>
		<g>
			<title> (SCATT_RS00345)
lasso peptide biosynthesis PqqD family chaperone</title>
			<polygon class=" (SCATT_RS00345)
lasso peptide biosynthesis PqqD family chaperone" points="84,10 92,40 84,70" fill="rgb(255,255,255)" fill-opacity="1.0" stroke="rgb(0,0,0)" stroke-width="2"  />
			<g>
				<title>PqqD (PF05402)
"Coenzyme PQQ synthesis protein D (PqqD)"</title>
				<polygon class="PF05402" points="85,28 85,28 89,40 85,52 85,52" stroke-linejoin="round" width="6" height="24" fill="rgb(124,62,188)" stroke="rgb(99,49,150)" stroke-width="1" opacity="0.75" />
			</g>
		</g>
		<g>
			<title> (SCATT_RS00350)
lasso peptide biosynthesis B2 protein</title>
			<polygon class=" (SCATT_RS00350)
lasso peptide biosynthesis B2 protein" points="92,10 106,40 92,70" fill="rgb(255,255,255)" fill-opacity="1.0" stroke="rgb(0,0,0)" stroke-width="2"  />
			<g>
				<title>Transglut_core3 (PF13471)
"Transglutaminase-like superfamily"</title>
				<polygon class="PF13471" points="94,28 97,28 103,40 97,52 94,52" stroke-linejoin="round" width="11" height="24" fill="rgb(63,111,179)" stroke="rgb(50,88,143)" stroke-width="1" opacity="0.75" />
			</g>
		</g>
	</g>
</svg>
