<svg version="1.1" baseProfile="full" xmlns="http://www.w3.org/2000/svg" width="2541.8" height="80">
	<g>
		<line x1="10" y1="40.0" x2="2531.8" y2="40.0" style="stroke:rgb(70,70,70); stroke-width:3 "/>
		<g>
			<title>NPT1
Npt1p</title>
			<polygon class="NPT1
Npt1p" points="167,25 148,25 148,10 118,40 148,70 148,55 167,55" fill="rgb(255,255,255)" fill-opacity="1.0" stroke="rgb(0,0,0)" stroke-width="2"  />
			<g>
				<title>NAPRTase (PF04095)
"Nicotinate phosphoribosyltransferase (NAPRTase) family"</title>
				<polygon class="PF04095" points="123,39 134,28 149,28 149,52 134,52 123,41" stroke-linejoin="round" width="26" height="24" fill="rgb(193,72,95)" stroke="rgb(154,57,76)" stroke-width="1" opacity="0.75" />
			</g>
			<g>
				<title>NAPRTase_N (PF17767)
"Nicotinate phosphoribosyltransferase (NAPRTase) N-terminal domain"</title>
				<rect class="PF17767" x="152" y="28" stroke-linejoin="round" width="13" height="24" fill="rgb(82,185,201)" stroke="rgb(65,147,160)" stroke-width="1" opacity="0.75" />
			</g>
		</g>
		<g>
			<title>WDR1
Wdr1p</title>
			<polygon class="WDR1
Wdr1p" points="191,25 250,25 250,10 280,40 250,70 250,55 191,55" fill="rgb(255,255,255)" fill-opacity="1.0" stroke="rgb(0,0,0)" stroke-width="2"  />
		</g>
		<g>
			<title>PNG1
Png1p</title>
			<polygon class="PNG1
Png1p" points="432,25 448,25 448,10 478,40 448,70 448,55 432,55" fill="rgb(255,255,255)" fill-opacity="1.0" stroke="rgb(0,0,0)" stroke-width="2"  />
			<g>
				<title>Rad4 (PF03835)
"Rad4 transglutaminase-like domain"</title>
				<polygon class="PF03835" points="458,28 462,28 469,35 469,45 462,52 458,52" stroke-linejoin="round" width="11" height="24" fill="rgb(192,56,184)" stroke="rgb(153,44,147)" stroke-width="1" opacity="0.75" />
			</g>
		</g>
		<g>
			<title>ZNF1
Znf1p</title>
			<polygon class="ZNF1
Znf1p" points="511,25 513,25 513,10 543,40 513,70 513,55 511,55" fill="rgb(255,255,255)" fill-opacity="1.0" stroke="rgb(0,0,0)" stroke-width="2"  />
			<g>
				<title>zf-RING_2 (PF13639)
"Ring finger domain"</title>
				<polygon class="PF13639" points="534,35 539,40 539,40 534,45" stroke-linejoin="round" width="5" height="24" fill="rgb(80,185,67)" stroke="rgb(64,148,53)" stroke-width="1" opacity="0.75" />
			</g>
		</g>
		<g>
			<title>ZBD1
Zbd1p</title>
			<polygon class="ZBD1
Zbd1p" points="571,25 579,25 579,10 609,40 579,70 579,55 571,55" fill="rgb(255,255,255)" fill-opacity="1.0" stroke="rgb(0,0,0)" stroke-width="2"  />
			<g>
				<title>ADH_N (PF08240)
"Alcohol dehydrogenase GroES-like domain"</title>
				<rect class="PF08240" x="574" y="28" stroke-linejoin="round" width="6" height="24" fill="rgb(211,65,138)" stroke="rgb(168,51,110)" stroke-width="1" opacity="0.75" />
			</g>
		</g>
		<g>
			<title>FUM21
Fum21p</title>
			<polygon class="FUM21
Fum21p" points="637,25 693,25 693,10 723,40 693,70 693,55 637,55" fill="rgb(255,255,255)" fill-opacity="1.0" stroke="rgb(0,0,0)" stroke-width="2"  />
			<g>
				<title>Zn_clus (PF00172)
"Fungal Zn(2)-Cys(6) binuclear cluster domain"</title>
				<rect class="PF00172" x="639" y="28" stroke-linejoin="round" width="3" height="24" fill="rgb(121,178,76)" stroke="rgb(96,142,60)" stroke-width="1" opacity="0.75" />
			</g>
		</g>
		<g>
			<title>FUM1
Fum1p</title>
			<polygon class="FUM1
Fum1p" points="746,25 988,25 988,10 1018,40 988,70 988,55 746,55" fill="rgb(255,255,255)" fill-opacity="1.0" stroke="rgb(0,0,0)" stroke-width="2"  />
			<g>
				<title>ketoacyl-synt (PF00109)
"Beta-ketoacyl synthase, N-terminal domain"</title>
				<rect class="PF00109" x="749" y="28" stroke-linejoin="round" width="24" height="24" fill="rgb(112,116,228)" stroke="rgb(89,92,182)" stroke-width="1" opacity="0.75" />
			</g>
			<g>
				<title>Ketoacyl-synt_C (PF02801)
"Beta-ketoacyl synthase, C-terminal domain"</title>
				<rect class="PF02801" x="774" y="28" stroke-linejoin="round" width="11" height="24" fill="rgb(215,78,102)" stroke="rgb(172,62,81)" stroke-width="1" opacity="0.75" />
			</g>
			<g>
				<title>KAsynt_C_assoc (PF16197)
"Ketoacyl-synthetase C-terminal extension"</title>
				<rect class="PF16197" x="786" y="28" stroke-linejoin="round" width="17" height="24" fill="rgb(240,150,172)" stroke="rgb(192,120,137)" stroke-width="1" opacity="0.75" />
			</g>
			<g>
				<title>Acyl_transf_1 (PF00698)
"Acyl transferase domain"</title>
				<rect class="PF00698" x="806" y="28" stroke-linejoin="round" width="32" height="24" fill="rgb(59,176,209)" stroke="rgb(47,140,167)" stroke-width="1" opacity="0.75" />
			</g>
			<g>
				<title>PS-DH (PF14765)
"Polyketide synthase dehydratase"</title>
				<rect class="PF14765" x="844" y="28" stroke-linejoin="round" width="29" height="24" fill="rgb(173,56,182)" stroke="rgb(138,44,145)" stroke-width="1" opacity="0.75" />
			</g>
			<g>
				<title>Methyltransf_12 (PF08242)
"Methyltransferase domain"</title>
				<rect class="PF08242" x="892" y="28" stroke-linejoin="round" width="10" height="24" fill="rgb(187,59,115)" stroke="rgb(149,47,92)" stroke-width="1" opacity="0.75" />
			</g>
			<g>
				<title>ADH_zinc_N_2 (PF13602)
"Zinc-binding dehydrogenase"</title>
				<rect class="PF13602" x="949" y="28" stroke-linejoin="round" width="13" height="24" fill="rgb(101,131,226)" stroke="rgb(80,104,180)" stroke-width="1" opacity="0.75" />
			</g>
			<g>
				<title>KR (PF08659)
"KR domain"</title>
				<rect class="PF08659" x="965" y="28" stroke-linejoin="round" width="17" height="24" fill="rgb(66,209,188)" stroke="rgb(52,167,150)" stroke-width="1" opacity="0.75" />
			</g>
			<g>
				<title>PP-binding (PF00550)
"Phosphopantetheine attachment site"</title>
				<rect class="PF00550" x="995" y="28" stroke-linejoin="round" width="6" height="24" fill="rgb(103,191,88)" stroke="rgb(82,152,70)" stroke-width="1" opacity="0.75" />
			</g>
		</g>
		<g>
			<title>FUM6
Fum6p</title>
			<polygon class="FUM6
Fum6p" points="1152,25 1063,25 1063,10 1033,40 1063,70 1063,55 1152,55" fill="rgb(255,255,255)" fill-opacity="1.0" stroke="rgb(0,0,0)" stroke-width="2"  />
			<g>
				<title>NAD_binding_1 (PF00175)
"Oxidoreductase NAD-binding domain"</title>
				<polygon class="PF00175" points="1045,32 1049,28 1056,28 1056,52 1049,52 1045,48" stroke-linejoin="round" width="11" height="24" fill="rgb(177,211,96)" stroke="rgb(141,168,76)" stroke-width="1" opacity="0.75" />
			</g>
			<g>
				<title>FAD_binding_1 (PF00667)
"FAD binding domain"</title>
				<rect class="PF00667" x="1062" y="28" stroke-linejoin="round" width="20" height="24" fill="rgb(145,74,201)" stroke="rgb(116,59,160)" stroke-width="1" opacity="0.75" />
			</g>
			<g>
				<title>Flavodoxin_1 (PF00258)
"Flavodoxin"</title>
				<rect class="PF00258" x="1086" y="28" stroke-linejoin="round" width="13" height="24" fill="rgb(77,169,183)" stroke="rgb(61,135,146)" stroke-width="1" opacity="0.75" />
			</g>
			<g>
				<title>p450 (PF00067)
"Cytochrome P450"</title>
				<rect class="PF00067" x="1105" y="28" stroke-linejoin="round" width="44" height="24" fill="rgb(85,216,107)" stroke="rgb(68,172,85)" stroke-width="1" opacity="0.75" />
			</g>
		</g>
		<g>
			<title>FUM7
Fum7p</title>
			<polygon class="FUM7
Fum7p" points="1170,25 1182,25 1182,10 1212,40 1182,70 1182,55 1170,55" fill="rgb(255,255,255)" fill-opacity="1.0" stroke="rgb(0,0,0)" stroke-width="2"  />
			<g>
				<title>Fe-ADH (PF00465)
"Iron-containing alcohol dehydrogenase"</title>
				<polygon class="PF00465" points="1172,28 1196,28 1208,40 1196,52 1172,52" stroke-linejoin="round" width="39" height="24" fill="rgb(73,179,216)" stroke="rgb(58,143,172)" stroke-width="1" opacity="0.75" />
			</g>
		</g>
		<g>
			<title>FUM8
Fum8p</title>
			<polygon class="FUM8
Fum8p" points="1316,25 1249,25 1249,10 1219,40 1249,70 1249,55 1316,55" fill="rgb(255,255,255)" fill-opacity="1.0" stroke="rgb(0,0,0)" stroke-width="2"  />
			<g>
				<title>Aminotran_1_2 (PF00155)
"Aminotransferase class I and II"</title>
				<rect class="PF00155" x="1267" y="28" stroke-linejoin="round" width="35" height="24" fill="rgb(89,113,198)" stroke="rgb(71,90,158)" stroke-width="1" opacity="0.75" />
			</g>
		</g>
		<g>
			<title>FUM3
Fum3p</title>
			<polygon class="FUM3
Fum3p" points="1373,25 1373,25 1373,10 1343,40 1373,70 1373,55 1373,55" fill="rgb(255,255,255)" fill-opacity="1.0" stroke="rgb(0,0,0)" stroke-width="2"  />
			<g>
				<title>PhyH (PF05721)
"Phytanoyl-CoA dioxygenase (PhyH)"</title>
				<polygon class="PF05721" points="1349,38 1359,28 1369,28 1369,52 1359,52 1349,42" stroke-linejoin="round" width="20" height="24" fill="rgb(72,132,214)" stroke="rgb(57,105,171)" stroke-width="1" opacity="0.75" />
			</g>
		</g>
		<g>
			<title>FUM10
Fum10p</title>
			<polygon class="FUM10
Fum10p" points="1389,25 1418,25 1418,10 1448,40 1418,70 1418,55 1389,55" fill="rgb(255,255,255)" fill-opacity="1.0" stroke="rgb(0,0,0)" stroke-width="2"  />
			<g>
				<title>AMP-binding (PF00501)
"AMP-binding enzyme"</title>
				<polygon class="PF00501" points="1390,28 1432,28 1433,29 1433,51 1432,52 1390,52" stroke-linejoin="round" width="43" height="24" fill="rgb(60,217,223)" stroke="rgb(48,173,178)" stroke-width="1" opacity="0.75" />
			</g>
			<g>
				<title>AMP-binding_C (PF13193)
"AMP-binding enzyme C-terminal domain"</title>
				<polygon class="PF13193" points="1435,31 1442,38 1442,42 1435,49" stroke-linejoin="round" width="7" height="24" fill="rgb(182,50,118)" stroke="rgb(145,39,94)" stroke-width="1" opacity="0.75" />
			</g>
		</g>
		<g>
			<title>FUM11
Fum11p</title>
			<polygon class="FUM11
Fum11p" points="1500,25 1492,25 1492,10 1462,40 1492,70 1492,55 1500,55" fill="rgb(255,255,255)" fill-opacity="1.0" stroke="rgb(0,0,0)" stroke-width="2"  />
			<g>
				<title>Mito_carr (PF00153)
"Mitochondrial carrier protein"</title>
				<polygon class="PF00153" points="1471,35 1478,28 1480,28 1480,52 1478,52 1471,45" stroke-linejoin="round" width="9" height="24" fill="rgb(159,187,84)" stroke="rgb(127,149,67)" stroke-width="1" opacity="0.75" />
			</g>
			<g>
				<title>Mito_carr (PF00153)
"Mitochondrial carrier protein"</title>
				<rect class="PF00153" x="1480" y="28" stroke-linejoin="round" width="9" height="24" fill="rgb(159,187,84)" stroke="rgb(127,149,67)" stroke-width="1" opacity="0.75" />
			</g>
			<g>
				<title>Mito_carr (PF00153)
"Mitochondrial carrier protein"</title>
				<rect class="PF00153" x="1490" y="28" stroke-linejoin="round" width="8" height="24" fill="rgb(159,187,84)" stroke="rgb(127,149,67)" stroke-width="1" opacity="0.75" />
			</g>
		</g>
		<g>
			<title>FUM2
Fum2p</title>
			<polygon class="FUM2
Fum2p" points="1518,25 1545,25 1545,10 1575,40 1545,70 1545,55 1518,55" fill="rgb(255,255,255)" fill-opacity="1.0" stroke="rgb(0,0,0)" stroke-width="2"  />
			<g>
				<title>p450 (PF00067)
"Cytochrome P450"</title>
				<polygon class="PF00067" points="1522,28 1559,28 1567,36 1567,44 1559,52 1522,52" stroke-linejoin="round" width="45" height="24" fill="rgb(85,216,107)" stroke="rgb(68,172,85)" stroke-width="1" opacity="0.75" />
			</g>
		</g>
		<g>
			<title>FUM13
Fum13p</title>
			<polygon class="FUM13
Fum13p" points="1604,25 1611,25 1611,10 1641,40 1611,70 1611,55 1604,55" fill="rgb(255,255,255)" fill-opacity="1.0" stroke="rgb(0,0,0)" stroke-width="2"  />
			<g>
				<title>Epimerase (PF01370)
"NAD dependent epimerase/dehydratase family"</title>
				<polygon class="PF01370" points="1604,28 1624,28 1630,34 1630,46 1624,52 1604,52" stroke-linejoin="round" width="26" height="24" fill="rgb(98,102,214)" stroke="rgb(78,81,171)" stroke-width="1" opacity="0.75" />
			</g>
		</g>
		<g>
			<title>FUM14
Fum14p</title>
			<polygon class="FUM14
Fum14p" points="1718,25 1683,25 1683,10 1653,40 1683,70 1683,55 1718,55" fill="rgb(255,255,255)" fill-opacity="1.0" stroke="rgb(0,0,0)" stroke-width="2"  />
			<g>
				<title>Condensation (PF00668)
"Condensation domain"</title>
				<polygon class="PF00668" points="1663,34 1669,28 1705,28 1705,52 1669,52 1663,46" stroke-linejoin="round" width="42" height="24" fill="rgb(224,184,98)" stroke="rgb(179,147,78)" stroke-width="1" opacity="0.75" />
			</g>
			<g>
				<title>PP-binding (PF00550)
"Phosphopantetheine attachment site"</title>
				<rect class="PF00550" x="1711" y="28" stroke-linejoin="round" width="5" height="24" fill="rgb(103,191,88)" stroke="rgb(82,152,70)" stroke-width="1" opacity="0.75" />
			</g>
		</g>
		<g>
			<title>FUM15
Fum15p</title>
			<polygon class="FUM15
Fum15p" points="1738,25 1769,25 1769,10 1799,40 1769,70 1769,55 1738,55" fill="rgb(255,255,255)" fill-opacity="1.0" stroke="rgb(0,0,0)" stroke-width="2"  />
			<g>
				<title>p450 (PF00067)
"Cytochrome P450"</title>
				<polygon class="PF00067" points="1748,28 1783,28 1795,40 1795,40 1783,52 1748,52" stroke-linejoin="round" width="47" height="24" fill="rgb(85,216,107)" stroke="rgb(68,172,85)" stroke-width="1" opacity="0.75" />
			</g>
		</g>
		<g>
			<title>FUM16
Fum16p</title>
			<polygon class="FUM16
Fum16p" points="1878,25 1834,25 1834,10 1804,40 1834,70 1834,55 1878,55" fill="rgb(255,255,255)" fill-opacity="1.0" stroke="rgb(0,0,0)" stroke-width="2"  />
			<g>
				<title>AMP-binding (PF00501)
"AMP-binding enzyme"</title>
				<rect class="PF00501" x="1823" y="28" stroke-linejoin="round" width="46" height="24" fill="rgb(60,217,223)" stroke="rgb(48,173,178)" stroke-width="1" opacity="0.75" />
			</g>
		</g>
		<g>
			<title>FUM17
Fum17p</title>
			<polygon class="FUM17
Fum17p" points="1891,25 1902,25 1902,10 1932,40 1902,70 1902,55 1891,55" fill="rgb(255,255,255)" fill-opacity="1.0" stroke="rgb(0,0,0)" stroke-width="2"  />
			<g>
				<title>TRAM1 (PF08390)
"TRAM1-like protein"</title>
				<rect class="PF08390" x="1899" y="28" stroke-linejoin="round" width="6" height="24" fill="rgb(196,80,119)" stroke="rgb(156,64,95)" stroke-width="1" opacity="0.75" />
			</g>
			<g>
				<title>TRAM_LAG1_CLN8 (PF03798)
"TLC domain"</title>
				<polygon class="PF03798" points="1906,28 1915,28 1926,39 1926,41 1915,52 1906,52" stroke-linejoin="round" width="20" height="24" fill="rgb(190,73,90)" stroke="rgb(152,58,71)" stroke-width="1" opacity="0.75" />
			</g>
		</g>
		<g>
			<title>FUM18
Fum18p</title>
			<polygon class="FUM18
Fum18p" points="1986,25 1966,25 1966,10 1936,40 1966,70 1966,55 1986,55" fill="rgb(255,255,255)" fill-opacity="1.0" stroke="rgb(0,0,0)" stroke-width="2"  />
			<g>
				<title>TRAM_LAG1_CLN8 (PF03798)
"TLC domain"</title>
				<polygon class="PF03798" points="1951,29 1952,28 1973,28 1973,52 1952,52 1951,51" stroke-linejoin="round" width="22" height="24" fill="rgb(190,73,90)" stroke="rgb(152,58,71)" stroke-width="1" opacity="0.75" />
			</g>
			<g>
				<title>TRAM1 (PF08390)
"TRAM1-like protein"</title>
				<rect class="PF08390" x="1974" y="28" stroke-linejoin="round" width="5" height="24" fill="rgb(196,80,119)" stroke="rgb(156,64,95)" stroke-width="1" opacity="0.75" />
			</g>
		</g>
		<g>
			<title>FUM19
Fum19p</title>
			<polygon class="FUM19
Fum19p" points="1997,25 2127,25 2127,10 2157,40 2127,70 2127,55 1997,55" fill="rgb(255,255,255)" fill-opacity="1.0" stroke="rgb(0,0,0)" stroke-width="2"  />
			<g>
				<title>ABC_membrane (PF00664)
"ABC transporter transmembrane region"</title>
				<rect class="PF00664" x="2023" y="28" stroke-linejoin="round" width="26" height="24" fill="rgb(149,226,73)" stroke="rgb(119,180,58)" stroke-width="1" opacity="0.75" />
			</g>
			<g>
				<title>ABC_tran (PF00005)
"ABC transporter"</title>
				<rect class="PF00005" x="2057" y="28" stroke-linejoin="round" width="13" height="24" fill="rgb(129,201,63)" stroke="rgb(103,160,50)" stroke-width="1" opacity="0.75" />
			</g>
			<g>
				<title>ABC_membrane (PF00664)
"ABC transporter transmembrane region"</title>
				<rect class="PF00664" x="2086" y="28" stroke-linejoin="round" width="27" height="24" fill="rgb(149,226,73)" stroke="rgb(119,180,58)" stroke-width="1" opacity="0.75" />
			</g>
			<g>
				<title>ABC_tran (PF00005)
"ABC transporter"</title>
				<rect class="PF00005" x="2120" y="28" stroke-linejoin="round" width="16" height="24" fill="rgb(129,201,63)" stroke="rgb(103,160,50)" stroke-width="1" opacity="0.75" />
			</g>
		</g>
		<g>
			<title>ORF20
ORF20 protein</title>
			<polygon class="ORF20
ORF20 protein" points="2232,25 2246,25 2246,10 2276,40 2246,70 2246,55 2232,55" fill="rgb(255,255,255)" fill-opacity="1.0" stroke="rgb(0,0,0)" stroke-width="2"  />
		</g>
		<g>
			<title>ORF21
ORF21 protein</title>
			<polygon class="ORF21
ORF21 protein" points="2379,10 2401,40 2379,70" fill="rgb(255,255,255)" fill-opacity="1.0" stroke="rgb(0,0,0)" stroke-width="2"  />
		</g>
		<g>
			<title>MPU1
MPU1p</title>
			<polygon class="MPU1
MPU1p" points="2442,25 2442,25 2442,10 2412,40 2442,70 2442,55 2442,55" fill="rgb(255,255,255)" fill-opacity="1.0" stroke="rgb(0,0,0)" stroke-width="2"  />
			<g>
				<title>PQ-loop (PF04193)
"PQ loop repeat"</title>
				<polygon class="PF04193" points="2420,36 2426,30 2426,50 2420,44" stroke-linejoin="round" width="6" height="24" fill="rgb(174,105,218)" stroke="rgb(139,84,174)" stroke-width="1" opacity="0.75" />
			</g>
			<g>
				<title>PQ-loop (PF04193)
"PQ loop repeat"</title>
				<rect class="PF04193" x="2431" y="28" stroke-linejoin="round" width="6" height="24" fill="rgb(174,105,218)" stroke="rgb(139,84,174)" stroke-width="1" opacity="0.75" />
			</g>
		</g>
	</g>
</svg>
