<svg version="1.1" baseProfile="full" xmlns="http://www.w3.org/2000/svg" width="968.5666666666667" height="80">
	<g>
		<line x1="10" y1="40.0" x2="958.5666666666667" y2="40.0" style="stroke:rgb(70,70,70); stroke-width:3 "/>
		<g>
			<title>
IclR family transcriptional regulator</title>
			<polygon class="
IclR family transcriptional regulator" points="13,25 47,25 47,10 77,40 47,70 47,55 13,55" fill="rgb(255,255,255)" fill-opacity="1.0" stroke="rgb(0,0,0)" stroke-width="2"  />
			<g>
				<title>HTH_IclR (PF09339)
"IclR helix-turn-helix domain"</title>
				<rect class="PF09339" x="16" y="28" stroke-linejoin="round" width="5" height="24" fill="rgb(135,102,222)" stroke="rgb(108,81,177)" stroke-width="1" opacity="0.75" />
			</g>
			<g>
				<title>IclR (PF01614)
"Bacterial transcriptional regulator"</title>
				<rect class="PF01614" x="38" y="28" stroke-linejoin="round" width="10" height="24" fill="rgb(58,93,180)" stroke="rgb(46,74,144)" stroke-width="1" opacity="0.75" />
			</g>
			<g>
				<title>HTH_IclR (PF09339)
"IclR helix-turn-helix domain"</title>
				<rect class="PF09339" x="52" y="28" stroke-linejoin="round" width="5" height="24" fill="rgb(135,102,222)" stroke="rgb(108,81,177)" stroke-width="1" opacity="0.75" />
			</g>
			<g>
				<title>IclR (PF01614)
"Bacterial transcriptional regulator"</title>
				<polygon class="PF01614" points="63,31 72,40 63,49" stroke-linejoin="round" width="12" height="24" fill="rgb(58,93,180)" stroke="rgb(46,74,144)" stroke-width="1" opacity="0.75" />
			</g>
		</g>
		<g>
			<title>
MSF transporter</title>
			<polygon class="
MSF transporter" points="133,25 111,25 111,10 81,40 111,70 111,55 133,55" fill="rgb(255,255,255)" fill-opacity="1.0" stroke="rgb(0,0,0)" stroke-width="2"  />
			<g>
				<title>MFS_1 (PF07690)
"Major Facilitator Superfamily"</title>
				<polygon class="PF07690" points="93,32 97,28 132,28 132,52 97,52 93,48" stroke-linejoin="round" width="39" height="24" fill="rgb(193,224,74)" stroke="rgb(154,179,59)" stroke-width="1" opacity="0.75" />
			</g>
		</g>
		<g>
			<title>
TetR/AcrR family transcriptional regulator</title>
			<polygon class="
TetR/AcrR family transcriptional regulator" points="140,10 165,40 140,70" fill="rgb(255,255,255)" fill-opacity="1.0" stroke="rgb(0,0,0)" stroke-width="2"  />
			<g>
				<title>TetR_N (PF00440)
"Bacterial regulatory proteins, tetR family"</title>
				<rect class="PF00440" x="143" y="28" stroke-linejoin="round" width="4" height="24" fill="rgb(73,212,190)" stroke="rgb(58,169,152)" stroke-width="1" opacity="0.75" />
			</g>
			<g>
				<title>TetR_C_1 (PF02909)
"Tetracyclin repressor-like, C-terminal domain"</title>
				<polygon class="PF02909" points="149,28 151,28 161,40 151,52 149,52" stroke-linejoin="round" width="15" height="24" fill="rgb(151,203,75)" stroke="rgb(120,162,60)" stroke-width="1" opacity="0.75" />
			</g>
		</g>
		<g>
			<title>
hypothetical protein</title>
			<polygon class="
hypothetical protein" points="230,25 205,25 205,10 175,40 205,70 205,55 230,55" fill="rgb(255,255,255)" fill-opacity="1.0" stroke="rgb(0,0,0)" stroke-width="2"  />
		</g>
		<g>
			<title>
hypothetical protein</title>
			<polygon class="
hypothetical protein" points="238,40 264,10 264,70" fill="rgb(255,255,255)" fill-opacity="1.0" stroke="rgb(0,0,0)" stroke-width="2"  />
		</g>
		<g>
			<title>
hypothetical protein</title>
			<polygon class="
hypothetical protein" points="279,10 294,40 279,70" fill="rgb(255,255,255)" fill-opacity="1.0" stroke="rgb(0,0,0)" stroke-width="2"  />
		</g>
		<g>
			<title>
hypothetical protein</title>
			<polygon class="
hypothetical protein" points="300,10 313,40 300,70" fill="rgb(255,255,255)" fill-opacity="1.0" stroke="rgb(0,0,0)" stroke-width="2"  />
			<g>
				<title>DUF4265 (PF14085)
"Domain of unknown function (DUF4265)"</title>
				<polygon class="PF14085" points="300,28 304,28 310,40 304,52 300,52" stroke-linejoin="round" width="12" height="24" fill="rgb(53,61,194)" stroke="rgb(42,48,155)" stroke-width="1" opacity="0.75" />
			</g>
		</g>
		<g>
			<title>
hypothetical protein</title>
			<polygon class="
hypothetical protein" points="319,40 332,10 332,70" fill="rgb(255,255,255)" fill-opacity="1.0" stroke="rgb(0,0,0)" stroke-width="2"  />
			<g>
				<title>DUF5958 (PF19383)
"Family of unknown function (DUF5958)"</title>
				<polygon class="PF19383" points="322,40 327,28 330,28 330,52 327,52" stroke-linejoin="round" width="11" height="24" fill="rgb(47,99,178)" stroke="rgb(37,79,142)" stroke-width="1" opacity="0.75" />
			</g>
		</g>
		<g>
			<title>mslR1
LuxR family transcriptional regulator</title>
			<polygon class="mslR1
LuxR family transcriptional regulator" points="355,40 378,10 378,70" fill="rgb(255,255,255)" fill-opacity="1.0" stroke="rgb(0,0,0)" stroke-width="2"  />
			<g>
				<title>GerE (PF00196)
"Bacterial regulatory proteins, luxR family"</title>
				<polygon class="PF00196" points="359,40 361,37 361,43" stroke-linejoin="round" width="5" height="24" fill="rgb(219,94,82)" stroke="rgb(175,75,65)" stroke-width="1" opacity="0.75" />
			</g>
		</g>
		<g>
			<title>mslG
sensor histidine kinase</title>
			<polygon class="mslG
sensor histidine kinase" points="383,25 390,25 390,10 420,40 390,70 390,55 383,55" fill="rgb(255,255,255)" fill-opacity="1.0" stroke="rgb(0,0,0)" stroke-width="2"  />
			<g>
				<title>HisKA_3 (PF07730)
"Histidine kinase"</title>
				<polygon class="PF07730" points="400,28 404,28 406,30 406,50 404,52 400,52" stroke-linejoin="round" width="6" height="24" fill="rgb(190,53,146)" stroke="rgb(152,42,116)" stroke-width="1" opacity="0.75" />
			</g>
		</g>
		<g>
			<title>mslD1
ABC transporter</title>
			<polygon class="mslD1
ABC transporter" points="426,25 426,25 426,10 456,40 426,70 426,55 426,55" fill="rgb(255,255,255)" fill-opacity="1.0" stroke="rgb(0,0,0)" stroke-width="2"  />
			<g>
				<title>ABC_tran (PF00005)
"ABC transporter"</title>
				<rect class="PF00005" x="427" y="28" stroke-linejoin="round" width="13" height="24" fill="rgb(129,201,63)" stroke="rgb(103,160,50)" stroke-width="1" opacity="0.75" />
			</g>
		</g>
		<g>
			<title>mslD2
ABC transporter</title>
			<polygon class="mslD2
ABC transporter" points="456,10 481,40 456,70" fill="rgb(255,255,255)" fill-opacity="1.0" stroke="rgb(0,0,0)" stroke-width="2"  />
			<g>
				<title>ABC2_membrane_4 (PF12730)
"ABC-2 family transporter protein"</title>
				<polygon class="PF12730" points="456,28 467,28 475,38 475,42 467,52 456,52" stroke-linejoin="round" width="19" height="24" fill="rgb(203,161,59)" stroke="rgb(162,128,47)" stroke-width="1" opacity="0.75" />
			</g>
		</g>
		<g>
			<title>mslA
MS-271 precursor peptide</title>
			<polygon class="mslA
MS-271 precursor peptide" points="485,10 489,40 485,70" fill="rgb(255,255,255)" fill-opacity="1.0" stroke="rgb(0,0,0)" stroke-width="2"  />
		</g>
		<g>
			<title>mslC
asparagine synthetase</title>
			<polygon class="mslC
asparagine synthetase" points="492,25 523,25 523,10 553,40 523,70 523,55 492,55" fill="rgb(255,255,255)" fill-opacity="1.0" stroke="rgb(0,0,0)" stroke-width="2"  />
			<g>
				<title>Asn_synthase (PF00733)
"Asparagine synthase"</title>
				<polygon class="PF00733" points="512,28 537,28 549,40 537,52 512,52" stroke-linejoin="round" width="38" height="24" fill="rgb(97,201,176)" stroke="rgb(77,160,140)" stroke-width="1" opacity="0.75" />
			</g>
		</g>
		<g>
			<title>mslB1
PqqD family protein</title>
			<polygon class="mslB1
PqqD family protein" points="553,10 561,40 553,70" fill="rgb(255,255,255)" fill-opacity="1.0" stroke="rgb(0,0,0)" stroke-width="2"  />
			<g>
				<title>PqqD (PF05402)
"Coenzyme PQQ synthesis protein D (PqqD)"</title>
				<polygon class="PF05402" points="554,28 554,28 558,40 554,52 554,52" stroke-linejoin="round" width="6" height="24" fill="rgb(124,62,188)" stroke="rgb(99,49,150)" stroke-width="1" opacity="0.75" />
			</g>
		</g>
		<g>
			<title>mslB2
cysteine protease</title>
			<polygon class="mslB2
cysteine protease" points="562,10 577,40 562,70" fill="rgb(255,255,255)" fill-opacity="1.0" stroke="rgb(0,0,0)" stroke-width="2"  />
			<g>
				<title>Transglut_core3 (PF13471)
"Transglutaminase-like superfamily"</title>
				<polygon class="PF13471" points="564,28 567,28 574,40 567,52 564,52" stroke-linejoin="round" width="11" height="24" fill="rgb(63,111,179)" stroke="rgb(50,88,143)" stroke-width="1" opacity="0.75" />
			</g>
		</g>
		<g>
			<title>mslD3
ABC transporter</title>
			<polygon class="mslD3
ABC transporter" points="578,25 580,25 580,10 610,40 580,70 580,55 578,55" fill="rgb(255,255,255)" fill-opacity="1.0" stroke="rgb(0,0,0)" stroke-width="2"  />
			<g>
				<title>ABC_tran (PF00005)
"ABC transporter"</title>
				<rect class="PF00005" x="579" y="28" stroke-linejoin="round" width="14" height="24" fill="rgb(129,201,63)" stroke="rgb(103,160,50)" stroke-width="1" opacity="0.75" />
			</g>
		</g>
		<g>
			<title>mslD4
ABC transporter</title>
			<polygon class="mslD4
ABC transporter" points="610,10 639,40 610,70" fill="rgb(255,255,255)" fill-opacity="1.0" stroke="rgb(0,0,0)" stroke-width="2"  />
			<g>
				<title>ABC2_membrane (PF01061)
"ABC-2 type transporter"</title>
				<polygon class="PF01061" points="612,28 622,28 633,39 633,41 622,52 612,52" stroke-linejoin="round" width="21" height="24" fill="rgb(139,217,106)" stroke="rgb(111,173,84)" stroke-width="1" opacity="0.75" />
			</g>
		</g>
		<g>
			<title>mslE
DoxX family protein</title>
			<polygon class="mslE
DoxX family protein" points="638,10 656,40 638,70" fill="rgb(255,255,255)" fill-opacity="1.0" stroke="rgb(0,0,0)" stroke-width="2"  />
			<g>
				<title>MauE (PF07291)
"Methylamine utilisation protein MauE"</title>
				<polygon class="PF07291" points="641,28 645,28 652,40 645,52 641,52" stroke-linejoin="round" width="13" height="24" fill="rgb(177,83,181)" stroke="rgb(141,66,144)" stroke-width="1" opacity="0.75" />
			</g>
		</g>
		<g>
			<title>mslF
protein disulfide isomerase</title>
			<polygon class="mslF
protein disulfide isomerase" points="657,10 681,40 657,70" fill="rgb(255,255,255)" fill-opacity="1.0" stroke="rgb(0,0,0)" stroke-width="2"  />
			<g>
				<title>Thioredoxin_4 (PF13462)
"Thioredoxin"</title>
				<polygon class="PF13462" points="664,28 668,28 677,40 668,52 664,52" stroke-linejoin="round" width="16" height="24" fill="rgb(46,180,48)" stroke="rgb(36,144,38)" stroke-width="1" opacity="0.75" />
			</g>
		</g>
		<g>
			<title>mslH
hypothetical protein</title>
			<polygon class="mslH
hypothetical protein" points="681,25 695,25 695,10 725,40 695,70 695,55 681,55" fill="rgb(255,255,255)" fill-opacity="1.0" stroke="rgb(0,0,0)" stroke-width="2"  />
			<g>
				<title>PGA_cap (PF09587)
"Bacterial capsule synthesis protein PGA_cap"</title>
				<polygon class="PF09587" points="681,28 708,28 712,32 712,48 708,52 681,52" stroke-linejoin="round" width="31" height="24" fill="rgb(179,65,131)" stroke="rgb(143,52,104)" stroke-width="1" opacity="0.75" />
			</g>
		</g>
		<g>
			<title>mslR2
LuxR family transcriptional regulator</title>
			<polygon class="mslR2
LuxR family transcriptional regulator" points="728,10 750,40 728,70" fill="rgb(255,255,255)" fill-opacity="1.0" stroke="rgb(0,0,0)" stroke-width="2"  />
			<g>
				<title>Response_reg (PF00072)
"Response regulator receiver domain"</title>
				<polygon class="PF00072" points="728,28 738,28 739,30 739,50 738,52 728,52" stroke-linejoin="round" width="11" height="24" fill="rgb(100,107,203)" stroke="rgb(80,85,162)" stroke-width="1" opacity="0.75" />
			</g>
			<g>
				<title>GerE (PF00196)
"Bacterial regulatory proteins, luxR family"</title>
				<polygon class="PF00196" points="743,35 746,40 743,45" stroke-linejoin="round" width="5" height="24" fill="rgb(219,94,82)" stroke="rgb(175,75,65)" stroke-width="1" opacity="0.75" />
			</g>
		</g>
		<g>
			<title>
hypothetical protein</title>
			<polygon class="
hypothetical protein" points="768,10 781,40 768,70" fill="rgb(255,255,255)" fill-opacity="1.0" stroke="rgb(0,0,0)" stroke-width="2"  />
		</g>
		<g>
			<title>
hypothetical protein</title>
			<polygon class="
hypothetical protein" points="794,25 808,25 808,10 838,40 808,70 808,55 794,55" fill="rgb(255,255,255)" fill-opacity="1.0" stroke="rgb(0,0,0)" stroke-width="2"  />
			<g>
				<title>DUF11 (PF01345)
"Domain of unknown function DUF11"</title>
				<polygon class="PF01345" points="821,28 822,28 833,39 833,41 822,52 821,52" stroke-linejoin="round" width="12" height="24" fill="rgb(83,216,100)" stroke="rgb(66,172,80)" stroke-width="1" opacity="0.75" />
			</g>
			<g>
				<title>ChpA-C (PF03777)
"ChpA-C"</title>
				<polygon class="PF03777" points="833,39 834,40 833,41" stroke-linejoin="round" width="5" height="24" fill="rgb(97,98,208)" stroke="rgb(77,78,166)" stroke-width="1" opacity="0.75" />
			</g>
		</g>
		<g>
			<title>
hypothetical protein</title>
			<polygon class="
hypothetical protein" points="875,25 900,25 900,10 930,40 900,70 900,55 875,55" fill="rgb(255,255,255)" fill-opacity="1.0" stroke="rgb(0,0,0)" stroke-width="2"  />
			<g>
				<title>Trypsin (PF00089)
"Trypsin"</title>
				<rect class="PF00089" x="878" y="28" stroke-linejoin="round" width="19" height="24" fill="rgb(207,127,78)" stroke="rgb(165,101,62)" stroke-width="1" opacity="0.75" />
			</g>
		</g>
	</g>
</svg>
