<svg version="1.1" baseProfile="full" xmlns="http://www.w3.org/2000/svg" width="915.1" height="80">
	<g>
		<line x1="10" y1="40.0" x2="905.1" y2="40.0" style="stroke:rgb(70,70,70); stroke-width:3 "/>
		<g>
			<title>pyrA
PyrA</title>
			<polygon class="pyrA
PyrA" points="49,25 40,25 40,10 10,40 40,70 40,55 49,55" fill="rgb(255,255,255)" fill-opacity="1.0" stroke="rgb(0,0,0)" stroke-width="2"  />
			<g>
				<title>MFS_1 (PF07690)
"Major Facilitator Superfamily"</title>
				<polygon class="PF07690" points="16,38 26,28 47,28 47,52 26,52 16,42" stroke-linejoin="round" width="31" height="24" fill="rgb(193,224,74)" stroke="rgb(154,179,59)" stroke-width="1" opacity="0.75" />
			</g>
		</g>
		<g>
			<title>pyrB
PyrB</title>
			<polygon class="pyrB
PyrB" points="98,25 81,25 81,10 51,40 81,70 81,55 98,55" fill="rgb(255,255,255)" fill-opacity="1.0" stroke="rgb(0,0,0)" stroke-width="2"  />
			<g>
				<title>ADSL_C (PF10397)
"Adenylosuccinate lyase C-terminus"</title>
				<polygon class="PF10397" points="55,40 61,34 61,46" stroke-linejoin="round" width="8" height="24" fill="rgb(198,156,85)" stroke="rgb(158,124,68)" stroke-width="1" opacity="0.75" />
			</g>
			<g>
				<title>Lyase_1 (PF00206)
"Lyase"</title>
				<rect class="PF00206" x="68" y="28" stroke-linejoin="round" width="28" height="24" fill="rgb(217,92,141)" stroke="rgb(173,73,112)" stroke-width="1" opacity="0.75" />
			</g>
		</g>
		<g>
			<title>pyrC
PyrC</title>
			<polygon class="pyrC
PyrC" points="109,10 131,40 109,70" fill="rgb(255,255,255)" fill-opacity="1.0" stroke="rgb(0,0,0)" stroke-width="2"  />
			<g>
				<title>HAD_2 (PF13419)
"Haloacid dehalogenase-like hydrolase"</title>
				<polygon class="PF13419" points="109,28 119,28 127,39 127,41 119,52 109,52" stroke-linejoin="round" width="18" height="24" fill="rgb(60,223,188)" stroke="rgb(48,178,150)" stroke-width="1" opacity="0.75" />
			</g>
		</g>
		<g>
			<title>pyrD
PyrD</title>
			<polygon class="pyrD
PyrD" points="137,10 149,40 137,70" fill="rgb(255,255,255)" fill-opacity="1.0" stroke="rgb(0,0,0)" stroke-width="2"  />
			<g>
				<title>Cupin_2 (PF07883)
"Cupin domain"</title>
				<polygon class="PF07883" points="140,28 140,28 146,40 140,52 140,52" stroke-linejoin="round" width="7" height="24" fill="rgb(211,192,74)" stroke="rgb(168,153,59)" stroke-width="1" opacity="0.75" />
			</g>
		</g>
		<g>
			<title>pyrE
PyrE</title>
			<polygon class="pyrE
PyrE" points="184,25 181,25 181,10 151,40 181,70 181,55 184,55" fill="rgb(255,255,255)" fill-opacity="1.0" stroke="rgb(0,0,0)" stroke-width="2"  />
		</g>
		<g>
			<title>pyrF
PyrF</title>
			<polygon class="pyrF
PyrF" points="221,25 217,25 217,10 187,40 217,70 217,55 221,55" fill="rgb(255,255,255)" fill-opacity="1.0" stroke="rgb(0,0,0)" stroke-width="2"  />
			<g>
				<title>SAICAR_synt (PF01259)
"SAICAR synthetase"</title>
				<polygon class="PF01259" points="197,34 203,28 218,28 218,52 203,52 197,46" stroke-linejoin="round" width="21" height="24" fill="rgb(75,117,191)" stroke="rgb(60,93,152)" stroke-width="1" opacity="0.75" />
			</g>
		</g>
		<g>
			<title>pyrG
PyrG</title>
			<polygon class="pyrG
PyrG" points="281,25 257,25 257,10 227,40 257,70 257,55 281,55" fill="rgb(255,255,255)" fill-opacity="1.0" stroke="rgb(0,0,0)" stroke-width="2"  />
			<g>
				<title>FAD_binding_2 (PF00890)
"FAD binding domain"</title>
				<polygon class="PF00890" points="231,40 243,28 279,28 279,52 243,52" stroke-linejoin="round" width="50" height="24" fill="rgb(63,199,116)" stroke="rgb(50,159,92)" stroke-width="1" opacity="0.75" />
			</g>
		</g>
		<g>
			<title>pyrH
PyrH</title>
			<polygon class="pyrH
PyrH" points="298,25 299,25 299,10 329,40 299,70 299,55 298,55" fill="rgb(255,255,255)" fill-opacity="1.0" stroke="rgb(0,0,0)" stroke-width="2"  />
			<g>
				<title>Bac_luciferase (PF00296)
"Luciferase-like monooxygenase"</title>
				<polygon class="PF00296" points="298,28 312,28 318,34 318,46 312,52 298,52" stroke-linejoin="round" width="20" height="24" fill="rgb(180,112,78)" stroke="rgb(144,89,62)" stroke-width="1" opacity="0.75" />
			</g>
		</g>
		<g>
			<title>pyrI
PyrI</title>
			<polygon class="pyrI
PyrI" points="329,25 343,25 343,10 373,40 343,70 343,55 329,55" fill="rgb(255,255,255)" fill-opacity="1.0" stroke="rgb(0,0,0)" stroke-width="2"  />
			<g>
				<title>Bac_luciferase (PF00296)
"Luciferase-like monooxygenase"</title>
				<polygon class="PF00296" points="330,28 357,28 368,39 368,41 357,52 330,52" stroke-linejoin="round" width="38" height="24" fill="rgb(180,112,78)" stroke="rgb(144,89,62)" stroke-width="1" opacity="0.75" />
			</g>
		</g>
		<g>
			<title>pyrR
PyrR</title>
			<polygon class="pyrR
PyrR" points="377,10 405,40 377,70" fill="rgb(255,255,255)" fill-opacity="1.0" stroke="rgb(0,0,0)" stroke-width="2"  />
			<g>
				<title>ParBc (PF02195)
"ParB-like nuclease domain"</title>
				<rect class="PF02195" x="379" y="28" stroke-linejoin="round" width="8" height="24" fill="rgb(55,214,209)" stroke="rgb(44,171,167)" stroke-width="1" opacity="0.75" />
			</g>
		</g>
		<g>
			<title>pyrJ
PyrJ</title>
			<polygon class="pyrJ
PyrJ" points="441,25 436,25 436,10 406,40 436,70 436,55 441,55" fill="rgb(255,255,255)" fill-opacity="1.0" stroke="rgb(0,0,0)" stroke-width="2"  />
			<g>
				<title>DAO (PF01266)
"FAD dependent oxidoreductase"</title>
				<polygon class="PF01266" points="410,40 422,28 440,28 440,52 422,52" stroke-linejoin="round" width="33" height="24" fill="rgb(123,179,59)" stroke="rgb(98,143,47)" stroke-width="1" opacity="0.75" />
			</g>
		</g>
		<g>
			<title>pyrK
PyrK</title>
			<polygon class="pyrK
PyrK" points="446,25 457,25 457,10 487,40 457,70 457,55 446,55" fill="rgb(255,255,255)" fill-opacity="1.0" stroke="rgb(0,0,0)" stroke-width="2"  />
			<g>
				<title>ATPgrasp_N (PF18130)
"ATP-grasp N-terminal domain"</title>
				<rect class="PF18130" x="448" y="28" stroke-linejoin="round" width="8" height="24" fill="rgb(80,117,197)" stroke="rgb(64,93,157)" stroke-width="1" opacity="0.75" />
			</g>
			<g>
				<title>ATP-grasp_4 (PF13535)
"ATP-grasp domain"</title>
				<polygon class="PF13535" points="460,28 471,28 475,32 475,48 471,52 460,52" stroke-linejoin="round" width="15" height="24" fill="rgb(197,156,74)" stroke="rgb(157,124,59)" stroke-width="1" opacity="0.75" />
			</g>
			<g>
				<title>LAL_C2 (PF18603)
"L-amino acid ligase C-terminal domain 2"</title>
				<polygon class="PF18603" points="479,36 483,40 479,44" stroke-linejoin="round" width="7" height="24" fill="rgb(90,215,56)" stroke="rgb(72,172,44)" stroke-width="1" opacity="0.75" />
			</g>
		</g>
		<g>
			<title>pyrL
PyrL</title>
			<polygon class="pyrL
PyrL" points="489,25 499,25 499,10 529,40 499,70 499,55 489,55" fill="rgb(255,255,255)" fill-opacity="1.0" stroke="rgb(0,0,0)" stroke-width="2"  />
			<g>
				<title>F420_oxidored (PF03807)
"NADP oxidoreductase coenzyme F420-dependent"</title>
				<rect class="PF03807" x="489" y="28" stroke-linejoin="round" width="9" height="24" fill="rgb(194,51,111)" stroke="rgb(155,40,88)" stroke-width="1" opacity="0.75" />
			</g>
			<g>
				<title>Sacchrp_dh_C (PF16653)
"Saccharopine dehydrogenase C-terminal domain"</title>
				<polygon class="PF16653" points="501,28 512,28 524,40 512,52 501,52" stroke-linejoin="round" width="25" height="24" fill="rgb(207,175,94)" stroke="rgb(165,139,75)" stroke-width="1" opacity="0.75" />
			</g>
		</g>
		<g>
			<title>pyrM
PyrM</title>
			<polygon class="pyrM
PyrM" points="529,25 542,25 542,10 572,40 542,70 542,55 529,55" fill="rgb(255,255,255)" fill-opacity="1.0" stroke="rgb(0,0,0)" stroke-width="2"  />
			<g>
				<title>K_oxygenase (PF13434)
"L-lysine 6-monooxygenase (NADPH-requiring)"</title>
				<polygon class="PF13434" points="529,28 556,28 561,33 561,47 556,52 529,52" stroke-linejoin="round" width="32" height="24" fill="rgb(81,213,119)" stroke="rgb(64,170,95)" stroke-width="1" opacity="0.75" />
			</g>
		</g>
		<g>
			<title>pyrN
PyrN</title>
			<polygon class="pyrN
PyrN" points="574,25 610,25 610,10 640,40 610,70 610,55 574,55" fill="rgb(255,255,255)" fill-opacity="1.0" stroke="rgb(0,0,0)" stroke-width="2"  />
			<g>
				<title>Cupin_2 (PF07883)
"Cupin domain"</title>
				<rect class="PF07883" x="577" y="28" stroke-linejoin="round" width="7" height="24" fill="rgb(211,192,74)" stroke="rgb(168,153,59)" stroke-width="1" opacity="0.75" />
			</g>
			<g>
				<title>tRNA-synt_1g (PF09334)
"tRNA synthetases class I (M)"</title>
				<polygon class="PF09334" points="587,28 624,28 625,29 625,51 624,52 587,52" stroke-linejoin="round" width="38" height="24" fill="rgb(105,223,202)" stroke="rgb(84,178,161)" stroke-width="1" opacity="0.75" />
			</g>
		</g>
		<g>
			<title>pyrO
PyrO</title>
			<polygon class="pyrO
PyrO" points="642,10 667,40 642,70" fill="rgb(255,255,255)" fill-opacity="1.0" stroke="rgb(0,0,0)" stroke-width="2"  />
			<g>
				<title>SAICAR_synt (PF01259)
"SAICAR synthetase"</title>
				<polygon class="PF01259" points="649,28 653,28 663,40 653,52 649,52" stroke-linejoin="round" width="17" height="24" fill="rgb(75,117,191)" stroke="rgb(60,93,152)" stroke-width="1" opacity="0.75" />
			</g>
		</g>
		<g>
			<title>pyrP
PyrP</title>
			<polygon class="pyrP
PyrP" points="667,10 690,40 667,70" fill="rgb(255,255,255)" fill-opacity="1.0" stroke="rgb(0,0,0)" stroke-width="2"  />
			<g>
				<title>adh_short (PF00106)
"short chain dehydrogenase"</title>
				<polygon class="PF00106" points="667,28 677,28 684,37 684,43 677,52 667,52" stroke-linejoin="round" width="17" height="24" fill="rgb(182,219,73)" stroke="rgb(145,175,58)" stroke-width="1" opacity="0.75" />
			</g>
		</g>
		<g>
			<title>pyrQ
PyrQ</title>
			<polygon class="pyrQ
PyrQ" points="690,10 716,40 690,70" fill="rgb(255,255,255)" fill-opacity="1.0" stroke="rgb(0,0,0)" stroke-width="2"  />
			<g>
				<title>Hydrolase_3 (PF08282)
"haloacid dehalogenase-like hydrolase"</title>
				<polygon class="PF08282" points="690,28 702,28 712,40 702,52 690,52" stroke-linejoin="round" width="24" height="24" fill="rgb(195,74,128)" stroke="rgb(156,59,102)" stroke-width="1" opacity="0.75" />
			</g>
		</g>
		<g>
			<title>pyrS
PyrS</title>
			<polygon class="pyrS
PyrS" points="717,10 745,40 717,70" fill="rgb(255,255,255)" fill-opacity="1.0" stroke="rgb(0,0,0)" stroke-width="2"  />
			<g>
				<title>HisG (PF01634)
"ATP phosphoribosyltransferase"</title>
				<polygon class="PF01634" points="721,28 729,28 737,36 737,44 729,52 721,52" stroke-linejoin="round" width="16" height="24" fill="rgb(212,55,174)" stroke="rgb(169,44,139)" stroke-width="1" opacity="0.75" />
			</g>
		</g>
		<g>
			<title>pyrT
PyrT</title>
			<polygon class="pyrT
PyrT" points="748,25 758,25 758,10 788,40 758,70 758,55 748,55" fill="rgb(255,255,255)" fill-opacity="1.0" stroke="rgb(0,0,0)" stroke-width="2"  />
			<g>
				<title>Rieske (PF00355)
"Rieske [2Fe-2S] domain"</title>
				<rect class="PF00355" x="750" y="28" stroke-linejoin="round" width="9" height="24" fill="rgb(186,77,145)" stroke="rgb(148,61,115)" stroke-width="1" opacity="0.75" />
			</g>
			<g>
				<title>LigXa_C (PF19301)
"LigXa C-terminal domain like"</title>
				<polygon class="PF19301" points="761,28 772,28 784,40 772,52 761,52" stroke-linejoin="round" width="27" height="24" fill="rgb(206,60,62)" stroke="rgb(164,48,49)" stroke-width="1" opacity="0.75" />
			</g>
		</g>
		<g>
			<title>pyrU
PyrU</title>
			<polygon class="pyrU
PyrU" points="828,25 820,25 820,10 790,40 820,70 820,55 828,55" fill="rgb(255,255,255)" fill-opacity="1.0" stroke="rgb(0,0,0)" stroke-width="2"  />
			<g>
				<title>Amidohydro_1 (PF01979)
"Amidohydrolase family"</title>
				<polygon class="PF01979" points="794,40 806,28 822,28 822,52 806,52" stroke-linejoin="round" width="31" height="24" fill="rgb(210,93,184)" stroke="rgb(168,74,147)" stroke-width="1" opacity="0.75" />
			</g>
		</g>
		<g>
			<title>pyrV
PyrV</title>
			<polygon class="pyrV
PyrV" points="869,25 860,25 860,10 830,40 860,70 860,55 869,55" fill="rgb(255,255,255)" fill-opacity="1.0" stroke="rgb(0,0,0)" stroke-width="2"  />
			<g>
				<title>MFS_1 (PF07690)
"Major Facilitator Superfamily"</title>
				<polygon class="PF07690" points="834,40 846,28 867,28 867,52 846,52 834,40" stroke-linejoin="round" width="33" height="24" fill="rgb(193,224,74)" stroke="rgb(154,179,59)" stroke-width="1" opacity="0.75" />
			</g>
		</g>
		<g>
			<title>pyrW
PyrW</title>
			<polygon class="pyrW
PyrW" points="872,40 887,10 887,70" fill="rgb(255,255,255)" fill-opacity="1.0" stroke="rgb(0,0,0)" stroke-width="2"  />
			<g>
				<title>Flavin_Reduct (PF01613)
"Flavin reductase like domain"</title>
				<polygon class="PF01613" points="875,40 881,28 886,28 886,52 881,52" stroke-linejoin="round" width="14" height="24" fill="rgb(107,197,222)" stroke="rgb(85,157,177)" stroke-width="1" opacity="0.75" />
			</g>
		</g>
		<g>
			<title>pyrX
PyrX</title>
			<polygon class="pyrX
PyrX" points="888,40 905,10 905,70" fill="rgb(255,255,255)" fill-opacity="1.0" stroke="rgb(0,0,0)" stroke-width="2"  />
			<g>
				<title>FMN_red (PF03358)
"NADPH-dependent FMN reductase"</title>
				<polygon class="PF03358" points="891,40 898,28 904,28 904,52 898,52" stroke-linejoin="round" width="14" height="24" fill="rgb(90,228,61)" stroke="rgb(72,182,48)" stroke-width="1" opacity="0.75" />
			</g>
		</g>
	</g>
</svg>
