<svg version="1.1" baseProfile="full" xmlns="http://www.w3.org/2000/svg" width="117.66666666666667" height="80">
	<g>
		<line x1="10" y1="40.0" x2="107.66666666666667" y2="40.0" style="stroke:rgb(70,70,70); stroke-width:3 "/>
		<g>
			<title> (EAMY_RS22220)
hypothetical protein</title>
			<polygon class=" (EAMY_RS22220)
hypothetical protein" points="10,10 33,40 10,70" fill="rgb(255,255,255)" fill-opacity="1.0" stroke="rgb(0,0,0)" stroke-width="2"  />
		</g>
		<g>
			<title> (EAMY_RS22225)
NUDIX domain-containing protein</title>
			<polygon class=" (EAMY_RS22225)
NUDIX domain-containing protein" points="35,10 48,40 35,70" fill="rgb(255,255,255)" fill-opacity="1.0" stroke="rgb(0,0,0)" stroke-width="2"  />
			<g>
				<title>NUDIX (PF00293)
"NUDIX domain"</title>
				<polygon class="PF00293" points="35,28 39,28 45,40 39,52 35,52" stroke-linejoin="round" width="12" height="24" fill="rgb(92,56,187)" stroke="rgb(73,44,149)" stroke-width="1" opacity="0.75" />
			</g>
		</g>
		<g>
			<title> (EAMY_RS22230)
hypothetical protein</title>
			<polygon class=" (EAMY_RS22230)
hypothetical protein" points="48,10 77,40 48,70" fill="rgb(255,255,255)" fill-opacity="1.0" stroke="rgb(0,0,0)" stroke-width="2"  />
			<g>
				<title>DUF6024 (PF19488)
"Family of unknown function (DUF6024)"</title>
				<polygon class="PF19488" points="48,28 61,28 73,40 61,52 48,52" stroke-linejoin="round" width="28" height="24" fill="rgb(204,73,104)" stroke="rgb(163,58,83)" stroke-width="1" opacity="0.75" />
			</g>
		</g>
		<g>
			<title> (EAMY_RS22235)
EamA family transporter</title>
			<polygon class=" (EAMY_RS22235)
EamA family transporter" points="77,25 77,25 77,10 107,40 77,70 77,55 77,55" fill="rgb(255,255,255)" fill-opacity="1.0" stroke="rgb(0,0,0)" stroke-width="2"  />
			<g>
				<title>EamA (PF00892)
"EamA-like transporter family"</title>
				<rect class="PF00892" x="77" y="28" stroke-linejoin="round" width="13" height="24" fill="rgb(105,217,77)" stroke="rgb(84,173,61)" stroke-width="1" opacity="0.75" />
			</g>
		</g>
	</g>
</svg>
