<svg version="1.1" baseProfile="full" xmlns="http://www.w3.org/2000/svg" width="625.9666666666667" height="80">
	<g>
		<line x1="10" y1="40.0" x2="615.9666666666667" y2="40.0" style="stroke:rgb(70,70,70); stroke-width:3 "/>
		<g>
			<title>
hypothetical protein</title>
			<polygon class="
hypothetical protein" points="10,25 13,25 13,10 43,40 13,70 13,55 10,55" fill="rgb(255,255,255)" fill-opacity="1.0" stroke="rgb(0,0,0)" stroke-width="2"  />
			<g>
				<title>DUF2690 (PF10901)
"Protein of unknown function (DUF2690)"</title>
				<polygon class="PF10901" points="31,33 38,40 31,47" stroke-linejoin="round" width="8" height="24" fill="rgb(168,200,78)" stroke="rgb(134,160,62)" stroke-width="1" opacity="0.75" />
			</g>
		</g>
		<g>
			<title>
peptidoglycan-binding protein</title>
			<polygon class="
peptidoglycan-binding protein" points="53,25 57,25 57,10 87,40 57,70 57,55 53,55" fill="rgb(255,255,255)" fill-opacity="1.0" stroke="rgb(0,0,0)" stroke-width="2"  />
			<g>
				<title>PG_binding_1 (PF01471)
"Putative peptidoglycan binding domain"</title>
				<rect class="PF01471" x="59" y="28" stroke-linejoin="round" width="5" height="24" fill="rgb(186,74,131)" stroke="rgb(148,59,104)" stroke-width="1" opacity="0.75" />
			</g>
			<g>
				<title>PG_binding_1 (PF01471)
"Putative peptidoglycan binding domain"</title>
				<rect class="PF01471" x="66" y="28" stroke-linejoin="round" width="5" height="24" fill="rgb(186,74,131)" stroke="rgb(148,59,104)" stroke-width="1" opacity="0.75" />
			</g>
		</g>
		<g>
			<title>
hypothetical protein</title>
			<polygon class="
hypothetical protein" points="91,40 115,10 115,70" fill="rgb(255,255,255)" fill-opacity="1.0" stroke="rgb(0,0,0)" stroke-width="2"  />
			<g>
				<title>DUF5825 (PF19142)
"Family of unknown function (DUF5825)"</title>
				<polygon class="PF19142" points="95,40 105,28 110,28 110,52 105,52" stroke-linejoin="round" width="18" height="24" fill="rgb(193,53,182)" stroke="rgb(154,42,145)" stroke-width="1" opacity="0.75" />
			</g>
		</g>
		<g>
			<title>
radical SAM protein</title>
			<polygon class="
radical SAM protein" points="178,25 146,25 146,10 116,40 146,70 146,55 178,55" fill="rgb(255,255,255)" fill-opacity="1.0" stroke="rgb(0,0,0)" stroke-width="2"  />
			<g>
				<title>Radical_SAM (PF04055)
"Radical SAM superfamily"</title>
				<rect class="PF04055" x="135" y="28" stroke-linejoin="round" width="16" height="24" fill="rgb(149,56,222)" stroke="rgb(119,44,177)" stroke-width="1" opacity="0.75" />
			</g>
			<g>
				<title>B12-binding (PF02310)
"B12 binding domain"</title>
				<rect class="PF02310" x="158" y="28" stroke-linejoin="round" width="11" height="24" fill="rgb(145,190,60)" stroke="rgb(115,152,48)" stroke-width="1" opacity="0.75" />
			</g>
		</g>
		<g>
			<title>
aminotransferase</title>
			<polygon class="
aminotransferase" points="216,25 210,25 210,10 180,40 210,70 210,55 216,55" fill="rgb(255,255,255)" fill-opacity="1.0" stroke="rgb(0,0,0)" stroke-width="2"  />
			<g>
				<title>Aminotran_1_2 (PF00155)
"Aminotransferase class I and II"</title>
				<polygon class="PF00155" points="184,40 196,28 213,28 213,52 196,52" stroke-linejoin="round" width="32" height="24" fill="rgb(89,113,198)" stroke="rgb(71,90,158)" stroke-width="1" opacity="0.75" />
			</g>
		</g>
		<g>
			<title>
reductase</title>
			<polygon class="
reductase" points="247,25 246,25 246,10 216,40 246,70 246,55 247,55" fill="rgb(255,255,255)" fill-opacity="1.0" stroke="rgb(0,0,0)" stroke-width="2"  />
			<g>
				<title>ApbA_C (PF08546)
"Ketopantoate reductase PanE/ApbA C terminal"</title>
				<polygon class="PF08546" points="220,40 229,31 229,49" stroke-linejoin="round" width="12" height="24" fill="rgb(188,163,68)" stroke="rgb(150,130,54)" stroke-width="1" opacity="0.75" />
			</g>
			<g>
				<title>ApbA (PF02558)
"Ketopantoate reductase PanE/ApbA"</title>
				<polygon class="PF02558" points="232,28 232,28 247,28 247,52 232,52 232,52" stroke-linejoin="round" width="15" height="24" fill="rgb(91,128,221)" stroke="rgb(72,102,176)" stroke-width="1" opacity="0.75" />
			</g>
		</g>
		<g>
			<title>
cytochrome P450</title>
			<polygon class="
cytochrome P450" points="288,25 278,25 278,10 248,40 278,70 278,55 288,55" fill="rgb(255,255,255)" fill-opacity="1.0" stroke="rgb(0,0,0)" stroke-width="2"  />
			<g>
				<title>p450 (PF00067)
"Cytochrome P450"</title>
				<polygon class="PF00067" points="252,40 261,31 261,49" stroke-linejoin="round" width="13" height="24" fill="rgb(85,216,107)" stroke="rgb(68,172,85)" stroke-width="1" opacity="0.75" />
			</g>
			<g>
				<title>p450 (PF00067)
"Cytochrome P450"</title>
				<polygon class="PF00067" points="262,30 264,28 272,28 272,52 264,52 262,50" stroke-linejoin="round" width="10" height="24" fill="rgb(85,216,107)" stroke="rgb(68,172,85)" stroke-width="1" opacity="0.75" />
			</g>
		</g>
		<g>
			<title>
MoaD family sulfur carrier protein</title>
			<polygon class="
MoaD family sulfur carrier protein" points="289,40 299,10 299,70" fill="rgb(255,255,255)" fill-opacity="1.0" stroke="rgb(0,0,0)" stroke-width="2"  />
			<g>
				<title>ThiS (PF02597)
"ThiS family"</title>
				<polygon class="PF02597" points="292,40 296,28 298,28 298,52 296,52" stroke-linejoin="round" width="8" height="24" fill="rgb(73,117,196)" stroke="rgb(58,93,156)" stroke-width="1" opacity="0.75" />
			</g>
		</g>
		<g>
			<title>
JAMM metalloprotease</title>
			<polygon class="
JAMM metalloprotease" points="299,40 322,10 322,70" fill="rgb(255,255,255)" fill-opacity="1.0" stroke="rgb(0,0,0)" stroke-width="2"  />
		</g>
		<g>
			<title>
transporter CxnT</title>
			<polygon class="
transporter CxnT" points="374,25 355,25 355,10 325,40 355,70 355,55 374,55" fill="rgb(255,255,255)" fill-opacity="1.0" stroke="rgb(0,0,0)" stroke-width="2"  />
			<g>
				<title>MFS_1 (PF07690)
"Major Facilitator Superfamily"</title>
				<polygon class="PF07690" points="332,37 341,28 372,28 372,52 341,52 332,43" stroke-linejoin="round" width="40" height="24" fill="rgb(193,224,74)" stroke="rgb(154,179,59)" stroke-width="1" opacity="0.75" />
			</g>
		</g>
		<g>
			<title>
LysR family transcriptional regulator</title>
			<polygon class="
LysR family transcriptional regulator" points="385,25 386,25 386,10 416,40 386,70 386,55 385,55" fill="rgb(255,255,255)" fill-opacity="1.0" stroke="rgb(0,0,0)" stroke-width="2"  />
			<g>
				<title>HTH_1 (PF00126)
"Bacterial regulatory helix-turn-helix protein, lysR family"</title>
				<rect class="PF00126" x="385" y="28" stroke-linejoin="round" width="5" height="24" fill="rgb(125,227,79)" stroke="rgb(99,181,63)" stroke-width="1" opacity="0.75" />
			</g>
			<g>
				<title>LysR_substrate (PF03466)
"LysR substrate binding domain"</title>
				<polygon class="PF03466" points="393,28 400,28 412,40 400,52 393,52" stroke-linejoin="round" width="20" height="24" fill="rgb(55,136,195)" stroke="rgb(44,108,156)" stroke-width="1" opacity="0.75" />
			</g>
		</g>
		<g>
			<title>
tryptophanyl-tRNA synthetase</title>
			<polygon class="
tryptophanyl-tRNA synthetase" points="425,25 425,25 425,10 455,40 425,70 425,55 425,55" fill="rgb(255,255,255)" fill-opacity="1.0" stroke="rgb(0,0,0)" stroke-width="2"  />
			<g>
				<title>tRNA-synt_1b (PF00579)
"tRNA synthetases class I (W and Y)"</title>
				<polygon class="PF00579" points="425,28 438,28 450,40 450,40 438,52 425,52" stroke-linejoin="round" width="25" height="24" fill="rgb(82,63,204)" stroke="rgb(65,50,163)" stroke-width="1" opacity="0.75" />
			</g>
		</g>
		<g>
			<title>
membrane protein</title>
			<polygon class="
membrane protein" points="460,25 514,25 514,10 544,40 514,70 514,55 460,55" fill="rgb(255,255,255)" fill-opacity="1.0" stroke="rgb(0,0,0)" stroke-width="2"  />
			<g>
				<title>DUF6185 (PF19683)
"Family of unknown function (DUF6185)"</title>
				<polygon class="PF19683" points="462,28 528,28 540,40 528,52 462,52" stroke-linejoin="round" width="81" height="24" fill="rgb(141,75,186)" stroke="rgb(112,60,148)" stroke-width="1" opacity="0.75" />
			</g>
		</g>
		<g>
			<title>
transporter</title>
			<polygon class="
transporter" points="600,25 576,25 576,10 546,40 576,70 576,55 600,55" fill="rgb(255,255,255)" fill-opacity="1.0" stroke="rgb(0,0,0)" stroke-width="2"  />
			<g>
				<title>SSF (PF00474)
"Sodium:solute symporter family"</title>
				<polygon class="PF00474" points="556,34 562,28 596,28 596,52 562,52 556,46" stroke-linejoin="round" width="40" height="24" fill="rgb(49,186,178)" stroke="rgb(39,148,142)" stroke-width="1" opacity="0.75" />
			</g>
		</g>
		<g>
			<title>
hypothetical protein</title>
			<polygon class="
hypothetical protein" points="607,40 615,10 615,70" fill="rgb(255,255,255)" fill-opacity="1.0" stroke="rgb(0,0,0)" stroke-width="2"  />
		</g>
	</g>
</svg>
