<svg version="1.1" baseProfile="full" xmlns="http://www.w3.org/2000/svg" width="708.4" height="80">
	<g>
		<line x1="10" y1="40.0" x2="698.4" y2="40.0" style="stroke:rgb(70,70,70); stroke-width:3 "/>
		<g>
			<title> (IF53_RS0104130)
trypsin-like serine protease</title>
			<polygon class=" (IF53_RS0104130)
trypsin-like serine protease" points="10,10 34,40 10,70" fill="rgb(255,255,255)" fill-opacity="1.0" stroke="rgb(0,0,0)" stroke-width="2"  />
			<g>
				<title>Trypsin (PF00089)
"Trypsin"</title>
				<polygon class="PF00089" points="14,28 21,28 30,40 21,52 14,52" stroke-linejoin="round" width="19" height="24" fill="rgb(207,127,78)" stroke="rgb(165,101,62)" stroke-width="1" opacity="0.75" />
			</g>
		</g>
		<g>
			<title>nshR (IF53_RS0104135)
NshR/TsnR family 23S rRNA methyltransferase</title>
			<polygon class="nshR (IF53_RS0104135)
NshR/TsnR family 23S rRNA methyltransferase" points="40,40 66,10 66,70" fill="rgb(255,255,255)" fill-opacity="1.0" stroke="rgb(0,0,0)" stroke-width="2"  />
			<g>
				<title>SpoU_methylase (PF00588)
"SpoU rRNA Methylase family"</title>
				<polygon class="PF00588" points="44,40 55,28 55,28 55,52 55,52" stroke-linejoin="round" width="14" height="24" fill="rgb(84,205,178)" stroke="rgb(67,164,142)" stroke-width="1" opacity="0.75" />
			</g>
			<g>
				<title>TSNR_N (PF04705)
"Thiostrepton-resistance methylase, N terminus"</title>
				<polygon class="PF04705" points="55,28 55,28 66,28 66,52 55,52 55,52" stroke-linejoin="round" width="11" height="24" fill="rgb(81,164,187)" stroke="rgb(64,131,149)" stroke-width="1" opacity="0.75" />
			</g>
		</g>
		<g>
			<title> (IF53_RS0104140)
cytochrome P450</title>
			<polygon class=" (IF53_RS0104140)
cytochrome P450" points="109,25 99,25 99,10 69,40 99,70 99,55 109,55" fill="rgb(255,255,255)" fill-opacity="1.0" stroke="rgb(0,0,0)" stroke-width="2"  />
			<g>
				<title>p450 (PF00067)
"Cytochrome P450"</title>
				<polygon class="PF00067" points="73,40 85,28 105,28 105,52 85,52" stroke-linejoin="round" width="36" height="24" fill="rgb(85,216,107)" stroke="rgb(68,172,85)" stroke-width="1" opacity="0.75" />
			</g>
		</g>
		<g>
			<title> (IF53_RS0104145)
class I SAM-dependent methyltransferase</title>
			<polygon class=" (IF53_RS0104145)
class I SAM-dependent methyltransferase" points="115,40 136,10 136,70" fill="rgb(255,255,255)" fill-opacity="1.0" stroke="rgb(0,0,0)" stroke-width="2"  />
			<g>
				<title>Methyltransf_11 (PF08241)
"Methyltransferase domain"</title>
				<polygon class="PF08241" points="121,37 128,28 130,28 130,52 128,52 121,43" stroke-linejoin="round" width="9" height="24" fill="rgb(106,219,159)" stroke="rgb(84,175,127)" stroke-width="1" opacity="0.75" />
			</g>
		</g>
		<g>
			<title> (IF53_RS0104150)
hypothetical protein</title>
			<polygon class=" (IF53_RS0104150)
hypothetical protein" points="151,25 165,25 165,10 195,40 165,70 165,55 151,55" fill="rgb(255,255,255)" fill-opacity="1.0" stroke="rgb(0,0,0)" stroke-width="2"  />
			<g>
				<title>YcaO (PF02624)
"YcaO cyclodehydratase, ATP-ad Mg2+-binding"</title>
				<polygon class="PF02624" points="158,28 179,28 191,40 191,40 179,52 158,52" stroke-linejoin="round" width="33" height="24" fill="rgb(76,84,185)" stroke="rgb(60,67,148)" stroke-width="1" opacity="0.75" />
			</g>
		</g>
		<g>
			<title> (IF53_RS0104155)
hypothetical protein</title>
			<polygon class=" (IF53_RS0104155)
hypothetical protein" points="196,10 216,40 196,70" fill="rgb(255,255,255)" fill-opacity="1.0" stroke="rgb(0,0,0)" stroke-width="2"  />
		</g>
		<g>
			<title> (IF53_RS0104160)
tpaE</title>
			<polygon class=" (IF53_RS0104160)
tpaE" points="218,25 241,25 241,10 271,40 241,70 241,55 218,55" fill="rgb(255,255,255)" fill-opacity="1.0" stroke="rgb(0,0,0)" stroke-width="2"  />
		</g>
		<g>
			<title> (IF53_RS0104165)
tpaF</title>
			<polygon class=" (IF53_RS0104165)
tpaF" points="272,10 295,40 272,70" fill="rgb(255,255,255)" fill-opacity="1.0" stroke="rgb(0,0,0)" stroke-width="2"  />
		</g>
		<g>
			<title> (IF53_RS01000000134015)
hypothetical protein</title>
			<polygon class=" (IF53_RS01000000134015)
hypothetical protein" points="296,25 324,25 324,10 354,40 324,70 324,55 296,55" fill="rgb(255,255,255)" fill-opacity="1.0" stroke="rgb(0,0,0)" stroke-width="2"  />
		</g>
		<g>
			<title> (IF53_RS0104175)
hypothetical protein</title>
			<polygon class=" (IF53_RS0104175)
hypothetical protein" points="356,25 387,25 387,10 417,40 387,70 387,55 356,55" fill="rgb(255,255,255)" fill-opacity="1.0" stroke="rgb(0,0,0)" stroke-width="2"  />
			<g>
				<title>YcaO (PF02624)
"YcaO cyclodehydratase, ATP-ad Mg2+-binding"</title>
				<polygon class="PF02624" points="379,28 401,28 413,40 413,40 401,52 379,52" stroke-linejoin="round" width="34" height="24" fill="rgb(76,84,185)" stroke="rgb(60,67,148)" stroke-width="1" opacity="0.75" />
			</g>
		</g>
		<g>
			<title> (IF53_RS0104180)
lantibiotic dehydratase</title>
			<polygon class=" (IF53_RS0104180)
lantibiotic dehydratase" points="419,25 477,25 477,10 507,40 477,70 477,55 419,55" fill="rgb(255,255,255)" fill-opacity="1.0" stroke="rgb(0,0,0)" stroke-width="2"  />
			<g>
				<title>Lant_dehydr_N (PF04738)
"Lantibiotic dehydratase, N terminus"</title>
				<polygon class="PF04738" points="433,28 491,28 498,35 498,45 491,52 433,52" stroke-linejoin="round" width="65" height="24" fill="rgb(219,60,229)" stroke="rgb(175,47,183)" stroke-width="1" opacity="0.75" />
			</g>
		</g>
		<g>
			<title> (IF53_RS0104185)
hypothetical protein</title>
			<polygon class=" (IF53_RS0104185)
hypothetical protein" points="507,25 509,25 509,10 539,40 509,70 509,55 507,55" fill="rgb(255,255,255)" fill-opacity="1.0" stroke="rgb(0,0,0)" stroke-width="2"  />
			<g>
				<title>Lant_dehydr_C (PF14028)
"Lantibiotic biosynthesis dehydratase C-term"</title>
				<polygon class="PF14028" points="508,28 522,28 534,40 522,52 508,52" stroke-linejoin="round" width="29" height="24" fill="rgb(107,223,113)" stroke="rgb(85,178,90)" stroke-width="1" opacity="0.75" />
			</g>
		</g>
		<g>
			<title> (IF53_RS1000000135460)
thiocillin/thiostrepton family thiazolyl peptide</title>
			<polygon class=" (IF53_RS1000000135460)
thiocillin/thiostrepton family thiazolyl peptide" points="542,10 547,40 542,70" fill="rgb(255,255,255)" fill-opacity="1.0" stroke="rgb(0,0,0)" stroke-width="2"  />
		</g>
		<g>
			<title> (IF53_RS1000000135465)
thiocillin/thiostrepton family thiazolyl peptide</title>
			<polygon class=" (IF53_RS1000000135465)
thiocillin/thiostrepton family thiazolyl peptide" points="551,10 556,40 551,70" fill="rgb(255,255,255)" fill-opacity="1.0" stroke="rgb(0,0,0)" stroke-width="2"  />
		</g>
		<g>
			<title> (IF53_RS0104200)
hypothetical protein</title>
			<polygon class=" (IF53_RS0104200)
hypothetical protein" points="560,25 566,25 566,10 596,40 566,70 566,55 560,55" fill="rgb(255,255,255)" fill-opacity="1.0" stroke="rgb(0,0,0)" stroke-width="2"  />
		</g>
		<g>
			<title> (IF53_RS0104205)
RiPP maturation radical SAM protein 1</title>
			<polygon class=" (IF53_RS0104205)
RiPP maturation radical SAM protein 1" points="598,25 633,25 633,10 663,40 633,70 633,55 598,55" fill="rgb(255,255,255)" fill-opacity="1.0" stroke="rgb(0,0,0)" stroke-width="2"  />
			<g>
				<title>B12-binding (PF02310)
"B12 binding domain"</title>
				<rect class="PF02310" x="609" y="28" stroke-linejoin="round" width="9" height="24" fill="rgb(145,190,60)" stroke="rgb(115,152,48)" stroke-width="1" opacity="0.75" />
			</g>
			<g>
				<title>Radical_SAM (PF04055)
"Radical SAM superfamily"</title>
				<rect class="PF04055" x="626" y="28" stroke-linejoin="round" width="16" height="24" fill="rgb(149,56,222)" stroke="rgb(119,44,177)" stroke-width="1" opacity="0.75" />
			</g>
		</g>
		<g>
			<title> (IF53_RS0104210)
hypothetical protein</title>
			<polygon class=" (IF53_RS0104210)
hypothetical protein" points="664,10 686,40 664,70" fill="rgb(255,255,255)" fill-opacity="1.0" stroke="rgb(0,0,0)" stroke-width="2"  />
			<g>
				<title>DUF5825 (PF19142)
"Family of unknown function (DUF5825)"</title>
				<polygon class="PF19142" points="668,28 673,28 682,40 673,52 668,52" stroke-linejoin="round" width="17" height="24" fill="rgb(193,53,182)" stroke="rgb(154,42,145)" stroke-width="1" opacity="0.75" />
			</g>
		</g>
		<g>
			<title> (IF53_RS0104215)
hypothetical protein</title>
			<polygon class=" (IF53_RS0104215)
hypothetical protein" points="687,10 698,40 687,70" fill="rgb(255,255,255)" fill-opacity="1.0" stroke="rgb(0,0,0)" stroke-width="2"  />
		</g>
	</g>
</svg>
