<svg version="1.1" baseProfile="full" xmlns="http://www.w3.org/2000/svg" width="1616.1" height="80">
	<g>
		<line x1="10" y1="40.0" x2="1606.1" y2="40.0" style="stroke:rgb(70,70,70); stroke-width:3 "/>
		<g>
			<title>
unknown</title>
			<polygon class="
unknown" points="72,25 65,25 65,10 35,40 65,70 65,55 72,55" fill="rgb(255,255,255)" fill-opacity="1.0" stroke="rgb(0,0,0)" stroke-width="2"  />
			<g>
				<title>TPP_enzyme_C (PF02775)
"Thiamine pyrophosphate enzyme, C-terminal TPP binding domain"</title>
				<polygon class="PF02775" points="39,40 51,28 51,28 51,52 51,52" stroke-linejoin="round" width="13" height="24" fill="rgb(156,179,45)" stroke="rgb(124,143,36)" stroke-width="1" opacity="0.75" />
			</g>
			<g>
				<title>TPP_enzyme_N (PF02776)
"Thiamine pyrophosphate enzyme, N-terminal TPP binding domain"</title>
				<rect class="PF02776" x="55" y="28" stroke-linejoin="round" width="16" height="24" fill="rgb(55,81,185)" stroke="rgb(44,64,148)" stroke-width="1" opacity="0.75" />
			</g>
		</g>
		<g>
			<title>
unknown</title>
			<polygon class="
unknown" points="107,25 103,25 103,10 73,40 103,70 103,55 107,55" fill="rgb(255,255,255)" fill-opacity="1.0" stroke="rgb(0,0,0)" stroke-width="2"  />
			<g>
				<title>PEP_mutase (PF13714)
"Phosphoenolpyruvate phosphomutase"</title>
				<polygon class="PF13714" points="80,37 89,28 104,28 104,52 89,52 80,43" stroke-linejoin="round" width="24" height="24" fill="rgb(215,91,155)" stroke="rgb(172,72,123)" stroke-width="1" opacity="0.75" />
			</g>
		</g>
		<g>
			<title>
unknown</title>
			<polygon class="
unknown" points="137,25 137,25 137,10 107,40 137,70 137,55 137,55" fill="rgb(255,255,255)" fill-opacity="1.0" stroke="rgb(0,0,0)" stroke-width="2"  />
			<g>
				<title>FA_hydroxylase (PF04116)
"Fatty acid hydroxylase superfamily"</title>
				<polygon class="PF04116" points="114,37 123,28 127,28 127,52 123,52 114,43" stroke-linejoin="round" width="13" height="24" fill="rgb(171,60,209)" stroke="rgb(136,48,167)" stroke-width="1" opacity="0.75" />
			</g>
		</g>
		<g>
			<title>
unknown</title>
			<polygon class="
unknown" points="138,40 160,10 160,70" fill="rgb(255,255,255)" fill-opacity="1.0" stroke="rgb(0,0,0)" stroke-width="2"  />
			<g>
				<title>Acyltransferase (PF01553)
"Acyltransferase"</title>
				<polygon class="PF01553" points="145,36 151,28 158,28 158,52 151,52 145,44" stroke-linejoin="round" width="13" height="24" fill="rgb(87,176,216)" stroke="rgb(69,140,172)" stroke-width="1" opacity="0.75" />
			</g>
		</g>
		<g>
			<title>
Ptm01</title>
			<polygon class="
Ptm01" points="164,40 189,10 189,70" fill="rgb(255,255,255)" fill-opacity="1.0" stroke="rgb(0,0,0)" stroke-width="2"  />
			<g>
				<title>adh_short_C2 (PF13561)
"Enoyl-(Acyl carrier protein) reductase"</title>
				<polygon class="PF13561" points="168,40 178,28 187,28 187,52 178,52" stroke-linejoin="round" width="23" height="24" fill="rgb(73,205,127)" stroke="rgb(58,164,101)" stroke-width="1" opacity="0.75" />
			</g>
		</g>
		<g>
			<title>
PtmU1</title>
			<polygon class="
PtmU1" points="189,40 207,10 207,70" fill="rgb(255,255,255)" fill-opacity="1.0" stroke="rgb(0,0,0)" stroke-width="2"  />
			<g>
				<title>SnoaL_4 (PF13577)
"SnoaL-like domain"</title>
				<polygon class="PF13577" points="194,38 200,28 205,28 205,52 200,52 194,42" stroke-linejoin="round" width="11" height="24" fill="rgb(68,223,209)" stroke="rgb(54,178,167)" stroke-width="1" opacity="0.75" />
			</g>
		</g>
		<g>
			<title>
PtmA1</title>
			<polygon class="
PtmA1" points="210,25 223,25 223,10 253,40 223,70 223,55 210,55" fill="rgb(255,255,255)" fill-opacity="1.0" stroke="rgb(0,0,0)" stroke-width="2"  />
		</g>
		<g>
			<title>
PtmU2</title>
			<polygon class="
PtmU2" points="254,10 277,40 254,70" fill="rgb(255,255,255)" fill-opacity="1.0" stroke="rgb(0,0,0)" stroke-width="2"  />
		</g>
		<g>
			<title>
PtmR2</title>
			<polygon class="
PtmR2" points="279,40 292,10 292,70" fill="rgb(255,255,255)" fill-opacity="1.0" stroke="rgb(0,0,0)" stroke-width="2"  />
			<g>
				<title>OB_aCoA_assoc (PF01796)
"DUF35 OB-fold domain, acyl-CoA-associated"</title>
				<polygon class="PF01796" points="282,40 286,31 286,49" stroke-linejoin="round" width="6" height="24" fill="rgb(76,159,198)" stroke="rgb(60,127,158)" stroke-width="1" opacity="0.75" />
			</g>
			<g>
				<title>DUF35_N (PF12172)
"Rubredoxin-like zinc ribbon domain (DUF35_N)"</title>
				<polygon class="PF12172" points="287,29 287,28 290,28 290,52 287,52 287,51" stroke-linejoin="round" width="3" height="24" fill="rgb(189,90,191)" stroke="rgb(151,72,152)" stroke-width="1" opacity="0.75" />
			</g>
		</g>
		<g>
			<title>
PtmD</title>
			<polygon class="
PtmD" points="330,25 322,25 322,10 292,40 322,70 322,55 330,55" fill="rgb(255,255,255)" fill-opacity="1.0" stroke="rgb(0,0,0)" stroke-width="2"  />
		</g>
		<g>
			<title>
PtmA2</title>
			<polygon class="
PtmA2" points="383,25 361,25 361,10 331,40 361,70 361,55 383,55" fill="rgb(255,255,255)" fill-opacity="1.0" stroke="rgb(0,0,0)" stroke-width="2"  />
			<g>
				<title>AMP-binding_C (PF13193)
"AMP-binding enzyme C-terminal domain"</title>
				<polygon class="PF13193" points="335,40 340,35 340,45" stroke-linejoin="round" width="7" height="24" fill="rgb(182,50,118)" stroke="rgb(145,39,94)" stroke-width="1" opacity="0.75" />
			</g>
			<g>
				<title>AMP-binding (PF00501)
"AMP-binding enzyme"</title>
				<polygon class="PF00501" points="341,34 347,28 381,28 381,52 347,52 341,46" stroke-linejoin="round" width="40" height="24" fill="rgb(60,217,223)" stroke="rgb(48,173,178)" stroke-width="1" opacity="0.75" />
			</g>
		</g>
		<g>
			<title>
PtmU3</title>
			<polygon class="
PtmU3" points="420,25 414,25 414,10 384,40 414,70 414,55 420,55" fill="rgb(255,255,255)" fill-opacity="1.0" stroke="rgb(0,0,0)" stroke-width="2"  />
			<g>
				<title>Amidohydro_2 (PF04909)
"Amidohydrolase"</title>
				<polygon class="PF04909" points="388,40 400,28 418,28 418,52 400,52" stroke-linejoin="round" width="33" height="24" fill="rgb(95,225,123)" stroke="rgb(76,180,98)" stroke-width="1" opacity="0.75" />
			</g>
		</g>
		<g>
			<title>
PtmH</title>
			<polygon class="
PtmH" points="423,40 451,10 451,70" fill="rgb(255,255,255)" fill-opacity="1.0" stroke="rgb(0,0,0)" stroke-width="2"  />
			<g>
				<title>MaoC_dehydratas (PF01575)
"MaoC like domain"</title>
				<polygon class="PF01575" points="427,40 435,32 435,48" stroke-linejoin="round" width="11" height="24" fill="rgb(218,129,86)" stroke="rgb(174,103,68)" stroke-width="1" opacity="0.75" />
			</g>
		</g>
		<g>
			<title>
PtmT1</title>
			<polygon class="
PtmT1" points="484,25 484,25 484,10 454,40 484,70 484,55 484,55" fill="rgb(255,255,255)" fill-opacity="1.0" stroke="rgb(0,0,0)" stroke-width="2"  />
			<g>
				<title>UbiA (PF01040)
"UbiA prenyltransferase family"</title>
				<polygon class="PF01040" points="458,40 470,28 481,28 481,52 470,52" stroke-linejoin="round" width="25" height="24" fill="rgb(189,57,100)" stroke="rgb(151,45,80)" stroke-width="1" opacity="0.75" />
			</g>
		</g>
		<g>
			<title>
PtmO2</title>
			<polygon class="
PtmO2" points="528,25 514,25 514,10 484,40 514,70 514,55 528,55" fill="rgb(255,255,255)" fill-opacity="1.0" stroke="rgb(0,0,0)" stroke-width="2"  />
			<g>
				<title>p450 (PF00067)
"Cytochrome P450"</title>
				<polygon class="PF00067" points="488,40 500,28 524,28 524,52 500,52" stroke-linejoin="round" width="39" height="24" fill="rgb(85,216,107)" stroke="rgb(68,172,85)" stroke-width="1" opacity="0.75" />
			</g>
		</g>
		<g>
			<title>
PtmT2</title>
			<polygon class="
PtmT2" points="582,25 559,25 559,10 529,40 559,70 559,55 582,55" fill="rgb(255,255,255)" fill-opacity="1.0" stroke="rgb(0,0,0)" stroke-width="2"  />
			<g>
				<title>SQHop_cyclase_C (PF13243)
"Squalene-hopene cyclase C-terminal domain"</title>
				<polygon class="PF13243" points="533,40 545,28 547,28 547,52 545,52" stroke-linejoin="round" width="15" height="24" fill="rgb(191,58,201)" stroke="rgb(152,46,160)" stroke-width="1" opacity="0.75" />
			</g>
			<g>
				<title>Prenyltrans (PF00432)
"Prenyltransferase and squalene oxidase repeat"</title>
				<rect class="PF00432" x="573" y="28" stroke-linejoin="round" width="3" height="24" fill="rgb(218,215,79)" stroke="rgb(174,172,63)" stroke-width="1" opacity="0.75" />
			</g>
		</g>
		<g>
			<title>
PtmO3</title>
			<polygon class="
PtmO3" points="587,10 615,40 587,70" fill="rgb(255,255,255)" fill-opacity="1.0" stroke="rgb(0,0,0)" stroke-width="2"  />
			<g>
				<title>TauD (PF02668)
"Taurine catabolism dioxygenase TauD, TfdA family"</title>
				<polygon class="PF02668" points="587,28 599,28 611,40 599,52 587,52" stroke-linejoin="round" width="25" height="24" fill="rgb(180,79,217)" stroke="rgb(144,63,173)" stroke-width="1" opacity="0.75" />
			</g>
		</g>
		<g>
			<title>
PtmO4</title>
			<polygon class="
PtmO4" points="615,25 623,25 623,10 653,40 623,70 623,55 615,55" fill="rgb(255,255,255)" fill-opacity="1.0" stroke="rgb(0,0,0)" stroke-width="2"  />
			<g>
				<title>Acyl-CoA_dh_N (PF02771)
"Acyl-CoA dehydrogenase, N-terminal domain"</title>
				<rect class="PF02771" x="615" y="28" stroke-linejoin="round" width="11" height="24" fill="rgb(105,135,218)" stroke="rgb(84,108,174)" stroke-width="1" opacity="0.75" />
			</g>
			<g>
				<title>Acyl-CoA_dh_M (PF02770)
"Acyl-CoA dehydrogenase, middle domain"</title>
				<rect class="PF02770" x="627" y="28" stroke-linejoin="round" width="9" height="24" fill="rgb(225,186,97)" stroke="rgb(180,148,77)" stroke-width="1" opacity="0.75" />
			</g>
			<g>
				<title>Acyl-CoA_dh_1 (PF00441)
"Acyl-CoA dehydrogenase, C-terminal domain"</title>
				<polygon class="PF00441" points="637,28 637,28 649,40 637,52 637,52" stroke-linejoin="round" width="14" height="24" fill="rgb(85,191,117)" stroke="rgb(68,152,93)" stroke-width="1" opacity="0.75" />
			</g>
		</g>
		<g>
			<title>
PtmT3</title>
			<polygon class="
PtmT3" points="654,25 655,25 655,10 685,40 655,70 655,55 654,55" fill="rgb(255,255,255)" fill-opacity="1.0" stroke="rgb(0,0,0)" stroke-width="2"  />
			<g>
				<title>Terpene_syn_C_2 (PF19086)
"Terpene synthase family 2, C-terminal metal binding"</title>
				<polygon class="PF19086" points="660,28 668,28 679,39 679,41 668,52 660,52" stroke-linejoin="round" width="19" height="24" fill="rgb(148,71,194)" stroke="rgb(118,56,155)" stroke-width="1" opacity="0.75" />
			</g>
		</g>
		<g>
			<title>
PtmO5</title>
			<polygon class="
PtmO5" points="686,25 699,25 699,10 729,40 699,70 699,55 686,55" fill="rgb(255,255,255)" fill-opacity="1.0" stroke="rgb(0,0,0)" stroke-width="2"  />
			<g>
				<title>p450 (PF00067)
"Cytochrome P450"</title>
				<polygon class="PF00067" points="706,28 712,28 724,40 712,52 706,52" stroke-linejoin="round" width="20" height="24" fill="rgb(85,216,107)" stroke="rgb(68,172,85)" stroke-width="1" opacity="0.75" />
			</g>
		</g>
		<g>
			<title>
PtmR3</title>
			<polygon class="
PtmR3" points="729,25 734,25 734,10 764,40 734,70 734,55 729,55" fill="rgb(255,255,255)" fill-opacity="1.0" stroke="rgb(0,0,0)" stroke-width="2"  />
			<g>
				<title>APH (PF01636)
"Phosphotransferase enzyme family"</title>
				<polygon class="PF01636" points="735,28 748,28 759,39 759,41 748,52 735,52" stroke-linejoin="round" width="24" height="24" fill="rgb(106,220,228)" stroke="rgb(84,176,182)" stroke-width="1" opacity="0.75" />
			</g>
		</g>
		<g>
			<title>
PtmO6</title>
			<polygon class="
PtmO6" points="768,10 796,40 768,70" fill="rgb(255,255,255)" fill-opacity="1.0" stroke="rgb(0,0,0)" stroke-width="2"  />
			<g>
				<title>TauD (PF02668)
"Taurine catabolism dioxygenase TauD, TfdA family"</title>
				<polygon class="PF02668" points="768,28 780,28 791,40 780,52 768,52" stroke-linejoin="round" width="25" height="24" fill="rgb(180,79,217)" stroke="rgb(144,63,173)" stroke-width="1" opacity="0.75" />
			</g>
		</g>
		<g>
			<title>
PtmT4</title>
			<polygon class="
PtmT4" points="798,25 802,25 802,10 832,40 802,70 802,55 798,55" fill="rgb(255,255,255)" fill-opacity="1.0" stroke="rgb(0,0,0)" stroke-width="2"  />
			<g>
				<title>polyprenyl_synt (PF00348)
"Polyprenyl synthetase"</title>
				<polygon class="PF00348" points="803,28 816,28 827,39 827,41 816,52 803,52" stroke-linejoin="round" width="24" height="24" fill="rgb(61,206,65)" stroke="rgb(48,164,52)" stroke-width="1" opacity="0.75" />
			</g>
		</g>
		<g>
			<title>
PtmM1</title>
			<polygon class="
PtmM1" points="832,25 846,25 846,10 876,40 846,70 846,55 832,55" fill="rgb(255,255,255)" fill-opacity="1.0" stroke="rgb(0,0,0)" stroke-width="2"  />
			<g>
				<title>LYTB (PF02401)
"LytB protein"</title>
				<polygon class="PF02401" points="844,28 860,28 871,39 871,41 860,52 844,52" stroke-linejoin="round" width="27" height="24" fill="rgb(155,62,193)" stroke="rgb(124,49,154)" stroke-width="1" opacity="0.75" />
			</g>
		</g>
		<g>
			<title>
PtmM2</title>
			<polygon class="
PtmM2" points="878,25 884,25 884,10 914,40 884,70 884,55 878,55" fill="rgb(255,255,255)" fill-opacity="1.0" stroke="rgb(0,0,0)" stroke-width="2"  />
			<g>
				<title>GcpE (PF04551)
"GcpE protein"</title>
				<polygon class="PF04551" points="879,28 898,28 910,40 898,52 879,52" stroke-linejoin="round" width="34" height="24" fill="rgb(61,170,205)" stroke="rgb(48,136,164)" stroke-width="1" opacity="0.75" />
			</g>
		</g>
		<g>
			<title>
PtmM3</title>
			<polygon class="
PtmM3" points="914,25 942,25 942,10 972,40 942,70 942,55 914,55" fill="rgb(255,255,255)" fill-opacity="1.0" stroke="rgb(0,0,0)" stroke-width="2"  />
			<g>
				<title>DXP_synthase_N (PF13292)
"1-deoxy-D-xylulose-5-phosphate synthase"</title>
				<rect class="PF13292" x="914" y="28" stroke-linejoin="round" width="19" height="24" fill="rgb(46,179,173)" stroke="rgb(36,143,138)" stroke-width="1" opacity="0.75" />
			</g>
			<g>
				<title>Transket_pyr (PF02779)
"Transketolase, pyrimidine binding domain"</title>
				<polygon class="PF02779" points="941,28 956,28 957,29 957,51 956,52 941,52" stroke-linejoin="round" width="16" height="24" fill="rgb(189,186,84)" stroke="rgb(151,148,67)" stroke-width="1" opacity="0.75" />
			</g>
			<g>
				<title>Transketolase_C (PF02780)
"Transketolase, C-terminal domain"</title>
				<polygon class="PF02780" points="959,31 968,40 959,49" stroke-linejoin="round" width="12" height="24" fill="rgb(76,206,101)" stroke="rgb(60,164,80)" stroke-width="1" opacity="0.75" />
			</g>
		</g>
		<g>
			<title>
PtmB1</title>
			<polygon class="
PtmB1" points="975,10 1002,40 975,70" fill="rgb(255,255,255)" fill-opacity="1.0" stroke="rgb(0,0,0)" stroke-width="2"  />
			<g>
				<title>DeoC (PF01791)
"DeoC/LacD family aldolase"</title>
				<polygon class="PF01791" points="977,28 987,28 998,40 998,40 987,52 977,52" stroke-linejoin="round" width="21" height="24" fill="rgb(151,59,198)" stroke="rgb(120,47,158)" stroke-width="1" opacity="0.75" />
			</g>
		</g>
		<g>
			<title>
PtmB2</title>
			<polygon class="
PtmB2" points="1005,25 1011,25 1011,10 1041,40 1011,70 1011,55 1005,55" fill="rgb(255,255,255)" fill-opacity="1.0" stroke="rgb(0,0,0)" stroke-width="2"  />
			<g>
				<title>DHQS (PF01959)
"3-dehydroquinate synthase II"</title>
				<polygon class="PF01959" points="1005,28 1025,28 1037,40 1025,52 1005,52" stroke-linejoin="round" width="36" height="24" fill="rgb(199,181,86)" stroke="rgb(159,144,68)" stroke-width="1" opacity="0.75" />
			</g>
		</g>
		<g>
			<title>
PtmB3</title>
			<polygon class="
PtmB3" points="1042,25 1051,25 1051,10 1081,40 1051,70 1051,55 1042,55" fill="rgb(255,255,255)" fill-opacity="1.0" stroke="rgb(0,0,0)" stroke-width="2"  />
			<g>
				<title>FAD_binding_3 (PF01494)
"FAD binding domain"</title>
				<polygon class="PF01494" points="1042,28 1065,28 1076,39 1076,41 1065,52 1042,52" stroke-linejoin="round" width="34" height="24" fill="rgb(182,175,59)" stroke="rgb(145,140,47)" stroke-width="1" opacity="0.75" />
			</g>
		</g>
		<g>
			<title>
PtmC</title>
			<polygon class="
PtmC" points="1083,10 1112,40 1083,70" fill="rgb(255,255,255)" fill-opacity="1.0" stroke="rgb(0,0,0)" stroke-width="2"  />
			<g>
				<title>Acetyltransf_2 (PF00797)
"N-acetyltransferase"</title>
				<polygon class="PF00797" points="1085,28 1096,28 1107,39 1107,41 1096,52 1085,52" stroke-linejoin="round" width="22" height="24" fill="rgb(68,124,226)" stroke="rgb(54,99,180)" stroke-width="1" opacity="0.75" />
			</g>
		</g>
		<g>
			<title>
PtmP1</title>
			<polygon class="
PtmP1" points="1162,25 1145,25 1145,10 1115,40 1145,70 1145,55 1162,55" fill="rgb(255,255,255)" fill-opacity="1.0" stroke="rgb(0,0,0)" stroke-width="2"  />
			<g>
				<title>OB_aCoA_assoc (PF01796)
"DUF35 OB-fold domain, acyl-CoA-associated"</title>
				<polygon class="PF01796" points="1119,40 1123,36 1123,44" stroke-linejoin="round" width="6" height="24" fill="rgb(76,159,198)" stroke="rgb(60,127,158)" stroke-width="1" opacity="0.75" />
			</g>
			<g>
				<title>DUF35_N (PF12172)
"Rubredoxin-like zinc ribbon domain (DUF35_N)"</title>
				<polygon class="PF12172" points="1123,36 1125,34 1125,46 1123,44" stroke-linejoin="round" width="2" height="24" fill="rgb(189,90,191)" stroke="rgb(151,72,152)" stroke-width="1" opacity="0.75" />
			</g>
		</g>
		<g>
			<title>
PtmP2</title>
			<polygon class="
PtmP2" points="1165,25 1176,25 1176,10 1206,40 1176,70 1176,55 1165,55" fill="rgb(255,255,255)" fill-opacity="1.0" stroke="rgb(0,0,0)" stroke-width="2"  />
			<g>
				<title>Thiolase_N (PF00108)
"Thiolase, N-terminal domain"</title>
				<rect class="PF00108" x="1166" y="28" stroke-linejoin="round" width="21" height="24" fill="rgb(82,90,195)" stroke="rgb(65,72,156)" stroke-width="1" opacity="0.75" />
			</g>
			<g>
				<title>Thiolase_C (PF02803)
"Thiolase, C-terminal domain"</title>
				<polygon class="PF02803" points="1188,28 1190,28 1202,40 1202,40 1190,52 1188,52" stroke-linejoin="round" width="14" height="24" fill="rgb(218,187,56)" stroke="rgb(174,149,44)" stroke-width="1" opacity="0.75" />
			</g>
		</g>
		<g>
			<title>
PtmO7</title>
			<polygon class="
PtmO7" points="1207,25 1207,25 1207,10 1237,40 1207,70 1207,55 1207,55" fill="rgb(255,255,255)" fill-opacity="1.0" stroke="rgb(0,0,0)" stroke-width="2"  />
			<g>
				<title>adh_short (PF00106)
"short chain dehydrogenase"</title>
				<polygon class="PF00106" points="1207,28 1220,28 1227,35 1227,45 1220,52 1207,52" stroke-linejoin="round" width="20" height="24" fill="rgb(182,219,73)" stroke="rgb(145,175,58)" stroke-width="1" opacity="0.75" />
			</g>
		</g>
		<g>
			<title>
PtmR1</title>
			<polygon class="
PtmR1" points="1239,40 1262,10 1262,70" fill="rgb(255,255,255)" fill-opacity="1.0" stroke="rgb(0,0,0)" stroke-width="2"  />
			<g>
				<title>FCD (PF07729)
"FCD domain"</title>
				<polygon class="PF07729" points="1243,40 1252,29 1252,51" stroke-linejoin="round" width="12" height="24" fill="rgb(74,75,215)" stroke="rgb(59,60,172)" stroke-width="1" opacity="0.75" />
			</g>
			<g>
				<title>GntR (PF00392)
"Bacterial regulatory proteins, gntR family"</title>
				<rect class="PF00392" x="1255" y="28" stroke-linejoin="round" width="6" height="24" fill="rgb(160,85,194)" stroke="rgb(127,68,155)" stroke-width="1" opacity="0.75" />
			</g>
		</g>
		<g>
			<title>
PtmO8</title>
			<polygon class="
PtmO8" points="1272,10 1299,40 1272,70" fill="rgb(255,255,255)" fill-opacity="1.0" stroke="rgb(0,0,0)" stroke-width="2"  />
			<g>
				<title>adh_short_C2 (PF13561)
"Enoyl-(Acyl carrier protein) reductase"</title>
				<polygon class="PF13561" points="1274,28 1284,28 1295,40 1284,52 1274,52" stroke-linejoin="round" width="23" height="24" fill="rgb(73,205,127)" stroke="rgb(58,164,101)" stroke-width="1" opacity="0.75" />
			</g>
		</g>
		<g>
			<title>
PtmU4</title>
			<polygon class="
PtmU4" points="1300,25 1329,25 1329,10 1359,40 1329,70 1329,55 1300,55" fill="rgb(255,255,255)" fill-opacity="1.0" stroke="rgb(0,0,0)" stroke-width="2"  />
			<g>
				<title>CoA_transf_3 (PF02515)
"CoA-transferase family III"</title>
				<rect class="PF02515" x="1304" y="28" stroke-linejoin="round" width="21" height="24" fill="rgb(226,102,90)" stroke="rgb(180,81,72)" stroke-width="1" opacity="0.75" />
			</g>
			<g>
				<title>CoA_transf_3 (PF02515)
"CoA-transferase family III"</title>
				<polygon class="PF02515" points="1327,28 1343,28 1355,40 1343,52 1327,52" stroke-linejoin="round" width="29" height="24" fill="rgb(226,102,90)" stroke="rgb(180,81,72)" stroke-width="1" opacity="0.75" />
			</g>
		</g>
		<g>
			<title>
PtmA3</title>
			<polygon class="
PtmA3" points="1361,25 1383,25 1383,10 1413,40 1383,70 1383,55 1361,55" fill="rgb(255,255,255)" fill-opacity="1.0" stroke="rgb(0,0,0)" stroke-width="2"  />
			<g>
				<title>AMP-binding (PF00501)
"AMP-binding enzyme"</title>
				<polygon class="PF00501" points="1362,28 1397,28 1403,34 1403,46 1397,52 1362,52" stroke-linejoin="round" width="41" height="24" fill="rgb(60,217,223)" stroke="rgb(48,173,178)" stroke-width="1" opacity="0.75" />
			</g>
			<g>
				<title>AMP-binding_C (PF13193)
"AMP-binding enzyme C-terminal domain"</title>
				<polygon class="PF13193" points="1404,35 1409,40 1404,45" stroke-linejoin="round" width="7" height="24" fill="rgb(182,50,118)" stroke="rgb(145,39,94)" stroke-width="1" opacity="0.75" />
			</g>
		</g>
		<g>
			<title>
PtmP3</title>
			<polygon class="
PtmP3" points="1419,25 1429,25 1429,10 1459,40 1429,70 1429,55 1419,55" fill="rgb(255,255,255)" fill-opacity="1.0" stroke="rgb(0,0,0)" stroke-width="2"  />
			<g>
				<title>ketoacyl-synt (PF00109)
"Beta-ketoacyl synthase, N-terminal domain"</title>
				<rect class="PF00109" x="1419" y="28" stroke-linejoin="round" width="24" height="24" fill="rgb(112,116,228)" stroke="rgb(89,92,182)" stroke-width="1" opacity="0.75" />
			</g>
			<g>
				<title>Ketoacyl-synt_C (PF02801)
"Beta-ketoacyl synthase, C-terminal domain"</title>
				<polygon class="PF02801" points="1444,29 1455,40 1455,40 1444,51" stroke-linejoin="round" width="11" height="24" fill="rgb(215,78,102)" stroke="rgb(172,62,81)" stroke-width="1" opacity="0.75" />
			</g>
		</g>
		<g>
			<title>
PtmP4</title>
			<polygon class="
PtmP4" points="1464,25 1488,25 1488,10 1518,40 1488,70 1488,55 1464,55" fill="rgb(255,255,255)" fill-opacity="1.0" stroke="rgb(0,0,0)" stroke-width="2"  />
			<g>
				<title>MFS_1 (PF07690)
"Major Facilitator Superfamily"</title>
				<polygon class="PF07690" points="1469,28 1501,28 1508,35 1508,45 1501,52 1469,52" stroke-linejoin="round" width="39" height="24" fill="rgb(193,224,74)" stroke="rgb(154,179,59)" stroke-width="1" opacity="0.75" />
			</g>
		</g>
		<g>
			<title>
PtmO9</title>
			<polygon class="
PtmO9" points="1519,10 1530,40 1519,70" fill="rgb(255,255,255)" fill-opacity="1.0" stroke="rgb(0,0,0)" stroke-width="2"  />
			<g>
				<title>Fer4 (PF00037)
"4Fe-4S binding domain"</title>
				<polygon class="PF00037" points="1522,28 1522,28 1524,32 1524,48 1522,52 1522,52" stroke-linejoin="round" width="2" height="24" fill="rgb(226,193,80)" stroke="rgb(180,154,64)" stroke-width="1" opacity="0.75" />
			</g>
		</g>
		<g>
			<title>
unknown</title>
			<polygon class="
unknown" points="1573,25 1564,25 1564,10 1534,40 1564,70 1564,55 1573,55" fill="rgb(255,255,255)" fill-opacity="1.0" stroke="rgb(0,0,0)" stroke-width="2"  />
			<g>
				<title>Glycos_transf_1 (PF00534)
"Glycosyl transferases group 1"</title>
				<polygon class="PF00534" points="1538,40 1550,28 1552,28 1552,52 1550,52" stroke-linejoin="round" width="16" height="24" fill="rgb(228,92,150)" stroke="rgb(182,73,119)" stroke-width="1" opacity="0.75" />
			</g>
		</g>
	</g>
</svg>
