<svg version="1.1" baseProfile="full" xmlns="http://www.w3.org/2000/svg" width="1101.2" height="80">
	<g>
		<line x1="10" y1="40.0" x2="1091.2" y2="40.0" style="stroke:rgb(70,70,70); stroke-width:3 "/>
		<g>
			<title>
probable transcriptional regulator</title>
			<polygon class="
probable transcriptional regulator" points="16,10 34,40 16,70" fill="rgb(255,255,255)" fill-opacity="1.0" stroke="rgb(0,0,0)" stroke-width="2"  />
			<g>
				<title>TetR_N (PF00440)
"Bacterial regulatory proteins, tetR family"</title>
				<rect class="PF00440" x="17" y="28" stroke-linejoin="round" width="4" height="24" fill="rgb(73,212,190)" stroke="rgb(58,169,152)" stroke-width="1" opacity="0.75" />
			</g>
		</g>
		<g>
			<title>
hypothetical protein</title>
			<polygon class="
hypothetical protein" points="52,40 72,10 72,70" fill="rgb(255,255,255)" fill-opacity="1.0" stroke="rgb(0,0,0)" stroke-width="2"  />
			<g>
				<title>Pirin_C_2 (PF17954)
"Quercetinase C-terminal cupin domain"</title>
				<polygon class="PF17954" points="56,40 57,38 57,42" stroke-linejoin="round" width="5" height="24" fill="rgb(224,140,102)" stroke="rgb(179,112,81)" stroke-width="1" opacity="0.75" />
			</g>
			<g>
				<title>Pirin (PF02678)
"Pirin"</title>
				<polygon class="PF02678" points="60,34 64,28 71,28 71,52 64,52 60,46" stroke-linejoin="round" width="11" height="24" fill="rgb(139,213,61)" stroke="rgb(111,170,48)" stroke-width="1" opacity="0.75" />
			</g>
		</g>
		<g>
			<title>
probable threonine ammonia-lyase</title>
			<polygon class="
probable threonine ammonia-lyase" points="112,25 110,25 110,10 80,40 110,70 110,55 112,55" fill="rgb(255,255,255)" fill-opacity="1.0" stroke="rgb(0,0,0)" stroke-width="2"  />
			<g>
				<title>PALP (PF00291)
"Pyridoxal-phosphate dependent enzyme"</title>
				<polygon class="PF00291" points="84,40 96,28 109,28 109,52 96,52" stroke-linejoin="round" width="28" height="24" fill="rgb(180,55,145)" stroke="rgb(144,44,116)" stroke-width="1" opacity="0.75" />
			</g>
		</g>
		<g>
			<title>
hypothetical protein</title>
			<polygon class="
hypothetical protein" points="121,10 141,40 121,70" fill="rgb(255,255,255)" fill-opacity="1.0" stroke="rgb(0,0,0)" stroke-width="2"  />
			<g>
				<title>PAS_6 (PF08348)
"YheO-like PAS domain"</title>
				<polygon class="PF08348" points="121,28 129,28 132,32 132,48 129,52 121,52" stroke-linejoin="round" width="11" height="24" fill="rgb(214,82,179)" stroke="rgb(171,65,143)" stroke-width="1" opacity="0.75" />
			</g>
			<g>
				<title>HTH_22 (PF13309)
"HTH domain"</title>
				<polygon class="PF13309" points="135,36 138,40 135,44" stroke-linejoin="round" width="6" height="24" fill="rgb(61,217,91)" stroke="rgb(48,173,72)" stroke-width="1" opacity="0.75" />
			</g>
		</g>
		<g>
			<title>bauF
probable acinetobactin utilization protein</title>
			<polygon class="bauF
probable acinetobactin utilization protein" points="141,40 169,10 169,70" fill="rgb(255,255,255)" fill-opacity="1.0" stroke="rgb(0,0,0)" stroke-width="2"  />
			<g>
				<title>SIP (PF04954)
"Siderophore-interacting protein"</title>
				<polygon class="PF04954" points="145,40 155,30 155,50" stroke-linejoin="round" width="11" height="24" fill="rgb(75,222,95)" stroke="rgb(60,177,76)" stroke-width="1" opacity="0.75" />
			</g>
			<g>
				<title>FAD_binding_9 (PF08021)
"Siderophore-interacting FAD-binding domain"</title>
				<polygon class="PF08021" points="156,29 156,28 165,28 165,52 156,52 156,51" stroke-linejoin="round" width="9" height="24" fill="rgb(58,190,106)" stroke="rgb(46,152,84)" stroke-width="1" opacity="0.75" />
			</g>
		</g>
		<g>
			<title>basA
probable acinetobactin biosynthesis protein</title>
			<polygon class="basA
probable acinetobactin biosynthesis protein" points="183,25 214,25 214,10 244,40 214,70 214,55 183,55" fill="rgb(255,255,255)" fill-opacity="1.0" stroke="rgb(0,0,0)" stroke-width="2"  />
			<g>
				<title>AMP-binding (PF00501)
"AMP-binding enzyme"</title>
				<rect class="PF00501" x="185" y="28" stroke-linejoin="round" width="39" height="24" fill="rgb(60,217,223)" stroke="rgb(48,173,178)" stroke-width="1" opacity="0.75" />
			</g>
			<g>
				<title>AMP-binding_C (PF13193)
"AMP-binding enzyme C-terminal domain"</title>
				<polygon class="PF13193" points="225,28 228,28 232,32 232,48 228,52 225,52" stroke-linejoin="round" width="7" height="24" fill="rgb(182,50,118)" stroke="rgb(145,39,94)" stroke-width="1" opacity="0.75" />
			</g>
		</g>
		<g>
			<title>basB
probable acinetobactin biosynthesis protein</title>
			<polygon class="basB
probable acinetobactin biosynthesis protein" points="316,25 277,25 277,10 247,40 277,70 277,55 316,55" fill="rgb(255,255,255)" fill-opacity="1.0" stroke="rgb(0,0,0)" stroke-width="2"  />
			<g>
				<title>Condensation (PF00668)
"Condensation domain"</title>
				<polygon class="PF00668" points="251,40 263,28 289,28 289,52 263,52" stroke-linejoin="round" width="42" height="24" fill="rgb(224,184,98)" stroke="rgb(179,147,78)" stroke-width="1" opacity="0.75" />
			</g>
			<g>
				<title>PP-binding (PF00550)
"Phosphopantetheine attachment site"</title>
				<rect class="PF00550" x="291" y="28" stroke-linejoin="round" width="6" height="24" fill="rgb(103,191,88)" stroke="rgb(82,152,70)" stroke-width="1" opacity="0.75" />
			</g>
		</g>
		<g>
			<title>bauD
probable ferric acinetobactin transport system permease protein</title>
			<polygon class="bauD
probable ferric acinetobactin transport system permease protein" points="336,25 337,25 337,10 367,40 337,70 337,55 336,55" fill="rgb(255,255,255)" fill-opacity="1.0" stroke="rgb(0,0,0)" stroke-width="2"  />
			<g>
				<title>FecCD (PF01032)
"FecCD transport family"</title>
				<polygon class="PF01032" points="336,28 351,28 363,40 351,52 336,52" stroke-linejoin="round" width="30" height="24" fill="rgb(210,177,70)" stroke="rgb(168,141,56)" stroke-width="1" opacity="0.75" />
			</g>
		</g>
		<g>
			<title>bauC
probable ferric acinetobactin transport system permease protein</title>
			<polygon class="bauC
probable ferric acinetobactin transport system permease protein" points="367,25 368,25 368,10 398,40 368,70 368,55 367,55" fill="rgb(255,255,255)" fill-opacity="1.0" stroke="rgb(0,0,0)" stroke-width="2"  />
			<g>
				<title>FecCD (PF01032)
"FecCD transport family"</title>
				<polygon class="PF01032" points="368,28 382,28 394,40 382,52 368,52" stroke-linejoin="round" width="29" height="24" fill="rgb(210,177,70)" stroke="rgb(168,141,56)" stroke-width="1" opacity="0.75" />
			</g>
		</g>
		<g>
			<title>bauE
probable ferric acinetobactin transport system ATP-binding protein</title>
			<polygon class="bauE
probable ferric acinetobactin transport system ATP-binding protein" points="398,10 423,40 398,70" fill="rgb(255,255,255)" fill-opacity="1.0" stroke="rgb(0,0,0)" stroke-width="2"  />
			<g>
				<title>ABC_tran (PF00005)
"ABC transporter"</title>
				<polygon class="PF00005" points="399,28 409,28 413,33 413,47 409,52 399,52" stroke-linejoin="round" width="14" height="24" fill="rgb(129,201,63)" stroke="rgb(103,160,50)" stroke-width="1" opacity="0.75" />
			</g>
		</g>
		<g>
			<title>bauB
probable ferric acinetobactin binding protein</title>
			<polygon class="bauB
probable ferric acinetobactin binding protein" points="424,25 426,25 426,10 456,40 426,70 426,55 424,55" fill="rgb(255,255,255)" fill-opacity="1.0" stroke="rgb(0,0,0)" stroke-width="2"  />
			<g>
				<title>Peripla_BP_2 (PF01497)
"Periplasmic binding protein"</title>
				<polygon class="PF01497" points="429,28 440,28 452,40 440,52 429,52" stroke-linejoin="round" width="24" height="24" fill="rgb(183,226,104)" stroke="rgb(146,180,83)" stroke-width="1" opacity="0.75" />
			</g>
		</g>
		<g>
			<title>bauA
probable ferric acinetobactin receptor</title>
			<polygon class="bauA
probable ferric acinetobactin receptor" points="463,25 505,25 505,10 535,40 505,70 505,55 463,55" fill="rgb(255,255,255)" fill-opacity="1.0" stroke="rgb(0,0,0)" stroke-width="2"  />
			<g>
				<title>Plug (PF07715)
"TonB-dependent Receptor Plug Domain"</title>
				<rect class="PF07715" x="470" y="28" stroke-linejoin="round" width="10" height="24" fill="rgb(99,133,214)" stroke="rgb(79,106,171)" stroke-width="1" opacity="0.75" />
			</g>
			<g>
				<title>TonB_dep_Rec (PF00593)
"TonB dependent receptor"</title>
				<polygon class="PF00593" points="488,28 519,28 531,40 519,52 488,52" stroke-linejoin="round" width="47" height="24" fill="rgb(171,200,51)" stroke="rgb(136,160,40)" stroke-width="1" opacity="0.75" />
			</g>
		</g>
		<g>
			<title>basC
probable acinetobactin biosynthesis protein</title>
			<polygon class="basC
probable acinetobactin biosynthesis protein" points="581,25 568,25 568,10 538,40 568,70 568,55 581,55" fill="rgb(255,255,255)" fill-opacity="1.0" stroke="rgb(0,0,0)" stroke-width="2"  />
			<g>
				<title>K_oxygenase (PF13434)
"L-lysine 6-monooxygenase (NADPH-requiring)"</title>
				<polygon class="PF13434" points="547,35 554,28 581,28 581,52 554,52 547,45" stroke-linejoin="round" width="34" height="24" fill="rgb(81,213,119)" stroke="rgb(64,170,95)" stroke-width="1" opacity="0.75" />
			</g>
		</g>
		<g>
			<title>basD
probable acinetobactin biosynthesis protein</title>
			<polygon class="basD
probable acinetobactin biosynthesis protein" points="678,25 613,25 613,10 583,40 613,70 613,55 678,55" fill="rgb(255,255,255)" fill-opacity="1.0" stroke="rgb(0,0,0)" stroke-width="2"  />
			<g>
				<title>Condensation (PF00668)
"Condensation domain"</title>
				<polygon class="PF00668" points="592,35 599,28 633,28 633,52 599,52 592,45" stroke-linejoin="round" width="41" height="24" fill="rgb(224,184,98)" stroke="rgb(179,147,78)" stroke-width="1" opacity="0.75" />
			</g>
			<g>
				<title>Condensation (PF00668)
"Condensation domain"</title>
				<rect class="PF00668" x="634" y="28" stroke-linejoin="round" width="43" height="24" fill="rgb(224,184,98)" stroke="rgb(179,147,78)" stroke-width="1" opacity="0.75" />
			</g>
		</g>
		<g>
			<title>basE
probable acinetobactin biosynthesis protein</title>
			<polygon class="basE
probable acinetobactin biosynthesis protein" points="687,25 711,25 711,10 741,40 711,70 711,55 687,55" fill="rgb(255,255,255)" fill-opacity="1.0" stroke="rgb(0,0,0)" stroke-width="2"  />
			<g>
				<title>AMP-binding (PF00501)
"AMP-binding enzyme"</title>
				<polygon class="PF00501" points="690,28 725,28 730,33 730,47 725,52 690,52" stroke-linejoin="round" width="40" height="24" fill="rgb(60,217,223)" stroke="rgb(48,173,178)" stroke-width="1" opacity="0.75" />
			</g>
			<g>
				<title>AMP-binding_C (PF13193)
"AMP-binding enzyme C-terminal domain"</title>
				<polygon class="PF13193" points="732,35 737,40 732,45" stroke-linejoin="round" width="7" height="24" fill="rgb(182,50,118)" stroke="rgb(145,39,94)" stroke-width="1" opacity="0.75" />
			</g>
		</g>
		<g>
			<title>basF
probable acinetobactin biosynthesis protein</title>
			<polygon class="basF
probable acinetobactin biosynthesis protein" points="742,10 771,40 742,70" fill="rgb(255,255,255)" fill-opacity="1.0" stroke="rgb(0,0,0)" stroke-width="2"  />
			<g>
				<title>Isochorismatase (PF00857)
"Isochorismatase family"</title>
				<polygon class="PF00857" points="745,28 754,28 762,36 762,44 754,52 745,52" stroke-linejoin="round" width="17" height="24" fill="rgb(144,224,70)" stroke="rgb(115,179,56)" stroke-width="1" opacity="0.75" />
			</g>
			<g>
				<title>PP-binding (PF00550)
"Phosphopantetheine attachment site"</title>
				<polygon class="PF00550" points="763,37 766,40 763,43" stroke-linejoin="round" width="6" height="24" fill="rgb(103,191,88)" stroke="rgb(82,152,70)" stroke-width="1" opacity="0.75" />
			</g>
		</g>
		<g>
			<title>
probable acinetobactin biosynthesis protein</title>
			<polygon class="
probable acinetobactin biosynthesis protein" points="775,25 783,25 783,10 813,40 783,70 783,55 775,55" fill="rgb(255,255,255)" fill-opacity="1.0" stroke="rgb(0,0,0)" stroke-width="2"  />
			<g>
				<title>Pyridoxal_deC (PF00282)
"Pyridoxal-dependent decarboxylase conserved domain"</title>
				<polygon class="PF00282" points="779,28 797,28 805,36 805,44 797,52 779,52" stroke-linejoin="round" width="26" height="24" fill="rgb(100,218,166)" stroke="rgb(80,174,132)" stroke-width="1" opacity="0.75" />
			</g>
		</g>
		<g>
			<title>barA
probable ABC transporter</title>
			<polygon class="barA
probable ABC transporter" points="821,25 844,25 844,10 874,40 844,70 844,55 821,55" fill="rgb(255,255,255)" fill-opacity="1.0" stroke="rgb(0,0,0)" stroke-width="2"  />
			<g>
				<title>ABC_membrane (PF00664)
"ABC transporter transmembrane region"</title>
				<rect class="PF00664" x="822" y="28" stroke-linejoin="round" width="27" height="24" fill="rgb(149,226,73)" stroke="rgb(119,180,58)" stroke-width="1" opacity="0.75" />
			</g>
			<g>
				<title>ABC_tran (PF00005)
"ABC transporter"</title>
				<polygon class="PF00005" points="855,28 858,28 868,38 868,42 858,52 855,52" stroke-linejoin="round" width="13" height="24" fill="rgb(129,201,63)" stroke="rgb(103,160,50)" stroke-width="1" opacity="0.75" />
			</g>
		</g>
		<g>
			<title>barB
probable ABC transporter</title>
			<polygon class="barB
probable ABC transporter" points="875,25 898,25 898,10 928,40 898,70 898,55 875,55" fill="rgb(255,255,255)" fill-opacity="1.0" stroke="rgb(0,0,0)" stroke-width="2"  />
			<g>
				<title>ABC_membrane (PF00664)
"ABC transporter transmembrane region"</title>
				<rect class="PF00664" x="876" y="28" stroke-linejoin="round" width="26" height="24" fill="rgb(149,226,73)" stroke="rgb(119,180,58)" stroke-width="1" opacity="0.75" />
			</g>
			<g>
				<title>ABC_tran (PF00005)
"ABC transporter"</title>
				<polygon class="PF00005" points="908,28 911,28 922,39 922,41 911,52 908,52" stroke-linejoin="round" width="14" height="24" fill="rgb(129,201,63)" stroke="rgb(103,160,50)" stroke-width="1" opacity="0.75" />
			</g>
		</g>
		<g>
			<title>basH
probable acinetobactin biosynthesis protein</title>
			<polygon class="basH
probable acinetobactin biosynthesis protein" points="930,10 954,40 930,70" fill="rgb(255,255,255)" fill-opacity="1.0" stroke="rgb(0,0,0)" stroke-width="2"  />
			<g>
				<title>Thioesterase (PF00975)
"Thioesterase domain"</title>
				<polygon class="PF00975" points="930,28 941,28 950,40 941,52 930,52" stroke-linejoin="round" width="22" height="24" fill="rgb(207,80,138)" stroke="rgb(165,63,110)" stroke-width="1" opacity="0.75" />
			</g>
		</g>
		<g>
			<title>basI
probable acinetobactin biosynthesis protein</title>
			<polygon class="basI
probable acinetobactin biosynthesis protein" points="955,10 980,40 955,70" fill="rgb(255,255,255)" fill-opacity="1.0" stroke="rgb(0,0,0)" stroke-width="2"  />
			<g>
				<title>4PPT_N (PF17837)
"4'-phosphopantetheinyl transferase N-terminal domain"</title>
				<rect class="PF17837" x="960" y="28" stroke-linejoin="round" width="6" height="24" fill="rgb(198,68,92)" stroke="rgb(158,54,73)" stroke-width="1" opacity="0.75" />
			</g>
			<g>
				<title>ACPS (PF01648)
"4'-phosphopantetheinyl transferase superfamily"</title>
				<polygon class="PF01648" points="968,31 976,40 968,49" stroke-linejoin="round" width="11" height="24" fill="rgb(85,184,135)" stroke="rgb(68,147,108)" stroke-width="1" opacity="0.75" />
			</g>
		</g>
		<g>
			<title>basJ
probable acinetobactin biosynthesis protein</title>
			<polygon class="basJ
probable acinetobactin biosynthesis protein" points="985,25 994,25 994,10 1024,40 994,70 994,55 985,55" fill="rgb(255,255,255)" fill-opacity="1.0" stroke="rgb(0,0,0)" stroke-width="2"  />
			<g>
				<title>Chorismate_bind (PF00425)
"chorismate binding enzyme"</title>
				<polygon class="PF00425" points="996,28 1007,28 1019,40 1007,52 996,52" stroke-linejoin="round" width="25" height="24" fill="rgb(188,116,88)" stroke="rgb(150,92,70)" stroke-width="1" opacity="0.75" />
			</g>
		</g>
		<g>
			<title>
conserved hypothetical protein</title>
			<polygon class="
conserved hypothetical protein" points="1069,25 1058,25 1058,10 1028,40 1058,70 1058,55 1069,55" fill="rgb(255,255,255)" fill-opacity="1.0" stroke="rgb(0,0,0)" stroke-width="2"  />
			<g>
				<title>YkuD (PF03734)
"L,D-transpeptidase catalytic domain"</title>
				<polygon class="PF03734" points="1032,40 1041,31 1041,49" stroke-linejoin="round" width="13" height="24" fill="rgb(112,183,75)" stroke="rgb(89,146,60)" stroke-width="1" opacity="0.75" />
			</g>
			<g>
				<title>PG_binding_1 (PF01471)
"Putative peptidoglycan binding domain"</title>
				<rect class="PF01471" x="1050" y="28" stroke-linejoin="round" width="4" height="24" fill="rgb(186,74,131)" stroke="rgb(148,59,104)" stroke-width="1" opacity="0.75" />
			</g>
		</g>
	</g>
</svg>
