<svg version="1.1" baseProfile="full" xmlns="http://www.w3.org/2000/svg" width="1497.2666666666667" height="80">
	<g>
		<line x1="10" y1="40.0" x2="1487.2666666666667" y2="40.0" style="stroke:rgb(70,70,70); stroke-width:3 "/>
		<g>
			<title>vioL
lysine cyclodeaminase</title>
			<polygon class="vioL
lysine cyclodeaminase" points="10,25 17,25 17,10 47,40 17,70 17,55 10,55" fill="rgb(255,255,255)" fill-opacity="1.0" stroke="rgb(0,0,0)" stroke-width="2"  />
			<g>
				<title>OCD_Mu_crystall (PF02423)
"Ornithine cyclodeaminase/mu-crystallin family"</title>
				<polygon class="PF02423" points="10,28 31,28 41,38 41,42 31,52 10,52" stroke-linejoin="round" width="31" height="24" fill="rgb(221,120,93)" stroke="rgb(176,96,74)" stroke-width="1" opacity="0.75" />
			</g>
		</g>
		<g>
			<title>vioA
nonribosomal peptide synthetase</title>
			<polygon class="vioA
nonribosomal peptide synthetase" points="47,25 508,25 508,10 538,40 508,70 508,55 47,55" fill="rgb(255,255,255)" fill-opacity="1.0" stroke="rgb(0,0,0)" stroke-width="2"  />
			<g>
				<title>AMP-binding (PF00501)
"AMP-binding enzyme"</title>
				<rect class="PF00501" x="49" y="28" stroke-linejoin="round" width="44" height="24" fill="rgb(60,217,223)" stroke="rgb(48,173,178)" stroke-width="1" opacity="0.75" />
			</g>
			<g>
				<title>PP-binding (PF00550)
"Phosphopantetheine attachment site"</title>
				<rect class="PF00550" x="108" y="28" stroke-linejoin="round" width="7" height="24" fill="rgb(103,191,88)" stroke="rgb(82,152,70)" stroke-width="1" opacity="0.75" />
			</g>
			<g>
				<title>Condensation (PF00668)
"Condensation domain"</title>
				<rect class="PF00668" x="117" y="28" stroke-linejoin="round" width="43" height="24" fill="rgb(224,184,98)" stroke="rgb(179,147,78)" stroke-width="1" opacity="0.75" />
			</g>
			<g>
				<title>PP-binding (PF00550)
"Phosphopantetheine attachment site"</title>
				<rect class="PF00550" x="225" y="28" stroke-linejoin="round" width="6" height="24" fill="rgb(103,191,88)" stroke="rgb(82,152,70)" stroke-width="1" opacity="0.75" />
			</g>
			<g>
				<title>Condensation (PF00668)
"Condensation domain"</title>
				<rect class="PF00668" x="233" y="28" stroke-linejoin="round" width="45" height="24" fill="rgb(224,184,98)" stroke="rgb(179,147,78)" stroke-width="1" opacity="0.75" />
			</g>
			<g>
				<title>Condensation (PF00668)
"Condensation domain"</title>
				<rect class="PF00668" x="280" y="28" stroke-linejoin="round" width="43" height="24" fill="rgb(224,184,98)" stroke="rgb(179,147,78)" stroke-width="1" opacity="0.75" />
			</g>
			<g>
				<title>AMP-binding (PF00501)
"AMP-binding enzyme"</title>
				<rect class="PF00501" x="326" y="28" stroke-linejoin="round" width="39" height="24" fill="rgb(60,217,223)" stroke="rgb(48,173,178)" stroke-width="1" opacity="0.75" />
			</g>
			<g>
				<title>AMP-binding_C (PF13193)
"AMP-binding enzyme C-terminal domain"</title>
				<rect class="PF13193" x="367" y="28" stroke-linejoin="round" width="7" height="24" fill="rgb(182,50,118)" stroke="rgb(145,39,94)" stroke-width="1" opacity="0.75" />
			</g>
			<g>
				<title>PP-binding (PF00550)
"Phosphopantetheine attachment site"</title>
				<rect class="PF00550" x="377" y="28" stroke-linejoin="round" width="6" height="24" fill="rgb(103,191,88)" stroke="rgb(82,152,70)" stroke-width="1" opacity="0.75" />
			</g>
			<g>
				<title>Condensation (PF00668)
"Condensation domain"</title>
				<rect class="PF00668" x="385" y="28" stroke-linejoin="round" width="45" height="24" fill="rgb(224,184,98)" stroke="rgb(179,147,78)" stroke-width="1" opacity="0.75" />
			</g>
			<g>
				<title>AMP-binding (PF00501)
"AMP-binding enzyme"</title>
				<rect class="PF00501" x="433" y="28" stroke-linejoin="round" width="39" height="24" fill="rgb(60,217,223)" stroke="rgb(48,173,178)" stroke-width="1" opacity="0.75" />
			</g>
			<g>
				<title>AMP-binding_C (PF13193)
"AMP-binding enzyme C-terminal domain"</title>
				<rect class="PF13193" x="473" y="28" stroke-linejoin="round" width="7" height="24" fill="rgb(182,50,118)" stroke="rgb(145,39,94)" stroke-width="1" opacity="0.75" />
			</g>
			<g>
				<title>PP-binding (PF00550)
"Phosphopantetheine attachment site"</title>
				<rect class="PF00550" x="483" y="28" stroke-linejoin="round" width="6" height="24" fill="rgb(103,191,88)" stroke="rgb(82,152,70)" stroke-width="1" opacity="0.75" />
			</g>
			<g>
				<title>Condensation (PF00668)
"Condensation domain"</title>
				<polygon class="PF00668" points="490,28 522,28 534,40 522,52 490,52" stroke-linejoin="round" width="45" height="24" fill="rgb(224,184,98)" stroke="rgb(179,147,78)" stroke-width="1" opacity="0.75" />
			</g>
		</g>
		<g>
			<title>vioB
nonribosomal peptide synthetase</title>
			<polygon class="vioB
nonribosomal peptide synthetase" points="539,25 725,25 725,10 755,40 725,70 725,55 539,55" fill="rgb(255,255,255)" fill-opacity="1.0" stroke="rgb(0,0,0)" stroke-width="2"  />
			<g>
				<title>Condensation (PF00668)
"Condensation domain"</title>
				<rect class="PF00668" x="539" y="28" stroke-linejoin="round" width="44" height="24" fill="rgb(224,184,98)" stroke="rgb(179,147,78)" stroke-width="1" opacity="0.75" />
			</g>
			<g>
				<title>AMP-binding (PF00501)
"AMP-binding enzyme"</title>
				<rect class="PF00501" x="586" y="28" stroke-linejoin="round" width="41" height="24" fill="rgb(60,217,223)" stroke="rgb(48,173,178)" stroke-width="1" opacity="0.75" />
			</g>
			<g>
				<title>AMP-binding_C (PF13193)
"AMP-binding enzyme C-terminal domain"</title>
				<rect class="PF13193" x="628" y="28" stroke-linejoin="round" width="7" height="24" fill="rgb(182,50,118)" stroke="rgb(145,39,94)" stroke-width="1" opacity="0.75" />
			</g>
			<g>
				<title>PP-binding (PF00550)
"Phosphopantetheine attachment site"</title>
				<rect class="PF00550" x="638" y="28" stroke-linejoin="round" width="6" height="24" fill="rgb(103,191,88)" stroke="rgb(82,152,70)" stroke-width="1" opacity="0.75" />
			</g>
			<g>
				<title>Condensation (PF00668)
"Condensation domain"</title>
				<rect class="PF00668" x="648" y="28" stroke-linejoin="round" width="44" height="24" fill="rgb(224,184,98)" stroke="rgb(179,147,78)" stroke-width="1" opacity="0.75" />
			</g>
			<g>
				<title>AMP-binding (PF00501)
"AMP-binding enzyme"</title>
				<rect class="PF00501" x="695" y="28" stroke-linejoin="round" width="39" height="24" fill="rgb(60,217,223)" stroke="rgb(48,173,178)" stroke-width="1" opacity="0.75" />
			</g>
			<g>
				<title>AMP-binding_C (PF13193)
"AMP-binding enzyme C-terminal domain"</title>
				<polygon class="PF13193" points="736,28 738,28 743,33 743,47 738,52 736,52" stroke-linejoin="round" width="7" height="24" fill="rgb(182,50,118)" stroke="rgb(145,39,94)" stroke-width="1" opacity="0.75" />
			</g>
			<g>
				<title>PP-binding (PF00550)
"Phosphopantetheine attachment site"</title>
				<polygon class="PF00550" points="746,36 750,40 746,44" stroke-linejoin="round" width="6" height="24" fill="rgb(103,191,88)" stroke="rgb(82,152,70)" stroke-width="1" opacity="0.75" />
			</g>
		</g>
		<g>
			<title>vioC
nonribosomal peptide synthetase</title>
			<polygon class="vioC
nonribosomal peptide synthetase" points="755,25 1057,25 1057,10 1087,40 1057,70 1057,55 755,55" fill="rgb(255,255,255)" fill-opacity="1.0" stroke="rgb(0,0,0)" stroke-width="2"  />
			<g>
				<title>TubC_N (PF18563)
"TubC N-terminal docking domain"</title>
				<rect class="PF18563" x="755" y="28" stroke-linejoin="round" width="4" height="24" fill="rgb(95,217,77)" stroke="rgb(75,173,61)" stroke-width="1" opacity="0.75" />
			</g>
			<g>
				<title>Condensation (PF00668)
"Condensation domain"</title>
				<rect class="PF00668" x="763" y="28" stroke-linejoin="round" width="44" height="24" fill="rgb(224,184,98)" stroke="rgb(179,147,78)" stroke-width="1" opacity="0.75" />
			</g>
			<g>
				<title>AMP-binding (PF00501)
"AMP-binding enzyme"</title>
				<rect class="PF00501" x="809" y="28" stroke-linejoin="round" width="40" height="24" fill="rgb(60,217,223)" stroke="rgb(48,173,178)" stroke-width="1" opacity="0.75" />
			</g>
			<g>
				<title>AMP-binding_C (PF13193)
"AMP-binding enzyme C-terminal domain"</title>
				<rect class="PF13193" x="851" y="28" stroke-linejoin="round" width="7" height="24" fill="rgb(182,50,118)" stroke="rgb(145,39,94)" stroke-width="1" opacity="0.75" />
			</g>
			<g>
				<title>PP-binding (PF00550)
"Phosphopantetheine attachment site"</title>
				<rect class="PF00550" x="861" y="28" stroke-linejoin="round" width="6" height="24" fill="rgb(103,191,88)" stroke="rgb(82,152,70)" stroke-width="1" opacity="0.75" />
			</g>
			<g>
				<title>Condensation (PF00668)
"Condensation domain"</title>
				<rect class="PF00668" x="870" y="28" stroke-linejoin="round" width="44" height="24" fill="rgb(224,184,98)" stroke="rgb(179,147,78)" stroke-width="1" opacity="0.75" />
			</g>
			<g>
				<title>AMP-binding (PF00501)
"AMP-binding enzyme"</title>
				<rect class="PF00501" x="916" y="28" stroke-linejoin="round" width="40" height="24" fill="rgb(60,217,223)" stroke="rgb(48,173,178)" stroke-width="1" opacity="0.75" />
			</g>
			<g>
				<title>AMP-binding_C (PF13193)
"AMP-binding enzyme C-terminal domain"</title>
				<rect class="PF13193" x="958" y="28" stroke-linejoin="round" width="7" height="24" fill="rgb(182,50,118)" stroke="rgb(145,39,94)" stroke-width="1" opacity="0.75" />
			</g>
			<g>
				<title>PP-binding (PF00550)
"Phosphopantetheine attachment site"</title>
				<rect class="PF00550" x="968" y="28" stroke-linejoin="round" width="6" height="24" fill="rgb(103,191,88)" stroke="rgb(82,152,70)" stroke-width="1" opacity="0.75" />
			</g>
			<g>
				<title>Condensation (PF00668)
"Condensation domain"</title>
				<rect class="PF00668" x="977" y="28" stroke-linejoin="round" width="45" height="24" fill="rgb(224,184,98)" stroke="rgb(179,147,78)" stroke-width="1" opacity="0.75" />
			</g>
			<g>
				<title>AMP-binding (PF00501)
"AMP-binding enzyme"</title>
				<rect class="PF00501" x="1024" y="28" stroke-linejoin="round" width="40" height="24" fill="rgb(60,217,223)" stroke="rgb(48,173,178)" stroke-width="1" opacity="0.75" />
			</g>
			<g>
				<title>AMP-binding_C (PF13193)
"AMP-binding enzyme C-terminal domain"</title>
				<polygon class="PF13193" points="1065,28 1070,28 1072,30 1072,50 1070,52 1065,52" stroke-linejoin="round" width="7" height="24" fill="rgb(182,50,118)" stroke="rgb(145,39,94)" stroke-width="1" opacity="0.75" />
			</g>
			<g>
				<title>PP-binding (PF00550)
"Phosphopantetheine attachment site"</title>
				<polygon class="PF00550" points="1076,34 1082,40 1082,40 1076,46" stroke-linejoin="round" width="6" height="24" fill="rgb(103,191,88)" stroke="rgb(82,152,70)" stroke-width="1" opacity="0.75" />
			</g>
		</g>
		<g>
			<title>vioD
nonribosomal peptide synthetase</title>
			<polygon class="vioD
nonribosomal peptide synthetase" points="1087,25 1236,25 1236,10 1266,40 1236,70 1236,55 1087,55" fill="rgb(255,255,255)" fill-opacity="1.0" stroke="rgb(0,0,0)" stroke-width="2"  />
			<g>
				<title>Condensation (PF00668)
"Condensation domain"</title>
				<rect class="PF00668" x="1091" y="28" stroke-linejoin="round" width="44" height="24" fill="rgb(224,184,98)" stroke="rgb(179,147,78)" stroke-width="1" opacity="0.75" />
			</g>
			<g>
				<title>AMP-binding (PF00501)
"AMP-binding enzyme"</title>
				<rect class="PF00501" x="1137" y="28" stroke-linejoin="round" width="40" height="24" fill="rgb(60,217,223)" stroke="rgb(48,173,178)" stroke-width="1" opacity="0.75" />
			</g>
			<g>
				<title>Methyltransf_12 (PF08242)
"Methyltransferase domain"</title>
				<rect class="PF08242" x="1189" y="28" stroke-linejoin="round" width="10" height="24" fill="rgb(187,59,115)" stroke="rgb(149,47,92)" stroke-width="1" opacity="0.75" />
			</g>
			<g>
				<title>PP-binding (PF00550)
"Phosphopantetheine attachment site"</title>
				<rect class="PF00550" x="1230" y="28" stroke-linejoin="round" width="6" height="24" fill="rgb(103,191,88)" stroke="rgb(82,152,70)" stroke-width="1" opacity="0.75" />
			</g>
			<g>
				<title>Thioesterase (PF00975)
"Thioesterase domain"</title>
				<polygon class="PF00975" points="1239,28 1250,28 1262,40 1250,52 1239,52" stroke-linejoin="round" width="25" height="24" fill="rgb(207,80,138)" stroke="rgb(165,63,110)" stroke-width="1" opacity="0.75" />
			</g>
		</g>
		<g>
			<title>vioE
hypothetical protein</title>
			<polygon class="vioE
hypothetical protein" points="1267,25 1297,25 1297,10 1327,40 1297,70 1297,55 1267,55" fill="rgb(255,255,255)" fill-opacity="1.0" stroke="rgb(0,0,0)" stroke-width="2"  />
			<g>
				<title>ABC1 (PF03109)
"ABC1 atypical kinase-like domain"</title>
				<rect class="PF03109" x="1278" y="28" stroke-linejoin="round" width="25" height="24" fill="rgb(197,149,67)" stroke="rgb(157,119,53)" stroke-width="1" opacity="0.75" />
			</g>
		</g>
		<g>
			<title>vioF
hypothetical protein</title>
			<polygon class="vioF
hypothetical protein" points="1327,25 1341,25 1341,10 1371,40 1341,70 1341,55 1327,55" fill="rgb(255,255,255)" fill-opacity="1.0" stroke="rgb(0,0,0)" stroke-width="2"  />
			<g>
				<title>LCAT (PF02450)
"Lecithin:cholesterol acyltransferase"</title>
				<polygon class="PF02450" points="1340,28 1355,28 1362,35 1362,45 1355,52 1340,52" stroke-linejoin="round" width="22" height="24" fill="rgb(189,59,71)" stroke="rgb(151,47,56)" stroke-width="1" opacity="0.75" />
			</g>
		</g>
		<g>
			<title>vioG
hypothetical protein</title>
			<polygon class="vioG
hypothetical protein" points="1374,25 1399,25 1399,10 1429,40 1399,70 1399,55 1374,55" fill="rgb(255,255,255)" fill-opacity="1.0" stroke="rgb(0,0,0)" stroke-width="2"  />
			<g>
				<title>Radical_SAM (PF04055)
"Radical SAM superfamily"</title>
				<polygon class="PF04055" points="1399,28 1412,28 1416,32 1416,48 1412,52 1399,52" stroke-linejoin="round" width="17" height="24" fill="rgb(149,56,222)" stroke="rgb(119,44,177)" stroke-width="1" opacity="0.75" />
			</g>
		</g>
		<g>
			<title>vioH
hypothetical protein</title>
			<polygon class="vioH
hypothetical protein" points="1429,10 1452,40 1429,70" fill="rgb(255,255,255)" fill-opacity="1.0" stroke="rgb(0,0,0)" stroke-width="2"  />
		</g>
		<g>
			<title>vioI
hypothetical protein</title>
			<polygon class="vioI
hypothetical protein" points="1455,10 1464,40 1455,70" fill="rgb(255,255,255)" fill-opacity="1.0" stroke="rgb(0,0,0)" stroke-width="2"  />
			<g>
				<title>DUF6312 (PF19831)
"Family of unknown function (DUF6312)"</title>
				<polygon class="PF19831" points="1455,28 1457,28 1461,40 1457,52 1455,52" stroke-linejoin="round" width="8" height="24" fill="rgb(90,138,196)" stroke="rgb(72,110,156)" stroke-width="1" opacity="0.75" />
			</g>
		</g>
		<g>
			<title>vioJ
hypothetical protein</title>
			<polygon class="vioJ
hypothetical protein" points="1466,10 1475,40 1466,70" fill="rgb(255,255,255)" fill-opacity="1.0" stroke="rgb(0,0,0)" stroke-width="2"  />
			<g>
				<title>DUF6200 (PF19702)
"Family of unknown function (DUF6200)"</title>
				<polygon class="PF19702" points="1467,28 1468,28 1472,40 1468,52 1467,52" stroke-linejoin="round" width="7" height="24" fill="rgb(64,193,131)" stroke="rgb(51,154,104)" stroke-width="1" opacity="0.75" />
			</g>
		</g>
		<g>
			<title>vioK
MbtH-like domain-containing protein</title>
			<polygon class="vioK
MbtH-like domain-containing protein" points="1480,10 1487,40 1480,70" fill="rgb(255,255,255)" fill-opacity="1.0" stroke="rgb(0,0,0)" stroke-width="2"  />
			<g>
				<title>MbtH (PF03621)
"MbtH-like protein"</title>
				<polygon class="PF03621" points="1480,28 1480,28 1484,40 1480,52 1480,52" stroke-linejoin="round" width="5" height="24" fill="rgb(212,165,97)" stroke="rgb(169,132,77)" stroke-width="1" opacity="0.75" />
			</g>
		</g>
	</g>
</svg>
