<svg version="1.1" baseProfile="full" xmlns="http://www.w3.org/2000/svg" width="876.0333333333333" height="80">
	<g>
		<line x1="10" y1="40.0" x2="866.0333333333333" y2="40.0" style="stroke:rgb(70,70,70); stroke-width:3 "/>
		<g>
			<title>
hypothetical protein</title>
			<polygon class="
hypothetical protein" points="10,10 14,40 10,70" fill="rgb(255,255,255)" fill-opacity="1.0" stroke="rgb(0,0,0)" stroke-width="2"  />
		</g>
		<g>
			<title>
putative regulatory protein</title>
			<polygon class="
putative regulatory protein" points="120,25 50,25 50,10 20,40 50,70 50,55 120,55" fill="rgb(255,255,255)" fill-opacity="1.0" stroke="rgb(0,0,0)" stroke-width="2"  />
			<g>
				<title>TPR_12 (PF13424)
"Tetratricopeptide repeat"</title>
				<polygon class="PF13424" points="24,40 28,36 28,44" stroke-linejoin="round" width="7" height="24" fill="rgb(147,215,101)" stroke="rgb(117,172,80)" stroke-width="1" opacity="0.75" />
			</g>
			<g>
				<title>TPR_12 (PF13424)
"Tetratricopeptide repeat"</title>
				<polygon class="PF13424" points="34,30 36,28 40,28 40,52 36,52 34,50" stroke-linejoin="round" width="6" height="24" fill="rgb(147,215,101)" stroke="rgb(117,172,80)" stroke-width="1" opacity="0.75" />
			</g>
			<g>
				<title>NB-ARC (PF00931)
"NB-ARC domain"</title>
				<rect class="PF00931" x="69" y="28" stroke-linejoin="round" width="23" height="24" fill="rgb(165,94,211)" stroke="rgb(132,75,168)" stroke-width="1" opacity="0.75" />
			</g>
			<g>
				<title>BTAD (PF03704)
"Bacterial transcriptional activator domain"</title>
				<rect class="PF03704" x="96" y="28" stroke-linejoin="round" width="14" height="24" fill="rgb(217,89,196)" stroke="rgb(173,71,156)" stroke-width="1" opacity="0.75" />
			</g>
			<g>
				<title>Trans_reg_C (PF00486)
"Transcriptional regulatory protein, C terminal"</title>
				<rect class="PF00486" x="111" y="28" stroke-linejoin="round" width="6" height="24" fill="rgb(204,153,57)" stroke="rgb(163,122,45)" stroke-width="1" opacity="0.75" />
			</g>
		</g>
		<g>
			<title>
hypothetical protein</title>
			<polygon class="
hypothetical protein" points="123,40 144,10 144,70" fill="rgb(255,255,255)" fill-opacity="1.0" stroke="rgb(0,0,0)" stroke-width="2"  />
			<g>
				<title>Peptidase_M15 (PF01427)
"D-ala-D-ala dipeptidase"</title>
				<polygon class="PF01427" points="127,40 135,28 141,28 141,52 135,52" stroke-linejoin="round" width="18" height="24" fill="rgb(224,66,206)" stroke="rgb(179,52,164)" stroke-width="1" opacity="0.75" />
			</g>
		</g>
		<g>
			<title>
putative secreted esterase</title>
			<polygon class="
putative secreted esterase" points="153,25 170,25 170,10 200,40 170,70 170,55 153,55" fill="rgb(255,255,255)" fill-opacity="1.0" stroke="rgb(0,0,0)" stroke-width="2"  />
			<g>
				<title>CHAP (PF05257)
"CHAP domain"</title>
				<rect class="PF05257" x="160" y="28" stroke-linejoin="round" width="9" height="24" fill="rgb(54,187,84)" stroke="rgb(43,149,67)" stroke-width="1" opacity="0.75" />
			</g>
			<g>
				<title>FG-GAP_3 (PF13517)
"FG-GAP-like repeat"</title>
				<polygon class="PF13517" points="179,28 184,28 185,29 185,51 184,52 179,52" stroke-linejoin="round" width="6" height="24" fill="rgb(77,199,76)" stroke="rgb(61,159,60)" stroke-width="1" opacity="0.75" />
			</g>
		</g>
		<g>
			<title>
hypothetical protein</title>
			<polygon class="
hypothetical protein" points="208,40 221,10 221,70" fill="rgb(255,255,255)" fill-opacity="1.0" stroke="rgb(0,0,0)" stroke-width="2"  />
		</g>
		<g>
			<title>
hypothetical protein</title>
			<polygon class="
hypothetical protein" points="229,25 238,25 238,10 268,40 238,70 238,55 229,55" fill="rgb(255,255,255)" fill-opacity="1.0" stroke="rgb(0,0,0)" stroke-width="2"  />
		</g>
		<g>
			<title>rebG
putative glycosyltransferase</title>
			<polygon class="rebG
putative glycosyltransferase" points="313,25 301,25 301,10 271,40 301,70 301,55 313,55" fill="rgb(255,255,255)" fill-opacity="1.0" stroke="rgb(0,0,0)" stroke-width="2"  />
			<g>
				<title>UDPGT (PF00201)
"UDP-glucoronosyl and UDP-glucosyl transferase"</title>
				<polygon class="PF00201" points="275,40 287,28 297,28 297,52 287,52" stroke-linejoin="round" width="26" height="24" fill="rgb(225,150,107)" stroke="rgb(180,120,85)" stroke-width="1" opacity="0.75" />
			</g>
		</g>
		<g>
			<title>rebO
putative L-tryptophan oxidase</title>
			<polygon class="rebO
putative L-tryptophan oxidase" points="320,25 337,25 337,10 367,40 337,70 337,55 320,55" fill="rgb(255,255,255)" fill-opacity="1.0" stroke="rgb(0,0,0)" stroke-width="2"  />
			<g>
				<title>Amino_oxidase (PF01593)
"Flavin containing amine oxidoreductase"</title>
				<polygon class="PF01593" points="321,28 351,28 363,40 351,52 321,52" stroke-linejoin="round" width="45" height="24" fill="rgb(184,74,52)" stroke="rgb(147,59,41)" stroke-width="1" opacity="0.75" />
			</g>
		</g>
		<g>
			<title>rebD
hypothetical protein</title>
			<polygon class="rebD
hypothetical protein" points="367,25 438,25 438,10 468,40 438,70 438,55 367,55" fill="rgb(255,255,255)" fill-opacity="1.0" stroke="rgb(0,0,0)" stroke-width="2"  />
			<g>
				<title>Ferritin-like (PF12902)
"Ferritin-like"</title>
				<rect class="PF12902" x="427" y="28" stroke-linejoin="round" width="24" height="24" fill="rgb(159,71,195)" stroke="rgb(127,56,156)" stroke-width="1" opacity="0.75" />
			</g>
		</g>
		<g>
			<title>rebC
putative monooxygenase</title>
			<polygon class="rebC
putative monooxygenase" points="469,25 492,25 492,10 522,40 492,70 492,55 469,55" fill="rgb(255,255,255)" fill-opacity="1.0" stroke="rgb(0,0,0)" stroke-width="2"  />
			<g>
				<title>FAD_binding_3 (PF01494)
"FAD binding domain"</title>
				<rect class="PF01494" x="469" y="28" stroke-linejoin="round" width="34" height="24" fill="rgb(182,175,59)" stroke="rgb(145,140,47)" stroke-width="1" opacity="0.75" />
			</g>
		</g>
		<g>
			<title>rebP
putative P450 protein</title>
			<polygon class="rebP
putative P450 protein" points="521,25 530,25 530,10 560,40 530,70 530,55 521,55" fill="rgb(255,255,255)" fill-opacity="1.0" stroke="rgb(0,0,0)" stroke-width="2"  />
			<g>
				<title>p450 (PF00067)
"Cytochrome P450"</title>
				<polygon class="PF00067" points="538,28 544,28 547,31 547,49 544,52 538,52" stroke-linejoin="round" width="9" height="24" fill="rgb(85,216,107)" stroke="rgb(68,172,85)" stroke-width="1" opacity="0.75" />
			</g>
			<g>
				<title>p450 (PF00067)
"Cytochrome P450"</title>
				<polygon class="PF00067" points="547,31 556,40 547,49" stroke-linejoin="round" width="11" height="24" fill="rgb(85,216,107)" stroke="rgb(68,172,85)" stroke-width="1" opacity="0.75" />
			</g>
		</g>
		<g>
			<title>rebM
putative methyltransferase</title>
			<polygon class="rebM
putative methyltransferase" points="562,10 589,40 562,70" fill="rgb(255,255,255)" fill-opacity="1.0" stroke="rgb(0,0,0)" stroke-width="2"  />
			<g>
				<title>Methyltransf_11 (PF08241)
"Methyltransferase domain"</title>
				<polygon class="PF08241" points="568,28 573,28 577,31 577,49 573,52 568,52" stroke-linejoin="round" width="9" height="24" fill="rgb(106,219,159)" stroke="rgb(84,175,127)" stroke-width="1" opacity="0.75" />
			</g>
		</g>
		<g>
			<title>rebR
putative regulatory protein</title>
			<polygon class="rebR
putative regulatory protein" points="600,25 662,25 662,10 692,40 662,70 662,55 600,55" fill="rgb(255,255,255)" fill-opacity="1.0" stroke="rgb(0,0,0)" stroke-width="2"  />
			<g>
				<title>AAA_16 (PF13191)
"AAA ATPase domain"</title>
				<rect class="PF13191" x="603" y="28" stroke-linejoin="round" width="14" height="24" fill="rgb(186,102,77)" stroke="rgb(148,81,61)" stroke-width="1" opacity="0.75" />
			</g>
			<g>
				<title>GerE (PF00196)
"Bacterial regulatory proteins, luxR family"</title>
				<polygon class="PF00196" points="686,38 688,40 686,42" stroke-linejoin="round" width="5" height="24" fill="rgb(219,94,82)" stroke="rgb(175,75,65)" stroke-width="1" opacity="0.75" />
			</g>
		</g>
		<g>
			<title>rebF
putative flavin reductase</title>
			<polygon class="rebF
putative flavin reductase" points="693,10 710,40 693,70" fill="rgb(255,255,255)" fill-opacity="1.0" stroke="rgb(0,0,0)" stroke-width="2"  />
			<g>
				<title>Flavin_Reduct (PF01613)
"Flavin reductase like domain"</title>
				<polygon class="PF01613" points="695,28 699,28 706,40 699,52 695,52" stroke-linejoin="round" width="14" height="24" fill="rgb(107,197,222)" stroke="rgb(85,157,177)" stroke-width="1" opacity="0.75" />
			</g>
		</g>
		<g>
			<title>rebU
putative integral membrane transporter</title>
			<polygon class="rebU
putative integral membrane transporter" points="710,25 722,25 722,10 752,40 722,70 722,55 710,55" fill="rgb(255,255,255)" fill-opacity="1.0" stroke="rgb(0,0,0)" stroke-width="2"  />
			<g>
				<title>Na_H_Exchanger (PF00999)
"Sodium/hydrogen exchanger family"</title>
				<polygon class="PF00999" points="711,28 736,28 748,40 736,52 711,52" stroke-linejoin="round" width="38" height="24" fill="rgb(229,67,191)" stroke="rgb(183,53,152)" stroke-width="1" opacity="0.75" />
			</g>
		</g>
		<g>
			<title>rebH
putative tryptophan halogenase</title>
			<polygon class="rebH
putative tryptophan halogenase" points="752,25 775,25 775,10 805,40 775,70 775,55 752,55" fill="rgb(255,255,255)" fill-opacity="1.0" stroke="rgb(0,0,0)" stroke-width="2"  />
			<g>
				<title>Trp_halogenase (PF04820)
"Tryptophan halogenase"</title>
				<polygon class="PF04820" points="752,28 788,28 800,40 800,40 788,52 752,52" stroke-linejoin="round" width="48" height="24" fill="rgb(179,74,194)" stroke="rgb(143,59,155)" stroke-width="1" opacity="0.75" />
			</g>
		</g>
		<g>
			<title>rebT
putative integral membrane transporter</title>
			<polygon class="rebT
putative integral membrane transporter" points="854,25 837,25 837,10 807,40 837,70 837,55 854,55" fill="rgb(255,255,255)" fill-opacity="1.0" stroke="rgb(0,0,0)" stroke-width="2"  />
			<g>
				<title>MFS_1 (PF07690)
"Major Facilitator Superfamily"</title>
				<polygon class="PF07690" points="813,38 823,28 852,28 852,52 823,52 813,42" stroke-linejoin="round" width="39" height="24" fill="rgb(193,224,74)" stroke="rgb(154,179,59)" stroke-width="1" opacity="0.75" />
			</g>
		</g>
		<g>
			<title>
putative regulatory protein</title>
			<polygon class="
putative regulatory protein" points="857,10 865,40 857,70" fill="rgb(255,255,255)" fill-opacity="1.0" stroke="rgb(0,0,0)" stroke-width="2"  />
		</g>
	</g>
</svg>
