<svg version="1.1" baseProfile="full" xmlns="http://www.w3.org/2000/svg" width="3200.866666666667" height="80">
	<g>
		<line x1="10" y1="40.0" x2="3190.866666666667" y2="40.0" style="stroke:rgb(70,70,70); stroke-width:3 "/>
		<g>
			<title>
hypothetical protein</title>
			<polygon class="
hypothetical protein" points="24,10 36,40 24,70" fill="rgb(255,255,255)" fill-opacity="1.0" stroke="rgb(0,0,0)" stroke-width="2"  />
			<g>
				<title>DUF4150 (PF13665)
"Domain of unknown function (DUF4150)"</title>
				<polygon class="PF13665" points="24,28 27,28 32,40 27,52 24,52" stroke-linejoin="round" width="10" height="24" fill="rgb(86,181,80)" stroke="rgb(68,144,64)" stroke-width="1" opacity="0.75" />
			</g>
		</g>
		<g>
			<title>
hypothetical protein</title>
			<polygon class="
hypothetical protein" points="48,25 77,25 77,10 107,40 77,70 77,55 48,55" fill="rgb(255,255,255)" fill-opacity="1.0" stroke="rgb(0,0,0)" stroke-width="2"  />
			<g>
				<title>T6SS_VasE (PF05936)
"Bacterial Type VI secretion, VC_A0110, EvfL, ImpJ, VasE"</title>
				<polygon class="PF05936" points="63,28 90,28 102,40 90,52 63,52" stroke-linejoin="round" width="42" height="24" fill="rgb(103,111,214)" stroke="rgb(82,88,171)" stroke-width="1" opacity="0.75" />
			</g>
		</g>
		<g>
			<title>
OmpA family protein</title>
			<polygon class="
OmpA family protein" points="108,25 131,25 131,10 161,40 131,70 131,55 108,55" fill="rgb(255,255,255)" fill-opacity="1.0" stroke="rgb(0,0,0)" stroke-width="2"  />
			<g>
				<title>DotU (PF09850)
"Type VI secretion system protein DotU"</title>
				<rect class="PF09850" x="120" y="28" stroke-linejoin="round" width="19" height="24" fill="rgb(110,203,93)" stroke="rgb(88,162,74)" stroke-width="1" opacity="0.75" />
			</g>
			<g>
				<title>OmpA (PF00691)
"OmpA family"</title>
				<polygon class="PF00691" points="146,29 156,39 156,41 146,51" stroke-linejoin="round" width="10" height="24" fill="rgb(121,200,70)" stroke="rgb(96,160,56)" stroke-width="1" opacity="0.75" />
			</g>
		</g>
		<g>
			<title>
ImcF-related family protein</title>
			<polygon class="
ImcF-related family protein" points="162,25 248,25 248,10 278,40 248,70 248,55 162,55" fill="rgb(255,255,255)" fill-opacity="1.0" stroke="rgb(0,0,0)" stroke-width="2"  />
			<g>
				<title>IcmF-related_N (PF14331)
"IcmF-related N-terminal domain"</title>
				<rect class="PF14331" x="180" y="28" stroke-linejoin="round" width="24" height="24" fill="rgb(93,191,96)" stroke="rgb(74,152,76)" stroke-width="1" opacity="0.75" />
			</g>
			<g>
				<title>IcmF-related (PF06761)
"Intracellular multiplication and human macrophage-killing"</title>
				<rect class="PF06761" x="210" y="28" stroke-linejoin="round" width="30" height="24" fill="rgb(91,203,105)" stroke="rgb(72,162,84)" stroke-width="1" opacity="0.75" />
			</g>
			<g>
				<title>IcmF_C (PF06744)
"Type VI secretion protein IcmF C2-like domain"</title>
				<polygon class="PF06744" points="266,32 274,40 266,48" stroke-linejoin="round" width="10" height="24" fill="rgb(211,84,154)" stroke="rgb(168,67,123)" stroke-width="1" opacity="0.75" />
			</g>
		</g>
		<g>
			<title>
hypothetical protein</title>
			<polygon class="
hypothetical protein" points="280,10 292,40 280,70" fill="rgb(255,255,255)" fill-opacity="1.0" stroke="rgb(0,0,0)" stroke-width="2"  />
			<g>
				<title>DUF6277 (PF19793)
"Family of unknown function (DUF6277)"</title>
				<polygon class="PF19793" points="280,28 283,28 288,40 283,52 280,52" stroke-linejoin="round" width="11" height="24" fill="rgb(74,88,206)" stroke="rgb(59,70,164)" stroke-width="1" opacity="0.75" />
			</g>
		</g>
		<g>
			<title>
integrase</title>
			<polygon class="
integrase" points="299,40 324,10 324,70" fill="rgb(255,255,255)" fill-opacity="1.0" stroke="rgb(0,0,0)" stroke-width="2"  />
		</g>
		<g>
			<title>fr9A
transcriptional regulator</title>
			<polygon class="fr9A
transcriptional regulator" points="407,10 436,40 407,70" fill="rgb(255,255,255)" fill-opacity="1.0" stroke="rgb(0,0,0)" stroke-width="2"  />
			<g>
				<title>GerE (PF00196)
"Bacterial regulatory proteins, luxR family"</title>
				<polygon class="PF00196" points="430,38 432,40 430,42" stroke-linejoin="round" width="5" height="24" fill="rgb(219,94,82)" stroke="rgb(175,75,65)" stroke-width="1" opacity="0.75" />
			</g>
		</g>
		<g>
			<title>fr9B
acyltransferase</title>
			<polygon class="fr9B
acyltransferase" points="447,25 453,25 453,10 483,40 453,70 453,55 447,55" fill="rgb(255,255,255)" fill-opacity="1.0" stroke="rgb(0,0,0)" stroke-width="2"  />
			<g>
				<title>Acyl_transf_1 (PF00698)
"Acyl transferase domain"</title>
				<polygon class="PF00698" points="450,28 466,28 478,40 466,52 450,52" stroke-linejoin="round" width="30" height="24" fill="rgb(59,176,209)" stroke="rgb(47,140,167)" stroke-width="1" opacity="0.75" />
			</g>
		</g>
		<g>
			<title>fr9C
putative type-I PKS</title>
			<polygon class="fr9C
putative type-I PKS" points="499,25 975,25 975,10 1005,40 975,70 975,55 499,55" fill="rgb(255,255,255)" fill-opacity="1.0" stroke="rgb(0,0,0)" stroke-width="2"  />
			<g>
				<title>MaoC_dehydratas (PF01575)
"MaoC like domain"</title>
				<rect class="PF01575" x="512" y="28" stroke-linejoin="round" width="11" height="24" fill="rgb(218,129,86)" stroke="rgb(174,103,68)" stroke-width="1" opacity="0.75" />
			</g>
			<g>
				<title>adh_short (PF00106)
"short chain dehydrogenase"</title>
				<rect class="PF00106" x="540" y="28" stroke-linejoin="round" width="19" height="24" fill="rgb(182,219,73)" stroke="rgb(145,175,58)" stroke-width="1" opacity="0.75" />
			</g>
			<g>
				<title>ketoacyl-synt (PF00109)
"Beta-ketoacyl synthase, N-terminal domain"</title>
				<rect class="PF00109" x="637" y="28" stroke-linejoin="round" width="24" height="24" fill="rgb(112,116,228)" stroke="rgb(89,92,182)" stroke-width="1" opacity="0.75" />
			</g>
			<g>
				<title>Ketoacyl-synt_C (PF02801)
"Beta-ketoacyl synthase, C-terminal domain"</title>
				<rect class="PF02801" x="663" y="28" stroke-linejoin="round" width="11" height="24" fill="rgb(215,78,102)" stroke="rgb(172,62,81)" stroke-width="1" opacity="0.75" />
			</g>
			<g>
				<title>KAsynt_C_assoc (PF16197)
"Ketoacyl-synthetase C-terminal extension"</title>
				<rect class="PF16197" x="675" y="28" stroke-linejoin="round" width="11" height="24" fill="rgb(240,150,172)" stroke="rgb(192,120,137)" stroke-width="1" opacity="0.75" />
			</g>
			<g>
				<title>KR (PF08659)
"KR domain"</title>
				<rect class="PF08659" x="717" y="28" stroke-linejoin="round" width="18" height="24" fill="rgb(66,209,188)" stroke="rgb(52,167,150)" stroke-width="1" opacity="0.75" />
			</g>
			<g>
				<title>PP-binding (PF00550)
"Phosphopantetheine attachment site"</title>
				<rect class="PF00550" x="745" y="28" stroke-linejoin="round" width="6" height="24" fill="rgb(103,191,88)" stroke="rgb(82,152,70)" stroke-width="1" opacity="0.75" />
			</g>
			<g>
				<title>ketoacyl-synt (PF00109)
"Beta-ketoacyl synthase, N-terminal domain"</title>
				<rect class="PF00109" x="757" y="28" stroke-linejoin="round" width="25" height="24" fill="rgb(112,116,228)" stroke="rgb(89,92,182)" stroke-width="1" opacity="0.75" />
			</g>
			<g>
				<title>Ketoacyl-synt_C (PF02801)
"Beta-ketoacyl synthase, C-terminal domain"</title>
				<rect class="PF02801" x="783" y="28" stroke-linejoin="round" width="11" height="24" fill="rgb(215,78,102)" stroke="rgb(172,62,81)" stroke-width="1" opacity="0.75" />
			</g>
			<g>
				<title>PP-binding (PF00550)
"Phosphopantetheine attachment site"</title>
				<rect class="PF00550" x="820" y="28" stroke-linejoin="round" width="6" height="24" fill="rgb(103,191,88)" stroke="rgb(82,152,70)" stroke-width="1" opacity="0.75" />
			</g>
			<g>
				<title>PP-binding (PF00550)
"Phosphopantetheine attachment site"</title>
				<rect class="PF00550" x="831" y="28" stroke-linejoin="round" width="6" height="24" fill="rgb(103,191,88)" stroke="rgb(82,152,70)" stroke-width="1" opacity="0.75" />
			</g>
			<g>
				<title>Thioesterase (PF00975)
"Thioesterase domain"</title>
				<rect class="PF00975" x="844" y="28" stroke-linejoin="round" width="13" height="24" fill="rgb(207,80,138)" stroke="rgb(165,63,110)" stroke-width="1" opacity="0.75" />
			</g>
			<g>
				<title>ketoacyl-synt (PF00109)
"Beta-ketoacyl synthase, N-terminal domain"</title>
				<rect class="PF00109" x="876" y="28" stroke-linejoin="round" width="23" height="24" fill="rgb(112,116,228)" stroke="rgb(89,92,182)" stroke-width="1" opacity="0.75" />
			</g>
			<g>
				<title>Ketoacyl-synt_C (PF02801)
"Beta-ketoacyl synthase, C-terminal domain"</title>
				<rect class="PF02801" x="900" y="28" stroke-linejoin="round" width="11" height="24" fill="rgb(215,78,102)" stroke="rgb(172,62,81)" stroke-width="1" opacity="0.75" />
			</g>
			<g>
				<title>KAsynt_C_assoc (PF16197)
"Ketoacyl-synthetase C-terminal extension"</title>
				<rect class="PF16197" x="912" y="28" stroke-linejoin="round" width="11" height="24" fill="rgb(240,150,172)" stroke="rgb(192,120,137)" stroke-width="1" opacity="0.75" />
			</g>
			<g>
				<title>PP-binding (PF00550)
"Phosphopantetheine attachment site"</title>
				<rect class="PF00550" x="936" y="28" stroke-linejoin="round" width="6" height="24" fill="rgb(103,191,88)" stroke="rgb(82,152,70)" stroke-width="1" opacity="0.75" />
			</g>
			<g>
				<title>Condensation (PF00668)
"Condensation domain"</title>
				<polygon class="PF00668" points="954,28 988,28 998,38 998,42 988,52 954,52" stroke-linejoin="round" width="44" height="24" fill="rgb(224,184,98)" stroke="rgb(179,147,78)" stroke-width="1" opacity="0.75" />
			</g>
		</g>
		<g>
			<title>fr9D
putative mixed polyketide synthase/non-ribosomal peptide synthetase</title>
			<polygon class="fr9D
putative mixed polyketide synthase/non-ribosomal peptide synthetase" points="1008,25 1155,25 1155,10 1185,40 1155,70 1155,55 1008,55" fill="rgb(255,255,255)" fill-opacity="1.0" stroke="rgb(0,0,0)" stroke-width="2"  />
			<g>
				<title>Condensation (PF00668)
"Condensation domain"</title>
				<rect class="PF00668" x="1012" y="28" stroke-linejoin="round" width="44" height="24" fill="rgb(224,184,98)" stroke="rgb(179,147,78)" stroke-width="1" opacity="0.75" />
			</g>
			<g>
				<title>AMP-binding (PF00501)
"AMP-binding enzyme"</title>
				<rect class="PF00501" x="1059" y="28" stroke-linejoin="round" width="40" height="24" fill="rgb(60,217,223)" stroke="rgb(48,173,178)" stroke-width="1" opacity="0.75" />
			</g>
			<g>
				<title>AMP-binding_C (PF13193)
"AMP-binding enzyme C-terminal domain"</title>
				<rect class="PF13193" x="1100" y="28" stroke-linejoin="round" width="7" height="24" fill="rgb(182,50,118)" stroke="rgb(145,39,94)" stroke-width="1" opacity="0.75" />
			</g>
			<g>
				<title>PP-binding (PF00550)
"Phosphopantetheine attachment site"</title>
				<rect class="PF00550" x="1111" y="28" stroke-linejoin="round" width="6" height="24" fill="rgb(103,191,88)" stroke="rgb(82,152,70)" stroke-width="1" opacity="0.75" />
			</g>
			<g>
				<title>ketoacyl-synt (PF00109)
"Beta-ketoacyl synthase, N-terminal domain"</title>
				<rect class="PF00109" x="1121" y="28" stroke-linejoin="round" width="24" height="24" fill="rgb(112,116,228)" stroke="rgb(89,92,182)" stroke-width="1" opacity="0.75" />
			</g>
			<g>
				<title>Ketoacyl-synt_C (PF02801)
"Beta-ketoacyl synthase, C-terminal domain"</title>
				<rect class="PF02801" x="1147" y="28" stroke-linejoin="round" width="12" height="24" fill="rgb(215,78,102)" stroke="rgb(172,62,81)" stroke-width="1" opacity="0.75" />
			</g>
			<g>
				<title>KAsynt_C_assoc (PF16197)
"Ketoacyl-synthetase C-terminal extension"</title>
				<polygon class="PF16197" points="1159,28 1168,28 1170,30 1170,50 1168,52 1159,52" stroke-linejoin="round" width="11" height="24" fill="rgb(240,150,172)" stroke="rgb(192,120,137)" stroke-width="1" opacity="0.75" />
			</g>
		</g>
		<g>
			<title>fr9E
polyketide synthase</title>
			<polygon class="fr9E
polyketide synthase" points="1185,25 1273,25 1273,10 1303,40 1273,70 1273,55 1185,55" fill="rgb(255,255,255)" fill-opacity="1.0" stroke="rgb(0,0,0)" stroke-width="2"  />
			<g>
				<title>PS-DH (PF14765)
"Polyketide synthase dehydratase"</title>
				<rect class="PF14765" x="1185" y="28" stroke-linejoin="round" width="26" height="24" fill="rgb(173,56,182)" stroke="rgb(138,44,145)" stroke-width="1" opacity="0.75" />
			</g>
			<g>
				<title>KR (PF08659)
"KR domain"</title>
				<rect class="PF08659" x="1234" y="28" stroke-linejoin="round" width="18" height="24" fill="rgb(66,209,188)" stroke="rgb(52,167,150)" stroke-width="1" opacity="0.75" />
			</g>
			<g>
				<title>Methyltransf_12 (PF08242)
"Methyltransferase domain"</title>
				<polygon class="PF08242" points="1279,28 1287,28 1289,30 1289,50 1287,52 1279,52" stroke-linejoin="round" width="10" height="24" fill="rgb(187,59,115)" stroke="rgb(149,47,92)" stroke-width="1" opacity="0.75" />
			</g>
		</g>
		<g>
			<title>fr9F
polyketide synthase</title>
			<polygon class="fr9F
polyketide synthase" points="1305,25 1765,25 1765,10 1795,40 1765,70 1765,55 1305,55" fill="rgb(255,255,255)" fill-opacity="1.0" stroke="rgb(0,0,0)" stroke-width="2"  />
			<g>
				<title>PP-binding (PF00550)
"Phosphopantetheine attachment site"</title>
				<rect class="PF00550" x="1311" y="28" stroke-linejoin="round" width="6" height="24" fill="rgb(103,191,88)" stroke="rgb(82,152,70)" stroke-width="1" opacity="0.75" />
			</g>
			<g>
				<title>ADH_N (PF08240)
"Alcohol dehydrogenase GroES-like domain"</title>
				<rect class="PF08240" x="1326" y="28" stroke-linejoin="round" width="9" height="24" fill="rgb(211,65,138)" stroke="rgb(168,51,110)" stroke-width="1" opacity="0.75" />
			</g>
			<g>
				<title>ADH_zinc_N_2 (PF13602)
"Zinc-binding dehydrogenase"</title>
				<rect class="PF13602" x="1342" y="28" stroke-linejoin="round" width="13" height="24" fill="rgb(101,131,226)" stroke="rgb(80,104,180)" stroke-width="1" opacity="0.75" />
			</g>
			<g>
				<title>ketoacyl-synt (PF00109)
"Beta-ketoacyl synthase, N-terminal domain"</title>
				<rect class="PF00109" x="1360" y="28" stroke-linejoin="round" width="24" height="24" fill="rgb(112,116,228)" stroke="rgb(89,92,182)" stroke-width="1" opacity="0.75" />
			</g>
			<g>
				<title>Ketoacyl-synt_C (PF02801)
"Beta-ketoacyl synthase, C-terminal domain"</title>
				<rect class="PF02801" x="1386" y="28" stroke-linejoin="round" width="11" height="24" fill="rgb(215,78,102)" stroke="rgb(172,62,81)" stroke-width="1" opacity="0.75" />
			</g>
			<g>
				<title>KAsynt_C_assoc (PF16197)
"Ketoacyl-synthetase C-terminal extension"</title>
				<rect class="PF16197" x="1398" y="28" stroke-linejoin="round" width="11" height="24" fill="rgb(240,150,172)" stroke="rgb(192,120,137)" stroke-width="1" opacity="0.75" />
			</g>
			<g>
				<title>PS-DH (PF14765)
"Polyketide synthase dehydratase"</title>
				<rect class="PF14765" x="1420" y="28" stroke-linejoin="round" width="29" height="24" fill="rgb(173,56,182)" stroke="rgb(138,44,145)" stroke-width="1" opacity="0.75" />
			</g>
			<g>
				<title>PS-DH (PF14765)
"Polyketide synthase dehydratase"</title>
				<rect class="PF14765" x="1449" y="28" stroke-linejoin="round" width="27" height="24" fill="rgb(173,56,182)" stroke="rgb(138,44,145)" stroke-width="1" opacity="0.75" />
			</g>
			<g>
				<title>KR (PF08659)
"KR domain"</title>
				<rect class="PF08659" x="1499" y="28" stroke-linejoin="round" width="18" height="24" fill="rgb(66,209,188)" stroke="rgb(52,167,150)" stroke-width="1" opacity="0.75" />
			</g>
			<g>
				<title>PP-binding (PF00550)
"Phosphopantetheine attachment site"</title>
				<rect class="PF00550" x="1526" y="28" stroke-linejoin="round" width="7" height="24" fill="rgb(103,191,88)" stroke="rgb(82,152,70)" stroke-width="1" opacity="0.75" />
			</g>
			<g>
				<title>ketoacyl-synt (PF00109)
"Beta-ketoacyl synthase, N-terminal domain"</title>
				<rect class="PF00109" x="1539" y="28" stroke-linejoin="round" width="23" height="24" fill="rgb(112,116,228)" stroke="rgb(89,92,182)" stroke-width="1" opacity="0.75" />
			</g>
			<g>
				<title>Ketoacyl-synt_C (PF02801)
"Beta-ketoacyl synthase, C-terminal domain"</title>
				<rect class="PF02801" x="1564" y="28" stroke-linejoin="round" width="12" height="24" fill="rgb(215,78,102)" stroke="rgb(172,62,81)" stroke-width="1" opacity="0.75" />
			</g>
			<g>
				<title>KAsynt_C_assoc (PF16197)
"Ketoacyl-synthetase C-terminal extension"</title>
				<rect class="PF16197" x="1576" y="28" stroke-linejoin="round" width="11" height="24" fill="rgb(240,150,172)" stroke="rgb(192,120,137)" stroke-width="1" opacity="0.75" />
			</g>
			<g>
				<title>PS-DH (PF14765)
"Polyketide synthase dehydratase"</title>
				<rect class="PF14765" x="1600" y="28" stroke-linejoin="round" width="27" height="24" fill="rgb(173,56,182)" stroke="rgb(138,44,145)" stroke-width="1" opacity="0.75" />
			</g>
			<g>
				<title>KR (PF08659)
"KR domain"</title>
				<rect class="PF08659" x="1651" y="28" stroke-linejoin="round" width="18" height="24" fill="rgb(66,209,188)" stroke="rgb(52,167,150)" stroke-width="1" opacity="0.75" />
			</g>
			<g>
				<title>Methyltransf_12 (PF08242)
"Methyltransferase domain"</title>
				<rect class="PF08242" x="1697" y="28" stroke-linejoin="round" width="10" height="24" fill="rgb(187,59,115)" stroke="rgb(149,47,92)" stroke-width="1" opacity="0.75" />
			</g>
			<g>
				<title>PP-binding (PF00550)
"Phosphopantetheine attachment site"</title>
				<rect class="PF00550" x="1720" y="28" stroke-linejoin="round" width="6" height="24" fill="rgb(103,191,88)" stroke="rgb(82,152,70)" stroke-width="1" opacity="0.75" />
			</g>
			<g>
				<title>ketoacyl-synt (PF00109)
"Beta-ketoacyl synthase, N-terminal domain"</title>
				<rect class="PF00109" x="1731" y="28" stroke-linejoin="round" width="23" height="24" fill="rgb(112,116,228)" stroke="rgb(89,92,182)" stroke-width="1" opacity="0.75" />
			</g>
			<g>
				<title>Ketoacyl-synt_C (PF02801)
"Beta-ketoacyl synthase, C-terminal domain"</title>
				<rect class="PF02801" x="1756" y="28" stroke-linejoin="round" width="12" height="24" fill="rgb(215,78,102)" stroke="rgb(172,62,81)" stroke-width="1" opacity="0.75" />
			</g>
			<g>
				<title>KAsynt_C_assoc (PF16197)
"Ketoacyl-synthetase C-terminal extension"</title>
				<polygon class="PF16197" points="1768,28 1779,28 1780,29 1780,51 1779,52 1768,52" stroke-linejoin="round" width="12" height="24" fill="rgb(240,150,172)" stroke="rgb(192,120,137)" stroke-width="1" opacity="0.75" />
			</g>
		</g>
		<g>
			<title>fr9G
polyketide synthase</title>
			<polygon class="fr9G
polyketide synthase" points="1797,25 2068,25 2068,10 2098,40 2068,70 2068,55 1797,55" fill="rgb(255,255,255)" fill-opacity="1.0" stroke="rgb(0,0,0)" stroke-width="2"  />
			<g>
				<title>PS-DH (PF14765)
"Polyketide synthase dehydratase"</title>
				<rect class="PF14765" x="1803" y="28" stroke-linejoin="round" width="29" height="24" fill="rgb(173,56,182)" stroke="rgb(138,44,145)" stroke-width="1" opacity="0.75" />
			</g>
			<g>
				<title>KR (PF08659)
"KR domain"</title>
				<rect class="PF08659" x="1851" y="28" stroke-linejoin="round" width="18" height="24" fill="rgb(66,209,188)" stroke="rgb(52,167,150)" stroke-width="1" opacity="0.75" />
			</g>
			<g>
				<title>PP-binding (PF00550)
"Phosphopantetheine attachment site"</title>
				<rect class="PF00550" x="1879" y="28" stroke-linejoin="round" width="6" height="24" fill="rgb(103,191,88)" stroke="rgb(82,152,70)" stroke-width="1" opacity="0.75" />
			</g>
			<g>
				<title>ketoacyl-synt (PF00109)
"Beta-ketoacyl synthase, N-terminal domain"</title>
				<rect class="PF00109" x="1891" y="28" stroke-linejoin="round" width="25" height="24" fill="rgb(112,116,228)" stroke="rgb(89,92,182)" stroke-width="1" opacity="0.75" />
			</g>
			<g>
				<title>Ketoacyl-synt_C (PF02801)
"Beta-ketoacyl synthase, C-terminal domain"</title>
				<rect class="PF02801" x="1918" y="28" stroke-linejoin="round" width="11" height="24" fill="rgb(215,78,102)" stroke="rgb(172,62,81)" stroke-width="1" opacity="0.75" />
			</g>
			<g>
				<title>KAsynt_C_assoc (PF16197)
"Ketoacyl-synthetase C-terminal extension"</title>
				<rect class="PF16197" x="1930" y="28" stroke-linejoin="round" width="10" height="24" fill="rgb(240,150,172)" stroke="rgb(192,120,137)" stroke-width="1" opacity="0.75" />
			</g>
			<g>
				<title>KR (PF08659)
"KR domain"</title>
				<rect class="PF08659" x="1973" y="28" stroke-linejoin="round" width="18" height="24" fill="rgb(66,209,188)" stroke="rgb(52,167,150)" stroke-width="1" opacity="0.75" />
			</g>
			<g>
				<title>ketoacyl-synt (PF00109)
"Beta-ketoacyl synthase, N-terminal domain"</title>
				<rect class="PF00109" x="1993" y="28" stroke-linejoin="round" width="4" height="24" fill="rgb(112,116,228)" stroke="rgb(89,92,182)" stroke-width="1" opacity="0.75" />
			</g>
			<g>
				<title>Ketoacyl-synt_C (PF02801)
"Beta-ketoacyl synthase, C-terminal domain"</title>
				<rect class="PF02801" x="1998" y="28" stroke-linejoin="round" width="11" height="24" fill="rgb(215,78,102)" stroke="rgb(172,62,81)" stroke-width="1" opacity="0.75" />
			</g>
			<g>
				<title>KAsynt_C_assoc (PF16197)
"Ketoacyl-synthetase C-terminal extension"</title>
				<rect class="PF16197" x="2010" y="28" stroke-linejoin="round" width="10" height="24" fill="rgb(240,150,172)" stroke="rgb(192,120,137)" stroke-width="1" opacity="0.75" />
			</g>
			<g>
				<title>KR (PF08659)
"KR domain"</title>
				<rect class="PF08659" x="2053" y="28" stroke-linejoin="round" width="18" height="24" fill="rgb(66,209,188)" stroke="rgb(52,167,150)" stroke-width="1" opacity="0.75" />
			</g>
			<g>
				<title>PP-binding (PF00550)
"Phosphopantetheine attachment site"</title>
				<polygon class="PF00550" points="2081,28 2082,28 2087,33 2087,47 2082,52 2081,52" stroke-linejoin="round" width="6" height="24" fill="rgb(103,191,88)" stroke="rgb(82,152,70)" stroke-width="1" opacity="0.75" />
			</g>
		</g>
		<g>
			<title>fr9H
type I polyketide synthase</title>
			<polygon class="fr9H
type I polyketide synthase" points="2103,25 2339,25 2339,10 2369,40 2339,70 2339,55 2103,55" fill="rgb(255,255,255)" fill-opacity="1.0" stroke="rgb(0,0,0)" stroke-width="2"  />
			<g>
				<title>ketoacyl-synt (PF00109)
"Beta-ketoacyl synthase, N-terminal domain"</title>
				<rect class="PF00109" x="2103" y="28" stroke-linejoin="round" width="16" height="24" fill="rgb(112,116,228)" stroke="rgb(89,92,182)" stroke-width="1" opacity="0.75" />
			</g>
			<g>
				<title>Ketoacyl-synt_C (PF02801)
"Beta-ketoacyl synthase, C-terminal domain"</title>
				<rect class="PF02801" x="2120" y="28" stroke-linejoin="round" width="11" height="24" fill="rgb(215,78,102)" stroke="rgb(172,62,81)" stroke-width="1" opacity="0.75" />
			</g>
			<g>
				<title>ECH_1 (PF00378)
"Enoyl-CoA hydratase/isomerase"</title>
				<rect class="PF00378" x="2190" y="28" stroke-linejoin="round" width="23" height="24" fill="rgb(218,72,181)" stroke="rgb(174,57,144)" stroke-width="1" opacity="0.75" />
			</g>
			<g>
				<title>PP-binding (PF00550)
"Phosphopantetheine attachment site"</title>
				<rect class="PF00550" x="2216" y="28" stroke-linejoin="round" width="6" height="24" fill="rgb(103,191,88)" stroke="rgb(82,152,70)" stroke-width="1" opacity="0.75" />
			</g>
			<g>
				<title>PP-binding (PF00550)
"Phosphopantetheine attachment site"</title>
				<rect class="PF00550" x="2226" y="28" stroke-linejoin="round" width="6" height="24" fill="rgb(103,191,88)" stroke="rgb(82,152,70)" stroke-width="1" opacity="0.75" />
			</g>
			<g>
				<title>PP-binding (PF00550)
"Phosphopantetheine attachment site"</title>
				<rect class="PF00550" x="2238" y="28" stroke-linejoin="round" width="6" height="24" fill="rgb(103,191,88)" stroke="rgb(82,152,70)" stroke-width="1" opacity="0.75" />
			</g>
			<g>
				<title>ketoacyl-synt (PF00109)
"Beta-ketoacyl synthase, N-terminal domain"</title>
				<rect class="PF00109" x="2249" y="28" stroke-linejoin="round" width="24" height="24" fill="rgb(112,116,228)" stroke="rgb(89,92,182)" stroke-width="1" opacity="0.75" />
			</g>
			<g>
				<title>Ketoacyl-synt_C (PF02801)
"Beta-ketoacyl synthase, C-terminal domain"</title>
				<rect class="PF02801" x="2275" y="28" stroke-linejoin="round" width="11" height="24" fill="rgb(215,78,102)" stroke="rgb(172,62,81)" stroke-width="1" opacity="0.75" />
			</g>
			<g>
				<title>KAsynt_C_assoc (PF16197)
"Ketoacyl-synthetase C-terminal extension"</title>
				<rect class="PF16197" x="2287" y="28" stroke-linejoin="round" width="12" height="24" fill="rgb(240,150,172)" stroke="rgb(192,120,137)" stroke-width="1" opacity="0.75" />
			</g>
			<g>
				<title>FMO-like (PF00743)
"Flavin-binding monooxygenase-like"</title>
				<rect class="PF00743" x="2311" y="28" stroke-linejoin="round" width="38" height="24" fill="rgb(203,74,151)" stroke="rgb(162,59,120)" stroke-width="1" opacity="0.75" />
			</g>
		</g>
		<g>
			<title>fr9I
type I polyketide synthase</title>
			<polygon class="fr9I
type I polyketide synthase" points="2369,25 2644,25 2644,10 2674,40 2644,70 2644,55 2369,55" fill="rgb(255,255,255)" fill-opacity="1.0" stroke="rgb(0,0,0)" stroke-width="2"  />
			<g>
				<title>KR (PF08659)
"KR domain"</title>
				<rect class="PF08659" x="2396" y="28" stroke-linejoin="round" width="18" height="24" fill="rgb(66,209,188)" stroke="rgb(52,167,150)" stroke-width="1" opacity="0.75" />
			</g>
			<g>
				<title>PP-binding (PF00550)
"Phosphopantetheine attachment site"</title>
				<rect class="PF00550" x="2422" y="28" stroke-linejoin="round" width="6" height="24" fill="rgb(103,191,88)" stroke="rgb(82,152,70)" stroke-width="1" opacity="0.75" />
			</g>
			<g>
				<title>PP-binding (PF00550)
"Phosphopantetheine attachment site"</title>
				<rect class="PF00550" x="2432" y="28" stroke-linejoin="round" width="6" height="24" fill="rgb(103,191,88)" stroke="rgb(82,152,70)" stroke-width="1" opacity="0.75" />
			</g>
			<g>
				<title>ketoacyl-synt (PF00109)
"Beta-ketoacyl synthase, N-terminal domain"</title>
				<rect class="PF00109" x="2442" y="28" stroke-linejoin="round" width="24" height="24" fill="rgb(112,116,228)" stroke="rgb(89,92,182)" stroke-width="1" opacity="0.75" />
			</g>
			<g>
				<title>Ketoacyl-synt_C (PF02801)
"Beta-ketoacyl synthase, C-terminal domain"</title>
				<rect class="PF02801" x="2467" y="28" stroke-linejoin="round" width="11" height="24" fill="rgb(215,78,102)" stroke="rgb(172,62,81)" stroke-width="1" opacity="0.75" />
			</g>
			<g>
				<title>PS-DH (PF14765)
"Polyketide synthase dehydratase"</title>
				<rect class="PF14765" x="2505" y="28" stroke-linejoin="round" width="30" height="24" fill="rgb(173,56,182)" stroke="rgb(138,44,145)" stroke-width="1" opacity="0.75" />
			</g>
			<g>
				<title>PP-binding (PF00550)
"Phosphopantetheine attachment site"</title>
				<rect class="PF00550" x="2568" y="28" stroke-linejoin="round" width="6" height="24" fill="rgb(103,191,88)" stroke="rgb(82,152,70)" stroke-width="1" opacity="0.75" />
			</g>
			<g>
				<title>ketoacyl-synt (PF00109)
"Beta-ketoacyl synthase, N-terminal domain"</title>
				<rect class="PF00109" x="2579" y="28" stroke-linejoin="round" width="20" height="24" fill="rgb(112,116,228)" stroke="rgb(89,92,182)" stroke-width="1" opacity="0.75" />
			</g>
			<g>
				<title>Ketoacyl-synt_C (PF02801)
"Beta-ketoacyl synthase, C-terminal domain"</title>
				<rect class="PF02801" x="2600" y="28" stroke-linejoin="round" width="12" height="24" fill="rgb(215,78,102)" stroke="rgb(172,62,81)" stroke-width="1" opacity="0.75" />
			</g>
			<g>
				<title>KAsynt_C_assoc (PF16197)
"Ketoacyl-synthetase C-terminal extension"</title>
				<rect class="PF16197" x="2613" y="28" stroke-linejoin="round" width="11" height="24" fill="rgb(240,150,172)" stroke="rgb(192,120,137)" stroke-width="1" opacity="0.75" />
			</g>
			<g>
				<title>Abhydrolase_1 (PF00561)
"alpha/beta hydrolase fold"</title>
				<polygon class="PF00561" points="2651,28 2658,28 2664,34 2664,46 2658,52 2651,52" stroke-linejoin="round" width="13" height="24" fill="rgb(86,180,151)" stroke="rgb(68,144,120)" stroke-width="1" opacity="0.75" />
			</g>
		</g>
		<g>
			<title>fr9J
malonyl CoA-acyl carrier protein transacylase</title>
			<polygon class="fr9J
malonyl CoA-acyl carrier protein transacylase" points="2677,10 2706,40 2677,70" fill="rgb(255,255,255)" fill-opacity="1.0" stroke="rgb(0,0,0)" stroke-width="2"  />
			<g>
				<title>Acyl_transf_1 (PF00698)
"Acyl transferase domain"</title>
				<polygon class="PF00698" points="2677,28 2690,28 2702,40 2690,52 2677,52" stroke-linejoin="round" width="28" height="24" fill="rgb(59,176,209)" stroke="rgb(47,140,167)" stroke-width="1" opacity="0.75" />
			</g>
		</g>
		<g>
			<title>fr9K
putative hydroxymethylglutaryl-coenzyme A synthase</title>
			<polygon class="fr9K
putative hydroxymethylglutaryl-coenzyme A synthase" points="2707,25 2720,25 2720,10 2750,40 2720,70 2720,55 2707,55" fill="rgb(255,255,255)" fill-opacity="1.0" stroke="rgb(0,0,0)" stroke-width="2"  />
			<g>
				<title>HMG_CoA_synt_N (PF01154)
"Hydroxymethylglutaryl-coenzyme A synthase N terminal"</title>
				<rect class="PF01154" x="2708" y="28" stroke-linejoin="round" width="18" height="24" fill="rgb(88,216,218)" stroke="rgb(70,172,174)" stroke-width="1" opacity="0.75" />
			</g>
			<g>
				<title>HMG_CoA_synt_C (PF08540)
"Hydroxymethylglutaryl-coenzyme A synthase C terminal"</title>
				<polygon class="PF08540" points="2734,29 2745,40 2734,51" stroke-linejoin="round" width="15" height="24" fill="rgb(49,194,86)" stroke="rgb(39,155,68)" stroke-width="1" opacity="0.75" />
			</g>
		</g>
		<g>
			<title>fr9L
probable enoyl-CoA hydratase</title>
			<polygon class="fr9L
probable enoyl-CoA hydratase" points="2750,10 2775,40 2750,70" fill="rgb(255,255,255)" fill-opacity="1.0" stroke="rgb(0,0,0)" stroke-width="2"  />
			<g>
				<title>ECH_1 (PF00378)
"Enoyl-CoA hydratase/isomerase"</title>
				<polygon class="PF00378" points="2750,28 2761,28 2771,40 2761,52 2750,52" stroke-linejoin="round" width="24" height="24" fill="rgb(218,72,181)" stroke="rgb(174,57,144)" stroke-width="1" opacity="0.75" />
			</g>
		</g>
		<g>
			<title>fr9M
acyl carrier protein</title>
			<polygon class="fr9M
acyl carrier protein" points="2778,10 2786,40 2778,70" fill="rgb(255,255,255)" fill-opacity="1.0" stroke="rgb(0,0,0)" stroke-width="2"  />
			<g>
				<title>PP-binding (PF00550)
"Phosphopantetheine attachment site"</title>
				<polygon class="PF00550" points="2778,28 2779,28 2782,40 2779,52 2778,52" stroke-linejoin="round" width="7" height="24" fill="rgb(103,191,88)" stroke="rgb(82,152,70)" stroke-width="1" opacity="0.75" />
			</g>
		</g>
		<g>
			<title>fr9N
beta-ketoacyl synthase</title>
			<polygon class="fr9N
beta-ketoacyl synthase" points="2786,25 2798,25 2798,10 2828,40 2798,70 2798,55 2786,55" fill="rgb(255,255,255)" fill-opacity="1.0" stroke="rgb(0,0,0)" stroke-width="2"  />
			<g>
				<title>ketoacyl-synt (PF00109)
"Beta-ketoacyl synthase, N-terminal domain"</title>
				<rect class="PF00109" x="2786" y="28" stroke-linejoin="round" width="24" height="24" fill="rgb(112,116,228)" stroke="rgb(89,92,182)" stroke-width="1" opacity="0.75" />
			</g>
			<g>
				<title>Ketoacyl-synt_C (PF02801)
"Beta-ketoacyl synthase, C-terminal domain"</title>
				<polygon class="PF02801" points="2812,29 2823,40 2823,40 2812,51" stroke-linejoin="round" width="11" height="24" fill="rgb(215,78,102)" stroke="rgb(172,62,81)" stroke-width="1" opacity="0.75" />
			</g>
		</g>
		<g>
			<title>fr9O
malonyl CoA-acyl carrier protein transacylase</title>
			<polygon class="fr9O
malonyl CoA-acyl carrier protein transacylase" points="2828,25 2835,25 2835,10 2865,40 2835,70 2835,55 2828,55" fill="rgb(255,255,255)" fill-opacity="1.0" stroke="rgb(0,0,0)" stroke-width="2"  />
			<g>
				<title>Acyl_transf_1 (PF00698)
"Acyl transferase domain"</title>
				<polygon class="PF00698" points="2828,28 2849,28 2853,32 2853,48 2849,52 2828,52" stroke-linejoin="round" width="25" height="24" fill="rgb(59,176,209)" stroke="rgb(47,140,167)" stroke-width="1" opacity="0.75" />
			</g>
		</g>
		<g>
			<title>fr9P
dioxygenase</title>
			<polygon class="fr9P
dioxygenase" points="2877,25 2881,25 2881,10 2911,40 2881,70 2881,55 2877,55" fill="rgb(255,255,255)" fill-opacity="1.0" stroke="rgb(0,0,0)" stroke-width="2"  />
			<g>
				<title>TauD (PF02668)
"Taurine catabolism dioxygenase TauD, TfdA family"</title>
				<polygon class="PF02668" points="2879,28 2894,28 2906,40 2894,52 2879,52" stroke-linejoin="round" width="30" height="24" fill="rgb(180,79,217)" stroke="rgb(144,63,173)" stroke-width="1" opacity="0.75" />
			</g>
		</g>
		<g>
			<title>fr9Q
hypothetical protein</title>
			<polygon class="fr9Q
hypothetical protein" points="2919,10 2933,40 2919,70" fill="rgb(255,255,255)" fill-opacity="1.0" stroke="rgb(0,0,0)" stroke-width="2"  />
			<g>
				<title>Lipocalin_5 (PF13924)
"Lipocalin-like domain"</title>
				<polygon class="PF13924" points="2919,28 2924,28 2930,40 2924,52 2919,52" stroke-linejoin="round" width="13" height="24" fill="rgb(187,88,47)" stroke="rgb(149,70,37)" stroke-width="1" opacity="0.75" />
			</g>
		</g>
		<g>
			<title>fr9R
cytochrome P450</title>
			<polygon class="fr9R
cytochrome P450" points="2937,25 2955,25 2955,10 2985,40 2955,70 2955,55 2937,55" fill="rgb(255,255,255)" fill-opacity="1.0" stroke="rgb(0,0,0)" stroke-width="2"  />
			<g>
				<title>p450 (PF00067)
"Cytochrome P450"</title>
				<polygon class="PF00067" points="2941,28 2969,28 2981,40 2969,52 2941,52" stroke-linejoin="round" width="43" height="24" fill="rgb(85,216,107)" stroke="rgb(68,172,85)" stroke-width="1" opacity="0.75" />
			</g>
		</g>
		<g>
			<title>fr9S
acetyltransferase</title>
			<polygon class="fr9S
acetyltransferase" points="3002,10 3017,40 3002,70" fill="rgb(255,255,255)" fill-opacity="1.0" stroke="rgb(0,0,0)" stroke-width="2"  />
			<g>
				<title>Acetyltransf_1 (PF00583)
"Acetyltransferase (GNAT) family"</title>
				<polygon class="PF00583" points="3003,28 3007,28 3013,40 3007,52 3003,52" stroke-linejoin="round" width="11" height="24" fill="rgb(121,183,50)" stroke="rgb(96,146,39)" stroke-width="1" opacity="0.75" />
			</g>
		</g>
		<g>
			<title>fr9T
diguanylate cyclase</title>
			<polygon class="fr9T
diguanylate cyclase" points="3047,25 3063,25 3063,10 3093,40 3063,70 3063,55 3047,55" fill="rgb(255,255,255)" fill-opacity="1.0" stroke="rgb(0,0,0)" stroke-width="2"  />
			<g>
				<title>GGDEF (PF00990)
"Diguanylate cyclase, GGDEF domain"</title>
				<polygon class="PF00990" points="3077,28 3077,28 3089,40 3077,52 3077,52" stroke-linejoin="round" width="15" height="24" fill="rgb(62,170,199)" stroke="rgb(49,135,159)" stroke-width="1" opacity="0.75" />
			</g>
		</g>
		<g>
			<title>
histone family protein DNA-binding protein</title>
			<polygon class="
histone family protein DNA-binding protein" points="3097,10 3106,40 3097,70" fill="rgb(255,255,255)" fill-opacity="1.0" stroke="rgb(0,0,0)" stroke-width="2"  />
			<g>
				<title>Bac_DNA_binding (PF00216)
"Bacterial DNA-binding protein"</title>
				<polygon class="PF00216" points="3097,28 3099,28 3103,40 3099,52 3097,52" stroke-linejoin="round" width="8" height="24" fill="rgb(73,205,204)" stroke="rgb(58,164,163)" stroke-width="1" opacity="0.75" />
			</g>
		</g>
		<g>
			<title>
integrase</title>
			<polygon class="
integrase" points="3156,25 3152,25 3152,10 3122,40 3152,70 3152,55 3156,55" fill="rgb(255,255,255)" fill-opacity="1.0" stroke="rgb(0,0,0)" stroke-width="2"  />
			<g>
				<title>rve (PF00665)
"Integrase core domain"</title>
				<polygon class="PF00665" points="3129,37 3138,28 3140,28 3140,52 3138,52 3129,43" stroke-linejoin="round" width="11" height="24" fill="rgb(93,64,200)" stroke="rgb(74,51,160)" stroke-width="1" opacity="0.75" />
			</g>
			<g>
				<title>LZ_Tnp_IS481 (PF13011)
"leucine-zipper of insertion element IS481"</title>
				<rect class="PF13011" x="3145" y="28" stroke-linejoin="round" width="8" height="24" fill="rgb(93,211,191)" stroke="rgb(74,168,152)" stroke-width="1" opacity="0.75" />
			</g>
		</g>
	</g>
</svg>
