<svg version="1.1" baseProfile="full" xmlns="http://www.w3.org/2000/svg" width="228.96666666666667" height="80">
	<g>
		<line x1="10" y1="40.0" x2="218.96666666666667" y2="40.0" style="stroke:rgb(70,70,70); stroke-width:3 "/>
		<g>
			<title> (I35_4191)
PROBABLE REMNANT OF A TRANSPOSASE GENE PROTEIN</title>
			<polygon class=" (I35_4191)
PROBABLE REMNANT OF A TRANSPOSASE GENE PROTEIN" points="10,10 36,40 10,70" fill="rgb(255,255,255)" fill-opacity="1.0" stroke="rgb(0,0,0)" stroke-width="2"  />
			<g>
				<title>DUF3050 (PF11251)
"Protein of unknown function (DUF3050)"</title>
				<polygon class="PF11251" points="11,28 22,28 32,40 22,52 11,52" stroke-linejoin="round" width="22" height="24" fill="rgb(203,95,181)" stroke="rgb(162,76,144)" stroke-width="1" opacity="0.75" />
			</g>
		</g>
		<g>
			<title> (I35_4192)
hypothetical protein</title>
			<polygon class=" (I35_4192)
hypothetical protein" points="35,10 48,40 35,70" fill="rgb(255,255,255)" fill-opacity="1.0" stroke="rgb(0,0,0)" stroke-width="2"  />
		</g>
		<g>
			<title> (I35_4193)
hypothetical protein</title>
			<polygon class=" (I35_4193)
hypothetical protein" points="48,25 48,25 48,10 78,40 48,70 48,55 48,55" fill="rgb(255,255,255)" fill-opacity="1.0" stroke="rgb(0,0,0)" stroke-width="2"  />
			<g>
				<title>AurF (PF11583)
"P-aminobenzoate N-oxygenase AurF"</title>
				<polygon class="PF11583" points="49,28 62,28 74,40 62,52 49,52" stroke-linejoin="round" width="26" height="24" fill="rgb(100,210,108)" stroke="rgb(80,168,86)" stroke-width="1" opacity="0.75" />
			</g>
		</g>
		<g>
			<title> (I35_4194)
Peptide synthetase</title>
			<polygon class=" (I35_4194)
Peptide synthetase" points="80,25 168,25 168,10 198,40 168,70 168,55 80,55" fill="rgb(255,255,255)" fill-opacity="1.0" stroke="rgb(0,0,0)" stroke-width="2"  />
			<g>
				<title>AMP-binding (PF00501)
"AMP-binding enzyme"</title>
				<rect class="PF00501" x="99" y="28" stroke-linejoin="round" width="39" height="24" fill="rgb(60,217,223)" stroke="rgb(48,173,178)" stroke-width="1" opacity="0.75" />
			</g>
			<g>
				<title>AMP-binding_C (PF13193)
"AMP-binding enzyme C-terminal domain"</title>
				<rect class="PF13193" x="140" y="28" stroke-linejoin="round" width="7" height="24" fill="rgb(182,50,118)" stroke="rgb(145,39,94)" stroke-width="1" opacity="0.75" />
			</g>
			<g>
				<title>PP-binding (PF00550)
"Phosphopantetheine attachment site"</title>
				<rect class="PF00550" x="150" y="28" stroke-linejoin="round" width="6" height="24" fill="rgb(103,191,88)" stroke="rgb(82,152,70)" stroke-width="1" opacity="0.75" />
			</g>
			<g>
				<title>NAD_binding_4 (PF07993)
"Male sterility protein"</title>
				<polygon class="PF07993" points="160,28 182,28 183,29 183,51 182,52 160,52" stroke-linejoin="round" width="23" height="24" fill="rgb(100,212,204)" stroke="rgb(80,169,163)" stroke-width="1" opacity="0.75" />
			</g>
		</g>
		<g>
			<title> (I35_4195)
hypothetical protein</title>
			<polygon class=" (I35_4195)
hypothetical protein" points="200,10 216,40 200,70" fill="rgb(255,255,255)" fill-opacity="1.0" stroke="rgb(0,0,0)" stroke-width="2"  />
			<g>
				<title>Polyketide_cyc2 (PF10604)
"Polyketide cyclase / dehydrase and lipid transport"</title>
				<polygon class="PF10604" points="202,28 206,28 212,40 206,52 202,52" stroke-linejoin="round" width="13" height="24" fill="rgb(105,204,74)" stroke="rgb(84,163,59)" stroke-width="1" opacity="0.75" />
			</g>
		</g>
	</g>
</svg>
