<svg version="1.1" baseProfile="full" xmlns="http://www.w3.org/2000/svg" width="1155.1333333333334" height="80">
	<g>
		<line x1="10" y1="40.0" x2="1145.1333333333334" y2="40.0" style="stroke:rgb(70,70,70); stroke-width:3 "/>
		<g>
			<title>
CysB</title>
			<polygon class="
CysB" points="10,40 18,10 18,70" fill="rgb(255,255,255)" fill-opacity="1.0" stroke="rgb(0,0,0)" stroke-width="2"  />
			<g>
				<title>HTH_1 (PF00126)
"Bacterial regulatory helix-turn-helix protein, lysR family"</title>
				<polygon class="PF00126" points="13,40 16,28 18,28 18,52 16,52" stroke-linejoin="round" width="6" height="24" fill="rgb(125,227,79)" stroke="rgb(99,181,63)" stroke-width="1" opacity="0.75" />
			</g>
		</g>
		<g>
			<title>
UspA domain-containing protein</title>
			<polygon class="
UspA domain-containing protein" points="22,40 38,10 38,70" fill="rgb(255,255,255)" fill-opacity="1.0" stroke="rgb(0,0,0)" stroke-width="2"  />
			<g>
				<title>Usp (PF00582)
"Universal stress protein family"</title>
				<polygon class="PF00582" points="25,40 32,28 38,28 38,52 32,52" stroke-linejoin="round" width="15" height="24" fill="rgb(129,199,88)" stroke="rgb(103,159,70)" stroke-width="1" opacity="0.75" />
			</g>
		</g>
		<g>
			<title>
5' nucleotidase</title>
			<polygon class="
5' nucleotidase" points="74,25 74,25 74,10 44,40 74,70 74,55 74,55" fill="rgb(255,255,255)" fill-opacity="1.0" stroke="rgb(0,0,0)" stroke-width="2"  />
			<g>
				<title>5-nucleotidase (PF06189)
"5'-nucleotidase"</title>
				<polygon class="PF06189" points="48,40 60,28 69,28 69,52 60,52" stroke-linejoin="round" width="25" height="24" fill="rgb(184,130,52)" stroke="rgb(147,104,41)" stroke-width="1" opacity="0.75" />
			</g>
		</g>
		<g>
			<title>
2-dehydropantoate 2-reducatse</title>
			<polygon class="
2-dehydropantoate 2-reducatse" points="106,25 105,25 105,10 75,40 105,70 105,55 106,55" fill="rgb(255,255,255)" fill-opacity="1.0" stroke="rgb(0,0,0)" stroke-width="2"  />
			<g>
				<title>ApbA_C (PF08546)
"Ketopantoate reductase PanE/ApbA C terminal"</title>
				<polygon class="PF08546" points="79,40 87,32 87,48" stroke-linejoin="round" width="12" height="24" fill="rgb(188,163,68)" stroke="rgb(150,130,54)" stroke-width="1" opacity="0.75" />
			</g>
			<g>
				<title>ApbA (PF02558)
"Ketopantoate reductase PanE/ApbA"</title>
				<polygon class="PF02558" points="90,29 91,28 105,28 105,52 91,52 90,51" stroke-linejoin="round" width="15" height="24" fill="rgb(91,128,221)" stroke="rgb(72,102,176)" stroke-width="1" opacity="0.75" />
			</g>
		</g>
		<g>
			<title>
hypothetical protein</title>
			<polygon class="
hypothetical protein" points="106,40 117,10 117,70" fill="rgb(255,255,255)" fill-opacity="1.0" stroke="rgb(0,0,0)" stroke-width="2"  />
		</g>
		<g>
			<title>
PilZ</title>
			<polygon class="
PilZ" points="119,10 133,40 119,70" fill="rgb(255,255,255)" fill-opacity="1.0" stroke="rgb(0,0,0)" stroke-width="2"  />
			<g>
				<title>PilZ (PF07238)
"PilZ domain"</title>
				<polygon class="PF07238" points="119,28 123,28 128,37 128,43 123,52 119,52" stroke-linejoin="round" width="9" height="24" fill="rgb(62,150,178)" stroke="rgb(49,120,142)" stroke-width="1" opacity="0.75" />
			</g>
		</g>
		<g>
			<title>
phospho-2-dehydro-3-deoxyheptonate aldolase</title>
			<polygon class="
phospho-2-dehydro-3-deoxyheptonate aldolase" points="145,25 151,25 151,10 181,40 151,70 151,55 145,55" fill="rgb(255,255,255)" fill-opacity="1.0" stroke="rgb(0,0,0)" stroke-width="2"  />
			<g>
				<title>DAHP_synth_1 (PF00793)
"DAHP synthetase I family"</title>
				<polygon class="PF00793" points="147,28 165,28 177,40 165,52 147,52" stroke-linejoin="round" width="32" height="24" fill="rgb(223,103,208)" stroke="rgb(178,82,166)" stroke-width="1" opacity="0.75" />
			</g>
		</g>
		<g>
			<title>
MFS-family transporter</title>
			<polygon class="
MFS-family transporter" points="229,25 218,25 218,10 188,40 218,70 218,55 229,55" fill="rgb(255,255,255)" fill-opacity="1.0" stroke="rgb(0,0,0)" stroke-width="2"  />
			<g>
				<title>MFS_1 (PF07690)
"Major Facilitator Superfamily"</title>
				<polygon class="PF07690" points="196,36 204,28 227,28 227,52 204,52 196,44" stroke-linejoin="round" width="31" height="24" fill="rgb(193,224,74)" stroke="rgb(154,179,59)" stroke-width="1" opacity="0.75" />
			</g>
		</g>
		<g>
			<title>dddD
DddD</title>
			<polygon class="dddD
DddD" points="318,25 265,25 265,10 235,40 265,70 265,55 318,55" fill="rgb(255,255,255)" fill-opacity="1.0" stroke="rgb(0,0,0)" stroke-width="2"  />
			<g>
				<title>CoA_transf_3 (PF02515)
"CoA-transferase family III"</title>
				<polygon class="PF02515" points="243,36 251,28 273,28 273,52 251,52 243,44" stroke-linejoin="round" width="30" height="24" fill="rgb(226,102,90)" stroke="rgb(180,81,72)" stroke-width="1" opacity="0.75" />
			</g>
			<g>
				<title>CoA_transf_3 (PF02515)
"CoA-transferase family III"</title>
				<rect class="PF02515" x="278" y="28" stroke-linejoin="round" width="39" height="24" fill="rgb(226,102,90)" stroke="rgb(180,81,72)" stroke-width="1" opacity="0.75" />
			</g>
		</g>
		<g>
			<title>dddT
DddT</title>
			<polygon class="dddT
DddT" points="342,25 366,25 366,10 396,40 366,70 366,55 342,55" fill="rgb(255,255,255)" fill-opacity="1.0" stroke="rgb(0,0,0)" stroke-width="2"  />
			<g>
				<title>BCCT (PF02028)
"BCCT, betaine/carnitine/choline family transporter"</title>
				<polygon class="PF02028" points="344,28 380,28 392,40 392,40 380,52 344,52" stroke-linejoin="round" width="48" height="24" fill="rgb(206,109,74)" stroke="rgb(164,87,59)" stroke-width="1" opacity="0.75" />
			</g>
		</g>
		<g>
			<title>dddB
DddB</title>
			<polygon class="dddB
DddB" points="400,25 408,25 408,10 438,40 408,70 408,55 400,55" fill="rgb(255,255,255)" fill-opacity="1.0" stroke="rgb(0,0,0)" stroke-width="2"  />
			<g>
				<title>Fe-ADH (PF00465)
"Iron-containing alcohol dehydrogenase"</title>
				<polygon class="PF00465" points="400,28 422,28 434,40 422,52 400,52" stroke-linejoin="round" width="36" height="24" fill="rgb(73,179,216)" stroke="rgb(58,143,172)" stroke-width="1" opacity="0.75" />
			</g>
		</g>
		<g>
			<title>dddC
DddC</title>
			<polygon class="dddC
DddC" points="441,25 460,25 460,10 490,40 460,70 460,55 441,55" fill="rgb(255,255,255)" fill-opacity="1.0" stroke="rgb(0,0,0)" stroke-width="2"  />
			<g>
				<title>Aldedh (PF00171)
"Aldehyde dehydrogenase family"</title>
				<polygon class="PF00171" points="442,28 474,28 486,40 474,52 442,52" stroke-linejoin="round" width="46" height="24" fill="rgb(105,213,139)" stroke="rgb(84,170,111)" stroke-width="1" opacity="0.75" />
			</g>
		</g>
		<g>
			<title>iclR
IclR</title>
			<polygon class="iclR
IclR" points="495,10 520,40 495,70" fill="rgb(255,255,255)" fill-opacity="1.0" stroke="rgb(0,0,0)" stroke-width="2"  />
			<g>
				<title>HTH_IclR (PF09339)
"IclR helix-turn-helix domain"</title>
				<rect class="PF09339" x="495" y="28" stroke-linejoin="round" width="5" height="24" fill="rgb(135,102,222)" stroke="rgb(108,81,177)" stroke-width="1" opacity="0.75" />
			</g>
			<g>
				<title>IclR (PF01614)
"Bacterial transcriptional regulator"</title>
				<polygon class="PF01614" points="507,28 507,28 516,40 507,52 507,52" stroke-linejoin="round" width="12" height="24" fill="rgb(58,93,180)" stroke="rgb(46,74,144)" stroke-width="1" opacity="0.75" />
			</g>
		</g>
		<g>
			<title>dddR
DddR</title>
			<polygon class="dddR
DddR" points="521,25 521,25 521,10 551,40 521,70 521,55 521,55" fill="rgb(255,255,255)" fill-opacity="1.0" stroke="rgb(0,0,0)" stroke-width="2"  />
			<g>
				<title>HTH_1 (PF00126)
"Bacterial regulatory helix-turn-helix protein, lysR family"</title>
				<rect class="PF00126" x="521" y="28" stroke-linejoin="round" width="5" height="24" fill="rgb(125,227,79)" stroke="rgb(99,181,63)" stroke-width="1" opacity="0.75" />
			</g>
			<g>
				<title>LysR_substrate (PF03466)
"LysR substrate binding domain"</title>
				<polygon class="PF03466" points="529,28 535,28 547,40 535,52 529,52" stroke-linejoin="round" width="20" height="24" fill="rgb(55,136,195)" stroke="rgb(44,108,156)" stroke-width="1" opacity="0.75" />
			</g>
		</g>
		<g>
			<title>
NHL repeat-containing protein</title>
			<polygon class="
NHL repeat-containing protein" points="639,25 678,25 678,10 708,40 678,70 678,55 639,55" fill="rgb(255,255,255)" fill-opacity="1.0" stroke="rgb(0,0,0)" stroke-width="2"  />
		</g>
		<g>
			<title>
benzoate transporter</title>
			<polygon class="
benzoate transporter" points="755,25 746,25 746,10 716,40 746,70 746,55 755,55" fill="rgb(255,255,255)" fill-opacity="1.0" stroke="rgb(0,0,0)" stroke-width="2"  />
			<g>
				<title>BenE (PF03594)
"Benzoate membrane transport protein"</title>
				<polygon class="PF03594" points="720,40 732,28 753,28 753,52 732,52" stroke-linejoin="round" width="37" height="24" fill="rgb(92,227,90)" stroke="rgb(73,181,72)" stroke-width="1" opacity="0.75" />
			</g>
		</g>
		<g>
			<title>
lysine exporter protein</title>
			<polygon class="
lysine exporter protein" points="756,40 776,10 776,70" fill="rgb(255,255,255)" fill-opacity="1.0" stroke="rgb(0,0,0)" stroke-width="2"  />
			<g>
				<title>LysE (PF01810)
"LysE type translocator"</title>
				<polygon class="PF01810" points="760,40 768,28 774,28 774,52 768,52" stroke-linejoin="round" width="17" height="24" fill="rgb(198,75,167)" stroke="rgb(158,60,133)" stroke-width="1" opacity="0.75" />
			</g>
		</g>
		<g>
			<title>
MarR</title>
			<polygon class="
MarR" points="781,40 796,10 796,70" fill="rgb(255,255,255)" fill-opacity="1.0" stroke="rgb(0,0,0)" stroke-width="2"  />
			<g>
				<title>MarR_2 (PF12802)
"MarR family"</title>
				<polygon class="PF12802" points="786,36 790,28 791,28 791,52 790,52 786,44" stroke-linejoin="round" width="5" height="24" fill="rgb(46,89,185)" stroke="rgb(36,71,148)" stroke-width="1" opacity="0.75" />
			</g>
		</g>
		<g>
			<title>
GntR</title>
			<polygon class="
GntR" points="800,25 808,25 808,10 838,40 808,70 808,55 800,55" fill="rgb(255,255,255)" fill-opacity="1.0" stroke="rgb(0,0,0)" stroke-width="2"  />
			<g>
				<title>Aminotran_1_2 (PF00155)
"Aminotransferase class I and II"</title>
				<polygon class="PF00155" points="804,28 822,28 834,40 822,52 804,52" stroke-linejoin="round" width="33" height="24" fill="rgb(89,113,198)" stroke="rgb(71,90,158)" stroke-width="1" opacity="0.75" />
			</g>
		</g>
		<g>
			<title>
glutathione S-transferase</title>
			<polygon class="
glutathione S-transferase" points="840,10 860,40 840,70" fill="rgb(255,255,255)" fill-opacity="1.0" stroke="rgb(0,0,0)" stroke-width="2"  />
			<g>
				<title>GST_N (PF02798)
"Glutathione S-transferase, N-terminal domain"</title>
				<rect class="PF02798" x="840" y="28" stroke-linejoin="round" width="7" height="24" fill="rgb(82,167,186)" stroke="rgb(65,133,148)" stroke-width="1" opacity="0.75" />
			</g>
			<g>
				<title>GST_C (PF00043)
"Glutathione S-transferase, C-terminal domain"</title>
				<polygon class="PF00043" points="849,29 856,40 849,51" stroke-linejoin="round" width="10" height="24" fill="rgb(102,108,211)" stroke="rgb(81,86,168)" stroke-width="1" opacity="0.75" />
			</g>
		</g>
		<g>
			<title>
UvrD/REP helicase</title>
			<polygon class="
UvrD/REP helicase" points="864,25 898,25 898,10 928,40 898,70 898,55 864,55" fill="rgb(255,255,255)" fill-opacity="1.0" stroke="rgb(0,0,0)" stroke-width="2"  />
			<g>
				<title>UvrD-helicase (PF00580)
"UvrD/REP helicase N-terminal domain"</title>
				<rect class="PF00580" x="874" y="28" stroke-linejoin="round" width="33" height="24" fill="rgb(91,222,150)" stroke="rgb(72,177,120)" stroke-width="1" opacity="0.75" />
			</g>
		</g>
		<g>
			<title>
isochorismate synthase</title>
			<polygon class="
isochorismate synthase" points="938,25 947,25 947,10 977,40 947,70 947,55 938,55" fill="rgb(255,255,255)" fill-opacity="1.0" stroke="rgb(0,0,0)" stroke-width="2"  />
			<g>
				<title>Chorismate_bind (PF00425)
"chorismate binding enzyme"</title>
				<polygon class="PF00425" points="950,28 960,28 972,40 960,52 950,52" stroke-linejoin="round" width="25" height="24" fill="rgb(188,116,88)" stroke="rgb(150,92,70)" stroke-width="1" opacity="0.75" />
			</g>
		</g>
		<g>
			<title>
enterobactin synthase subunit E</title>
			<polygon class="
enterobactin synthase subunit E" points="977,25 1001,25 1001,10 1031,40 1001,70 1001,55 977,55" fill="rgb(255,255,255)" fill-opacity="1.0" stroke="rgb(0,0,0)" stroke-width="2"  />
			<g>
				<title>AMP-binding (PF00501)
"AMP-binding enzyme"</title>
				<polygon class="PF00501" points="980,28 1014,28 1020,34 1020,46 1014,52 980,52" stroke-linejoin="round" width="40" height="24" fill="rgb(60,217,223)" stroke="rgb(48,173,178)" stroke-width="1" opacity="0.75" />
			</g>
			<g>
				<title>AMP-binding_C (PF13193)
"AMP-binding enzyme C-terminal domain"</title>
				<polygon class="PF13193" points="1021,35 1026,40 1021,45" stroke-linejoin="round" width="7" height="24" fill="rgb(182,50,118)" stroke="rgb(145,39,94)" stroke-width="1" opacity="0.75" />
			</g>
		</g>
		<g>
			<title>
isochorismatase</title>
			<polygon class="
isochorismatase" points="1031,10 1060,40 1031,70" fill="rgb(255,255,255)" fill-opacity="1.0" stroke="rgb(0,0,0)" stroke-width="2"  />
			<g>
				<title>Isochorismatase (PF00857)
"Isochorismatase family"</title>
				<polygon class="PF00857" points="1033,28 1043,28 1050,34 1050,46 1043,52 1033,52" stroke-linejoin="round" width="17" height="24" fill="rgb(144,224,70)" stroke="rgb(115,179,56)" stroke-width="1" opacity="0.75" />
			</g>
			<g>
				<title>PP-binding (PF00550)
"Phosphopantetheine attachment site"</title>
				<polygon class="PF00550" points="1052,36 1055,40 1052,44" stroke-linejoin="round" width="6" height="24" fill="rgb(103,191,88)" stroke="rgb(82,152,70)" stroke-width="1" opacity="0.75" />
			</g>
		</g>
		<g>
			<title>
enterobactin synthetase component F</title>
			<polygon class="
enterobactin synthetase component F" points="1060,25 1114,25 1114,10 1144,40 1114,70 1114,55 1060,55" fill="rgb(255,255,255)" fill-opacity="1.0" stroke="rgb(0,0,0)" stroke-width="2"  />
			<g>
				<title>Condensation (PF00668)
"Condensation domain"</title>
				<rect class="PF00668" x="1060" y="28" stroke-linejoin="round" width="43" height="24" fill="rgb(224,184,98)" stroke="rgb(179,147,78)" stroke-width="1" opacity="0.75" />
			</g>
			<g>
				<title>AMP-binding (PF00501)
"AMP-binding enzyme"</title>
				<polygon class="PF00501" points="1105,28 1128,28 1140,40 1128,52 1105,52" stroke-linejoin="round" width="38" height="24" fill="rgb(60,217,223)" stroke="rgb(48,173,178)" stroke-width="1" opacity="0.75" />
			</g>
		</g>
	</g>
</svg>
